%TF.GenerationSoftware,KiCad,Pcbnew,7.0.1*%
%TF.CreationDate,2024-02-04T21:46:45+03:00*%
%TF.ProjectId,delta_flop_arduino,64656c74-615f-4666-9c6f-705f61726475,rev?*%
%TF.SameCoordinates,Original*%
%TF.FileFunction,Drillmap*%
%TF.FilePolarity,Positive*%
%FSLAX45Y45*%
G04 Gerber Fmt 4.5, Leading zero omitted, Abs format (unit mm)*
G04 Created by KiCad (PCBNEW 7.0.1) date 2024-02-04 21:46:45*
%MOMM*%
%LPD*%
G01*
G04 APERTURE LIST*
%ADD10C,0.100000*%
%ADD11C,0.200000*%
%ADD12C,0.060000*%
%ADD13C,0.080000*%
%ADD14C,0.150000*%
G04 APERTURE END LIST*
D10*
X10427640Y-10154920D02*
G75*
G03*
X10327640Y-10254920I0J-100000D01*
G01*
X14970760Y-10254920D02*
G75*
G03*
X14870760Y-10154920I-100000J0D01*
G01*
X10327640Y-16044240D02*
G75*
G03*
X10427640Y-16144240I100000J0D01*
G01*
X19441160Y-12269800D02*
X19441160Y-10254920D01*
X22000000Y-10254920D02*
G75*
G03*
X21900000Y-10154920I-100000J0D01*
G01*
X22000000Y-10254920D02*
X22000000Y-16044240D01*
X19541160Y-10154920D02*
G75*
G03*
X19441160Y-10254920I0J-100000D01*
G01*
X10327640Y-16044240D02*
X10327640Y-10254920D01*
X19541160Y-10154920D02*
X21900000Y-10154920D01*
X19341160Y-12369800D02*
G75*
G03*
X19441160Y-12269800I0J100000D01*
G01*
X21900000Y-16144240D02*
G75*
G03*
X22000000Y-16044240I0J100000D01*
G01*
X14970760Y-12269800D02*
G75*
G03*
X15070760Y-12369800I100000J0D01*
G01*
X21900000Y-16144240D02*
X10427640Y-16144240D01*
X10427640Y-10154920D02*
X14870760Y-10154920D01*
X15070760Y-12369800D02*
X19341160Y-12369800D01*
X14970760Y-10254920D02*
X14970760Y-12269800D01*
D11*
D12*
X20671360Y-15566400D02*
X20731360Y-15626400D01*
X20731360Y-15566400D02*
X20671360Y-15626400D01*
D11*
X20731360Y-15651400D02*
X20731360Y-15541400D01*
X20731360Y-15541400D02*
G75*
G03*
X20671360Y-15541400I-30000J0D01*
G01*
X20671360Y-15541400D02*
X20671360Y-15651400D01*
X20671360Y-15651400D02*
G75*
G03*
X20731360Y-15651400I30000J0D01*
G01*
D12*
X20671360Y-15984400D02*
X20731360Y-16044400D01*
X20731360Y-15984400D02*
X20671360Y-16044400D01*
D11*
X20731360Y-16044400D02*
X20731360Y-15984400D01*
X20731360Y-15984400D02*
G75*
G03*
X20671360Y-15984400I-30000J0D01*
G01*
X20671360Y-15984400D02*
X20671360Y-16044400D01*
X20671360Y-16044400D02*
G75*
G03*
X20731360Y-16044400I30000J0D01*
G01*
D12*
X21535360Y-15566400D02*
X21595360Y-15626400D01*
X21595360Y-15566400D02*
X21535360Y-15626400D01*
D11*
X21595360Y-15651400D02*
X21595360Y-15541400D01*
X21595360Y-15541400D02*
G75*
G03*
X21535360Y-15541400I-30000J0D01*
G01*
X21535360Y-15541400D02*
X21535360Y-15651400D01*
X21535360Y-15651400D02*
G75*
G03*
X21595360Y-15651400I30000J0D01*
G01*
D12*
X21535360Y-15984400D02*
X21595360Y-16044400D01*
X21595360Y-15984400D02*
X21535360Y-16044400D01*
D11*
X21595360Y-16044400D02*
X21595360Y-15984400D01*
X21595360Y-15984400D02*
G75*
G03*
X21535360Y-15984400I-30000J0D01*
G01*
X21535360Y-15984400D02*
X21535360Y-16044400D01*
X21535360Y-16044400D02*
G75*
G03*
X21595360Y-16044400I30000J0D01*
G01*
D13*
X12790800Y-11445240D02*
G75*
G03*
X12790800Y-11445240I-40000J0D01*
G01*
X12790800Y-11699240D02*
G75*
G03*
X12790800Y-11699240I-40000J0D01*
G01*
X12790800Y-11953240D02*
G75*
G03*
X12790800Y-11953240I-40000J0D01*
G01*
X12790800Y-12207240D02*
G75*
G03*
X12790800Y-12207240I-40000J0D01*
G01*
X12790800Y-12461240D02*
G75*
G03*
X12790800Y-12461240I-40000J0D01*
G01*
X12790800Y-12715240D02*
G75*
G03*
X12790800Y-12715240I-40000J0D01*
G01*
X12790800Y-12969240D02*
G75*
G03*
X12790800Y-12969240I-40000J0D01*
G01*
X12790800Y-13223240D02*
G75*
G03*
X12790800Y-13223240I-40000J0D01*
G01*
X12790800Y-13477240D02*
G75*
G03*
X12790800Y-13477240I-40000J0D01*
G01*
X12790800Y-13731240D02*
G75*
G03*
X12790800Y-13731240I-40000J0D01*
G01*
X12790800Y-13985240D02*
G75*
G03*
X12790800Y-13985240I-40000J0D01*
G01*
X12790800Y-14239240D02*
G75*
G03*
X12790800Y-14239240I-40000J0D01*
G01*
X12790800Y-14493240D02*
G75*
G03*
X12790800Y-14493240I-40000J0D01*
G01*
X12790800Y-14747240D02*
G75*
G03*
X12790800Y-14747240I-40000J0D01*
G01*
X12790800Y-15001240D02*
G75*
G03*
X12790800Y-15001240I-40000J0D01*
G01*
X14314800Y-11445240D02*
G75*
G03*
X14314800Y-11445240I-40000J0D01*
G01*
X14314800Y-11699240D02*
G75*
G03*
X14314800Y-11699240I-40000J0D01*
G01*
X14314800Y-11953240D02*
G75*
G03*
X14314800Y-11953240I-40000J0D01*
G01*
X14314800Y-12207240D02*
G75*
G03*
X14314800Y-12207240I-40000J0D01*
G01*
X14314800Y-12461240D02*
G75*
G03*
X14314800Y-12461240I-40000J0D01*
G01*
X14314800Y-12715240D02*
G75*
G03*
X14314800Y-12715240I-40000J0D01*
G01*
X14314800Y-12969240D02*
G75*
G03*
X14314800Y-12969240I-40000J0D01*
G01*
X14314800Y-13223240D02*
G75*
G03*
X14314800Y-13223240I-40000J0D01*
G01*
X14314800Y-13477240D02*
G75*
G03*
X14314800Y-13477240I-40000J0D01*
G01*
X14314800Y-13731240D02*
G75*
G03*
X14314800Y-13731240I-40000J0D01*
G01*
X14314800Y-13985240D02*
G75*
G03*
X14314800Y-13985240I-40000J0D01*
G01*
X14314800Y-14239240D02*
G75*
G03*
X14314800Y-14239240I-40000J0D01*
G01*
X14314800Y-14493240D02*
G75*
G03*
X14314800Y-14493240I-40000J0D01*
G01*
X14314800Y-14747240D02*
G75*
G03*
X14314800Y-14747240I-40000J0D01*
G01*
X14314800Y-15001240D02*
G75*
G03*
X14314800Y-15001240I-40000J0D01*
G01*
X15295240Y-14036040D02*
G75*
G03*
X15295240Y-14036040I-40000J0D01*
G01*
X15295240Y-15052040D02*
G75*
G03*
X15295240Y-15052040I-40000J0D01*
G01*
X15564480Y-13563600D02*
G75*
G03*
X15564480Y-13563600I-40000J0D01*
G01*
X15757520Y-15544800D02*
G75*
G03*
X15757520Y-15544800I-40000J0D01*
G01*
X15899760Y-14025880D02*
G75*
G03*
X15899760Y-14025880I-40000J0D01*
G01*
X15899760Y-15041880D02*
G75*
G03*
X15899760Y-15041880I-40000J0D01*
G01*
X16209640Y-12979400D02*
G75*
G03*
X16209640Y-12979400I-40000J0D01*
G01*
X16565240Y-14015720D02*
G75*
G03*
X16565240Y-14015720I-40000J0D01*
G01*
X16565240Y-15031720D02*
G75*
G03*
X16565240Y-15031720I-40000J0D01*
G01*
X16580480Y-13563600D02*
G75*
G03*
X16580480Y-13563600I-40000J0D01*
G01*
X16773520Y-15544800D02*
G75*
G03*
X16773520Y-15544800I-40000J0D01*
G01*
X17220560Y-14020800D02*
G75*
G03*
X17220560Y-14020800I-40000J0D01*
G01*
X17220560Y-15036800D02*
G75*
G03*
X17220560Y-15036800I-40000J0D01*
G01*
X17225640Y-12979400D02*
G75*
G03*
X17225640Y-12979400I-40000J0D01*
G01*
D10*
X11292840Y-11075200D02*
X11292840Y-11175200D01*
X11242840Y-11125200D02*
X11342840Y-11125200D01*
X11292840Y-11329200D02*
X11292840Y-11429200D01*
X11242840Y-11379200D02*
X11342840Y-11379200D01*
X11292840Y-11583200D02*
X11292840Y-11683200D01*
X11242840Y-11633200D02*
X11342840Y-11633200D01*
X11292840Y-11837200D02*
X11292840Y-11937200D01*
X11242840Y-11887200D02*
X11342840Y-11887200D01*
X11292840Y-12091200D02*
X11292840Y-12191200D01*
X11242840Y-12141200D02*
X11342840Y-12141200D01*
X11292840Y-12345200D02*
X11292840Y-12445200D01*
X11242840Y-12395200D02*
X11342840Y-12395200D01*
X11292840Y-12599200D02*
X11292840Y-12699200D01*
X11242840Y-12649200D02*
X11342840Y-12649200D01*
X11292840Y-12853200D02*
X11292840Y-12953200D01*
X11242840Y-12903200D02*
X11342840Y-12903200D01*
X11292840Y-13107200D02*
X11292840Y-13207200D01*
X11242840Y-13157200D02*
X11342840Y-13157200D01*
X11292840Y-13361200D02*
X11292840Y-13461200D01*
X11242840Y-13411200D02*
X11342840Y-13411200D01*
X11292840Y-13615200D02*
X11292840Y-13715200D01*
X11242840Y-13665200D02*
X11342840Y-13665200D01*
X11292840Y-13869200D02*
X11292840Y-13969200D01*
X11242840Y-13919200D02*
X11342840Y-13919200D01*
X11292840Y-14123200D02*
X11292840Y-14223200D01*
X11242840Y-14173200D02*
X11342840Y-14173200D01*
X11292840Y-14377200D02*
X11292840Y-14477200D01*
X11242840Y-14427200D02*
X11342840Y-14427200D01*
X11292840Y-14631200D02*
X11292840Y-14731200D01*
X11242840Y-14681200D02*
X11342840Y-14681200D01*
X11292840Y-14885200D02*
X11292840Y-14985200D01*
X11242840Y-14935200D02*
X11342840Y-14935200D01*
X11292840Y-15139200D02*
X11292840Y-15239200D01*
X11242840Y-15189200D02*
X11342840Y-15189200D01*
X11546840Y-11075200D02*
X11546840Y-11175200D01*
X11496840Y-11125200D02*
X11596840Y-11125200D01*
X11546840Y-11329200D02*
X11546840Y-11429200D01*
X11496840Y-11379200D02*
X11596840Y-11379200D01*
X11546840Y-11583200D02*
X11546840Y-11683200D01*
X11496840Y-11633200D02*
X11596840Y-11633200D01*
X11546840Y-11837200D02*
X11546840Y-11937200D01*
X11496840Y-11887200D02*
X11596840Y-11887200D01*
X11546840Y-12091200D02*
X11546840Y-12191200D01*
X11496840Y-12141200D02*
X11596840Y-12141200D01*
X11546840Y-12345200D02*
X11546840Y-12445200D01*
X11496840Y-12395200D02*
X11596840Y-12395200D01*
X11546840Y-12599200D02*
X11546840Y-12699200D01*
X11496840Y-12649200D02*
X11596840Y-12649200D01*
X11546840Y-12853200D02*
X11546840Y-12953200D01*
X11496840Y-12903200D02*
X11596840Y-12903200D01*
X11546840Y-13107200D02*
X11546840Y-13207200D01*
X11496840Y-13157200D02*
X11596840Y-13157200D01*
X11546840Y-13361200D02*
X11546840Y-13461200D01*
X11496840Y-13411200D02*
X11596840Y-13411200D01*
X11546840Y-13615200D02*
X11546840Y-13715200D01*
X11496840Y-13665200D02*
X11596840Y-13665200D01*
X11546840Y-13869200D02*
X11546840Y-13969200D01*
X11496840Y-13919200D02*
X11596840Y-13919200D01*
X11546840Y-14123200D02*
X11546840Y-14223200D01*
X11496840Y-14173200D02*
X11596840Y-14173200D01*
X11546840Y-14377200D02*
X11546840Y-14477200D01*
X11496840Y-14427200D02*
X11596840Y-14427200D01*
X11546840Y-14631200D02*
X11546840Y-14731200D01*
X11496840Y-14681200D02*
X11596840Y-14681200D01*
X11546840Y-14885200D02*
X11546840Y-14985200D01*
X11496840Y-14935200D02*
X11596840Y-14935200D01*
X11546840Y-15139200D02*
X11546840Y-15239200D01*
X11496840Y-15189200D02*
X11596840Y-15189200D01*
X12293600Y-13442480D02*
X12293600Y-13542480D01*
X12243600Y-13492480D02*
X12343600Y-13492480D01*
X12293600Y-13696480D02*
X12293600Y-13796480D01*
X12243600Y-13746480D02*
X12343600Y-13746480D01*
X12293600Y-13950480D02*
X12293600Y-14050480D01*
X12243600Y-14000480D02*
X12343600Y-14000480D01*
X17877020Y-14986800D02*
X17877020Y-15086800D01*
X17827020Y-15036800D02*
X17927020Y-15036800D01*
X18131020Y-14986800D02*
X18131020Y-15086800D01*
X18081020Y-15036800D02*
X18181020Y-15036800D01*
X19639280Y-10761240D02*
X19639280Y-10861240D01*
X19589280Y-10811240D02*
X19689280Y-10811240D01*
X19639280Y-11015240D02*
X19639280Y-11115240D01*
X19589280Y-11065240D02*
X19689280Y-11065240D01*
X19639280Y-11269240D02*
X19639280Y-11369240D01*
X19589280Y-11319240D02*
X19689280Y-11319240D01*
X19639280Y-11523240D02*
X19639280Y-11623240D01*
X19589280Y-11573240D02*
X19689280Y-11573240D01*
X20934680Y-10501160D02*
X20934680Y-10601160D01*
X20884680Y-10551160D02*
X20984680Y-10551160D01*
X20934680Y-11951160D02*
X20934680Y-12051160D01*
X20884680Y-12001160D02*
X20984680Y-12001160D01*
X21184680Y-11951160D02*
X21184680Y-12051160D01*
X21134680Y-12001160D02*
X21234680Y-12001160D01*
X21434680Y-10501160D02*
X21434680Y-10601160D01*
X21384680Y-10551160D02*
X21484680Y-10551160D01*
X21434680Y-11951160D02*
X21434680Y-12051160D01*
X21384680Y-12001160D02*
X21484680Y-12001160D01*
D14*
X20677714Y-11304193D02*
X20677714Y-11198126D01*
X20571647Y-11198126D01*
X20571647Y-11304193D01*
X20677714Y-11304193D01*
D11*
X20699680Y-11316160D02*
X20699680Y-11186160D01*
X20699680Y-11186160D02*
G75*
G03*
X20549680Y-11186160I-75000J0D01*
G01*
X20549680Y-11186160D02*
X20549680Y-11316160D01*
X20549680Y-11316160D02*
G75*
G03*
X20699680Y-11316160I75000J0D01*
G01*
D14*
X21797714Y-11304193D02*
X21797714Y-11198126D01*
X21691647Y-11198126D01*
X21691647Y-11304193D01*
X21797714Y-11304193D01*
D11*
X21819680Y-11316160D02*
X21819680Y-11186160D01*
X21819680Y-11186160D02*
G75*
G03*
X21669680Y-11186160I-75000J0D01*
G01*
X21669680Y-11186160D02*
X21669680Y-11316160D01*
X21669680Y-11316160D02*
G75*
G03*
X21819680Y-11316160I75000J0D01*
G01*
X10570259Y-16461764D02*
X10570259Y-16261764D01*
X10570259Y-16261764D02*
X10617878Y-16261764D01*
X10617878Y-16261764D02*
X10646450Y-16271288D01*
X10646450Y-16271288D02*
X10665497Y-16290335D01*
X10665497Y-16290335D02*
X10675021Y-16309383D01*
X10675021Y-16309383D02*
X10684545Y-16347478D01*
X10684545Y-16347478D02*
X10684545Y-16376049D01*
X10684545Y-16376049D02*
X10675021Y-16414145D01*
X10675021Y-16414145D02*
X10665497Y-16433192D01*
X10665497Y-16433192D02*
X10646450Y-16452240D01*
X10646450Y-16452240D02*
X10617878Y-16461764D01*
X10617878Y-16461764D02*
X10570259Y-16461764D01*
X10770259Y-16461764D02*
X10770259Y-16328430D01*
X10770259Y-16366526D02*
X10779783Y-16347478D01*
X10779783Y-16347478D02*
X10789307Y-16337954D01*
X10789307Y-16337954D02*
X10808354Y-16328430D01*
X10808354Y-16328430D02*
X10827402Y-16328430D01*
X10894069Y-16461764D02*
X10894069Y-16328430D01*
X10894069Y-16261764D02*
X10884545Y-16271288D01*
X10884545Y-16271288D02*
X10894069Y-16280811D01*
X10894069Y-16280811D02*
X10903592Y-16271288D01*
X10903592Y-16271288D02*
X10894069Y-16261764D01*
X10894069Y-16261764D02*
X10894069Y-16280811D01*
X11017878Y-16461764D02*
X10998830Y-16452240D01*
X10998830Y-16452240D02*
X10989307Y-16433192D01*
X10989307Y-16433192D02*
X10989307Y-16261764D01*
X11122640Y-16461764D02*
X11103592Y-16452240D01*
X11103592Y-16452240D02*
X11094069Y-16433192D01*
X11094069Y-16433192D02*
X11094069Y-16261764D01*
X11351211Y-16461764D02*
X11351211Y-16261764D01*
X11351211Y-16261764D02*
X11417878Y-16404621D01*
X11417878Y-16404621D02*
X11484545Y-16261764D01*
X11484545Y-16261764D02*
X11484545Y-16461764D01*
X11665497Y-16461764D02*
X11665497Y-16357002D01*
X11665497Y-16357002D02*
X11655973Y-16337954D01*
X11655973Y-16337954D02*
X11636926Y-16328430D01*
X11636926Y-16328430D02*
X11598830Y-16328430D01*
X11598830Y-16328430D02*
X11579783Y-16337954D01*
X11665497Y-16452240D02*
X11646449Y-16461764D01*
X11646449Y-16461764D02*
X11598830Y-16461764D01*
X11598830Y-16461764D02*
X11579783Y-16452240D01*
X11579783Y-16452240D02*
X11570259Y-16433192D01*
X11570259Y-16433192D02*
X11570259Y-16414145D01*
X11570259Y-16414145D02*
X11579783Y-16395097D01*
X11579783Y-16395097D02*
X11598830Y-16385573D01*
X11598830Y-16385573D02*
X11646449Y-16385573D01*
X11646449Y-16385573D02*
X11665497Y-16376049D01*
X11760735Y-16328430D02*
X11760735Y-16528430D01*
X11760735Y-16337954D02*
X11779783Y-16328430D01*
X11779783Y-16328430D02*
X11817878Y-16328430D01*
X11817878Y-16328430D02*
X11836926Y-16337954D01*
X11836926Y-16337954D02*
X11846449Y-16347478D01*
X11846449Y-16347478D02*
X11855973Y-16366526D01*
X11855973Y-16366526D02*
X11855973Y-16423668D01*
X11855973Y-16423668D02*
X11846449Y-16442716D01*
X11846449Y-16442716D02*
X11836926Y-16452240D01*
X11836926Y-16452240D02*
X11817878Y-16461764D01*
X11817878Y-16461764D02*
X11779783Y-16461764D01*
X11779783Y-16461764D02*
X11760735Y-16452240D01*
X11941688Y-16442716D02*
X11951211Y-16452240D01*
X11951211Y-16452240D02*
X11941688Y-16461764D01*
X11941688Y-16461764D02*
X11932164Y-16452240D01*
X11932164Y-16452240D02*
X11941688Y-16442716D01*
X11941688Y-16442716D02*
X11941688Y-16461764D01*
X11941688Y-16337954D02*
X11951211Y-16347478D01*
X11951211Y-16347478D02*
X11941688Y-16357002D01*
X11941688Y-16357002D02*
X11932164Y-16347478D01*
X11932164Y-16347478D02*
X11941688Y-16337954D01*
X11941688Y-16337954D02*
X11941688Y-16357002D01*
D12*
X10262640Y-16759240D02*
X10322640Y-16819240D01*
X10322640Y-16759240D02*
X10262640Y-16819240D01*
D11*
X10608354Y-16681764D02*
X10627402Y-16681764D01*
X10627402Y-16681764D02*
X10646450Y-16691288D01*
X10646450Y-16691288D02*
X10655973Y-16700811D01*
X10655973Y-16700811D02*
X10665497Y-16719859D01*
X10665497Y-16719859D02*
X10675021Y-16757954D01*
X10675021Y-16757954D02*
X10675021Y-16805573D01*
X10675021Y-16805573D02*
X10665497Y-16843669D01*
X10665497Y-16843669D02*
X10655973Y-16862716D01*
X10655973Y-16862716D02*
X10646450Y-16872240D01*
X10646450Y-16872240D02*
X10627402Y-16881764D01*
X10627402Y-16881764D02*
X10608354Y-16881764D01*
X10608354Y-16881764D02*
X10589307Y-16872240D01*
X10589307Y-16872240D02*
X10579783Y-16862716D01*
X10579783Y-16862716D02*
X10570259Y-16843669D01*
X10570259Y-16843669D02*
X10560735Y-16805573D01*
X10560735Y-16805573D02*
X10560735Y-16757954D01*
X10560735Y-16757954D02*
X10570259Y-16719859D01*
X10570259Y-16719859D02*
X10579783Y-16700811D01*
X10579783Y-16700811D02*
X10589307Y-16691288D01*
X10589307Y-16691288D02*
X10608354Y-16681764D01*
X10760735Y-16862716D02*
X10770259Y-16872240D01*
X10770259Y-16872240D02*
X10760735Y-16881764D01*
X10760735Y-16881764D02*
X10751211Y-16872240D01*
X10751211Y-16872240D02*
X10760735Y-16862716D01*
X10760735Y-16862716D02*
X10760735Y-16881764D01*
X10941688Y-16681764D02*
X10903592Y-16681764D01*
X10903592Y-16681764D02*
X10884545Y-16691288D01*
X10884545Y-16691288D02*
X10875021Y-16700811D01*
X10875021Y-16700811D02*
X10855973Y-16729383D01*
X10855973Y-16729383D02*
X10846450Y-16767478D01*
X10846450Y-16767478D02*
X10846450Y-16843669D01*
X10846450Y-16843669D02*
X10855973Y-16862716D01*
X10855973Y-16862716D02*
X10865497Y-16872240D01*
X10865497Y-16872240D02*
X10884545Y-16881764D01*
X10884545Y-16881764D02*
X10922640Y-16881764D01*
X10922640Y-16881764D02*
X10941688Y-16872240D01*
X10941688Y-16872240D02*
X10951211Y-16862716D01*
X10951211Y-16862716D02*
X10960735Y-16843669D01*
X10960735Y-16843669D02*
X10960735Y-16796050D01*
X10960735Y-16796050D02*
X10951211Y-16777002D01*
X10951211Y-16777002D02*
X10941688Y-16767478D01*
X10941688Y-16767478D02*
X10922640Y-16757954D01*
X10922640Y-16757954D02*
X10884545Y-16757954D01*
X10884545Y-16757954D02*
X10865497Y-16767478D01*
X10865497Y-16767478D02*
X10855973Y-16777002D01*
X10855973Y-16777002D02*
X10846450Y-16796050D01*
X11084545Y-16681764D02*
X11103592Y-16681764D01*
X11103592Y-16681764D02*
X11122640Y-16691288D01*
X11122640Y-16691288D02*
X11132164Y-16700811D01*
X11132164Y-16700811D02*
X11141688Y-16719859D01*
X11141688Y-16719859D02*
X11151211Y-16757954D01*
X11151211Y-16757954D02*
X11151211Y-16805573D01*
X11151211Y-16805573D02*
X11141688Y-16843669D01*
X11141688Y-16843669D02*
X11132164Y-16862716D01*
X11132164Y-16862716D02*
X11122640Y-16872240D01*
X11122640Y-16872240D02*
X11103592Y-16881764D01*
X11103592Y-16881764D02*
X11084545Y-16881764D01*
X11084545Y-16881764D02*
X11065497Y-16872240D01*
X11065497Y-16872240D02*
X11055973Y-16862716D01*
X11055973Y-16862716D02*
X11046450Y-16843669D01*
X11046450Y-16843669D02*
X11036926Y-16805573D01*
X11036926Y-16805573D02*
X11036926Y-16757954D01*
X11036926Y-16757954D02*
X11046450Y-16719859D01*
X11046450Y-16719859D02*
X11055973Y-16700811D01*
X11055973Y-16700811D02*
X11065497Y-16691288D01*
X11065497Y-16691288D02*
X11084545Y-16681764D01*
X11275021Y-16681764D02*
X11294069Y-16681764D01*
X11294069Y-16681764D02*
X11313116Y-16691288D01*
X11313116Y-16691288D02*
X11322640Y-16700811D01*
X11322640Y-16700811D02*
X11332164Y-16719859D01*
X11332164Y-16719859D02*
X11341688Y-16757954D01*
X11341688Y-16757954D02*
X11341688Y-16805573D01*
X11341688Y-16805573D02*
X11332164Y-16843669D01*
X11332164Y-16843669D02*
X11322640Y-16862716D01*
X11322640Y-16862716D02*
X11313116Y-16872240D01*
X11313116Y-16872240D02*
X11294069Y-16881764D01*
X11294069Y-16881764D02*
X11275021Y-16881764D01*
X11275021Y-16881764D02*
X11255973Y-16872240D01*
X11255973Y-16872240D02*
X11246449Y-16862716D01*
X11246449Y-16862716D02*
X11236926Y-16843669D01*
X11236926Y-16843669D02*
X11227402Y-16805573D01*
X11227402Y-16805573D02*
X11227402Y-16757954D01*
X11227402Y-16757954D02*
X11236926Y-16719859D01*
X11236926Y-16719859D02*
X11246449Y-16700811D01*
X11246449Y-16700811D02*
X11255973Y-16691288D01*
X11255973Y-16691288D02*
X11275021Y-16681764D01*
X11427402Y-16881764D02*
X11427402Y-16748430D01*
X11427402Y-16767478D02*
X11436926Y-16757954D01*
X11436926Y-16757954D02*
X11455973Y-16748430D01*
X11455973Y-16748430D02*
X11484545Y-16748430D01*
X11484545Y-16748430D02*
X11503592Y-16757954D01*
X11503592Y-16757954D02*
X11513116Y-16777002D01*
X11513116Y-16777002D02*
X11513116Y-16881764D01*
X11513116Y-16777002D02*
X11522640Y-16757954D01*
X11522640Y-16757954D02*
X11541688Y-16748430D01*
X11541688Y-16748430D02*
X11570259Y-16748430D01*
X11570259Y-16748430D02*
X11589307Y-16757954D01*
X11589307Y-16757954D02*
X11598830Y-16777002D01*
X11598830Y-16777002D02*
X11598830Y-16881764D01*
X11694069Y-16881764D02*
X11694069Y-16748430D01*
X11694069Y-16767478D02*
X11703592Y-16757954D01*
X11703592Y-16757954D02*
X11722640Y-16748430D01*
X11722640Y-16748430D02*
X11751211Y-16748430D01*
X11751211Y-16748430D02*
X11770259Y-16757954D01*
X11770259Y-16757954D02*
X11779783Y-16777002D01*
X11779783Y-16777002D02*
X11779783Y-16881764D01*
X11779783Y-16777002D02*
X11789307Y-16757954D01*
X11789307Y-16757954D02*
X11808354Y-16748430D01*
X11808354Y-16748430D02*
X11836926Y-16748430D01*
X11836926Y-16748430D02*
X11855973Y-16757954D01*
X11855973Y-16757954D02*
X11865497Y-16777002D01*
X11865497Y-16777002D02*
X11865497Y-16881764D01*
X12255973Y-16672240D02*
X12084545Y-16929383D01*
X12513116Y-16681764D02*
X12532164Y-16681764D01*
X12532164Y-16681764D02*
X12551212Y-16691288D01*
X12551212Y-16691288D02*
X12560735Y-16700811D01*
X12560735Y-16700811D02*
X12570259Y-16719859D01*
X12570259Y-16719859D02*
X12579783Y-16757954D01*
X12579783Y-16757954D02*
X12579783Y-16805573D01*
X12579783Y-16805573D02*
X12570259Y-16843669D01*
X12570259Y-16843669D02*
X12560735Y-16862716D01*
X12560735Y-16862716D02*
X12551212Y-16872240D01*
X12551212Y-16872240D02*
X12532164Y-16881764D01*
X12532164Y-16881764D02*
X12513116Y-16881764D01*
X12513116Y-16881764D02*
X12494069Y-16872240D01*
X12494069Y-16872240D02*
X12484545Y-16862716D01*
X12484545Y-16862716D02*
X12475021Y-16843669D01*
X12475021Y-16843669D02*
X12465497Y-16805573D01*
X12465497Y-16805573D02*
X12465497Y-16757954D01*
X12465497Y-16757954D02*
X12475021Y-16719859D01*
X12475021Y-16719859D02*
X12484545Y-16700811D01*
X12484545Y-16700811D02*
X12494069Y-16691288D01*
X12494069Y-16691288D02*
X12513116Y-16681764D01*
X12665497Y-16862716D02*
X12675021Y-16872240D01*
X12675021Y-16872240D02*
X12665497Y-16881764D01*
X12665497Y-16881764D02*
X12655973Y-16872240D01*
X12655973Y-16872240D02*
X12665497Y-16862716D01*
X12665497Y-16862716D02*
X12665497Y-16881764D01*
X12798831Y-16681764D02*
X12817878Y-16681764D01*
X12817878Y-16681764D02*
X12836926Y-16691288D01*
X12836926Y-16691288D02*
X12846450Y-16700811D01*
X12846450Y-16700811D02*
X12855973Y-16719859D01*
X12855973Y-16719859D02*
X12865497Y-16757954D01*
X12865497Y-16757954D02*
X12865497Y-16805573D01*
X12865497Y-16805573D02*
X12855973Y-16843669D01*
X12855973Y-16843669D02*
X12846450Y-16862716D01*
X12846450Y-16862716D02*
X12836926Y-16872240D01*
X12836926Y-16872240D02*
X12817878Y-16881764D01*
X12817878Y-16881764D02*
X12798831Y-16881764D01*
X12798831Y-16881764D02*
X12779783Y-16872240D01*
X12779783Y-16872240D02*
X12770259Y-16862716D01*
X12770259Y-16862716D02*
X12760735Y-16843669D01*
X12760735Y-16843669D02*
X12751212Y-16805573D01*
X12751212Y-16805573D02*
X12751212Y-16757954D01*
X12751212Y-16757954D02*
X12760735Y-16719859D01*
X12760735Y-16719859D02*
X12770259Y-16700811D01*
X12770259Y-16700811D02*
X12779783Y-16691288D01*
X12779783Y-16691288D02*
X12798831Y-16681764D01*
X12941688Y-16700811D02*
X12951212Y-16691288D01*
X12951212Y-16691288D02*
X12970259Y-16681764D01*
X12970259Y-16681764D02*
X13017878Y-16681764D01*
X13017878Y-16681764D02*
X13036926Y-16691288D01*
X13036926Y-16691288D02*
X13046450Y-16700811D01*
X13046450Y-16700811D02*
X13055973Y-16719859D01*
X13055973Y-16719859D02*
X13055973Y-16738907D01*
X13055973Y-16738907D02*
X13046450Y-16767478D01*
X13046450Y-16767478D02*
X12932164Y-16881764D01*
X12932164Y-16881764D02*
X13055973Y-16881764D01*
X13122640Y-16681764D02*
X13246450Y-16681764D01*
X13246450Y-16681764D02*
X13179783Y-16757954D01*
X13179783Y-16757954D02*
X13208354Y-16757954D01*
X13208354Y-16757954D02*
X13227402Y-16767478D01*
X13227402Y-16767478D02*
X13236926Y-16777002D01*
X13236926Y-16777002D02*
X13246450Y-16796050D01*
X13246450Y-16796050D02*
X13246450Y-16843669D01*
X13246450Y-16843669D02*
X13236926Y-16862716D01*
X13236926Y-16862716D02*
X13227402Y-16872240D01*
X13227402Y-16872240D02*
X13208354Y-16881764D01*
X13208354Y-16881764D02*
X13151212Y-16881764D01*
X13151212Y-16881764D02*
X13132164Y-16872240D01*
X13132164Y-16872240D02*
X13122640Y-16862716D01*
X13417878Y-16681764D02*
X13379783Y-16681764D01*
X13379783Y-16681764D02*
X13360735Y-16691288D01*
X13360735Y-16691288D02*
X13351212Y-16700811D01*
X13351212Y-16700811D02*
X13332164Y-16729383D01*
X13332164Y-16729383D02*
X13322640Y-16767478D01*
X13322640Y-16767478D02*
X13322640Y-16843669D01*
X13322640Y-16843669D02*
X13332164Y-16862716D01*
X13332164Y-16862716D02*
X13341688Y-16872240D01*
X13341688Y-16872240D02*
X13360735Y-16881764D01*
X13360735Y-16881764D02*
X13398831Y-16881764D01*
X13398831Y-16881764D02*
X13417878Y-16872240D01*
X13417878Y-16872240D02*
X13427402Y-16862716D01*
X13427402Y-16862716D02*
X13436926Y-16843669D01*
X13436926Y-16843669D02*
X13436926Y-16796050D01*
X13436926Y-16796050D02*
X13427402Y-16777002D01*
X13427402Y-16777002D02*
X13417878Y-16767478D01*
X13417878Y-16767478D02*
X13398831Y-16757954D01*
X13398831Y-16757954D02*
X13360735Y-16757954D01*
X13360735Y-16757954D02*
X13341688Y-16767478D01*
X13341688Y-16767478D02*
X13332164Y-16777002D01*
X13332164Y-16777002D02*
X13322640Y-16796050D01*
X13513116Y-16681764D02*
X13513116Y-16719859D01*
X13589307Y-16681764D02*
X13589307Y-16719859D01*
X13884545Y-16957954D02*
X13875021Y-16948430D01*
X13875021Y-16948430D02*
X13855974Y-16919859D01*
X13855974Y-16919859D02*
X13846450Y-16900811D01*
X13846450Y-16900811D02*
X13836926Y-16872240D01*
X13836926Y-16872240D02*
X13827402Y-16824621D01*
X13827402Y-16824621D02*
X13827402Y-16786526D01*
X13827402Y-16786526D02*
X13836926Y-16738907D01*
X13836926Y-16738907D02*
X13846450Y-16710335D01*
X13846450Y-16710335D02*
X13855974Y-16691288D01*
X13855974Y-16691288D02*
X13875021Y-16662716D01*
X13875021Y-16662716D02*
X13884545Y-16653192D01*
X13998831Y-16681764D02*
X14017878Y-16681764D01*
X14017878Y-16681764D02*
X14036926Y-16691288D01*
X14036926Y-16691288D02*
X14046450Y-16700811D01*
X14046450Y-16700811D02*
X14055974Y-16719859D01*
X14055974Y-16719859D02*
X14065497Y-16757954D01*
X14065497Y-16757954D02*
X14065497Y-16805573D01*
X14065497Y-16805573D02*
X14055974Y-16843669D01*
X14055974Y-16843669D02*
X14046450Y-16862716D01*
X14046450Y-16862716D02*
X14036926Y-16872240D01*
X14036926Y-16872240D02*
X14017878Y-16881764D01*
X14017878Y-16881764D02*
X13998831Y-16881764D01*
X13998831Y-16881764D02*
X13979783Y-16872240D01*
X13979783Y-16872240D02*
X13970259Y-16862716D01*
X13970259Y-16862716D02*
X13960735Y-16843669D01*
X13960735Y-16843669D02*
X13951212Y-16805573D01*
X13951212Y-16805573D02*
X13951212Y-16757954D01*
X13951212Y-16757954D02*
X13960735Y-16719859D01*
X13960735Y-16719859D02*
X13970259Y-16700811D01*
X13970259Y-16700811D02*
X13979783Y-16691288D01*
X13979783Y-16691288D02*
X13998831Y-16681764D01*
X14303593Y-16881764D02*
X14303593Y-16681764D01*
X14389307Y-16881764D02*
X14389307Y-16777002D01*
X14389307Y-16777002D02*
X14379783Y-16757954D01*
X14379783Y-16757954D02*
X14360736Y-16748430D01*
X14360736Y-16748430D02*
X14332164Y-16748430D01*
X14332164Y-16748430D02*
X14313116Y-16757954D01*
X14313116Y-16757954D02*
X14303593Y-16767478D01*
X14513116Y-16881764D02*
X14494069Y-16872240D01*
X14494069Y-16872240D02*
X14484545Y-16862716D01*
X14484545Y-16862716D02*
X14475021Y-16843669D01*
X14475021Y-16843669D02*
X14475021Y-16786526D01*
X14475021Y-16786526D02*
X14484545Y-16767478D01*
X14484545Y-16767478D02*
X14494069Y-16757954D01*
X14494069Y-16757954D02*
X14513116Y-16748430D01*
X14513116Y-16748430D02*
X14541688Y-16748430D01*
X14541688Y-16748430D02*
X14560736Y-16757954D01*
X14560736Y-16757954D02*
X14570259Y-16767478D01*
X14570259Y-16767478D02*
X14579783Y-16786526D01*
X14579783Y-16786526D02*
X14579783Y-16843669D01*
X14579783Y-16843669D02*
X14570259Y-16862716D01*
X14570259Y-16862716D02*
X14560736Y-16872240D01*
X14560736Y-16872240D02*
X14541688Y-16881764D01*
X14541688Y-16881764D02*
X14513116Y-16881764D01*
X14694069Y-16881764D02*
X14675021Y-16872240D01*
X14675021Y-16872240D02*
X14665497Y-16853192D01*
X14665497Y-16853192D02*
X14665497Y-16681764D01*
X14846450Y-16872240D02*
X14827402Y-16881764D01*
X14827402Y-16881764D02*
X14789307Y-16881764D01*
X14789307Y-16881764D02*
X14770259Y-16872240D01*
X14770259Y-16872240D02*
X14760736Y-16853192D01*
X14760736Y-16853192D02*
X14760736Y-16777002D01*
X14760736Y-16777002D02*
X14770259Y-16757954D01*
X14770259Y-16757954D02*
X14789307Y-16748430D01*
X14789307Y-16748430D02*
X14827402Y-16748430D01*
X14827402Y-16748430D02*
X14846450Y-16757954D01*
X14846450Y-16757954D02*
X14855974Y-16777002D01*
X14855974Y-16777002D02*
X14855974Y-16796050D01*
X14855974Y-16796050D02*
X14760736Y-16815097D01*
X14932164Y-16872240D02*
X14951212Y-16881764D01*
X14951212Y-16881764D02*
X14989307Y-16881764D01*
X14989307Y-16881764D02*
X15008355Y-16872240D01*
X15008355Y-16872240D02*
X15017878Y-16853192D01*
X15017878Y-16853192D02*
X15017878Y-16843669D01*
X15017878Y-16843669D02*
X15008355Y-16824621D01*
X15008355Y-16824621D02*
X14989307Y-16815097D01*
X14989307Y-16815097D02*
X14960736Y-16815097D01*
X14960736Y-16815097D02*
X14941688Y-16805573D01*
X14941688Y-16805573D02*
X14932164Y-16786526D01*
X14932164Y-16786526D02*
X14932164Y-16777002D01*
X14932164Y-16777002D02*
X14941688Y-16757954D01*
X14941688Y-16757954D02*
X14960736Y-16748430D01*
X14960736Y-16748430D02*
X14989307Y-16748430D01*
X14989307Y-16748430D02*
X15008355Y-16757954D01*
X15255974Y-16805573D02*
X15408355Y-16805573D01*
X15332164Y-16881764D02*
X15332164Y-16729383D01*
X15741688Y-16748430D02*
X15741688Y-16881764D01*
X15694069Y-16672240D02*
X15646450Y-16815097D01*
X15646450Y-16815097D02*
X15770259Y-16815097D01*
X15989307Y-16872240D02*
X16008355Y-16881764D01*
X16008355Y-16881764D02*
X16046450Y-16881764D01*
X16046450Y-16881764D02*
X16065498Y-16872240D01*
X16065498Y-16872240D02*
X16075021Y-16853192D01*
X16075021Y-16853192D02*
X16075021Y-16843669D01*
X16075021Y-16843669D02*
X16065498Y-16824621D01*
X16065498Y-16824621D02*
X16046450Y-16815097D01*
X16046450Y-16815097D02*
X16017879Y-16815097D01*
X16017879Y-16815097D02*
X15998831Y-16805573D01*
X15998831Y-16805573D02*
X15989307Y-16786526D01*
X15989307Y-16786526D02*
X15989307Y-16777002D01*
X15989307Y-16777002D02*
X15998831Y-16757954D01*
X15998831Y-16757954D02*
X16017879Y-16748430D01*
X16017879Y-16748430D02*
X16046450Y-16748430D01*
X16046450Y-16748430D02*
X16065498Y-16757954D01*
X16189307Y-16881764D02*
X16170260Y-16872240D01*
X16170260Y-16872240D02*
X16160736Y-16853192D01*
X16160736Y-16853192D02*
X16160736Y-16681764D01*
X16294069Y-16881764D02*
X16275021Y-16872240D01*
X16275021Y-16872240D02*
X16265498Y-16862716D01*
X16265498Y-16862716D02*
X16255974Y-16843669D01*
X16255974Y-16843669D02*
X16255974Y-16786526D01*
X16255974Y-16786526D02*
X16265498Y-16767478D01*
X16265498Y-16767478D02*
X16275021Y-16757954D01*
X16275021Y-16757954D02*
X16294069Y-16748430D01*
X16294069Y-16748430D02*
X16322641Y-16748430D01*
X16322641Y-16748430D02*
X16341688Y-16757954D01*
X16341688Y-16757954D02*
X16351212Y-16767478D01*
X16351212Y-16767478D02*
X16360736Y-16786526D01*
X16360736Y-16786526D02*
X16360736Y-16843669D01*
X16360736Y-16843669D02*
X16351212Y-16862716D01*
X16351212Y-16862716D02*
X16341688Y-16872240D01*
X16341688Y-16872240D02*
X16322641Y-16881764D01*
X16322641Y-16881764D02*
X16294069Y-16881764D01*
X16417879Y-16748430D02*
X16494069Y-16748430D01*
X16446450Y-16681764D02*
X16446450Y-16853192D01*
X16446450Y-16853192D02*
X16455974Y-16872240D01*
X16455974Y-16872240D02*
X16475021Y-16881764D01*
X16475021Y-16881764D02*
X16494069Y-16881764D01*
X16551212Y-16872240D02*
X16570260Y-16881764D01*
X16570260Y-16881764D02*
X16608355Y-16881764D01*
X16608355Y-16881764D02*
X16627402Y-16872240D01*
X16627402Y-16872240D02*
X16636926Y-16853192D01*
X16636926Y-16853192D02*
X16636926Y-16843669D01*
X16636926Y-16843669D02*
X16627402Y-16824621D01*
X16627402Y-16824621D02*
X16608355Y-16815097D01*
X16608355Y-16815097D02*
X16579783Y-16815097D01*
X16579783Y-16815097D02*
X16560736Y-16805573D01*
X16560736Y-16805573D02*
X16551212Y-16786526D01*
X16551212Y-16786526D02*
X16551212Y-16777002D01*
X16551212Y-16777002D02*
X16560736Y-16757954D01*
X16560736Y-16757954D02*
X16579783Y-16748430D01*
X16579783Y-16748430D02*
X16608355Y-16748430D01*
X16608355Y-16748430D02*
X16627402Y-16757954D01*
X16703593Y-16957954D02*
X16713117Y-16948430D01*
X16713117Y-16948430D02*
X16732164Y-16919859D01*
X16732164Y-16919859D02*
X16741688Y-16900811D01*
X16741688Y-16900811D02*
X16751212Y-16872240D01*
X16751212Y-16872240D02*
X16760736Y-16824621D01*
X16760736Y-16824621D02*
X16760736Y-16786526D01*
X16760736Y-16786526D02*
X16751212Y-16738907D01*
X16751212Y-16738907D02*
X16741688Y-16710335D01*
X16741688Y-16710335D02*
X16732164Y-16691288D01*
X16732164Y-16691288D02*
X16713117Y-16662716D01*
X16713117Y-16662716D02*
X16703593Y-16653192D01*
D13*
X10322640Y-17053240D02*
G75*
G03*
X10322640Y-17053240I-40000J0D01*
G01*
D11*
X10608354Y-16945764D02*
X10627402Y-16945764D01*
X10627402Y-16945764D02*
X10646450Y-16955288D01*
X10646450Y-16955288D02*
X10655973Y-16964811D01*
X10655973Y-16964811D02*
X10665497Y-16983859D01*
X10665497Y-16983859D02*
X10675021Y-17021954D01*
X10675021Y-17021954D02*
X10675021Y-17069573D01*
X10675021Y-17069573D02*
X10665497Y-17107669D01*
X10665497Y-17107669D02*
X10655973Y-17126716D01*
X10655973Y-17126716D02*
X10646450Y-17136240D01*
X10646450Y-17136240D02*
X10627402Y-17145764D01*
X10627402Y-17145764D02*
X10608354Y-17145764D01*
X10608354Y-17145764D02*
X10589307Y-17136240D01*
X10589307Y-17136240D02*
X10579783Y-17126716D01*
X10579783Y-17126716D02*
X10570259Y-17107669D01*
X10570259Y-17107669D02*
X10560735Y-17069573D01*
X10560735Y-17069573D02*
X10560735Y-17021954D01*
X10560735Y-17021954D02*
X10570259Y-16983859D01*
X10570259Y-16983859D02*
X10579783Y-16964811D01*
X10579783Y-16964811D02*
X10589307Y-16955288D01*
X10589307Y-16955288D02*
X10608354Y-16945764D01*
X10760735Y-17126716D02*
X10770259Y-17136240D01*
X10770259Y-17136240D02*
X10760735Y-17145764D01*
X10760735Y-17145764D02*
X10751211Y-17136240D01*
X10751211Y-17136240D02*
X10760735Y-17126716D01*
X10760735Y-17126716D02*
X10760735Y-17145764D01*
X10884545Y-17031478D02*
X10865497Y-17021954D01*
X10865497Y-17021954D02*
X10855973Y-17012430D01*
X10855973Y-17012430D02*
X10846450Y-16993383D01*
X10846450Y-16993383D02*
X10846450Y-16983859D01*
X10846450Y-16983859D02*
X10855973Y-16964811D01*
X10855973Y-16964811D02*
X10865497Y-16955288D01*
X10865497Y-16955288D02*
X10884545Y-16945764D01*
X10884545Y-16945764D02*
X10922640Y-16945764D01*
X10922640Y-16945764D02*
X10941688Y-16955288D01*
X10941688Y-16955288D02*
X10951211Y-16964811D01*
X10951211Y-16964811D02*
X10960735Y-16983859D01*
X10960735Y-16983859D02*
X10960735Y-16993383D01*
X10960735Y-16993383D02*
X10951211Y-17012430D01*
X10951211Y-17012430D02*
X10941688Y-17021954D01*
X10941688Y-17021954D02*
X10922640Y-17031478D01*
X10922640Y-17031478D02*
X10884545Y-17031478D01*
X10884545Y-17031478D02*
X10865497Y-17041002D01*
X10865497Y-17041002D02*
X10855973Y-17050526D01*
X10855973Y-17050526D02*
X10846450Y-17069573D01*
X10846450Y-17069573D02*
X10846450Y-17107669D01*
X10846450Y-17107669D02*
X10855973Y-17126716D01*
X10855973Y-17126716D02*
X10865497Y-17136240D01*
X10865497Y-17136240D02*
X10884545Y-17145764D01*
X10884545Y-17145764D02*
X10922640Y-17145764D01*
X10922640Y-17145764D02*
X10941688Y-17136240D01*
X10941688Y-17136240D02*
X10951211Y-17126716D01*
X10951211Y-17126716D02*
X10960735Y-17107669D01*
X10960735Y-17107669D02*
X10960735Y-17069573D01*
X10960735Y-17069573D02*
X10951211Y-17050526D01*
X10951211Y-17050526D02*
X10941688Y-17041002D01*
X10941688Y-17041002D02*
X10922640Y-17031478D01*
X11084545Y-16945764D02*
X11103592Y-16945764D01*
X11103592Y-16945764D02*
X11122640Y-16955288D01*
X11122640Y-16955288D02*
X11132164Y-16964811D01*
X11132164Y-16964811D02*
X11141688Y-16983859D01*
X11141688Y-16983859D02*
X11151211Y-17021954D01*
X11151211Y-17021954D02*
X11151211Y-17069573D01*
X11151211Y-17069573D02*
X11141688Y-17107669D01*
X11141688Y-17107669D02*
X11132164Y-17126716D01*
X11132164Y-17126716D02*
X11122640Y-17136240D01*
X11122640Y-17136240D02*
X11103592Y-17145764D01*
X11103592Y-17145764D02*
X11084545Y-17145764D01*
X11084545Y-17145764D02*
X11065497Y-17136240D01*
X11065497Y-17136240D02*
X11055973Y-17126716D01*
X11055973Y-17126716D02*
X11046450Y-17107669D01*
X11046450Y-17107669D02*
X11036926Y-17069573D01*
X11036926Y-17069573D02*
X11036926Y-17021954D01*
X11036926Y-17021954D02*
X11046450Y-16983859D01*
X11046450Y-16983859D02*
X11055973Y-16964811D01*
X11055973Y-16964811D02*
X11065497Y-16955288D01*
X11065497Y-16955288D02*
X11084545Y-16945764D01*
X11275021Y-16945764D02*
X11294069Y-16945764D01*
X11294069Y-16945764D02*
X11313116Y-16955288D01*
X11313116Y-16955288D02*
X11322640Y-16964811D01*
X11322640Y-16964811D02*
X11332164Y-16983859D01*
X11332164Y-16983859D02*
X11341688Y-17021954D01*
X11341688Y-17021954D02*
X11341688Y-17069573D01*
X11341688Y-17069573D02*
X11332164Y-17107669D01*
X11332164Y-17107669D02*
X11322640Y-17126716D01*
X11322640Y-17126716D02*
X11313116Y-17136240D01*
X11313116Y-17136240D02*
X11294069Y-17145764D01*
X11294069Y-17145764D02*
X11275021Y-17145764D01*
X11275021Y-17145764D02*
X11255973Y-17136240D01*
X11255973Y-17136240D02*
X11246449Y-17126716D01*
X11246449Y-17126716D02*
X11236926Y-17107669D01*
X11236926Y-17107669D02*
X11227402Y-17069573D01*
X11227402Y-17069573D02*
X11227402Y-17021954D01*
X11227402Y-17021954D02*
X11236926Y-16983859D01*
X11236926Y-16983859D02*
X11246449Y-16964811D01*
X11246449Y-16964811D02*
X11255973Y-16955288D01*
X11255973Y-16955288D02*
X11275021Y-16945764D01*
X11427402Y-17145764D02*
X11427402Y-17012430D01*
X11427402Y-17031478D02*
X11436926Y-17021954D01*
X11436926Y-17021954D02*
X11455973Y-17012430D01*
X11455973Y-17012430D02*
X11484545Y-17012430D01*
X11484545Y-17012430D02*
X11503592Y-17021954D01*
X11503592Y-17021954D02*
X11513116Y-17041002D01*
X11513116Y-17041002D02*
X11513116Y-17145764D01*
X11513116Y-17041002D02*
X11522640Y-17021954D01*
X11522640Y-17021954D02*
X11541688Y-17012430D01*
X11541688Y-17012430D02*
X11570259Y-17012430D01*
X11570259Y-17012430D02*
X11589307Y-17021954D01*
X11589307Y-17021954D02*
X11598830Y-17041002D01*
X11598830Y-17041002D02*
X11598830Y-17145764D01*
X11694069Y-17145764D02*
X11694069Y-17012430D01*
X11694069Y-17031478D02*
X11703592Y-17021954D01*
X11703592Y-17021954D02*
X11722640Y-17012430D01*
X11722640Y-17012430D02*
X11751211Y-17012430D01*
X11751211Y-17012430D02*
X11770259Y-17021954D01*
X11770259Y-17021954D02*
X11779783Y-17041002D01*
X11779783Y-17041002D02*
X11779783Y-17145764D01*
X11779783Y-17041002D02*
X11789307Y-17021954D01*
X11789307Y-17021954D02*
X11808354Y-17012430D01*
X11808354Y-17012430D02*
X11836926Y-17012430D01*
X11836926Y-17012430D02*
X11855973Y-17021954D01*
X11855973Y-17021954D02*
X11865497Y-17041002D01*
X11865497Y-17041002D02*
X11865497Y-17145764D01*
X12255973Y-16936240D02*
X12084545Y-17193383D01*
X12513116Y-16945764D02*
X12532164Y-16945764D01*
X12532164Y-16945764D02*
X12551212Y-16955288D01*
X12551212Y-16955288D02*
X12560735Y-16964811D01*
X12560735Y-16964811D02*
X12570259Y-16983859D01*
X12570259Y-16983859D02*
X12579783Y-17021954D01*
X12579783Y-17021954D02*
X12579783Y-17069573D01*
X12579783Y-17069573D02*
X12570259Y-17107669D01*
X12570259Y-17107669D02*
X12560735Y-17126716D01*
X12560735Y-17126716D02*
X12551212Y-17136240D01*
X12551212Y-17136240D02*
X12532164Y-17145764D01*
X12532164Y-17145764D02*
X12513116Y-17145764D01*
X12513116Y-17145764D02*
X12494069Y-17136240D01*
X12494069Y-17136240D02*
X12484545Y-17126716D01*
X12484545Y-17126716D02*
X12475021Y-17107669D01*
X12475021Y-17107669D02*
X12465497Y-17069573D01*
X12465497Y-17069573D02*
X12465497Y-17021954D01*
X12465497Y-17021954D02*
X12475021Y-16983859D01*
X12475021Y-16983859D02*
X12484545Y-16964811D01*
X12484545Y-16964811D02*
X12494069Y-16955288D01*
X12494069Y-16955288D02*
X12513116Y-16945764D01*
X12665497Y-17126716D02*
X12675021Y-17136240D01*
X12675021Y-17136240D02*
X12665497Y-17145764D01*
X12665497Y-17145764D02*
X12655973Y-17136240D01*
X12655973Y-17136240D02*
X12665497Y-17126716D01*
X12665497Y-17126716D02*
X12665497Y-17145764D01*
X12798831Y-16945764D02*
X12817878Y-16945764D01*
X12817878Y-16945764D02*
X12836926Y-16955288D01*
X12836926Y-16955288D02*
X12846450Y-16964811D01*
X12846450Y-16964811D02*
X12855973Y-16983859D01*
X12855973Y-16983859D02*
X12865497Y-17021954D01*
X12865497Y-17021954D02*
X12865497Y-17069573D01*
X12865497Y-17069573D02*
X12855973Y-17107669D01*
X12855973Y-17107669D02*
X12846450Y-17126716D01*
X12846450Y-17126716D02*
X12836926Y-17136240D01*
X12836926Y-17136240D02*
X12817878Y-17145764D01*
X12817878Y-17145764D02*
X12798831Y-17145764D01*
X12798831Y-17145764D02*
X12779783Y-17136240D01*
X12779783Y-17136240D02*
X12770259Y-17126716D01*
X12770259Y-17126716D02*
X12760735Y-17107669D01*
X12760735Y-17107669D02*
X12751212Y-17069573D01*
X12751212Y-17069573D02*
X12751212Y-17021954D01*
X12751212Y-17021954D02*
X12760735Y-16983859D01*
X12760735Y-16983859D02*
X12770259Y-16964811D01*
X12770259Y-16964811D02*
X12779783Y-16955288D01*
X12779783Y-16955288D02*
X12798831Y-16945764D01*
X12932164Y-16945764D02*
X13055973Y-16945764D01*
X13055973Y-16945764D02*
X12989307Y-17021954D01*
X12989307Y-17021954D02*
X13017878Y-17021954D01*
X13017878Y-17021954D02*
X13036926Y-17031478D01*
X13036926Y-17031478D02*
X13046450Y-17041002D01*
X13046450Y-17041002D02*
X13055973Y-17060050D01*
X13055973Y-17060050D02*
X13055973Y-17107669D01*
X13055973Y-17107669D02*
X13046450Y-17126716D01*
X13046450Y-17126716D02*
X13036926Y-17136240D01*
X13036926Y-17136240D02*
X13017878Y-17145764D01*
X13017878Y-17145764D02*
X12960735Y-17145764D01*
X12960735Y-17145764D02*
X12941688Y-17136240D01*
X12941688Y-17136240D02*
X12932164Y-17126716D01*
X13246450Y-17145764D02*
X13132164Y-17145764D01*
X13189307Y-17145764D02*
X13189307Y-16945764D01*
X13189307Y-16945764D02*
X13170259Y-16974335D01*
X13170259Y-16974335D02*
X13151212Y-16993383D01*
X13151212Y-16993383D02*
X13132164Y-17002907D01*
X13427402Y-16945764D02*
X13332164Y-16945764D01*
X13332164Y-16945764D02*
X13322640Y-17041002D01*
X13322640Y-17041002D02*
X13332164Y-17031478D01*
X13332164Y-17031478D02*
X13351212Y-17021954D01*
X13351212Y-17021954D02*
X13398831Y-17021954D01*
X13398831Y-17021954D02*
X13417878Y-17031478D01*
X13417878Y-17031478D02*
X13427402Y-17041002D01*
X13427402Y-17041002D02*
X13436926Y-17060050D01*
X13436926Y-17060050D02*
X13436926Y-17107669D01*
X13436926Y-17107669D02*
X13427402Y-17126716D01*
X13427402Y-17126716D02*
X13417878Y-17136240D01*
X13417878Y-17136240D02*
X13398831Y-17145764D01*
X13398831Y-17145764D02*
X13351212Y-17145764D01*
X13351212Y-17145764D02*
X13332164Y-17136240D01*
X13332164Y-17136240D02*
X13322640Y-17126716D01*
X13513116Y-16945764D02*
X13513116Y-16983859D01*
X13589307Y-16945764D02*
X13589307Y-16983859D01*
X13884545Y-17221954D02*
X13875021Y-17212430D01*
X13875021Y-17212430D02*
X13855974Y-17183859D01*
X13855974Y-17183859D02*
X13846450Y-17164811D01*
X13846450Y-17164811D02*
X13836926Y-17136240D01*
X13836926Y-17136240D02*
X13827402Y-17088621D01*
X13827402Y-17088621D02*
X13827402Y-17050526D01*
X13827402Y-17050526D02*
X13836926Y-17002907D01*
X13836926Y-17002907D02*
X13846450Y-16974335D01*
X13846450Y-16974335D02*
X13855974Y-16955288D01*
X13855974Y-16955288D02*
X13875021Y-16926716D01*
X13875021Y-16926716D02*
X13884545Y-16917192D01*
X14046450Y-17012430D02*
X14046450Y-17145764D01*
X13998831Y-16936240D02*
X13951212Y-17079097D01*
X13951212Y-17079097D02*
X14075021Y-17079097D01*
X14236926Y-17012430D02*
X14236926Y-17145764D01*
X14189307Y-16936240D02*
X14141688Y-17079097D01*
X14141688Y-17079097D02*
X14265497Y-17079097D01*
X14494069Y-17145764D02*
X14494069Y-16945764D01*
X14579783Y-17145764D02*
X14579783Y-17041002D01*
X14579783Y-17041002D02*
X14570259Y-17021954D01*
X14570259Y-17021954D02*
X14551212Y-17012430D01*
X14551212Y-17012430D02*
X14522640Y-17012430D01*
X14522640Y-17012430D02*
X14503593Y-17021954D01*
X14503593Y-17021954D02*
X14494069Y-17031478D01*
X14703593Y-17145764D02*
X14684545Y-17136240D01*
X14684545Y-17136240D02*
X14675021Y-17126716D01*
X14675021Y-17126716D02*
X14665497Y-17107669D01*
X14665497Y-17107669D02*
X14665497Y-17050526D01*
X14665497Y-17050526D02*
X14675021Y-17031478D01*
X14675021Y-17031478D02*
X14684545Y-17021954D01*
X14684545Y-17021954D02*
X14703593Y-17012430D01*
X14703593Y-17012430D02*
X14732164Y-17012430D01*
X14732164Y-17012430D02*
X14751212Y-17021954D01*
X14751212Y-17021954D02*
X14760736Y-17031478D01*
X14760736Y-17031478D02*
X14770259Y-17050526D01*
X14770259Y-17050526D02*
X14770259Y-17107669D01*
X14770259Y-17107669D02*
X14760736Y-17126716D01*
X14760736Y-17126716D02*
X14751212Y-17136240D01*
X14751212Y-17136240D02*
X14732164Y-17145764D01*
X14732164Y-17145764D02*
X14703593Y-17145764D01*
X14884545Y-17145764D02*
X14865497Y-17136240D01*
X14865497Y-17136240D02*
X14855974Y-17117192D01*
X14855974Y-17117192D02*
X14855974Y-16945764D01*
X15036926Y-17136240D02*
X15017878Y-17145764D01*
X15017878Y-17145764D02*
X14979783Y-17145764D01*
X14979783Y-17145764D02*
X14960736Y-17136240D01*
X14960736Y-17136240D02*
X14951212Y-17117192D01*
X14951212Y-17117192D02*
X14951212Y-17041002D01*
X14951212Y-17041002D02*
X14960736Y-17021954D01*
X14960736Y-17021954D02*
X14979783Y-17012430D01*
X14979783Y-17012430D02*
X15017878Y-17012430D01*
X15017878Y-17012430D02*
X15036926Y-17021954D01*
X15036926Y-17021954D02*
X15046450Y-17041002D01*
X15046450Y-17041002D02*
X15046450Y-17060050D01*
X15046450Y-17060050D02*
X14951212Y-17079097D01*
X15122640Y-17136240D02*
X15141688Y-17145764D01*
X15141688Y-17145764D02*
X15179783Y-17145764D01*
X15179783Y-17145764D02*
X15198831Y-17136240D01*
X15198831Y-17136240D02*
X15208355Y-17117192D01*
X15208355Y-17117192D02*
X15208355Y-17107669D01*
X15208355Y-17107669D02*
X15198831Y-17088621D01*
X15198831Y-17088621D02*
X15179783Y-17079097D01*
X15179783Y-17079097D02*
X15151212Y-17079097D01*
X15151212Y-17079097D02*
X15132164Y-17069573D01*
X15132164Y-17069573D02*
X15122640Y-17050526D01*
X15122640Y-17050526D02*
X15122640Y-17041002D01*
X15122640Y-17041002D02*
X15132164Y-17021954D01*
X15132164Y-17021954D02*
X15151212Y-17012430D01*
X15151212Y-17012430D02*
X15179783Y-17012430D01*
X15179783Y-17012430D02*
X15198831Y-17021954D01*
X15275021Y-17221954D02*
X15284545Y-17212430D01*
X15284545Y-17212430D02*
X15303593Y-17183859D01*
X15303593Y-17183859D02*
X15313117Y-17164811D01*
X15313117Y-17164811D02*
X15322640Y-17136240D01*
X15322640Y-17136240D02*
X15332164Y-17088621D01*
X15332164Y-17088621D02*
X15332164Y-17050526D01*
X15332164Y-17050526D02*
X15322640Y-17002907D01*
X15322640Y-17002907D02*
X15313117Y-16974335D01*
X15313117Y-16974335D02*
X15303593Y-16955288D01*
X15303593Y-16955288D02*
X15284545Y-16926716D01*
X15284545Y-16926716D02*
X15275021Y-16917192D01*
D10*
X10272640Y-17267240D02*
X10272640Y-17367240D01*
X10222640Y-17317240D02*
X10322640Y-17317240D01*
D11*
X10675021Y-17409764D02*
X10560735Y-17409764D01*
X10617878Y-17409764D02*
X10617878Y-17209764D01*
X10617878Y-17209764D02*
X10598830Y-17238335D01*
X10598830Y-17238335D02*
X10579783Y-17257383D01*
X10579783Y-17257383D02*
X10560735Y-17266907D01*
X10760735Y-17390716D02*
X10770259Y-17400240D01*
X10770259Y-17400240D02*
X10760735Y-17409764D01*
X10760735Y-17409764D02*
X10751211Y-17400240D01*
X10751211Y-17400240D02*
X10760735Y-17390716D01*
X10760735Y-17390716D02*
X10760735Y-17409764D01*
X10894069Y-17209764D02*
X10913116Y-17209764D01*
X10913116Y-17209764D02*
X10932164Y-17219288D01*
X10932164Y-17219288D02*
X10941688Y-17228811D01*
X10941688Y-17228811D02*
X10951211Y-17247859D01*
X10951211Y-17247859D02*
X10960735Y-17285954D01*
X10960735Y-17285954D02*
X10960735Y-17333573D01*
X10960735Y-17333573D02*
X10951211Y-17371669D01*
X10951211Y-17371669D02*
X10941688Y-17390716D01*
X10941688Y-17390716D02*
X10932164Y-17400240D01*
X10932164Y-17400240D02*
X10913116Y-17409764D01*
X10913116Y-17409764D02*
X10894069Y-17409764D01*
X10894069Y-17409764D02*
X10875021Y-17400240D01*
X10875021Y-17400240D02*
X10865497Y-17390716D01*
X10865497Y-17390716D02*
X10855973Y-17371669D01*
X10855973Y-17371669D02*
X10846450Y-17333573D01*
X10846450Y-17333573D02*
X10846450Y-17285954D01*
X10846450Y-17285954D02*
X10855973Y-17247859D01*
X10855973Y-17247859D02*
X10865497Y-17228811D01*
X10865497Y-17228811D02*
X10875021Y-17219288D01*
X10875021Y-17219288D02*
X10894069Y-17209764D01*
X11084545Y-17209764D02*
X11103592Y-17209764D01*
X11103592Y-17209764D02*
X11122640Y-17219288D01*
X11122640Y-17219288D02*
X11132164Y-17228811D01*
X11132164Y-17228811D02*
X11141688Y-17247859D01*
X11141688Y-17247859D02*
X11151211Y-17285954D01*
X11151211Y-17285954D02*
X11151211Y-17333573D01*
X11151211Y-17333573D02*
X11141688Y-17371669D01*
X11141688Y-17371669D02*
X11132164Y-17390716D01*
X11132164Y-17390716D02*
X11122640Y-17400240D01*
X11122640Y-17400240D02*
X11103592Y-17409764D01*
X11103592Y-17409764D02*
X11084545Y-17409764D01*
X11084545Y-17409764D02*
X11065497Y-17400240D01*
X11065497Y-17400240D02*
X11055973Y-17390716D01*
X11055973Y-17390716D02*
X11046450Y-17371669D01*
X11046450Y-17371669D02*
X11036926Y-17333573D01*
X11036926Y-17333573D02*
X11036926Y-17285954D01*
X11036926Y-17285954D02*
X11046450Y-17247859D01*
X11046450Y-17247859D02*
X11055973Y-17228811D01*
X11055973Y-17228811D02*
X11065497Y-17219288D01*
X11065497Y-17219288D02*
X11084545Y-17209764D01*
X11275021Y-17209764D02*
X11294069Y-17209764D01*
X11294069Y-17209764D02*
X11313116Y-17219288D01*
X11313116Y-17219288D02*
X11322640Y-17228811D01*
X11322640Y-17228811D02*
X11332164Y-17247859D01*
X11332164Y-17247859D02*
X11341688Y-17285954D01*
X11341688Y-17285954D02*
X11341688Y-17333573D01*
X11341688Y-17333573D02*
X11332164Y-17371669D01*
X11332164Y-17371669D02*
X11322640Y-17390716D01*
X11322640Y-17390716D02*
X11313116Y-17400240D01*
X11313116Y-17400240D02*
X11294069Y-17409764D01*
X11294069Y-17409764D02*
X11275021Y-17409764D01*
X11275021Y-17409764D02*
X11255973Y-17400240D01*
X11255973Y-17400240D02*
X11246449Y-17390716D01*
X11246449Y-17390716D02*
X11236926Y-17371669D01*
X11236926Y-17371669D02*
X11227402Y-17333573D01*
X11227402Y-17333573D02*
X11227402Y-17285954D01*
X11227402Y-17285954D02*
X11236926Y-17247859D01*
X11236926Y-17247859D02*
X11246449Y-17228811D01*
X11246449Y-17228811D02*
X11255973Y-17219288D01*
X11255973Y-17219288D02*
X11275021Y-17209764D01*
X11427402Y-17409764D02*
X11427402Y-17276430D01*
X11427402Y-17295478D02*
X11436926Y-17285954D01*
X11436926Y-17285954D02*
X11455973Y-17276430D01*
X11455973Y-17276430D02*
X11484545Y-17276430D01*
X11484545Y-17276430D02*
X11503592Y-17285954D01*
X11503592Y-17285954D02*
X11513116Y-17305002D01*
X11513116Y-17305002D02*
X11513116Y-17409764D01*
X11513116Y-17305002D02*
X11522640Y-17285954D01*
X11522640Y-17285954D02*
X11541688Y-17276430D01*
X11541688Y-17276430D02*
X11570259Y-17276430D01*
X11570259Y-17276430D02*
X11589307Y-17285954D01*
X11589307Y-17285954D02*
X11598830Y-17305002D01*
X11598830Y-17305002D02*
X11598830Y-17409764D01*
X11694069Y-17409764D02*
X11694069Y-17276430D01*
X11694069Y-17295478D02*
X11703592Y-17285954D01*
X11703592Y-17285954D02*
X11722640Y-17276430D01*
X11722640Y-17276430D02*
X11751211Y-17276430D01*
X11751211Y-17276430D02*
X11770259Y-17285954D01*
X11770259Y-17285954D02*
X11779783Y-17305002D01*
X11779783Y-17305002D02*
X11779783Y-17409764D01*
X11779783Y-17305002D02*
X11789307Y-17285954D01*
X11789307Y-17285954D02*
X11808354Y-17276430D01*
X11808354Y-17276430D02*
X11836926Y-17276430D01*
X11836926Y-17276430D02*
X11855973Y-17285954D01*
X11855973Y-17285954D02*
X11865497Y-17305002D01*
X11865497Y-17305002D02*
X11865497Y-17409764D01*
X12255973Y-17200240D02*
X12084545Y-17457383D01*
X12513116Y-17209764D02*
X12532164Y-17209764D01*
X12532164Y-17209764D02*
X12551212Y-17219288D01*
X12551212Y-17219288D02*
X12560735Y-17228811D01*
X12560735Y-17228811D02*
X12570259Y-17247859D01*
X12570259Y-17247859D02*
X12579783Y-17285954D01*
X12579783Y-17285954D02*
X12579783Y-17333573D01*
X12579783Y-17333573D02*
X12570259Y-17371669D01*
X12570259Y-17371669D02*
X12560735Y-17390716D01*
X12560735Y-17390716D02*
X12551212Y-17400240D01*
X12551212Y-17400240D02*
X12532164Y-17409764D01*
X12532164Y-17409764D02*
X12513116Y-17409764D01*
X12513116Y-17409764D02*
X12494069Y-17400240D01*
X12494069Y-17400240D02*
X12484545Y-17390716D01*
X12484545Y-17390716D02*
X12475021Y-17371669D01*
X12475021Y-17371669D02*
X12465497Y-17333573D01*
X12465497Y-17333573D02*
X12465497Y-17285954D01*
X12465497Y-17285954D02*
X12475021Y-17247859D01*
X12475021Y-17247859D02*
X12484545Y-17228811D01*
X12484545Y-17228811D02*
X12494069Y-17219288D01*
X12494069Y-17219288D02*
X12513116Y-17209764D01*
X12665497Y-17390716D02*
X12675021Y-17400240D01*
X12675021Y-17400240D02*
X12665497Y-17409764D01*
X12665497Y-17409764D02*
X12655973Y-17400240D01*
X12655973Y-17400240D02*
X12665497Y-17390716D01*
X12665497Y-17390716D02*
X12665497Y-17409764D01*
X12798831Y-17209764D02*
X12817878Y-17209764D01*
X12817878Y-17209764D02*
X12836926Y-17219288D01*
X12836926Y-17219288D02*
X12846450Y-17228811D01*
X12846450Y-17228811D02*
X12855973Y-17247859D01*
X12855973Y-17247859D02*
X12865497Y-17285954D01*
X12865497Y-17285954D02*
X12865497Y-17333573D01*
X12865497Y-17333573D02*
X12855973Y-17371669D01*
X12855973Y-17371669D02*
X12846450Y-17390716D01*
X12846450Y-17390716D02*
X12836926Y-17400240D01*
X12836926Y-17400240D02*
X12817878Y-17409764D01*
X12817878Y-17409764D02*
X12798831Y-17409764D01*
X12798831Y-17409764D02*
X12779783Y-17400240D01*
X12779783Y-17400240D02*
X12770259Y-17390716D01*
X12770259Y-17390716D02*
X12760735Y-17371669D01*
X12760735Y-17371669D02*
X12751212Y-17333573D01*
X12751212Y-17333573D02*
X12751212Y-17285954D01*
X12751212Y-17285954D02*
X12760735Y-17247859D01*
X12760735Y-17247859D02*
X12770259Y-17228811D01*
X12770259Y-17228811D02*
X12779783Y-17219288D01*
X12779783Y-17219288D02*
X12798831Y-17209764D01*
X12932164Y-17209764D02*
X13055973Y-17209764D01*
X13055973Y-17209764D02*
X12989307Y-17285954D01*
X12989307Y-17285954D02*
X13017878Y-17285954D01*
X13017878Y-17285954D02*
X13036926Y-17295478D01*
X13036926Y-17295478D02*
X13046450Y-17305002D01*
X13046450Y-17305002D02*
X13055973Y-17324050D01*
X13055973Y-17324050D02*
X13055973Y-17371669D01*
X13055973Y-17371669D02*
X13046450Y-17390716D01*
X13046450Y-17390716D02*
X13036926Y-17400240D01*
X13036926Y-17400240D02*
X13017878Y-17409764D01*
X13017878Y-17409764D02*
X12960735Y-17409764D01*
X12960735Y-17409764D02*
X12941688Y-17400240D01*
X12941688Y-17400240D02*
X12932164Y-17390716D01*
X13151212Y-17409764D02*
X13189307Y-17409764D01*
X13189307Y-17409764D02*
X13208354Y-17400240D01*
X13208354Y-17400240D02*
X13217878Y-17390716D01*
X13217878Y-17390716D02*
X13236926Y-17362145D01*
X13236926Y-17362145D02*
X13246450Y-17324050D01*
X13246450Y-17324050D02*
X13246450Y-17247859D01*
X13246450Y-17247859D02*
X13236926Y-17228811D01*
X13236926Y-17228811D02*
X13227402Y-17219288D01*
X13227402Y-17219288D02*
X13208354Y-17209764D01*
X13208354Y-17209764D02*
X13170259Y-17209764D01*
X13170259Y-17209764D02*
X13151212Y-17219288D01*
X13151212Y-17219288D02*
X13141688Y-17228811D01*
X13141688Y-17228811D02*
X13132164Y-17247859D01*
X13132164Y-17247859D02*
X13132164Y-17295478D01*
X13132164Y-17295478D02*
X13141688Y-17314526D01*
X13141688Y-17314526D02*
X13151212Y-17324050D01*
X13151212Y-17324050D02*
X13170259Y-17333573D01*
X13170259Y-17333573D02*
X13208354Y-17333573D01*
X13208354Y-17333573D02*
X13227402Y-17324050D01*
X13227402Y-17324050D02*
X13236926Y-17314526D01*
X13236926Y-17314526D02*
X13246450Y-17295478D01*
X13417878Y-17276430D02*
X13417878Y-17409764D01*
X13370259Y-17200240D02*
X13322640Y-17343097D01*
X13322640Y-17343097D02*
X13446450Y-17343097D01*
X13513116Y-17209764D02*
X13513116Y-17247859D01*
X13589307Y-17209764D02*
X13589307Y-17247859D01*
X13884545Y-17485954D02*
X13875021Y-17476430D01*
X13875021Y-17476430D02*
X13855974Y-17447859D01*
X13855974Y-17447859D02*
X13846450Y-17428811D01*
X13846450Y-17428811D02*
X13836926Y-17400240D01*
X13836926Y-17400240D02*
X13827402Y-17352621D01*
X13827402Y-17352621D02*
X13827402Y-17314526D01*
X13827402Y-17314526D02*
X13836926Y-17266907D01*
X13836926Y-17266907D02*
X13846450Y-17238335D01*
X13846450Y-17238335D02*
X13855974Y-17219288D01*
X13855974Y-17219288D02*
X13875021Y-17190716D01*
X13875021Y-17190716D02*
X13884545Y-17181192D01*
X14046450Y-17276430D02*
X14046450Y-17409764D01*
X13998831Y-17200240D02*
X13951212Y-17343097D01*
X13951212Y-17343097D02*
X14075021Y-17343097D01*
X14179783Y-17295478D02*
X14160735Y-17285954D01*
X14160735Y-17285954D02*
X14151212Y-17276430D01*
X14151212Y-17276430D02*
X14141688Y-17257383D01*
X14141688Y-17257383D02*
X14141688Y-17247859D01*
X14141688Y-17247859D02*
X14151212Y-17228811D01*
X14151212Y-17228811D02*
X14160735Y-17219288D01*
X14160735Y-17219288D02*
X14179783Y-17209764D01*
X14179783Y-17209764D02*
X14217878Y-17209764D01*
X14217878Y-17209764D02*
X14236926Y-17219288D01*
X14236926Y-17219288D02*
X14246450Y-17228811D01*
X14246450Y-17228811D02*
X14255974Y-17247859D01*
X14255974Y-17247859D02*
X14255974Y-17257383D01*
X14255974Y-17257383D02*
X14246450Y-17276430D01*
X14246450Y-17276430D02*
X14236926Y-17285954D01*
X14236926Y-17285954D02*
X14217878Y-17295478D01*
X14217878Y-17295478D02*
X14179783Y-17295478D01*
X14179783Y-17295478D02*
X14160735Y-17305002D01*
X14160735Y-17305002D02*
X14151212Y-17314526D01*
X14151212Y-17314526D02*
X14141688Y-17333573D01*
X14141688Y-17333573D02*
X14141688Y-17371669D01*
X14141688Y-17371669D02*
X14151212Y-17390716D01*
X14151212Y-17390716D02*
X14160735Y-17400240D01*
X14160735Y-17400240D02*
X14179783Y-17409764D01*
X14179783Y-17409764D02*
X14217878Y-17409764D01*
X14217878Y-17409764D02*
X14236926Y-17400240D01*
X14236926Y-17400240D02*
X14246450Y-17390716D01*
X14246450Y-17390716D02*
X14255974Y-17371669D01*
X14255974Y-17371669D02*
X14255974Y-17333573D01*
X14255974Y-17333573D02*
X14246450Y-17314526D01*
X14246450Y-17314526D02*
X14236926Y-17305002D01*
X14236926Y-17305002D02*
X14217878Y-17295478D01*
X14494069Y-17409764D02*
X14494069Y-17209764D01*
X14579783Y-17409764D02*
X14579783Y-17305002D01*
X14579783Y-17305002D02*
X14570259Y-17285954D01*
X14570259Y-17285954D02*
X14551212Y-17276430D01*
X14551212Y-17276430D02*
X14522640Y-17276430D01*
X14522640Y-17276430D02*
X14503593Y-17285954D01*
X14503593Y-17285954D02*
X14494069Y-17295478D01*
X14703593Y-17409764D02*
X14684545Y-17400240D01*
X14684545Y-17400240D02*
X14675021Y-17390716D01*
X14675021Y-17390716D02*
X14665497Y-17371669D01*
X14665497Y-17371669D02*
X14665497Y-17314526D01*
X14665497Y-17314526D02*
X14675021Y-17295478D01*
X14675021Y-17295478D02*
X14684545Y-17285954D01*
X14684545Y-17285954D02*
X14703593Y-17276430D01*
X14703593Y-17276430D02*
X14732164Y-17276430D01*
X14732164Y-17276430D02*
X14751212Y-17285954D01*
X14751212Y-17285954D02*
X14760736Y-17295478D01*
X14760736Y-17295478D02*
X14770259Y-17314526D01*
X14770259Y-17314526D02*
X14770259Y-17371669D01*
X14770259Y-17371669D02*
X14760736Y-17390716D01*
X14760736Y-17390716D02*
X14751212Y-17400240D01*
X14751212Y-17400240D02*
X14732164Y-17409764D01*
X14732164Y-17409764D02*
X14703593Y-17409764D01*
X14884545Y-17409764D02*
X14865497Y-17400240D01*
X14865497Y-17400240D02*
X14855974Y-17381192D01*
X14855974Y-17381192D02*
X14855974Y-17209764D01*
X15036926Y-17400240D02*
X15017878Y-17409764D01*
X15017878Y-17409764D02*
X14979783Y-17409764D01*
X14979783Y-17409764D02*
X14960736Y-17400240D01*
X14960736Y-17400240D02*
X14951212Y-17381192D01*
X14951212Y-17381192D02*
X14951212Y-17305002D01*
X14951212Y-17305002D02*
X14960736Y-17285954D01*
X14960736Y-17285954D02*
X14979783Y-17276430D01*
X14979783Y-17276430D02*
X15017878Y-17276430D01*
X15017878Y-17276430D02*
X15036926Y-17285954D01*
X15036926Y-17285954D02*
X15046450Y-17305002D01*
X15046450Y-17305002D02*
X15046450Y-17324050D01*
X15046450Y-17324050D02*
X14951212Y-17343097D01*
X15122640Y-17400240D02*
X15141688Y-17409764D01*
X15141688Y-17409764D02*
X15179783Y-17409764D01*
X15179783Y-17409764D02*
X15198831Y-17400240D01*
X15198831Y-17400240D02*
X15208355Y-17381192D01*
X15208355Y-17381192D02*
X15208355Y-17371669D01*
X15208355Y-17371669D02*
X15198831Y-17352621D01*
X15198831Y-17352621D02*
X15179783Y-17343097D01*
X15179783Y-17343097D02*
X15151212Y-17343097D01*
X15151212Y-17343097D02*
X15132164Y-17333573D01*
X15132164Y-17333573D02*
X15122640Y-17314526D01*
X15122640Y-17314526D02*
X15122640Y-17305002D01*
X15122640Y-17305002D02*
X15132164Y-17285954D01*
X15132164Y-17285954D02*
X15151212Y-17276430D01*
X15151212Y-17276430D02*
X15179783Y-17276430D01*
X15179783Y-17276430D02*
X15198831Y-17285954D01*
X15275021Y-17485954D02*
X15284545Y-17476430D01*
X15284545Y-17476430D02*
X15303593Y-17447859D01*
X15303593Y-17447859D02*
X15313117Y-17428811D01*
X15313117Y-17428811D02*
X15322640Y-17400240D01*
X15322640Y-17400240D02*
X15332164Y-17352621D01*
X15332164Y-17352621D02*
X15332164Y-17314526D01*
X15332164Y-17314526D02*
X15322640Y-17266907D01*
X15322640Y-17266907D02*
X15313117Y-17238335D01*
X15313117Y-17238335D02*
X15303593Y-17219288D01*
X15303593Y-17219288D02*
X15284545Y-17190716D01*
X15284545Y-17190716D02*
X15275021Y-17181192D01*
D14*
X10300674Y-17634274D02*
X10300674Y-17528207D01*
X10194607Y-17528207D01*
X10194607Y-17634274D01*
X10300674Y-17634274D01*
D11*
X10675021Y-17673764D02*
X10560735Y-17673764D01*
X10617878Y-17673764D02*
X10617878Y-17473764D01*
X10617878Y-17473764D02*
X10598830Y-17502335D01*
X10598830Y-17502335D02*
X10579783Y-17521383D01*
X10579783Y-17521383D02*
X10560735Y-17530907D01*
X10760735Y-17654716D02*
X10770259Y-17664240D01*
X10770259Y-17664240D02*
X10760735Y-17673764D01*
X10760735Y-17673764D02*
X10751211Y-17664240D01*
X10751211Y-17664240D02*
X10760735Y-17654716D01*
X10760735Y-17654716D02*
X10760735Y-17673764D01*
X10951211Y-17473764D02*
X10855973Y-17473764D01*
X10855973Y-17473764D02*
X10846450Y-17569002D01*
X10846450Y-17569002D02*
X10855973Y-17559478D01*
X10855973Y-17559478D02*
X10875021Y-17549954D01*
X10875021Y-17549954D02*
X10922640Y-17549954D01*
X10922640Y-17549954D02*
X10941688Y-17559478D01*
X10941688Y-17559478D02*
X10951211Y-17569002D01*
X10951211Y-17569002D02*
X10960735Y-17588050D01*
X10960735Y-17588050D02*
X10960735Y-17635669D01*
X10960735Y-17635669D02*
X10951211Y-17654716D01*
X10951211Y-17654716D02*
X10941688Y-17664240D01*
X10941688Y-17664240D02*
X10922640Y-17673764D01*
X10922640Y-17673764D02*
X10875021Y-17673764D01*
X10875021Y-17673764D02*
X10855973Y-17664240D01*
X10855973Y-17664240D02*
X10846450Y-17654716D01*
X11084545Y-17473764D02*
X11103592Y-17473764D01*
X11103592Y-17473764D02*
X11122640Y-17483288D01*
X11122640Y-17483288D02*
X11132164Y-17492811D01*
X11132164Y-17492811D02*
X11141688Y-17511859D01*
X11141688Y-17511859D02*
X11151211Y-17549954D01*
X11151211Y-17549954D02*
X11151211Y-17597573D01*
X11151211Y-17597573D02*
X11141688Y-17635669D01*
X11141688Y-17635669D02*
X11132164Y-17654716D01*
X11132164Y-17654716D02*
X11122640Y-17664240D01*
X11122640Y-17664240D02*
X11103592Y-17673764D01*
X11103592Y-17673764D02*
X11084545Y-17673764D01*
X11084545Y-17673764D02*
X11065497Y-17664240D01*
X11065497Y-17664240D02*
X11055973Y-17654716D01*
X11055973Y-17654716D02*
X11046450Y-17635669D01*
X11046450Y-17635669D02*
X11036926Y-17597573D01*
X11036926Y-17597573D02*
X11036926Y-17549954D01*
X11036926Y-17549954D02*
X11046450Y-17511859D01*
X11046450Y-17511859D02*
X11055973Y-17492811D01*
X11055973Y-17492811D02*
X11065497Y-17483288D01*
X11065497Y-17483288D02*
X11084545Y-17473764D01*
X11275021Y-17473764D02*
X11294069Y-17473764D01*
X11294069Y-17473764D02*
X11313116Y-17483288D01*
X11313116Y-17483288D02*
X11322640Y-17492811D01*
X11322640Y-17492811D02*
X11332164Y-17511859D01*
X11332164Y-17511859D02*
X11341688Y-17549954D01*
X11341688Y-17549954D02*
X11341688Y-17597573D01*
X11341688Y-17597573D02*
X11332164Y-17635669D01*
X11332164Y-17635669D02*
X11322640Y-17654716D01*
X11322640Y-17654716D02*
X11313116Y-17664240D01*
X11313116Y-17664240D02*
X11294069Y-17673764D01*
X11294069Y-17673764D02*
X11275021Y-17673764D01*
X11275021Y-17673764D02*
X11255973Y-17664240D01*
X11255973Y-17664240D02*
X11246449Y-17654716D01*
X11246449Y-17654716D02*
X11236926Y-17635669D01*
X11236926Y-17635669D02*
X11227402Y-17597573D01*
X11227402Y-17597573D02*
X11227402Y-17549954D01*
X11227402Y-17549954D02*
X11236926Y-17511859D01*
X11236926Y-17511859D02*
X11246449Y-17492811D01*
X11246449Y-17492811D02*
X11255973Y-17483288D01*
X11255973Y-17483288D02*
X11275021Y-17473764D01*
X11427402Y-17673764D02*
X11427402Y-17540430D01*
X11427402Y-17559478D02*
X11436926Y-17549954D01*
X11436926Y-17549954D02*
X11455973Y-17540430D01*
X11455973Y-17540430D02*
X11484545Y-17540430D01*
X11484545Y-17540430D02*
X11503592Y-17549954D01*
X11503592Y-17549954D02*
X11513116Y-17569002D01*
X11513116Y-17569002D02*
X11513116Y-17673764D01*
X11513116Y-17569002D02*
X11522640Y-17549954D01*
X11522640Y-17549954D02*
X11541688Y-17540430D01*
X11541688Y-17540430D02*
X11570259Y-17540430D01*
X11570259Y-17540430D02*
X11589307Y-17549954D01*
X11589307Y-17549954D02*
X11598830Y-17569002D01*
X11598830Y-17569002D02*
X11598830Y-17673764D01*
X11694069Y-17673764D02*
X11694069Y-17540430D01*
X11694069Y-17559478D02*
X11703592Y-17549954D01*
X11703592Y-17549954D02*
X11722640Y-17540430D01*
X11722640Y-17540430D02*
X11751211Y-17540430D01*
X11751211Y-17540430D02*
X11770259Y-17549954D01*
X11770259Y-17549954D02*
X11779783Y-17569002D01*
X11779783Y-17569002D02*
X11779783Y-17673764D01*
X11779783Y-17569002D02*
X11789307Y-17549954D01*
X11789307Y-17549954D02*
X11808354Y-17540430D01*
X11808354Y-17540430D02*
X11836926Y-17540430D01*
X11836926Y-17540430D02*
X11855973Y-17549954D01*
X11855973Y-17549954D02*
X11865497Y-17569002D01*
X11865497Y-17569002D02*
X11865497Y-17673764D01*
X12255973Y-17464240D02*
X12084545Y-17721383D01*
X12513116Y-17473764D02*
X12532164Y-17473764D01*
X12532164Y-17473764D02*
X12551212Y-17483288D01*
X12551212Y-17483288D02*
X12560735Y-17492811D01*
X12560735Y-17492811D02*
X12570259Y-17511859D01*
X12570259Y-17511859D02*
X12579783Y-17549954D01*
X12579783Y-17549954D02*
X12579783Y-17597573D01*
X12579783Y-17597573D02*
X12570259Y-17635669D01*
X12570259Y-17635669D02*
X12560735Y-17654716D01*
X12560735Y-17654716D02*
X12551212Y-17664240D01*
X12551212Y-17664240D02*
X12532164Y-17673764D01*
X12532164Y-17673764D02*
X12513116Y-17673764D01*
X12513116Y-17673764D02*
X12494069Y-17664240D01*
X12494069Y-17664240D02*
X12484545Y-17654716D01*
X12484545Y-17654716D02*
X12475021Y-17635669D01*
X12475021Y-17635669D02*
X12465497Y-17597573D01*
X12465497Y-17597573D02*
X12465497Y-17549954D01*
X12465497Y-17549954D02*
X12475021Y-17511859D01*
X12475021Y-17511859D02*
X12484545Y-17492811D01*
X12484545Y-17492811D02*
X12494069Y-17483288D01*
X12494069Y-17483288D02*
X12513116Y-17473764D01*
X12665497Y-17654716D02*
X12675021Y-17664240D01*
X12675021Y-17664240D02*
X12665497Y-17673764D01*
X12665497Y-17673764D02*
X12655973Y-17664240D01*
X12655973Y-17664240D02*
X12665497Y-17654716D01*
X12665497Y-17654716D02*
X12665497Y-17673764D01*
X12798831Y-17473764D02*
X12817878Y-17473764D01*
X12817878Y-17473764D02*
X12836926Y-17483288D01*
X12836926Y-17483288D02*
X12846450Y-17492811D01*
X12846450Y-17492811D02*
X12855973Y-17511859D01*
X12855973Y-17511859D02*
X12865497Y-17549954D01*
X12865497Y-17549954D02*
X12865497Y-17597573D01*
X12865497Y-17597573D02*
X12855973Y-17635669D01*
X12855973Y-17635669D02*
X12846450Y-17654716D01*
X12846450Y-17654716D02*
X12836926Y-17664240D01*
X12836926Y-17664240D02*
X12817878Y-17673764D01*
X12817878Y-17673764D02*
X12798831Y-17673764D01*
X12798831Y-17673764D02*
X12779783Y-17664240D01*
X12779783Y-17664240D02*
X12770259Y-17654716D01*
X12770259Y-17654716D02*
X12760735Y-17635669D01*
X12760735Y-17635669D02*
X12751212Y-17597573D01*
X12751212Y-17597573D02*
X12751212Y-17549954D01*
X12751212Y-17549954D02*
X12760735Y-17511859D01*
X12760735Y-17511859D02*
X12770259Y-17492811D01*
X12770259Y-17492811D02*
X12779783Y-17483288D01*
X12779783Y-17483288D02*
X12798831Y-17473764D01*
X13046450Y-17473764D02*
X12951212Y-17473764D01*
X12951212Y-17473764D02*
X12941688Y-17569002D01*
X12941688Y-17569002D02*
X12951212Y-17559478D01*
X12951212Y-17559478D02*
X12970259Y-17549954D01*
X12970259Y-17549954D02*
X13017878Y-17549954D01*
X13017878Y-17549954D02*
X13036926Y-17559478D01*
X13036926Y-17559478D02*
X13046450Y-17569002D01*
X13046450Y-17569002D02*
X13055973Y-17588050D01*
X13055973Y-17588050D02*
X13055973Y-17635669D01*
X13055973Y-17635669D02*
X13046450Y-17654716D01*
X13046450Y-17654716D02*
X13036926Y-17664240D01*
X13036926Y-17664240D02*
X13017878Y-17673764D01*
X13017878Y-17673764D02*
X12970259Y-17673764D01*
X12970259Y-17673764D02*
X12951212Y-17664240D01*
X12951212Y-17664240D02*
X12941688Y-17654716D01*
X13151212Y-17673764D02*
X13189307Y-17673764D01*
X13189307Y-17673764D02*
X13208354Y-17664240D01*
X13208354Y-17664240D02*
X13217878Y-17654716D01*
X13217878Y-17654716D02*
X13236926Y-17626145D01*
X13236926Y-17626145D02*
X13246450Y-17588050D01*
X13246450Y-17588050D02*
X13246450Y-17511859D01*
X13246450Y-17511859D02*
X13236926Y-17492811D01*
X13236926Y-17492811D02*
X13227402Y-17483288D01*
X13227402Y-17483288D02*
X13208354Y-17473764D01*
X13208354Y-17473764D02*
X13170259Y-17473764D01*
X13170259Y-17473764D02*
X13151212Y-17483288D01*
X13151212Y-17483288D02*
X13141688Y-17492811D01*
X13141688Y-17492811D02*
X13132164Y-17511859D01*
X13132164Y-17511859D02*
X13132164Y-17559478D01*
X13132164Y-17559478D02*
X13141688Y-17578526D01*
X13141688Y-17578526D02*
X13151212Y-17588050D01*
X13151212Y-17588050D02*
X13170259Y-17597573D01*
X13170259Y-17597573D02*
X13208354Y-17597573D01*
X13208354Y-17597573D02*
X13227402Y-17588050D01*
X13227402Y-17588050D02*
X13236926Y-17578526D01*
X13236926Y-17578526D02*
X13246450Y-17559478D01*
X13436926Y-17673764D02*
X13322640Y-17673764D01*
X13379783Y-17673764D02*
X13379783Y-17473764D01*
X13379783Y-17473764D02*
X13360735Y-17502335D01*
X13360735Y-17502335D02*
X13341688Y-17521383D01*
X13341688Y-17521383D02*
X13322640Y-17530907D01*
X13513116Y-17473764D02*
X13513116Y-17511859D01*
X13589307Y-17473764D02*
X13589307Y-17511859D01*
X13884545Y-17749954D02*
X13875021Y-17740430D01*
X13875021Y-17740430D02*
X13855974Y-17711859D01*
X13855974Y-17711859D02*
X13846450Y-17692811D01*
X13846450Y-17692811D02*
X13836926Y-17664240D01*
X13836926Y-17664240D02*
X13827402Y-17616621D01*
X13827402Y-17616621D02*
X13827402Y-17578526D01*
X13827402Y-17578526D02*
X13836926Y-17530907D01*
X13836926Y-17530907D02*
X13846450Y-17502335D01*
X13846450Y-17502335D02*
X13855974Y-17483288D01*
X13855974Y-17483288D02*
X13875021Y-17454716D01*
X13875021Y-17454716D02*
X13884545Y-17445192D01*
X13998831Y-17473764D02*
X14017878Y-17473764D01*
X14017878Y-17473764D02*
X14036926Y-17483288D01*
X14036926Y-17483288D02*
X14046450Y-17492811D01*
X14046450Y-17492811D02*
X14055974Y-17511859D01*
X14055974Y-17511859D02*
X14065497Y-17549954D01*
X14065497Y-17549954D02*
X14065497Y-17597573D01*
X14065497Y-17597573D02*
X14055974Y-17635669D01*
X14055974Y-17635669D02*
X14046450Y-17654716D01*
X14046450Y-17654716D02*
X14036926Y-17664240D01*
X14036926Y-17664240D02*
X14017878Y-17673764D01*
X14017878Y-17673764D02*
X13998831Y-17673764D01*
X13998831Y-17673764D02*
X13979783Y-17664240D01*
X13979783Y-17664240D02*
X13970259Y-17654716D01*
X13970259Y-17654716D02*
X13960735Y-17635669D01*
X13960735Y-17635669D02*
X13951212Y-17597573D01*
X13951212Y-17597573D02*
X13951212Y-17549954D01*
X13951212Y-17549954D02*
X13960735Y-17511859D01*
X13960735Y-17511859D02*
X13970259Y-17492811D01*
X13970259Y-17492811D02*
X13979783Y-17483288D01*
X13979783Y-17483288D02*
X13998831Y-17473764D01*
X14303593Y-17673764D02*
X14303593Y-17473764D01*
X14389307Y-17673764D02*
X14389307Y-17569002D01*
X14389307Y-17569002D02*
X14379783Y-17549954D01*
X14379783Y-17549954D02*
X14360736Y-17540430D01*
X14360736Y-17540430D02*
X14332164Y-17540430D01*
X14332164Y-17540430D02*
X14313116Y-17549954D01*
X14313116Y-17549954D02*
X14303593Y-17559478D01*
X14513116Y-17673764D02*
X14494069Y-17664240D01*
X14494069Y-17664240D02*
X14484545Y-17654716D01*
X14484545Y-17654716D02*
X14475021Y-17635669D01*
X14475021Y-17635669D02*
X14475021Y-17578526D01*
X14475021Y-17578526D02*
X14484545Y-17559478D01*
X14484545Y-17559478D02*
X14494069Y-17549954D01*
X14494069Y-17549954D02*
X14513116Y-17540430D01*
X14513116Y-17540430D02*
X14541688Y-17540430D01*
X14541688Y-17540430D02*
X14560736Y-17549954D01*
X14560736Y-17549954D02*
X14570259Y-17559478D01*
X14570259Y-17559478D02*
X14579783Y-17578526D01*
X14579783Y-17578526D02*
X14579783Y-17635669D01*
X14579783Y-17635669D02*
X14570259Y-17654716D01*
X14570259Y-17654716D02*
X14560736Y-17664240D01*
X14560736Y-17664240D02*
X14541688Y-17673764D01*
X14541688Y-17673764D02*
X14513116Y-17673764D01*
X14694069Y-17673764D02*
X14675021Y-17664240D01*
X14675021Y-17664240D02*
X14665497Y-17645192D01*
X14665497Y-17645192D02*
X14665497Y-17473764D01*
X14846450Y-17664240D02*
X14827402Y-17673764D01*
X14827402Y-17673764D02*
X14789307Y-17673764D01*
X14789307Y-17673764D02*
X14770259Y-17664240D01*
X14770259Y-17664240D02*
X14760736Y-17645192D01*
X14760736Y-17645192D02*
X14760736Y-17569002D01*
X14760736Y-17569002D02*
X14770259Y-17549954D01*
X14770259Y-17549954D02*
X14789307Y-17540430D01*
X14789307Y-17540430D02*
X14827402Y-17540430D01*
X14827402Y-17540430D02*
X14846450Y-17549954D01*
X14846450Y-17549954D02*
X14855974Y-17569002D01*
X14855974Y-17569002D02*
X14855974Y-17588050D01*
X14855974Y-17588050D02*
X14760736Y-17607097D01*
X14932164Y-17664240D02*
X14951212Y-17673764D01*
X14951212Y-17673764D02*
X14989307Y-17673764D01*
X14989307Y-17673764D02*
X15008355Y-17664240D01*
X15008355Y-17664240D02*
X15017878Y-17645192D01*
X15017878Y-17645192D02*
X15017878Y-17635669D01*
X15017878Y-17635669D02*
X15008355Y-17616621D01*
X15008355Y-17616621D02*
X14989307Y-17607097D01*
X14989307Y-17607097D02*
X14960736Y-17607097D01*
X14960736Y-17607097D02*
X14941688Y-17597573D01*
X14941688Y-17597573D02*
X14932164Y-17578526D01*
X14932164Y-17578526D02*
X14932164Y-17569002D01*
X14932164Y-17569002D02*
X14941688Y-17549954D01*
X14941688Y-17549954D02*
X14960736Y-17540430D01*
X14960736Y-17540430D02*
X14989307Y-17540430D01*
X14989307Y-17540430D02*
X15008355Y-17549954D01*
X15255974Y-17597573D02*
X15408355Y-17597573D01*
X15332164Y-17673764D02*
X15332164Y-17521383D01*
X15646450Y-17492811D02*
X15655974Y-17483288D01*
X15655974Y-17483288D02*
X15675021Y-17473764D01*
X15675021Y-17473764D02*
X15722640Y-17473764D01*
X15722640Y-17473764D02*
X15741688Y-17483288D01*
X15741688Y-17483288D02*
X15751212Y-17492811D01*
X15751212Y-17492811D02*
X15760736Y-17511859D01*
X15760736Y-17511859D02*
X15760736Y-17530907D01*
X15760736Y-17530907D02*
X15751212Y-17559478D01*
X15751212Y-17559478D02*
X15636926Y-17673764D01*
X15636926Y-17673764D02*
X15760736Y-17673764D01*
X15989307Y-17664240D02*
X16008355Y-17673764D01*
X16008355Y-17673764D02*
X16046450Y-17673764D01*
X16046450Y-17673764D02*
X16065498Y-17664240D01*
X16065498Y-17664240D02*
X16075021Y-17645192D01*
X16075021Y-17645192D02*
X16075021Y-17635669D01*
X16075021Y-17635669D02*
X16065498Y-17616621D01*
X16065498Y-17616621D02*
X16046450Y-17607097D01*
X16046450Y-17607097D02*
X16017879Y-17607097D01*
X16017879Y-17607097D02*
X15998831Y-17597573D01*
X15998831Y-17597573D02*
X15989307Y-17578526D01*
X15989307Y-17578526D02*
X15989307Y-17569002D01*
X15989307Y-17569002D02*
X15998831Y-17549954D01*
X15998831Y-17549954D02*
X16017879Y-17540430D01*
X16017879Y-17540430D02*
X16046450Y-17540430D01*
X16046450Y-17540430D02*
X16065498Y-17549954D01*
X16189307Y-17673764D02*
X16170260Y-17664240D01*
X16170260Y-17664240D02*
X16160736Y-17645192D01*
X16160736Y-17645192D02*
X16160736Y-17473764D01*
X16294069Y-17673764D02*
X16275021Y-17664240D01*
X16275021Y-17664240D02*
X16265498Y-17654716D01*
X16265498Y-17654716D02*
X16255974Y-17635669D01*
X16255974Y-17635669D02*
X16255974Y-17578526D01*
X16255974Y-17578526D02*
X16265498Y-17559478D01*
X16265498Y-17559478D02*
X16275021Y-17549954D01*
X16275021Y-17549954D02*
X16294069Y-17540430D01*
X16294069Y-17540430D02*
X16322641Y-17540430D01*
X16322641Y-17540430D02*
X16341688Y-17549954D01*
X16341688Y-17549954D02*
X16351212Y-17559478D01*
X16351212Y-17559478D02*
X16360736Y-17578526D01*
X16360736Y-17578526D02*
X16360736Y-17635669D01*
X16360736Y-17635669D02*
X16351212Y-17654716D01*
X16351212Y-17654716D02*
X16341688Y-17664240D01*
X16341688Y-17664240D02*
X16322641Y-17673764D01*
X16322641Y-17673764D02*
X16294069Y-17673764D01*
X16417879Y-17540430D02*
X16494069Y-17540430D01*
X16446450Y-17473764D02*
X16446450Y-17645192D01*
X16446450Y-17645192D02*
X16455974Y-17664240D01*
X16455974Y-17664240D02*
X16475021Y-17673764D01*
X16475021Y-17673764D02*
X16494069Y-17673764D01*
X16551212Y-17664240D02*
X16570260Y-17673764D01*
X16570260Y-17673764D02*
X16608355Y-17673764D01*
X16608355Y-17673764D02*
X16627402Y-17664240D01*
X16627402Y-17664240D02*
X16636926Y-17645192D01*
X16636926Y-17645192D02*
X16636926Y-17635669D01*
X16636926Y-17635669D02*
X16627402Y-17616621D01*
X16627402Y-17616621D02*
X16608355Y-17607097D01*
X16608355Y-17607097D02*
X16579783Y-17607097D01*
X16579783Y-17607097D02*
X16560736Y-17597573D01*
X16560736Y-17597573D02*
X16551212Y-17578526D01*
X16551212Y-17578526D02*
X16551212Y-17569002D01*
X16551212Y-17569002D02*
X16560736Y-17549954D01*
X16560736Y-17549954D02*
X16579783Y-17540430D01*
X16579783Y-17540430D02*
X16608355Y-17540430D01*
X16608355Y-17540430D02*
X16627402Y-17549954D01*
X16703593Y-17749954D02*
X16713117Y-17740430D01*
X16713117Y-17740430D02*
X16732164Y-17711859D01*
X16732164Y-17711859D02*
X16741688Y-17692811D01*
X16741688Y-17692811D02*
X16751212Y-17664240D01*
X16751212Y-17664240D02*
X16760736Y-17616621D01*
X16760736Y-17616621D02*
X16760736Y-17578526D01*
X16760736Y-17578526D02*
X16751212Y-17530907D01*
X16751212Y-17530907D02*
X16741688Y-17502335D01*
X16741688Y-17502335D02*
X16732164Y-17483288D01*
X16732164Y-17483288D02*
X16713117Y-17454716D01*
X16713117Y-17454716D02*
X16703593Y-17445192D01*
M02*
