M48
; DRILL file {KiCad 7.0.11} date Sun May 26 23:12:03 2024
; FORMAT={-:-/ absolute / inch / decimal}
; #@! TF.CreationDate,2024-05-26T23:12:03+03:00
; #@! TF.GenerationSoftware,Kicad,Pcbnew,7.0.11
; #@! TF.FileFunction,Plated,1,2,PTH
FMAT,2
INCH
; #@! TA.AperFunction,Plated,PTH,ViaDrill
T1C0.0157
; #@! TA.AperFunction,Plated,PTH,ComponentDrill
T2C0.0300
; #@! TA.AperFunction,Plated,PTH,ComponentDrill
T3C0.0315
; #@! TA.AperFunction,Plated,PTH,ComponentDrill
T4C0.0394
; #@! TA.AperFunction,Plated,PTH,ComponentDrill
T5C0.0433
%
G90
G05
T1
X5.8036Y-4.8615
X6.4405Y-5.4233
X7.1918Y-5.1584
T2
X8.2032Y-5.9203
X8.3032Y-5.9203
X8.4032Y-5.9203
X8.5032Y-5.9203
T3
X4.8583Y-4.5354
X4.8583Y-4.6354
X4.8583Y-4.7354
X4.8583Y-4.8354
X4.8583Y-4.9354
X4.8583Y-5.0354
X4.8583Y-5.1354
X4.8583Y-5.2354
X4.8583Y-5.3354
X4.8583Y-5.4354
X4.8583Y-5.5354
X4.8583Y-5.6354
X4.8583Y-5.7354
X4.8583Y-5.8354
X4.8583Y-5.9354
X5.4583Y-4.5354
X5.4583Y-4.6354
X5.4583Y-4.7354
X5.4583Y-4.8354
X5.4583Y-4.9354
X5.4583Y-5.0354
X5.4583Y-5.1354
X5.4583Y-5.2354
X5.4583Y-5.3354
X5.4583Y-5.4354
X5.4583Y-5.5354
X5.4583Y-5.6354
X5.4583Y-5.7354
X5.4583Y-5.8354
X5.4583Y-5.9354
X5.6654Y-5.0906
X5.6654Y-5.2474
X5.6654Y-5.4042
X5.6654Y-5.561
X5.6654Y-5.7178
X5.6654Y-5.8747
X5.6654Y-6.0315
X5.752Y-4.6339
X5.752Y-4.8307
X6.0654Y-5.0906
X6.0654Y-5.2474
X6.0654Y-5.4042
X6.0654Y-5.561
X6.0654Y-5.7178
X6.0654Y-5.8747
X6.0654Y-6.0315
X7.7748Y-4.7829
X7.7748Y-4.8829
X7.7748Y-4.9829
X7.7748Y-5.0829
X7.7748Y-5.1829
X7.7748Y-5.2829
X7.7748Y-5.3829
X8.0748Y-4.7829
X8.0748Y-4.8829
X8.0748Y-4.9829
X8.0748Y-5.0829
X8.0748Y-5.1829
X8.0748Y-5.2829
X8.0748Y-5.3829
T4
X4.4764Y-4.377
X4.4764Y-4.477
X4.4764Y-4.577
X4.4764Y-4.677
X4.4764Y-4.777
X4.4764Y-4.877
X4.4764Y-4.977
X4.4764Y-5.077
X4.4764Y-5.177
X4.4764Y-5.277
X4.4764Y-5.377
X4.4764Y-5.477
X4.4764Y-5.577
X4.4764Y-5.677
X4.4764Y-5.777
X4.4764Y-5.877
X4.4764Y-5.977
X4.5764Y-4.377
X4.5764Y-4.477
X4.5764Y-4.577
X4.5764Y-4.677
X4.5764Y-4.777
X4.5764Y-4.877
X4.5764Y-4.977
X4.5764Y-5.077
X4.5764Y-5.177
X4.5764Y-5.277
X4.5764Y-5.377
X4.5764Y-5.477
X4.5764Y-5.577
X4.5764Y-5.677
X4.5764Y-5.777
X4.5764Y-5.877
X4.5764Y-5.977
X5.2203Y-4.1378
X5.3203Y-4.1378
X5.4203Y-4.1378
X7.7323Y-4.2559
X7.7323Y-4.3559
X7.7323Y-4.4559
X7.7323Y-4.5559
T5
X8.2441Y-4.4803
X8.2441Y-4.6575
X8.2441Y-5.0
X8.2441Y-5.1772
X8.2441Y-5.5197
X8.2441Y-5.6969
X8.5Y-4.4803
X8.5Y-4.6575
X8.5Y-5.0
X8.5Y-5.1772
X8.5Y-5.5197
X8.5Y-5.6969
M30
