%TF.GenerationSoftware,KiCad,Pcbnew,7.0.1*%
%TF.CreationDate,2024-02-04T21:46:43+03:00*%
%TF.ProjectId,delta_flop_arduino,64656c74-615f-4666-9c6f-705f61726475,rev?*%
%TF.SameCoordinates,Original*%
%TF.FileFunction,Soldermask,Top*%
%TF.FilePolarity,Negative*%
%FSLAX46Y46*%
G04 Gerber Fmt 4.6, Leading zero omitted, Abs format (unit mm)*
G04 Created by KiCad (PCBNEW 7.0.1) date 2024-02-04 21:46:43*
%MOMM*%
%LPD*%
G01*
G04 APERTURE LIST*
G04 Aperture macros list*
%AMRoundRect*
0 Rectangle with rounded corners*
0 $1 Rounding radius*
0 $2 $3 $4 $5 $6 $7 $8 $9 X,Y pos of 4 corners*
0 Add a 4 corners polygon primitive as box body*
4,1,4,$2,$3,$4,$5,$6,$7,$8,$9,$2,$3,0*
0 Add four circle primitives for the rounded corners*
1,1,$1+$1,$2,$3*
1,1,$1+$1,$4,$5*
1,1,$1+$1,$6,$7*
1,1,$1+$1,$8,$9*
0 Add four rect primitives between the rounded corners*
20,1,$1+$1,$2,$3,$4,$5,0*
20,1,$1+$1,$4,$5,$6,$7,0*
20,1,$1+$1,$6,$7,$8,$9,0*
20,1,$1+$1,$8,$9,$2,$3,0*%
G04 Aperture macros list end*
%ADD10C,0.650000*%
%ADD11O,1.000000X1.600000*%
%ADD12O,1.000000X2.100000*%
%ADD13C,1.600000*%
%ADD14O,1.600000X1.600000*%
%ADD15C,3.500000*%
%ADD16R,1.700000X1.700000*%
%ADD17O,1.700000X1.700000*%
%ADD18C,1.550000*%
%ADD19RoundRect,0.101600X-0.900000X-0.450000X0.900000X-0.450000X0.900000X0.450000X-0.900000X0.450000X0*%
%ADD20RoundRect,0.101600X-0.900000X-0.550000X0.900000X-0.550000X0.900000X0.550000X-0.900000X0.550000X0*%
%ADD21RoundRect,0.101600X-1.000000X-0.700000X1.000000X-0.700000X1.000000X0.700000X-1.000000X0.700000X0*%
%ADD22R,1.600000X1.600000*%
%ADD23RoundRect,0.250000X0.600000X0.600000X-0.600000X0.600000X-0.600000X-0.600000X0.600000X-0.600000X0*%
%ADD24C,1.700000*%
%ADD25R,2.000000X2.000000*%
%ADD26C,2.000000*%
%ADD27R,2.000000X3.200000*%
G04 APERTURE END LIST*
D10*
%TO.C,J4*%
X214223600Y-156464000D03*
X208443600Y-156464000D03*
D11*
X215653600Y-160144000D03*
D12*
X215653600Y-155964000D03*
D11*
X207013600Y-160144000D03*
D12*
X207013600Y-155964000D03*
%TD*%
D13*
%TO.C,R4*%
X171805600Y-140208000D03*
D14*
X171805600Y-150368000D03*
%TD*%
D15*
%TO.C,H1*%
X105776400Y-104049200D03*
%TD*%
%TO.C,H4*%
X199176000Y-158942400D03*
%TD*%
D16*
%TO.C,J2*%
X196392800Y-108112400D03*
D17*
X196392800Y-110652400D03*
X196392800Y-113192400D03*
X196392800Y-115732400D03*
%TD*%
D13*
%TO.C,R6*%
X155244800Y-135636000D03*
D14*
X165404800Y-135636000D03*
%TD*%
D13*
%TO.C,R5*%
X152552400Y-150520400D03*
D14*
X152552400Y-140360400D03*
%TD*%
D13*
%TO.C,R3*%
X165252400Y-140157200D03*
D14*
X165252400Y-150317200D03*
%TD*%
D15*
%TO.C,H2*%
X199176000Y-104049200D03*
%TD*%
D13*
%TO.C,R2*%
X158597600Y-140258800D03*
D14*
X158597600Y-150418800D03*
%TD*%
D15*
%TO.C,H3*%
X105776400Y-158942400D03*
%TD*%
D18*
%TO.C,J1*%
X213479100Y-126439200D03*
X213479100Y-150699200D03*
D19*
X189179100Y-131609200D03*
X189179100Y-134109200D03*
X189179100Y-135859200D03*
X189179100Y-139109200D03*
X189179100Y-141609200D03*
X189179100Y-144109200D03*
X189179100Y-146529200D03*
X189179100Y-148229200D03*
X189179100Y-129109200D03*
X189179100Y-137359200D03*
D20*
X189179100Y-151379200D03*
D21*
X210179100Y-123629200D03*
X211329100Y-153129200D03*
%TD*%
D22*
%TO.C,U1*%
X127508000Y-114452400D03*
D14*
X127508000Y-116992400D03*
X127508000Y-119532400D03*
X127508000Y-122072400D03*
X127508000Y-124612400D03*
X127508000Y-127152400D03*
X127508000Y-129692400D03*
X127508000Y-132232400D03*
X127508000Y-134772400D03*
X127508000Y-137312400D03*
X127508000Y-139852400D03*
X127508000Y-142392400D03*
X127508000Y-144932400D03*
X127508000Y-147472400D03*
X127508000Y-150012400D03*
X142748000Y-150012400D03*
X142748000Y-147472400D03*
X142748000Y-144932400D03*
X142748000Y-142392400D03*
X142748000Y-139852400D03*
X142748000Y-137312400D03*
X142748000Y-134772400D03*
X142748000Y-132232400D03*
X142748000Y-129692400D03*
X142748000Y-127152400D03*
X142748000Y-124612400D03*
X142748000Y-122072400D03*
X142748000Y-119532400D03*
X142748000Y-116992400D03*
X142748000Y-114452400D03*
%TD*%
D13*
%TO.C,R1*%
X157175200Y-155448000D03*
D14*
X167335200Y-155448000D03*
%TD*%
D16*
%TO.C,J3*%
X181310200Y-150368000D03*
D17*
X178770200Y-150368000D03*
%TD*%
D16*
%TO.C,JP1*%
X122936000Y-134924800D03*
D17*
X122936000Y-137464800D03*
X122936000Y-140004800D03*
%TD*%
D23*
%TO.C,D1*%
X115468400Y-151892000D03*
D24*
X112928400Y-151892000D03*
X115468400Y-149352000D03*
X112928400Y-149352000D03*
X115468400Y-146812000D03*
X112928400Y-146812000D03*
X115468400Y-144272000D03*
X112928400Y-144272000D03*
X115468400Y-141732000D03*
X112928400Y-141732000D03*
X115468400Y-139192000D03*
X112928400Y-139192000D03*
X115468400Y-136652000D03*
X112928400Y-136652000D03*
X115468400Y-134112000D03*
X112928400Y-134112000D03*
X115468400Y-131572000D03*
X112928400Y-131572000D03*
X115468400Y-129032000D03*
X112928400Y-129032000D03*
X115468400Y-126492000D03*
X112928400Y-126492000D03*
X115468400Y-123952000D03*
X112928400Y-123952000D03*
X115468400Y-121412000D03*
X112928400Y-121412000D03*
X115468400Y-118872000D03*
X112928400Y-118872000D03*
X115468400Y-116332000D03*
X112928400Y-116332000D03*
X115468400Y-113792000D03*
X112928400Y-113792000D03*
X115468400Y-111252000D03*
X112928400Y-111252000D03*
%TD*%
D13*
%TO.C,R7*%
X161696400Y-129794000D03*
D14*
X171856400Y-129794000D03*
%TD*%
D25*
%TO.C,SW1*%
X214346800Y-120011600D03*
D26*
X209346800Y-120011600D03*
X211846800Y-120011600D03*
D27*
X206246800Y-112511600D03*
X217446800Y-112511600D03*
D26*
X209346800Y-105511600D03*
X214346800Y-105511600D03*
%TD*%
M02*
