%TF.GenerationSoftware,KiCad,Pcbnew,7.0.1*%
%TF.CreationDate,2024-03-20T11:01:41+03:00*%
%TF.ProjectId,delta_flop_arduino,64656c74-615f-4666-9c6f-705f61726475,rev?*%
%TF.SameCoordinates,Original*%
%TF.FileFunction,Drillmap*%
%TF.FilePolarity,Positive*%
%FSLAX45Y45*%
G04 Gerber Fmt 4.5, Leading zero omitted, Abs format (unit mm)*
G04 Created by KiCad (PCBNEW 7.0.1) date 2024-03-20 11:01:41*
%MOMM*%
%LPD*%
G01*
G04 APERTURE LIST*
%ADD10C,0.100000*%
%ADD11C,0.200000*%
%ADD12C,0.155000*%
%ADD13C,0.350000*%
G04 APERTURE END LIST*
D10*
X10427640Y-10154920D02*
G75*
G03*
X10327640Y-10254920I0J-100000D01*
G01*
X14970760Y-10254920D02*
G75*
G03*
X14870760Y-10154920I-100000J0D01*
G01*
X10327640Y-16044240D02*
G75*
G03*
X10427640Y-16144240I100000J0D01*
G01*
X19441160Y-12269800D02*
X19441160Y-10254920D01*
X22000000Y-10254920D02*
G75*
G03*
X21900000Y-10154920I-100000J0D01*
G01*
X22000000Y-10254920D02*
X22000000Y-16044240D01*
X19541160Y-10154920D02*
G75*
G03*
X19441160Y-10254920I0J-100000D01*
G01*
X10327640Y-16044240D02*
X10327640Y-10254920D01*
X19541160Y-10154920D02*
X21900000Y-10154920D01*
X19341160Y-12369800D02*
G75*
G03*
X19441160Y-12269800I0J100000D01*
G01*
X21900000Y-16144240D02*
G75*
G03*
X22000000Y-16044240I0J100000D01*
G01*
X14970760Y-12269800D02*
G75*
G03*
X15070760Y-12369800I100000J0D01*
G01*
X21900000Y-16144240D02*
X10427640Y-16144240D01*
X10427640Y-10154920D02*
X14870760Y-10154920D01*
X15070760Y-12369800D02*
X19341160Y-12369800D01*
X14970760Y-10254920D02*
X14970760Y-12269800D01*
D11*
D12*
X15830500Y-15152500D02*
X15985500Y-15307500D01*
X15985500Y-15152500D02*
X15830500Y-15307500D01*
X18256500Y-15152500D02*
X18411500Y-15307500D01*
X18411500Y-15152500D02*
X18256500Y-15307500D01*
D13*
X10752640Y-10404920D02*
G75*
G03*
X10752640Y-10404920I-175000J0D01*
G01*
X10752640Y-15894240D02*
G75*
G03*
X10752640Y-15894240I-175000J0D01*
G01*
X20092600Y-10404920D02*
G75*
G03*
X20092600Y-10404920I-175000J0D01*
G01*
X20092600Y-15894240D02*
G75*
G03*
X20092600Y-15894240I-175000J0D01*
G01*
D11*
X10570259Y-16461764D02*
X10570259Y-16261764D01*
X10570259Y-16261764D02*
X10617878Y-16261764D01*
X10617878Y-16261764D02*
X10646450Y-16271288D01*
X10646450Y-16271288D02*
X10665497Y-16290335D01*
X10665497Y-16290335D02*
X10675021Y-16309383D01*
X10675021Y-16309383D02*
X10684545Y-16347478D01*
X10684545Y-16347478D02*
X10684545Y-16376049D01*
X10684545Y-16376049D02*
X10675021Y-16414145D01*
X10675021Y-16414145D02*
X10665497Y-16433192D01*
X10665497Y-16433192D02*
X10646450Y-16452240D01*
X10646450Y-16452240D02*
X10617878Y-16461764D01*
X10617878Y-16461764D02*
X10570259Y-16461764D01*
X10770259Y-16461764D02*
X10770259Y-16328430D01*
X10770259Y-16366526D02*
X10779783Y-16347478D01*
X10779783Y-16347478D02*
X10789307Y-16337954D01*
X10789307Y-16337954D02*
X10808354Y-16328430D01*
X10808354Y-16328430D02*
X10827402Y-16328430D01*
X10894069Y-16461764D02*
X10894069Y-16328430D01*
X10894069Y-16261764D02*
X10884545Y-16271288D01*
X10884545Y-16271288D02*
X10894069Y-16280811D01*
X10894069Y-16280811D02*
X10903592Y-16271288D01*
X10903592Y-16271288D02*
X10894069Y-16261764D01*
X10894069Y-16261764D02*
X10894069Y-16280811D01*
X11017878Y-16461764D02*
X10998830Y-16452240D01*
X10998830Y-16452240D02*
X10989307Y-16433192D01*
X10989307Y-16433192D02*
X10989307Y-16261764D01*
X11122640Y-16461764D02*
X11103592Y-16452240D01*
X11103592Y-16452240D02*
X11094069Y-16433192D01*
X11094069Y-16433192D02*
X11094069Y-16261764D01*
X11351211Y-16461764D02*
X11351211Y-16261764D01*
X11351211Y-16261764D02*
X11417878Y-16404621D01*
X11417878Y-16404621D02*
X11484545Y-16261764D01*
X11484545Y-16261764D02*
X11484545Y-16461764D01*
X11665497Y-16461764D02*
X11665497Y-16357002D01*
X11665497Y-16357002D02*
X11655973Y-16337954D01*
X11655973Y-16337954D02*
X11636926Y-16328430D01*
X11636926Y-16328430D02*
X11598830Y-16328430D01*
X11598830Y-16328430D02*
X11579783Y-16337954D01*
X11665497Y-16452240D02*
X11646449Y-16461764D01*
X11646449Y-16461764D02*
X11598830Y-16461764D01*
X11598830Y-16461764D02*
X11579783Y-16452240D01*
X11579783Y-16452240D02*
X11570259Y-16433192D01*
X11570259Y-16433192D02*
X11570259Y-16414145D01*
X11570259Y-16414145D02*
X11579783Y-16395097D01*
X11579783Y-16395097D02*
X11598830Y-16385573D01*
X11598830Y-16385573D02*
X11646449Y-16385573D01*
X11646449Y-16385573D02*
X11665497Y-16376049D01*
X11760735Y-16328430D02*
X11760735Y-16528430D01*
X11760735Y-16337954D02*
X11779783Y-16328430D01*
X11779783Y-16328430D02*
X11817878Y-16328430D01*
X11817878Y-16328430D02*
X11836926Y-16337954D01*
X11836926Y-16337954D02*
X11846449Y-16347478D01*
X11846449Y-16347478D02*
X11855973Y-16366526D01*
X11855973Y-16366526D02*
X11855973Y-16423668D01*
X11855973Y-16423668D02*
X11846449Y-16442716D01*
X11846449Y-16442716D02*
X11836926Y-16452240D01*
X11836926Y-16452240D02*
X11817878Y-16461764D01*
X11817878Y-16461764D02*
X11779783Y-16461764D01*
X11779783Y-16461764D02*
X11760735Y-16452240D01*
X11941688Y-16442716D02*
X11951211Y-16452240D01*
X11951211Y-16452240D02*
X11941688Y-16461764D01*
X11941688Y-16461764D02*
X11932164Y-16452240D01*
X11932164Y-16452240D02*
X11941688Y-16442716D01*
X11941688Y-16442716D02*
X11941688Y-16461764D01*
X11941688Y-16337954D02*
X11951211Y-16347478D01*
X11951211Y-16347478D02*
X11941688Y-16357002D01*
X11941688Y-16357002D02*
X11932164Y-16347478D01*
X11932164Y-16347478D02*
X11941688Y-16337954D01*
X11941688Y-16337954D02*
X11941688Y-16357002D01*
D12*
X10167640Y-16711740D02*
X10322640Y-16866740D01*
X10322640Y-16711740D02*
X10167640Y-16866740D01*
D11*
X10675021Y-16881764D02*
X10560735Y-16881764D01*
X10617878Y-16881764D02*
X10617878Y-16681764D01*
X10617878Y-16681764D02*
X10598830Y-16710335D01*
X10598830Y-16710335D02*
X10579783Y-16729383D01*
X10579783Y-16729383D02*
X10560735Y-16738907D01*
X10760735Y-16862716D02*
X10770259Y-16872240D01*
X10770259Y-16872240D02*
X10760735Y-16881764D01*
X10760735Y-16881764D02*
X10751211Y-16872240D01*
X10751211Y-16872240D02*
X10760735Y-16862716D01*
X10760735Y-16862716D02*
X10760735Y-16881764D01*
X10951211Y-16681764D02*
X10855973Y-16681764D01*
X10855973Y-16681764D02*
X10846450Y-16777002D01*
X10846450Y-16777002D02*
X10855973Y-16767478D01*
X10855973Y-16767478D02*
X10875021Y-16757954D01*
X10875021Y-16757954D02*
X10922640Y-16757954D01*
X10922640Y-16757954D02*
X10941688Y-16767478D01*
X10941688Y-16767478D02*
X10951211Y-16777002D01*
X10951211Y-16777002D02*
X10960735Y-16796050D01*
X10960735Y-16796050D02*
X10960735Y-16843669D01*
X10960735Y-16843669D02*
X10951211Y-16862716D01*
X10951211Y-16862716D02*
X10941688Y-16872240D01*
X10941688Y-16872240D02*
X10922640Y-16881764D01*
X10922640Y-16881764D02*
X10875021Y-16881764D01*
X10875021Y-16881764D02*
X10855973Y-16872240D01*
X10855973Y-16872240D02*
X10846450Y-16862716D01*
X11141688Y-16681764D02*
X11046450Y-16681764D01*
X11046450Y-16681764D02*
X11036926Y-16777002D01*
X11036926Y-16777002D02*
X11046450Y-16767478D01*
X11046450Y-16767478D02*
X11065497Y-16757954D01*
X11065497Y-16757954D02*
X11113116Y-16757954D01*
X11113116Y-16757954D02*
X11132164Y-16767478D01*
X11132164Y-16767478D02*
X11141688Y-16777002D01*
X11141688Y-16777002D02*
X11151211Y-16796050D01*
X11151211Y-16796050D02*
X11151211Y-16843669D01*
X11151211Y-16843669D02*
X11141688Y-16862716D01*
X11141688Y-16862716D02*
X11132164Y-16872240D01*
X11132164Y-16872240D02*
X11113116Y-16881764D01*
X11113116Y-16881764D02*
X11065497Y-16881764D01*
X11065497Y-16881764D02*
X11046450Y-16872240D01*
X11046450Y-16872240D02*
X11036926Y-16862716D01*
X11275021Y-16681764D02*
X11294069Y-16681764D01*
X11294069Y-16681764D02*
X11313116Y-16691288D01*
X11313116Y-16691288D02*
X11322640Y-16700811D01*
X11322640Y-16700811D02*
X11332164Y-16719859D01*
X11332164Y-16719859D02*
X11341688Y-16757954D01*
X11341688Y-16757954D02*
X11341688Y-16805573D01*
X11341688Y-16805573D02*
X11332164Y-16843669D01*
X11332164Y-16843669D02*
X11322640Y-16862716D01*
X11322640Y-16862716D02*
X11313116Y-16872240D01*
X11313116Y-16872240D02*
X11294069Y-16881764D01*
X11294069Y-16881764D02*
X11275021Y-16881764D01*
X11275021Y-16881764D02*
X11255973Y-16872240D01*
X11255973Y-16872240D02*
X11246449Y-16862716D01*
X11246449Y-16862716D02*
X11236926Y-16843669D01*
X11236926Y-16843669D02*
X11227402Y-16805573D01*
X11227402Y-16805573D02*
X11227402Y-16757954D01*
X11227402Y-16757954D02*
X11236926Y-16719859D01*
X11236926Y-16719859D02*
X11246449Y-16700811D01*
X11246449Y-16700811D02*
X11255973Y-16691288D01*
X11255973Y-16691288D02*
X11275021Y-16681764D01*
X11427402Y-16881764D02*
X11427402Y-16748430D01*
X11427402Y-16767478D02*
X11436926Y-16757954D01*
X11436926Y-16757954D02*
X11455973Y-16748430D01*
X11455973Y-16748430D02*
X11484545Y-16748430D01*
X11484545Y-16748430D02*
X11503592Y-16757954D01*
X11503592Y-16757954D02*
X11513116Y-16777002D01*
X11513116Y-16777002D02*
X11513116Y-16881764D01*
X11513116Y-16777002D02*
X11522640Y-16757954D01*
X11522640Y-16757954D02*
X11541688Y-16748430D01*
X11541688Y-16748430D02*
X11570259Y-16748430D01*
X11570259Y-16748430D02*
X11589307Y-16757954D01*
X11589307Y-16757954D02*
X11598830Y-16777002D01*
X11598830Y-16777002D02*
X11598830Y-16881764D01*
X11694069Y-16881764D02*
X11694069Y-16748430D01*
X11694069Y-16767478D02*
X11703592Y-16757954D01*
X11703592Y-16757954D02*
X11722640Y-16748430D01*
X11722640Y-16748430D02*
X11751211Y-16748430D01*
X11751211Y-16748430D02*
X11770259Y-16757954D01*
X11770259Y-16757954D02*
X11779783Y-16777002D01*
X11779783Y-16777002D02*
X11779783Y-16881764D01*
X11779783Y-16777002D02*
X11789307Y-16757954D01*
X11789307Y-16757954D02*
X11808354Y-16748430D01*
X11808354Y-16748430D02*
X11836926Y-16748430D01*
X11836926Y-16748430D02*
X11855973Y-16757954D01*
X11855973Y-16757954D02*
X11865497Y-16777002D01*
X11865497Y-16777002D02*
X11865497Y-16881764D01*
X12255973Y-16672240D02*
X12084545Y-16929383D01*
X12513116Y-16681764D02*
X12532164Y-16681764D01*
X12532164Y-16681764D02*
X12551212Y-16691288D01*
X12551212Y-16691288D02*
X12560735Y-16700811D01*
X12560735Y-16700811D02*
X12570259Y-16719859D01*
X12570259Y-16719859D02*
X12579783Y-16757954D01*
X12579783Y-16757954D02*
X12579783Y-16805573D01*
X12579783Y-16805573D02*
X12570259Y-16843669D01*
X12570259Y-16843669D02*
X12560735Y-16862716D01*
X12560735Y-16862716D02*
X12551212Y-16872240D01*
X12551212Y-16872240D02*
X12532164Y-16881764D01*
X12532164Y-16881764D02*
X12513116Y-16881764D01*
X12513116Y-16881764D02*
X12494069Y-16872240D01*
X12494069Y-16872240D02*
X12484545Y-16862716D01*
X12484545Y-16862716D02*
X12475021Y-16843669D01*
X12475021Y-16843669D02*
X12465497Y-16805573D01*
X12465497Y-16805573D02*
X12465497Y-16757954D01*
X12465497Y-16757954D02*
X12475021Y-16719859D01*
X12475021Y-16719859D02*
X12484545Y-16700811D01*
X12484545Y-16700811D02*
X12494069Y-16691288D01*
X12494069Y-16691288D02*
X12513116Y-16681764D01*
X12665497Y-16862716D02*
X12675021Y-16872240D01*
X12675021Y-16872240D02*
X12665497Y-16881764D01*
X12665497Y-16881764D02*
X12655973Y-16872240D01*
X12655973Y-16872240D02*
X12665497Y-16862716D01*
X12665497Y-16862716D02*
X12665497Y-16881764D01*
X12798831Y-16681764D02*
X12817878Y-16681764D01*
X12817878Y-16681764D02*
X12836926Y-16691288D01*
X12836926Y-16691288D02*
X12846450Y-16700811D01*
X12846450Y-16700811D02*
X12855973Y-16719859D01*
X12855973Y-16719859D02*
X12865497Y-16757954D01*
X12865497Y-16757954D02*
X12865497Y-16805573D01*
X12865497Y-16805573D02*
X12855973Y-16843669D01*
X12855973Y-16843669D02*
X12846450Y-16862716D01*
X12846450Y-16862716D02*
X12836926Y-16872240D01*
X12836926Y-16872240D02*
X12817878Y-16881764D01*
X12817878Y-16881764D02*
X12798831Y-16881764D01*
X12798831Y-16881764D02*
X12779783Y-16872240D01*
X12779783Y-16872240D02*
X12770259Y-16862716D01*
X12770259Y-16862716D02*
X12760735Y-16843669D01*
X12760735Y-16843669D02*
X12751212Y-16805573D01*
X12751212Y-16805573D02*
X12751212Y-16757954D01*
X12751212Y-16757954D02*
X12760735Y-16719859D01*
X12760735Y-16719859D02*
X12770259Y-16700811D01*
X12770259Y-16700811D02*
X12779783Y-16691288D01*
X12779783Y-16691288D02*
X12798831Y-16681764D01*
X13036926Y-16681764D02*
X12998831Y-16681764D01*
X12998831Y-16681764D02*
X12979783Y-16691288D01*
X12979783Y-16691288D02*
X12970259Y-16700811D01*
X12970259Y-16700811D02*
X12951212Y-16729383D01*
X12951212Y-16729383D02*
X12941688Y-16767478D01*
X12941688Y-16767478D02*
X12941688Y-16843669D01*
X12941688Y-16843669D02*
X12951212Y-16862716D01*
X12951212Y-16862716D02*
X12960735Y-16872240D01*
X12960735Y-16872240D02*
X12979783Y-16881764D01*
X12979783Y-16881764D02*
X13017878Y-16881764D01*
X13017878Y-16881764D02*
X13036926Y-16872240D01*
X13036926Y-16872240D02*
X13046450Y-16862716D01*
X13046450Y-16862716D02*
X13055973Y-16843669D01*
X13055973Y-16843669D02*
X13055973Y-16796050D01*
X13055973Y-16796050D02*
X13046450Y-16777002D01*
X13046450Y-16777002D02*
X13036926Y-16767478D01*
X13036926Y-16767478D02*
X13017878Y-16757954D01*
X13017878Y-16757954D02*
X12979783Y-16757954D01*
X12979783Y-16757954D02*
X12960735Y-16767478D01*
X12960735Y-16767478D02*
X12951212Y-16777002D01*
X12951212Y-16777002D02*
X12941688Y-16796050D01*
X13246450Y-16881764D02*
X13132164Y-16881764D01*
X13189307Y-16881764D02*
X13189307Y-16681764D01*
X13189307Y-16681764D02*
X13170259Y-16710335D01*
X13170259Y-16710335D02*
X13151212Y-16729383D01*
X13151212Y-16729383D02*
X13132164Y-16738907D01*
X13370259Y-16681764D02*
X13389307Y-16681764D01*
X13389307Y-16681764D02*
X13408354Y-16691288D01*
X13408354Y-16691288D02*
X13417878Y-16700811D01*
X13417878Y-16700811D02*
X13427402Y-16719859D01*
X13427402Y-16719859D02*
X13436926Y-16757954D01*
X13436926Y-16757954D02*
X13436926Y-16805573D01*
X13436926Y-16805573D02*
X13427402Y-16843669D01*
X13427402Y-16843669D02*
X13417878Y-16862716D01*
X13417878Y-16862716D02*
X13408354Y-16872240D01*
X13408354Y-16872240D02*
X13389307Y-16881764D01*
X13389307Y-16881764D02*
X13370259Y-16881764D01*
X13370259Y-16881764D02*
X13351212Y-16872240D01*
X13351212Y-16872240D02*
X13341688Y-16862716D01*
X13341688Y-16862716D02*
X13332164Y-16843669D01*
X13332164Y-16843669D02*
X13322640Y-16805573D01*
X13322640Y-16805573D02*
X13322640Y-16757954D01*
X13322640Y-16757954D02*
X13332164Y-16719859D01*
X13332164Y-16719859D02*
X13341688Y-16700811D01*
X13341688Y-16700811D02*
X13351212Y-16691288D01*
X13351212Y-16691288D02*
X13370259Y-16681764D01*
X13513116Y-16681764D02*
X13513116Y-16719859D01*
X13589307Y-16681764D02*
X13589307Y-16719859D01*
X13884545Y-16957954D02*
X13875021Y-16948430D01*
X13875021Y-16948430D02*
X13855974Y-16919859D01*
X13855974Y-16919859D02*
X13846450Y-16900811D01*
X13846450Y-16900811D02*
X13836926Y-16872240D01*
X13836926Y-16872240D02*
X13827402Y-16824621D01*
X13827402Y-16824621D02*
X13827402Y-16786526D01*
X13827402Y-16786526D02*
X13836926Y-16738907D01*
X13836926Y-16738907D02*
X13846450Y-16710335D01*
X13846450Y-16710335D02*
X13855974Y-16691288D01*
X13855974Y-16691288D02*
X13875021Y-16662716D01*
X13875021Y-16662716D02*
X13884545Y-16653192D01*
X13951212Y-16700811D02*
X13960735Y-16691288D01*
X13960735Y-16691288D02*
X13979783Y-16681764D01*
X13979783Y-16681764D02*
X14027402Y-16681764D01*
X14027402Y-16681764D02*
X14046450Y-16691288D01*
X14046450Y-16691288D02*
X14055974Y-16700811D01*
X14055974Y-16700811D02*
X14065497Y-16719859D01*
X14065497Y-16719859D02*
X14065497Y-16738907D01*
X14065497Y-16738907D02*
X14055974Y-16767478D01*
X14055974Y-16767478D02*
X13941688Y-16881764D01*
X13941688Y-16881764D02*
X14065497Y-16881764D01*
X14303593Y-16881764D02*
X14303593Y-16681764D01*
X14389307Y-16881764D02*
X14389307Y-16777002D01*
X14389307Y-16777002D02*
X14379783Y-16757954D01*
X14379783Y-16757954D02*
X14360736Y-16748430D01*
X14360736Y-16748430D02*
X14332164Y-16748430D01*
X14332164Y-16748430D02*
X14313116Y-16757954D01*
X14313116Y-16757954D02*
X14303593Y-16767478D01*
X14513116Y-16881764D02*
X14494069Y-16872240D01*
X14494069Y-16872240D02*
X14484545Y-16862716D01*
X14484545Y-16862716D02*
X14475021Y-16843669D01*
X14475021Y-16843669D02*
X14475021Y-16786526D01*
X14475021Y-16786526D02*
X14484545Y-16767478D01*
X14484545Y-16767478D02*
X14494069Y-16757954D01*
X14494069Y-16757954D02*
X14513116Y-16748430D01*
X14513116Y-16748430D02*
X14541688Y-16748430D01*
X14541688Y-16748430D02*
X14560736Y-16757954D01*
X14560736Y-16757954D02*
X14570259Y-16767478D01*
X14570259Y-16767478D02*
X14579783Y-16786526D01*
X14579783Y-16786526D02*
X14579783Y-16843669D01*
X14579783Y-16843669D02*
X14570259Y-16862716D01*
X14570259Y-16862716D02*
X14560736Y-16872240D01*
X14560736Y-16872240D02*
X14541688Y-16881764D01*
X14541688Y-16881764D02*
X14513116Y-16881764D01*
X14694069Y-16881764D02*
X14675021Y-16872240D01*
X14675021Y-16872240D02*
X14665497Y-16853192D01*
X14665497Y-16853192D02*
X14665497Y-16681764D01*
X14846450Y-16872240D02*
X14827402Y-16881764D01*
X14827402Y-16881764D02*
X14789307Y-16881764D01*
X14789307Y-16881764D02*
X14770259Y-16872240D01*
X14770259Y-16872240D02*
X14760736Y-16853192D01*
X14760736Y-16853192D02*
X14760736Y-16777002D01*
X14760736Y-16777002D02*
X14770259Y-16757954D01*
X14770259Y-16757954D02*
X14789307Y-16748430D01*
X14789307Y-16748430D02*
X14827402Y-16748430D01*
X14827402Y-16748430D02*
X14846450Y-16757954D01*
X14846450Y-16757954D02*
X14855974Y-16777002D01*
X14855974Y-16777002D02*
X14855974Y-16796050D01*
X14855974Y-16796050D02*
X14760736Y-16815097D01*
X14932164Y-16872240D02*
X14951212Y-16881764D01*
X14951212Y-16881764D02*
X14989307Y-16881764D01*
X14989307Y-16881764D02*
X15008355Y-16872240D01*
X15008355Y-16872240D02*
X15017878Y-16853192D01*
X15017878Y-16853192D02*
X15017878Y-16843669D01*
X15017878Y-16843669D02*
X15008355Y-16824621D01*
X15008355Y-16824621D02*
X14989307Y-16815097D01*
X14989307Y-16815097D02*
X14960736Y-16815097D01*
X14960736Y-16815097D02*
X14941688Y-16805573D01*
X14941688Y-16805573D02*
X14932164Y-16786526D01*
X14932164Y-16786526D02*
X14932164Y-16777002D01*
X14932164Y-16777002D02*
X14941688Y-16757954D01*
X14941688Y-16757954D02*
X14960736Y-16748430D01*
X14960736Y-16748430D02*
X14989307Y-16748430D01*
X14989307Y-16748430D02*
X15008355Y-16757954D01*
X15084545Y-16957954D02*
X15094069Y-16948430D01*
X15094069Y-16948430D02*
X15113117Y-16919859D01*
X15113117Y-16919859D02*
X15122640Y-16900811D01*
X15122640Y-16900811D02*
X15132164Y-16872240D01*
X15132164Y-16872240D02*
X15141688Y-16824621D01*
X15141688Y-16824621D02*
X15141688Y-16786526D01*
X15141688Y-16786526D02*
X15132164Y-16738907D01*
X15132164Y-16738907D02*
X15122640Y-16710335D01*
X15122640Y-16710335D02*
X15113117Y-16691288D01*
X15113117Y-16691288D02*
X15094069Y-16662716D01*
X15094069Y-16662716D02*
X15084545Y-16653192D01*
X15446450Y-16957954D02*
X15436926Y-16948430D01*
X15436926Y-16948430D02*
X15417878Y-16919859D01*
X15417878Y-16919859D02*
X15408355Y-16900811D01*
X15408355Y-16900811D02*
X15398831Y-16872240D01*
X15398831Y-16872240D02*
X15389307Y-16824621D01*
X15389307Y-16824621D02*
X15389307Y-16786526D01*
X15389307Y-16786526D02*
X15398831Y-16738907D01*
X15398831Y-16738907D02*
X15408355Y-16710335D01*
X15408355Y-16710335D02*
X15417878Y-16691288D01*
X15417878Y-16691288D02*
X15436926Y-16662716D01*
X15436926Y-16662716D02*
X15446450Y-16653192D01*
X15522640Y-16748430D02*
X15522640Y-16881764D01*
X15522640Y-16767478D02*
X15532164Y-16757954D01*
X15532164Y-16757954D02*
X15551212Y-16748430D01*
X15551212Y-16748430D02*
X15579783Y-16748430D01*
X15579783Y-16748430D02*
X15598831Y-16757954D01*
X15598831Y-16757954D02*
X15608355Y-16777002D01*
X15608355Y-16777002D02*
X15608355Y-16881764D01*
X15732164Y-16881764D02*
X15713117Y-16872240D01*
X15713117Y-16872240D02*
X15703593Y-16862716D01*
X15703593Y-16862716D02*
X15694069Y-16843669D01*
X15694069Y-16843669D02*
X15694069Y-16786526D01*
X15694069Y-16786526D02*
X15703593Y-16767478D01*
X15703593Y-16767478D02*
X15713117Y-16757954D01*
X15713117Y-16757954D02*
X15732164Y-16748430D01*
X15732164Y-16748430D02*
X15760736Y-16748430D01*
X15760736Y-16748430D02*
X15779783Y-16757954D01*
X15779783Y-16757954D02*
X15789307Y-16767478D01*
X15789307Y-16767478D02*
X15798831Y-16786526D01*
X15798831Y-16786526D02*
X15798831Y-16843669D01*
X15798831Y-16843669D02*
X15789307Y-16862716D01*
X15789307Y-16862716D02*
X15779783Y-16872240D01*
X15779783Y-16872240D02*
X15760736Y-16881764D01*
X15760736Y-16881764D02*
X15732164Y-16881764D01*
X15855974Y-16748430D02*
X15932164Y-16748430D01*
X15884545Y-16681764D02*
X15884545Y-16853192D01*
X15884545Y-16853192D02*
X15894069Y-16872240D01*
X15894069Y-16872240D02*
X15913117Y-16881764D01*
X15913117Y-16881764D02*
X15932164Y-16881764D01*
X16151212Y-16748430D02*
X16151212Y-16948430D01*
X16151212Y-16757954D02*
X16170259Y-16748430D01*
X16170259Y-16748430D02*
X16208355Y-16748430D01*
X16208355Y-16748430D02*
X16227402Y-16757954D01*
X16227402Y-16757954D02*
X16236926Y-16767478D01*
X16236926Y-16767478D02*
X16246450Y-16786526D01*
X16246450Y-16786526D02*
X16246450Y-16843669D01*
X16246450Y-16843669D02*
X16236926Y-16862716D01*
X16236926Y-16862716D02*
X16227402Y-16872240D01*
X16227402Y-16872240D02*
X16208355Y-16881764D01*
X16208355Y-16881764D02*
X16170259Y-16881764D01*
X16170259Y-16881764D02*
X16151212Y-16872240D01*
X16360736Y-16881764D02*
X16341688Y-16872240D01*
X16341688Y-16872240D02*
X16332164Y-16853192D01*
X16332164Y-16853192D02*
X16332164Y-16681764D01*
X16522640Y-16881764D02*
X16522640Y-16777002D01*
X16522640Y-16777002D02*
X16513117Y-16757954D01*
X16513117Y-16757954D02*
X16494069Y-16748430D01*
X16494069Y-16748430D02*
X16455974Y-16748430D01*
X16455974Y-16748430D02*
X16436926Y-16757954D01*
X16522640Y-16872240D02*
X16503593Y-16881764D01*
X16503593Y-16881764D02*
X16455974Y-16881764D01*
X16455974Y-16881764D02*
X16436926Y-16872240D01*
X16436926Y-16872240D02*
X16427402Y-16853192D01*
X16427402Y-16853192D02*
X16427402Y-16834145D01*
X16427402Y-16834145D02*
X16436926Y-16815097D01*
X16436926Y-16815097D02*
X16455974Y-16805573D01*
X16455974Y-16805573D02*
X16503593Y-16805573D01*
X16503593Y-16805573D02*
X16522640Y-16796050D01*
X16589307Y-16748430D02*
X16665498Y-16748430D01*
X16617879Y-16681764D02*
X16617879Y-16853192D01*
X16617879Y-16853192D02*
X16627402Y-16872240D01*
X16627402Y-16872240D02*
X16646450Y-16881764D01*
X16646450Y-16881764D02*
X16665498Y-16881764D01*
X16808355Y-16872240D02*
X16789307Y-16881764D01*
X16789307Y-16881764D02*
X16751212Y-16881764D01*
X16751212Y-16881764D02*
X16732164Y-16872240D01*
X16732164Y-16872240D02*
X16722640Y-16853192D01*
X16722640Y-16853192D02*
X16722640Y-16777002D01*
X16722640Y-16777002D02*
X16732164Y-16757954D01*
X16732164Y-16757954D02*
X16751212Y-16748430D01*
X16751212Y-16748430D02*
X16789307Y-16748430D01*
X16789307Y-16748430D02*
X16808355Y-16757954D01*
X16808355Y-16757954D02*
X16817879Y-16777002D01*
X16817879Y-16777002D02*
X16817879Y-16796050D01*
X16817879Y-16796050D02*
X16722640Y-16815097D01*
X16989307Y-16881764D02*
X16989307Y-16681764D01*
X16989307Y-16872240D02*
X16970260Y-16881764D01*
X16970260Y-16881764D02*
X16932164Y-16881764D01*
X16932164Y-16881764D02*
X16913117Y-16872240D01*
X16913117Y-16872240D02*
X16903593Y-16862716D01*
X16903593Y-16862716D02*
X16894069Y-16843669D01*
X16894069Y-16843669D02*
X16894069Y-16786526D01*
X16894069Y-16786526D02*
X16903593Y-16767478D01*
X16903593Y-16767478D02*
X16913117Y-16757954D01*
X16913117Y-16757954D02*
X16932164Y-16748430D01*
X16932164Y-16748430D02*
X16970260Y-16748430D01*
X16970260Y-16748430D02*
X16989307Y-16757954D01*
X17065498Y-16957954D02*
X17075022Y-16948430D01*
X17075022Y-16948430D02*
X17094069Y-16919859D01*
X17094069Y-16919859D02*
X17103593Y-16900811D01*
X17103593Y-16900811D02*
X17113117Y-16872240D01*
X17113117Y-16872240D02*
X17122641Y-16824621D01*
X17122641Y-16824621D02*
X17122641Y-16786526D01*
X17122641Y-16786526D02*
X17113117Y-16738907D01*
X17113117Y-16738907D02*
X17103593Y-16710335D01*
X17103593Y-16710335D02*
X17094069Y-16691288D01*
X17094069Y-16691288D02*
X17075022Y-16662716D01*
X17075022Y-16662716D02*
X17065498Y-16653192D01*
X10322640Y-17064240D02*
G75*
G03*
X10322640Y-17064240I-100000J0D01*
G01*
X10551211Y-16956764D02*
X10675021Y-16956764D01*
X10675021Y-16956764D02*
X10608354Y-17032954D01*
X10608354Y-17032954D02*
X10636926Y-17032954D01*
X10636926Y-17032954D02*
X10655973Y-17042478D01*
X10655973Y-17042478D02*
X10665497Y-17052002D01*
X10665497Y-17052002D02*
X10675021Y-17071050D01*
X10675021Y-17071050D02*
X10675021Y-17118669D01*
X10675021Y-17118669D02*
X10665497Y-17137716D01*
X10665497Y-17137716D02*
X10655973Y-17147240D01*
X10655973Y-17147240D02*
X10636926Y-17156764D01*
X10636926Y-17156764D02*
X10579783Y-17156764D01*
X10579783Y-17156764D02*
X10560735Y-17147240D01*
X10560735Y-17147240D02*
X10551211Y-17137716D01*
X10760735Y-17137716D02*
X10770259Y-17147240D01*
X10770259Y-17147240D02*
X10760735Y-17156764D01*
X10760735Y-17156764D02*
X10751211Y-17147240D01*
X10751211Y-17147240D02*
X10760735Y-17137716D01*
X10760735Y-17137716D02*
X10760735Y-17156764D01*
X10951211Y-16956764D02*
X10855973Y-16956764D01*
X10855973Y-16956764D02*
X10846450Y-17052002D01*
X10846450Y-17052002D02*
X10855973Y-17042478D01*
X10855973Y-17042478D02*
X10875021Y-17032954D01*
X10875021Y-17032954D02*
X10922640Y-17032954D01*
X10922640Y-17032954D02*
X10941688Y-17042478D01*
X10941688Y-17042478D02*
X10951211Y-17052002D01*
X10951211Y-17052002D02*
X10960735Y-17071050D01*
X10960735Y-17071050D02*
X10960735Y-17118669D01*
X10960735Y-17118669D02*
X10951211Y-17137716D01*
X10951211Y-17137716D02*
X10941688Y-17147240D01*
X10941688Y-17147240D02*
X10922640Y-17156764D01*
X10922640Y-17156764D02*
X10875021Y-17156764D01*
X10875021Y-17156764D02*
X10855973Y-17147240D01*
X10855973Y-17147240D02*
X10846450Y-17137716D01*
X11084545Y-16956764D02*
X11103592Y-16956764D01*
X11103592Y-16956764D02*
X11122640Y-16966288D01*
X11122640Y-16966288D02*
X11132164Y-16975811D01*
X11132164Y-16975811D02*
X11141688Y-16994859D01*
X11141688Y-16994859D02*
X11151211Y-17032954D01*
X11151211Y-17032954D02*
X11151211Y-17080573D01*
X11151211Y-17080573D02*
X11141688Y-17118669D01*
X11141688Y-17118669D02*
X11132164Y-17137716D01*
X11132164Y-17137716D02*
X11122640Y-17147240D01*
X11122640Y-17147240D02*
X11103592Y-17156764D01*
X11103592Y-17156764D02*
X11084545Y-17156764D01*
X11084545Y-17156764D02*
X11065497Y-17147240D01*
X11065497Y-17147240D02*
X11055973Y-17137716D01*
X11055973Y-17137716D02*
X11046450Y-17118669D01*
X11046450Y-17118669D02*
X11036926Y-17080573D01*
X11036926Y-17080573D02*
X11036926Y-17032954D01*
X11036926Y-17032954D02*
X11046450Y-16994859D01*
X11046450Y-16994859D02*
X11055973Y-16975811D01*
X11055973Y-16975811D02*
X11065497Y-16966288D01*
X11065497Y-16966288D02*
X11084545Y-16956764D01*
X11275021Y-16956764D02*
X11294069Y-16956764D01*
X11294069Y-16956764D02*
X11313116Y-16966288D01*
X11313116Y-16966288D02*
X11322640Y-16975811D01*
X11322640Y-16975811D02*
X11332164Y-16994859D01*
X11332164Y-16994859D02*
X11341688Y-17032954D01*
X11341688Y-17032954D02*
X11341688Y-17080573D01*
X11341688Y-17080573D02*
X11332164Y-17118669D01*
X11332164Y-17118669D02*
X11322640Y-17137716D01*
X11322640Y-17137716D02*
X11313116Y-17147240D01*
X11313116Y-17147240D02*
X11294069Y-17156764D01*
X11294069Y-17156764D02*
X11275021Y-17156764D01*
X11275021Y-17156764D02*
X11255973Y-17147240D01*
X11255973Y-17147240D02*
X11246449Y-17137716D01*
X11246449Y-17137716D02*
X11236926Y-17118669D01*
X11236926Y-17118669D02*
X11227402Y-17080573D01*
X11227402Y-17080573D02*
X11227402Y-17032954D01*
X11227402Y-17032954D02*
X11236926Y-16994859D01*
X11236926Y-16994859D02*
X11246449Y-16975811D01*
X11246449Y-16975811D02*
X11255973Y-16966288D01*
X11255973Y-16966288D02*
X11275021Y-16956764D01*
X11427402Y-17156764D02*
X11427402Y-17023430D01*
X11427402Y-17042478D02*
X11436926Y-17032954D01*
X11436926Y-17032954D02*
X11455973Y-17023430D01*
X11455973Y-17023430D02*
X11484545Y-17023430D01*
X11484545Y-17023430D02*
X11503592Y-17032954D01*
X11503592Y-17032954D02*
X11513116Y-17052002D01*
X11513116Y-17052002D02*
X11513116Y-17156764D01*
X11513116Y-17052002D02*
X11522640Y-17032954D01*
X11522640Y-17032954D02*
X11541688Y-17023430D01*
X11541688Y-17023430D02*
X11570259Y-17023430D01*
X11570259Y-17023430D02*
X11589307Y-17032954D01*
X11589307Y-17032954D02*
X11598830Y-17052002D01*
X11598830Y-17052002D02*
X11598830Y-17156764D01*
X11694069Y-17156764D02*
X11694069Y-17023430D01*
X11694069Y-17042478D02*
X11703592Y-17032954D01*
X11703592Y-17032954D02*
X11722640Y-17023430D01*
X11722640Y-17023430D02*
X11751211Y-17023430D01*
X11751211Y-17023430D02*
X11770259Y-17032954D01*
X11770259Y-17032954D02*
X11779783Y-17052002D01*
X11779783Y-17052002D02*
X11779783Y-17156764D01*
X11779783Y-17052002D02*
X11789307Y-17032954D01*
X11789307Y-17032954D02*
X11808354Y-17023430D01*
X11808354Y-17023430D02*
X11836926Y-17023430D01*
X11836926Y-17023430D02*
X11855973Y-17032954D01*
X11855973Y-17032954D02*
X11865497Y-17052002D01*
X11865497Y-17052002D02*
X11865497Y-17156764D01*
X12255973Y-16947240D02*
X12084545Y-17204383D01*
X12513116Y-16956764D02*
X12532164Y-16956764D01*
X12532164Y-16956764D02*
X12551212Y-16966288D01*
X12551212Y-16966288D02*
X12560735Y-16975811D01*
X12560735Y-16975811D02*
X12570259Y-16994859D01*
X12570259Y-16994859D02*
X12579783Y-17032954D01*
X12579783Y-17032954D02*
X12579783Y-17080573D01*
X12579783Y-17080573D02*
X12570259Y-17118669D01*
X12570259Y-17118669D02*
X12560735Y-17137716D01*
X12560735Y-17137716D02*
X12551212Y-17147240D01*
X12551212Y-17147240D02*
X12532164Y-17156764D01*
X12532164Y-17156764D02*
X12513116Y-17156764D01*
X12513116Y-17156764D02*
X12494069Y-17147240D01*
X12494069Y-17147240D02*
X12484545Y-17137716D01*
X12484545Y-17137716D02*
X12475021Y-17118669D01*
X12475021Y-17118669D02*
X12465497Y-17080573D01*
X12465497Y-17080573D02*
X12465497Y-17032954D01*
X12465497Y-17032954D02*
X12475021Y-16994859D01*
X12475021Y-16994859D02*
X12484545Y-16975811D01*
X12484545Y-16975811D02*
X12494069Y-16966288D01*
X12494069Y-16966288D02*
X12513116Y-16956764D01*
X12665497Y-17137716D02*
X12675021Y-17147240D01*
X12675021Y-17147240D02*
X12665497Y-17156764D01*
X12665497Y-17156764D02*
X12655973Y-17147240D01*
X12655973Y-17147240D02*
X12665497Y-17137716D01*
X12665497Y-17137716D02*
X12665497Y-17156764D01*
X12865497Y-17156764D02*
X12751212Y-17156764D01*
X12808354Y-17156764D02*
X12808354Y-16956764D01*
X12808354Y-16956764D02*
X12789307Y-16985335D01*
X12789307Y-16985335D02*
X12770259Y-17004383D01*
X12770259Y-17004383D02*
X12751212Y-17013907D01*
X12932164Y-16956764D02*
X13055973Y-16956764D01*
X13055973Y-16956764D02*
X12989307Y-17032954D01*
X12989307Y-17032954D02*
X13017878Y-17032954D01*
X13017878Y-17032954D02*
X13036926Y-17042478D01*
X13036926Y-17042478D02*
X13046450Y-17052002D01*
X13046450Y-17052002D02*
X13055973Y-17071050D01*
X13055973Y-17071050D02*
X13055973Y-17118669D01*
X13055973Y-17118669D02*
X13046450Y-17137716D01*
X13046450Y-17137716D02*
X13036926Y-17147240D01*
X13036926Y-17147240D02*
X13017878Y-17156764D01*
X13017878Y-17156764D02*
X12960735Y-17156764D01*
X12960735Y-17156764D02*
X12941688Y-17147240D01*
X12941688Y-17147240D02*
X12932164Y-17137716D01*
X13122640Y-16956764D02*
X13255973Y-16956764D01*
X13255973Y-16956764D02*
X13170259Y-17156764D01*
X13360735Y-17042478D02*
X13341688Y-17032954D01*
X13341688Y-17032954D02*
X13332164Y-17023430D01*
X13332164Y-17023430D02*
X13322640Y-17004383D01*
X13322640Y-17004383D02*
X13322640Y-16994859D01*
X13322640Y-16994859D02*
X13332164Y-16975811D01*
X13332164Y-16975811D02*
X13341688Y-16966288D01*
X13341688Y-16966288D02*
X13360735Y-16956764D01*
X13360735Y-16956764D02*
X13398831Y-16956764D01*
X13398831Y-16956764D02*
X13417878Y-16966288D01*
X13417878Y-16966288D02*
X13427402Y-16975811D01*
X13427402Y-16975811D02*
X13436926Y-16994859D01*
X13436926Y-16994859D02*
X13436926Y-17004383D01*
X13436926Y-17004383D02*
X13427402Y-17023430D01*
X13427402Y-17023430D02*
X13417878Y-17032954D01*
X13417878Y-17032954D02*
X13398831Y-17042478D01*
X13398831Y-17042478D02*
X13360735Y-17042478D01*
X13360735Y-17042478D02*
X13341688Y-17052002D01*
X13341688Y-17052002D02*
X13332164Y-17061526D01*
X13332164Y-17061526D02*
X13322640Y-17080573D01*
X13322640Y-17080573D02*
X13322640Y-17118669D01*
X13322640Y-17118669D02*
X13332164Y-17137716D01*
X13332164Y-17137716D02*
X13341688Y-17147240D01*
X13341688Y-17147240D02*
X13360735Y-17156764D01*
X13360735Y-17156764D02*
X13398831Y-17156764D01*
X13398831Y-17156764D02*
X13417878Y-17147240D01*
X13417878Y-17147240D02*
X13427402Y-17137716D01*
X13427402Y-17137716D02*
X13436926Y-17118669D01*
X13436926Y-17118669D02*
X13436926Y-17080573D01*
X13436926Y-17080573D02*
X13427402Y-17061526D01*
X13427402Y-17061526D02*
X13417878Y-17052002D01*
X13417878Y-17052002D02*
X13398831Y-17042478D01*
X13513116Y-16956764D02*
X13513116Y-16994859D01*
X13589307Y-16956764D02*
X13589307Y-16994859D01*
X13884545Y-17232954D02*
X13875021Y-17223430D01*
X13875021Y-17223430D02*
X13855974Y-17194859D01*
X13855974Y-17194859D02*
X13846450Y-17175811D01*
X13846450Y-17175811D02*
X13836926Y-17147240D01*
X13836926Y-17147240D02*
X13827402Y-17099621D01*
X13827402Y-17099621D02*
X13827402Y-17061526D01*
X13827402Y-17061526D02*
X13836926Y-17013907D01*
X13836926Y-17013907D02*
X13846450Y-16985335D01*
X13846450Y-16985335D02*
X13855974Y-16966288D01*
X13855974Y-16966288D02*
X13875021Y-16937716D01*
X13875021Y-16937716D02*
X13884545Y-16928192D01*
X14046450Y-17023430D02*
X14046450Y-17156764D01*
X13998831Y-16947240D02*
X13951212Y-17090097D01*
X13951212Y-17090097D02*
X14075021Y-17090097D01*
X14303593Y-17156764D02*
X14303593Y-16956764D01*
X14389307Y-17156764D02*
X14389307Y-17052002D01*
X14389307Y-17052002D02*
X14379783Y-17032954D01*
X14379783Y-17032954D02*
X14360736Y-17023430D01*
X14360736Y-17023430D02*
X14332164Y-17023430D01*
X14332164Y-17023430D02*
X14313116Y-17032954D01*
X14313116Y-17032954D02*
X14303593Y-17042478D01*
X14513116Y-17156764D02*
X14494069Y-17147240D01*
X14494069Y-17147240D02*
X14484545Y-17137716D01*
X14484545Y-17137716D02*
X14475021Y-17118669D01*
X14475021Y-17118669D02*
X14475021Y-17061526D01*
X14475021Y-17061526D02*
X14484545Y-17042478D01*
X14484545Y-17042478D02*
X14494069Y-17032954D01*
X14494069Y-17032954D02*
X14513116Y-17023430D01*
X14513116Y-17023430D02*
X14541688Y-17023430D01*
X14541688Y-17023430D02*
X14560736Y-17032954D01*
X14560736Y-17032954D02*
X14570259Y-17042478D01*
X14570259Y-17042478D02*
X14579783Y-17061526D01*
X14579783Y-17061526D02*
X14579783Y-17118669D01*
X14579783Y-17118669D02*
X14570259Y-17137716D01*
X14570259Y-17137716D02*
X14560736Y-17147240D01*
X14560736Y-17147240D02*
X14541688Y-17156764D01*
X14541688Y-17156764D02*
X14513116Y-17156764D01*
X14694069Y-17156764D02*
X14675021Y-17147240D01*
X14675021Y-17147240D02*
X14665497Y-17128192D01*
X14665497Y-17128192D02*
X14665497Y-16956764D01*
X14846450Y-17147240D02*
X14827402Y-17156764D01*
X14827402Y-17156764D02*
X14789307Y-17156764D01*
X14789307Y-17156764D02*
X14770259Y-17147240D01*
X14770259Y-17147240D02*
X14760736Y-17128192D01*
X14760736Y-17128192D02*
X14760736Y-17052002D01*
X14760736Y-17052002D02*
X14770259Y-17032954D01*
X14770259Y-17032954D02*
X14789307Y-17023430D01*
X14789307Y-17023430D02*
X14827402Y-17023430D01*
X14827402Y-17023430D02*
X14846450Y-17032954D01*
X14846450Y-17032954D02*
X14855974Y-17052002D01*
X14855974Y-17052002D02*
X14855974Y-17071050D01*
X14855974Y-17071050D02*
X14760736Y-17090097D01*
X14932164Y-17147240D02*
X14951212Y-17156764D01*
X14951212Y-17156764D02*
X14989307Y-17156764D01*
X14989307Y-17156764D02*
X15008355Y-17147240D01*
X15008355Y-17147240D02*
X15017878Y-17128192D01*
X15017878Y-17128192D02*
X15017878Y-17118669D01*
X15017878Y-17118669D02*
X15008355Y-17099621D01*
X15008355Y-17099621D02*
X14989307Y-17090097D01*
X14989307Y-17090097D02*
X14960736Y-17090097D01*
X14960736Y-17090097D02*
X14941688Y-17080573D01*
X14941688Y-17080573D02*
X14932164Y-17061526D01*
X14932164Y-17061526D02*
X14932164Y-17052002D01*
X14932164Y-17052002D02*
X14941688Y-17032954D01*
X14941688Y-17032954D02*
X14960736Y-17023430D01*
X14960736Y-17023430D02*
X14989307Y-17023430D01*
X14989307Y-17023430D02*
X15008355Y-17032954D01*
X15084545Y-17232954D02*
X15094069Y-17223430D01*
X15094069Y-17223430D02*
X15113117Y-17194859D01*
X15113117Y-17194859D02*
X15122640Y-17175811D01*
X15122640Y-17175811D02*
X15132164Y-17147240D01*
X15132164Y-17147240D02*
X15141688Y-17099621D01*
X15141688Y-17099621D02*
X15141688Y-17061526D01*
X15141688Y-17061526D02*
X15132164Y-17013907D01*
X15132164Y-17013907D02*
X15122640Y-16985335D01*
X15122640Y-16985335D02*
X15113117Y-16966288D01*
X15113117Y-16966288D02*
X15094069Y-16937716D01*
X15094069Y-16937716D02*
X15084545Y-16928192D01*
X15446450Y-17232954D02*
X15436926Y-17223430D01*
X15436926Y-17223430D02*
X15417878Y-17194859D01*
X15417878Y-17194859D02*
X15408355Y-17175811D01*
X15408355Y-17175811D02*
X15398831Y-17147240D01*
X15398831Y-17147240D02*
X15389307Y-17099621D01*
X15389307Y-17099621D02*
X15389307Y-17061526D01*
X15389307Y-17061526D02*
X15398831Y-17013907D01*
X15398831Y-17013907D02*
X15408355Y-16985335D01*
X15408355Y-16985335D02*
X15417878Y-16966288D01*
X15417878Y-16966288D02*
X15436926Y-16937716D01*
X15436926Y-16937716D02*
X15446450Y-16928192D01*
X15522640Y-17023430D02*
X15522640Y-17156764D01*
X15522640Y-17042478D02*
X15532164Y-17032954D01*
X15532164Y-17032954D02*
X15551212Y-17023430D01*
X15551212Y-17023430D02*
X15579783Y-17023430D01*
X15579783Y-17023430D02*
X15598831Y-17032954D01*
X15598831Y-17032954D02*
X15608355Y-17052002D01*
X15608355Y-17052002D02*
X15608355Y-17156764D01*
X15732164Y-17156764D02*
X15713117Y-17147240D01*
X15713117Y-17147240D02*
X15703593Y-17137716D01*
X15703593Y-17137716D02*
X15694069Y-17118669D01*
X15694069Y-17118669D02*
X15694069Y-17061526D01*
X15694069Y-17061526D02*
X15703593Y-17042478D01*
X15703593Y-17042478D02*
X15713117Y-17032954D01*
X15713117Y-17032954D02*
X15732164Y-17023430D01*
X15732164Y-17023430D02*
X15760736Y-17023430D01*
X15760736Y-17023430D02*
X15779783Y-17032954D01*
X15779783Y-17032954D02*
X15789307Y-17042478D01*
X15789307Y-17042478D02*
X15798831Y-17061526D01*
X15798831Y-17061526D02*
X15798831Y-17118669D01*
X15798831Y-17118669D02*
X15789307Y-17137716D01*
X15789307Y-17137716D02*
X15779783Y-17147240D01*
X15779783Y-17147240D02*
X15760736Y-17156764D01*
X15760736Y-17156764D02*
X15732164Y-17156764D01*
X15855974Y-17023430D02*
X15932164Y-17023430D01*
X15884545Y-16956764D02*
X15884545Y-17128192D01*
X15884545Y-17128192D02*
X15894069Y-17147240D01*
X15894069Y-17147240D02*
X15913117Y-17156764D01*
X15913117Y-17156764D02*
X15932164Y-17156764D01*
X16151212Y-17023430D02*
X16151212Y-17223430D01*
X16151212Y-17032954D02*
X16170259Y-17023430D01*
X16170259Y-17023430D02*
X16208355Y-17023430D01*
X16208355Y-17023430D02*
X16227402Y-17032954D01*
X16227402Y-17032954D02*
X16236926Y-17042478D01*
X16236926Y-17042478D02*
X16246450Y-17061526D01*
X16246450Y-17061526D02*
X16246450Y-17118669D01*
X16246450Y-17118669D02*
X16236926Y-17137716D01*
X16236926Y-17137716D02*
X16227402Y-17147240D01*
X16227402Y-17147240D02*
X16208355Y-17156764D01*
X16208355Y-17156764D02*
X16170259Y-17156764D01*
X16170259Y-17156764D02*
X16151212Y-17147240D01*
X16360736Y-17156764D02*
X16341688Y-17147240D01*
X16341688Y-17147240D02*
X16332164Y-17128192D01*
X16332164Y-17128192D02*
X16332164Y-16956764D01*
X16522640Y-17156764D02*
X16522640Y-17052002D01*
X16522640Y-17052002D02*
X16513117Y-17032954D01*
X16513117Y-17032954D02*
X16494069Y-17023430D01*
X16494069Y-17023430D02*
X16455974Y-17023430D01*
X16455974Y-17023430D02*
X16436926Y-17032954D01*
X16522640Y-17147240D02*
X16503593Y-17156764D01*
X16503593Y-17156764D02*
X16455974Y-17156764D01*
X16455974Y-17156764D02*
X16436926Y-17147240D01*
X16436926Y-17147240D02*
X16427402Y-17128192D01*
X16427402Y-17128192D02*
X16427402Y-17109145D01*
X16427402Y-17109145D02*
X16436926Y-17090097D01*
X16436926Y-17090097D02*
X16455974Y-17080573D01*
X16455974Y-17080573D02*
X16503593Y-17080573D01*
X16503593Y-17080573D02*
X16522640Y-17071050D01*
X16589307Y-17023430D02*
X16665498Y-17023430D01*
X16617879Y-16956764D02*
X16617879Y-17128192D01*
X16617879Y-17128192D02*
X16627402Y-17147240D01*
X16627402Y-17147240D02*
X16646450Y-17156764D01*
X16646450Y-17156764D02*
X16665498Y-17156764D01*
X16808355Y-17147240D02*
X16789307Y-17156764D01*
X16789307Y-17156764D02*
X16751212Y-17156764D01*
X16751212Y-17156764D02*
X16732164Y-17147240D01*
X16732164Y-17147240D02*
X16722640Y-17128192D01*
X16722640Y-17128192D02*
X16722640Y-17052002D01*
X16722640Y-17052002D02*
X16732164Y-17032954D01*
X16732164Y-17032954D02*
X16751212Y-17023430D01*
X16751212Y-17023430D02*
X16789307Y-17023430D01*
X16789307Y-17023430D02*
X16808355Y-17032954D01*
X16808355Y-17032954D02*
X16817879Y-17052002D01*
X16817879Y-17052002D02*
X16817879Y-17071050D01*
X16817879Y-17071050D02*
X16722640Y-17090097D01*
X16989307Y-17156764D02*
X16989307Y-16956764D01*
X16989307Y-17147240D02*
X16970260Y-17156764D01*
X16970260Y-17156764D02*
X16932164Y-17156764D01*
X16932164Y-17156764D02*
X16913117Y-17147240D01*
X16913117Y-17147240D02*
X16903593Y-17137716D01*
X16903593Y-17137716D02*
X16894069Y-17118669D01*
X16894069Y-17118669D02*
X16894069Y-17061526D01*
X16894069Y-17061526D02*
X16903593Y-17042478D01*
X16903593Y-17042478D02*
X16913117Y-17032954D01*
X16913117Y-17032954D02*
X16932164Y-17023430D01*
X16932164Y-17023430D02*
X16970260Y-17023430D01*
X16970260Y-17023430D02*
X16989307Y-17032954D01*
X17065498Y-17232954D02*
X17075022Y-17223430D01*
X17075022Y-17223430D02*
X17094069Y-17194859D01*
X17094069Y-17194859D02*
X17103593Y-17175811D01*
X17103593Y-17175811D02*
X17113117Y-17147240D01*
X17113117Y-17147240D02*
X17122641Y-17099621D01*
X17122641Y-17099621D02*
X17122641Y-17061526D01*
X17122641Y-17061526D02*
X17113117Y-17013907D01*
X17113117Y-17013907D02*
X17103593Y-16985335D01*
X17103593Y-16985335D02*
X17094069Y-16966288D01*
X17094069Y-16966288D02*
X17075022Y-16937716D01*
X17075022Y-16937716D02*
X17065498Y-16928192D01*
M02*
