%TF.GenerationSoftware,KiCad,Pcbnew,7.0.1*%
%TF.CreationDate,2024-03-20T11:01:38+03:00*%
%TF.ProjectId,delta_flop_arduino,64656c74-615f-4666-9c6f-705f61726475,rev?*%
%TF.SameCoordinates,Original*%
%TF.FileFunction,Legend,Top*%
%TF.FilePolarity,Positive*%
%FSLAX46Y46*%
G04 Gerber Fmt 4.6, Leading zero omitted, Abs format (unit mm)*
G04 Created by KiCad (PCBNEW 7.0.1) date 2024-03-20 11:01:38*
%MOMM*%
%LPD*%
G01*
G04 APERTURE LIST*
%ADD10C,0.300000*%
%ADD11C,0.150000*%
%ADD12C,0.250000*%
%ADD13C,0.120000*%
%ADD14C,0.254000*%
G04 APERTURE END LIST*
D10*
X130965357Y-141785714D02*
X130965357Y-141071429D01*
X131393928Y-141928571D02*
X129893928Y-141428571D01*
X129893928Y-141428571D02*
X131393928Y-140928571D01*
X131393928Y-140428572D02*
X130393928Y-140428572D01*
X130679642Y-140428572D02*
X130536785Y-140357143D01*
X130536785Y-140357143D02*
X130465357Y-140285715D01*
X130465357Y-140285715D02*
X130393928Y-140142857D01*
X130393928Y-140142857D02*
X130393928Y-140000000D01*
X131393928Y-138857144D02*
X129893928Y-138857144D01*
X131322500Y-138857144D02*
X131393928Y-139000001D01*
X131393928Y-139000001D02*
X131393928Y-139285715D01*
X131393928Y-139285715D02*
X131322500Y-139428572D01*
X131322500Y-139428572D02*
X131251071Y-139500001D01*
X131251071Y-139500001D02*
X131108214Y-139571429D01*
X131108214Y-139571429D02*
X130679642Y-139571429D01*
X130679642Y-139571429D02*
X130536785Y-139500001D01*
X130536785Y-139500001D02*
X130465357Y-139428572D01*
X130465357Y-139428572D02*
X130393928Y-139285715D01*
X130393928Y-139285715D02*
X130393928Y-139000001D01*
X130393928Y-139000001D02*
X130465357Y-138857144D01*
X130393928Y-137500001D02*
X131393928Y-137500001D01*
X130393928Y-138142858D02*
X131179642Y-138142858D01*
X131179642Y-138142858D02*
X131322500Y-138071429D01*
X131322500Y-138071429D02*
X131393928Y-137928572D01*
X131393928Y-137928572D02*
X131393928Y-137714286D01*
X131393928Y-137714286D02*
X131322500Y-137571429D01*
X131322500Y-137571429D02*
X131251071Y-137500001D01*
X131393928Y-136785715D02*
X130393928Y-136785715D01*
X129893928Y-136785715D02*
X129965357Y-136857143D01*
X129965357Y-136857143D02*
X130036785Y-136785715D01*
X130036785Y-136785715D02*
X129965357Y-136714286D01*
X129965357Y-136714286D02*
X129893928Y-136785715D01*
X129893928Y-136785715D02*
X130036785Y-136785715D01*
X130393928Y-136071429D02*
X131393928Y-136071429D01*
X130536785Y-136071429D02*
X130465357Y-136000000D01*
X130465357Y-136000000D02*
X130393928Y-135857143D01*
X130393928Y-135857143D02*
X130393928Y-135642857D01*
X130393928Y-135642857D02*
X130465357Y-135500000D01*
X130465357Y-135500000D02*
X130608214Y-135428572D01*
X130608214Y-135428572D02*
X131393928Y-135428572D01*
X131393928Y-134500000D02*
X131322500Y-134642857D01*
X131322500Y-134642857D02*
X131251071Y-134714286D01*
X131251071Y-134714286D02*
X131108214Y-134785714D01*
X131108214Y-134785714D02*
X130679642Y-134785714D01*
X130679642Y-134785714D02*
X130536785Y-134714286D01*
X130536785Y-134714286D02*
X130465357Y-134642857D01*
X130465357Y-134642857D02*
X130393928Y-134500000D01*
X130393928Y-134500000D02*
X130393928Y-134285714D01*
X130393928Y-134285714D02*
X130465357Y-134142857D01*
X130465357Y-134142857D02*
X130536785Y-134071429D01*
X130536785Y-134071429D02*
X130679642Y-134000000D01*
X130679642Y-134000000D02*
X131108214Y-134000000D01*
X131108214Y-134000000D02*
X131251071Y-134071429D01*
X131251071Y-134071429D02*
X131322500Y-134142857D01*
X131322500Y-134142857D02*
X131393928Y-134285714D01*
X131393928Y-134285714D02*
X131393928Y-134500000D01*
X131393928Y-132214286D02*
X129893928Y-132214286D01*
X129893928Y-132214286D02*
X131393928Y-131357143D01*
X131393928Y-131357143D02*
X129893928Y-131357143D01*
X131393928Y-130000000D02*
X130608214Y-130000000D01*
X130608214Y-130000000D02*
X130465357Y-130071428D01*
X130465357Y-130071428D02*
X130393928Y-130214285D01*
X130393928Y-130214285D02*
X130393928Y-130500000D01*
X130393928Y-130500000D02*
X130465357Y-130642857D01*
X131322500Y-130000000D02*
X131393928Y-130142857D01*
X131393928Y-130142857D02*
X131393928Y-130500000D01*
X131393928Y-130500000D02*
X131322500Y-130642857D01*
X131322500Y-130642857D02*
X131179642Y-130714285D01*
X131179642Y-130714285D02*
X131036785Y-130714285D01*
X131036785Y-130714285D02*
X130893928Y-130642857D01*
X130893928Y-130642857D02*
X130822500Y-130500000D01*
X130822500Y-130500000D02*
X130822500Y-130142857D01*
X130822500Y-130142857D02*
X130751071Y-130000000D01*
X130393928Y-129285714D02*
X131393928Y-129285714D01*
X130536785Y-129285714D02*
X130465357Y-129214285D01*
X130465357Y-129214285D02*
X130393928Y-129071428D01*
X130393928Y-129071428D02*
X130393928Y-128857142D01*
X130393928Y-128857142D02*
X130465357Y-128714285D01*
X130465357Y-128714285D02*
X130608214Y-128642857D01*
X130608214Y-128642857D02*
X131393928Y-128642857D01*
X131393928Y-127714285D02*
X131322500Y-127857142D01*
X131322500Y-127857142D02*
X131251071Y-127928571D01*
X131251071Y-127928571D02*
X131108214Y-127999999D01*
X131108214Y-127999999D02*
X130679642Y-127999999D01*
X130679642Y-127999999D02*
X130536785Y-127928571D01*
X130536785Y-127928571D02*
X130465357Y-127857142D01*
X130465357Y-127857142D02*
X130393928Y-127714285D01*
X130393928Y-127714285D02*
X130393928Y-127499999D01*
X130393928Y-127499999D02*
X130465357Y-127357142D01*
X130465357Y-127357142D02*
X130536785Y-127285714D01*
X130536785Y-127285714D02*
X130679642Y-127214285D01*
X130679642Y-127214285D02*
X131108214Y-127214285D01*
X131108214Y-127214285D02*
X131251071Y-127285714D01*
X131251071Y-127285714D02*
X131322500Y-127357142D01*
X131322500Y-127357142D02*
X131393928Y-127499999D01*
X131393928Y-127499999D02*
X131393928Y-127714285D01*
X141571428Y-105686428D02*
X141571428Y-104186428D01*
X141571428Y-104186428D02*
X141928571Y-104186428D01*
X141928571Y-104186428D02*
X142142857Y-104257857D01*
X142142857Y-104257857D02*
X142285714Y-104400714D01*
X142285714Y-104400714D02*
X142357143Y-104543571D01*
X142357143Y-104543571D02*
X142428571Y-104829285D01*
X142428571Y-104829285D02*
X142428571Y-105043571D01*
X142428571Y-105043571D02*
X142357143Y-105329285D01*
X142357143Y-105329285D02*
X142285714Y-105472142D01*
X142285714Y-105472142D02*
X142142857Y-105615000D01*
X142142857Y-105615000D02*
X141928571Y-105686428D01*
X141928571Y-105686428D02*
X141571428Y-105686428D01*
X143071428Y-105686428D02*
X143071428Y-104686428D01*
X143071428Y-104972142D02*
X143142857Y-104829285D01*
X143142857Y-104829285D02*
X143214286Y-104757857D01*
X143214286Y-104757857D02*
X143357143Y-104686428D01*
X143357143Y-104686428D02*
X143500000Y-104686428D01*
X143999999Y-105686428D02*
X143999999Y-104686428D01*
X143999999Y-104186428D02*
X143928571Y-104257857D01*
X143928571Y-104257857D02*
X143999999Y-104329285D01*
X143999999Y-104329285D02*
X144071428Y-104257857D01*
X144071428Y-104257857D02*
X143999999Y-104186428D01*
X143999999Y-104186428D02*
X143999999Y-104329285D01*
X144571428Y-104686428D02*
X144928571Y-105686428D01*
X144928571Y-105686428D02*
X145285714Y-104686428D01*
X146428571Y-105615000D02*
X146285714Y-105686428D01*
X146285714Y-105686428D02*
X146000000Y-105686428D01*
X146000000Y-105686428D02*
X145857142Y-105615000D01*
X145857142Y-105615000D02*
X145785714Y-105472142D01*
X145785714Y-105472142D02*
X145785714Y-104900714D01*
X145785714Y-104900714D02*
X145857142Y-104757857D01*
X145857142Y-104757857D02*
X146000000Y-104686428D01*
X146000000Y-104686428D02*
X146285714Y-104686428D01*
X146285714Y-104686428D02*
X146428571Y-104757857D01*
X146428571Y-104757857D02*
X146500000Y-104900714D01*
X146500000Y-104900714D02*
X146500000Y-105043571D01*
X146500000Y-105043571D02*
X145785714Y-105186428D01*
X144107142Y-107330714D02*
X144321428Y-107402142D01*
X144321428Y-107402142D02*
X144392857Y-107473571D01*
X144392857Y-107473571D02*
X144464285Y-107616428D01*
X144464285Y-107616428D02*
X144464285Y-107830714D01*
X144464285Y-107830714D02*
X144392857Y-107973571D01*
X144392857Y-107973571D02*
X144321428Y-108045000D01*
X144321428Y-108045000D02*
X144178571Y-108116428D01*
X144178571Y-108116428D02*
X143607142Y-108116428D01*
X143607142Y-108116428D02*
X143607142Y-106616428D01*
X143607142Y-106616428D02*
X144107142Y-106616428D01*
X144107142Y-106616428D02*
X144250000Y-106687857D01*
X144250000Y-106687857D02*
X144321428Y-106759285D01*
X144321428Y-106759285D02*
X144392857Y-106902142D01*
X144392857Y-106902142D02*
X144392857Y-107045000D01*
X144392857Y-107045000D02*
X144321428Y-107187857D01*
X144321428Y-107187857D02*
X144250000Y-107259285D01*
X144250000Y-107259285D02*
X144107142Y-107330714D01*
X144107142Y-107330714D02*
X143607142Y-107330714D01*
X189217314Y-154075742D02*
X189217314Y-154575742D01*
X190003028Y-154575742D02*
X188503028Y-154575742D01*
X188503028Y-154575742D02*
X188503028Y-153861456D01*
X190003028Y-153075742D02*
X189931600Y-153218599D01*
X189931600Y-153218599D02*
X189788742Y-153290028D01*
X189788742Y-153290028D02*
X188503028Y-153290028D01*
X190003028Y-152290028D02*
X189931600Y-152432885D01*
X189931600Y-152432885D02*
X189860171Y-152504314D01*
X189860171Y-152504314D02*
X189717314Y-152575742D01*
X189717314Y-152575742D02*
X189288742Y-152575742D01*
X189288742Y-152575742D02*
X189145885Y-152504314D01*
X189145885Y-152504314D02*
X189074457Y-152432885D01*
X189074457Y-152432885D02*
X189003028Y-152290028D01*
X189003028Y-152290028D02*
X189003028Y-152075742D01*
X189003028Y-152075742D02*
X189074457Y-151932885D01*
X189074457Y-151932885D02*
X189145885Y-151861457D01*
X189145885Y-151861457D02*
X189288742Y-151790028D01*
X189288742Y-151790028D02*
X189717314Y-151790028D01*
X189717314Y-151790028D02*
X189860171Y-151861457D01*
X189860171Y-151861457D02*
X189931600Y-151932885D01*
X189931600Y-151932885D02*
X190003028Y-152075742D01*
X190003028Y-152075742D02*
X190003028Y-152290028D01*
X189003028Y-151147171D02*
X190503028Y-151147171D01*
X189074457Y-151147171D02*
X189003028Y-151004314D01*
X189003028Y-151004314D02*
X189003028Y-150718599D01*
X189003028Y-150718599D02*
X189074457Y-150575742D01*
X189074457Y-150575742D02*
X189145885Y-150504314D01*
X189145885Y-150504314D02*
X189288742Y-150432885D01*
X189288742Y-150432885D02*
X189717314Y-150432885D01*
X189717314Y-150432885D02*
X189860171Y-150504314D01*
X189860171Y-150504314D02*
X189931600Y-150575742D01*
X189931600Y-150575742D02*
X190003028Y-150718599D01*
X190003028Y-150718599D02*
X190003028Y-151004314D01*
X190003028Y-151004314D02*
X189931600Y-151147171D01*
X189003028Y-149790028D02*
X190503028Y-149790028D01*
X189074457Y-149790028D02*
X189003028Y-149647171D01*
X189003028Y-149647171D02*
X189003028Y-149361456D01*
X189003028Y-149361456D02*
X189074457Y-149218599D01*
X189074457Y-149218599D02*
X189145885Y-149147171D01*
X189145885Y-149147171D02*
X189288742Y-149075742D01*
X189288742Y-149075742D02*
X189717314Y-149075742D01*
X189717314Y-149075742D02*
X189860171Y-149147171D01*
X189860171Y-149147171D02*
X189931600Y-149218599D01*
X189931600Y-149218599D02*
X190003028Y-149361456D01*
X190003028Y-149361456D02*
X190003028Y-149647171D01*
X190003028Y-149647171D02*
X189931600Y-149790028D01*
X189003028Y-148575742D02*
X190003028Y-148218599D01*
X189003028Y-147861456D02*
X190003028Y-148218599D01*
X190003028Y-148218599D02*
X190360171Y-148361456D01*
X190360171Y-148361456D02*
X190431600Y-148432885D01*
X190431600Y-148432885D02*
X190503028Y-148575742D01*
X190003028Y-145504314D02*
X188503028Y-145504314D01*
X189931600Y-145504314D02*
X190003028Y-145647171D01*
X190003028Y-145647171D02*
X190003028Y-145932885D01*
X190003028Y-145932885D02*
X189931600Y-146075742D01*
X189931600Y-146075742D02*
X189860171Y-146147171D01*
X189860171Y-146147171D02*
X189717314Y-146218599D01*
X189717314Y-146218599D02*
X189288742Y-146218599D01*
X189288742Y-146218599D02*
X189145885Y-146147171D01*
X189145885Y-146147171D02*
X189074457Y-146075742D01*
X189074457Y-146075742D02*
X189003028Y-145932885D01*
X189003028Y-145932885D02*
X189003028Y-145647171D01*
X189003028Y-145647171D02*
X189074457Y-145504314D01*
X190003028Y-144790028D02*
X189003028Y-144790028D01*
X189288742Y-144790028D02*
X189145885Y-144718599D01*
X189145885Y-144718599D02*
X189074457Y-144647171D01*
X189074457Y-144647171D02*
X189003028Y-144504313D01*
X189003028Y-144504313D02*
X189003028Y-144361456D01*
X190003028Y-143861457D02*
X189003028Y-143861457D01*
X188503028Y-143861457D02*
X188574457Y-143932885D01*
X188574457Y-143932885D02*
X188645885Y-143861457D01*
X188645885Y-143861457D02*
X188574457Y-143790028D01*
X188574457Y-143790028D02*
X188503028Y-143861457D01*
X188503028Y-143861457D02*
X188645885Y-143861457D01*
X189003028Y-143290028D02*
X190003028Y-142932885D01*
X190003028Y-142932885D02*
X189003028Y-142575742D01*
X189931600Y-141432885D02*
X190003028Y-141575742D01*
X190003028Y-141575742D02*
X190003028Y-141861457D01*
X190003028Y-141861457D02*
X189931600Y-142004314D01*
X189931600Y-142004314D02*
X189788742Y-142075742D01*
X189788742Y-142075742D02*
X189217314Y-142075742D01*
X189217314Y-142075742D02*
X189074457Y-142004314D01*
X189074457Y-142004314D02*
X189003028Y-141861457D01*
X189003028Y-141861457D02*
X189003028Y-141575742D01*
X189003028Y-141575742D02*
X189074457Y-141432885D01*
X189074457Y-141432885D02*
X189217314Y-141361457D01*
X189217314Y-141361457D02*
X189360171Y-141361457D01*
X189360171Y-141361457D02*
X189503028Y-142075742D01*
X189931600Y-139004314D02*
X190003028Y-139147171D01*
X190003028Y-139147171D02*
X190003028Y-139432886D01*
X190003028Y-139432886D02*
X189931600Y-139575743D01*
X189931600Y-139575743D02*
X189788742Y-139647171D01*
X189788742Y-139647171D02*
X189217314Y-139647171D01*
X189217314Y-139647171D02*
X189074457Y-139575743D01*
X189074457Y-139575743D02*
X189003028Y-139432886D01*
X189003028Y-139432886D02*
X189003028Y-139147171D01*
X189003028Y-139147171D02*
X189074457Y-139004314D01*
X189074457Y-139004314D02*
X189217314Y-138932886D01*
X189217314Y-138932886D02*
X189360171Y-138932886D01*
X189360171Y-138932886D02*
X189503028Y-139647171D01*
X190003028Y-138290029D02*
X189003028Y-138290029D01*
X189145885Y-138290029D02*
X189074457Y-138218600D01*
X189074457Y-138218600D02*
X189003028Y-138075743D01*
X189003028Y-138075743D02*
X189003028Y-137861457D01*
X189003028Y-137861457D02*
X189074457Y-137718600D01*
X189074457Y-137718600D02*
X189217314Y-137647172D01*
X189217314Y-137647172D02*
X190003028Y-137647172D01*
X189217314Y-137647172D02*
X189074457Y-137575743D01*
X189074457Y-137575743D02*
X189003028Y-137432886D01*
X189003028Y-137432886D02*
X189003028Y-137218600D01*
X189003028Y-137218600D02*
X189074457Y-137075743D01*
X189074457Y-137075743D02*
X189217314Y-137004314D01*
X189217314Y-137004314D02*
X190003028Y-137004314D01*
X189003028Y-135647172D02*
X190003028Y-135647172D01*
X189003028Y-136290029D02*
X189788742Y-136290029D01*
X189788742Y-136290029D02*
X189931600Y-136218600D01*
X189931600Y-136218600D02*
X190003028Y-136075743D01*
X190003028Y-136075743D02*
X190003028Y-135861457D01*
X190003028Y-135861457D02*
X189931600Y-135718600D01*
X189931600Y-135718600D02*
X189860171Y-135647172D01*
X190003028Y-134718600D02*
X189931600Y-134861457D01*
X189931600Y-134861457D02*
X189788742Y-134932886D01*
X189788742Y-134932886D02*
X188503028Y-134932886D01*
X190003028Y-133504315D02*
X189217314Y-133504315D01*
X189217314Y-133504315D02*
X189074457Y-133575743D01*
X189074457Y-133575743D02*
X189003028Y-133718600D01*
X189003028Y-133718600D02*
X189003028Y-134004315D01*
X189003028Y-134004315D02*
X189074457Y-134147172D01*
X189931600Y-133504315D02*
X190003028Y-133647172D01*
X190003028Y-133647172D02*
X190003028Y-134004315D01*
X190003028Y-134004315D02*
X189931600Y-134147172D01*
X189931600Y-134147172D02*
X189788742Y-134218600D01*
X189788742Y-134218600D02*
X189645885Y-134218600D01*
X189645885Y-134218600D02*
X189503028Y-134147172D01*
X189503028Y-134147172D02*
X189431600Y-134004315D01*
X189431600Y-134004315D02*
X189431600Y-133647172D01*
X189431600Y-133647172D02*
X189360171Y-133504315D01*
X189003028Y-133004314D02*
X189003028Y-132432886D01*
X188503028Y-132790029D02*
X189788742Y-132790029D01*
X189788742Y-132790029D02*
X189931600Y-132718600D01*
X189931600Y-132718600D02*
X190003028Y-132575743D01*
X190003028Y-132575743D02*
X190003028Y-132432886D01*
X190003028Y-131718600D02*
X189931600Y-131861457D01*
X189931600Y-131861457D02*
X189860171Y-131932886D01*
X189860171Y-131932886D02*
X189717314Y-132004314D01*
X189717314Y-132004314D02*
X189288742Y-132004314D01*
X189288742Y-132004314D02*
X189145885Y-131932886D01*
X189145885Y-131932886D02*
X189074457Y-131861457D01*
X189074457Y-131861457D02*
X189003028Y-131718600D01*
X189003028Y-131718600D02*
X189003028Y-131504314D01*
X189003028Y-131504314D02*
X189074457Y-131361457D01*
X189074457Y-131361457D02*
X189145885Y-131290029D01*
X189145885Y-131290029D02*
X189288742Y-131218600D01*
X189288742Y-131218600D02*
X189717314Y-131218600D01*
X189717314Y-131218600D02*
X189860171Y-131290029D01*
X189860171Y-131290029D02*
X189931600Y-131361457D01*
X189931600Y-131361457D02*
X190003028Y-131504314D01*
X190003028Y-131504314D02*
X190003028Y-131718600D01*
X190003028Y-130575743D02*
X189003028Y-130575743D01*
X189288742Y-130575743D02*
X189145885Y-130504314D01*
X189145885Y-130504314D02*
X189074457Y-130432886D01*
X189074457Y-130432886D02*
X189003028Y-130290028D01*
X189003028Y-130290028D02*
X189003028Y-130147171D01*
X192433028Y-159861457D02*
X190933028Y-159861457D01*
X190933028Y-159861457D02*
X190933028Y-159290028D01*
X190933028Y-159290028D02*
X191004457Y-159147171D01*
X191004457Y-159147171D02*
X191075885Y-159075742D01*
X191075885Y-159075742D02*
X191218742Y-159004314D01*
X191218742Y-159004314D02*
X191433028Y-159004314D01*
X191433028Y-159004314D02*
X191575885Y-159075742D01*
X191575885Y-159075742D02*
X191647314Y-159147171D01*
X191647314Y-159147171D02*
X191718742Y-159290028D01*
X191718742Y-159290028D02*
X191718742Y-159861457D01*
X192290171Y-157504314D02*
X192361600Y-157575742D01*
X192361600Y-157575742D02*
X192433028Y-157790028D01*
X192433028Y-157790028D02*
X192433028Y-157932885D01*
X192433028Y-157932885D02*
X192361600Y-158147171D01*
X192361600Y-158147171D02*
X192218742Y-158290028D01*
X192218742Y-158290028D02*
X192075885Y-158361457D01*
X192075885Y-158361457D02*
X191790171Y-158432885D01*
X191790171Y-158432885D02*
X191575885Y-158432885D01*
X191575885Y-158432885D02*
X191290171Y-158361457D01*
X191290171Y-158361457D02*
X191147314Y-158290028D01*
X191147314Y-158290028D02*
X191004457Y-158147171D01*
X191004457Y-158147171D02*
X190933028Y-157932885D01*
X190933028Y-157932885D02*
X190933028Y-157790028D01*
X190933028Y-157790028D02*
X191004457Y-157575742D01*
X191004457Y-157575742D02*
X191075885Y-157504314D01*
X191647314Y-156361457D02*
X191718742Y-156147171D01*
X191718742Y-156147171D02*
X191790171Y-156075742D01*
X191790171Y-156075742D02*
X191933028Y-156004314D01*
X191933028Y-156004314D02*
X192147314Y-156004314D01*
X192147314Y-156004314D02*
X192290171Y-156075742D01*
X192290171Y-156075742D02*
X192361600Y-156147171D01*
X192361600Y-156147171D02*
X192433028Y-156290028D01*
X192433028Y-156290028D02*
X192433028Y-156861457D01*
X192433028Y-156861457D02*
X190933028Y-156861457D01*
X190933028Y-156861457D02*
X190933028Y-156361457D01*
X190933028Y-156361457D02*
X191004457Y-156218600D01*
X191004457Y-156218600D02*
X191075885Y-156147171D01*
X191075885Y-156147171D02*
X191218742Y-156075742D01*
X191218742Y-156075742D02*
X191361600Y-156075742D01*
X191361600Y-156075742D02*
X191504457Y-156147171D01*
X191504457Y-156147171D02*
X191575885Y-156218600D01*
X191575885Y-156218600D02*
X191647314Y-156361457D01*
X191647314Y-156361457D02*
X191647314Y-156861457D01*
X192433028Y-154218600D02*
X190933028Y-154218600D01*
X190933028Y-154218600D02*
X190933028Y-153861457D01*
X190933028Y-153861457D02*
X191004457Y-153647171D01*
X191004457Y-153647171D02*
X191147314Y-153504314D01*
X191147314Y-153504314D02*
X191290171Y-153432885D01*
X191290171Y-153432885D02*
X191575885Y-153361457D01*
X191575885Y-153361457D02*
X191790171Y-153361457D01*
X191790171Y-153361457D02*
X192075885Y-153432885D01*
X192075885Y-153432885D02*
X192218742Y-153504314D01*
X192218742Y-153504314D02*
X192361600Y-153647171D01*
X192361600Y-153647171D02*
X192433028Y-153861457D01*
X192433028Y-153861457D02*
X192433028Y-154218600D01*
X192361600Y-152147171D02*
X192433028Y-152290028D01*
X192433028Y-152290028D02*
X192433028Y-152575743D01*
X192433028Y-152575743D02*
X192361600Y-152718600D01*
X192361600Y-152718600D02*
X192218742Y-152790028D01*
X192218742Y-152790028D02*
X191647314Y-152790028D01*
X191647314Y-152790028D02*
X191504457Y-152718600D01*
X191504457Y-152718600D02*
X191433028Y-152575743D01*
X191433028Y-152575743D02*
X191433028Y-152290028D01*
X191433028Y-152290028D02*
X191504457Y-152147171D01*
X191504457Y-152147171D02*
X191647314Y-152075743D01*
X191647314Y-152075743D02*
X191790171Y-152075743D01*
X191790171Y-152075743D02*
X191933028Y-152790028D01*
X192361600Y-151504314D02*
X192433028Y-151361457D01*
X192433028Y-151361457D02*
X192433028Y-151075743D01*
X192433028Y-151075743D02*
X192361600Y-150932886D01*
X192361600Y-150932886D02*
X192218742Y-150861457D01*
X192218742Y-150861457D02*
X192147314Y-150861457D01*
X192147314Y-150861457D02*
X192004457Y-150932886D01*
X192004457Y-150932886D02*
X191933028Y-151075743D01*
X191933028Y-151075743D02*
X191933028Y-151290029D01*
X191933028Y-151290029D02*
X191861600Y-151432886D01*
X191861600Y-151432886D02*
X191718742Y-151504314D01*
X191718742Y-151504314D02*
X191647314Y-151504314D01*
X191647314Y-151504314D02*
X191504457Y-151432886D01*
X191504457Y-151432886D02*
X191433028Y-151290029D01*
X191433028Y-151290029D02*
X191433028Y-151075743D01*
X191433028Y-151075743D02*
X191504457Y-150932886D01*
X192433028Y-150218600D02*
X191433028Y-150218600D01*
X190933028Y-150218600D02*
X191004457Y-150290028D01*
X191004457Y-150290028D02*
X191075885Y-150218600D01*
X191075885Y-150218600D02*
X191004457Y-150147171D01*
X191004457Y-150147171D02*
X190933028Y-150218600D01*
X190933028Y-150218600D02*
X191075885Y-150218600D01*
X191433028Y-148861457D02*
X192647314Y-148861457D01*
X192647314Y-148861457D02*
X192790171Y-148932885D01*
X192790171Y-148932885D02*
X192861600Y-149004314D01*
X192861600Y-149004314D02*
X192933028Y-149147171D01*
X192933028Y-149147171D02*
X192933028Y-149361457D01*
X192933028Y-149361457D02*
X192861600Y-149504314D01*
X192361600Y-148861457D02*
X192433028Y-149004314D01*
X192433028Y-149004314D02*
X192433028Y-149290028D01*
X192433028Y-149290028D02*
X192361600Y-149432885D01*
X192361600Y-149432885D02*
X192290171Y-149504314D01*
X192290171Y-149504314D02*
X192147314Y-149575742D01*
X192147314Y-149575742D02*
X191718742Y-149575742D01*
X191718742Y-149575742D02*
X191575885Y-149504314D01*
X191575885Y-149504314D02*
X191504457Y-149432885D01*
X191504457Y-149432885D02*
X191433028Y-149290028D01*
X191433028Y-149290028D02*
X191433028Y-149004314D01*
X191433028Y-149004314D02*
X191504457Y-148861457D01*
X191433028Y-148147171D02*
X192433028Y-148147171D01*
X191575885Y-148147171D02*
X191504457Y-148075742D01*
X191504457Y-148075742D02*
X191433028Y-147932885D01*
X191433028Y-147932885D02*
X191433028Y-147718599D01*
X191433028Y-147718599D02*
X191504457Y-147575742D01*
X191504457Y-147575742D02*
X191647314Y-147504314D01*
X191647314Y-147504314D02*
X192433028Y-147504314D01*
X192433028Y-145647171D02*
X190933028Y-145647171D01*
X191504457Y-145647171D02*
X191433028Y-145504314D01*
X191433028Y-145504314D02*
X191433028Y-145218599D01*
X191433028Y-145218599D02*
X191504457Y-145075742D01*
X191504457Y-145075742D02*
X191575885Y-145004314D01*
X191575885Y-145004314D02*
X191718742Y-144932885D01*
X191718742Y-144932885D02*
X192147314Y-144932885D01*
X192147314Y-144932885D02*
X192290171Y-145004314D01*
X192290171Y-145004314D02*
X192361600Y-145075742D01*
X192361600Y-145075742D02*
X192433028Y-145218599D01*
X192433028Y-145218599D02*
X192433028Y-145504314D01*
X192433028Y-145504314D02*
X192361600Y-145647171D01*
X191433028Y-144432885D02*
X192433028Y-144075742D01*
X191433028Y-143718599D02*
X192433028Y-144075742D01*
X192433028Y-144075742D02*
X192790171Y-144218599D01*
X192790171Y-144218599D02*
X192861600Y-144290028D01*
X192861600Y-144290028D02*
X192933028Y-144432885D01*
X192433028Y-142004314D02*
X190933028Y-142004314D01*
X190933028Y-142004314D02*
X192004457Y-141504314D01*
X192004457Y-141504314D02*
X190933028Y-141004314D01*
X190933028Y-141004314D02*
X192433028Y-141004314D01*
X192433028Y-139647171D02*
X191647314Y-139647171D01*
X191647314Y-139647171D02*
X191504457Y-139718599D01*
X191504457Y-139718599D02*
X191433028Y-139861456D01*
X191433028Y-139861456D02*
X191433028Y-140147171D01*
X191433028Y-140147171D02*
X191504457Y-140290028D01*
X192361600Y-139647171D02*
X192433028Y-139790028D01*
X192433028Y-139790028D02*
X192433028Y-140147171D01*
X192433028Y-140147171D02*
X192361600Y-140290028D01*
X192361600Y-140290028D02*
X192218742Y-140361456D01*
X192218742Y-140361456D02*
X192075885Y-140361456D01*
X192075885Y-140361456D02*
X191933028Y-140290028D01*
X191933028Y-140290028D02*
X191861600Y-140147171D01*
X191861600Y-140147171D02*
X191861600Y-139790028D01*
X191861600Y-139790028D02*
X191790171Y-139647171D01*
X192433028Y-138290028D02*
X190933028Y-138290028D01*
X192361600Y-138290028D02*
X192433028Y-138432885D01*
X192433028Y-138432885D02*
X192433028Y-138718599D01*
X192433028Y-138718599D02*
X192361600Y-138861456D01*
X192361600Y-138861456D02*
X192290171Y-138932885D01*
X192290171Y-138932885D02*
X192147314Y-139004313D01*
X192147314Y-139004313D02*
X191718742Y-139004313D01*
X191718742Y-139004313D02*
X191575885Y-138932885D01*
X191575885Y-138932885D02*
X191504457Y-138861456D01*
X191504457Y-138861456D02*
X191433028Y-138718599D01*
X191433028Y-138718599D02*
X191433028Y-138432885D01*
X191433028Y-138432885D02*
X191504457Y-138290028D01*
X192290171Y-136718599D02*
X192361600Y-136790027D01*
X192361600Y-136790027D02*
X192433028Y-137004313D01*
X192433028Y-137004313D02*
X192433028Y-137147170D01*
X192433028Y-137147170D02*
X192361600Y-137361456D01*
X192361600Y-137361456D02*
X192218742Y-137504313D01*
X192218742Y-137504313D02*
X192075885Y-137575742D01*
X192075885Y-137575742D02*
X191790171Y-137647170D01*
X191790171Y-137647170D02*
X191575885Y-137647170D01*
X191575885Y-137647170D02*
X191290171Y-137575742D01*
X191290171Y-137575742D02*
X191147314Y-137504313D01*
X191147314Y-137504313D02*
X191004457Y-137361456D01*
X191004457Y-137361456D02*
X190933028Y-137147170D01*
X190933028Y-137147170D02*
X190933028Y-137004313D01*
X190933028Y-137004313D02*
X191004457Y-136790027D01*
X191004457Y-136790027D02*
X191075885Y-136718599D01*
X192433028Y-135432885D02*
X191647314Y-135432885D01*
X191647314Y-135432885D02*
X191504457Y-135504313D01*
X191504457Y-135504313D02*
X191433028Y-135647170D01*
X191433028Y-135647170D02*
X191433028Y-135932885D01*
X191433028Y-135932885D02*
X191504457Y-136075742D01*
X192361600Y-135432885D02*
X192433028Y-135575742D01*
X192433028Y-135575742D02*
X192433028Y-135932885D01*
X192433028Y-135932885D02*
X192361600Y-136075742D01*
X192361600Y-136075742D02*
X192218742Y-136147170D01*
X192218742Y-136147170D02*
X192075885Y-136147170D01*
X192075885Y-136147170D02*
X191933028Y-136075742D01*
X191933028Y-136075742D02*
X191861600Y-135932885D01*
X191861600Y-135932885D02*
X191861600Y-135575742D01*
X191861600Y-135575742D02*
X191790171Y-135432885D01*
X191433028Y-134932884D02*
X191433028Y-134361456D01*
X190933028Y-134718599D02*
X192218742Y-134718599D01*
X192218742Y-134718599D02*
X192361600Y-134647170D01*
X192361600Y-134647170D02*
X192433028Y-134504313D01*
X192433028Y-134504313D02*
X192433028Y-134361456D01*
X192361600Y-133790027D02*
X192433028Y-133790027D01*
X192433028Y-133790027D02*
X192575885Y-133861456D01*
X192575885Y-133861456D02*
X192647314Y-133932884D01*
X191433028Y-132147170D02*
X192433028Y-131790027D01*
X192433028Y-131790027D02*
X191433028Y-131432884D01*
X192361600Y-130290027D02*
X192433028Y-130432884D01*
X192433028Y-130432884D02*
X192433028Y-130718599D01*
X192433028Y-130718599D02*
X192361600Y-130861456D01*
X192361600Y-130861456D02*
X192218742Y-130932884D01*
X192218742Y-130932884D02*
X191647314Y-130932884D01*
X191647314Y-130932884D02*
X191504457Y-130861456D01*
X191504457Y-130861456D02*
X191433028Y-130718599D01*
X191433028Y-130718599D02*
X191433028Y-130432884D01*
X191433028Y-130432884D02*
X191504457Y-130290027D01*
X191504457Y-130290027D02*
X191647314Y-130218599D01*
X191647314Y-130218599D02*
X191790171Y-130218599D01*
X191790171Y-130218599D02*
X191933028Y-130932884D01*
X192433028Y-129575742D02*
X191433028Y-129575742D01*
X191718742Y-129575742D02*
X191575885Y-129504313D01*
X191575885Y-129504313D02*
X191504457Y-129432885D01*
X191504457Y-129432885D02*
X191433028Y-129290027D01*
X191433028Y-129290027D02*
X191433028Y-129147170D01*
X192290171Y-128647171D02*
X192361600Y-128575742D01*
X192361600Y-128575742D02*
X192433028Y-128647171D01*
X192433028Y-128647171D02*
X192361600Y-128718599D01*
X192361600Y-128718599D02*
X192290171Y-128647171D01*
X192290171Y-128647171D02*
X192433028Y-128647171D01*
X192433028Y-127147170D02*
X192433028Y-128004313D01*
X192433028Y-127575742D02*
X190933028Y-127575742D01*
X190933028Y-127575742D02*
X191147314Y-127718599D01*
X191147314Y-127718599D02*
X191290171Y-127861456D01*
X191290171Y-127861456D02*
X191361600Y-128004313D01*
X192290171Y-126504314D02*
X192361600Y-126432885D01*
X192361600Y-126432885D02*
X192433028Y-126504314D01*
X192433028Y-126504314D02*
X192361600Y-126575742D01*
X192361600Y-126575742D02*
X192290171Y-126504314D01*
X192290171Y-126504314D02*
X192433028Y-126504314D01*
X190933028Y-125504313D02*
X190933028Y-125361456D01*
X190933028Y-125361456D02*
X191004457Y-125218599D01*
X191004457Y-125218599D02*
X191075885Y-125147171D01*
X191075885Y-125147171D02*
X191218742Y-125075742D01*
X191218742Y-125075742D02*
X191504457Y-125004313D01*
X191504457Y-125004313D02*
X191861600Y-125004313D01*
X191861600Y-125004313D02*
X192147314Y-125075742D01*
X192147314Y-125075742D02*
X192290171Y-125147171D01*
X192290171Y-125147171D02*
X192361600Y-125218599D01*
X192361600Y-125218599D02*
X192433028Y-125361456D01*
X192433028Y-125361456D02*
X192433028Y-125504313D01*
X192433028Y-125504313D02*
X192361600Y-125647171D01*
X192361600Y-125647171D02*
X192290171Y-125718599D01*
X192290171Y-125718599D02*
X192147314Y-125790028D01*
X192147314Y-125790028D02*
X191861600Y-125861456D01*
X191861600Y-125861456D02*
X191504457Y-125861456D01*
X191504457Y-125861456D02*
X191218742Y-125790028D01*
X191218742Y-125790028D02*
X191075885Y-125718599D01*
X191075885Y-125718599D02*
X191004457Y-125647171D01*
X191004457Y-125647171D02*
X190933028Y-125504313D01*
X193505885Y-145040027D02*
X193434457Y-144968599D01*
X193434457Y-144968599D02*
X193363028Y-144825742D01*
X193363028Y-144825742D02*
X193363028Y-144468599D01*
X193363028Y-144468599D02*
X193434457Y-144325742D01*
X193434457Y-144325742D02*
X193505885Y-144254313D01*
X193505885Y-144254313D02*
X193648742Y-144182884D01*
X193648742Y-144182884D02*
X193791600Y-144182884D01*
X193791600Y-144182884D02*
X194005885Y-144254313D01*
X194005885Y-144254313D02*
X194863028Y-145111456D01*
X194863028Y-145111456D02*
X194863028Y-144182884D01*
X193363028Y-143254313D02*
X193363028Y-143111456D01*
X193363028Y-143111456D02*
X193434457Y-142968599D01*
X193434457Y-142968599D02*
X193505885Y-142897171D01*
X193505885Y-142897171D02*
X193648742Y-142825742D01*
X193648742Y-142825742D02*
X193934457Y-142754313D01*
X193934457Y-142754313D02*
X194291600Y-142754313D01*
X194291600Y-142754313D02*
X194577314Y-142825742D01*
X194577314Y-142825742D02*
X194720171Y-142897171D01*
X194720171Y-142897171D02*
X194791600Y-142968599D01*
X194791600Y-142968599D02*
X194863028Y-143111456D01*
X194863028Y-143111456D02*
X194863028Y-143254313D01*
X194863028Y-143254313D02*
X194791600Y-143397171D01*
X194791600Y-143397171D02*
X194720171Y-143468599D01*
X194720171Y-143468599D02*
X194577314Y-143540028D01*
X194577314Y-143540028D02*
X194291600Y-143611456D01*
X194291600Y-143611456D02*
X193934457Y-143611456D01*
X193934457Y-143611456D02*
X193648742Y-143540028D01*
X193648742Y-143540028D02*
X193505885Y-143468599D01*
X193505885Y-143468599D02*
X193434457Y-143397171D01*
X193434457Y-143397171D02*
X193363028Y-143254313D01*
X193505885Y-142182885D02*
X193434457Y-142111457D01*
X193434457Y-142111457D02*
X193363028Y-141968600D01*
X193363028Y-141968600D02*
X193363028Y-141611457D01*
X193363028Y-141611457D02*
X193434457Y-141468600D01*
X193434457Y-141468600D02*
X193505885Y-141397171D01*
X193505885Y-141397171D02*
X193648742Y-141325742D01*
X193648742Y-141325742D02*
X193791600Y-141325742D01*
X193791600Y-141325742D02*
X194005885Y-141397171D01*
X194005885Y-141397171D02*
X194863028Y-142254314D01*
X194863028Y-142254314D02*
X194863028Y-141325742D01*
X193863028Y-140040029D02*
X194863028Y-140040029D01*
X193291600Y-140397171D02*
X194363028Y-140754314D01*
X194363028Y-140754314D02*
X194363028Y-139825743D01*
X123871428Y-105786428D02*
X123871428Y-104286428D01*
X123871428Y-104286428D02*
X124228571Y-104286428D01*
X124228571Y-104286428D02*
X124442857Y-104357857D01*
X124442857Y-104357857D02*
X124585714Y-104500714D01*
X124585714Y-104500714D02*
X124657143Y-104643571D01*
X124657143Y-104643571D02*
X124728571Y-104929285D01*
X124728571Y-104929285D02*
X124728571Y-105143571D01*
X124728571Y-105143571D02*
X124657143Y-105429285D01*
X124657143Y-105429285D02*
X124585714Y-105572142D01*
X124585714Y-105572142D02*
X124442857Y-105715000D01*
X124442857Y-105715000D02*
X124228571Y-105786428D01*
X124228571Y-105786428D02*
X123871428Y-105786428D01*
X125371428Y-105786428D02*
X125371428Y-104786428D01*
X125371428Y-105072142D02*
X125442857Y-104929285D01*
X125442857Y-104929285D02*
X125514286Y-104857857D01*
X125514286Y-104857857D02*
X125657143Y-104786428D01*
X125657143Y-104786428D02*
X125800000Y-104786428D01*
X126299999Y-105786428D02*
X126299999Y-104786428D01*
X126299999Y-104286428D02*
X126228571Y-104357857D01*
X126228571Y-104357857D02*
X126299999Y-104429285D01*
X126299999Y-104429285D02*
X126371428Y-104357857D01*
X126371428Y-104357857D02*
X126299999Y-104286428D01*
X126299999Y-104286428D02*
X126299999Y-104429285D01*
X126871428Y-104786428D02*
X127228571Y-105786428D01*
X127228571Y-105786428D02*
X127585714Y-104786428D01*
X128728571Y-105715000D02*
X128585714Y-105786428D01*
X128585714Y-105786428D02*
X128300000Y-105786428D01*
X128300000Y-105786428D02*
X128157142Y-105715000D01*
X128157142Y-105715000D02*
X128085714Y-105572142D01*
X128085714Y-105572142D02*
X128085714Y-105000714D01*
X128085714Y-105000714D02*
X128157142Y-104857857D01*
X128157142Y-104857857D02*
X128300000Y-104786428D01*
X128300000Y-104786428D02*
X128585714Y-104786428D01*
X128585714Y-104786428D02*
X128728571Y-104857857D01*
X128728571Y-104857857D02*
X128800000Y-105000714D01*
X128800000Y-105000714D02*
X128800000Y-105143571D01*
X128800000Y-105143571D02*
X128085714Y-105286428D01*
X125942857Y-107787857D02*
X126657143Y-107787857D01*
X125800000Y-108216428D02*
X126300000Y-106716428D01*
X126300000Y-106716428D02*
X126800000Y-108216428D01*
D11*
%TO.C,J3*%
X212199166Y-159087619D02*
X212199166Y-159801904D01*
X212199166Y-159801904D02*
X212151547Y-159944761D01*
X212151547Y-159944761D02*
X212056309Y-160040000D01*
X212056309Y-160040000D02*
X211913452Y-160087619D01*
X211913452Y-160087619D02*
X211818214Y-160087619D01*
X212580119Y-159087619D02*
X213199166Y-159087619D01*
X213199166Y-159087619D02*
X212865833Y-159468571D01*
X212865833Y-159468571D02*
X213008690Y-159468571D01*
X213008690Y-159468571D02*
X213103928Y-159516190D01*
X213103928Y-159516190D02*
X213151547Y-159563809D01*
X213151547Y-159563809D02*
X213199166Y-159659047D01*
X213199166Y-159659047D02*
X213199166Y-159897142D01*
X213199166Y-159897142D02*
X213151547Y-159992380D01*
X213151547Y-159992380D02*
X213103928Y-160040000D01*
X213103928Y-160040000D02*
X213008690Y-160087619D01*
X213008690Y-160087619D02*
X212722976Y-160087619D01*
X212722976Y-160087619D02*
X212627738Y-160040000D01*
X212627738Y-160040000D02*
X212580119Y-159992380D01*
X207190238Y-156802619D02*
X207523571Y-157802619D01*
X207523571Y-157802619D02*
X207856904Y-156802619D01*
X208761666Y-157707380D02*
X208714047Y-157755000D01*
X208714047Y-157755000D02*
X208571190Y-157802619D01*
X208571190Y-157802619D02*
X208475952Y-157802619D01*
X208475952Y-157802619D02*
X208333095Y-157755000D01*
X208333095Y-157755000D02*
X208237857Y-157659761D01*
X208237857Y-157659761D02*
X208190238Y-157564523D01*
X208190238Y-157564523D02*
X208142619Y-157374047D01*
X208142619Y-157374047D02*
X208142619Y-157231190D01*
X208142619Y-157231190D02*
X208190238Y-157040714D01*
X208190238Y-157040714D02*
X208237857Y-156945476D01*
X208237857Y-156945476D02*
X208333095Y-156850238D01*
X208333095Y-156850238D02*
X208475952Y-156802619D01*
X208475952Y-156802619D02*
X208571190Y-156802619D01*
X208571190Y-156802619D02*
X208714047Y-156850238D01*
X208714047Y-156850238D02*
X208761666Y-156897857D01*
X209761666Y-157707380D02*
X209714047Y-157755000D01*
X209714047Y-157755000D02*
X209571190Y-157802619D01*
X209571190Y-157802619D02*
X209475952Y-157802619D01*
X209475952Y-157802619D02*
X209333095Y-157755000D01*
X209333095Y-157755000D02*
X209237857Y-157659761D01*
X209237857Y-157659761D02*
X209190238Y-157564523D01*
X209190238Y-157564523D02*
X209142619Y-157374047D01*
X209142619Y-157374047D02*
X209142619Y-157231190D01*
X209142619Y-157231190D02*
X209190238Y-157040714D01*
X209190238Y-157040714D02*
X209237857Y-156945476D01*
X209237857Y-156945476D02*
X209333095Y-156850238D01*
X209333095Y-156850238D02*
X209475952Y-156802619D01*
X209475952Y-156802619D02*
X209571190Y-156802619D01*
X209571190Y-156802619D02*
X209714047Y-156850238D01*
X209714047Y-156850238D02*
X209761666Y-156897857D01*
X215285477Y-156850238D02*
X215190239Y-156802619D01*
X215190239Y-156802619D02*
X215047382Y-156802619D01*
X215047382Y-156802619D02*
X214904525Y-156850238D01*
X214904525Y-156850238D02*
X214809287Y-156945476D01*
X214809287Y-156945476D02*
X214761668Y-157040714D01*
X214761668Y-157040714D02*
X214714049Y-157231190D01*
X214714049Y-157231190D02*
X214714049Y-157374047D01*
X214714049Y-157374047D02*
X214761668Y-157564523D01*
X214761668Y-157564523D02*
X214809287Y-157659761D01*
X214809287Y-157659761D02*
X214904525Y-157755000D01*
X214904525Y-157755000D02*
X215047382Y-157802619D01*
X215047382Y-157802619D02*
X215142620Y-157802619D01*
X215142620Y-157802619D02*
X215285477Y-157755000D01*
X215285477Y-157755000D02*
X215333096Y-157707380D01*
X215333096Y-157707380D02*
X215333096Y-157374047D01*
X215333096Y-157374047D02*
X215142620Y-157374047D01*
X215761668Y-157802619D02*
X215761668Y-156802619D01*
X215761668Y-156802619D02*
X216333096Y-157802619D01*
X216333096Y-157802619D02*
X216333096Y-156802619D01*
X216809287Y-157802619D02*
X216809287Y-156802619D01*
X216809287Y-156802619D02*
X217047382Y-156802619D01*
X217047382Y-156802619D02*
X217190239Y-156850238D01*
X217190239Y-156850238D02*
X217285477Y-156945476D01*
X217285477Y-156945476D02*
X217333096Y-157040714D01*
X217333096Y-157040714D02*
X217380715Y-157231190D01*
X217380715Y-157231190D02*
X217380715Y-157374047D01*
X217380715Y-157374047D02*
X217333096Y-157564523D01*
X217333096Y-157564523D02*
X217285477Y-157659761D01*
X217285477Y-157659761D02*
X217190239Y-157755000D01*
X217190239Y-157755000D02*
X217047382Y-157802619D01*
X217047382Y-157802619D02*
X216809287Y-157802619D01*
%TO.C,R6*%
X153503333Y-147096819D02*
X153170000Y-146620628D01*
X152931905Y-147096819D02*
X152931905Y-146096819D01*
X152931905Y-146096819D02*
X153312857Y-146096819D01*
X153312857Y-146096819D02*
X153408095Y-146144438D01*
X153408095Y-146144438D02*
X153455714Y-146192057D01*
X153455714Y-146192057D02*
X153503333Y-146287295D01*
X153503333Y-146287295D02*
X153503333Y-146430152D01*
X153503333Y-146430152D02*
X153455714Y-146525390D01*
X153455714Y-146525390D02*
X153408095Y-146573009D01*
X153408095Y-146573009D02*
X153312857Y-146620628D01*
X153312857Y-146620628D02*
X152931905Y-146620628D01*
X154360476Y-146096819D02*
X154170000Y-146096819D01*
X154170000Y-146096819D02*
X154074762Y-146144438D01*
X154074762Y-146144438D02*
X154027143Y-146192057D01*
X154027143Y-146192057D02*
X153931905Y-146334914D01*
X153931905Y-146334914D02*
X153884286Y-146525390D01*
X153884286Y-146525390D02*
X153884286Y-146906342D01*
X153884286Y-146906342D02*
X153931905Y-147001580D01*
X153931905Y-147001580D02*
X153979524Y-147049200D01*
X153979524Y-147049200D02*
X154074762Y-147096819D01*
X154074762Y-147096819D02*
X154265238Y-147096819D01*
X154265238Y-147096819D02*
X154360476Y-147049200D01*
X154360476Y-147049200D02*
X154408095Y-147001580D01*
X154408095Y-147001580D02*
X154455714Y-146906342D01*
X154455714Y-146906342D02*
X154455714Y-146668247D01*
X154455714Y-146668247D02*
X154408095Y-146573009D01*
X154408095Y-146573009D02*
X154360476Y-146525390D01*
X154360476Y-146525390D02*
X154265238Y-146477771D01*
X154265238Y-146477771D02*
X154074762Y-146477771D01*
X154074762Y-146477771D02*
X153979524Y-146525390D01*
X153979524Y-146525390D02*
X153931905Y-146573009D01*
X153931905Y-146573009D02*
X153884286Y-146668247D01*
X144720381Y-145957019D02*
X145339428Y-145957019D01*
X145339428Y-145957019D02*
X145006095Y-146337971D01*
X145006095Y-146337971D02*
X145148952Y-146337971D01*
X145148952Y-146337971D02*
X145244190Y-146385590D01*
X145244190Y-146385590D02*
X145291809Y-146433209D01*
X145291809Y-146433209D02*
X145339428Y-146528447D01*
X145339428Y-146528447D02*
X145339428Y-146766542D01*
X145339428Y-146766542D02*
X145291809Y-146861780D01*
X145291809Y-146861780D02*
X145244190Y-146909400D01*
X145244190Y-146909400D02*
X145148952Y-146957019D01*
X145148952Y-146957019D02*
X144863238Y-146957019D01*
X144863238Y-146957019D02*
X144768000Y-146909400D01*
X144768000Y-146909400D02*
X144720381Y-146861780D01*
X145768000Y-146861780D02*
X145815619Y-146909400D01*
X145815619Y-146909400D02*
X145768000Y-146957019D01*
X145768000Y-146957019D02*
X145720381Y-146909400D01*
X145720381Y-146909400D02*
X145768000Y-146861780D01*
X145768000Y-146861780D02*
X145768000Y-146957019D01*
X146148952Y-145957019D02*
X146767999Y-145957019D01*
X146767999Y-145957019D02*
X146434666Y-146337971D01*
X146434666Y-146337971D02*
X146577523Y-146337971D01*
X146577523Y-146337971D02*
X146672761Y-146385590D01*
X146672761Y-146385590D02*
X146720380Y-146433209D01*
X146720380Y-146433209D02*
X146767999Y-146528447D01*
X146767999Y-146528447D02*
X146767999Y-146766542D01*
X146767999Y-146766542D02*
X146720380Y-146861780D01*
X146720380Y-146861780D02*
X146672761Y-146909400D01*
X146672761Y-146909400D02*
X146577523Y-146957019D01*
X146577523Y-146957019D02*
X146291809Y-146957019D01*
X146291809Y-146957019D02*
X146196571Y-146909400D01*
X146196571Y-146909400D02*
X146148952Y-146861780D01*
X147196571Y-146957019D02*
X147196571Y-145957019D01*
X147767999Y-146957019D02*
X147339428Y-146385590D01*
X147767999Y-145957019D02*
X147196571Y-146528447D01*
%TO.C,H1*%
X105014495Y-100011819D02*
X105014495Y-99011819D01*
X105014495Y-99488009D02*
X105585923Y-99488009D01*
X105585923Y-100011819D02*
X105585923Y-99011819D01*
X106585923Y-100011819D02*
X106014495Y-100011819D01*
X106300209Y-100011819D02*
X106300209Y-99011819D01*
X106300209Y-99011819D02*
X106204971Y-99154676D01*
X106204971Y-99154676D02*
X106109733Y-99249914D01*
X106109733Y-99249914D02*
X106014495Y-99297533D01*
%TO.C,H4*%
X198414095Y-154905019D02*
X198414095Y-153905019D01*
X198414095Y-154381209D02*
X198985523Y-154381209D01*
X198985523Y-154905019D02*
X198985523Y-153905019D01*
X199890285Y-154238352D02*
X199890285Y-154905019D01*
X199652190Y-153857400D02*
X199414095Y-154571685D01*
X199414095Y-154571685D02*
X200033142Y-154571685D01*
%TO.C,J1*%
X196059466Y-105245019D02*
X196059466Y-105959304D01*
X196059466Y-105959304D02*
X196011847Y-106102161D01*
X196011847Y-106102161D02*
X195916609Y-106197400D01*
X195916609Y-106197400D02*
X195773752Y-106245019D01*
X195773752Y-106245019D02*
X195678514Y-106245019D01*
X197059466Y-106245019D02*
X196488038Y-106245019D01*
X196773752Y-106245019D02*
X196773752Y-105245019D01*
X196773752Y-105245019D02*
X196678514Y-105387876D01*
X196678514Y-105387876D02*
X196583276Y-105483114D01*
X196583276Y-105483114D02*
X196488038Y-105530733D01*
%TO.C,R1*%
X153630333Y-157510819D02*
X153297000Y-157034628D01*
X153058905Y-157510819D02*
X153058905Y-156510819D01*
X153058905Y-156510819D02*
X153439857Y-156510819D01*
X153439857Y-156510819D02*
X153535095Y-156558438D01*
X153535095Y-156558438D02*
X153582714Y-156606057D01*
X153582714Y-156606057D02*
X153630333Y-156701295D01*
X153630333Y-156701295D02*
X153630333Y-156844152D01*
X153630333Y-156844152D02*
X153582714Y-156939390D01*
X153582714Y-156939390D02*
X153535095Y-156987009D01*
X153535095Y-156987009D02*
X153439857Y-157034628D01*
X153439857Y-157034628D02*
X153058905Y-157034628D01*
X154582714Y-157510819D02*
X154011286Y-157510819D01*
X154297000Y-157510819D02*
X154297000Y-156510819D01*
X154297000Y-156510819D02*
X154201762Y-156653676D01*
X154201762Y-156653676D02*
X154106524Y-156748914D01*
X154106524Y-156748914D02*
X154011286Y-156796533D01*
X145075200Y-156521857D02*
X145122819Y-156474238D01*
X145122819Y-156474238D02*
X145218057Y-156426619D01*
X145218057Y-156426619D02*
X145456152Y-156426619D01*
X145456152Y-156426619D02*
X145551390Y-156474238D01*
X145551390Y-156474238D02*
X145599009Y-156521857D01*
X145599009Y-156521857D02*
X145646628Y-156617095D01*
X145646628Y-156617095D02*
X145646628Y-156712333D01*
X145646628Y-156712333D02*
X145599009Y-156855190D01*
X145599009Y-156855190D02*
X145027581Y-157426619D01*
X145027581Y-157426619D02*
X145646628Y-157426619D01*
X146075200Y-157331380D02*
X146122819Y-157379000D01*
X146122819Y-157379000D02*
X146075200Y-157426619D01*
X146075200Y-157426619D02*
X146027581Y-157379000D01*
X146027581Y-157379000D02*
X146075200Y-157331380D01*
X146075200Y-157331380D02*
X146075200Y-157426619D01*
X146503771Y-156521857D02*
X146551390Y-156474238D01*
X146551390Y-156474238D02*
X146646628Y-156426619D01*
X146646628Y-156426619D02*
X146884723Y-156426619D01*
X146884723Y-156426619D02*
X146979961Y-156474238D01*
X146979961Y-156474238D02*
X147027580Y-156521857D01*
X147027580Y-156521857D02*
X147075199Y-156617095D01*
X147075199Y-156617095D02*
X147075199Y-156712333D01*
X147075199Y-156712333D02*
X147027580Y-156855190D01*
X147027580Y-156855190D02*
X146456152Y-157426619D01*
X146456152Y-157426619D02*
X147075199Y-157426619D01*
X147503771Y-157426619D02*
X147503771Y-156426619D01*
X148075199Y-157426619D02*
X147646628Y-156855190D01*
X148075199Y-156426619D02*
X147503771Y-156998047D01*
%TO.C,R3*%
X153554133Y-153878619D02*
X153220800Y-153402428D01*
X152982705Y-153878619D02*
X152982705Y-152878619D01*
X152982705Y-152878619D02*
X153363657Y-152878619D01*
X153363657Y-152878619D02*
X153458895Y-152926238D01*
X153458895Y-152926238D02*
X153506514Y-152973857D01*
X153506514Y-152973857D02*
X153554133Y-153069095D01*
X153554133Y-153069095D02*
X153554133Y-153211952D01*
X153554133Y-153211952D02*
X153506514Y-153307190D01*
X153506514Y-153307190D02*
X153458895Y-153354809D01*
X153458895Y-153354809D02*
X153363657Y-153402428D01*
X153363657Y-153402428D02*
X152982705Y-153402428D01*
X153887467Y-152878619D02*
X154506514Y-152878619D01*
X154506514Y-152878619D02*
X154173181Y-153259571D01*
X154173181Y-153259571D02*
X154316038Y-153259571D01*
X154316038Y-153259571D02*
X154411276Y-153307190D01*
X154411276Y-153307190D02*
X154458895Y-153354809D01*
X154458895Y-153354809D02*
X154506514Y-153450047D01*
X154506514Y-153450047D02*
X154506514Y-153688142D01*
X154506514Y-153688142D02*
X154458895Y-153783380D01*
X154458895Y-153783380D02*
X154411276Y-153831000D01*
X154411276Y-153831000D02*
X154316038Y-153878619D01*
X154316038Y-153878619D02*
X154030324Y-153878619D01*
X154030324Y-153878619D02*
X153935086Y-153831000D01*
X153935086Y-153831000D02*
X153887467Y-153783380D01*
X144920400Y-153105457D02*
X144968019Y-153057838D01*
X144968019Y-153057838D02*
X145063257Y-153010219D01*
X145063257Y-153010219D02*
X145301352Y-153010219D01*
X145301352Y-153010219D02*
X145396590Y-153057838D01*
X145396590Y-153057838D02*
X145444209Y-153105457D01*
X145444209Y-153105457D02*
X145491828Y-153200695D01*
X145491828Y-153200695D02*
X145491828Y-153295933D01*
X145491828Y-153295933D02*
X145444209Y-153438790D01*
X145444209Y-153438790D02*
X144872781Y-154010219D01*
X144872781Y-154010219D02*
X145491828Y-154010219D01*
X145920400Y-153914980D02*
X145968019Y-153962600D01*
X145968019Y-153962600D02*
X145920400Y-154010219D01*
X145920400Y-154010219D02*
X145872781Y-153962600D01*
X145872781Y-153962600D02*
X145920400Y-153914980D01*
X145920400Y-153914980D02*
X145920400Y-154010219D01*
X146348971Y-153105457D02*
X146396590Y-153057838D01*
X146396590Y-153057838D02*
X146491828Y-153010219D01*
X146491828Y-153010219D02*
X146729923Y-153010219D01*
X146729923Y-153010219D02*
X146825161Y-153057838D01*
X146825161Y-153057838D02*
X146872780Y-153105457D01*
X146872780Y-153105457D02*
X146920399Y-153200695D01*
X146920399Y-153200695D02*
X146920399Y-153295933D01*
X146920399Y-153295933D02*
X146872780Y-153438790D01*
X146872780Y-153438790D02*
X146301352Y-154010219D01*
X146301352Y-154010219D02*
X146920399Y-154010219D01*
X147348971Y-154010219D02*
X147348971Y-153010219D01*
X147920399Y-154010219D02*
X147491828Y-153438790D01*
X147920399Y-153010219D02*
X147348971Y-153581647D01*
%TO.C,R7*%
X146188133Y-134295219D02*
X145854800Y-133819028D01*
X145616705Y-134295219D02*
X145616705Y-133295219D01*
X145616705Y-133295219D02*
X145997657Y-133295219D01*
X145997657Y-133295219D02*
X146092895Y-133342838D01*
X146092895Y-133342838D02*
X146140514Y-133390457D01*
X146140514Y-133390457D02*
X146188133Y-133485695D01*
X146188133Y-133485695D02*
X146188133Y-133628552D01*
X146188133Y-133628552D02*
X146140514Y-133723790D01*
X146140514Y-133723790D02*
X146092895Y-133771409D01*
X146092895Y-133771409D02*
X145997657Y-133819028D01*
X145997657Y-133819028D02*
X145616705Y-133819028D01*
X146521467Y-133295219D02*
X147188133Y-133295219D01*
X147188133Y-133295219D02*
X146759562Y-134295219D01*
X145235181Y-135515019D02*
X145854228Y-135515019D01*
X145854228Y-135515019D02*
X145520895Y-135895971D01*
X145520895Y-135895971D02*
X145663752Y-135895971D01*
X145663752Y-135895971D02*
X145758990Y-135943590D01*
X145758990Y-135943590D02*
X145806609Y-135991209D01*
X145806609Y-135991209D02*
X145854228Y-136086447D01*
X145854228Y-136086447D02*
X145854228Y-136324542D01*
X145854228Y-136324542D02*
X145806609Y-136419780D01*
X145806609Y-136419780D02*
X145758990Y-136467400D01*
X145758990Y-136467400D02*
X145663752Y-136515019D01*
X145663752Y-136515019D02*
X145378038Y-136515019D01*
X145378038Y-136515019D02*
X145282800Y-136467400D01*
X145282800Y-136467400D02*
X145235181Y-136419780D01*
X146282800Y-136419780D02*
X146330419Y-136467400D01*
X146330419Y-136467400D02*
X146282800Y-136515019D01*
X146282800Y-136515019D02*
X146235181Y-136467400D01*
X146235181Y-136467400D02*
X146282800Y-136419780D01*
X146282800Y-136419780D02*
X146282800Y-136515019D01*
X146663752Y-135515019D02*
X147282799Y-135515019D01*
X147282799Y-135515019D02*
X146949466Y-135895971D01*
X146949466Y-135895971D02*
X147092323Y-135895971D01*
X147092323Y-135895971D02*
X147187561Y-135943590D01*
X147187561Y-135943590D02*
X147235180Y-135991209D01*
X147235180Y-135991209D02*
X147282799Y-136086447D01*
X147282799Y-136086447D02*
X147282799Y-136324542D01*
X147282799Y-136324542D02*
X147235180Y-136419780D01*
X147235180Y-136419780D02*
X147187561Y-136467400D01*
X147187561Y-136467400D02*
X147092323Y-136515019D01*
X147092323Y-136515019D02*
X146806609Y-136515019D01*
X146806609Y-136515019D02*
X146711371Y-136467400D01*
X146711371Y-136467400D02*
X146663752Y-136419780D01*
X147711371Y-136515019D02*
X147711371Y-135515019D01*
X148282799Y-136515019D02*
X147854228Y-135943590D01*
X148282799Y-135515019D02*
X147711371Y-136086447D01*
%TO.C,H2*%
X198414095Y-100011819D02*
X198414095Y-99011819D01*
X198414095Y-99488009D02*
X198985523Y-99488009D01*
X198985523Y-100011819D02*
X198985523Y-99011819D01*
X199414095Y-99107057D02*
X199461714Y-99059438D01*
X199461714Y-99059438D02*
X199556952Y-99011819D01*
X199556952Y-99011819D02*
X199795047Y-99011819D01*
X199795047Y-99011819D02*
X199890285Y-99059438D01*
X199890285Y-99059438D02*
X199937904Y-99107057D01*
X199937904Y-99107057D02*
X199985523Y-99202295D01*
X199985523Y-99202295D02*
X199985523Y-99297533D01*
X199985523Y-99297533D02*
X199937904Y-99440390D01*
X199937904Y-99440390D02*
X199366476Y-100011819D01*
X199366476Y-100011819D02*
X199985523Y-100011819D01*
%TO.C,R4*%
X153554133Y-150119419D02*
X153220800Y-149643228D01*
X152982705Y-150119419D02*
X152982705Y-149119419D01*
X152982705Y-149119419D02*
X153363657Y-149119419D01*
X153363657Y-149119419D02*
X153458895Y-149167038D01*
X153458895Y-149167038D02*
X153506514Y-149214657D01*
X153506514Y-149214657D02*
X153554133Y-149309895D01*
X153554133Y-149309895D02*
X153554133Y-149452752D01*
X153554133Y-149452752D02*
X153506514Y-149547990D01*
X153506514Y-149547990D02*
X153458895Y-149595609D01*
X153458895Y-149595609D02*
X153363657Y-149643228D01*
X153363657Y-149643228D02*
X152982705Y-149643228D01*
X154411276Y-149452752D02*
X154411276Y-150119419D01*
X154173181Y-149071800D02*
X153935086Y-149786085D01*
X153935086Y-149786085D02*
X154554133Y-149786085D01*
X144771181Y-149365019D02*
X145390228Y-149365019D01*
X145390228Y-149365019D02*
X145056895Y-149745971D01*
X145056895Y-149745971D02*
X145199752Y-149745971D01*
X145199752Y-149745971D02*
X145294990Y-149793590D01*
X145294990Y-149793590D02*
X145342609Y-149841209D01*
X145342609Y-149841209D02*
X145390228Y-149936447D01*
X145390228Y-149936447D02*
X145390228Y-150174542D01*
X145390228Y-150174542D02*
X145342609Y-150269780D01*
X145342609Y-150269780D02*
X145294990Y-150317400D01*
X145294990Y-150317400D02*
X145199752Y-150365019D01*
X145199752Y-150365019D02*
X144914038Y-150365019D01*
X144914038Y-150365019D02*
X144818800Y-150317400D01*
X144818800Y-150317400D02*
X144771181Y-150269780D01*
X145818800Y-150269780D02*
X145866419Y-150317400D01*
X145866419Y-150317400D02*
X145818800Y-150365019D01*
X145818800Y-150365019D02*
X145771181Y-150317400D01*
X145771181Y-150317400D02*
X145818800Y-150269780D01*
X145818800Y-150269780D02*
X145818800Y-150365019D01*
X146199752Y-149365019D02*
X146818799Y-149365019D01*
X146818799Y-149365019D02*
X146485466Y-149745971D01*
X146485466Y-149745971D02*
X146628323Y-149745971D01*
X146628323Y-149745971D02*
X146723561Y-149793590D01*
X146723561Y-149793590D02*
X146771180Y-149841209D01*
X146771180Y-149841209D02*
X146818799Y-149936447D01*
X146818799Y-149936447D02*
X146818799Y-150174542D01*
X146818799Y-150174542D02*
X146771180Y-150269780D01*
X146771180Y-150269780D02*
X146723561Y-150317400D01*
X146723561Y-150317400D02*
X146628323Y-150365019D01*
X146628323Y-150365019D02*
X146342609Y-150365019D01*
X146342609Y-150365019D02*
X146247371Y-150317400D01*
X146247371Y-150317400D02*
X146199752Y-150269780D01*
X147247371Y-150365019D02*
X147247371Y-149365019D01*
X147818799Y-150365019D02*
X147390228Y-149793590D01*
X147818799Y-149365019D02*
X147247371Y-149936447D01*
%TO.C,H3*%
X105014495Y-154905019D02*
X105014495Y-153905019D01*
X105014495Y-154381209D02*
X105585923Y-154381209D01*
X105585923Y-154905019D02*
X105585923Y-153905019D01*
X105966876Y-153905019D02*
X106585923Y-153905019D01*
X106585923Y-153905019D02*
X106252590Y-154285971D01*
X106252590Y-154285971D02*
X106395447Y-154285971D01*
X106395447Y-154285971D02*
X106490685Y-154333590D01*
X106490685Y-154333590D02*
X106538304Y-154381209D01*
X106538304Y-154381209D02*
X106585923Y-154476447D01*
X106585923Y-154476447D02*
X106585923Y-154714542D01*
X106585923Y-154714542D02*
X106538304Y-154809780D01*
X106538304Y-154809780D02*
X106490685Y-154857400D01*
X106490685Y-154857400D02*
X106395447Y-154905019D01*
X106395447Y-154905019D02*
X106109733Y-154905019D01*
X106109733Y-154905019D02*
X106014495Y-154857400D01*
X106014495Y-154857400D02*
X105966876Y-154809780D01*
D12*
%TO.C,J2*%
X183265238Y-131920952D02*
X184693809Y-131920952D01*
X184693809Y-131920952D02*
X184979523Y-132016191D01*
X184979523Y-132016191D02*
X185170000Y-132206667D01*
X185170000Y-132206667D02*
X185265238Y-132492381D01*
X185265238Y-132492381D02*
X185265238Y-132682857D01*
X183455714Y-131063809D02*
X183360476Y-130968571D01*
X183360476Y-130968571D02*
X183265238Y-130778095D01*
X183265238Y-130778095D02*
X183265238Y-130301904D01*
X183265238Y-130301904D02*
X183360476Y-130111428D01*
X183360476Y-130111428D02*
X183455714Y-130016190D01*
X183455714Y-130016190D02*
X183646190Y-129920952D01*
X183646190Y-129920952D02*
X183836666Y-129920952D01*
X183836666Y-129920952D02*
X184122380Y-130016190D01*
X184122380Y-130016190D02*
X185265238Y-131159047D01*
X185265238Y-131159047D02*
X185265238Y-129920952D01*
D11*
%TO.C,U1*%
X129818095Y-112222619D02*
X129818095Y-113032142D01*
X129818095Y-113032142D02*
X129865714Y-113127380D01*
X129865714Y-113127380D02*
X129913333Y-113175000D01*
X129913333Y-113175000D02*
X130008571Y-113222619D01*
X130008571Y-113222619D02*
X130199047Y-113222619D01*
X130199047Y-113222619D02*
X130294285Y-113175000D01*
X130294285Y-113175000D02*
X130341904Y-113127380D01*
X130341904Y-113127380D02*
X130389523Y-113032142D01*
X130389523Y-113032142D02*
X130389523Y-112222619D01*
X131389523Y-113222619D02*
X130818095Y-113222619D01*
X131103809Y-113222619D02*
X131103809Y-112222619D01*
X131103809Y-112222619D02*
X131008571Y-112365476D01*
X131008571Y-112365476D02*
X130913333Y-112460714D01*
X130913333Y-112460714D02*
X130818095Y-112508333D01*
%TO.C,R5*%
X153528733Y-139883219D02*
X153195400Y-139407028D01*
X152957305Y-139883219D02*
X152957305Y-138883219D01*
X152957305Y-138883219D02*
X153338257Y-138883219D01*
X153338257Y-138883219D02*
X153433495Y-138930838D01*
X153433495Y-138930838D02*
X153481114Y-138978457D01*
X153481114Y-138978457D02*
X153528733Y-139073695D01*
X153528733Y-139073695D02*
X153528733Y-139216552D01*
X153528733Y-139216552D02*
X153481114Y-139311790D01*
X153481114Y-139311790D02*
X153433495Y-139359409D01*
X153433495Y-139359409D02*
X153338257Y-139407028D01*
X153338257Y-139407028D02*
X152957305Y-139407028D01*
X154433495Y-138883219D02*
X153957305Y-138883219D01*
X153957305Y-138883219D02*
X153909686Y-139359409D01*
X153909686Y-139359409D02*
X153957305Y-139311790D01*
X153957305Y-139311790D02*
X154052543Y-139264171D01*
X154052543Y-139264171D02*
X154290638Y-139264171D01*
X154290638Y-139264171D02*
X154385876Y-139311790D01*
X154385876Y-139311790D02*
X154433495Y-139359409D01*
X154433495Y-139359409D02*
X154481114Y-139454647D01*
X154481114Y-139454647D02*
X154481114Y-139692742D01*
X154481114Y-139692742D02*
X154433495Y-139787980D01*
X154433495Y-139787980D02*
X154385876Y-139835600D01*
X154385876Y-139835600D02*
X154290638Y-139883219D01*
X154290638Y-139883219D02*
X154052543Y-139883219D01*
X154052543Y-139883219D02*
X153957305Y-139835600D01*
X153957305Y-139835600D02*
X153909686Y-139787980D01*
X145744723Y-139810619D02*
X145173295Y-139810619D01*
X145459009Y-139810619D02*
X145459009Y-138810619D01*
X145459009Y-138810619D02*
X145363771Y-138953476D01*
X145363771Y-138953476D02*
X145268533Y-139048714D01*
X145268533Y-139048714D02*
X145173295Y-139096333D01*
X146363771Y-138810619D02*
X146459009Y-138810619D01*
X146459009Y-138810619D02*
X146554247Y-138858238D01*
X146554247Y-138858238D02*
X146601866Y-138905857D01*
X146601866Y-138905857D02*
X146649485Y-139001095D01*
X146649485Y-139001095D02*
X146697104Y-139191571D01*
X146697104Y-139191571D02*
X146697104Y-139429666D01*
X146697104Y-139429666D02*
X146649485Y-139620142D01*
X146649485Y-139620142D02*
X146601866Y-139715380D01*
X146601866Y-139715380D02*
X146554247Y-139763000D01*
X146554247Y-139763000D02*
X146459009Y-139810619D01*
X146459009Y-139810619D02*
X146363771Y-139810619D01*
X146363771Y-139810619D02*
X146268533Y-139763000D01*
X146268533Y-139763000D02*
X146220914Y-139715380D01*
X146220914Y-139715380D02*
X146173295Y-139620142D01*
X146173295Y-139620142D02*
X146125676Y-139429666D01*
X146125676Y-139429666D02*
X146125676Y-139191571D01*
X146125676Y-139191571D02*
X146173295Y-139001095D01*
X146173295Y-139001095D02*
X146220914Y-138905857D01*
X146220914Y-138905857D02*
X146268533Y-138858238D01*
X146268533Y-138858238D02*
X146363771Y-138810619D01*
X147125676Y-139810619D02*
X147125676Y-138810619D01*
X147697104Y-139810619D02*
X147268533Y-139239190D01*
X147697104Y-138810619D02*
X147125676Y-139382047D01*
%TO.C,C1*%
X146633333Y-115267380D02*
X146585714Y-115315000D01*
X146585714Y-115315000D02*
X146442857Y-115362619D01*
X146442857Y-115362619D02*
X146347619Y-115362619D01*
X146347619Y-115362619D02*
X146204762Y-115315000D01*
X146204762Y-115315000D02*
X146109524Y-115219761D01*
X146109524Y-115219761D02*
X146061905Y-115124523D01*
X146061905Y-115124523D02*
X146014286Y-114934047D01*
X146014286Y-114934047D02*
X146014286Y-114791190D01*
X146014286Y-114791190D02*
X146061905Y-114600714D01*
X146061905Y-114600714D02*
X146109524Y-114505476D01*
X146109524Y-114505476D02*
X146204762Y-114410238D01*
X146204762Y-114410238D02*
X146347619Y-114362619D01*
X146347619Y-114362619D02*
X146442857Y-114362619D01*
X146442857Y-114362619D02*
X146585714Y-114410238D01*
X146585714Y-114410238D02*
X146633333Y-114457857D01*
X147585714Y-115362619D02*
X147014286Y-115362619D01*
X147300000Y-115362619D02*
X147300000Y-114362619D01*
X147300000Y-114362619D02*
X147204762Y-114505476D01*
X147204762Y-114505476D02*
X147109524Y-114600714D01*
X147109524Y-114600714D02*
X147014286Y-114648333D01*
X145357143Y-123662619D02*
X145452381Y-123662619D01*
X145452381Y-123662619D02*
X145547619Y-123710238D01*
X145547619Y-123710238D02*
X145595238Y-123757857D01*
X145595238Y-123757857D02*
X145642857Y-123853095D01*
X145642857Y-123853095D02*
X145690476Y-124043571D01*
X145690476Y-124043571D02*
X145690476Y-124281666D01*
X145690476Y-124281666D02*
X145642857Y-124472142D01*
X145642857Y-124472142D02*
X145595238Y-124567380D01*
X145595238Y-124567380D02*
X145547619Y-124615000D01*
X145547619Y-124615000D02*
X145452381Y-124662619D01*
X145452381Y-124662619D02*
X145357143Y-124662619D01*
X145357143Y-124662619D02*
X145261905Y-124615000D01*
X145261905Y-124615000D02*
X145214286Y-124567380D01*
X145214286Y-124567380D02*
X145166667Y-124472142D01*
X145166667Y-124472142D02*
X145119048Y-124281666D01*
X145119048Y-124281666D02*
X145119048Y-124043571D01*
X145119048Y-124043571D02*
X145166667Y-123853095D01*
X145166667Y-123853095D02*
X145214286Y-123757857D01*
X145214286Y-123757857D02*
X145261905Y-123710238D01*
X145261905Y-123710238D02*
X145357143Y-123662619D01*
X146119048Y-124567380D02*
X146166667Y-124615000D01*
X146166667Y-124615000D02*
X146119048Y-124662619D01*
X146119048Y-124662619D02*
X146071429Y-124615000D01*
X146071429Y-124615000D02*
X146119048Y-124567380D01*
X146119048Y-124567380D02*
X146119048Y-124662619D01*
X147119047Y-124662619D02*
X146547619Y-124662619D01*
X146833333Y-124662619D02*
X146833333Y-123662619D01*
X146833333Y-123662619D02*
X146738095Y-123805476D01*
X146738095Y-123805476D02*
X146642857Y-123900714D01*
X146642857Y-123900714D02*
X146547619Y-123948333D01*
X147976190Y-123995952D02*
X147976190Y-124662619D01*
X147547619Y-123995952D02*
X147547619Y-124519761D01*
X147547619Y-124519761D02*
X147595238Y-124615000D01*
X147595238Y-124615000D02*
X147690476Y-124662619D01*
X147690476Y-124662619D02*
X147833333Y-124662619D01*
X147833333Y-124662619D02*
X147928571Y-124615000D01*
X147928571Y-124615000D02*
X147976190Y-124567380D01*
X148785714Y-124138809D02*
X148452381Y-124138809D01*
X148452381Y-124662619D02*
X148452381Y-123662619D01*
X148452381Y-123662619D02*
X148928571Y-123662619D01*
%TO.C,JP1*%
X134391466Y-102826619D02*
X134391466Y-103540904D01*
X134391466Y-103540904D02*
X134343847Y-103683761D01*
X134343847Y-103683761D02*
X134248609Y-103779000D01*
X134248609Y-103779000D02*
X134105752Y-103826619D01*
X134105752Y-103826619D02*
X134010514Y-103826619D01*
X134867657Y-103826619D02*
X134867657Y-102826619D01*
X134867657Y-102826619D02*
X135248609Y-102826619D01*
X135248609Y-102826619D02*
X135343847Y-102874238D01*
X135343847Y-102874238D02*
X135391466Y-102921857D01*
X135391466Y-102921857D02*
X135439085Y-103017095D01*
X135439085Y-103017095D02*
X135439085Y-103159952D01*
X135439085Y-103159952D02*
X135391466Y-103255190D01*
X135391466Y-103255190D02*
X135343847Y-103302809D01*
X135343847Y-103302809D02*
X135248609Y-103350428D01*
X135248609Y-103350428D02*
X134867657Y-103350428D01*
X136391466Y-103826619D02*
X135820038Y-103826619D01*
X136105752Y-103826619D02*
X136105752Y-102826619D01*
X136105752Y-102826619D02*
X136010514Y-102969476D01*
X136010514Y-102969476D02*
X135915276Y-103064714D01*
X135915276Y-103064714D02*
X135820038Y-103112333D01*
%TO.C,D1*%
X113460305Y-158454619D02*
X113460305Y-157454619D01*
X113460305Y-157454619D02*
X113698400Y-157454619D01*
X113698400Y-157454619D02*
X113841257Y-157502238D01*
X113841257Y-157502238D02*
X113936495Y-157597476D01*
X113936495Y-157597476D02*
X113984114Y-157692714D01*
X113984114Y-157692714D02*
X114031733Y-157883190D01*
X114031733Y-157883190D02*
X114031733Y-158026047D01*
X114031733Y-158026047D02*
X113984114Y-158216523D01*
X113984114Y-158216523D02*
X113936495Y-158311761D01*
X113936495Y-158311761D02*
X113841257Y-158407000D01*
X113841257Y-158407000D02*
X113698400Y-158454619D01*
X113698400Y-158454619D02*
X113460305Y-158454619D01*
X114984114Y-158454619D02*
X114412686Y-158454619D01*
X114698400Y-158454619D02*
X114698400Y-157454619D01*
X114698400Y-157454619D02*
X114603162Y-157597476D01*
X114603162Y-157597476D02*
X114507924Y-157692714D01*
X114507924Y-157692714D02*
X114412686Y-157740333D01*
%TO.C,R2*%
X153528733Y-143185219D02*
X153195400Y-142709028D01*
X152957305Y-143185219D02*
X152957305Y-142185219D01*
X152957305Y-142185219D02*
X153338257Y-142185219D01*
X153338257Y-142185219D02*
X153433495Y-142232838D01*
X153433495Y-142232838D02*
X153481114Y-142280457D01*
X153481114Y-142280457D02*
X153528733Y-142375695D01*
X153528733Y-142375695D02*
X153528733Y-142518552D01*
X153528733Y-142518552D02*
X153481114Y-142613790D01*
X153481114Y-142613790D02*
X153433495Y-142661409D01*
X153433495Y-142661409D02*
X153338257Y-142709028D01*
X153338257Y-142709028D02*
X152957305Y-142709028D01*
X153909686Y-142280457D02*
X153957305Y-142232838D01*
X153957305Y-142232838D02*
X154052543Y-142185219D01*
X154052543Y-142185219D02*
X154290638Y-142185219D01*
X154290638Y-142185219D02*
X154385876Y-142232838D01*
X154385876Y-142232838D02*
X154433495Y-142280457D01*
X154433495Y-142280457D02*
X154481114Y-142375695D01*
X154481114Y-142375695D02*
X154481114Y-142470933D01*
X154481114Y-142470933D02*
X154433495Y-142613790D01*
X154433495Y-142613790D02*
X153862067Y-143185219D01*
X153862067Y-143185219D02*
X154481114Y-143185219D01*
X145203600Y-142363857D02*
X145251219Y-142316238D01*
X145251219Y-142316238D02*
X145346457Y-142268619D01*
X145346457Y-142268619D02*
X145584552Y-142268619D01*
X145584552Y-142268619D02*
X145679790Y-142316238D01*
X145679790Y-142316238D02*
X145727409Y-142363857D01*
X145727409Y-142363857D02*
X145775028Y-142459095D01*
X145775028Y-142459095D02*
X145775028Y-142554333D01*
X145775028Y-142554333D02*
X145727409Y-142697190D01*
X145727409Y-142697190D02*
X145155981Y-143268619D01*
X145155981Y-143268619D02*
X145775028Y-143268619D01*
X146203600Y-143173380D02*
X146251219Y-143221000D01*
X146251219Y-143221000D02*
X146203600Y-143268619D01*
X146203600Y-143268619D02*
X146155981Y-143221000D01*
X146155981Y-143221000D02*
X146203600Y-143173380D01*
X146203600Y-143173380D02*
X146203600Y-143268619D01*
X146632171Y-142363857D02*
X146679790Y-142316238D01*
X146679790Y-142316238D02*
X146775028Y-142268619D01*
X146775028Y-142268619D02*
X147013123Y-142268619D01*
X147013123Y-142268619D02*
X147108361Y-142316238D01*
X147108361Y-142316238D02*
X147155980Y-142363857D01*
X147155980Y-142363857D02*
X147203599Y-142459095D01*
X147203599Y-142459095D02*
X147203599Y-142554333D01*
X147203599Y-142554333D02*
X147155980Y-142697190D01*
X147155980Y-142697190D02*
X146584552Y-143268619D01*
X146584552Y-143268619D02*
X147203599Y-143268619D01*
X147632171Y-143268619D02*
X147632171Y-142268619D01*
X148203599Y-143268619D02*
X147775028Y-142697190D01*
X148203599Y-142268619D02*
X147632171Y-142840047D01*
D13*
%TO.C,R6*%
X150620000Y-146400000D02*
X149850000Y-146400000D01*
X149850000Y-147770000D02*
X149850000Y-145030000D01*
X149850000Y-145030000D02*
X143310000Y-145030000D01*
X143310000Y-147770000D02*
X149850000Y-147770000D01*
X143310000Y-145030000D02*
X143310000Y-147770000D01*
X142540000Y-146400000D02*
X143310000Y-146400000D01*
%TO.C,J1*%
X195062800Y-106782400D02*
X196392800Y-106782400D01*
X195062800Y-108112400D02*
X195062800Y-106782400D01*
X195062800Y-109382400D02*
X195062800Y-117062400D01*
X195062800Y-109382400D02*
X197722800Y-109382400D01*
X195062800Y-117062400D02*
X197722800Y-117062400D01*
X197722800Y-109382400D02*
X197722800Y-117062400D01*
%TO.C,R1*%
X142460000Y-157000000D02*
X143230000Y-157000000D01*
X143230000Y-155630000D02*
X143230000Y-158370000D01*
X143230000Y-158370000D02*
X149770000Y-158370000D01*
X149770000Y-155630000D02*
X143230000Y-155630000D01*
X149770000Y-158370000D02*
X149770000Y-155630000D01*
X150540000Y-157000000D02*
X149770000Y-157000000D01*
%TO.C,R3*%
X142540000Y-153400000D02*
X143310000Y-153400000D01*
X143310000Y-152030000D02*
X143310000Y-154770000D01*
X143310000Y-154770000D02*
X149850000Y-154770000D01*
X149850000Y-152030000D02*
X143310000Y-152030000D01*
X149850000Y-154770000D02*
X149850000Y-152030000D01*
X150620000Y-153400000D02*
X149850000Y-153400000D01*
%TO.C,R7*%
X142380000Y-136100000D02*
X143150000Y-136100000D01*
X143150000Y-134730000D02*
X143150000Y-137470000D01*
X143150000Y-137470000D02*
X149690000Y-137470000D01*
X149690000Y-134730000D02*
X143150000Y-134730000D01*
X149690000Y-137470000D02*
X149690000Y-134730000D01*
X150460000Y-136100000D02*
X149690000Y-136100000D01*
%TO.C,R4*%
X150620000Y-149800000D02*
X149850000Y-149800000D01*
X149850000Y-151170000D02*
X149850000Y-148430000D01*
X149850000Y-148430000D02*
X143310000Y-148430000D01*
X143310000Y-151170000D02*
X149850000Y-151170000D01*
X143310000Y-148430000D02*
X143310000Y-151170000D01*
X142540000Y-149800000D02*
X143310000Y-149800000D01*
D14*
%TO.C,J2*%
X185818000Y-128905000D02*
X185818000Y-134239000D01*
X181419000Y-128905000D02*
X185818000Y-128905000D01*
X157162000Y-128905000D02*
X157073000Y-128905000D01*
X157073000Y-128905000D02*
X157073000Y-134239000D01*
X185718000Y-150849000D02*
X185718000Y-157888000D01*
X157073000Y-152011000D02*
X157073000Y-157888000D01*
X185718000Y-157888000D02*
X184300000Y-157900000D01*
X157073000Y-157888000D02*
X158051000Y-157888000D01*
D13*
%TO.C,U1*%
X121563000Y-113903000D02*
X121563000Y-116570000D01*
X121563000Y-119110000D02*
X121563000Y-157337000D01*
X121563000Y-157337000D02*
X126643000Y-157337000D01*
X124230000Y-116570000D02*
X121563000Y-116570000D01*
X124230000Y-119110000D02*
X121563000Y-119110000D01*
X124230000Y-119110000D02*
X124230000Y-116570000D01*
X124230000Y-119110000D02*
X124230000Y-154670000D01*
X124230000Y-154670000D02*
X121560000Y-154670000D01*
X126643000Y-159877000D02*
X126643000Y-157337000D01*
X126643000Y-159877000D02*
X134517000Y-159877000D01*
X134517000Y-157337000D02*
X139597000Y-157337000D01*
X134517000Y-159877000D02*
X134517000Y-157337000D01*
X136930000Y-116570000D02*
X136930000Y-154670000D01*
X136930000Y-116570000D02*
X139600000Y-116570000D01*
X136930000Y-154670000D02*
X139600000Y-154670000D01*
X139597000Y-113903000D02*
X121563000Y-113903000D01*
X139597000Y-157337000D02*
X139597000Y-113903000D01*
%TO.C,R5*%
X150520000Y-139400000D02*
X149750000Y-139400000D01*
X149750000Y-140770000D02*
X149750000Y-138030000D01*
X149750000Y-138030000D02*
X143210000Y-138030000D01*
X143210000Y-140770000D02*
X149750000Y-140770000D01*
X143210000Y-138030000D02*
X143210000Y-140770000D01*
X142440000Y-139400000D02*
X143210000Y-139400000D01*
%TO.C,C1*%
X145430000Y-123120000D02*
X148170000Y-123120000D01*
X145430000Y-123120000D02*
X145430000Y-115880000D01*
X148170000Y-123120000D02*
X148170000Y-115880000D01*
X145430000Y-115880000D02*
X148170000Y-115880000D01*
%TO.C,JP1*%
X139030000Y-104670000D02*
X139030000Y-106000000D01*
X137700000Y-104670000D02*
X139030000Y-104670000D01*
X136430000Y-104670000D02*
X131290000Y-104670000D01*
X136430000Y-104670000D02*
X136430000Y-107330000D01*
X131290000Y-104670000D02*
X131290000Y-107330000D01*
X136430000Y-107330000D02*
X131290000Y-107330000D01*
%TO.C,D1*%
X120148400Y-152392000D02*
X120148400Y-151392000D01*
X120148400Y-151392000D02*
X119148400Y-151892000D01*
X119148400Y-151892000D02*
X120148400Y-152392000D01*
X118758400Y-157102000D02*
X109638400Y-157102000D01*
X118758400Y-133622000D02*
X117448400Y-133622000D01*
X118758400Y-106042000D02*
X118758400Y-157102000D01*
X117448400Y-155802000D02*
X110948400Y-155802000D01*
X117448400Y-133622000D02*
X117448400Y-155802000D01*
X117448400Y-129522000D02*
X118758400Y-129522000D01*
X117448400Y-129522000D02*
X117448400Y-129522000D01*
X117448400Y-107342000D02*
X117448400Y-129522000D01*
X110948400Y-155802000D02*
X110948400Y-107342000D01*
X110948400Y-107342000D02*
X117448400Y-107342000D01*
X109638400Y-157102000D02*
X109638400Y-106042000D01*
X109638400Y-106042000D02*
X118758400Y-106042000D01*
%TO.C,R2*%
X142440000Y-142800000D02*
X143210000Y-142800000D01*
X143210000Y-141430000D02*
X143210000Y-144170000D01*
X143210000Y-144170000D02*
X149750000Y-144170000D01*
X149750000Y-141430000D02*
X143210000Y-141430000D01*
X149750000Y-144170000D02*
X149750000Y-141430000D01*
X150520000Y-142800000D02*
X149750000Y-142800000D01*
%TD*%
M02*
