M48
; DRILL file {KiCad 7.0.1} date Sun Feb  4 21:46:44 2024
; FORMAT={-:-/ absolute / metric / decimal}
; #@! TF.CreationDate,2024-02-04T21:46:44+03:00
; #@! TF.GenerationSoftware,Kicad,Pcbnew,7.0.1
; #@! TF.FileFunction,Plated,1,2,PTH
FMAT,2
METRIC
; #@! TA.AperFunction,Plated,PTH,ComponentDrill
T1C0.600
; #@! TA.AperFunction,Plated,PTH,ComponentDrill
T2C0.800
; #@! TA.AperFunction,Plated,PTH,ComponentDrill
T3C1.000
; #@! TA.AperFunction,Plated,PTH,ComponentDrill
T4C1.500
%
G90
G05
T2
X127.508Y-114.452
X127.508Y-116.992
X127.508Y-119.532
X127.508Y-122.072
X127.508Y-124.612
X127.508Y-127.152
X127.508Y-129.692
X127.508Y-132.232
X127.508Y-134.772
X127.508Y-137.312
X127.508Y-139.852
X127.508Y-142.392
X127.508Y-144.932
X127.508Y-147.472
X127.508Y-150.012
X142.748Y-114.452
X142.748Y-116.992
X142.748Y-119.532
X142.748Y-122.072
X142.748Y-124.612
X142.748Y-127.152
X142.748Y-129.692
X142.748Y-132.232
X142.748Y-134.772
X142.748Y-137.312
X142.748Y-139.852
X142.748Y-142.392
X142.748Y-144.932
X142.748Y-147.472
X142.748Y-150.012
X152.552Y-140.36
X152.552Y-150.52
X155.245Y-135.636
X157.175Y-155.448
X158.598Y-140.259
X158.598Y-150.419
X161.696Y-129.794
X165.252Y-140.157
X165.252Y-150.317
X165.405Y-135.636
X167.335Y-155.448
X171.806Y-140.208
X171.806Y-150.368
X171.856Y-129.794
T3
X112.928Y-111.252
X112.928Y-113.792
X112.928Y-116.332
X112.928Y-118.872
X112.928Y-121.412
X112.928Y-123.952
X112.928Y-126.492
X112.928Y-129.032
X112.928Y-131.572
X112.928Y-134.112
X112.928Y-136.652
X112.928Y-139.192
X112.928Y-141.732
X112.928Y-144.272
X112.928Y-146.812
X112.928Y-149.352
X112.928Y-151.892
X115.468Y-111.252
X115.468Y-113.792
X115.468Y-116.332
X115.468Y-118.872
X115.468Y-121.412
X115.468Y-123.952
X115.468Y-126.492
X115.468Y-129.032
X115.468Y-131.572
X115.468Y-134.112
X115.468Y-136.652
X115.468Y-139.192
X115.468Y-141.732
X115.468Y-144.272
X115.468Y-146.812
X115.468Y-149.352
X115.468Y-151.892
X122.936Y-134.925
X122.936Y-137.465
X122.936Y-140.005
X178.77Y-150.368
X181.31Y-150.368
X196.393Y-108.112
X196.393Y-110.652
X196.393Y-113.192
X196.393Y-115.732
X209.347Y-105.512
X209.347Y-120.012
X211.847Y-120.012
X214.347Y-105.512
X214.347Y-120.012
T1
G00X207.014Y-156.514
M15
G01X207.014Y-155.414
M16
G05
G00X207.014Y-160.444
M15
G01X207.014Y-159.844
M16
G05
G00X215.654Y-156.514
M15
G01X215.654Y-155.414
M16
G05
G00X215.654Y-160.444
M15
G01X215.654Y-159.844
M16
G05
T4
G00X206.247Y-113.162
M15
G01X206.247Y-111.862
M16
G05
G00X217.447Y-113.162
M15
G01X217.447Y-111.862
M16
G05
T0
M30
