%TF.GenerationSoftware,KiCad,Pcbnew,7.0.1*%
%TF.CreationDate,2024-02-04T21:46:43+03:00*%
%TF.ProjectId,delta_flop_arduino,64656c74-615f-4666-9c6f-705f61726475,rev?*%
%TF.SameCoordinates,Original*%
%TF.FileFunction,Copper,L1,Top*%
%TF.FilePolarity,Positive*%
%FSLAX46Y46*%
G04 Gerber Fmt 4.6, Leading zero omitted, Abs format (unit mm)*
G04 Created by KiCad (PCBNEW 7.0.1) date 2024-02-04 21:46:43*
%MOMM*%
%LPD*%
G01*
G04 APERTURE LIST*
G04 Aperture macros list*
%AMRoundRect*
0 Rectangle with rounded corners*
0 $1 Rounding radius*
0 $2 $3 $4 $5 $6 $7 $8 $9 X,Y pos of 4 corners*
0 Add a 4 corners polygon primitive as box body*
4,1,4,$2,$3,$4,$5,$6,$7,$8,$9,$2,$3,0*
0 Add four circle primitives for the rounded corners*
1,1,$1+$1,$2,$3*
1,1,$1+$1,$4,$5*
1,1,$1+$1,$6,$7*
1,1,$1+$1,$8,$9*
0 Add four rect primitives between the rounded corners*
20,1,$1+$1,$2,$3,$4,$5,0*
20,1,$1+$1,$4,$5,$6,$7,0*
20,1,$1+$1,$6,$7,$8,$9,0*
20,1,$1+$1,$8,$9,$2,$3,0*%
G04 Aperture macros list end*
%TA.AperFunction,ComponentPad*%
%ADD10O,1.000000X1.600000*%
%TD*%
%TA.AperFunction,ComponentPad*%
%ADD11O,1.000000X2.100000*%
%TD*%
%TA.AperFunction,ComponentPad*%
%ADD12C,1.600000*%
%TD*%
%TA.AperFunction,ComponentPad*%
%ADD13O,1.600000X1.600000*%
%TD*%
%TA.AperFunction,ComponentPad*%
%ADD14R,1.700000X1.700000*%
%TD*%
%TA.AperFunction,ComponentPad*%
%ADD15O,1.700000X1.700000*%
%TD*%
%TA.AperFunction,SMDPad,CuDef*%
%ADD16R,1.800000X0.900000*%
%TD*%
%TA.AperFunction,SMDPad,CuDef*%
%ADD17R,1.800000X1.100000*%
%TD*%
%TA.AperFunction,SMDPad,CuDef*%
%ADD18R,2.000000X1.400000*%
%TD*%
%TA.AperFunction,ComponentPad*%
%ADD19R,1.600000X1.600000*%
%TD*%
%TA.AperFunction,ComponentPad*%
%ADD20RoundRect,0.250000X0.600000X0.600000X-0.600000X0.600000X-0.600000X-0.600000X0.600000X-0.600000X0*%
%TD*%
%TA.AperFunction,ComponentPad*%
%ADD21C,1.700000*%
%TD*%
%TA.AperFunction,ComponentPad*%
%ADD22R,2.000000X2.000000*%
%TD*%
%TA.AperFunction,ComponentPad*%
%ADD23C,2.000000*%
%TD*%
%TA.AperFunction,ComponentPad*%
%ADD24R,2.000000X3.200000*%
%TD*%
%TA.AperFunction,Conductor*%
%ADD25C,0.250000*%
%TD*%
%TA.AperFunction,Conductor*%
%ADD26C,0.500000*%
%TD*%
G04 APERTURE END LIST*
D10*
%TO.P,J4,S1,SHIELD*%
%TO.N,GND*%
X215653600Y-160144000D03*
D11*
X215653600Y-155964000D03*
D10*
X207013600Y-160144000D03*
D11*
X207013600Y-155964000D03*
%TD*%
D12*
%TO.P,R4,1*%
%TO.N,Net-(J1-CD{slash}DAT3)*%
X171805600Y-140208000D03*
D13*
%TO.P,R4,2*%
%TO.N,GND*%
X171805600Y-150368000D03*
%TD*%
D14*
%TO.P,J2,1,Pin_1*%
%TO.N,GND*%
X196392800Y-108112400D03*
D15*
%TO.P,J2,2,Pin_2*%
%TO.N,/5V*%
X196392800Y-110652400D03*
%TO.P,J2,3,Pin_3*%
%TO.N,Net-(J2-Pin_3)*%
X196392800Y-113192400D03*
%TO.P,J2,4,Pin_4*%
%TO.N,Net-(J2-Pin_4)*%
X196392800Y-115732400D03*
%TD*%
D12*
%TO.P,R6,1*%
%TO.N,MOSI*%
X155244800Y-135636000D03*
D13*
%TO.P,R6,2*%
%TO.N,Net-(J1-CMD)*%
X165404800Y-135636000D03*
%TD*%
D12*
%TO.P,R5,1*%
%TO.N,SCK*%
X152552400Y-150520400D03*
D13*
%TO.P,R5,2*%
%TO.N,Net-(J1-CLK)*%
X152552400Y-140360400D03*
%TD*%
D12*
%TO.P,R3,1*%
%TO.N,Net-(J1-CMD)*%
X165252400Y-140157200D03*
D13*
%TO.P,R3,2*%
%TO.N,GND*%
X165252400Y-150317200D03*
%TD*%
D12*
%TO.P,R2,1*%
%TO.N,Net-(J1-CLK)*%
X158597600Y-140258800D03*
D13*
%TO.P,R2,2*%
%TO.N,GND*%
X158597600Y-150418800D03*
%TD*%
D16*
%TO.P,J1,1,CD/DAT3*%
%TO.N,Net-(J1-CD{slash}DAT3)*%
X189179100Y-131609200D03*
%TO.P,J1,2,CMD*%
%TO.N,Net-(J1-CMD)*%
X189179100Y-134109200D03*
%TO.P,J1,3,VSS*%
%TO.N,GND*%
X189179100Y-135859200D03*
%TO.P,J1,4,VDD*%
%TO.N,/3.3V*%
X189179100Y-139109200D03*
%TO.P,J1,5,CLK*%
%TO.N,Net-(J1-CLK)*%
X189179100Y-141609200D03*
%TO.P,J1,6,VSS*%
%TO.N,GND*%
X189179100Y-144109200D03*
%TO.P,J1,7,DAT0*%
%TO.N,MISO*%
X189179100Y-146529200D03*
%TO.P,J1,8,DAT1*%
%TO.N,unconnected-(J1-DAT1-Pad8)*%
X189179100Y-148229200D03*
%TO.P,J1,9,DAT2*%
%TO.N,unconnected-(J1-DAT2-Pad9)*%
X189179100Y-129109200D03*
%TO.P,J1,10,CARD_DETECT*%
%TO.N,unconnected-(J1-CARD_DETECT-Pad10)*%
X189179100Y-137359200D03*
D17*
%TO.P,J1,11,WRITE_PROTECT*%
%TO.N,unconnected-(J1-WRITE_PROTECT-Pad11)*%
X189179100Y-151379200D03*
D18*
%TO.P,J1,12,SHELL1*%
%TO.N,GND*%
X210179100Y-123629200D03*
%TO.P,J1,13,SHELL2*%
X211329100Y-153129200D03*
%TD*%
D19*
%TO.P,U1,1,D1/TX*%
%TO.N,Net-(D1-READ_DATA)*%
X127508000Y-114452400D03*
D13*
%TO.P,U1,2,D0/RX*%
%TO.N,Net-(D1-HEAD_SELECT)*%
X127508000Y-116992400D03*
%TO.P,U1,3,~{RESET}*%
%TO.N,unconnected-(U1-~{RESET}-Pad3)*%
X127508000Y-119532400D03*
%TO.P,U1,4,GND*%
%TO.N,GND*%
X127508000Y-122072400D03*
%TO.P,U1,5,D2*%
%TO.N,Net-(D1-WRITE_PROTECT)*%
X127508000Y-124612400D03*
%TO.P,U1,6,~D3*%
%TO.N,Net-(D1-TRACK)*%
X127508000Y-127152400D03*
%TO.P,U1,7,D4*%
%TO.N,Net-(D1-STEP)*%
X127508000Y-129692400D03*
%TO.P,U1,8,~D5*%
%TO.N,Net-(D1-DIRECTION)*%
X127508000Y-132232400D03*
%TO.P,U1,9,~D6*%
%TO.N,Net-(D1-MOTOR_1)*%
X127508000Y-134772400D03*
%TO.P,U1,10,D7*%
%TO.N,Net-(JP1-C)*%
X127508000Y-137312400D03*
%TO.P,U1,11,D8*%
%TO.N,Net-(D1-INDEX)*%
X127508000Y-139852400D03*
%TO.P,U1,12,~D9*%
%TO.N,unconnected-(U1-~D9-Pad12)*%
X127508000Y-142392400D03*
%TO.P,U1,13,~D10*%
%TO.N,SS*%
X127508000Y-144932400D03*
%TO.P,U1,14,~D11*%
%TO.N,MOSI*%
X127508000Y-147472400D03*
%TO.P,U1,15,D12*%
%TO.N,MISO*%
X127508000Y-150012400D03*
%TO.P,U1,16,D13*%
%TO.N,SCK*%
X142748000Y-150012400D03*
%TO.P,U1,17,3V3*%
%TO.N,/3.3V*%
X142748000Y-147472400D03*
%TO.P,U1,18,AREF*%
%TO.N,unconnected-(U1-AREF-Pad18)*%
X142748000Y-144932400D03*
%TO.P,U1,19,A0/D14*%
%TO.N,unconnected-(U1-A0{slash}D14-Pad19)*%
X142748000Y-142392400D03*
%TO.P,U1,20,A1/D15*%
%TO.N,Net-(U1-A1{slash}D15)*%
X142748000Y-139852400D03*
%TO.P,U1,21,A2/D16*%
%TO.N,Net-(U1-A2{slash}D16)*%
X142748000Y-137312400D03*
%TO.P,U1,22,A3/D17*%
%TO.N,Net-(U1-A3{slash}D17)*%
X142748000Y-134772400D03*
%TO.P,U1,23,A4/D18*%
%TO.N,Net-(J2-Pin_3)*%
X142748000Y-132232400D03*
%TO.P,U1,24,A5/D19*%
%TO.N,Net-(J2-Pin_4)*%
X142748000Y-129692400D03*
%TO.P,U1,25,A6/D20*%
%TO.N,unconnected-(U1-A6{slash}D20-Pad25)*%
X142748000Y-127152400D03*
%TO.P,U1,26,A7/D21*%
%TO.N,unconnected-(U1-A7{slash}D21-Pad26)*%
X142748000Y-124612400D03*
%TO.P,U1,27,+5V*%
%TO.N,/5V*%
X142748000Y-122072400D03*
%TO.P,U1,28,~{RESET}*%
%TO.N,unconnected-(U1-~{RESET}-Pad28)*%
X142748000Y-119532400D03*
%TO.P,U1,29,GND*%
%TO.N,GND*%
X142748000Y-116992400D03*
%TO.P,U1,30,VIN*%
%TO.N,unconnected-(U1-VIN-Pad30)*%
X142748000Y-114452400D03*
%TD*%
D12*
%TO.P,R1,1*%
%TO.N,/3.3V*%
X157175200Y-155448000D03*
D13*
%TO.P,R1,2*%
%TO.N,MISO*%
X167335200Y-155448000D03*
%TD*%
D14*
%TO.P,J3,1,Pin_1*%
%TO.N,/5V*%
X181310200Y-150368000D03*
D15*
%TO.P,J3,2,Pin_2*%
%TO.N,GND*%
X178770200Y-150368000D03*
%TD*%
D14*
%TO.P,JP1,1,A*%
%TO.N,Net-(D1-DRIVE_SELECT_1)*%
X122936000Y-134924800D03*
D15*
%TO.P,JP1,2,C*%
%TO.N,Net-(JP1-C)*%
X122936000Y-137464800D03*
%TO.P,JP1,3,B*%
%TO.N,Net-(D1-MOTOR_0)*%
X122936000Y-140004800D03*
%TD*%
D20*
%TO.P,D1,1,GND*%
%TO.N,GND*%
X115468400Y-151892000D03*
D21*
%TO.P,D1,2,DENSITY_SELECT*%
%TO.N,unconnected-(D1-DENSITY_SELECT-Pad2)*%
X112928400Y-151892000D03*
%TO.P,D1,3,GND*%
%TO.N,GND*%
X115468400Y-149352000D03*
%TO.P,D1,4,N/C*%
%TO.N,unconnected-(D1-N{slash}C-Pad4)*%
X112928400Y-149352000D03*
%TO.P,D1,5,GND*%
%TO.N,GND*%
X115468400Y-146812000D03*
%TO.P,D1,6,N/C*%
%TO.N,unconnected-(D1-N{slash}C-Pad6)*%
X112928400Y-146812000D03*
%TO.P,D1,7,GND*%
%TO.N,GND*%
X115468400Y-144272000D03*
%TO.P,D1,8,INDEX*%
%TO.N,Net-(D1-INDEX)*%
X112928400Y-144272000D03*
%TO.P,D1,9,GND*%
%TO.N,GND*%
X115468400Y-141732000D03*
%TO.P,D1,10,MOTOR_0*%
%TO.N,Net-(D1-MOTOR_0)*%
X112928400Y-141732000D03*
%TO.P,D1,11,GND*%
%TO.N,GND*%
X115468400Y-139192000D03*
%TO.P,D1,12,DRIVE_SELECT_1*%
%TO.N,Net-(D1-DRIVE_SELECT_1)*%
X112928400Y-139192000D03*
%TO.P,D1,13,GND*%
%TO.N,GND*%
X115468400Y-136652000D03*
%TO.P,D1,14,DRIVE_SELECT_0*%
%TO.N,unconnected-(D1-DRIVE_SELECT_0-Pad14)*%
X112928400Y-136652000D03*
%TO.P,D1,15,GND*%
%TO.N,GND*%
X115468400Y-134112000D03*
%TO.P,D1,16,MOTOR_1*%
%TO.N,Net-(D1-MOTOR_1)*%
X112928400Y-134112000D03*
%TO.P,D1,17,GND*%
%TO.N,GND*%
X115468400Y-131572000D03*
%TO.P,D1,18,DIRECTION*%
%TO.N,Net-(D1-DIRECTION)*%
X112928400Y-131572000D03*
%TO.P,D1,19,GND*%
%TO.N,GND*%
X115468400Y-129032000D03*
%TO.P,D1,20,STEP*%
%TO.N,Net-(D1-STEP)*%
X112928400Y-129032000D03*
%TO.P,D1,21,GND*%
%TO.N,GND*%
X115468400Y-126492000D03*
%TO.P,D1,22,WRITE_DATA*%
%TO.N,unconnected-(D1-WRITE_DATA-Pad22)*%
X112928400Y-126492000D03*
%TO.P,D1,23,GND*%
%TO.N,GND*%
X115468400Y-123952000D03*
%TO.P,D1,24,WRITE_GATE*%
%TO.N,unconnected-(D1-WRITE_GATE-Pad24)*%
X112928400Y-123952000D03*
%TO.P,D1,25,GND*%
%TO.N,GND*%
X115468400Y-121412000D03*
%TO.P,D1,26,TRACK*%
%TO.N,Net-(D1-TRACK)*%
X112928400Y-121412000D03*
%TO.P,D1,27,GND*%
%TO.N,GND*%
X115468400Y-118872000D03*
%TO.P,D1,28,WRITE_PROTECT*%
%TO.N,Net-(D1-WRITE_PROTECT)*%
X112928400Y-118872000D03*
%TO.P,D1,29,GND*%
%TO.N,GND*%
X115468400Y-116332000D03*
%TO.P,D1,30,READ_DATA*%
%TO.N,Net-(D1-READ_DATA)*%
X112928400Y-116332000D03*
%TO.P,D1,31,GND*%
%TO.N,GND*%
X115468400Y-113792000D03*
%TO.P,D1,32,HEAD_SELECT*%
%TO.N,Net-(D1-HEAD_SELECT)*%
X112928400Y-113792000D03*
%TO.P,D1,33,GND*%
%TO.N,GND*%
X115468400Y-111252000D03*
%TO.P,D1,34,DISK_CHANGE*%
%TO.N,unconnected-(D1-DISK_CHANGE-Pad34)*%
X112928400Y-111252000D03*
%TD*%
D12*
%TO.P,R7,1*%
%TO.N,SS*%
X161696400Y-129794000D03*
D13*
%TO.P,R7,2*%
%TO.N,Net-(J1-CD{slash}DAT3)*%
X171856400Y-129794000D03*
%TD*%
D22*
%TO.P,SW1,A,A*%
%TO.N,Net-(U1-A2{slash}D16)*%
X214346800Y-120011600D03*
D23*
%TO.P,SW1,B,B*%
%TO.N,Net-(U1-A3{slash}D17)*%
X209346800Y-120011600D03*
%TO.P,SW1,C,C*%
%TO.N,GND*%
X211846800Y-120011600D03*
D24*
%TO.P,SW1,MP*%
%TO.N,N/C*%
X206246800Y-112511600D03*
X217446800Y-112511600D03*
D23*
%TO.P,SW1,S1,S1*%
%TO.N,Net-(U1-A1{slash}D15)*%
X209346800Y-105511600D03*
%TO.P,SW1,S2,S2*%
%TO.N,GND*%
X214346800Y-105511600D03*
%TD*%
D25*
%TO.N,Net-(U1-A2{slash}D16)*%
X143874900Y-137312400D02*
X142748000Y-137312400D01*
X171002450Y-128127500D02*
X166643550Y-132486400D01*
X166643550Y-132486400D02*
X148700900Y-132486400D01*
X207843100Y-128127500D02*
X171002450Y-128127500D01*
X148700900Y-132486400D02*
X143874900Y-137312400D01*
X214346800Y-121623800D02*
X207843100Y-128127500D01*
X214346800Y-120011600D02*
X214346800Y-121623800D01*
%TO.N,Net-(U1-A1{slash}D15)*%
X210718600Y-104139800D02*
X209346800Y-105511600D01*
X214891400Y-104139800D02*
X210718600Y-104139800D01*
X215673700Y-127378700D02*
X215673700Y-104922100D01*
X187954100Y-133334200D02*
X209718200Y-133334200D01*
X187887500Y-133400800D02*
X187954100Y-133334200D01*
X215673700Y-104922100D02*
X214891400Y-104139800D01*
X209718200Y-133334200D02*
X215673700Y-127378700D01*
X143874900Y-139852400D02*
X150326500Y-133400800D01*
X142748000Y-139852400D02*
X143874900Y-139852400D01*
X150326500Y-133400800D02*
X187887500Y-133400800D01*
%TO.N,Net-(U1-A3{slash}D17)*%
X168554400Y-127152400D02*
X202206000Y-127152400D01*
X164119400Y-131587400D02*
X168554400Y-127152400D01*
X147698900Y-131587400D02*
X164119400Y-131587400D01*
X144513900Y-134772400D02*
X147698900Y-131587400D01*
X202206000Y-127152400D02*
X209346800Y-120011600D01*
X142748000Y-134772400D02*
X144513900Y-134772400D01*
D26*
%TO.N,GND*%
X171805600Y-150368000D02*
X173057500Y-150368000D01*
X116078000Y-148742400D02*
X115468400Y-149352000D01*
X178770200Y-150368000D02*
X180072100Y-149066100D01*
X191363600Y-144941800D02*
X190531000Y-144109200D01*
X158597600Y-150418800D02*
X157345700Y-150418800D01*
X115468400Y-148742400D02*
X115468400Y-146812000D01*
X127508000Y-122072400D02*
X126256100Y-122072400D01*
X164000500Y-150317200D02*
X163898900Y-150418800D01*
X191109600Y-135859200D02*
X189179100Y-135859200D01*
X190531000Y-144109200D02*
X191109600Y-143530600D01*
X157345700Y-150418800D02*
X155669300Y-148742400D01*
X136416100Y-122072400D02*
X127508000Y-122072400D01*
X142748000Y-116992400D02*
X141496100Y-116992400D01*
X211846800Y-120809600D02*
X210179100Y-122477300D01*
X215653600Y-155964000D02*
X215653600Y-154462100D01*
X207013600Y-155964000D02*
X207013600Y-160144000D01*
X115468400Y-122072400D02*
X126256100Y-122072400D01*
X155669300Y-148742400D02*
X116078000Y-148742400D01*
X211846800Y-120011600D02*
X211846800Y-120809600D01*
X115468400Y-121412000D02*
X115468400Y-122072400D01*
X211846800Y-108112400D02*
X197694700Y-108112400D01*
X165252400Y-150317200D02*
X164000500Y-150317200D01*
X116078000Y-148742400D02*
X115468400Y-148742400D01*
X190390600Y-149153700D02*
X190531000Y-149013300D01*
X191109600Y-143530600D02*
X191109600Y-135859200D01*
X191363600Y-148180700D02*
X191363600Y-144941800D01*
X115468400Y-116332000D02*
X115468400Y-118872000D01*
X201564800Y-149013300D02*
X207013600Y-154462100D01*
X163898900Y-150418800D02*
X158597600Y-150418800D01*
X190531000Y-149013300D02*
X191363600Y-148180700D01*
X214346800Y-105511600D02*
X211846800Y-108011600D01*
X211329100Y-153129200D02*
X214320700Y-153129200D01*
X207194600Y-154281100D02*
X207013600Y-154462100D01*
X207013600Y-155964000D02*
X207013600Y-154462100D01*
X211329100Y-153129200D02*
X211329100Y-154281100D01*
X115468400Y-118872000D02*
X115468400Y-121412000D01*
X141496100Y-116992400D02*
X136416100Y-122072400D01*
X214320700Y-153129200D02*
X215653600Y-154462100D01*
X210179100Y-123629200D02*
X210179100Y-122477300D01*
X180072100Y-149066100D02*
X182347400Y-149066100D01*
X211329100Y-154281100D02*
X207194600Y-154281100D01*
X173057500Y-150368000D02*
X178770200Y-150368000D01*
X196392800Y-108112400D02*
X197694700Y-108112400D01*
X190531000Y-149013300D02*
X201564800Y-149013300D01*
X182435000Y-149153700D02*
X190390600Y-149153700D01*
X189179100Y-144109200D02*
X190531000Y-144109200D01*
X182347400Y-149066100D02*
X182435000Y-149153700D01*
X211846800Y-108011600D02*
X211846800Y-108112400D01*
X115468400Y-122072400D02*
X115468400Y-123952000D01*
X211846800Y-108112400D02*
X211846800Y-120011600D01*
D25*
%TO.N,Net-(D1-INDEX)*%
X112928400Y-144272000D02*
X114198400Y-143002000D01*
X127508000Y-139852400D02*
X126381100Y-139852400D01*
X123231500Y-143002000D02*
X126381100Y-139852400D01*
X114198400Y-143002000D02*
X123231500Y-143002000D01*
%TO.N,Net-(D1-MOTOR_0)*%
X112928400Y-141732000D02*
X114198400Y-140462000D01*
X114198400Y-140462000D02*
X121301900Y-140462000D01*
X122936000Y-140004800D02*
X121759100Y-140004800D01*
X121301900Y-140462000D02*
X121759100Y-140004800D01*
%TO.N,Net-(D1-DRIVE_SELECT_1)*%
X114198400Y-137922000D02*
X118761900Y-137922000D01*
X118761900Y-137922000D02*
X121759100Y-134924800D01*
X112928400Y-139192000D02*
X114198400Y-137922000D01*
X122936000Y-134924800D02*
X121759100Y-134924800D01*
%TO.N,Net-(D1-MOTOR_1)*%
X117735700Y-135302600D02*
X114119000Y-135302600D01*
X114119000Y-135302600D02*
X112928400Y-134112000D01*
X126381100Y-134772400D02*
X125356600Y-133747900D01*
X125356600Y-133747900D02*
X119290400Y-133747900D01*
X127508000Y-134772400D02*
X126381100Y-134772400D01*
X119290400Y-133747900D02*
X117735700Y-135302600D01*
%TO.N,Net-(D1-DIRECTION)*%
X125850900Y-132762600D02*
X126381100Y-132232400D01*
X112928400Y-131572000D02*
X114119000Y-132762600D01*
X127508000Y-132232400D02*
X126381100Y-132232400D01*
X114119000Y-132762600D02*
X125850900Y-132762600D01*
%TO.N,Net-(D1-STEP)*%
X125847700Y-130225800D02*
X126381100Y-129692400D01*
X114122200Y-130225800D02*
X125847700Y-130225800D01*
X112928400Y-129032000D02*
X114122200Y-130225800D01*
X127508000Y-129692400D02*
X126381100Y-129692400D01*
%TO.N,Net-(D1-HEAD_SELECT)*%
X124450700Y-115062000D02*
X126381100Y-116992400D01*
X112928400Y-113792000D02*
X114198400Y-115062000D01*
X127508000Y-116992400D02*
X126381100Y-116992400D01*
X114198400Y-115062000D02*
X124450700Y-115062000D01*
%TO.N,Net-(J1-CD{slash}DAT3)*%
X189179100Y-131609200D02*
X174798500Y-131609200D01*
X171856400Y-129794000D02*
X172983300Y-129794000D01*
X174798500Y-131609200D02*
X172983300Y-129794000D01*
%TO.N,Net-(J1-CMD)*%
X186425400Y-135636000D02*
X165404800Y-135636000D01*
X189179100Y-134109200D02*
X187952200Y-134109200D01*
X187952200Y-134109200D02*
X186425400Y-135636000D01*
%TO.N,Net-(J1-CLK)*%
X189179100Y-141609200D02*
X159948000Y-141609200D01*
X153679300Y-140360400D02*
X158496000Y-140360400D01*
X159948000Y-141609200D02*
X158597600Y-140258800D01*
X152552400Y-140360400D02*
X153679300Y-140360400D01*
X158496000Y-140360400D02*
X158597600Y-140258800D01*
%TO.N,MISO*%
X167335200Y-153240300D02*
X167335200Y-155448000D01*
X131862800Y-153240300D02*
X167335200Y-153240300D01*
X127508000Y-150012400D02*
X128634900Y-150012400D01*
X174046300Y-146529200D02*
X167335200Y-153240300D01*
X128634900Y-150012400D02*
X131862800Y-153240300D01*
X189179100Y-146529200D02*
X174046300Y-146529200D01*
%TO.N,Net-(J2-Pin_3)*%
X196392800Y-113192400D02*
X196392800Y-114369300D01*
X198424800Y-121920000D02*
X194665600Y-125679200D01*
X196392800Y-114369300D02*
X197528900Y-114369300D01*
X197528900Y-114369300D02*
X198424800Y-115265200D01*
X143874900Y-132232400D02*
X142748000Y-132232400D01*
X198424800Y-115265200D02*
X198424800Y-121920000D01*
X150428100Y-125679200D02*
X143874900Y-132232400D01*
X194665600Y-125679200D02*
X150428100Y-125679200D01*
%TO.N,Net-(J2-Pin_4)*%
X193631500Y-124389900D02*
X149177400Y-124389900D01*
X149177400Y-124389900D02*
X143874900Y-129692400D01*
X196392800Y-115732400D02*
X196392800Y-121628600D01*
X143874900Y-129692400D02*
X142748000Y-129692400D01*
X196392800Y-121628600D02*
X193631500Y-124389900D01*
%TO.N,Net-(JP1-C)*%
X127508000Y-137312400D02*
X126381100Y-137312400D01*
X122936000Y-137464800D02*
X126228700Y-137464800D01*
X126228700Y-137464800D02*
X126381100Y-137312400D01*
%TO.N,SS*%
X128634900Y-144932400D02*
X139978800Y-133588500D01*
X139978800Y-133588500D02*
X144740400Y-133588500D01*
X144740400Y-133588500D02*
X148534900Y-129794000D01*
X148534900Y-129794000D02*
X161696400Y-129794000D01*
X127508000Y-144932400D02*
X128634900Y-144932400D01*
%TO.N,SCK*%
X142748000Y-150012400D02*
X152044400Y-150012400D01*
X152044400Y-150012400D02*
X152552400Y-150520400D01*
D26*
%TO.N,/3.3V*%
X189179100Y-139109200D02*
X187827200Y-139109200D01*
X143999900Y-147472400D02*
X143999900Y-147081200D01*
X143999900Y-147081200D02*
X152184300Y-138896800D01*
X142748000Y-147472400D02*
X143999900Y-147472400D01*
X152184300Y-138896800D02*
X187614800Y-138896800D01*
X187614800Y-138896800D02*
X187827200Y-139109200D01*
%TD*%
M02*
