%TF.GenerationSoftware,KiCad,Pcbnew,7.0.1*%
%TF.CreationDate,2024-02-04T21:46:43+03:00*%
%TF.ProjectId,delta_flop_arduino,64656c74-615f-4666-9c6f-705f61726475,rev?*%
%TF.SameCoordinates,Original*%
%TF.FileFunction,Legend,Top*%
%TF.FilePolarity,Positive*%
%FSLAX46Y46*%
G04 Gerber Fmt 4.6, Leading zero omitted, Abs format (unit mm)*
G04 Created by KiCad (PCBNEW 7.0.1) date 2024-02-04 21:46:43*
%MOMM*%
%LPD*%
G01*
G04 APERTURE LIST*
%ADD10C,0.150000*%
%ADD11C,0.029911*%
%ADD12C,0.600000*%
%ADD13C,0.120000*%
%ADD14C,0.254000*%
G04 APERTURE END LIST*
D10*
G36*
X137243878Y-107970678D02*
G01*
X137274283Y-108001083D01*
X137312777Y-108078069D01*
X137356161Y-108251605D01*
X137356161Y-108471232D01*
X137312777Y-108644764D01*
X137274283Y-108721753D01*
X137243875Y-108752161D01*
X137175361Y-108786419D01*
X137115534Y-108786419D01*
X137047016Y-108752160D01*
X137016608Y-108721751D01*
X136978116Y-108644766D01*
X136934733Y-108471232D01*
X136934733Y-108251606D01*
X136978116Y-108078072D01*
X137016611Y-108001083D01*
X137047016Y-107970677D01*
X137115532Y-107936419D01*
X137175360Y-107936419D01*
X137243878Y-107970678D01*
G37*
G36*
X133851450Y-108298273D02*
G01*
X133879971Y-108355313D01*
X133879971Y-108371362D01*
X133553781Y-108436600D01*
X133553781Y-108355315D01*
X133582302Y-108298272D01*
X133639342Y-108269752D01*
X133794408Y-108269752D01*
X133851450Y-108298273D01*
G37*
G36*
X141077212Y-106350678D02*
G01*
X141107617Y-106381083D01*
X141146111Y-106458069D01*
X141189495Y-106631605D01*
X141189495Y-106851232D01*
X141146111Y-107024764D01*
X141107617Y-107101753D01*
X141077209Y-107132161D01*
X141008695Y-107166419D01*
X140948868Y-107166419D01*
X140880350Y-107132160D01*
X140849942Y-107101751D01*
X140811450Y-107024766D01*
X140768067Y-106851232D01*
X140768067Y-106631606D01*
X140811450Y-106458072D01*
X140849945Y-106381083D01*
X140880350Y-106350677D01*
X140948866Y-106316419D01*
X141008694Y-106316419D01*
X141077212Y-106350678D01*
G37*
G36*
X137427590Y-107147448D02*
G01*
X137389647Y-107166419D01*
X137186963Y-107166419D01*
X137129921Y-107137898D01*
X137101400Y-107080857D01*
X137101400Y-107021029D01*
X137129921Y-106963986D01*
X137186961Y-106935466D01*
X137403312Y-106935466D01*
X137421196Y-106937397D01*
X137427590Y-106934200D01*
X137427590Y-107147448D01*
G37*
G36*
X135522828Y-106668724D02*
G01*
X135522828Y-107147448D01*
X135484885Y-107166419D01*
X135329820Y-107166419D01*
X135261302Y-107132160D01*
X135230894Y-107101751D01*
X135196638Y-107033237D01*
X135196638Y-106782934D01*
X135230897Y-106714416D01*
X135261302Y-106684010D01*
X135329818Y-106649752D01*
X135484884Y-106649752D01*
X135522828Y-106668724D01*
G37*
G36*
X134618066Y-107147448D02*
G01*
X134580123Y-107166419D01*
X134377439Y-107166419D01*
X134320397Y-107137898D01*
X134291876Y-107080857D01*
X134291876Y-107021029D01*
X134320397Y-106963986D01*
X134377437Y-106935466D01*
X134593788Y-106935466D01*
X134611672Y-106937397D01*
X134618066Y-106934200D01*
X134618066Y-107147448D01*
G37*
G36*
X131029592Y-106684011D02*
G01*
X131059997Y-106714416D01*
X131094256Y-106782932D01*
X131094256Y-107033236D01*
X131059997Y-107101753D01*
X131029589Y-107132161D01*
X130961075Y-107166419D01*
X130806010Y-107166419D01*
X130768066Y-107147447D01*
X130768066Y-106668724D01*
X130806008Y-106649752D01*
X130961074Y-106649752D01*
X131029592Y-106684011D01*
G37*
G36*
X129366837Y-106830780D02*
G01*
X129393330Y-106857273D01*
X129427589Y-106925789D01*
X129427589Y-107033236D01*
X129393330Y-107101753D01*
X129362922Y-107132161D01*
X129294408Y-107166419D01*
X129006161Y-107166419D01*
X129006161Y-106792609D01*
X129252324Y-106792609D01*
X129366837Y-106830780D01*
G37*
G36*
X129315306Y-106350678D02*
G01*
X129345711Y-106381083D01*
X129379970Y-106449599D01*
X129379970Y-106509427D01*
X129345711Y-106577944D01*
X129315304Y-106608351D01*
X129248073Y-106641966D01*
X129245197Y-106641863D01*
X129243938Y-106642609D01*
X129006161Y-106642609D01*
X129006161Y-106316419D01*
X129246788Y-106316419D01*
X129315306Y-106350678D01*
G37*
G36*
X127362925Y-106350678D02*
G01*
X127393330Y-106381083D01*
X127427589Y-106449599D01*
X127427589Y-106557046D01*
X127393330Y-106625563D01*
X127362923Y-106655970D01*
X127294408Y-106690228D01*
X127006161Y-106690228D01*
X127006161Y-106316419D01*
X127294407Y-106316419D01*
X127362925Y-106350678D01*
G37*
G36*
X131981973Y-105064011D02*
G01*
X132012378Y-105094416D01*
X132046637Y-105162932D01*
X132046637Y-105413236D01*
X132012378Y-105481753D01*
X131981970Y-105512161D01*
X131913456Y-105546419D01*
X131758391Y-105546419D01*
X131720447Y-105527447D01*
X131720447Y-105048724D01*
X131758389Y-105029752D01*
X131913455Y-105029752D01*
X131981973Y-105064011D01*
G37*
G36*
X142890649Y-104734590D02*
G01*
X142964761Y-104808702D01*
X143003255Y-104885688D01*
X143046639Y-105059224D01*
X143046639Y-105183613D01*
X143003255Y-105357145D01*
X142964761Y-105434134D01*
X142890649Y-105508247D01*
X142776134Y-105546419D01*
X142625211Y-105546419D01*
X142625211Y-104696419D01*
X142776136Y-104696419D01*
X142890649Y-104734590D01*
G37*
G36*
X141237115Y-105527448D02*
G01*
X141199172Y-105546419D01*
X140996488Y-105546419D01*
X140939446Y-105517898D01*
X140910925Y-105460857D01*
X140910925Y-105401029D01*
X140939446Y-105343986D01*
X140996486Y-105315466D01*
X141212837Y-105315466D01*
X141230721Y-105317397D01*
X141237115Y-105314200D01*
X141237115Y-105527448D01*
G37*
G36*
X139780022Y-105058273D02*
G01*
X139808543Y-105115313D01*
X139808543Y-105131362D01*
X139482353Y-105196600D01*
X139482353Y-105115315D01*
X139510874Y-105058272D01*
X139567914Y-105029752D01*
X139722980Y-105029752D01*
X139780022Y-105058273D01*
G37*
G36*
X132875259Y-105058273D02*
G01*
X132903780Y-105115313D01*
X132903780Y-105131362D01*
X132577590Y-105196600D01*
X132577590Y-105115315D01*
X132606111Y-105058272D01*
X132663151Y-105029752D01*
X132818217Y-105029752D01*
X132875259Y-105058273D01*
G37*
G36*
X126077210Y-105064011D02*
G01*
X126107615Y-105094416D01*
X126141874Y-105162932D01*
X126141874Y-105413236D01*
X126107615Y-105481753D01*
X126077207Y-105512161D01*
X126008693Y-105546419D01*
X125901247Y-105546419D01*
X125832729Y-105512160D01*
X125802321Y-105481751D01*
X125768065Y-105413237D01*
X125768065Y-105162934D01*
X125802324Y-105094416D01*
X125832729Y-105064010D01*
X125901245Y-105029752D01*
X126008692Y-105029752D01*
X126077210Y-105064011D01*
G37*
G36*
X138890648Y-105210780D02*
G01*
X138917141Y-105237273D01*
X138951400Y-105305789D01*
X138951400Y-105413236D01*
X138917141Y-105481753D01*
X138886733Y-105512161D01*
X138818219Y-105546419D01*
X138529972Y-105546419D01*
X138529972Y-105172609D01*
X138776135Y-105172609D01*
X138890648Y-105210780D01*
G37*
G36*
X138839117Y-104730678D02*
G01*
X138869522Y-104761083D01*
X138903781Y-104829599D01*
X138903781Y-104889427D01*
X138869522Y-104957944D01*
X138839115Y-104988351D01*
X138771884Y-105021966D01*
X138769008Y-105021863D01*
X138767749Y-105022609D01*
X138529972Y-105022609D01*
X138529972Y-104696419D01*
X138770599Y-104696419D01*
X138839117Y-104730678D01*
G37*
G36*
X132648640Y-103444011D02*
G01*
X132679045Y-103474416D01*
X132713304Y-103542932D01*
X132713304Y-103793236D01*
X132679045Y-103861753D01*
X132648637Y-103892161D01*
X132580123Y-103926419D01*
X132425058Y-103926419D01*
X132387114Y-103907447D01*
X132387114Y-103428724D01*
X132425056Y-103409752D01*
X132580122Y-103409752D01*
X132648640Y-103444011D01*
G37*
G36*
X131743878Y-103444011D02*
G01*
X131774283Y-103474416D01*
X131808542Y-103542932D01*
X131808542Y-103793236D01*
X131774283Y-103861753D01*
X131743875Y-103892161D01*
X131675361Y-103926419D01*
X131520296Y-103926419D01*
X131482352Y-103907447D01*
X131482352Y-103428724D01*
X131520294Y-103409752D01*
X131675360Y-103409752D01*
X131743878Y-103444011D01*
G37*
G36*
X140220070Y-103444011D02*
G01*
X140250475Y-103474416D01*
X140284734Y-103542932D01*
X140284734Y-103793236D01*
X140250475Y-103861753D01*
X140220067Y-103892161D01*
X140151553Y-103926419D01*
X140044107Y-103926419D01*
X139975589Y-103892160D01*
X139945181Y-103861751D01*
X139910925Y-103793237D01*
X139910925Y-103542934D01*
X139945184Y-103474416D01*
X139975589Y-103444010D01*
X140044105Y-103409752D01*
X140151552Y-103409752D01*
X140220070Y-103444011D01*
G37*
G36*
X138760924Y-103907448D02*
G01*
X138722981Y-103926419D01*
X138520297Y-103926419D01*
X138463255Y-103897898D01*
X138434734Y-103840857D01*
X138434734Y-103781029D01*
X138463255Y-103723986D01*
X138520295Y-103695466D01*
X138736646Y-103695466D01*
X138754530Y-103697397D01*
X138760924Y-103694200D01*
X138760924Y-103907448D01*
G37*
G36*
X130839116Y-103444011D02*
G01*
X130869521Y-103474416D01*
X130903780Y-103542932D01*
X130903780Y-103793236D01*
X130869521Y-103861753D01*
X130839113Y-103892161D01*
X130770599Y-103926419D01*
X130663153Y-103926419D01*
X130594635Y-103892160D01*
X130564227Y-103861751D01*
X130529971Y-103793237D01*
X130529971Y-103542934D01*
X130564230Y-103474416D01*
X130594635Y-103444010D01*
X130663151Y-103409752D01*
X130770598Y-103409752D01*
X130839116Y-103444011D01*
G37*
G36*
X145862711Y-109454157D02*
G01*
X124190089Y-109454157D01*
X124190089Y-107864244D01*
X132448285Y-107864244D01*
X132784292Y-108872268D01*
X132783987Y-108880716D01*
X132791119Y-108892749D01*
X132791991Y-108895364D01*
X132796599Y-108901995D01*
X132806444Y-108918604D01*
X132809050Y-108919910D01*
X132810714Y-108922304D01*
X132828556Y-108929684D01*
X132845820Y-108938336D01*
X132848719Y-108938025D01*
X132851413Y-108939140D01*
X132870400Y-108935705D01*
X132889613Y-108933649D01*
X132891886Y-108931818D01*
X132894753Y-108931300D01*
X132908871Y-108918143D01*
X132923920Y-108906028D01*
X132924842Y-108903261D01*
X132926975Y-108901274D01*
X132931741Y-108882563D01*
X133110596Y-108346000D01*
X133401067Y-108346000D01*
X133403781Y-108352544D01*
X133403781Y-108508272D01*
X133402692Y-108510189D01*
X133403781Y-108530119D01*
X133403781Y-108714520D01*
X133401850Y-108732405D01*
X133408706Y-108746118D01*
X133413024Y-108760821D01*
X133418377Y-108765459D01*
X133450773Y-108830251D01*
X133450671Y-108833165D01*
X133460532Y-108849769D01*
X133464140Y-108856984D01*
X133466014Y-108858998D01*
X133473162Y-108871034D01*
X133480726Y-108874816D01*
X133486484Y-108881006D01*
X133500037Y-108884471D01*
X133584489Y-108926697D01*
X133599616Y-108936419D01*
X133614946Y-108936419D01*
X133630029Y-108939133D01*
X133636573Y-108936419D01*
X133808074Y-108936419D01*
X133825958Y-108938350D01*
X133839671Y-108931493D01*
X133854374Y-108927176D01*
X133859012Y-108921822D01*
X133950536Y-108876060D01*
X133974558Y-108853716D01*
X133985469Y-108811045D01*
X133971579Y-108769250D01*
X133937297Y-108741598D01*
X133893508Y-108736870D01*
X133794409Y-108786419D01*
X133639344Y-108786419D01*
X133582302Y-108757898D01*
X133553781Y-108700857D01*
X133553781Y-108589570D01*
X133957049Y-108508916D01*
X133966095Y-108510217D01*
X133978210Y-108504684D01*
X133980252Y-108504276D01*
X133987985Y-108500220D01*
X134006159Y-108491921D01*
X134007352Y-108490063D01*
X134009306Y-108489039D01*
X134019163Y-108471685D01*
X134029971Y-108454869D01*
X134029971Y-108452660D01*
X134031060Y-108450743D01*
X134029971Y-108430813D01*
X134029971Y-108393619D01*
X134305829Y-108393619D01*
X134308543Y-108400163D01*
X134308543Y-108872201D01*
X134317786Y-108903679D01*
X134351072Y-108932521D01*
X134394667Y-108938789D01*
X134434731Y-108920493D01*
X134458543Y-108883441D01*
X134458543Y-108808224D01*
X134877005Y-108808224D01*
X134880546Y-108824503D01*
X134881735Y-108841117D01*
X134885153Y-108845683D01*
X134886367Y-108851261D01*
X134898150Y-108863044D01*
X134908130Y-108876375D01*
X134913474Y-108878368D01*
X134936022Y-108900916D01*
X134936834Y-108903679D01*
X134947383Y-108912819D01*
X134955748Y-108923994D01*
X134963703Y-108926961D01*
X134970120Y-108932521D01*
X134978524Y-108933729D01*
X134985976Y-108937798D01*
X134991666Y-108937391D01*
X134997015Y-108939386D01*
X135005312Y-108937580D01*
X135013715Y-108938789D01*
X135021439Y-108935261D01*
X135029907Y-108934656D01*
X135034473Y-108931237D01*
X135040052Y-108930024D01*
X135046056Y-108924019D01*
X135053779Y-108920493D01*
X135058370Y-108913348D01*
X135065165Y-108908262D01*
X135067158Y-108902917D01*
X135099453Y-108870622D01*
X135112784Y-108860644D01*
X135118606Y-108845034D01*
X135126589Y-108830415D01*
X135126182Y-108824725D01*
X135128177Y-108819377D01*
X135124635Y-108803094D01*
X135123447Y-108786484D01*
X135120028Y-108781917D01*
X135118815Y-108776340D01*
X135107032Y-108764557D01*
X135097053Y-108751226D01*
X135091708Y-108749232D01*
X135069158Y-108726681D01*
X135068348Y-108723920D01*
X135057797Y-108714777D01*
X135049433Y-108703605D01*
X135041479Y-108700638D01*
X135035062Y-108695078D01*
X135026658Y-108693869D01*
X135019207Y-108689801D01*
X135013514Y-108690208D01*
X135008166Y-108688213D01*
X134999869Y-108690018D01*
X134991467Y-108688810D01*
X134983742Y-108692337D01*
X134975276Y-108692943D01*
X134970708Y-108696362D01*
X134965129Y-108697576D01*
X134959125Y-108703579D01*
X134951403Y-108707106D01*
X134946812Y-108714249D01*
X134940017Y-108719336D01*
X134938022Y-108724682D01*
X134905728Y-108756977D01*
X134892397Y-108766957D01*
X134886575Y-108782564D01*
X134878592Y-108797186D01*
X134878999Y-108802877D01*
X134877005Y-108808224D01*
X134458543Y-108808224D01*
X134458543Y-108402934D01*
X134492802Y-108334416D01*
X134523207Y-108304010D01*
X134591723Y-108269752D01*
X134680039Y-108269752D01*
X134711517Y-108260509D01*
X134740359Y-108227223D01*
X134746627Y-108183628D01*
X134731219Y-108149888D01*
X135353045Y-108149888D01*
X135366935Y-108191684D01*
X135401217Y-108219336D01*
X135445006Y-108224064D01*
X135551529Y-108170801D01*
X135563861Y-108168119D01*
X135578488Y-108153491D01*
X135593606Y-108139430D01*
X135593968Y-108138011D01*
X135641876Y-108090104D01*
X135641876Y-108786419D01*
X135420380Y-108786419D01*
X135388902Y-108795662D01*
X135360060Y-108828948D01*
X135353792Y-108872543D01*
X135372088Y-108912607D01*
X135409140Y-108936419D01*
X135711516Y-108936419D01*
X135728000Y-108938789D01*
X135733190Y-108936419D01*
X136013372Y-108936419D01*
X136044850Y-108927176D01*
X136073692Y-108893890D01*
X136079960Y-108850295D01*
X136061664Y-108810231D01*
X136058541Y-108808224D01*
X136305576Y-108808224D01*
X136309117Y-108824503D01*
X136310306Y-108841117D01*
X136313724Y-108845683D01*
X136314938Y-108851261D01*
X136326721Y-108863044D01*
X136336701Y-108876375D01*
X136342045Y-108878368D01*
X136364593Y-108900916D01*
X136365405Y-108903679D01*
X136375954Y-108912819D01*
X136384319Y-108923994D01*
X136392274Y-108926961D01*
X136398691Y-108932521D01*
X136407095Y-108933729D01*
X136414547Y-108937798D01*
X136420237Y-108937391D01*
X136425586Y-108939386D01*
X136433883Y-108937580D01*
X136442286Y-108938789D01*
X136450010Y-108935261D01*
X136458478Y-108934656D01*
X136463044Y-108931237D01*
X136468623Y-108930024D01*
X136474627Y-108924019D01*
X136482350Y-108920493D01*
X136486941Y-108913348D01*
X136493736Y-108908262D01*
X136495729Y-108902917D01*
X136528024Y-108870622D01*
X136541355Y-108860644D01*
X136547177Y-108845034D01*
X136555160Y-108830415D01*
X136554753Y-108824725D01*
X136556748Y-108819377D01*
X136553206Y-108803094D01*
X136552018Y-108786484D01*
X136548599Y-108781917D01*
X136547386Y-108776340D01*
X136535603Y-108764557D01*
X136525624Y-108751226D01*
X136520279Y-108749232D01*
X136497729Y-108726681D01*
X136496919Y-108723920D01*
X136486368Y-108714777D01*
X136478004Y-108703605D01*
X136470050Y-108700638D01*
X136463633Y-108695078D01*
X136455229Y-108693869D01*
X136447778Y-108689801D01*
X136442085Y-108690208D01*
X136436737Y-108688213D01*
X136428440Y-108690018D01*
X136420038Y-108688810D01*
X136412313Y-108692337D01*
X136403847Y-108692943D01*
X136399279Y-108696362D01*
X136393700Y-108697576D01*
X136387696Y-108703579D01*
X136379974Y-108707106D01*
X136375383Y-108714249D01*
X136368588Y-108719336D01*
X136366593Y-108724682D01*
X136334299Y-108756977D01*
X136320968Y-108766957D01*
X136315146Y-108782564D01*
X136307163Y-108797186D01*
X136307570Y-108802877D01*
X136305576Y-108808224D01*
X136058541Y-108808224D01*
X136024612Y-108786419D01*
X135791876Y-108786419D01*
X135791876Y-108477292D01*
X136781631Y-108477292D01*
X136784733Y-108489700D01*
X136784733Y-108491248D01*
X136787337Y-108500117D01*
X136831351Y-108676172D01*
X136830421Y-108684786D01*
X136836587Y-108697119D01*
X136837206Y-108699592D01*
X136841388Y-108706719D01*
X136883683Y-108791309D01*
X136886366Y-108803640D01*
X136900985Y-108818260D01*
X136915055Y-108833386D01*
X136916473Y-108833748D01*
X136942907Y-108860183D01*
X136949352Y-108871034D01*
X136967863Y-108880289D01*
X136985974Y-108890179D01*
X136987433Y-108890074D01*
X137060679Y-108926697D01*
X137075806Y-108936419D01*
X137091136Y-108936419D01*
X137106219Y-108939133D01*
X137112763Y-108936419D01*
X137189026Y-108936419D01*
X137206910Y-108938350D01*
X137220623Y-108931493D01*
X137235326Y-108927176D01*
X137239964Y-108921822D01*
X137313432Y-108885087D01*
X137325766Y-108882405D01*
X137340397Y-108867772D01*
X137355510Y-108853716D01*
X137355872Y-108852296D01*
X137382306Y-108825862D01*
X137393157Y-108819418D01*
X137402413Y-108800904D01*
X137412303Y-108782794D01*
X137412198Y-108781334D01*
X137444650Y-108716431D01*
X137450962Y-108710497D01*
X137454306Y-108697119D01*
X137455446Y-108694840D01*
X137456909Y-108686707D01*
X137500928Y-108510629D01*
X137506161Y-108502488D01*
X137506161Y-108489700D01*
X137506537Y-108488196D01*
X137506161Y-108478950D01*
X137506161Y-108254714D01*
X137509263Y-108245545D01*
X137506161Y-108233137D01*
X137506161Y-108231589D01*
X137503556Y-108222719D01*
X137459542Y-108046662D01*
X137460472Y-108038051D01*
X137454306Y-108025720D01*
X137453688Y-108023245D01*
X137449500Y-108016106D01*
X137407210Y-107931526D01*
X137404528Y-107919196D01*
X137389908Y-107904576D01*
X137375839Y-107889451D01*
X137374420Y-107889088D01*
X137347985Y-107862653D01*
X137341542Y-107851804D01*
X137323041Y-107842553D01*
X137304919Y-107832658D01*
X137303458Y-107832762D01*
X137230217Y-107796142D01*
X137215088Y-107786419D01*
X137199758Y-107786419D01*
X137184675Y-107783705D01*
X137178131Y-107786419D01*
X137101859Y-107786419D01*
X137083984Y-107784489D01*
X137070274Y-107791343D01*
X137055568Y-107795662D01*
X137050928Y-107801016D01*
X136977459Y-107837750D01*
X136965129Y-107840433D01*
X136950509Y-107855052D01*
X136935384Y-107869122D01*
X136935021Y-107870540D01*
X136908586Y-107896975D01*
X136897737Y-107903419D01*
X136888486Y-107921919D01*
X136878591Y-107940042D01*
X136878695Y-107941502D01*
X136846243Y-108006406D01*
X136839932Y-108012341D01*
X136836587Y-108025718D01*
X136835448Y-108027998D01*
X136833984Y-108036130D01*
X136789965Y-108212207D01*
X136784733Y-108220349D01*
X136784733Y-108233137D01*
X136784357Y-108234641D01*
X136784733Y-108243887D01*
X136784733Y-108468123D01*
X136781631Y-108477292D01*
X135791876Y-108477292D01*
X135791876Y-107872845D01*
X135795031Y-107862732D01*
X135791876Y-107851279D01*
X135791876Y-107850637D01*
X135789017Y-107840902D01*
X135783334Y-107820270D01*
X135782825Y-107819814D01*
X135782633Y-107819159D01*
X135766473Y-107805157D01*
X135750538Y-107790873D01*
X135749863Y-107790764D01*
X135749347Y-107790317D01*
X135728199Y-107787276D01*
X135707054Y-107783872D01*
X135706426Y-107784145D01*
X135705752Y-107784049D01*
X135686318Y-107792923D01*
X135666688Y-107801493D01*
X135666309Y-107802061D01*
X135665688Y-107802345D01*
X135654122Y-107820341D01*
X135563353Y-107956494D01*
X135481972Y-108037875D01*
X135387977Y-108084873D01*
X135363956Y-108107217D01*
X135353045Y-108149888D01*
X134731219Y-108149888D01*
X134728331Y-108143564D01*
X134691279Y-108119752D01*
X134578050Y-108119752D01*
X134560175Y-108117822D01*
X134546465Y-108124676D01*
X134531759Y-108128995D01*
X134527119Y-108134349D01*
X134454617Y-108170600D01*
X134449300Y-108152492D01*
X134416014Y-108123650D01*
X134372419Y-108117382D01*
X134332355Y-108135678D01*
X134308543Y-108172730D01*
X134308543Y-108378536D01*
X134305829Y-108393619D01*
X134029971Y-108393619D01*
X134029971Y-108341640D01*
X134031901Y-108323765D01*
X134025046Y-108310055D01*
X134020728Y-108295349D01*
X134015373Y-108290709D01*
X133982978Y-108225918D01*
X133983081Y-108223006D01*
X133973221Y-108206405D01*
X133969612Y-108199186D01*
X133967736Y-108197169D01*
X133960590Y-108185137D01*
X133953025Y-108181354D01*
X133947268Y-108175165D01*
X133933714Y-108171699D01*
X133849265Y-108129475D01*
X133834136Y-108119752D01*
X133818806Y-108119752D01*
X133803723Y-108117038D01*
X133797179Y-108119752D01*
X133625669Y-108119752D01*
X133607794Y-108117822D01*
X133594084Y-108124676D01*
X133579378Y-108128995D01*
X133574738Y-108134349D01*
X133509947Y-108166744D01*
X133507035Y-108166642D01*
X133490434Y-108176501D01*
X133483215Y-108180111D01*
X133481198Y-108181986D01*
X133469166Y-108189133D01*
X133465383Y-108196697D01*
X133459194Y-108202455D01*
X133455728Y-108216008D01*
X133413504Y-108300457D01*
X133403781Y-108315587D01*
X133403781Y-108330917D01*
X133401067Y-108346000D01*
X133110596Y-108346000D01*
X133267627Y-107874908D01*
X133268812Y-107842122D01*
X133246355Y-107804234D01*
X133206979Y-107784502D01*
X133163185Y-107789190D01*
X133128879Y-107816810D01*
X132859733Y-108624247D01*
X132594142Y-107827473D01*
X132575419Y-107800533D01*
X132534720Y-107783697D01*
X132491380Y-107791537D01*
X132459158Y-107821564D01*
X132448285Y-107864244D01*
X124190089Y-107864244D01*
X124190089Y-107577507D01*
X131424473Y-107577507D01*
X131438363Y-107619303D01*
X131472645Y-107646955D01*
X131516434Y-107651683D01*
X131622957Y-107598420D01*
X131635289Y-107595738D01*
X131649916Y-107581110D01*
X131665034Y-107567049D01*
X131665396Y-107565630D01*
X131694060Y-107536966D01*
X131706904Y-107527815D01*
X131713421Y-107511521D01*
X131721826Y-107496129D01*
X131721485Y-107491362D01*
X131770965Y-107367661D01*
X138426211Y-107367661D01*
X138429354Y-107411592D01*
X138455748Y-107446851D01*
X138497015Y-107462243D01*
X138540052Y-107452881D01*
X138596594Y-107396338D01*
X138607444Y-107389895D01*
X138616698Y-107371385D01*
X138626589Y-107353272D01*
X138626484Y-107351813D01*
X138663107Y-107278567D01*
X138672829Y-107263441D01*
X138672829Y-107252543D01*
X139615697Y-107252543D01*
X139619224Y-107260266D01*
X139619830Y-107268735D01*
X139628193Y-107279907D01*
X139633993Y-107292607D01*
X139641136Y-107297197D01*
X139646224Y-107303994D01*
X139659300Y-107308871D01*
X139671045Y-107316419D01*
X139679536Y-107316419D01*
X139687491Y-107319386D01*
X139701130Y-107316419D01*
X140322896Y-107316419D01*
X140354374Y-107307176D01*
X140383216Y-107273890D01*
X140389484Y-107230295D01*
X140371188Y-107190231D01*
X140334136Y-107166419D01*
X139874133Y-107166419D01*
X140183259Y-106857292D01*
X140614965Y-106857292D01*
X140618067Y-106869700D01*
X140618067Y-106871248D01*
X140620671Y-106880117D01*
X140664685Y-107056172D01*
X140663755Y-107064786D01*
X140669921Y-107077119D01*
X140670540Y-107079592D01*
X140674722Y-107086719D01*
X140717017Y-107171309D01*
X140719700Y-107183640D01*
X140734319Y-107198260D01*
X140748389Y-107213386D01*
X140749807Y-107213748D01*
X140776241Y-107240183D01*
X140782686Y-107251034D01*
X140801197Y-107260289D01*
X140819308Y-107270179D01*
X140820767Y-107270074D01*
X140894013Y-107306697D01*
X140909140Y-107316419D01*
X140924470Y-107316419D01*
X140939553Y-107319133D01*
X140946097Y-107316419D01*
X141022360Y-107316419D01*
X141040244Y-107318350D01*
X141053957Y-107311493D01*
X141068660Y-107307176D01*
X141073298Y-107301822D01*
X141146766Y-107265087D01*
X141159100Y-107262405D01*
X141168961Y-107252543D01*
X141520459Y-107252543D01*
X141523986Y-107260266D01*
X141524592Y-107268735D01*
X141532955Y-107279907D01*
X141538755Y-107292607D01*
X141545898Y-107297197D01*
X141550986Y-107303994D01*
X141564062Y-107308871D01*
X141575807Y-107316419D01*
X141584298Y-107316419D01*
X141592253Y-107319386D01*
X141605892Y-107316419D01*
X142227658Y-107316419D01*
X142259136Y-107307176D01*
X142287978Y-107273890D01*
X142294246Y-107230295D01*
X142275950Y-107190231D01*
X142238898Y-107166419D01*
X141778895Y-107166419D01*
X142026104Y-106919209D01*
X142520459Y-106919209D01*
X142522237Y-106923103D01*
X142522083Y-106927382D01*
X142531268Y-106942878D01*
X142538755Y-106959273D01*
X142542357Y-106961588D01*
X142544540Y-106965270D01*
X142560641Y-106973338D01*
X142575807Y-106983085D01*
X142580091Y-106983085D01*
X142583916Y-106985002D01*
X142601827Y-106983085D01*
X142999019Y-106983085D01*
X142999019Y-107252201D01*
X143008262Y-107283679D01*
X143041548Y-107312521D01*
X143085143Y-107318789D01*
X143125207Y-107300493D01*
X143149019Y-107263441D01*
X143149019Y-106983085D01*
X143227658Y-106983085D01*
X143259136Y-106973842D01*
X143287978Y-106940556D01*
X143294246Y-106896961D01*
X143275950Y-106856897D01*
X143238898Y-106833085D01*
X143149019Y-106833085D01*
X143149019Y-106563970D01*
X143139776Y-106532492D01*
X143106490Y-106503650D01*
X143062895Y-106497382D01*
X143022831Y-106515678D01*
X142999019Y-106552730D01*
X142999019Y-106833085D01*
X142701886Y-106833085D01*
X142910485Y-106207289D01*
X142911670Y-106174503D01*
X142889213Y-106136615D01*
X142849837Y-106116883D01*
X142806043Y-106121571D01*
X142771737Y-106149191D01*
X142531389Y-106870233D01*
X142526727Y-106875614D01*
X142524551Y-106890747D01*
X142523268Y-106894597D01*
X142523022Y-106901376D01*
X142520459Y-106919209D01*
X142026104Y-106919209D01*
X142219435Y-106725877D01*
X142233444Y-106714599D01*
X142238291Y-106700057D01*
X142245637Y-106686605D01*
X142245131Y-106679537D01*
X142285054Y-106559769D01*
X142291876Y-106549155D01*
X142291876Y-106528476D01*
X142292622Y-106507836D01*
X142291876Y-106506577D01*
X142291876Y-106435926D01*
X142293806Y-106418051D01*
X142286951Y-106404341D01*
X142282633Y-106389635D01*
X142277278Y-106384995D01*
X142240544Y-106311526D01*
X142237862Y-106299196D01*
X142223242Y-106284576D01*
X142209173Y-106269451D01*
X142207754Y-106269088D01*
X142181319Y-106242653D01*
X142174876Y-106231804D01*
X142156375Y-106222553D01*
X142138253Y-106212658D01*
X142136792Y-106212762D01*
X142063551Y-106176142D01*
X142048422Y-106166419D01*
X142033092Y-106166419D01*
X142018009Y-106163705D01*
X142011465Y-106166419D01*
X141792336Y-106166419D01*
X141774461Y-106164489D01*
X141760751Y-106171343D01*
X141746045Y-106175662D01*
X141741405Y-106181016D01*
X141667936Y-106217750D01*
X141655606Y-106220433D01*
X141640986Y-106235052D01*
X141625861Y-106249122D01*
X141625498Y-106250540D01*
X141584791Y-106291248D01*
X141569068Y-106320042D01*
X141572211Y-106363973D01*
X141598605Y-106399232D01*
X141639872Y-106414624D01*
X141682909Y-106405262D01*
X141737493Y-106350677D01*
X141806009Y-106316419D01*
X142008694Y-106316419D01*
X142077212Y-106350678D01*
X142107617Y-106381083D01*
X142141876Y-106449599D01*
X142141876Y-106514963D01*
X142103704Y-106629476D01*
X141558330Y-107174850D01*
X141555569Y-107175662D01*
X141542906Y-107190275D01*
X141537172Y-107196010D01*
X141535867Y-107198399D01*
X141526727Y-107208948D01*
X141525518Y-107217350D01*
X141521449Y-107224804D01*
X141522445Y-107238728D01*
X141520459Y-107252543D01*
X141168961Y-107252543D01*
X141173731Y-107247772D01*
X141188844Y-107233716D01*
X141189206Y-107232296D01*
X141215640Y-107205862D01*
X141226491Y-107199418D01*
X141235747Y-107180904D01*
X141245637Y-107162794D01*
X141245532Y-107161334D01*
X141277984Y-107096431D01*
X141284296Y-107090497D01*
X141287640Y-107077119D01*
X141288780Y-107074840D01*
X141290243Y-107066707D01*
X141334262Y-106890629D01*
X141339495Y-106882488D01*
X141339495Y-106869700D01*
X141339871Y-106868196D01*
X141339495Y-106858950D01*
X141339495Y-106634714D01*
X141342597Y-106625545D01*
X141339495Y-106613137D01*
X141339495Y-106611589D01*
X141336890Y-106602719D01*
X141292876Y-106426662D01*
X141293806Y-106418051D01*
X141287640Y-106405720D01*
X141287022Y-106403245D01*
X141282834Y-106396106D01*
X141240544Y-106311526D01*
X141237862Y-106299196D01*
X141223242Y-106284576D01*
X141209173Y-106269451D01*
X141207754Y-106269088D01*
X141181319Y-106242653D01*
X141174876Y-106231804D01*
X141156375Y-106222553D01*
X141138253Y-106212658D01*
X141136792Y-106212762D01*
X141063551Y-106176142D01*
X141048422Y-106166419D01*
X141033092Y-106166419D01*
X141018009Y-106163705D01*
X141011465Y-106166419D01*
X140935193Y-106166419D01*
X140917318Y-106164489D01*
X140903608Y-106171343D01*
X140888902Y-106175662D01*
X140884262Y-106181016D01*
X140810793Y-106217750D01*
X140798463Y-106220433D01*
X140783843Y-106235052D01*
X140768718Y-106249122D01*
X140768355Y-106250540D01*
X140741920Y-106276975D01*
X140731071Y-106283419D01*
X140721820Y-106301919D01*
X140711925Y-106320042D01*
X140712029Y-106321502D01*
X140679577Y-106386406D01*
X140673266Y-106392341D01*
X140669921Y-106405718D01*
X140668782Y-106407998D01*
X140667318Y-106416130D01*
X140623299Y-106592207D01*
X140618067Y-106600349D01*
X140618067Y-106613137D01*
X140617691Y-106614641D01*
X140618067Y-106623887D01*
X140618067Y-106848123D01*
X140614965Y-106857292D01*
X140183259Y-106857292D01*
X140314673Y-106725877D01*
X140328682Y-106714599D01*
X140333529Y-106700057D01*
X140340875Y-106686605D01*
X140340369Y-106679537D01*
X140380292Y-106559769D01*
X140387114Y-106549155D01*
X140387114Y-106528476D01*
X140387860Y-106507836D01*
X140387114Y-106506577D01*
X140387114Y-106435926D01*
X140389044Y-106418051D01*
X140382189Y-106404341D01*
X140377871Y-106389635D01*
X140372516Y-106384995D01*
X140335782Y-106311526D01*
X140333100Y-106299196D01*
X140318480Y-106284576D01*
X140304411Y-106269451D01*
X140302992Y-106269088D01*
X140276557Y-106242653D01*
X140270114Y-106231804D01*
X140251613Y-106222553D01*
X140233491Y-106212658D01*
X140232030Y-106212762D01*
X140158789Y-106176142D01*
X140143660Y-106166419D01*
X140128330Y-106166419D01*
X140113247Y-106163705D01*
X140106703Y-106166419D01*
X139887574Y-106166419D01*
X139869699Y-106164489D01*
X139855989Y-106171343D01*
X139841283Y-106175662D01*
X139836643Y-106181016D01*
X139763174Y-106217750D01*
X139750844Y-106220433D01*
X139736224Y-106235052D01*
X139721099Y-106249122D01*
X139720736Y-106250540D01*
X139680029Y-106291248D01*
X139664306Y-106320042D01*
X139667449Y-106363973D01*
X139693843Y-106399232D01*
X139735110Y-106414624D01*
X139778147Y-106405262D01*
X139832731Y-106350677D01*
X139901247Y-106316419D01*
X140103932Y-106316419D01*
X140172450Y-106350678D01*
X140202855Y-106381083D01*
X140237114Y-106449599D01*
X140237114Y-106514963D01*
X140198942Y-106629476D01*
X139653568Y-107174850D01*
X139650807Y-107175662D01*
X139638144Y-107190275D01*
X139632410Y-107196010D01*
X139631105Y-107198399D01*
X139621965Y-107208948D01*
X139620756Y-107217350D01*
X139616687Y-107224804D01*
X139617683Y-107238728D01*
X139615697Y-107252543D01*
X138672829Y-107252543D01*
X138672829Y-107248111D01*
X138675543Y-107233028D01*
X138672829Y-107226484D01*
X138672829Y-107183018D01*
X138663586Y-107151540D01*
X138630300Y-107122698D01*
X138586705Y-107116430D01*
X138546641Y-107134726D01*
X138522829Y-107171778D01*
X138522829Y-107223713D01*
X138488570Y-107292230D01*
X138441934Y-107338867D01*
X138426211Y-107367661D01*
X131770965Y-107367661D01*
X131802706Y-107288309D01*
X131803909Y-107287383D01*
X131805457Y-107283045D01*
X131808760Y-107279835D01*
X131812446Y-107263959D01*
X131814325Y-107259263D01*
X131814460Y-107257838D01*
X132053037Y-106589824D01*
X132054920Y-106557071D01*
X132033273Y-106518714D01*
X131994326Y-106498148D01*
X131950443Y-106501903D01*
X131915556Y-106528788D01*
X131740684Y-107018428D01*
X131569594Y-106539373D01*
X131550303Y-106512838D01*
X131509255Y-106496871D01*
X131466092Y-106505631D01*
X131434515Y-106536336D01*
X131424553Y-106579238D01*
X131660508Y-107239915D01*
X131581528Y-107437366D01*
X131553400Y-107465494D01*
X131459405Y-107512492D01*
X131435384Y-107534836D01*
X131424473Y-107577507D01*
X124190089Y-107577507D01*
X124190089Y-106776352D01*
X126853791Y-106776352D01*
X126856161Y-106781542D01*
X126856161Y-107252201D01*
X126865404Y-107283679D01*
X126898690Y-107312521D01*
X126942285Y-107318789D01*
X126982349Y-107300493D01*
X127006161Y-107263441D01*
X127006161Y-106840228D01*
X127308073Y-106840228D01*
X127325957Y-106842159D01*
X127339670Y-106835302D01*
X127354373Y-106830985D01*
X127359011Y-106825631D01*
X127390927Y-106809673D01*
X127805440Y-106809673D01*
X127808542Y-106822081D01*
X127808542Y-106823629D01*
X127811146Y-106832498D01*
X127855160Y-107008553D01*
X127854230Y-107017167D01*
X127860396Y-107029500D01*
X127861015Y-107031973D01*
X127865197Y-107039100D01*
X127907492Y-107123690D01*
X127910175Y-107136022D01*
X127924804Y-107150651D01*
X127938864Y-107165767D01*
X127940282Y-107166129D01*
X128018130Y-107243978D01*
X128029409Y-107257987D01*
X128043950Y-107262834D01*
X128057403Y-107270180D01*
X128064471Y-107269674D01*
X128184238Y-107309597D01*
X128194853Y-107316419D01*
X128215532Y-107316419D01*
X128236172Y-107317165D01*
X128237431Y-107316419D01*
X128302711Y-107316419D01*
X128314938Y-107319534D01*
X128334550Y-107312996D01*
X128354373Y-107307176D01*
X128355331Y-107306069D01*
X128474855Y-107266228D01*
X128492432Y-107262405D01*
X128502292Y-107252543D01*
X128853791Y-107252543D01*
X128860710Y-107267695D01*
X128865404Y-107283679D01*
X128869716Y-107287415D01*
X128872087Y-107292607D01*
X128886103Y-107301614D01*
X128898690Y-107312521D01*
X128904336Y-107313332D01*
X128909139Y-107316419D01*
X128925801Y-107316419D01*
X128942285Y-107318789D01*
X128947475Y-107316419D01*
X129308073Y-107316419D01*
X129325957Y-107318350D01*
X129339670Y-107311493D01*
X129354373Y-107307176D01*
X129359011Y-107301822D01*
X129432479Y-107265087D01*
X129444813Y-107262405D01*
X129459444Y-107247772D01*
X129474557Y-107233716D01*
X129474919Y-107232296D01*
X129501353Y-107205862D01*
X129512204Y-107199418D01*
X129521460Y-107180904D01*
X129531350Y-107162794D01*
X129531245Y-107161334D01*
X129567867Y-107088090D01*
X129577589Y-107072964D01*
X129577589Y-107057634D01*
X129580303Y-107042551D01*
X129577589Y-107036007D01*
X129577589Y-106912116D01*
X129579519Y-106894241D01*
X129572664Y-106880531D01*
X129568346Y-106865825D01*
X129562991Y-106861185D01*
X129526257Y-106787716D01*
X129523575Y-106775386D01*
X129508955Y-106760766D01*
X129494886Y-106745641D01*
X129493467Y-106745278D01*
X129463237Y-106715048D01*
X129451960Y-106701041D01*
X129439050Y-106696737D01*
X129453735Y-106682052D01*
X129464585Y-106675609D01*
X129473839Y-106657099D01*
X129483730Y-106638986D01*
X129483625Y-106637527D01*
X129489826Y-106625126D01*
X130614949Y-106625126D01*
X130618066Y-106634505D01*
X130618066Y-107192490D01*
X130617337Y-107213165D01*
X130618066Y-107214392D01*
X130618066Y-107252201D01*
X130627309Y-107283679D01*
X130660595Y-107312521D01*
X130704190Y-107318789D01*
X130741375Y-107301807D01*
X130751155Y-107306697D01*
X130766282Y-107316419D01*
X130781612Y-107316419D01*
X130796695Y-107319133D01*
X130803239Y-107316419D01*
X130974740Y-107316419D01*
X130992624Y-107318350D01*
X131006337Y-107311493D01*
X131021040Y-107307176D01*
X131025678Y-107301822D01*
X131099146Y-107265087D01*
X131111480Y-107262405D01*
X131126111Y-107247772D01*
X131141224Y-107233716D01*
X131141586Y-107232296D01*
X131168020Y-107205862D01*
X131178871Y-107199418D01*
X131188127Y-107180904D01*
X131198017Y-107162794D01*
X131197912Y-107161334D01*
X131234534Y-107088090D01*
X131244256Y-107072964D01*
X131244256Y-107057634D01*
X131246970Y-107042551D01*
X131244256Y-107036007D01*
X131244256Y-106769259D01*
X131246186Y-106751384D01*
X131239331Y-106737674D01*
X131235013Y-106722968D01*
X131229658Y-106718328D01*
X131192924Y-106644859D01*
X131190242Y-106632529D01*
X131175622Y-106617909D01*
X131161553Y-106602784D01*
X131160134Y-106602421D01*
X131133699Y-106575986D01*
X131127256Y-106565137D01*
X131108755Y-106555886D01*
X131090633Y-106545991D01*
X131089172Y-106546095D01*
X131015931Y-106509475D01*
X131000802Y-106499752D01*
X130985472Y-106499752D01*
X130970389Y-106497038D01*
X130963845Y-106499752D01*
X130792335Y-106499752D01*
X130774460Y-106497822D01*
X130768066Y-106501019D01*
X130768066Y-106253179D01*
X133044361Y-106253179D01*
X133046638Y-106258058D01*
X133046638Y-107252201D01*
X133055881Y-107283679D01*
X133089167Y-107312521D01*
X133132762Y-107318789D01*
X133172826Y-107300493D01*
X133196638Y-107263441D01*
X133196638Y-106579486D01*
X133386751Y-106986871D01*
X133395478Y-107006404D01*
X133405408Y-107012902D01*
X133413254Y-107021807D01*
X133423456Y-107024711D01*
X133432333Y-107030520D01*
X133444201Y-107030617D01*
X133455614Y-107033867D01*
X133465764Y-107030795D01*
X133476375Y-107030883D01*
X133486414Y-107024547D01*
X133497770Y-107021111D01*
X133504649Y-107013038D01*
X133513622Y-107007376D01*
X133518641Y-106996620D01*
X133526338Y-106987589D01*
X133527761Y-106977077D01*
X133713304Y-106579486D01*
X133713304Y-107252201D01*
X133722547Y-107283679D01*
X133755833Y-107312521D01*
X133799428Y-107318789D01*
X133839492Y-107300493D01*
X133863304Y-107263441D01*
X133863304Y-107011714D01*
X134139162Y-107011714D01*
X134141876Y-107018258D01*
X134141876Y-107094520D01*
X134139945Y-107112405D01*
X134146801Y-107126118D01*
X134151119Y-107140821D01*
X134156472Y-107145459D01*
X134188868Y-107210251D01*
X134188766Y-107213165D01*
X134198627Y-107229769D01*
X134202235Y-107236984D01*
X134204109Y-107238998D01*
X134211257Y-107251034D01*
X134218821Y-107254816D01*
X134224579Y-107261006D01*
X134238132Y-107264471D01*
X134322584Y-107306697D01*
X134337711Y-107316419D01*
X134353041Y-107316419D01*
X134368124Y-107319133D01*
X134374668Y-107316419D01*
X134593788Y-107316419D01*
X134611672Y-107318350D01*
X134625385Y-107311493D01*
X134640088Y-107307176D01*
X134644726Y-107301822D01*
X134646959Y-107300705D01*
X134660595Y-107312521D01*
X134704190Y-107318789D01*
X134744254Y-107300493D01*
X134768066Y-107263441D01*
X134768066Y-107203235D01*
X134771183Y-107191045D01*
X134768066Y-107181666D01*
X134768066Y-106822282D01*
X134771183Y-106810092D01*
X134768066Y-106800713D01*
X134768066Y-106773619D01*
X135043924Y-106773619D01*
X135046638Y-106780163D01*
X135046638Y-107046902D01*
X135044707Y-107064786D01*
X135051563Y-107078499D01*
X135055881Y-107093202D01*
X135061234Y-107097840D01*
X135097969Y-107171309D01*
X135100652Y-107183640D01*
X135115271Y-107198260D01*
X135129341Y-107213386D01*
X135130759Y-107213748D01*
X135157193Y-107240183D01*
X135163638Y-107251034D01*
X135182149Y-107260289D01*
X135200260Y-107270179D01*
X135201719Y-107270074D01*
X135274965Y-107306697D01*
X135290092Y-107316419D01*
X135305422Y-107316419D01*
X135320505Y-107319133D01*
X135327049Y-107316419D01*
X135498550Y-107316419D01*
X135516434Y-107318350D01*
X135530147Y-107311493D01*
X135544850Y-107307176D01*
X135549488Y-107301822D01*
X135551721Y-107300705D01*
X135565357Y-107312521D01*
X135608952Y-107318789D01*
X135649016Y-107300493D01*
X135672828Y-107263441D01*
X135672828Y-107203235D01*
X135675945Y-107191045D01*
X135672828Y-107181666D01*
X135672828Y-106809673D01*
X135948298Y-106809673D01*
X135951400Y-106822081D01*
X135951400Y-106823629D01*
X135954004Y-106832498D01*
X135998018Y-107008553D01*
X135997088Y-107017167D01*
X136003254Y-107029500D01*
X136003873Y-107031973D01*
X136008055Y-107039100D01*
X136050350Y-107123690D01*
X136053033Y-107136022D01*
X136067662Y-107150651D01*
X136081722Y-107165767D01*
X136083140Y-107166129D01*
X136160988Y-107243978D01*
X136172267Y-107257987D01*
X136186808Y-107262834D01*
X136200261Y-107270180D01*
X136207329Y-107269674D01*
X136327096Y-107309597D01*
X136337711Y-107316419D01*
X136358390Y-107316419D01*
X136379030Y-107317165D01*
X136380289Y-107316419D01*
X136445569Y-107316419D01*
X136457796Y-107319534D01*
X136477408Y-107312996D01*
X136497231Y-107307176D01*
X136498189Y-107306069D01*
X136617713Y-107266228D01*
X136635290Y-107262405D01*
X136646131Y-107251562D01*
X136658713Y-107242819D01*
X136661420Y-107236273D01*
X136706104Y-107191588D01*
X136721827Y-107162794D01*
X136718684Y-107118863D01*
X136692289Y-107083605D01*
X136651022Y-107068213D01*
X136607985Y-107077576D01*
X136557314Y-107128247D01*
X136442799Y-107166419D01*
X136371903Y-107166419D01*
X136257388Y-107128247D01*
X136183276Y-107054133D01*
X136162066Y-107011714D01*
X136948686Y-107011714D01*
X136951400Y-107018258D01*
X136951400Y-107094520D01*
X136949469Y-107112405D01*
X136956325Y-107126118D01*
X136960643Y-107140821D01*
X136965996Y-107145459D01*
X136998392Y-107210251D01*
X136998290Y-107213165D01*
X137008151Y-107229769D01*
X137011759Y-107236984D01*
X137013633Y-107238998D01*
X137020781Y-107251034D01*
X137028345Y-107254816D01*
X137034103Y-107261006D01*
X137047656Y-107264471D01*
X137132108Y-107306697D01*
X137147235Y-107316419D01*
X137162565Y-107316419D01*
X137177648Y-107319133D01*
X137184192Y-107316419D01*
X137403312Y-107316419D01*
X137421196Y-107318350D01*
X137434909Y-107311493D01*
X137449612Y-107307176D01*
X137454250Y-107301822D01*
X137456483Y-107300705D01*
X137470119Y-107312521D01*
X137513714Y-107318789D01*
X137553778Y-107300493D01*
X137577590Y-107263441D01*
X137577590Y-107203235D01*
X137580707Y-107191045D01*
X137577590Y-107181666D01*
X137577590Y-106822282D01*
X137580707Y-106810092D01*
X137577590Y-106800713D01*
X137577590Y-106721640D01*
X137579520Y-106703765D01*
X137572665Y-106690055D01*
X137568347Y-106675349D01*
X137562992Y-106670709D01*
X137530597Y-106605918D01*
X137530700Y-106603006D01*
X137520840Y-106586405D01*
X137520576Y-106585876D01*
X137758554Y-106585876D01*
X137776850Y-106625940D01*
X137813902Y-106649752D01*
X137903781Y-106649752D01*
X137903781Y-107094520D01*
X137901850Y-107112405D01*
X137908706Y-107126118D01*
X137913024Y-107140821D01*
X137918377Y-107145459D01*
X137950773Y-107210251D01*
X137950671Y-107213165D01*
X137960532Y-107229769D01*
X137964140Y-107236984D01*
X137966014Y-107238998D01*
X137973162Y-107251034D01*
X137980726Y-107254816D01*
X137986484Y-107261006D01*
X138000037Y-107264471D01*
X138084489Y-107306697D01*
X138099616Y-107316419D01*
X138114946Y-107316419D01*
X138130029Y-107319133D01*
X138136573Y-107316419D01*
X138227658Y-107316419D01*
X138259136Y-107307176D01*
X138287978Y-107273890D01*
X138294246Y-107230295D01*
X138275950Y-107190231D01*
X138238898Y-107166419D01*
X138139344Y-107166419D01*
X138082302Y-107137898D01*
X138053781Y-107080857D01*
X138053781Y-106649752D01*
X138227658Y-106649752D01*
X138259136Y-106640509D01*
X138287978Y-106607223D01*
X138294246Y-106563628D01*
X138275950Y-106523564D01*
X138238898Y-106499752D01*
X138053781Y-106499752D01*
X138053781Y-106230637D01*
X138044538Y-106199159D01*
X138011252Y-106170317D01*
X137967657Y-106164049D01*
X137927593Y-106182345D01*
X137903781Y-106219397D01*
X137903781Y-106499752D01*
X137825142Y-106499752D01*
X137793664Y-106508995D01*
X137764822Y-106542281D01*
X137758554Y-106585876D01*
X137520576Y-106585876D01*
X137517231Y-106579186D01*
X137515355Y-106577169D01*
X137508209Y-106565137D01*
X137500644Y-106561354D01*
X137494887Y-106555165D01*
X137481333Y-106551699D01*
X137396884Y-106509475D01*
X137381755Y-106499752D01*
X137366425Y-106499752D01*
X137351342Y-106497038D01*
X137344798Y-106499752D01*
X137173288Y-106499752D01*
X137155413Y-106497822D01*
X137141703Y-106504676D01*
X137126997Y-106508995D01*
X137122357Y-106514349D01*
X137030834Y-106560111D01*
X137006813Y-106582455D01*
X136995902Y-106625126D01*
X137009792Y-106666922D01*
X137044074Y-106694574D01*
X137087863Y-106699302D01*
X137186961Y-106649752D01*
X137342027Y-106649752D01*
X137399069Y-106678273D01*
X137427590Y-106735313D01*
X137427590Y-106766495D01*
X137389647Y-106785466D01*
X137173288Y-106785466D01*
X137155413Y-106783536D01*
X137141703Y-106790390D01*
X137126997Y-106794709D01*
X137122357Y-106800063D01*
X137057566Y-106832458D01*
X137054654Y-106832356D01*
X137038053Y-106842215D01*
X137030834Y-106845825D01*
X137028817Y-106847700D01*
X137016785Y-106854847D01*
X137013002Y-106862411D01*
X137006813Y-106868169D01*
X137003347Y-106881722D01*
X136961123Y-106966171D01*
X136951400Y-106981301D01*
X136951400Y-106996631D01*
X136948686Y-107011714D01*
X136162066Y-107011714D01*
X136144783Y-106977147D01*
X136101400Y-106803613D01*
X136101400Y-106679225D01*
X136144783Y-106505691D01*
X136183278Y-106428702D01*
X136257389Y-106354590D01*
X136371904Y-106316419D01*
X136442801Y-106316419D01*
X136557314Y-106354590D01*
X136600038Y-106397314D01*
X136628832Y-106413036D01*
X136672763Y-106409894D01*
X136708021Y-106383500D01*
X136723414Y-106342233D01*
X136714052Y-106299196D01*
X136653714Y-106238858D01*
X136642437Y-106224851D01*
X136627895Y-106220003D01*
X136614443Y-106212658D01*
X136607375Y-106213163D01*
X136487608Y-106173241D01*
X136476993Y-106166419D01*
X136456313Y-106166419D01*
X136435674Y-106165673D01*
X136434415Y-106166419D01*
X136369135Y-106166419D01*
X136356907Y-106163304D01*
X136337287Y-106169843D01*
X136317473Y-106175662D01*
X136316514Y-106176768D01*
X136196985Y-106216610D01*
X136179415Y-106220433D01*
X136168576Y-106231271D01*
X136155990Y-106240019D01*
X136153281Y-106246566D01*
X136075253Y-106324594D01*
X136064404Y-106331038D01*
X136055153Y-106349538D01*
X136045258Y-106367661D01*
X136045362Y-106369121D01*
X136012910Y-106434025D01*
X136006599Y-106439960D01*
X136003254Y-106453337D01*
X136002115Y-106455617D01*
X136000651Y-106463749D01*
X135956632Y-106639826D01*
X135951400Y-106647968D01*
X135951400Y-106660756D01*
X135951024Y-106662260D01*
X135951400Y-106671506D01*
X135951400Y-106800504D01*
X135948298Y-106809673D01*
X135672828Y-106809673D01*
X135672828Y-106623668D01*
X135673557Y-106603006D01*
X135672828Y-106601779D01*
X135672828Y-106230637D01*
X135663585Y-106199159D01*
X135630299Y-106170317D01*
X135586704Y-106164049D01*
X135546640Y-106182345D01*
X135522828Y-106219397D01*
X135522828Y-106499752D01*
X135509282Y-106499752D01*
X135494199Y-106497038D01*
X135487655Y-106499752D01*
X135316145Y-106499752D01*
X135298270Y-106497822D01*
X135284560Y-106504676D01*
X135269854Y-106508995D01*
X135265214Y-106514349D01*
X135191745Y-106551083D01*
X135179415Y-106553766D01*
X135164795Y-106568385D01*
X135149670Y-106582455D01*
X135149307Y-106583873D01*
X135122872Y-106610308D01*
X135112023Y-106616752D01*
X135102772Y-106635252D01*
X135092877Y-106653375D01*
X135092981Y-106654835D01*
X135056361Y-106728076D01*
X135046638Y-106743206D01*
X135046638Y-106758536D01*
X135043924Y-106773619D01*
X134768066Y-106773619D01*
X134768066Y-106721640D01*
X134769996Y-106703765D01*
X134763141Y-106690055D01*
X134758823Y-106675349D01*
X134753468Y-106670709D01*
X134721073Y-106605918D01*
X134721176Y-106603006D01*
X134711316Y-106586405D01*
X134707707Y-106579186D01*
X134705831Y-106577169D01*
X134698685Y-106565137D01*
X134691120Y-106561354D01*
X134685363Y-106555165D01*
X134671809Y-106551699D01*
X134587360Y-106509475D01*
X134572231Y-106499752D01*
X134556901Y-106499752D01*
X134541818Y-106497038D01*
X134535274Y-106499752D01*
X134363764Y-106499752D01*
X134345889Y-106497822D01*
X134332179Y-106504676D01*
X134317473Y-106508995D01*
X134312833Y-106514349D01*
X134221310Y-106560111D01*
X134197289Y-106582455D01*
X134186378Y-106625126D01*
X134200268Y-106666922D01*
X134234550Y-106694574D01*
X134278339Y-106699302D01*
X134377437Y-106649752D01*
X134532503Y-106649752D01*
X134589545Y-106678273D01*
X134618066Y-106735313D01*
X134618066Y-106766495D01*
X134580123Y-106785466D01*
X134363764Y-106785466D01*
X134345889Y-106783536D01*
X134332179Y-106790390D01*
X134317473Y-106794709D01*
X134312833Y-106800063D01*
X134248042Y-106832458D01*
X134245130Y-106832356D01*
X134228529Y-106842215D01*
X134221310Y-106845825D01*
X134219293Y-106847700D01*
X134207261Y-106854847D01*
X134203478Y-106862411D01*
X134197289Y-106868169D01*
X134193823Y-106881722D01*
X134151599Y-106966171D01*
X134141876Y-106981301D01*
X134141876Y-106996631D01*
X134139162Y-107011714D01*
X133863304Y-107011714D01*
X133863304Y-106247089D01*
X133865763Y-106230931D01*
X133858841Y-106215438D01*
X133854061Y-106199159D01*
X133849992Y-106195634D01*
X133847797Y-106190719D01*
X133833597Y-106181427D01*
X133820775Y-106170317D01*
X133815447Y-106169550D01*
X133810942Y-106166603D01*
X133793970Y-106166463D01*
X133777180Y-106164049D01*
X133772285Y-106166284D01*
X133766900Y-106166240D01*
X133752545Y-106175298D01*
X133737116Y-106182345D01*
X133734206Y-106186872D01*
X133729653Y-106189746D01*
X133722476Y-106205124D01*
X133713304Y-106219397D01*
X133713304Y-106224780D01*
X133454971Y-106778350D01*
X133192000Y-106214842D01*
X133187395Y-106199159D01*
X133174572Y-106188048D01*
X133163355Y-106175316D01*
X133158176Y-106173841D01*
X133154109Y-106170317D01*
X133137315Y-106167902D01*
X133120995Y-106163256D01*
X133115842Y-106164815D01*
X133110514Y-106164049D01*
X133095077Y-106171098D01*
X133078839Y-106176012D01*
X133075348Y-106180108D01*
X133070450Y-106182345D01*
X133061274Y-106196622D01*
X133050271Y-106209534D01*
X133049548Y-106214867D01*
X133046638Y-106219397D01*
X133046638Y-106236363D01*
X133044361Y-106253179D01*
X130768066Y-106253179D01*
X130768066Y-106230637D01*
X130758823Y-106199159D01*
X130725537Y-106170317D01*
X130681942Y-106164049D01*
X130641878Y-106182345D01*
X130618066Y-106219397D01*
X130618066Y-106612936D01*
X130614949Y-106625126D01*
X129489826Y-106625126D01*
X129520248Y-106564281D01*
X129529970Y-106549155D01*
X129529970Y-106533825D01*
X129532684Y-106518742D01*
X129529970Y-106512198D01*
X129529970Y-106435926D01*
X129531900Y-106418051D01*
X129525045Y-106404341D01*
X129520727Y-106389635D01*
X129515372Y-106384995D01*
X129478638Y-106311526D01*
X129475956Y-106299196D01*
X129461336Y-106284576D01*
X129447267Y-106269451D01*
X129445848Y-106269088D01*
X129419413Y-106242653D01*
X129412970Y-106231804D01*
X129394469Y-106222553D01*
X129376347Y-106212658D01*
X129374886Y-106212762D01*
X129301645Y-106176142D01*
X129286516Y-106166419D01*
X129271186Y-106166419D01*
X129256103Y-106163705D01*
X129249559Y-106166419D01*
X128936521Y-106166419D01*
X128920037Y-106164049D01*
X128904884Y-106170968D01*
X128888901Y-106175662D01*
X128885164Y-106179974D01*
X128879973Y-106182345D01*
X128870965Y-106196361D01*
X128860059Y-106208948D01*
X128859247Y-106214594D01*
X128856161Y-106219397D01*
X128856161Y-106236059D01*
X128853791Y-106252543D01*
X128856161Y-106257733D01*
X128856161Y-106712249D01*
X128853791Y-106728733D01*
X128856161Y-106733923D01*
X128856161Y-107236059D01*
X128853791Y-107252543D01*
X128502292Y-107252543D01*
X128503273Y-107251562D01*
X128515855Y-107242819D01*
X128518562Y-107236273D01*
X128563246Y-107191588D01*
X128578969Y-107162794D01*
X128575826Y-107118863D01*
X128549431Y-107083605D01*
X128508164Y-107068213D01*
X128465127Y-107077576D01*
X128414456Y-107128247D01*
X128299941Y-107166419D01*
X128229045Y-107166419D01*
X128114530Y-107128247D01*
X128040418Y-107054133D01*
X128001925Y-106977147D01*
X127958542Y-106803613D01*
X127958542Y-106679225D01*
X128001925Y-106505691D01*
X128040420Y-106428702D01*
X128114531Y-106354590D01*
X128229046Y-106316419D01*
X128299943Y-106316419D01*
X128414456Y-106354590D01*
X128457180Y-106397314D01*
X128485974Y-106413036D01*
X128529905Y-106409894D01*
X128565163Y-106383500D01*
X128580556Y-106342233D01*
X128571194Y-106299196D01*
X128510856Y-106238858D01*
X128499579Y-106224851D01*
X128485037Y-106220003D01*
X128471585Y-106212658D01*
X128464517Y-106213163D01*
X128344750Y-106173241D01*
X128334135Y-106166419D01*
X128313455Y-106166419D01*
X128292816Y-106165673D01*
X128291557Y-106166419D01*
X128226277Y-106166419D01*
X128214049Y-106163304D01*
X128194429Y-106169843D01*
X128174615Y-106175662D01*
X128173656Y-106176768D01*
X128054127Y-106216610D01*
X128036557Y-106220433D01*
X128025718Y-106231271D01*
X128013132Y-106240019D01*
X128010423Y-106246566D01*
X127932395Y-106324594D01*
X127921546Y-106331038D01*
X127912295Y-106349538D01*
X127902400Y-106367661D01*
X127902504Y-106369121D01*
X127870052Y-106434025D01*
X127863741Y-106439960D01*
X127860396Y-106453337D01*
X127859257Y-106455617D01*
X127857793Y-106463749D01*
X127813774Y-106639826D01*
X127808542Y-106647968D01*
X127808542Y-106660756D01*
X127808166Y-106662260D01*
X127808542Y-106671506D01*
X127808542Y-106800504D01*
X127805440Y-106809673D01*
X127390927Y-106809673D01*
X127432480Y-106788896D01*
X127444812Y-106786214D01*
X127459439Y-106771586D01*
X127474557Y-106757525D01*
X127474919Y-106756106D01*
X127501354Y-106729671D01*
X127512204Y-106723228D01*
X127521458Y-106704718D01*
X127531349Y-106686605D01*
X127531244Y-106685146D01*
X127567867Y-106611900D01*
X127577589Y-106596774D01*
X127577589Y-106581444D01*
X127580303Y-106566361D01*
X127577589Y-106559817D01*
X127577589Y-106435926D01*
X127579519Y-106418051D01*
X127572664Y-106404341D01*
X127568346Y-106389635D01*
X127562991Y-106384995D01*
X127526257Y-106311526D01*
X127523575Y-106299196D01*
X127508955Y-106284576D01*
X127494886Y-106269451D01*
X127493467Y-106269088D01*
X127467032Y-106242653D01*
X127460589Y-106231804D01*
X127442088Y-106222553D01*
X127423966Y-106212658D01*
X127422505Y-106212762D01*
X127349264Y-106176142D01*
X127334135Y-106166419D01*
X127318805Y-106166419D01*
X127303722Y-106163705D01*
X127297178Y-106166419D01*
X126936521Y-106166419D01*
X126920037Y-106164049D01*
X126904884Y-106170968D01*
X126888901Y-106175662D01*
X126885164Y-106179974D01*
X126879973Y-106182345D01*
X126870965Y-106196361D01*
X126860059Y-106208948D01*
X126859247Y-106214594D01*
X126856161Y-106219397D01*
X126856161Y-106236059D01*
X126853791Y-106252543D01*
X126856161Y-106257733D01*
X126856161Y-106759868D01*
X126853791Y-106776352D01*
X124190089Y-106776352D01*
X124190089Y-105108733D01*
X124806171Y-105108733D01*
X124808541Y-105113923D01*
X124808541Y-105632201D01*
X124817784Y-105663679D01*
X124851070Y-105692521D01*
X124894665Y-105698789D01*
X124934729Y-105680493D01*
X124958541Y-105643441D01*
X124958541Y-105172609D01*
X125227656Y-105172609D01*
X125259134Y-105163366D01*
X125267580Y-105153619D01*
X125615351Y-105153619D01*
X125618065Y-105160163D01*
X125618065Y-105426902D01*
X125616134Y-105444786D01*
X125622990Y-105458499D01*
X125627308Y-105473202D01*
X125632661Y-105477840D01*
X125669396Y-105551309D01*
X125672079Y-105563640D01*
X125686698Y-105578260D01*
X125700768Y-105593386D01*
X125702186Y-105593748D01*
X125728620Y-105620183D01*
X125735065Y-105631034D01*
X125753576Y-105640289D01*
X125771687Y-105650179D01*
X125773146Y-105650074D01*
X125846392Y-105686697D01*
X125861519Y-105696419D01*
X125876849Y-105696419D01*
X125891932Y-105699133D01*
X125898476Y-105696419D01*
X126022358Y-105696419D01*
X126040242Y-105698350D01*
X126053955Y-105691493D01*
X126068658Y-105687176D01*
X126073296Y-105681822D01*
X126146764Y-105645087D01*
X126159098Y-105642405D01*
X126173729Y-105627772D01*
X126188842Y-105613716D01*
X126189204Y-105612296D01*
X126215638Y-105585862D01*
X126226489Y-105579418D01*
X126235745Y-105560904D01*
X126245635Y-105542794D01*
X126245530Y-105541334D01*
X126282152Y-105468090D01*
X126291874Y-105452964D01*
X126291874Y-105437634D01*
X126294588Y-105422551D01*
X126291874Y-105416007D01*
X126291874Y-105153619D01*
X126567732Y-105153619D01*
X126570446Y-105160163D01*
X126570446Y-105632201D01*
X126579689Y-105663679D01*
X126612975Y-105692521D01*
X126656570Y-105698789D01*
X126696634Y-105680493D01*
X126720446Y-105643441D01*
X126720446Y-105620106D01*
X127853006Y-105620106D01*
X127854696Y-105626243D01*
X127853791Y-105632543D01*
X127860447Y-105647118D01*
X127864703Y-105662568D01*
X127869442Y-105666816D01*
X127872087Y-105672607D01*
X127885571Y-105681272D01*
X127897500Y-105691965D01*
X127903782Y-105692976D01*
X127909139Y-105696419D01*
X127925164Y-105696419D01*
X127940984Y-105698966D01*
X127946818Y-105696419D01*
X128608609Y-105696419D01*
X128640087Y-105687176D01*
X128668929Y-105653890D01*
X128673786Y-105620106D01*
X128805387Y-105620106D01*
X128817084Y-105662568D01*
X128849881Y-105691965D01*
X128893365Y-105698966D01*
X128933730Y-105681345D01*
X129216875Y-105256627D01*
X129493785Y-105671993D01*
X129518936Y-105693057D01*
X129562631Y-105698591D01*
X129602381Y-105679624D01*
X129625567Y-105642178D01*
X129624827Y-105598140D01*
X129307013Y-105121419D01*
X129507769Y-104820286D01*
X130567733Y-104820286D01*
X130570447Y-104826830D01*
X130570447Y-104903093D01*
X130568516Y-104920977D01*
X130575372Y-104934690D01*
X130579690Y-104949393D01*
X130585043Y-104954031D01*
X130621778Y-105027500D01*
X130624461Y-105039832D01*
X130639088Y-105054459D01*
X130653150Y-105069577D01*
X130654568Y-105069939D01*
X130681003Y-105096374D01*
X130687447Y-105107224D01*
X130705956Y-105116478D01*
X130724070Y-105126369D01*
X130725528Y-105126264D01*
X130790433Y-105158717D01*
X130796368Y-105165029D01*
X130809745Y-105168373D01*
X130812025Y-105169513D01*
X130820157Y-105170976D01*
X131000221Y-105215992D01*
X131077211Y-105254487D01*
X131107616Y-105284892D01*
X131141875Y-105353408D01*
X131141875Y-105413236D01*
X131107616Y-105481753D01*
X131077208Y-105512161D01*
X131008694Y-105546419D01*
X130800474Y-105546419D01*
X130658935Y-105499239D01*
X130626150Y-105498054D01*
X130588262Y-105520511D01*
X130568530Y-105559887D01*
X130573217Y-105603680D01*
X130600838Y-105637987D01*
X130755667Y-105689597D01*
X130766282Y-105696419D01*
X130786961Y-105696419D01*
X130807601Y-105697165D01*
X130808860Y-105696419D01*
X131022359Y-105696419D01*
X131040243Y-105698350D01*
X131053956Y-105691493D01*
X131068659Y-105687176D01*
X131073297Y-105681822D01*
X131146765Y-105645087D01*
X131159099Y-105642405D01*
X131173730Y-105627772D01*
X131188843Y-105613716D01*
X131189205Y-105612296D01*
X131215639Y-105585862D01*
X131226490Y-105579418D01*
X131235746Y-105560904D01*
X131245636Y-105542794D01*
X131245531Y-105541334D01*
X131282153Y-105468090D01*
X131291875Y-105452964D01*
X131291875Y-105437634D01*
X131294589Y-105422551D01*
X131291875Y-105416007D01*
X131291875Y-105339735D01*
X131293805Y-105321860D01*
X131286950Y-105308150D01*
X131282632Y-105293444D01*
X131277277Y-105288804D01*
X131240543Y-105215335D01*
X131237861Y-105203005D01*
X131223241Y-105188385D01*
X131209172Y-105173260D01*
X131207753Y-105172897D01*
X131181318Y-105146462D01*
X131174875Y-105135613D01*
X131156374Y-105126362D01*
X131138252Y-105116467D01*
X131136791Y-105116571D01*
X131071887Y-105084119D01*
X131065953Y-105077808D01*
X131052575Y-105074463D01*
X131050296Y-105073324D01*
X131042163Y-105071860D01*
X130862100Y-105026844D01*
X130818663Y-105005126D01*
X131567330Y-105005126D01*
X131570447Y-105014505D01*
X131570447Y-105572490D01*
X131569718Y-105593165D01*
X131570447Y-105594392D01*
X131570447Y-105965534D01*
X131579690Y-105997012D01*
X131612976Y-106025854D01*
X131656571Y-106032122D01*
X131696635Y-106013826D01*
X131720447Y-105976774D01*
X131720447Y-105696419D01*
X131733993Y-105696419D01*
X131749076Y-105699133D01*
X131755620Y-105696419D01*
X131927121Y-105696419D01*
X131945005Y-105698350D01*
X131958718Y-105691493D01*
X131973421Y-105687176D01*
X131978059Y-105681822D01*
X132051527Y-105645087D01*
X132063861Y-105642405D01*
X132078492Y-105627772D01*
X132093605Y-105613716D01*
X132093967Y-105612296D01*
X132120401Y-105585862D01*
X132131252Y-105579418D01*
X132140508Y-105560904D01*
X132150398Y-105542794D01*
X132150293Y-105541334D01*
X132186915Y-105468090D01*
X132196637Y-105452964D01*
X132196637Y-105437634D01*
X132199351Y-105422551D01*
X132196637Y-105416007D01*
X132196637Y-105149259D01*
X132198567Y-105131384D01*
X132191712Y-105117674D01*
X132188284Y-105106000D01*
X132424876Y-105106000D01*
X132427590Y-105112544D01*
X132427590Y-105268272D01*
X132426501Y-105270189D01*
X132427590Y-105290119D01*
X132427590Y-105474520D01*
X132425659Y-105492405D01*
X132432515Y-105506118D01*
X132436833Y-105520821D01*
X132442186Y-105525459D01*
X132474582Y-105590251D01*
X132474480Y-105593165D01*
X132484341Y-105609769D01*
X132487949Y-105616984D01*
X132489823Y-105618998D01*
X132496971Y-105631034D01*
X132504535Y-105634816D01*
X132510293Y-105641006D01*
X132523846Y-105644471D01*
X132608298Y-105686697D01*
X132623425Y-105696419D01*
X132638755Y-105696419D01*
X132653838Y-105699133D01*
X132660382Y-105696419D01*
X132831883Y-105696419D01*
X132849767Y-105698350D01*
X132863480Y-105691493D01*
X132878183Y-105687176D01*
X132882821Y-105681822D01*
X132974345Y-105636060D01*
X132998367Y-105613716D01*
X133009278Y-105571045D01*
X132995388Y-105529250D01*
X132961106Y-105501598D01*
X132917317Y-105496870D01*
X132818218Y-105546419D01*
X132663153Y-105546419D01*
X132606111Y-105517898D01*
X132577590Y-105460857D01*
X132577590Y-105349570D01*
X132980858Y-105268916D01*
X132989904Y-105270217D01*
X133002019Y-105264684D01*
X133004061Y-105264276D01*
X133011794Y-105260220D01*
X133029968Y-105251921D01*
X133031161Y-105250063D01*
X133033115Y-105249039D01*
X133042972Y-105231685D01*
X133053780Y-105214869D01*
X133053780Y-105212660D01*
X133054869Y-105210743D01*
X133053780Y-105190813D01*
X133053780Y-105153619D01*
X133282019Y-105153619D01*
X133284733Y-105160163D01*
X133284733Y-105426902D01*
X133282802Y-105444786D01*
X133289658Y-105458499D01*
X133293976Y-105473202D01*
X133299329Y-105477840D01*
X133336064Y-105551309D01*
X133338747Y-105563640D01*
X133353366Y-105578260D01*
X133367436Y-105593386D01*
X133368854Y-105593748D01*
X133395288Y-105620183D01*
X133401733Y-105631034D01*
X133420244Y-105640289D01*
X133438355Y-105650179D01*
X133439814Y-105650074D01*
X133513060Y-105686697D01*
X133528187Y-105696419D01*
X133543517Y-105696419D01*
X133558600Y-105699133D01*
X133565144Y-105696419D01*
X133736645Y-105696419D01*
X133754529Y-105698350D01*
X133768242Y-105691493D01*
X133782945Y-105687176D01*
X133787583Y-105681822D01*
X133879107Y-105636060D01*
X133903129Y-105613716D01*
X133914040Y-105571045D01*
X133900150Y-105529250D01*
X133865868Y-105501598D01*
X133822079Y-105496870D01*
X133722980Y-105546419D01*
X133567915Y-105546419D01*
X133499397Y-105512160D01*
X133468989Y-105481751D01*
X133434733Y-105413237D01*
X133434733Y-105162934D01*
X133468992Y-105094416D01*
X133499397Y-105064010D01*
X133567913Y-105029752D01*
X133722979Y-105029752D01*
X133812025Y-105074275D01*
X133844314Y-105080085D01*
X133884997Y-105063212D01*
X133910099Y-105027022D01*
X133911652Y-104983006D01*
X133901478Y-104965876D01*
X134044268Y-104965876D01*
X134062564Y-105005940D01*
X134099616Y-105029752D01*
X134189495Y-105029752D01*
X134189495Y-105474520D01*
X134187564Y-105492405D01*
X134194420Y-105506118D01*
X134198738Y-105520821D01*
X134204091Y-105525459D01*
X134236487Y-105590251D01*
X134236385Y-105593165D01*
X134246246Y-105609769D01*
X134249854Y-105616984D01*
X134251728Y-105618998D01*
X134258876Y-105631034D01*
X134266440Y-105634816D01*
X134272198Y-105641006D01*
X134285751Y-105644471D01*
X134370203Y-105686697D01*
X134385330Y-105696419D01*
X134400660Y-105696419D01*
X134415743Y-105699133D01*
X134422287Y-105696419D01*
X134513372Y-105696419D01*
X134544850Y-105687176D01*
X134573692Y-105653890D01*
X134579960Y-105610295D01*
X134561664Y-105570231D01*
X134524612Y-105546419D01*
X134425058Y-105546419D01*
X134368016Y-105517898D01*
X134339495Y-105460857D01*
X134339495Y-105153619D01*
X134758210Y-105153619D01*
X134760924Y-105160163D01*
X134760924Y-105632201D01*
X134770167Y-105663679D01*
X134803453Y-105692521D01*
X134847048Y-105698789D01*
X134887112Y-105680493D01*
X134910924Y-105643441D01*
X134910924Y-105492405D01*
X135378041Y-105492405D01*
X135384897Y-105506118D01*
X135389215Y-105520821D01*
X135394568Y-105525459D01*
X135426964Y-105590251D01*
X135426862Y-105593165D01*
X135436723Y-105609769D01*
X135440331Y-105616984D01*
X135442205Y-105618998D01*
X135449353Y-105631034D01*
X135456917Y-105634816D01*
X135462675Y-105641006D01*
X135476228Y-105644471D01*
X135560680Y-105686697D01*
X135575807Y-105696419D01*
X135591137Y-105696419D01*
X135606220Y-105699133D01*
X135612764Y-105696419D01*
X135736646Y-105696419D01*
X135754530Y-105698350D01*
X135768243Y-105691493D01*
X135782946Y-105687176D01*
X135787584Y-105681822D01*
X135820012Y-105665608D01*
X135851072Y-105692521D01*
X135894667Y-105698789D01*
X135934731Y-105680493D01*
X135958543Y-105643441D01*
X135958543Y-105545321D01*
X135959923Y-105542794D01*
X135958543Y-105523505D01*
X135958543Y-105033375D01*
X136283354Y-105033375D01*
X136284734Y-105052664D01*
X136284734Y-105632201D01*
X136293977Y-105663679D01*
X136327263Y-105692521D01*
X136370858Y-105698789D01*
X136410922Y-105680493D01*
X136434734Y-105643441D01*
X136434734Y-105081056D01*
X136451779Y-105064010D01*
X136520295Y-105029752D01*
X136627742Y-105029752D01*
X136684784Y-105058273D01*
X136713305Y-105115313D01*
X136713305Y-105632201D01*
X136722548Y-105663679D01*
X136755834Y-105692521D01*
X136799429Y-105698789D01*
X136839493Y-105680493D01*
X136863305Y-105643441D01*
X136863305Y-105115315D01*
X136891826Y-105058272D01*
X136948866Y-105029752D01*
X137056314Y-105029752D01*
X137113356Y-105058272D01*
X137141877Y-105115313D01*
X137141877Y-105632201D01*
X137151120Y-105663679D01*
X137184406Y-105692521D01*
X137228001Y-105698789D01*
X137268065Y-105680493D01*
X137291877Y-105643441D01*
X137291877Y-105632543D01*
X138377602Y-105632543D01*
X138384521Y-105647695D01*
X138389215Y-105663679D01*
X138393527Y-105667415D01*
X138395898Y-105672607D01*
X138409914Y-105681614D01*
X138422501Y-105692521D01*
X138428147Y-105693332D01*
X138432950Y-105696419D01*
X138449612Y-105696419D01*
X138466096Y-105698789D01*
X138471286Y-105696419D01*
X138831884Y-105696419D01*
X138849768Y-105698350D01*
X138863481Y-105691493D01*
X138878184Y-105687176D01*
X138882822Y-105681822D01*
X138956290Y-105645087D01*
X138968624Y-105642405D01*
X138983255Y-105627772D01*
X138998368Y-105613716D01*
X138998730Y-105612296D01*
X139025164Y-105585862D01*
X139036015Y-105579418D01*
X139045271Y-105560904D01*
X139055161Y-105542794D01*
X139055056Y-105541334D01*
X139091678Y-105468090D01*
X139101400Y-105452964D01*
X139101400Y-105437634D01*
X139104114Y-105422551D01*
X139101400Y-105416007D01*
X139101400Y-105292116D01*
X139103330Y-105274241D01*
X139096475Y-105260531D01*
X139092157Y-105245825D01*
X139086802Y-105241185D01*
X139050068Y-105167716D01*
X139047386Y-105155386D01*
X139032766Y-105140766D01*
X139018697Y-105125641D01*
X139017278Y-105125278D01*
X138998000Y-105106000D01*
X139329639Y-105106000D01*
X139332353Y-105112544D01*
X139332353Y-105268272D01*
X139331264Y-105270189D01*
X139332353Y-105290119D01*
X139332353Y-105474520D01*
X139330422Y-105492405D01*
X139337278Y-105506118D01*
X139341596Y-105520821D01*
X139346949Y-105525459D01*
X139379345Y-105590251D01*
X139379243Y-105593165D01*
X139389104Y-105609769D01*
X139392712Y-105616984D01*
X139394586Y-105618998D01*
X139401734Y-105631034D01*
X139409298Y-105634816D01*
X139415056Y-105641006D01*
X139428609Y-105644471D01*
X139513061Y-105686697D01*
X139528188Y-105696419D01*
X139543518Y-105696419D01*
X139558601Y-105699133D01*
X139565145Y-105696419D01*
X139736646Y-105696419D01*
X139754530Y-105698350D01*
X139768243Y-105691493D01*
X139782946Y-105687176D01*
X139787584Y-105681822D01*
X139879108Y-105636060D01*
X139903130Y-105613716D01*
X139914041Y-105571045D01*
X139900151Y-105529250D01*
X139865869Y-105501598D01*
X139822080Y-105496870D01*
X139722981Y-105546419D01*
X139567916Y-105546419D01*
X139510874Y-105517898D01*
X139482353Y-105460857D01*
X139482353Y-105349570D01*
X139885621Y-105268916D01*
X139894667Y-105270217D01*
X139906782Y-105264684D01*
X139908824Y-105264276D01*
X139916557Y-105260220D01*
X139934731Y-105251921D01*
X139935924Y-105250063D01*
X139937878Y-105249039D01*
X139947735Y-105231685D01*
X139958543Y-105214869D01*
X139958543Y-105212660D01*
X139959632Y-105210743D01*
X139958543Y-105190813D01*
X139958543Y-105101640D01*
X139960473Y-105083765D01*
X139953618Y-105070055D01*
X139949300Y-105055349D01*
X139943945Y-105050709D01*
X139911550Y-104985918D01*
X139911653Y-104983006D01*
X139901793Y-104966405D01*
X139901529Y-104965876D01*
X140091888Y-104965876D01*
X140110184Y-105005940D01*
X140147236Y-105029752D01*
X140237115Y-105029752D01*
X140237115Y-105474520D01*
X140235184Y-105492405D01*
X140242040Y-105506118D01*
X140246358Y-105520821D01*
X140251711Y-105525459D01*
X140284107Y-105590251D01*
X140284005Y-105593165D01*
X140293866Y-105609769D01*
X140297474Y-105616984D01*
X140299348Y-105618998D01*
X140306496Y-105631034D01*
X140314060Y-105634816D01*
X140319818Y-105641006D01*
X140333371Y-105644471D01*
X140417823Y-105686697D01*
X140432950Y-105696419D01*
X140448280Y-105696419D01*
X140463363Y-105699133D01*
X140469907Y-105696419D01*
X140560992Y-105696419D01*
X140592470Y-105687176D01*
X140621312Y-105653890D01*
X140627580Y-105610295D01*
X140609284Y-105570231D01*
X140572232Y-105546419D01*
X140472678Y-105546419D01*
X140415636Y-105517898D01*
X140387115Y-105460857D01*
X140387115Y-105391714D01*
X140758211Y-105391714D01*
X140760925Y-105398258D01*
X140760925Y-105474520D01*
X140758994Y-105492405D01*
X140765850Y-105506118D01*
X140770168Y-105520821D01*
X140775521Y-105525459D01*
X140807917Y-105590251D01*
X140807815Y-105593165D01*
X140817676Y-105609769D01*
X140821284Y-105616984D01*
X140823158Y-105618998D01*
X140830306Y-105631034D01*
X140837870Y-105634816D01*
X140843628Y-105641006D01*
X140857181Y-105644471D01*
X140941633Y-105686697D01*
X140956760Y-105696419D01*
X140972090Y-105696419D01*
X140987173Y-105699133D01*
X140993717Y-105696419D01*
X141212837Y-105696419D01*
X141230721Y-105698350D01*
X141244434Y-105691493D01*
X141259137Y-105687176D01*
X141263775Y-105681822D01*
X141266008Y-105680705D01*
X141279644Y-105692521D01*
X141323239Y-105698789D01*
X141363303Y-105680493D01*
X141387115Y-105643441D01*
X141387115Y-105632543D01*
X142472841Y-105632543D01*
X142479760Y-105647695D01*
X142484454Y-105663679D01*
X142488766Y-105667415D01*
X142491137Y-105672607D01*
X142505153Y-105681614D01*
X142517740Y-105692521D01*
X142523386Y-105693332D01*
X142528189Y-105696419D01*
X142544851Y-105696419D01*
X142561335Y-105698789D01*
X142566525Y-105696419D01*
X142778904Y-105696419D01*
X142791131Y-105699534D01*
X142810743Y-105692996D01*
X142830566Y-105687176D01*
X142831524Y-105686069D01*
X142951050Y-105646227D01*
X142968624Y-105642405D01*
X142978827Y-105632201D01*
X143475211Y-105632201D01*
X143484454Y-105663679D01*
X143517740Y-105692521D01*
X143561335Y-105698789D01*
X143601399Y-105680493D01*
X143625211Y-105643441D01*
X143625211Y-105106000D01*
X143901068Y-105106000D01*
X143903782Y-105112544D01*
X143903782Y-105141188D01*
X143901851Y-105159072D01*
X143908707Y-105172785D01*
X143913025Y-105187488D01*
X143918378Y-105192126D01*
X143950774Y-105256917D01*
X143950672Y-105259831D01*
X143960533Y-105276435D01*
X143964141Y-105283650D01*
X143966015Y-105285664D01*
X143973163Y-105297700D01*
X143980727Y-105301482D01*
X143986485Y-105307672D01*
X144000038Y-105311137D01*
X144084490Y-105353363D01*
X144099617Y-105363085D01*
X144114947Y-105363085D01*
X144130030Y-105365799D01*
X144136574Y-105363085D01*
X144246790Y-105363085D01*
X144303832Y-105391606D01*
X144332353Y-105448646D01*
X144332353Y-105460856D01*
X144303831Y-105517898D01*
X144246791Y-105546419D01*
X144091726Y-105546419D01*
X144002679Y-105501896D01*
X143970391Y-105496086D01*
X143929708Y-105512959D01*
X143904605Y-105549149D01*
X143903053Y-105593165D01*
X143925544Y-105631034D01*
X144036871Y-105686697D01*
X144051998Y-105696419D01*
X144067328Y-105696419D01*
X144082411Y-105699133D01*
X144088955Y-105696419D01*
X144260456Y-105696419D01*
X144278340Y-105698350D01*
X144292053Y-105691493D01*
X144306756Y-105687176D01*
X144311394Y-105681822D01*
X144376185Y-105649426D01*
X144379100Y-105649529D01*
X144395707Y-105639665D01*
X144402918Y-105636060D01*
X144404932Y-105634186D01*
X144416968Y-105627038D01*
X144420750Y-105619473D01*
X144426940Y-105613716D01*
X144430405Y-105600162D01*
X144472630Y-105515712D01*
X144482353Y-105500583D01*
X144482353Y-105485253D01*
X144485067Y-105470170D01*
X144482353Y-105463627D01*
X144482353Y-105434973D01*
X144484283Y-105417098D01*
X144477428Y-105403388D01*
X144473110Y-105388682D01*
X144467755Y-105384042D01*
X144435360Y-105319251D01*
X144435366Y-105319089D01*
X144759545Y-105319089D01*
X144760925Y-105338378D01*
X144760925Y-105632201D01*
X144770168Y-105663679D01*
X144803454Y-105692521D01*
X144847049Y-105698789D01*
X144887113Y-105680493D01*
X144910925Y-105643441D01*
X144910925Y-105366770D01*
X144923048Y-105354646D01*
X145163346Y-105675045D01*
X145189627Y-105694681D01*
X145233561Y-105697783D01*
X145272198Y-105676641D01*
X145293272Y-105637966D01*
X145290090Y-105594037D01*
X145030191Y-105247503D01*
X145277534Y-105000161D01*
X145293256Y-104971367D01*
X145290114Y-104927436D01*
X145263720Y-104892178D01*
X145222453Y-104876785D01*
X145179416Y-104886147D01*
X144910925Y-105154638D01*
X144910925Y-104610637D01*
X144901682Y-104579159D01*
X144868396Y-104550317D01*
X144824801Y-104544049D01*
X144784737Y-104562345D01*
X144760925Y-104599397D01*
X144760925Y-105316562D01*
X144759545Y-105319089D01*
X144435366Y-105319089D01*
X144435463Y-105316339D01*
X144425603Y-105299738D01*
X144421994Y-105292519D01*
X144420118Y-105290502D01*
X144412972Y-105278470D01*
X144405407Y-105274687D01*
X144399650Y-105268498D01*
X144386096Y-105265032D01*
X144301647Y-105222808D01*
X144286518Y-105213085D01*
X144271188Y-105213085D01*
X144256105Y-105210371D01*
X144249561Y-105213085D01*
X144139345Y-105213085D01*
X144082302Y-105184563D01*
X144053782Y-105127523D01*
X144053782Y-105115315D01*
X144082303Y-105058272D01*
X144139343Y-105029752D01*
X144246790Y-105029752D01*
X144335836Y-105074275D01*
X144368125Y-105080085D01*
X144408808Y-105063212D01*
X144433910Y-105027022D01*
X144435463Y-104983006D01*
X144412972Y-104945137D01*
X144301647Y-104889475D01*
X144286518Y-104879752D01*
X144271188Y-104879752D01*
X144256105Y-104877038D01*
X144249561Y-104879752D01*
X144125670Y-104879752D01*
X144107795Y-104877822D01*
X144094085Y-104884676D01*
X144079379Y-104888995D01*
X144074739Y-104894349D01*
X144009948Y-104926744D01*
X144007036Y-104926642D01*
X143990435Y-104936501D01*
X143983216Y-104940111D01*
X143981199Y-104941986D01*
X143969167Y-104949133D01*
X143965384Y-104956697D01*
X143959195Y-104962455D01*
X143955729Y-104976008D01*
X143913505Y-105060457D01*
X143903782Y-105075587D01*
X143903782Y-105090917D01*
X143901068Y-105106000D01*
X143625211Y-105106000D01*
X143625211Y-104943970D01*
X143615968Y-104912492D01*
X143582682Y-104883650D01*
X143539087Y-104877382D01*
X143499023Y-104895678D01*
X143475211Y-104932730D01*
X143475211Y-105632201D01*
X142978827Y-105632201D01*
X142979464Y-105631564D01*
X142992048Y-105622819D01*
X142994755Y-105616272D01*
X143072785Y-105538242D01*
X143083635Y-105531799D01*
X143092885Y-105513298D01*
X143102781Y-105495175D01*
X143102676Y-105493715D01*
X143135128Y-105428812D01*
X143141440Y-105422878D01*
X143144784Y-105409500D01*
X143145924Y-105407221D01*
X143147387Y-105399088D01*
X143191406Y-105223010D01*
X143196639Y-105214869D01*
X143196639Y-105202081D01*
X143197015Y-105200577D01*
X143196639Y-105191331D01*
X143196639Y-105062333D01*
X143199741Y-105053164D01*
X143196639Y-105040756D01*
X143196639Y-105039208D01*
X143194034Y-105030338D01*
X143150020Y-104854281D01*
X143150950Y-104845670D01*
X143144784Y-104833339D01*
X143144166Y-104830864D01*
X143139978Y-104823725D01*
X143097688Y-104739145D01*
X143095006Y-104726815D01*
X143080386Y-104712195D01*
X143066317Y-104697070D01*
X143064898Y-104696707D01*
X143031653Y-104663462D01*
X143424625Y-104663462D01*
X143428166Y-104679742D01*
X143429355Y-104696354D01*
X143432773Y-104700920D01*
X143433987Y-104706499D01*
X143445769Y-104718281D01*
X143455749Y-104731613D01*
X143461094Y-104733606D01*
X143483642Y-104756154D01*
X143484454Y-104758917D01*
X143495003Y-104768057D01*
X143503368Y-104779232D01*
X143511323Y-104782199D01*
X143517740Y-104787759D01*
X143526144Y-104788967D01*
X143533596Y-104793036D01*
X143539286Y-104792629D01*
X143544635Y-104794624D01*
X143552932Y-104792818D01*
X143561335Y-104794027D01*
X143569059Y-104790499D01*
X143577527Y-104789894D01*
X143582093Y-104786475D01*
X143587672Y-104785262D01*
X143593676Y-104779257D01*
X143601399Y-104775731D01*
X143605990Y-104768586D01*
X143612785Y-104763500D01*
X143614778Y-104758155D01*
X143647074Y-104725859D01*
X143660404Y-104715881D01*
X143666225Y-104700274D01*
X143674209Y-104685653D01*
X143673801Y-104679962D01*
X143675797Y-104674614D01*
X143672254Y-104658330D01*
X143671067Y-104641722D01*
X143667648Y-104637155D01*
X143666435Y-104631577D01*
X143654651Y-104619793D01*
X143644673Y-104606464D01*
X143639328Y-104604470D01*
X143616779Y-104581921D01*
X143615968Y-104579159D01*
X143605417Y-104570016D01*
X143597054Y-104558845D01*
X143589099Y-104555878D01*
X143582682Y-104550317D01*
X143574279Y-104549108D01*
X143566826Y-104545039D01*
X143561133Y-104545446D01*
X143555787Y-104543452D01*
X143547489Y-104545257D01*
X143539087Y-104544049D01*
X143531363Y-104547576D01*
X143522895Y-104548182D01*
X143518328Y-104551600D01*
X143512750Y-104552814D01*
X143506745Y-104558818D01*
X143499023Y-104562345D01*
X143494432Y-104569488D01*
X143487636Y-104574576D01*
X143485642Y-104579921D01*
X143453348Y-104612215D01*
X143440017Y-104622195D01*
X143434195Y-104637802D01*
X143426212Y-104652423D01*
X143426619Y-104658115D01*
X143424625Y-104663462D01*
X143031653Y-104663462D01*
X142987049Y-104618858D01*
X142975772Y-104604851D01*
X142961230Y-104600003D01*
X142947778Y-104592658D01*
X142940710Y-104593163D01*
X142820943Y-104553241D01*
X142810328Y-104546419D01*
X142789648Y-104546419D01*
X142769009Y-104545673D01*
X142767750Y-104546419D01*
X142555571Y-104546419D01*
X142539087Y-104544049D01*
X142523934Y-104550968D01*
X142507951Y-104555662D01*
X142504214Y-104559974D01*
X142499023Y-104562345D01*
X142490015Y-104576361D01*
X142479109Y-104588948D01*
X142478297Y-104594594D01*
X142475211Y-104599397D01*
X142475211Y-104616059D01*
X142472841Y-104632543D01*
X142475211Y-104637733D01*
X142475211Y-105616059D01*
X142472841Y-105632543D01*
X141387115Y-105632543D01*
X141387115Y-105583235D01*
X141390232Y-105571045D01*
X141387115Y-105561666D01*
X141387115Y-105202282D01*
X141390232Y-105190092D01*
X141387115Y-105180713D01*
X141387115Y-105101640D01*
X141389045Y-105083765D01*
X141382190Y-105070055D01*
X141377872Y-105055349D01*
X141372517Y-105050709D01*
X141340122Y-104985918D01*
X141340225Y-104983006D01*
X141330365Y-104966405D01*
X141326756Y-104959186D01*
X141324880Y-104957169D01*
X141317734Y-104945137D01*
X141310169Y-104941354D01*
X141304412Y-104935165D01*
X141290858Y-104931699D01*
X141206409Y-104889475D01*
X141191280Y-104879752D01*
X141175950Y-104879752D01*
X141160867Y-104877038D01*
X141154323Y-104879752D01*
X140982813Y-104879752D01*
X140964938Y-104877822D01*
X140951228Y-104884676D01*
X140936522Y-104888995D01*
X140931882Y-104894349D01*
X140840359Y-104940111D01*
X140816338Y-104962455D01*
X140805427Y-105005126D01*
X140819317Y-105046922D01*
X140853599Y-105074574D01*
X140897388Y-105079302D01*
X140996486Y-105029752D01*
X141151552Y-105029752D01*
X141208594Y-105058273D01*
X141237115Y-105115313D01*
X141237115Y-105146495D01*
X141199172Y-105165466D01*
X140982813Y-105165466D01*
X140964938Y-105163536D01*
X140951228Y-105170390D01*
X140936522Y-105174709D01*
X140931882Y-105180063D01*
X140867091Y-105212458D01*
X140864179Y-105212356D01*
X140847578Y-105222215D01*
X140840359Y-105225825D01*
X140838342Y-105227700D01*
X140826310Y-105234847D01*
X140822527Y-105242411D01*
X140816338Y-105248169D01*
X140812872Y-105261722D01*
X140770648Y-105346171D01*
X140760925Y-105361301D01*
X140760925Y-105376631D01*
X140758211Y-105391714D01*
X140387115Y-105391714D01*
X140387115Y-105029752D01*
X140560992Y-105029752D01*
X140592470Y-105020509D01*
X140621312Y-104987223D01*
X140627580Y-104943628D01*
X140609284Y-104903564D01*
X140572232Y-104879752D01*
X140387115Y-104879752D01*
X140387115Y-104610637D01*
X140377872Y-104579159D01*
X140344586Y-104550317D01*
X140300991Y-104544049D01*
X140260927Y-104562345D01*
X140237115Y-104599397D01*
X140237115Y-104879752D01*
X140158476Y-104879752D01*
X140126998Y-104888995D01*
X140098156Y-104922281D01*
X140091888Y-104965876D01*
X139901529Y-104965876D01*
X139898184Y-104959186D01*
X139896308Y-104957169D01*
X139889162Y-104945137D01*
X139881597Y-104941354D01*
X139875840Y-104935165D01*
X139862286Y-104931699D01*
X139777837Y-104889475D01*
X139762708Y-104879752D01*
X139747378Y-104879752D01*
X139732295Y-104877038D01*
X139725751Y-104879752D01*
X139554241Y-104879752D01*
X139536366Y-104877822D01*
X139522656Y-104884676D01*
X139507950Y-104888995D01*
X139503310Y-104894349D01*
X139438519Y-104926744D01*
X139435607Y-104926642D01*
X139419006Y-104936501D01*
X139411787Y-104940111D01*
X139409770Y-104941986D01*
X139397738Y-104949133D01*
X139393955Y-104956697D01*
X139387766Y-104962455D01*
X139384300Y-104976008D01*
X139342076Y-105060457D01*
X139332353Y-105075587D01*
X139332353Y-105090917D01*
X139329639Y-105106000D01*
X138998000Y-105106000D01*
X138987048Y-105095048D01*
X138975771Y-105081041D01*
X138962861Y-105076737D01*
X138977546Y-105062052D01*
X138988396Y-105055609D01*
X138997650Y-105037099D01*
X139007541Y-105018986D01*
X139007436Y-105017527D01*
X139044059Y-104944281D01*
X139053781Y-104929155D01*
X139053781Y-104913825D01*
X139056495Y-104898742D01*
X139053781Y-104892198D01*
X139053781Y-104815926D01*
X139055711Y-104798051D01*
X139048856Y-104784341D01*
X139044538Y-104769635D01*
X139039183Y-104764995D01*
X139002449Y-104691526D01*
X138999767Y-104679196D01*
X138985147Y-104664576D01*
X138971078Y-104649451D01*
X138969659Y-104649088D01*
X138943224Y-104622653D01*
X138936781Y-104611804D01*
X138918280Y-104602553D01*
X138900158Y-104592658D01*
X138898697Y-104592762D01*
X138825456Y-104556142D01*
X138810327Y-104546419D01*
X138794997Y-104546419D01*
X138779914Y-104543705D01*
X138773370Y-104546419D01*
X138460332Y-104546419D01*
X138443848Y-104544049D01*
X138428695Y-104550968D01*
X138412712Y-104555662D01*
X138408975Y-104559974D01*
X138403784Y-104562345D01*
X138394776Y-104576361D01*
X138383870Y-104588948D01*
X138383058Y-104594594D01*
X138379972Y-104599397D01*
X138379972Y-104616059D01*
X138377602Y-104632543D01*
X138379972Y-104637733D01*
X138379972Y-105092249D01*
X138377602Y-105108733D01*
X138379972Y-105113923D01*
X138379972Y-105616059D01*
X138377602Y-105632543D01*
X137291877Y-105632543D01*
X137291877Y-105101640D01*
X137293807Y-105083765D01*
X137286952Y-105070055D01*
X137282634Y-105055349D01*
X137277279Y-105050709D01*
X137244884Y-104985918D01*
X137244987Y-104983005D01*
X137235126Y-104966402D01*
X137231518Y-104959186D01*
X137229642Y-104957170D01*
X137222496Y-104945137D01*
X137214931Y-104941354D01*
X137209174Y-104935165D01*
X137195620Y-104931699D01*
X137111170Y-104889474D01*
X137096041Y-104879752D01*
X137080711Y-104879752D01*
X137065628Y-104877038D01*
X137059084Y-104879752D01*
X136935193Y-104879752D01*
X136917318Y-104877822D01*
X136903608Y-104884676D01*
X136888902Y-104888995D01*
X136884262Y-104894349D01*
X136819471Y-104926744D01*
X136816559Y-104926642D01*
X136799958Y-104936501D01*
X136792739Y-104940111D01*
X136790722Y-104941986D01*
X136789305Y-104942828D01*
X136786359Y-104941354D01*
X136780602Y-104935165D01*
X136767048Y-104931699D01*
X136682599Y-104889475D01*
X136667470Y-104879752D01*
X136652140Y-104879752D01*
X136637057Y-104877038D01*
X136630513Y-104879752D01*
X136506622Y-104879752D01*
X136488747Y-104877822D01*
X136475037Y-104884676D01*
X136460331Y-104888995D01*
X136455691Y-104894349D01*
X136423264Y-104910562D01*
X136392205Y-104883650D01*
X136348610Y-104877382D01*
X136308546Y-104895678D01*
X136284734Y-104932730D01*
X136284734Y-105030848D01*
X136283354Y-105033375D01*
X135958543Y-105033375D01*
X135958543Y-104943970D01*
X135949300Y-104912492D01*
X135916014Y-104883650D01*
X135872419Y-104877382D01*
X135832355Y-104895678D01*
X135808543Y-104932730D01*
X135808543Y-105495115D01*
X135791495Y-105512161D01*
X135722981Y-105546419D01*
X135615535Y-105546419D01*
X135558493Y-105517898D01*
X135529972Y-105460857D01*
X135529972Y-104943970D01*
X135520729Y-104912492D01*
X135487443Y-104883650D01*
X135443848Y-104877382D01*
X135403784Y-104895678D01*
X135379972Y-104932730D01*
X135379972Y-105474520D01*
X135378041Y-105492405D01*
X134910924Y-105492405D01*
X134910924Y-105162934D01*
X134945183Y-105094416D01*
X134975588Y-105064010D01*
X135044104Y-105029752D01*
X135132420Y-105029752D01*
X135163898Y-105020509D01*
X135192740Y-104987223D01*
X135199008Y-104943628D01*
X135180712Y-104903564D01*
X135143660Y-104879752D01*
X135030431Y-104879752D01*
X135012556Y-104877822D01*
X134998846Y-104884676D01*
X134984140Y-104888995D01*
X134979500Y-104894349D01*
X134906998Y-104930600D01*
X134901681Y-104912492D01*
X134868395Y-104883650D01*
X134824800Y-104877382D01*
X134784736Y-104895678D01*
X134760924Y-104932730D01*
X134760924Y-105138536D01*
X134758210Y-105153619D01*
X134339495Y-105153619D01*
X134339495Y-105029752D01*
X134513372Y-105029752D01*
X134544850Y-105020509D01*
X134573692Y-104987223D01*
X134579960Y-104943628D01*
X134561664Y-104903564D01*
X134524612Y-104879752D01*
X134339495Y-104879752D01*
X134339495Y-104610637D01*
X134330252Y-104579159D01*
X134296966Y-104550317D01*
X134253371Y-104544049D01*
X134213307Y-104562345D01*
X134189495Y-104599397D01*
X134189495Y-104879752D01*
X134110856Y-104879752D01*
X134079378Y-104888995D01*
X134050536Y-104922281D01*
X134044268Y-104965876D01*
X133901478Y-104965876D01*
X133889161Y-104945137D01*
X133777836Y-104889475D01*
X133762707Y-104879752D01*
X133747377Y-104879752D01*
X133732294Y-104877038D01*
X133725750Y-104879752D01*
X133554240Y-104879752D01*
X133536365Y-104877822D01*
X133522655Y-104884676D01*
X133507949Y-104888995D01*
X133503309Y-104894349D01*
X133429840Y-104931083D01*
X133417510Y-104933766D01*
X133402890Y-104948385D01*
X133387765Y-104962455D01*
X133387402Y-104963873D01*
X133360967Y-104990308D01*
X133350118Y-104996752D01*
X133340867Y-105015252D01*
X133330972Y-105033375D01*
X133331076Y-105034835D01*
X133294456Y-105108076D01*
X133284733Y-105123206D01*
X133284733Y-105138536D01*
X133282019Y-105153619D01*
X133053780Y-105153619D01*
X133053780Y-105101640D01*
X133055710Y-105083765D01*
X133048855Y-105070055D01*
X133044537Y-105055349D01*
X133039182Y-105050709D01*
X133006787Y-104985918D01*
X133006890Y-104983006D01*
X132997030Y-104966405D01*
X132993421Y-104959186D01*
X132991545Y-104957169D01*
X132984399Y-104945137D01*
X132976834Y-104941354D01*
X132971077Y-104935165D01*
X132957523Y-104931699D01*
X132873074Y-104889475D01*
X132857945Y-104879752D01*
X132842615Y-104879752D01*
X132827532Y-104877038D01*
X132820988Y-104879752D01*
X132649478Y-104879752D01*
X132631603Y-104877822D01*
X132617893Y-104884676D01*
X132603187Y-104888995D01*
X132598547Y-104894349D01*
X132533756Y-104926744D01*
X132530844Y-104926642D01*
X132514243Y-104936501D01*
X132507024Y-104940111D01*
X132505007Y-104941986D01*
X132492975Y-104949133D01*
X132489192Y-104956697D01*
X132483003Y-104962455D01*
X132479537Y-104976008D01*
X132437313Y-105060457D01*
X132427590Y-105075587D01*
X132427590Y-105090917D01*
X132424876Y-105106000D01*
X132188284Y-105106000D01*
X132187394Y-105102968D01*
X132182039Y-105098328D01*
X132145305Y-105024859D01*
X132142623Y-105012529D01*
X132128003Y-104997909D01*
X132113934Y-104982784D01*
X132112515Y-104982421D01*
X132086080Y-104955986D01*
X132079637Y-104945137D01*
X132061136Y-104935886D01*
X132043014Y-104925991D01*
X132041553Y-104926095D01*
X131968312Y-104889475D01*
X131953183Y-104879752D01*
X131937853Y-104879752D01*
X131922770Y-104877038D01*
X131916226Y-104879752D01*
X131744716Y-104879752D01*
X131726841Y-104877822D01*
X131713131Y-104884676D01*
X131698425Y-104888995D01*
X131693785Y-104894349D01*
X131691553Y-104895465D01*
X131677918Y-104883650D01*
X131634323Y-104877382D01*
X131594259Y-104895678D01*
X131570447Y-104932730D01*
X131570447Y-104992936D01*
X131567330Y-105005126D01*
X130818663Y-105005126D01*
X130785111Y-104988350D01*
X130754704Y-104957943D01*
X130720447Y-104889428D01*
X130720447Y-104829601D01*
X130754706Y-104761083D01*
X130785111Y-104730677D01*
X130853627Y-104696419D01*
X131061848Y-104696419D01*
X131203386Y-104743599D01*
X131236172Y-104744784D01*
X131274060Y-104722327D01*
X131293792Y-104682951D01*
X131289104Y-104639157D01*
X131261484Y-104604851D01*
X131106655Y-104553241D01*
X131096040Y-104546419D01*
X131075360Y-104546419D01*
X131054721Y-104545673D01*
X131053462Y-104546419D01*
X130839954Y-104546419D01*
X130822079Y-104544489D01*
X130808369Y-104551343D01*
X130793663Y-104555662D01*
X130789023Y-104561016D01*
X130715554Y-104597750D01*
X130703224Y-104600433D01*
X130688604Y-104615052D01*
X130673479Y-104629122D01*
X130673116Y-104630540D01*
X130646681Y-104656975D01*
X130635832Y-104663419D01*
X130626581Y-104681919D01*
X130616686Y-104700042D01*
X130616790Y-104701502D01*
X130580170Y-104774743D01*
X130570447Y-104789873D01*
X130570447Y-104805203D01*
X130567733Y-104820286D01*
X129507769Y-104820286D01*
X129618593Y-104654050D01*
X129628363Y-104622732D01*
X129616666Y-104580270D01*
X129583869Y-104550873D01*
X129540385Y-104543873D01*
X129500020Y-104561493D01*
X129216874Y-104986210D01*
X128939965Y-104570845D01*
X128914814Y-104549781D01*
X128871119Y-104544247D01*
X128831369Y-104563214D01*
X128808183Y-104600660D01*
X128808923Y-104644698D01*
X129126736Y-105121418D01*
X128815157Y-105588788D01*
X128805387Y-105620106D01*
X128673786Y-105620106D01*
X128675197Y-105610295D01*
X128656901Y-105570231D01*
X128619849Y-105546419D01*
X128071300Y-105546419D01*
X128657609Y-104666953D01*
X128668929Y-104653890D01*
X128671209Y-104638031D01*
X128675982Y-104622732D01*
X128674291Y-104616594D01*
X128675197Y-104610295D01*
X128668540Y-104595719D01*
X128664285Y-104580270D01*
X128659545Y-104576021D01*
X128656901Y-104570231D01*
X128643416Y-104561565D01*
X128631488Y-104550873D01*
X128625205Y-104549861D01*
X128619849Y-104546419D01*
X128603820Y-104546419D01*
X128588004Y-104543873D01*
X128582171Y-104546419D01*
X127920379Y-104546419D01*
X127888901Y-104555662D01*
X127860059Y-104588948D01*
X127853791Y-104632543D01*
X127872087Y-104672607D01*
X127909139Y-104696419D01*
X128457688Y-104696419D01*
X127871378Y-105575884D01*
X127860059Y-105588948D01*
X127857778Y-105604806D01*
X127853006Y-105620106D01*
X126720446Y-105620106D01*
X126720446Y-105162934D01*
X126754705Y-105094416D01*
X126785110Y-105064010D01*
X126853626Y-105029752D01*
X126941942Y-105029752D01*
X126973420Y-105020509D01*
X127002262Y-104987223D01*
X127008530Y-104943628D01*
X126990234Y-104903564D01*
X126953182Y-104879752D01*
X126839953Y-104879752D01*
X126822078Y-104877822D01*
X126808368Y-104884676D01*
X126793662Y-104888995D01*
X126789022Y-104894349D01*
X126716520Y-104930600D01*
X126711203Y-104912492D01*
X126677917Y-104883650D01*
X126634322Y-104877382D01*
X126594258Y-104895678D01*
X126570446Y-104932730D01*
X126570446Y-105138536D01*
X126567732Y-105153619D01*
X126291874Y-105153619D01*
X126291874Y-105149259D01*
X126293804Y-105131384D01*
X126286949Y-105117674D01*
X126282631Y-105102968D01*
X126277276Y-105098328D01*
X126240542Y-105024859D01*
X126237860Y-105012529D01*
X126223240Y-104997909D01*
X126209171Y-104982784D01*
X126207752Y-104982421D01*
X126181317Y-104955986D01*
X126174874Y-104945137D01*
X126156373Y-104935886D01*
X126138251Y-104925991D01*
X126136790Y-104926095D01*
X126063549Y-104889475D01*
X126048420Y-104879752D01*
X126033090Y-104879752D01*
X126018007Y-104877038D01*
X126011463Y-104879752D01*
X125887572Y-104879752D01*
X125869697Y-104877822D01*
X125855987Y-104884676D01*
X125841281Y-104888995D01*
X125836641Y-104894349D01*
X125763172Y-104931083D01*
X125750842Y-104933766D01*
X125736222Y-104948385D01*
X125721097Y-104962455D01*
X125720734Y-104963873D01*
X125694299Y-104990308D01*
X125683450Y-104996752D01*
X125674199Y-105015252D01*
X125664304Y-105033375D01*
X125664408Y-105034835D01*
X125627788Y-105108076D01*
X125618065Y-105123206D01*
X125618065Y-105138536D01*
X125615351Y-105153619D01*
X125267580Y-105153619D01*
X125287976Y-105130080D01*
X125294244Y-105086485D01*
X125275948Y-105046421D01*
X125238896Y-105022609D01*
X124958541Y-105022609D01*
X124958541Y-104696419D01*
X125370513Y-104696419D01*
X125401991Y-104687176D01*
X125430833Y-104653890D01*
X125437101Y-104610295D01*
X125418805Y-104570231D01*
X125381753Y-104546419D01*
X124888901Y-104546419D01*
X124872417Y-104544049D01*
X124857264Y-104550968D01*
X124841281Y-104555662D01*
X124837544Y-104559974D01*
X124832353Y-104562345D01*
X124823345Y-104576361D01*
X124812439Y-104588948D01*
X124811627Y-104594594D01*
X124808541Y-104599397D01*
X124808541Y-104616059D01*
X124806171Y-104632543D01*
X124808541Y-104637733D01*
X124808541Y-105092249D01*
X124806171Y-105108733D01*
X124190089Y-105108733D01*
X124190089Y-103488733D01*
X129044267Y-103488733D01*
X129046637Y-103493923D01*
X129046637Y-104012201D01*
X129055880Y-104043679D01*
X129089166Y-104072521D01*
X129132761Y-104078789D01*
X129172825Y-104060493D01*
X129196637Y-104023441D01*
X129196637Y-103872405D01*
X129901849Y-103872405D01*
X129908705Y-103886118D01*
X129913023Y-103900821D01*
X129918376Y-103905459D01*
X129950772Y-103970251D01*
X129950670Y-103973165D01*
X129960531Y-103989769D01*
X129964139Y-103996984D01*
X129966013Y-103998998D01*
X129973161Y-104011034D01*
X129980725Y-104014816D01*
X129986483Y-104021006D01*
X130000036Y-104024471D01*
X130097739Y-104073323D01*
X130130028Y-104079133D01*
X130170711Y-104062260D01*
X130195813Y-104026070D01*
X130197366Y-103982054D01*
X130174875Y-103944185D01*
X130082301Y-103897898D01*
X130053780Y-103840857D01*
X130053780Y-103533619D01*
X130377257Y-103533619D01*
X130379971Y-103540163D01*
X130379971Y-103806902D01*
X130378040Y-103824786D01*
X130384896Y-103838499D01*
X130389214Y-103853202D01*
X130394567Y-103857840D01*
X130431302Y-103931309D01*
X130433985Y-103943640D01*
X130448604Y-103958260D01*
X130462674Y-103973386D01*
X130464092Y-103973748D01*
X130490526Y-104000183D01*
X130496971Y-104011034D01*
X130515482Y-104020289D01*
X130533593Y-104030179D01*
X130535052Y-104030074D01*
X130608298Y-104066697D01*
X130623425Y-104076419D01*
X130638755Y-104076419D01*
X130653838Y-104079133D01*
X130660382Y-104076419D01*
X130784264Y-104076419D01*
X130802148Y-104078350D01*
X130815861Y-104071493D01*
X130830564Y-104067176D01*
X130835202Y-104061822D01*
X130908670Y-104025087D01*
X130921004Y-104022405D01*
X130935635Y-104007772D01*
X130950748Y-103993716D01*
X130951110Y-103992296D01*
X130977544Y-103965862D01*
X130988395Y-103959418D01*
X130997651Y-103940904D01*
X131007541Y-103922794D01*
X131007436Y-103921334D01*
X131044058Y-103848090D01*
X131053780Y-103832964D01*
X131053780Y-103817634D01*
X131056494Y-103802551D01*
X131053780Y-103796007D01*
X131053780Y-103529259D01*
X131055710Y-103511384D01*
X131048855Y-103497674D01*
X131044537Y-103482968D01*
X131039182Y-103478328D01*
X131002448Y-103404859D01*
X130999766Y-103392529D01*
X130992363Y-103385126D01*
X131329235Y-103385126D01*
X131332352Y-103394505D01*
X131332352Y-103952490D01*
X131331623Y-103973165D01*
X131332352Y-103974392D01*
X131332352Y-104345534D01*
X131341595Y-104377012D01*
X131374881Y-104405854D01*
X131418476Y-104412122D01*
X131458540Y-104393826D01*
X131482352Y-104356774D01*
X131482352Y-104076419D01*
X131495898Y-104076419D01*
X131510981Y-104079133D01*
X131517525Y-104076419D01*
X131689026Y-104076419D01*
X131706910Y-104078350D01*
X131720623Y-104071493D01*
X131735326Y-104067176D01*
X131739964Y-104061822D01*
X131813432Y-104025087D01*
X131825766Y-104022405D01*
X131840397Y-104007772D01*
X131855510Y-103993716D01*
X131855872Y-103992296D01*
X131882306Y-103965862D01*
X131893157Y-103959418D01*
X131902413Y-103940904D01*
X131912303Y-103922794D01*
X131912198Y-103921334D01*
X131948820Y-103848090D01*
X131958542Y-103832964D01*
X131958542Y-103817634D01*
X131961256Y-103802551D01*
X131958542Y-103796007D01*
X131958542Y-103529259D01*
X131960472Y-103511384D01*
X131953617Y-103497674D01*
X131949299Y-103482968D01*
X131943944Y-103478328D01*
X131907210Y-103404859D01*
X131904528Y-103392529D01*
X131897125Y-103385126D01*
X132233997Y-103385126D01*
X132237114Y-103394505D01*
X132237114Y-103952490D01*
X132236385Y-103973165D01*
X132237114Y-103974392D01*
X132237114Y-104345534D01*
X132246357Y-104377012D01*
X132279643Y-104405854D01*
X132323238Y-104412122D01*
X132363302Y-104393826D01*
X132387114Y-104356774D01*
X132387114Y-104337507D01*
X133043521Y-104337507D01*
X133057411Y-104379303D01*
X133091693Y-104406955D01*
X133135482Y-104411683D01*
X133242005Y-104358420D01*
X133254337Y-104355738D01*
X133268964Y-104341110D01*
X133284082Y-104327049D01*
X133284444Y-104325630D01*
X133313108Y-104296966D01*
X133325952Y-104287815D01*
X133332469Y-104271521D01*
X133340874Y-104256129D01*
X133340533Y-104251362D01*
X133421754Y-104048309D01*
X133422957Y-104047383D01*
X133424505Y-104043045D01*
X133427808Y-104039835D01*
X133431494Y-104023959D01*
X133433373Y-104019263D01*
X133433508Y-104017838D01*
X133435399Y-104012543D01*
X134663316Y-104012543D01*
X134670235Y-104027695D01*
X134674929Y-104043679D01*
X134679241Y-104047415D01*
X134681612Y-104052607D01*
X134695628Y-104061614D01*
X134708215Y-104072521D01*
X134713861Y-104073332D01*
X134718664Y-104076419D01*
X134735326Y-104076419D01*
X134751810Y-104078789D01*
X134757000Y-104076419D01*
X135227658Y-104076419D01*
X135259136Y-104067176D01*
X135287978Y-104033890D01*
X135294246Y-103990295D01*
X135275950Y-103950231D01*
X135238898Y-103926419D01*
X134815686Y-103926419D01*
X134815686Y-103552609D01*
X135084801Y-103552609D01*
X135116279Y-103543366D01*
X135145121Y-103510080D01*
X135151389Y-103466485D01*
X135133093Y-103426421D01*
X135112793Y-103413375D01*
X135569068Y-103413375D01*
X135570448Y-103432664D01*
X135570448Y-104012201D01*
X135579691Y-104043679D01*
X135612977Y-104072521D01*
X135656572Y-104078789D01*
X135696636Y-104060493D01*
X135720448Y-104023441D01*
X135720448Y-103461056D01*
X135737493Y-103444010D01*
X135806009Y-103409752D01*
X135913456Y-103409752D01*
X135970498Y-103438273D01*
X135999019Y-103495313D01*
X135999019Y-104012201D01*
X136008262Y-104043679D01*
X136041548Y-104072521D01*
X136085143Y-104078789D01*
X136125207Y-104060493D01*
X136149019Y-104023441D01*
X136149019Y-103495315D01*
X136177540Y-103438272D01*
X136234580Y-103409752D01*
X136342028Y-103409752D01*
X136399070Y-103438272D01*
X136427591Y-103495313D01*
X136427591Y-104012201D01*
X136436834Y-104043679D01*
X136470120Y-104072521D01*
X136513715Y-104078789D01*
X136553779Y-104060493D01*
X136577591Y-104023441D01*
X136577591Y-103872405D01*
X136901850Y-103872405D01*
X136908706Y-103886118D01*
X136913024Y-103900821D01*
X136918377Y-103905459D01*
X136950773Y-103970251D01*
X136950671Y-103973165D01*
X136960532Y-103989769D01*
X136964140Y-103996984D01*
X136966014Y-103998998D01*
X136973162Y-104011034D01*
X136980726Y-104014816D01*
X136986484Y-104021006D01*
X137000037Y-104024471D01*
X137084489Y-104066697D01*
X137099616Y-104076419D01*
X137114946Y-104076419D01*
X137130029Y-104079133D01*
X137136573Y-104076419D01*
X137260455Y-104076419D01*
X137278339Y-104078350D01*
X137292052Y-104071493D01*
X137306755Y-104067176D01*
X137311393Y-104061822D01*
X137343821Y-104045608D01*
X137374881Y-104072521D01*
X137418476Y-104078789D01*
X137458540Y-104060493D01*
X137482352Y-104023441D01*
X137482352Y-103925321D01*
X137483732Y-103922794D01*
X137482352Y-103903505D01*
X137482352Y-103872405D01*
X137806612Y-103872405D01*
X137813468Y-103886118D01*
X137817786Y-103900821D01*
X137823139Y-103905459D01*
X137855535Y-103970251D01*
X137855433Y-103973165D01*
X137865294Y-103989769D01*
X137868902Y-103996984D01*
X137870776Y-103998998D01*
X137877924Y-104011034D01*
X137885488Y-104014816D01*
X137891246Y-104021006D01*
X137904799Y-104024471D01*
X138002502Y-104073323D01*
X138034791Y-104079133D01*
X138075474Y-104062260D01*
X138100576Y-104026070D01*
X138102129Y-103982054D01*
X138079638Y-103944185D01*
X137987064Y-103897898D01*
X137958543Y-103840857D01*
X137958543Y-103771714D01*
X138282020Y-103771714D01*
X138284734Y-103778258D01*
X138284734Y-103854520D01*
X138282803Y-103872405D01*
X138289659Y-103886118D01*
X138293977Y-103900821D01*
X138299330Y-103905459D01*
X138331726Y-103970251D01*
X138331624Y-103973165D01*
X138341485Y-103989769D01*
X138345093Y-103996984D01*
X138346967Y-103998998D01*
X138354115Y-104011034D01*
X138361679Y-104014816D01*
X138367437Y-104021006D01*
X138380990Y-104024471D01*
X138465442Y-104066697D01*
X138480569Y-104076419D01*
X138495899Y-104076419D01*
X138510982Y-104079133D01*
X138517526Y-104076419D01*
X138736646Y-104076419D01*
X138754530Y-104078350D01*
X138768243Y-104071493D01*
X138782946Y-104067176D01*
X138787584Y-104061822D01*
X138789817Y-104060705D01*
X138803453Y-104072521D01*
X138847048Y-104078789D01*
X138887112Y-104060493D01*
X138910924Y-104023441D01*
X138910924Y-103963235D01*
X138914041Y-103951045D01*
X138910924Y-103941666D01*
X138910924Y-103582282D01*
X138914041Y-103570092D01*
X138910924Y-103560713D01*
X138910924Y-103481640D01*
X138912854Y-103463765D01*
X138905999Y-103450055D01*
X138901681Y-103435349D01*
X138896326Y-103430709D01*
X138863931Y-103365918D01*
X138864034Y-103363006D01*
X138854174Y-103346405D01*
X138853910Y-103345876D01*
X139091888Y-103345876D01*
X139110184Y-103385940D01*
X139147236Y-103409752D01*
X139237115Y-103409752D01*
X139237115Y-103854520D01*
X139235184Y-103872405D01*
X139242040Y-103886118D01*
X139246358Y-103900821D01*
X139251711Y-103905459D01*
X139284107Y-103970251D01*
X139284005Y-103973165D01*
X139293866Y-103989769D01*
X139297474Y-103996984D01*
X139299348Y-103998998D01*
X139306496Y-104011034D01*
X139314060Y-104014816D01*
X139319818Y-104021006D01*
X139333371Y-104024471D01*
X139417823Y-104066697D01*
X139432950Y-104076419D01*
X139448280Y-104076419D01*
X139463363Y-104079133D01*
X139469907Y-104076419D01*
X139560992Y-104076419D01*
X139592470Y-104067176D01*
X139621312Y-104033890D01*
X139627580Y-103990295D01*
X139609284Y-103950231D01*
X139572232Y-103926419D01*
X139472678Y-103926419D01*
X139415636Y-103897898D01*
X139387115Y-103840857D01*
X139387115Y-103533619D01*
X139758211Y-103533619D01*
X139760925Y-103540163D01*
X139760925Y-103806902D01*
X139758994Y-103824786D01*
X139765850Y-103838499D01*
X139770168Y-103853202D01*
X139775521Y-103857840D01*
X139812256Y-103931309D01*
X139814939Y-103943640D01*
X139829558Y-103958260D01*
X139843628Y-103973386D01*
X139845046Y-103973748D01*
X139871480Y-104000183D01*
X139877925Y-104011034D01*
X139896436Y-104020289D01*
X139914547Y-104030179D01*
X139916006Y-104030074D01*
X139989252Y-104066697D01*
X140004379Y-104076419D01*
X140019709Y-104076419D01*
X140034792Y-104079133D01*
X140041336Y-104076419D01*
X140165218Y-104076419D01*
X140183102Y-104078350D01*
X140196815Y-104071493D01*
X140211518Y-104067176D01*
X140216156Y-104061822D01*
X140289624Y-104025087D01*
X140301958Y-104022405D01*
X140316589Y-104007772D01*
X140331702Y-103993716D01*
X140332064Y-103992296D01*
X140358498Y-103965862D01*
X140369349Y-103959418D01*
X140378605Y-103940904D01*
X140388495Y-103922794D01*
X140388390Y-103921334D01*
X140425012Y-103848090D01*
X140434734Y-103832964D01*
X140434734Y-103817634D01*
X140437448Y-103802551D01*
X140434734Y-103796007D01*
X140434734Y-103533619D01*
X140710592Y-103533619D01*
X140713306Y-103540163D01*
X140713306Y-104012201D01*
X140722549Y-104043679D01*
X140755835Y-104072521D01*
X140799430Y-104078789D01*
X140839494Y-104060493D01*
X140863306Y-104023441D01*
X140863306Y-103542934D01*
X140897565Y-103474416D01*
X140927970Y-103444010D01*
X140996486Y-103409752D01*
X141084802Y-103409752D01*
X141116280Y-103400509D01*
X141145122Y-103367223D01*
X141151390Y-103323628D01*
X141133094Y-103283564D01*
X141096042Y-103259752D01*
X140982813Y-103259752D01*
X140964938Y-103257822D01*
X140951228Y-103264676D01*
X140936522Y-103268995D01*
X140931882Y-103274349D01*
X140859380Y-103310600D01*
X140854063Y-103292492D01*
X140820777Y-103263650D01*
X140777182Y-103257382D01*
X140737118Y-103275678D01*
X140713306Y-103312730D01*
X140713306Y-103518536D01*
X140710592Y-103533619D01*
X140434734Y-103533619D01*
X140434734Y-103529259D01*
X140436664Y-103511384D01*
X140429809Y-103497674D01*
X140425491Y-103482968D01*
X140420136Y-103478328D01*
X140383402Y-103404859D01*
X140380720Y-103392529D01*
X140366100Y-103377909D01*
X140352031Y-103362784D01*
X140350612Y-103362421D01*
X140324177Y-103335986D01*
X140317734Y-103325137D01*
X140299233Y-103315886D01*
X140281111Y-103305991D01*
X140279650Y-103306095D01*
X140206409Y-103269475D01*
X140191280Y-103259752D01*
X140175950Y-103259752D01*
X140160867Y-103257038D01*
X140154323Y-103259752D01*
X140030432Y-103259752D01*
X140012557Y-103257822D01*
X139998847Y-103264676D01*
X139984141Y-103268995D01*
X139979501Y-103274349D01*
X139906032Y-103311083D01*
X139893702Y-103313766D01*
X139879082Y-103328385D01*
X139863957Y-103342455D01*
X139863594Y-103343873D01*
X139837159Y-103370308D01*
X139826310Y-103376752D01*
X139817059Y-103395252D01*
X139807164Y-103413375D01*
X139807268Y-103414835D01*
X139770648Y-103488076D01*
X139760925Y-103503206D01*
X139760925Y-103518536D01*
X139758211Y-103533619D01*
X139387115Y-103533619D01*
X139387115Y-103409752D01*
X139560992Y-103409752D01*
X139592470Y-103400509D01*
X139621312Y-103367223D01*
X139627580Y-103323628D01*
X139609284Y-103283564D01*
X139572232Y-103259752D01*
X139387115Y-103259752D01*
X139387115Y-102990637D01*
X139377872Y-102959159D01*
X139344586Y-102930317D01*
X139300991Y-102924049D01*
X139260927Y-102942345D01*
X139237115Y-102979397D01*
X139237115Y-103259752D01*
X139158476Y-103259752D01*
X139126998Y-103268995D01*
X139098156Y-103302281D01*
X139091888Y-103345876D01*
X138853910Y-103345876D01*
X138850565Y-103339186D01*
X138848689Y-103337169D01*
X138841543Y-103325137D01*
X138833978Y-103321354D01*
X138828221Y-103315165D01*
X138814667Y-103311699D01*
X138730218Y-103269475D01*
X138715089Y-103259752D01*
X138699759Y-103259752D01*
X138684676Y-103257038D01*
X138678132Y-103259752D01*
X138506622Y-103259752D01*
X138488747Y-103257822D01*
X138475037Y-103264676D01*
X138460331Y-103268995D01*
X138455691Y-103274349D01*
X138364168Y-103320111D01*
X138340147Y-103342455D01*
X138329236Y-103385126D01*
X138343126Y-103426922D01*
X138377408Y-103454574D01*
X138421197Y-103459302D01*
X138520295Y-103409752D01*
X138675361Y-103409752D01*
X138732403Y-103438273D01*
X138760924Y-103495313D01*
X138760924Y-103526495D01*
X138722981Y-103545466D01*
X138506622Y-103545466D01*
X138488747Y-103543536D01*
X138475037Y-103550390D01*
X138460331Y-103554709D01*
X138455691Y-103560063D01*
X138390900Y-103592458D01*
X138387988Y-103592356D01*
X138371387Y-103602215D01*
X138364168Y-103605825D01*
X138362151Y-103607700D01*
X138350119Y-103614847D01*
X138346336Y-103622411D01*
X138340147Y-103628169D01*
X138336681Y-103641722D01*
X138294457Y-103726171D01*
X138284734Y-103741301D01*
X138284734Y-103756631D01*
X138282020Y-103771714D01*
X137958543Y-103771714D01*
X137958543Y-102990637D01*
X137949300Y-102959159D01*
X137916014Y-102930317D01*
X137872419Y-102924049D01*
X137832355Y-102942345D01*
X137808543Y-102979397D01*
X137808543Y-103854520D01*
X137806612Y-103872405D01*
X137482352Y-103872405D01*
X137482352Y-103323970D01*
X137473109Y-103292492D01*
X137439823Y-103263650D01*
X137396228Y-103257382D01*
X137356164Y-103275678D01*
X137332352Y-103312730D01*
X137332352Y-103875115D01*
X137315304Y-103892161D01*
X137246790Y-103926419D01*
X137139344Y-103926419D01*
X137082302Y-103897898D01*
X137053781Y-103840857D01*
X137053781Y-103323970D01*
X137044538Y-103292492D01*
X137011252Y-103263650D01*
X136967657Y-103257382D01*
X136927593Y-103275678D01*
X136903781Y-103312730D01*
X136903781Y-103854520D01*
X136901850Y-103872405D01*
X136577591Y-103872405D01*
X136577591Y-103481640D01*
X136579521Y-103463765D01*
X136572666Y-103450055D01*
X136568348Y-103435349D01*
X136562993Y-103430709D01*
X136530598Y-103365918D01*
X136530701Y-103363005D01*
X136520840Y-103346402D01*
X136517232Y-103339186D01*
X136515356Y-103337170D01*
X136508210Y-103325137D01*
X136500645Y-103321354D01*
X136494888Y-103315165D01*
X136481334Y-103311699D01*
X136396884Y-103269474D01*
X136381755Y-103259752D01*
X136366425Y-103259752D01*
X136351342Y-103257038D01*
X136344798Y-103259752D01*
X136220907Y-103259752D01*
X136203032Y-103257822D01*
X136189322Y-103264676D01*
X136174616Y-103268995D01*
X136169976Y-103274349D01*
X136105185Y-103306744D01*
X136102273Y-103306642D01*
X136085672Y-103316501D01*
X136078453Y-103320111D01*
X136076436Y-103321986D01*
X136075019Y-103322828D01*
X136072073Y-103321354D01*
X136066316Y-103315165D01*
X136052762Y-103311699D01*
X135968313Y-103269475D01*
X135953184Y-103259752D01*
X135937854Y-103259752D01*
X135922771Y-103257038D01*
X135916227Y-103259752D01*
X135792336Y-103259752D01*
X135774461Y-103257822D01*
X135760751Y-103264676D01*
X135746045Y-103268995D01*
X135741405Y-103274349D01*
X135708978Y-103290562D01*
X135677919Y-103263650D01*
X135634324Y-103257382D01*
X135594260Y-103275678D01*
X135570448Y-103312730D01*
X135570448Y-103410848D01*
X135569068Y-103413375D01*
X135112793Y-103413375D01*
X135096041Y-103402609D01*
X134815686Y-103402609D01*
X134815686Y-103076419D01*
X135227658Y-103076419D01*
X135259136Y-103067176D01*
X135287978Y-103033890D01*
X135294246Y-102990295D01*
X135275950Y-102950231D01*
X135238898Y-102926419D01*
X134746046Y-102926419D01*
X134729562Y-102924049D01*
X134714409Y-102930968D01*
X134698426Y-102935662D01*
X134694689Y-102939974D01*
X134689498Y-102942345D01*
X134680490Y-102956361D01*
X134669584Y-102968948D01*
X134668772Y-102974594D01*
X134665686Y-102979397D01*
X134665686Y-102996059D01*
X134663316Y-103012543D01*
X134665686Y-103017733D01*
X134665686Y-103472249D01*
X134663316Y-103488733D01*
X134665686Y-103493923D01*
X134665686Y-103996059D01*
X134663316Y-104012543D01*
X133435399Y-104012543D01*
X133672085Y-103349824D01*
X133673968Y-103317071D01*
X133652321Y-103278714D01*
X133613374Y-103258148D01*
X133569491Y-103261903D01*
X133534604Y-103288788D01*
X133359732Y-103778428D01*
X133188642Y-103299373D01*
X133169351Y-103272838D01*
X133128303Y-103256871D01*
X133085140Y-103265631D01*
X133053563Y-103296336D01*
X133043601Y-103339238D01*
X133279556Y-103999915D01*
X133200576Y-104197366D01*
X133172448Y-104225494D01*
X133078453Y-104272492D01*
X133054432Y-104294836D01*
X133043521Y-104337507D01*
X132387114Y-104337507D01*
X132387114Y-104076419D01*
X132400660Y-104076419D01*
X132415743Y-104079133D01*
X132422287Y-104076419D01*
X132593788Y-104076419D01*
X132611672Y-104078350D01*
X132625385Y-104071493D01*
X132640088Y-104067176D01*
X132644726Y-104061822D01*
X132718194Y-104025087D01*
X132730528Y-104022405D01*
X132745159Y-104007772D01*
X132760272Y-103993716D01*
X132760634Y-103992296D01*
X132787068Y-103965862D01*
X132797919Y-103959418D01*
X132807175Y-103940904D01*
X132817065Y-103922794D01*
X132816960Y-103921334D01*
X132853582Y-103848090D01*
X132863304Y-103832964D01*
X132863304Y-103817634D01*
X132866018Y-103802551D01*
X132863304Y-103796007D01*
X132863304Y-103529259D01*
X132865234Y-103511384D01*
X132858379Y-103497674D01*
X132854061Y-103482968D01*
X132848706Y-103478328D01*
X132811972Y-103404859D01*
X132809290Y-103392529D01*
X132794670Y-103377909D01*
X132780601Y-103362784D01*
X132779182Y-103362421D01*
X132752747Y-103335986D01*
X132746304Y-103325137D01*
X132727803Y-103315886D01*
X132709681Y-103305991D01*
X132708220Y-103306095D01*
X132634979Y-103269475D01*
X132619850Y-103259752D01*
X132604520Y-103259752D01*
X132589437Y-103257038D01*
X132582893Y-103259752D01*
X132411383Y-103259752D01*
X132393508Y-103257822D01*
X132379798Y-103264676D01*
X132365092Y-103268995D01*
X132360452Y-103274349D01*
X132358220Y-103275465D01*
X132344585Y-103263650D01*
X132300990Y-103257382D01*
X132260926Y-103275678D01*
X132237114Y-103312730D01*
X132237114Y-103372936D01*
X132233997Y-103385126D01*
X131897125Y-103385126D01*
X131889908Y-103377909D01*
X131875839Y-103362784D01*
X131874420Y-103362421D01*
X131847985Y-103335986D01*
X131841542Y-103325137D01*
X131823041Y-103315886D01*
X131804919Y-103305991D01*
X131803458Y-103306095D01*
X131730217Y-103269475D01*
X131715088Y-103259752D01*
X131699758Y-103259752D01*
X131684675Y-103257038D01*
X131678131Y-103259752D01*
X131506621Y-103259752D01*
X131488746Y-103257822D01*
X131475036Y-103264676D01*
X131460330Y-103268995D01*
X131455690Y-103274349D01*
X131453458Y-103275465D01*
X131439823Y-103263650D01*
X131396228Y-103257382D01*
X131356164Y-103275678D01*
X131332352Y-103312730D01*
X131332352Y-103372936D01*
X131329235Y-103385126D01*
X130992363Y-103385126D01*
X130985146Y-103377909D01*
X130971077Y-103362784D01*
X130969658Y-103362421D01*
X130943223Y-103335986D01*
X130936780Y-103325137D01*
X130918279Y-103315886D01*
X130900157Y-103305991D01*
X130898696Y-103306095D01*
X130825455Y-103269475D01*
X130810326Y-103259752D01*
X130794996Y-103259752D01*
X130779913Y-103257038D01*
X130773369Y-103259752D01*
X130649478Y-103259752D01*
X130631603Y-103257822D01*
X130617893Y-103264676D01*
X130603187Y-103268995D01*
X130598547Y-103274349D01*
X130525078Y-103311083D01*
X130512748Y-103313766D01*
X130498128Y-103328385D01*
X130483003Y-103342455D01*
X130482640Y-103343873D01*
X130456205Y-103370308D01*
X130445356Y-103376752D01*
X130436105Y-103395252D01*
X130426210Y-103413375D01*
X130426314Y-103414835D01*
X130389694Y-103488076D01*
X130379971Y-103503206D01*
X130379971Y-103518536D01*
X130377257Y-103533619D01*
X130053780Y-103533619D01*
X130053780Y-102990637D01*
X130044537Y-102959159D01*
X130011251Y-102930317D01*
X129967656Y-102924049D01*
X129927592Y-102942345D01*
X129903780Y-102979397D01*
X129903780Y-103854520D01*
X129901849Y-103872405D01*
X129196637Y-103872405D01*
X129196637Y-103552609D01*
X129465752Y-103552609D01*
X129497230Y-103543366D01*
X129526072Y-103510080D01*
X129532340Y-103466485D01*
X129514044Y-103426421D01*
X129476992Y-103402609D01*
X129196637Y-103402609D01*
X129196637Y-103076419D01*
X129608609Y-103076419D01*
X129640087Y-103067176D01*
X129668929Y-103033890D01*
X129675197Y-102990295D01*
X129656901Y-102950231D01*
X129619849Y-102926419D01*
X129126997Y-102926419D01*
X129110513Y-102924049D01*
X129095360Y-102930968D01*
X129079377Y-102935662D01*
X129075640Y-102939974D01*
X129070449Y-102942345D01*
X129061441Y-102956361D01*
X129050535Y-102968948D01*
X129049723Y-102974594D01*
X129046637Y-102979397D01*
X129046637Y-102996059D01*
X129044267Y-103012543D01*
X129046637Y-103017733D01*
X129046637Y-103472249D01*
X129044267Y-103488733D01*
X124190089Y-103488733D01*
X124190089Y-102483443D01*
X145862711Y-102483443D01*
X145862711Y-109454157D01*
G37*
X119902267Y-131805219D02*
X119902267Y-130805219D01*
X119902267Y-130805219D02*
X120140362Y-130805219D01*
X120140362Y-130805219D02*
X120283219Y-130852838D01*
X120283219Y-130852838D02*
X120378457Y-130948076D01*
X120378457Y-130948076D02*
X120426076Y-131043314D01*
X120426076Y-131043314D02*
X120473695Y-131233790D01*
X120473695Y-131233790D02*
X120473695Y-131376647D01*
X120473695Y-131376647D02*
X120426076Y-131567123D01*
X120426076Y-131567123D02*
X120378457Y-131662361D01*
X120378457Y-131662361D02*
X120283219Y-131757600D01*
X120283219Y-131757600D02*
X120140362Y-131805219D01*
X120140362Y-131805219D02*
X119902267Y-131805219D01*
X120902267Y-131805219D02*
X120902267Y-131138552D01*
X120902267Y-131329028D02*
X120949886Y-131233790D01*
X120949886Y-131233790D02*
X120997505Y-131186171D01*
X120997505Y-131186171D02*
X121092743Y-131138552D01*
X121092743Y-131138552D02*
X121187981Y-131138552D01*
X121521315Y-131805219D02*
X121521315Y-131138552D01*
X121521315Y-130805219D02*
X121473696Y-130852838D01*
X121473696Y-130852838D02*
X121521315Y-130900457D01*
X121521315Y-130900457D02*
X121568934Y-130852838D01*
X121568934Y-130852838D02*
X121521315Y-130805219D01*
X121521315Y-130805219D02*
X121521315Y-130900457D01*
X121902267Y-131138552D02*
X122140362Y-131805219D01*
X122140362Y-131805219D02*
X122378457Y-131138552D01*
X123140362Y-131757600D02*
X123045124Y-131805219D01*
X123045124Y-131805219D02*
X122854648Y-131805219D01*
X122854648Y-131805219D02*
X122759410Y-131757600D01*
X122759410Y-131757600D02*
X122711791Y-131662361D01*
X122711791Y-131662361D02*
X122711791Y-131281409D01*
X122711791Y-131281409D02*
X122759410Y-131186171D01*
X122759410Y-131186171D02*
X122854648Y-131138552D01*
X122854648Y-131138552D02*
X123045124Y-131138552D01*
X123045124Y-131138552D02*
X123140362Y-131186171D01*
X123140362Y-131186171D02*
X123187981Y-131281409D01*
X123187981Y-131281409D02*
X123187981Y-131376647D01*
X123187981Y-131376647D02*
X122711791Y-131471885D01*
X124711791Y-131281409D02*
X124854648Y-131329028D01*
X124854648Y-131329028D02*
X124902267Y-131376647D01*
X124902267Y-131376647D02*
X124949886Y-131471885D01*
X124949886Y-131471885D02*
X124949886Y-131614742D01*
X124949886Y-131614742D02*
X124902267Y-131709980D01*
X124902267Y-131709980D02*
X124854648Y-131757600D01*
X124854648Y-131757600D02*
X124759410Y-131805219D01*
X124759410Y-131805219D02*
X124378458Y-131805219D01*
X124378458Y-131805219D02*
X124378458Y-130805219D01*
X124378458Y-130805219D02*
X124711791Y-130805219D01*
X124711791Y-130805219D02*
X124807029Y-130852838D01*
X124807029Y-130852838D02*
X124854648Y-130900457D01*
X124854648Y-130900457D02*
X124902267Y-130995695D01*
X124902267Y-130995695D02*
X124902267Y-131090933D01*
X124902267Y-131090933D02*
X124854648Y-131186171D01*
X124854648Y-131186171D02*
X124807029Y-131233790D01*
X124807029Y-131233790D02*
X124711791Y-131281409D01*
X124711791Y-131281409D02*
X124378458Y-131281409D01*
X119973695Y-143895619D02*
X119973695Y-142895619D01*
X119973695Y-142895619D02*
X120211790Y-142895619D01*
X120211790Y-142895619D02*
X120354647Y-142943238D01*
X120354647Y-142943238D02*
X120449885Y-143038476D01*
X120449885Y-143038476D02*
X120497504Y-143133714D01*
X120497504Y-143133714D02*
X120545123Y-143324190D01*
X120545123Y-143324190D02*
X120545123Y-143467047D01*
X120545123Y-143467047D02*
X120497504Y-143657523D01*
X120497504Y-143657523D02*
X120449885Y-143752761D01*
X120449885Y-143752761D02*
X120354647Y-143848000D01*
X120354647Y-143848000D02*
X120211790Y-143895619D01*
X120211790Y-143895619D02*
X119973695Y-143895619D01*
X120973695Y-143895619D02*
X120973695Y-143228952D01*
X120973695Y-143419428D02*
X121021314Y-143324190D01*
X121021314Y-143324190D02*
X121068933Y-143276571D01*
X121068933Y-143276571D02*
X121164171Y-143228952D01*
X121164171Y-143228952D02*
X121259409Y-143228952D01*
X121592743Y-143895619D02*
X121592743Y-143228952D01*
X121592743Y-142895619D02*
X121545124Y-142943238D01*
X121545124Y-142943238D02*
X121592743Y-142990857D01*
X121592743Y-142990857D02*
X121640362Y-142943238D01*
X121640362Y-142943238D02*
X121592743Y-142895619D01*
X121592743Y-142895619D02*
X121592743Y-142990857D01*
X121973695Y-143228952D02*
X122211790Y-143895619D01*
X122211790Y-143895619D02*
X122449885Y-143228952D01*
X123211790Y-143848000D02*
X123116552Y-143895619D01*
X123116552Y-143895619D02*
X122926076Y-143895619D01*
X122926076Y-143895619D02*
X122830838Y-143848000D01*
X122830838Y-143848000D02*
X122783219Y-143752761D01*
X122783219Y-143752761D02*
X122783219Y-143371809D01*
X122783219Y-143371809D02*
X122830838Y-143276571D01*
X122830838Y-143276571D02*
X122926076Y-143228952D01*
X122926076Y-143228952D02*
X123116552Y-143228952D01*
X123116552Y-143228952D02*
X123211790Y-143276571D01*
X123211790Y-143276571D02*
X123259409Y-143371809D01*
X123259409Y-143371809D02*
X123259409Y-143467047D01*
X123259409Y-143467047D02*
X122783219Y-143562285D01*
X124402267Y-143609904D02*
X124878457Y-143609904D01*
X124307029Y-143895619D02*
X124640362Y-142895619D01*
X124640362Y-142895619D02*
X124973695Y-143895619D01*
X120802304Y-134672419D02*
X120230876Y-134672419D01*
X120516590Y-134672419D02*
X120516590Y-133672419D01*
X120516590Y-133672419D02*
X120421352Y-133815276D01*
X120421352Y-133815276D02*
X120326114Y-133910514D01*
X120326114Y-133910514D02*
X120230876Y-133958133D01*
X120230876Y-137007657D02*
X120278495Y-136960038D01*
X120278495Y-136960038D02*
X120373733Y-136912419D01*
X120373733Y-136912419D02*
X120611828Y-136912419D01*
X120611828Y-136912419D02*
X120707066Y-136960038D01*
X120707066Y-136960038D02*
X120754685Y-137007657D01*
X120754685Y-137007657D02*
X120802304Y-137102895D01*
X120802304Y-137102895D02*
X120802304Y-137198133D01*
X120802304Y-137198133D02*
X120754685Y-137340990D01*
X120754685Y-137340990D02*
X120183257Y-137912419D01*
X120183257Y-137912419D02*
X120802304Y-137912419D01*
X120183257Y-140152419D02*
X120802304Y-140152419D01*
X120802304Y-140152419D02*
X120468971Y-140533371D01*
X120468971Y-140533371D02*
X120611828Y-140533371D01*
X120611828Y-140533371D02*
X120707066Y-140580990D01*
X120707066Y-140580990D02*
X120754685Y-140628609D01*
X120754685Y-140628609D02*
X120802304Y-140723847D01*
X120802304Y-140723847D02*
X120802304Y-140961942D01*
X120802304Y-140961942D02*
X120754685Y-141057180D01*
X120754685Y-141057180D02*
X120707066Y-141104800D01*
X120707066Y-141104800D02*
X120611828Y-141152419D01*
X120611828Y-141152419D02*
X120326114Y-141152419D01*
X120326114Y-141152419D02*
X120230876Y-141104800D01*
X120230876Y-141104800D02*
X120183257Y-141057180D01*
%TO.C,R4*%
X169982219Y-145657866D02*
X169506028Y-145991199D01*
X169982219Y-146229294D02*
X168982219Y-146229294D01*
X168982219Y-146229294D02*
X168982219Y-145848342D01*
X168982219Y-145848342D02*
X169029838Y-145753104D01*
X169029838Y-145753104D02*
X169077457Y-145705485D01*
X169077457Y-145705485D02*
X169172695Y-145657866D01*
X169172695Y-145657866D02*
X169315552Y-145657866D01*
X169315552Y-145657866D02*
X169410790Y-145705485D01*
X169410790Y-145705485D02*
X169458409Y-145753104D01*
X169458409Y-145753104D02*
X169506028Y-145848342D01*
X169506028Y-145848342D02*
X169506028Y-146229294D01*
X169315552Y-144800723D02*
X169982219Y-144800723D01*
X168934600Y-145038818D02*
X169648885Y-145276913D01*
X169648885Y-145276913D02*
X169648885Y-144657866D01*
X171420619Y-147038817D02*
X171420619Y-146419770D01*
X171420619Y-146419770D02*
X171801571Y-146753103D01*
X171801571Y-146753103D02*
X171801571Y-146610246D01*
X171801571Y-146610246D02*
X171849190Y-146515008D01*
X171849190Y-146515008D02*
X171896809Y-146467389D01*
X171896809Y-146467389D02*
X171992047Y-146419770D01*
X171992047Y-146419770D02*
X172230142Y-146419770D01*
X172230142Y-146419770D02*
X172325380Y-146467389D01*
X172325380Y-146467389D02*
X172373000Y-146515008D01*
X172373000Y-146515008D02*
X172420619Y-146610246D01*
X172420619Y-146610246D02*
X172420619Y-146895960D01*
X172420619Y-146895960D02*
X172373000Y-146991198D01*
X172373000Y-146991198D02*
X172325380Y-147038817D01*
X172325380Y-145991198D02*
X172373000Y-145943579D01*
X172373000Y-145943579D02*
X172420619Y-145991198D01*
X172420619Y-145991198D02*
X172373000Y-146038817D01*
X172373000Y-146038817D02*
X172325380Y-145991198D01*
X172325380Y-145991198D02*
X172420619Y-145991198D01*
X171420619Y-145610246D02*
X171420619Y-144991199D01*
X171420619Y-144991199D02*
X171801571Y-145324532D01*
X171801571Y-145324532D02*
X171801571Y-145181675D01*
X171801571Y-145181675D02*
X171849190Y-145086437D01*
X171849190Y-145086437D02*
X171896809Y-145038818D01*
X171896809Y-145038818D02*
X171992047Y-144991199D01*
X171992047Y-144991199D02*
X172230142Y-144991199D01*
X172230142Y-144991199D02*
X172325380Y-145038818D01*
X172325380Y-145038818D02*
X172373000Y-145086437D01*
X172373000Y-145086437D02*
X172420619Y-145181675D01*
X172420619Y-145181675D02*
X172420619Y-145467389D01*
X172420619Y-145467389D02*
X172373000Y-145562627D01*
X172373000Y-145562627D02*
X172325380Y-145610246D01*
X172420619Y-144562627D02*
X171420619Y-144562627D01*
X172420619Y-143991199D02*
X171849190Y-144419770D01*
X171420619Y-143991199D02*
X171992047Y-144562627D01*
%TO.C,H1*%
X110286895Y-104094619D02*
X110286895Y-103094619D01*
X110286895Y-103570809D02*
X110858323Y-103570809D01*
X110858323Y-104094619D02*
X110858323Y-103094619D01*
X111858323Y-104094619D02*
X111286895Y-104094619D01*
X111572609Y-104094619D02*
X111572609Y-103094619D01*
X111572609Y-103094619D02*
X111477371Y-103237476D01*
X111477371Y-103237476D02*
X111382133Y-103332714D01*
X111382133Y-103332714D02*
X111286895Y-103380333D01*
%TO.C,H4*%
X192582895Y-159060219D02*
X192582895Y-158060219D01*
X192582895Y-158536409D02*
X193154323Y-158536409D01*
X193154323Y-159060219D02*
X193154323Y-158060219D01*
X194059085Y-158393552D02*
X194059085Y-159060219D01*
X193820990Y-158012600D02*
X193582895Y-158726885D01*
X193582895Y-158726885D02*
X194201942Y-158726885D01*
%TO.C,J2*%
X196059466Y-105245019D02*
X196059466Y-105959304D01*
X196059466Y-105959304D02*
X196011847Y-106102161D01*
X196011847Y-106102161D02*
X195916609Y-106197400D01*
X195916609Y-106197400D02*
X195773752Y-106245019D01*
X195773752Y-106245019D02*
X195678514Y-106245019D01*
X196488038Y-105340257D02*
X196535657Y-105292638D01*
X196535657Y-105292638D02*
X196630895Y-105245019D01*
X196630895Y-105245019D02*
X196868990Y-105245019D01*
X196868990Y-105245019D02*
X196964228Y-105292638D01*
X196964228Y-105292638D02*
X197011847Y-105340257D01*
X197011847Y-105340257D02*
X197059466Y-105435495D01*
X197059466Y-105435495D02*
X197059466Y-105530733D01*
X197059466Y-105530733D02*
X197011847Y-105673590D01*
X197011847Y-105673590D02*
X196440419Y-106245019D01*
X196440419Y-106245019D02*
X197059466Y-106245019D01*
X199805000Y-120228571D02*
X199852619Y-120085714D01*
X199852619Y-120085714D02*
X199852619Y-119847619D01*
X199852619Y-119847619D02*
X199805000Y-119752381D01*
X199805000Y-119752381D02*
X199757380Y-119704762D01*
X199757380Y-119704762D02*
X199662142Y-119657143D01*
X199662142Y-119657143D02*
X199566904Y-119657143D01*
X199566904Y-119657143D02*
X199471666Y-119704762D01*
X199471666Y-119704762D02*
X199424047Y-119752381D01*
X199424047Y-119752381D02*
X199376428Y-119847619D01*
X199376428Y-119847619D02*
X199328809Y-120038095D01*
X199328809Y-120038095D02*
X199281190Y-120133333D01*
X199281190Y-120133333D02*
X199233571Y-120180952D01*
X199233571Y-120180952D02*
X199138333Y-120228571D01*
X199138333Y-120228571D02*
X199043095Y-120228571D01*
X199043095Y-120228571D02*
X198947857Y-120180952D01*
X198947857Y-120180952D02*
X198900238Y-120133333D01*
X198900238Y-120133333D02*
X198852619Y-120038095D01*
X198852619Y-120038095D02*
X198852619Y-119800000D01*
X198852619Y-119800000D02*
X198900238Y-119657143D01*
X199757380Y-118657143D02*
X199805000Y-118704762D01*
X199805000Y-118704762D02*
X199852619Y-118847619D01*
X199852619Y-118847619D02*
X199852619Y-118942857D01*
X199852619Y-118942857D02*
X199805000Y-119085714D01*
X199805000Y-119085714D02*
X199709761Y-119180952D01*
X199709761Y-119180952D02*
X199614523Y-119228571D01*
X199614523Y-119228571D02*
X199424047Y-119276190D01*
X199424047Y-119276190D02*
X199281190Y-119276190D01*
X199281190Y-119276190D02*
X199090714Y-119228571D01*
X199090714Y-119228571D02*
X198995476Y-119180952D01*
X198995476Y-119180952D02*
X198900238Y-119085714D01*
X198900238Y-119085714D02*
X198852619Y-118942857D01*
X198852619Y-118942857D02*
X198852619Y-118847619D01*
X198852619Y-118847619D02*
X198900238Y-118704762D01*
X198900238Y-118704762D02*
X198947857Y-118657143D01*
X199852619Y-117657143D02*
X199376428Y-117990476D01*
X199852619Y-118228571D02*
X198852619Y-118228571D01*
X198852619Y-118228571D02*
X198852619Y-117847619D01*
X198852619Y-117847619D02*
X198900238Y-117752381D01*
X198900238Y-117752381D02*
X198947857Y-117704762D01*
X198947857Y-117704762D02*
X199043095Y-117657143D01*
X199043095Y-117657143D02*
X199185952Y-117657143D01*
X199185952Y-117657143D02*
X199281190Y-117704762D01*
X199281190Y-117704762D02*
X199328809Y-117752381D01*
X199328809Y-117752381D02*
X199376428Y-117847619D01*
X199376428Y-117847619D02*
X199376428Y-118228571D01*
X199328809Y-117228571D02*
X199328809Y-116895238D01*
X199852619Y-116752381D02*
X199852619Y-117228571D01*
X199852619Y-117228571D02*
X198852619Y-117228571D01*
X198852619Y-117228571D02*
X198852619Y-116752381D01*
X199328809Y-116323809D02*
X199328809Y-115990476D01*
X199852619Y-115847619D02*
X199852619Y-116323809D01*
X199852619Y-116323809D02*
X198852619Y-116323809D01*
X198852619Y-116323809D02*
X198852619Y-115847619D01*
X199852619Y-115419047D02*
X198852619Y-115419047D01*
X198852619Y-115419047D02*
X199852619Y-114847619D01*
X199852619Y-114847619D02*
X198852619Y-114847619D01*
X198852619Y-113419047D02*
X198852619Y-113228571D01*
X198852619Y-113228571D02*
X198900238Y-113133333D01*
X198900238Y-113133333D02*
X198995476Y-113038095D01*
X198995476Y-113038095D02*
X199185952Y-112990476D01*
X199185952Y-112990476D02*
X199519285Y-112990476D01*
X199519285Y-112990476D02*
X199709761Y-113038095D01*
X199709761Y-113038095D02*
X199805000Y-113133333D01*
X199805000Y-113133333D02*
X199852619Y-113228571D01*
X199852619Y-113228571D02*
X199852619Y-113419047D01*
X199852619Y-113419047D02*
X199805000Y-113514285D01*
X199805000Y-113514285D02*
X199709761Y-113609523D01*
X199709761Y-113609523D02*
X199519285Y-113657142D01*
X199519285Y-113657142D02*
X199185952Y-113657142D01*
X199185952Y-113657142D02*
X198995476Y-113609523D01*
X198995476Y-113609523D02*
X198900238Y-113514285D01*
X198900238Y-113514285D02*
X198852619Y-113419047D01*
X198852619Y-112561904D02*
X199662142Y-112561904D01*
X199662142Y-112561904D02*
X199757380Y-112514285D01*
X199757380Y-112514285D02*
X199805000Y-112466666D01*
X199805000Y-112466666D02*
X199852619Y-112371428D01*
X199852619Y-112371428D02*
X199852619Y-112180952D01*
X199852619Y-112180952D02*
X199805000Y-112085714D01*
X199805000Y-112085714D02*
X199757380Y-112038095D01*
X199757380Y-112038095D02*
X199662142Y-111990476D01*
X199662142Y-111990476D02*
X198852619Y-111990476D01*
X198852619Y-111657142D02*
X198852619Y-111085714D01*
X199852619Y-111371428D02*
X198852619Y-111371428D01*
X199852619Y-110752380D02*
X198852619Y-110752380D01*
X198852619Y-110752380D02*
X198852619Y-110371428D01*
X198852619Y-110371428D02*
X198900238Y-110276190D01*
X198900238Y-110276190D02*
X198947857Y-110228571D01*
X198947857Y-110228571D02*
X199043095Y-110180952D01*
X199043095Y-110180952D02*
X199185952Y-110180952D01*
X199185952Y-110180952D02*
X199281190Y-110228571D01*
X199281190Y-110228571D02*
X199328809Y-110276190D01*
X199328809Y-110276190D02*
X199376428Y-110371428D01*
X199376428Y-110371428D02*
X199376428Y-110752380D01*
X198852619Y-109752380D02*
X199662142Y-109752380D01*
X199662142Y-109752380D02*
X199757380Y-109704761D01*
X199757380Y-109704761D02*
X199805000Y-109657142D01*
X199805000Y-109657142D02*
X199852619Y-109561904D01*
X199852619Y-109561904D02*
X199852619Y-109371428D01*
X199852619Y-109371428D02*
X199805000Y-109276190D01*
X199805000Y-109276190D02*
X199757380Y-109228571D01*
X199757380Y-109228571D02*
X199662142Y-109180952D01*
X199662142Y-109180952D02*
X198852619Y-109180952D01*
X198852619Y-108847618D02*
X198852619Y-108276190D01*
X199852619Y-108561904D02*
X198852619Y-108561904D01*
%TO.C,R6*%
X160158133Y-133728619D02*
X159824800Y-133252428D01*
X159586705Y-133728619D02*
X159586705Y-132728619D01*
X159586705Y-132728619D02*
X159967657Y-132728619D01*
X159967657Y-132728619D02*
X160062895Y-132776238D01*
X160062895Y-132776238D02*
X160110514Y-132823857D01*
X160110514Y-132823857D02*
X160158133Y-132919095D01*
X160158133Y-132919095D02*
X160158133Y-133061952D01*
X160158133Y-133061952D02*
X160110514Y-133157190D01*
X160110514Y-133157190D02*
X160062895Y-133204809D01*
X160062895Y-133204809D02*
X159967657Y-133252428D01*
X159967657Y-133252428D02*
X159586705Y-133252428D01*
X161015276Y-132728619D02*
X160824800Y-132728619D01*
X160824800Y-132728619D02*
X160729562Y-132776238D01*
X160729562Y-132776238D02*
X160681943Y-132823857D01*
X160681943Y-132823857D02*
X160586705Y-132966714D01*
X160586705Y-132966714D02*
X160539086Y-133157190D01*
X160539086Y-133157190D02*
X160539086Y-133538142D01*
X160539086Y-133538142D02*
X160586705Y-133633380D01*
X160586705Y-133633380D02*
X160634324Y-133681000D01*
X160634324Y-133681000D02*
X160729562Y-133728619D01*
X160729562Y-133728619D02*
X160920038Y-133728619D01*
X160920038Y-133728619D02*
X161015276Y-133681000D01*
X161015276Y-133681000D02*
X161062895Y-133633380D01*
X161062895Y-133633380D02*
X161110514Y-133538142D01*
X161110514Y-133538142D02*
X161110514Y-133300047D01*
X161110514Y-133300047D02*
X161062895Y-133204809D01*
X161062895Y-133204809D02*
X161015276Y-133157190D01*
X161015276Y-133157190D02*
X160920038Y-133109571D01*
X160920038Y-133109571D02*
X160729562Y-133109571D01*
X160729562Y-133109571D02*
X160634324Y-133157190D01*
X160634324Y-133157190D02*
X160586705Y-133204809D01*
X160586705Y-133204809D02*
X160539086Y-133300047D01*
X159078800Y-135193857D02*
X159126419Y-135146238D01*
X159126419Y-135146238D02*
X159221657Y-135098619D01*
X159221657Y-135098619D02*
X159459752Y-135098619D01*
X159459752Y-135098619D02*
X159554990Y-135146238D01*
X159554990Y-135146238D02*
X159602609Y-135193857D01*
X159602609Y-135193857D02*
X159650228Y-135289095D01*
X159650228Y-135289095D02*
X159650228Y-135384333D01*
X159650228Y-135384333D02*
X159602609Y-135527190D01*
X159602609Y-135527190D02*
X159031181Y-136098619D01*
X159031181Y-136098619D02*
X159650228Y-136098619D01*
X160078800Y-136003380D02*
X160126419Y-136051000D01*
X160126419Y-136051000D02*
X160078800Y-136098619D01*
X160078800Y-136098619D02*
X160031181Y-136051000D01*
X160031181Y-136051000D02*
X160078800Y-136003380D01*
X160078800Y-136003380D02*
X160078800Y-136098619D01*
X160507371Y-135193857D02*
X160554990Y-135146238D01*
X160554990Y-135146238D02*
X160650228Y-135098619D01*
X160650228Y-135098619D02*
X160888323Y-135098619D01*
X160888323Y-135098619D02*
X160983561Y-135146238D01*
X160983561Y-135146238D02*
X161031180Y-135193857D01*
X161031180Y-135193857D02*
X161078799Y-135289095D01*
X161078799Y-135289095D02*
X161078799Y-135384333D01*
X161078799Y-135384333D02*
X161031180Y-135527190D01*
X161031180Y-135527190D02*
X160459752Y-136098619D01*
X160459752Y-136098619D02*
X161078799Y-136098619D01*
X161507371Y-136098619D02*
X161507371Y-135098619D01*
X162078799Y-136098619D02*
X161650228Y-135527190D01*
X162078799Y-135098619D02*
X161507371Y-135670047D01*
%TO.C,R5*%
X150645019Y-145657866D02*
X150168828Y-145991199D01*
X150645019Y-146229294D02*
X149645019Y-146229294D01*
X149645019Y-146229294D02*
X149645019Y-145848342D01*
X149645019Y-145848342D02*
X149692638Y-145753104D01*
X149692638Y-145753104D02*
X149740257Y-145705485D01*
X149740257Y-145705485D02*
X149835495Y-145657866D01*
X149835495Y-145657866D02*
X149978352Y-145657866D01*
X149978352Y-145657866D02*
X150073590Y-145705485D01*
X150073590Y-145705485D02*
X150121209Y-145753104D01*
X150121209Y-145753104D02*
X150168828Y-145848342D01*
X150168828Y-145848342D02*
X150168828Y-146229294D01*
X149645019Y-144753104D02*
X149645019Y-145229294D01*
X149645019Y-145229294D02*
X150121209Y-145276913D01*
X150121209Y-145276913D02*
X150073590Y-145229294D01*
X150073590Y-145229294D02*
X150025971Y-145134056D01*
X150025971Y-145134056D02*
X150025971Y-144895961D01*
X150025971Y-144895961D02*
X150073590Y-144800723D01*
X150073590Y-144800723D02*
X150121209Y-144753104D01*
X150121209Y-144753104D02*
X150216447Y-144705485D01*
X150216447Y-144705485D02*
X150454542Y-144705485D01*
X150454542Y-144705485D02*
X150549780Y-144753104D01*
X150549780Y-144753104D02*
X150597400Y-144800723D01*
X150597400Y-144800723D02*
X150645019Y-144895961D01*
X150645019Y-144895961D02*
X150645019Y-145134056D01*
X150645019Y-145134056D02*
X150597400Y-145229294D01*
X150597400Y-145229294D02*
X150549780Y-145276913D01*
X152211857Y-146991198D02*
X152164238Y-146943579D01*
X152164238Y-146943579D02*
X152116619Y-146848341D01*
X152116619Y-146848341D02*
X152116619Y-146610246D01*
X152116619Y-146610246D02*
X152164238Y-146515008D01*
X152164238Y-146515008D02*
X152211857Y-146467389D01*
X152211857Y-146467389D02*
X152307095Y-146419770D01*
X152307095Y-146419770D02*
X152402333Y-146419770D01*
X152402333Y-146419770D02*
X152545190Y-146467389D01*
X152545190Y-146467389D02*
X153116619Y-147038817D01*
X153116619Y-147038817D02*
X153116619Y-146419770D01*
X153021380Y-145991198D02*
X153069000Y-145943579D01*
X153069000Y-145943579D02*
X153116619Y-145991198D01*
X153116619Y-145991198D02*
X153069000Y-146038817D01*
X153069000Y-146038817D02*
X153021380Y-145991198D01*
X153021380Y-145991198D02*
X153116619Y-145991198D01*
X152211857Y-145562627D02*
X152164238Y-145515008D01*
X152164238Y-145515008D02*
X152116619Y-145419770D01*
X152116619Y-145419770D02*
X152116619Y-145181675D01*
X152116619Y-145181675D02*
X152164238Y-145086437D01*
X152164238Y-145086437D02*
X152211857Y-145038818D01*
X152211857Y-145038818D02*
X152307095Y-144991199D01*
X152307095Y-144991199D02*
X152402333Y-144991199D01*
X152402333Y-144991199D02*
X152545190Y-145038818D01*
X152545190Y-145038818D02*
X153116619Y-145610246D01*
X153116619Y-145610246D02*
X153116619Y-144991199D01*
X153116619Y-144562627D02*
X152116619Y-144562627D01*
X153116619Y-143991199D02*
X152545190Y-144419770D01*
X152116619Y-143991199D02*
X152688047Y-144562627D01*
%TO.C,R3*%
X163378219Y-145657866D02*
X162902028Y-145991199D01*
X163378219Y-146229294D02*
X162378219Y-146229294D01*
X162378219Y-146229294D02*
X162378219Y-145848342D01*
X162378219Y-145848342D02*
X162425838Y-145753104D01*
X162425838Y-145753104D02*
X162473457Y-145705485D01*
X162473457Y-145705485D02*
X162568695Y-145657866D01*
X162568695Y-145657866D02*
X162711552Y-145657866D01*
X162711552Y-145657866D02*
X162806790Y-145705485D01*
X162806790Y-145705485D02*
X162854409Y-145753104D01*
X162854409Y-145753104D02*
X162902028Y-145848342D01*
X162902028Y-145848342D02*
X162902028Y-146229294D01*
X162378219Y-145324532D02*
X162378219Y-144705485D01*
X162378219Y-144705485D02*
X162759171Y-145038818D01*
X162759171Y-145038818D02*
X162759171Y-144895961D01*
X162759171Y-144895961D02*
X162806790Y-144800723D01*
X162806790Y-144800723D02*
X162854409Y-144753104D01*
X162854409Y-144753104D02*
X162949647Y-144705485D01*
X162949647Y-144705485D02*
X163187742Y-144705485D01*
X163187742Y-144705485D02*
X163282980Y-144753104D01*
X163282980Y-144753104D02*
X163330600Y-144800723D01*
X163330600Y-144800723D02*
X163378219Y-144895961D01*
X163378219Y-144895961D02*
X163378219Y-145181675D01*
X163378219Y-145181675D02*
X163330600Y-145276913D01*
X163330600Y-145276913D02*
X163282980Y-145324532D01*
X164715019Y-147038817D02*
X164715019Y-146419770D01*
X164715019Y-146419770D02*
X165095971Y-146753103D01*
X165095971Y-146753103D02*
X165095971Y-146610246D01*
X165095971Y-146610246D02*
X165143590Y-146515008D01*
X165143590Y-146515008D02*
X165191209Y-146467389D01*
X165191209Y-146467389D02*
X165286447Y-146419770D01*
X165286447Y-146419770D02*
X165524542Y-146419770D01*
X165524542Y-146419770D02*
X165619780Y-146467389D01*
X165619780Y-146467389D02*
X165667400Y-146515008D01*
X165667400Y-146515008D02*
X165715019Y-146610246D01*
X165715019Y-146610246D02*
X165715019Y-146895960D01*
X165715019Y-146895960D02*
X165667400Y-146991198D01*
X165667400Y-146991198D02*
X165619780Y-147038817D01*
X165619780Y-145991198D02*
X165667400Y-145943579D01*
X165667400Y-145943579D02*
X165715019Y-145991198D01*
X165715019Y-145991198D02*
X165667400Y-146038817D01*
X165667400Y-146038817D02*
X165619780Y-145991198D01*
X165619780Y-145991198D02*
X165715019Y-145991198D01*
X164715019Y-145610246D02*
X164715019Y-144991199D01*
X164715019Y-144991199D02*
X165095971Y-145324532D01*
X165095971Y-145324532D02*
X165095971Y-145181675D01*
X165095971Y-145181675D02*
X165143590Y-145086437D01*
X165143590Y-145086437D02*
X165191209Y-145038818D01*
X165191209Y-145038818D02*
X165286447Y-144991199D01*
X165286447Y-144991199D02*
X165524542Y-144991199D01*
X165524542Y-144991199D02*
X165619780Y-145038818D01*
X165619780Y-145038818D02*
X165667400Y-145086437D01*
X165667400Y-145086437D02*
X165715019Y-145181675D01*
X165715019Y-145181675D02*
X165715019Y-145467389D01*
X165715019Y-145467389D02*
X165667400Y-145562627D01*
X165667400Y-145562627D02*
X165619780Y-145610246D01*
X165715019Y-144562627D02*
X164715019Y-144562627D01*
X165715019Y-143991199D02*
X165143590Y-144419770D01*
X164715019Y-143991199D02*
X165286447Y-144562627D01*
%TO.C,H2*%
X203352495Y-103434219D02*
X203352495Y-102434219D01*
X203352495Y-102910409D02*
X203923923Y-102910409D01*
X203923923Y-103434219D02*
X203923923Y-102434219D01*
X204352495Y-102529457D02*
X204400114Y-102481838D01*
X204400114Y-102481838D02*
X204495352Y-102434219D01*
X204495352Y-102434219D02*
X204733447Y-102434219D01*
X204733447Y-102434219D02*
X204828685Y-102481838D01*
X204828685Y-102481838D02*
X204876304Y-102529457D01*
X204876304Y-102529457D02*
X204923923Y-102624695D01*
X204923923Y-102624695D02*
X204923923Y-102719933D01*
X204923923Y-102719933D02*
X204876304Y-102862790D01*
X204876304Y-102862790D02*
X204304876Y-103434219D01*
X204304876Y-103434219D02*
X204923923Y-103434219D01*
%TO.C,R2*%
X156672619Y-145657866D02*
X156196428Y-145991199D01*
X156672619Y-146229294D02*
X155672619Y-146229294D01*
X155672619Y-146229294D02*
X155672619Y-145848342D01*
X155672619Y-145848342D02*
X155720238Y-145753104D01*
X155720238Y-145753104D02*
X155767857Y-145705485D01*
X155767857Y-145705485D02*
X155863095Y-145657866D01*
X155863095Y-145657866D02*
X156005952Y-145657866D01*
X156005952Y-145657866D02*
X156101190Y-145705485D01*
X156101190Y-145705485D02*
X156148809Y-145753104D01*
X156148809Y-145753104D02*
X156196428Y-145848342D01*
X156196428Y-145848342D02*
X156196428Y-146229294D01*
X155767857Y-145276913D02*
X155720238Y-145229294D01*
X155720238Y-145229294D02*
X155672619Y-145134056D01*
X155672619Y-145134056D02*
X155672619Y-144895961D01*
X155672619Y-144895961D02*
X155720238Y-144800723D01*
X155720238Y-144800723D02*
X155767857Y-144753104D01*
X155767857Y-144753104D02*
X155863095Y-144705485D01*
X155863095Y-144705485D02*
X155958333Y-144705485D01*
X155958333Y-144705485D02*
X156101190Y-144753104D01*
X156101190Y-144753104D02*
X156672619Y-145324532D01*
X156672619Y-145324532D02*
X156672619Y-144705485D01*
X158263419Y-147038817D02*
X158263419Y-146419770D01*
X158263419Y-146419770D02*
X158644371Y-146753103D01*
X158644371Y-146753103D02*
X158644371Y-146610246D01*
X158644371Y-146610246D02*
X158691990Y-146515008D01*
X158691990Y-146515008D02*
X158739609Y-146467389D01*
X158739609Y-146467389D02*
X158834847Y-146419770D01*
X158834847Y-146419770D02*
X159072942Y-146419770D01*
X159072942Y-146419770D02*
X159168180Y-146467389D01*
X159168180Y-146467389D02*
X159215800Y-146515008D01*
X159215800Y-146515008D02*
X159263419Y-146610246D01*
X159263419Y-146610246D02*
X159263419Y-146895960D01*
X159263419Y-146895960D02*
X159215800Y-146991198D01*
X159215800Y-146991198D02*
X159168180Y-147038817D01*
X159168180Y-145991198D02*
X159215800Y-145943579D01*
X159215800Y-145943579D02*
X159263419Y-145991198D01*
X159263419Y-145991198D02*
X159215800Y-146038817D01*
X159215800Y-146038817D02*
X159168180Y-145991198D01*
X159168180Y-145991198D02*
X159263419Y-145991198D01*
X158263419Y-145610246D02*
X158263419Y-144991199D01*
X158263419Y-144991199D02*
X158644371Y-145324532D01*
X158644371Y-145324532D02*
X158644371Y-145181675D01*
X158644371Y-145181675D02*
X158691990Y-145086437D01*
X158691990Y-145086437D02*
X158739609Y-145038818D01*
X158739609Y-145038818D02*
X158834847Y-144991199D01*
X158834847Y-144991199D02*
X159072942Y-144991199D01*
X159072942Y-144991199D02*
X159168180Y-145038818D01*
X159168180Y-145038818D02*
X159215800Y-145086437D01*
X159215800Y-145086437D02*
X159263419Y-145181675D01*
X159263419Y-145181675D02*
X159263419Y-145467389D01*
X159263419Y-145467389D02*
X159215800Y-145562627D01*
X159215800Y-145562627D02*
X159168180Y-145610246D01*
X159263419Y-144562627D02*
X158263419Y-144562627D01*
X159263419Y-143991199D02*
X158691990Y-144419770D01*
X158263419Y-143991199D02*
X158834847Y-144562627D01*
%TO.C,H3*%
X110134495Y-159365019D02*
X110134495Y-158365019D01*
X110134495Y-158841209D02*
X110705923Y-158841209D01*
X110705923Y-159365019D02*
X110705923Y-158365019D01*
X111086876Y-158365019D02*
X111705923Y-158365019D01*
X111705923Y-158365019D02*
X111372590Y-158745971D01*
X111372590Y-158745971D02*
X111515447Y-158745971D01*
X111515447Y-158745971D02*
X111610685Y-158793590D01*
X111610685Y-158793590D02*
X111658304Y-158841209D01*
X111658304Y-158841209D02*
X111705923Y-158936447D01*
X111705923Y-158936447D02*
X111705923Y-159174542D01*
X111705923Y-159174542D02*
X111658304Y-159269780D01*
X111658304Y-159269780D02*
X111610685Y-159317400D01*
X111610685Y-159317400D02*
X111515447Y-159365019D01*
X111515447Y-159365019D02*
X111229733Y-159365019D01*
X111229733Y-159365019D02*
X111134495Y-159317400D01*
X111134495Y-159317400D02*
X111086876Y-159269780D01*
D11*
%TO.C,J1*%
X187039608Y-138024482D02*
X187039608Y-138293402D01*
X187039608Y-138293402D02*
X187021680Y-138347186D01*
X187021680Y-138347186D02*
X186985824Y-138383043D01*
X186985824Y-138383043D02*
X186932040Y-138400971D01*
X186932040Y-138400971D02*
X186896184Y-138400971D01*
X187416097Y-138400971D02*
X187200961Y-138400971D01*
X187308529Y-138400971D02*
X187308529Y-138024482D01*
X187308529Y-138024482D02*
X187272673Y-138078266D01*
X187272673Y-138078266D02*
X187236817Y-138114122D01*
X187236817Y-138114122D02*
X187200961Y-138132050D01*
D10*
%TO.C,U1*%
X134518495Y-111375019D02*
X134518495Y-112184542D01*
X134518495Y-112184542D02*
X134566114Y-112279780D01*
X134566114Y-112279780D02*
X134613733Y-112327400D01*
X134613733Y-112327400D02*
X134708971Y-112375019D01*
X134708971Y-112375019D02*
X134899447Y-112375019D01*
X134899447Y-112375019D02*
X134994685Y-112327400D01*
X134994685Y-112327400D02*
X135042304Y-112279780D01*
X135042304Y-112279780D02*
X135089923Y-112184542D01*
X135089923Y-112184542D02*
X135089923Y-111375019D01*
X136089923Y-112375019D02*
X135518495Y-112375019D01*
X135804209Y-112375019D02*
X135804209Y-111375019D01*
X135804209Y-111375019D02*
X135708971Y-111517876D01*
X135708971Y-111517876D02*
X135613733Y-111613114D01*
X135613733Y-111613114D02*
X135518495Y-111660733D01*
D12*
X135404714Y-147007029D02*
X135404714Y-145578458D01*
X136261857Y-147292743D02*
X133261857Y-146292743D01*
X133261857Y-146292743D02*
X136261857Y-145292743D01*
X136261857Y-144292743D02*
X134261857Y-144292743D01*
X134833285Y-144292743D02*
X134547571Y-144149886D01*
X134547571Y-144149886D02*
X134404714Y-144007029D01*
X134404714Y-144007029D02*
X134261857Y-143721314D01*
X134261857Y-143721314D02*
X134261857Y-143435600D01*
X136261857Y-141149886D02*
X133261857Y-141149886D01*
X136119000Y-141149886D02*
X136261857Y-141435600D01*
X136261857Y-141435600D02*
X136261857Y-142007028D01*
X136261857Y-142007028D02*
X136119000Y-142292743D01*
X136119000Y-142292743D02*
X135976142Y-142435600D01*
X135976142Y-142435600D02*
X135690428Y-142578457D01*
X135690428Y-142578457D02*
X134833285Y-142578457D01*
X134833285Y-142578457D02*
X134547571Y-142435600D01*
X134547571Y-142435600D02*
X134404714Y-142292743D01*
X134404714Y-142292743D02*
X134261857Y-142007028D01*
X134261857Y-142007028D02*
X134261857Y-141435600D01*
X134261857Y-141435600D02*
X134404714Y-141149886D01*
X134261857Y-138435600D02*
X136261857Y-138435600D01*
X134261857Y-139721314D02*
X135833285Y-139721314D01*
X135833285Y-139721314D02*
X136119000Y-139578457D01*
X136119000Y-139578457D02*
X136261857Y-139292742D01*
X136261857Y-139292742D02*
X136261857Y-138864171D01*
X136261857Y-138864171D02*
X136119000Y-138578457D01*
X136119000Y-138578457D02*
X135976142Y-138435600D01*
X136261857Y-137007028D02*
X134261857Y-137007028D01*
X133261857Y-137007028D02*
X133404714Y-137149885D01*
X133404714Y-137149885D02*
X133547571Y-137007028D01*
X133547571Y-137007028D02*
X133404714Y-136864171D01*
X133404714Y-136864171D02*
X133261857Y-137007028D01*
X133261857Y-137007028D02*
X133547571Y-137007028D01*
X134261857Y-135578457D02*
X136261857Y-135578457D01*
X134547571Y-135578457D02*
X134404714Y-135435600D01*
X134404714Y-135435600D02*
X134261857Y-135149885D01*
X134261857Y-135149885D02*
X134261857Y-134721314D01*
X134261857Y-134721314D02*
X134404714Y-134435600D01*
X134404714Y-134435600D02*
X134690428Y-134292743D01*
X134690428Y-134292743D02*
X136261857Y-134292743D01*
X136261857Y-132435599D02*
X136119000Y-132721314D01*
X136119000Y-132721314D02*
X135976142Y-132864171D01*
X135976142Y-132864171D02*
X135690428Y-133007028D01*
X135690428Y-133007028D02*
X134833285Y-133007028D01*
X134833285Y-133007028D02*
X134547571Y-132864171D01*
X134547571Y-132864171D02*
X134404714Y-132721314D01*
X134404714Y-132721314D02*
X134261857Y-132435599D01*
X134261857Y-132435599D02*
X134261857Y-132007028D01*
X134261857Y-132007028D02*
X134404714Y-131721314D01*
X134404714Y-131721314D02*
X134547571Y-131578457D01*
X134547571Y-131578457D02*
X134833285Y-131435599D01*
X134833285Y-131435599D02*
X135690428Y-131435599D01*
X135690428Y-131435599D02*
X135976142Y-131578457D01*
X135976142Y-131578457D02*
X136119000Y-131721314D01*
X136119000Y-131721314D02*
X136261857Y-132007028D01*
X136261857Y-132007028D02*
X136261857Y-132435599D01*
X136261857Y-127864171D02*
X133261857Y-127864171D01*
X133261857Y-127864171D02*
X136261857Y-126149885D01*
X136261857Y-126149885D02*
X133261857Y-126149885D01*
X136261857Y-123435600D02*
X134690428Y-123435600D01*
X134690428Y-123435600D02*
X134404714Y-123578457D01*
X134404714Y-123578457D02*
X134261857Y-123864171D01*
X134261857Y-123864171D02*
X134261857Y-124435600D01*
X134261857Y-124435600D02*
X134404714Y-124721314D01*
X136119000Y-123435600D02*
X136261857Y-123721314D01*
X136261857Y-123721314D02*
X136261857Y-124435600D01*
X136261857Y-124435600D02*
X136119000Y-124721314D01*
X136119000Y-124721314D02*
X135833285Y-124864171D01*
X135833285Y-124864171D02*
X135547571Y-124864171D01*
X135547571Y-124864171D02*
X135261857Y-124721314D01*
X135261857Y-124721314D02*
X135119000Y-124435600D01*
X135119000Y-124435600D02*
X135119000Y-123721314D01*
X135119000Y-123721314D02*
X134976142Y-123435600D01*
X134261857Y-122007028D02*
X136261857Y-122007028D01*
X134547571Y-122007028D02*
X134404714Y-121864171D01*
X134404714Y-121864171D02*
X134261857Y-121578456D01*
X134261857Y-121578456D02*
X134261857Y-121149885D01*
X134261857Y-121149885D02*
X134404714Y-120864171D01*
X134404714Y-120864171D02*
X134690428Y-120721314D01*
X134690428Y-120721314D02*
X136261857Y-120721314D01*
X136261857Y-118864170D02*
X136119000Y-119149885D01*
X136119000Y-119149885D02*
X135976142Y-119292742D01*
X135976142Y-119292742D02*
X135690428Y-119435599D01*
X135690428Y-119435599D02*
X134833285Y-119435599D01*
X134833285Y-119435599D02*
X134547571Y-119292742D01*
X134547571Y-119292742D02*
X134404714Y-119149885D01*
X134404714Y-119149885D02*
X134261857Y-118864170D01*
X134261857Y-118864170D02*
X134261857Y-118435599D01*
X134261857Y-118435599D02*
X134404714Y-118149885D01*
X134404714Y-118149885D02*
X134547571Y-118007028D01*
X134547571Y-118007028D02*
X134833285Y-117864170D01*
X134833285Y-117864170D02*
X135690428Y-117864170D01*
X135690428Y-117864170D02*
X135976142Y-118007028D01*
X135976142Y-118007028D02*
X136119000Y-118149885D01*
X136119000Y-118149885D02*
X136261857Y-118435599D01*
X136261857Y-118435599D02*
X136261857Y-118864170D01*
D10*
%TO.C,R1*%
X162088533Y-153540619D02*
X161755200Y-153064428D01*
X161517105Y-153540619D02*
X161517105Y-152540619D01*
X161517105Y-152540619D02*
X161898057Y-152540619D01*
X161898057Y-152540619D02*
X161993295Y-152588238D01*
X161993295Y-152588238D02*
X162040914Y-152635857D01*
X162040914Y-152635857D02*
X162088533Y-152731095D01*
X162088533Y-152731095D02*
X162088533Y-152873952D01*
X162088533Y-152873952D02*
X162040914Y-152969190D01*
X162040914Y-152969190D02*
X161993295Y-153016809D01*
X161993295Y-153016809D02*
X161898057Y-153064428D01*
X161898057Y-153064428D02*
X161517105Y-153064428D01*
X163040914Y-153540619D02*
X162469486Y-153540619D01*
X162755200Y-153540619D02*
X162755200Y-152540619D01*
X162755200Y-152540619D02*
X162659962Y-152683476D01*
X162659962Y-152683476D02*
X162564724Y-152778714D01*
X162564724Y-152778714D02*
X162469486Y-152826333D01*
X161564723Y-155961419D02*
X160993295Y-155961419D01*
X161279009Y-155961419D02*
X161279009Y-154961419D01*
X161279009Y-154961419D02*
X161183771Y-155104276D01*
X161183771Y-155104276D02*
X161088533Y-155199514D01*
X161088533Y-155199514D02*
X160993295Y-155247133D01*
X162183771Y-154961419D02*
X162279009Y-154961419D01*
X162279009Y-154961419D02*
X162374247Y-155009038D01*
X162374247Y-155009038D02*
X162421866Y-155056657D01*
X162421866Y-155056657D02*
X162469485Y-155151895D01*
X162469485Y-155151895D02*
X162517104Y-155342371D01*
X162517104Y-155342371D02*
X162517104Y-155580466D01*
X162517104Y-155580466D02*
X162469485Y-155770942D01*
X162469485Y-155770942D02*
X162421866Y-155866180D01*
X162421866Y-155866180D02*
X162374247Y-155913800D01*
X162374247Y-155913800D02*
X162279009Y-155961419D01*
X162279009Y-155961419D02*
X162183771Y-155961419D01*
X162183771Y-155961419D02*
X162088533Y-155913800D01*
X162088533Y-155913800D02*
X162040914Y-155866180D01*
X162040914Y-155866180D02*
X161993295Y-155770942D01*
X161993295Y-155770942D02*
X161945676Y-155580466D01*
X161945676Y-155580466D02*
X161945676Y-155342371D01*
X161945676Y-155342371D02*
X161993295Y-155151895D01*
X161993295Y-155151895D02*
X162040914Y-155056657D01*
X162040914Y-155056657D02*
X162088533Y-155009038D01*
X162088533Y-155009038D02*
X162183771Y-154961419D01*
X162945676Y-155961419D02*
X162945676Y-154961419D01*
X163517104Y-155961419D02*
X163088533Y-155389990D01*
X163517104Y-154961419D02*
X162945676Y-155532847D01*
%TO.C,J3*%
X183669266Y-149830619D02*
X183669266Y-150544904D01*
X183669266Y-150544904D02*
X183621647Y-150687761D01*
X183621647Y-150687761D02*
X183526409Y-150783000D01*
X183526409Y-150783000D02*
X183383552Y-150830619D01*
X183383552Y-150830619D02*
X183288314Y-150830619D01*
X184050219Y-149830619D02*
X184669266Y-149830619D01*
X184669266Y-149830619D02*
X184335933Y-150211571D01*
X184335933Y-150211571D02*
X184478790Y-150211571D01*
X184478790Y-150211571D02*
X184574028Y-150259190D01*
X184574028Y-150259190D02*
X184621647Y-150306809D01*
X184621647Y-150306809D02*
X184669266Y-150402047D01*
X184669266Y-150402047D02*
X184669266Y-150640142D01*
X184669266Y-150640142D02*
X184621647Y-150735380D01*
X184621647Y-150735380D02*
X184574028Y-150783000D01*
X184574028Y-150783000D02*
X184478790Y-150830619D01*
X184478790Y-150830619D02*
X184193076Y-150830619D01*
X184193076Y-150830619D02*
X184097838Y-150783000D01*
X184097838Y-150783000D02*
X184050219Y-150735380D01*
X174352723Y-154183419D02*
X174352723Y-153183419D01*
X174352723Y-153183419D02*
X174733675Y-153183419D01*
X174733675Y-153183419D02*
X174828913Y-153231038D01*
X174828913Y-153231038D02*
X174876532Y-153278657D01*
X174876532Y-153278657D02*
X174924151Y-153373895D01*
X174924151Y-153373895D02*
X174924151Y-153516752D01*
X174924151Y-153516752D02*
X174876532Y-153611990D01*
X174876532Y-153611990D02*
X174828913Y-153659609D01*
X174828913Y-153659609D02*
X174733675Y-153707228D01*
X174733675Y-153707228D02*
X174352723Y-153707228D01*
X175495580Y-154183419D02*
X175400342Y-154135800D01*
X175400342Y-154135800D02*
X175352723Y-154088180D01*
X175352723Y-154088180D02*
X175305104Y-153992942D01*
X175305104Y-153992942D02*
X175305104Y-153707228D01*
X175305104Y-153707228D02*
X175352723Y-153611990D01*
X175352723Y-153611990D02*
X175400342Y-153564371D01*
X175400342Y-153564371D02*
X175495580Y-153516752D01*
X175495580Y-153516752D02*
X175638437Y-153516752D01*
X175638437Y-153516752D02*
X175733675Y-153564371D01*
X175733675Y-153564371D02*
X175781294Y-153611990D01*
X175781294Y-153611990D02*
X175828913Y-153707228D01*
X175828913Y-153707228D02*
X175828913Y-153992942D01*
X175828913Y-153992942D02*
X175781294Y-154088180D01*
X175781294Y-154088180D02*
X175733675Y-154135800D01*
X175733675Y-154135800D02*
X175638437Y-154183419D01*
X175638437Y-154183419D02*
X175495580Y-154183419D01*
X176162247Y-153516752D02*
X176352723Y-154183419D01*
X176352723Y-154183419D02*
X176543199Y-153707228D01*
X176543199Y-153707228D02*
X176733675Y-154183419D01*
X176733675Y-154183419D02*
X176924151Y-153516752D01*
X177686056Y-154135800D02*
X177590818Y-154183419D01*
X177590818Y-154183419D02*
X177400342Y-154183419D01*
X177400342Y-154183419D02*
X177305104Y-154135800D01*
X177305104Y-154135800D02*
X177257485Y-154040561D01*
X177257485Y-154040561D02*
X177257485Y-153659609D01*
X177257485Y-153659609D02*
X177305104Y-153564371D01*
X177305104Y-153564371D02*
X177400342Y-153516752D01*
X177400342Y-153516752D02*
X177590818Y-153516752D01*
X177590818Y-153516752D02*
X177686056Y-153564371D01*
X177686056Y-153564371D02*
X177733675Y-153659609D01*
X177733675Y-153659609D02*
X177733675Y-153754847D01*
X177733675Y-153754847D02*
X177257485Y-153850085D01*
X178162247Y-154183419D02*
X178162247Y-153516752D01*
X178162247Y-153707228D02*
X178209866Y-153611990D01*
X178209866Y-153611990D02*
X178257485Y-153564371D01*
X178257485Y-153564371D02*
X178352723Y-153516752D01*
X178352723Y-153516752D02*
X178447961Y-153516752D01*
X179543200Y-154183419D02*
X179543200Y-153183419D01*
X180019390Y-153516752D02*
X180019390Y-154183419D01*
X180019390Y-153611990D02*
X180067009Y-153564371D01*
X180067009Y-153564371D02*
X180162247Y-153516752D01*
X180162247Y-153516752D02*
X180305104Y-153516752D01*
X180305104Y-153516752D02*
X180400342Y-153564371D01*
X180400342Y-153564371D02*
X180447961Y-153659609D01*
X180447961Y-153659609D02*
X180447961Y-154183419D01*
X180924152Y-153516752D02*
X180924152Y-154516752D01*
X180924152Y-153564371D02*
X181019390Y-153516752D01*
X181019390Y-153516752D02*
X181209866Y-153516752D01*
X181209866Y-153516752D02*
X181305104Y-153564371D01*
X181305104Y-153564371D02*
X181352723Y-153611990D01*
X181352723Y-153611990D02*
X181400342Y-153707228D01*
X181400342Y-153707228D02*
X181400342Y-153992942D01*
X181400342Y-153992942D02*
X181352723Y-154088180D01*
X181352723Y-154088180D02*
X181305104Y-154135800D01*
X181305104Y-154135800D02*
X181209866Y-154183419D01*
X181209866Y-154183419D02*
X181019390Y-154183419D01*
X181019390Y-154183419D02*
X180924152Y-154135800D01*
X182257485Y-153516752D02*
X182257485Y-154183419D01*
X181828914Y-153516752D02*
X181828914Y-154040561D01*
X181828914Y-154040561D02*
X181876533Y-154135800D01*
X181876533Y-154135800D02*
X181971771Y-154183419D01*
X181971771Y-154183419D02*
X182114628Y-154183419D01*
X182114628Y-154183419D02*
X182209866Y-154135800D01*
X182209866Y-154135800D02*
X182257485Y-154088180D01*
X182590819Y-153516752D02*
X182971771Y-153516752D01*
X182733676Y-153183419D02*
X182733676Y-154040561D01*
X182733676Y-154040561D02*
X182781295Y-154135800D01*
X182781295Y-154135800D02*
X182876533Y-154183419D01*
X182876533Y-154183419D02*
X182971771Y-154183419D01*
X184352724Y-154564371D02*
X184305105Y-154516752D01*
X184305105Y-154516752D02*
X184209867Y-154373895D01*
X184209867Y-154373895D02*
X184162248Y-154278657D01*
X184162248Y-154278657D02*
X184114629Y-154135800D01*
X184114629Y-154135800D02*
X184067010Y-153897704D01*
X184067010Y-153897704D02*
X184067010Y-153707228D01*
X184067010Y-153707228D02*
X184114629Y-153469133D01*
X184114629Y-153469133D02*
X184162248Y-153326276D01*
X184162248Y-153326276D02*
X184209867Y-153231038D01*
X184209867Y-153231038D02*
X184305105Y-153088180D01*
X184305105Y-153088180D02*
X184352724Y-153040561D01*
X185209867Y-153183419D02*
X184733677Y-153183419D01*
X184733677Y-153183419D02*
X184686058Y-153659609D01*
X184686058Y-153659609D02*
X184733677Y-153611990D01*
X184733677Y-153611990D02*
X184828915Y-153564371D01*
X184828915Y-153564371D02*
X185067010Y-153564371D01*
X185067010Y-153564371D02*
X185162248Y-153611990D01*
X185162248Y-153611990D02*
X185209867Y-153659609D01*
X185209867Y-153659609D02*
X185257486Y-153754847D01*
X185257486Y-153754847D02*
X185257486Y-153992942D01*
X185257486Y-153992942D02*
X185209867Y-154088180D01*
X185209867Y-154088180D02*
X185162248Y-154135800D01*
X185162248Y-154135800D02*
X185067010Y-154183419D01*
X185067010Y-154183419D02*
X184828915Y-154183419D01*
X184828915Y-154183419D02*
X184733677Y-154135800D01*
X184733677Y-154135800D02*
X184686058Y-154088180D01*
X185543201Y-153183419D02*
X185876534Y-154183419D01*
X185876534Y-154183419D02*
X186209867Y-153183419D01*
X186447963Y-154564371D02*
X186495582Y-154516752D01*
X186495582Y-154516752D02*
X186590820Y-154373895D01*
X186590820Y-154373895D02*
X186638439Y-154278657D01*
X186638439Y-154278657D02*
X186686058Y-154135800D01*
X186686058Y-154135800D02*
X186733677Y-153897704D01*
X186733677Y-153897704D02*
X186733677Y-153707228D01*
X186733677Y-153707228D02*
X186686058Y-153469133D01*
X186686058Y-153469133D02*
X186638439Y-153326276D01*
X186638439Y-153326276D02*
X186590820Y-153231038D01*
X186590820Y-153231038D02*
X186495582Y-153088180D01*
X186495582Y-153088180D02*
X186447963Y-153040561D01*
%TO.C,JP1*%
X124786219Y-138399733D02*
X125500504Y-138399733D01*
X125500504Y-138399733D02*
X125643361Y-138447352D01*
X125643361Y-138447352D02*
X125738600Y-138542590D01*
X125738600Y-138542590D02*
X125786219Y-138685447D01*
X125786219Y-138685447D02*
X125786219Y-138780685D01*
X125786219Y-137923542D02*
X124786219Y-137923542D01*
X124786219Y-137923542D02*
X124786219Y-137542590D01*
X124786219Y-137542590D02*
X124833838Y-137447352D01*
X124833838Y-137447352D02*
X124881457Y-137399733D01*
X124881457Y-137399733D02*
X124976695Y-137352114D01*
X124976695Y-137352114D02*
X125119552Y-137352114D01*
X125119552Y-137352114D02*
X125214790Y-137399733D01*
X125214790Y-137399733D02*
X125262409Y-137447352D01*
X125262409Y-137447352D02*
X125310028Y-137542590D01*
X125310028Y-137542590D02*
X125310028Y-137923542D01*
X125786219Y-136399733D02*
X125786219Y-136971161D01*
X125786219Y-136685447D02*
X124786219Y-136685447D01*
X124786219Y-136685447D02*
X124929076Y-136780685D01*
X124929076Y-136780685D02*
X125024314Y-136875923D01*
X125024314Y-136875923D02*
X125071933Y-136971161D01*
%TO.C,D1*%
X113460305Y-158454619D02*
X113460305Y-157454619D01*
X113460305Y-157454619D02*
X113698400Y-157454619D01*
X113698400Y-157454619D02*
X113841257Y-157502238D01*
X113841257Y-157502238D02*
X113936495Y-157597476D01*
X113936495Y-157597476D02*
X113984114Y-157692714D01*
X113984114Y-157692714D02*
X114031733Y-157883190D01*
X114031733Y-157883190D02*
X114031733Y-158026047D01*
X114031733Y-158026047D02*
X113984114Y-158216523D01*
X113984114Y-158216523D02*
X113936495Y-158311761D01*
X113936495Y-158311761D02*
X113841257Y-158407000D01*
X113841257Y-158407000D02*
X113698400Y-158454619D01*
X113698400Y-158454619D02*
X113460305Y-158454619D01*
X114984114Y-158454619D02*
X114412686Y-158454619D01*
X114698400Y-158454619D02*
X114698400Y-157454619D01*
X114698400Y-157454619D02*
X114603162Y-157597476D01*
X114603162Y-157597476D02*
X114507924Y-157692714D01*
X114507924Y-157692714D02*
X114412686Y-157740333D01*
X107158619Y-140905334D02*
X107158619Y-140286287D01*
X107158619Y-140286287D02*
X107539571Y-140619620D01*
X107539571Y-140619620D02*
X107539571Y-140476763D01*
X107539571Y-140476763D02*
X107587190Y-140381525D01*
X107587190Y-140381525D02*
X107634809Y-140333906D01*
X107634809Y-140333906D02*
X107730047Y-140286287D01*
X107730047Y-140286287D02*
X107968142Y-140286287D01*
X107968142Y-140286287D02*
X108063380Y-140333906D01*
X108063380Y-140333906D02*
X108111000Y-140381525D01*
X108111000Y-140381525D02*
X108158619Y-140476763D01*
X108158619Y-140476763D02*
X108158619Y-140762477D01*
X108158619Y-140762477D02*
X108111000Y-140857715D01*
X108111000Y-140857715D02*
X108063380Y-140905334D01*
X107491952Y-139429144D02*
X108158619Y-139429144D01*
X107111000Y-139667239D02*
X107825285Y-139905334D01*
X107825285Y-139905334D02*
X107825285Y-139286287D01*
X108158619Y-138143429D02*
X107158619Y-138143429D01*
X107158619Y-138143429D02*
X107158619Y-137762477D01*
X107158619Y-137762477D02*
X107206238Y-137667239D01*
X107206238Y-137667239D02*
X107253857Y-137619620D01*
X107253857Y-137619620D02*
X107349095Y-137572001D01*
X107349095Y-137572001D02*
X107491952Y-137572001D01*
X107491952Y-137572001D02*
X107587190Y-137619620D01*
X107587190Y-137619620D02*
X107634809Y-137667239D01*
X107634809Y-137667239D02*
X107682428Y-137762477D01*
X107682428Y-137762477D02*
X107682428Y-138143429D01*
X108158619Y-137143429D02*
X107491952Y-137143429D01*
X107158619Y-137143429D02*
X107206238Y-137191048D01*
X107206238Y-137191048D02*
X107253857Y-137143429D01*
X107253857Y-137143429D02*
X107206238Y-137095810D01*
X107206238Y-137095810D02*
X107158619Y-137143429D01*
X107158619Y-137143429D02*
X107253857Y-137143429D01*
X107491952Y-136667239D02*
X108158619Y-136667239D01*
X107587190Y-136667239D02*
X107539571Y-136619620D01*
X107539571Y-136619620D02*
X107491952Y-136524382D01*
X107491952Y-136524382D02*
X107491952Y-136381525D01*
X107491952Y-136381525D02*
X107539571Y-136286287D01*
X107539571Y-136286287D02*
X107634809Y-136238668D01*
X107634809Y-136238668D02*
X108158619Y-136238668D01*
X107634809Y-134667239D02*
X107634809Y-135000572D01*
X108158619Y-135000572D02*
X107158619Y-135000572D01*
X107158619Y-135000572D02*
X107158619Y-134524382D01*
X108158619Y-134000572D02*
X108111000Y-134095810D01*
X108111000Y-134095810D02*
X108015761Y-134143429D01*
X108015761Y-134143429D02*
X107158619Y-134143429D01*
X108158619Y-133476762D02*
X108111000Y-133572000D01*
X108111000Y-133572000D02*
X108063380Y-133619619D01*
X108063380Y-133619619D02*
X107968142Y-133667238D01*
X107968142Y-133667238D02*
X107682428Y-133667238D01*
X107682428Y-133667238D02*
X107587190Y-133619619D01*
X107587190Y-133619619D02*
X107539571Y-133572000D01*
X107539571Y-133572000D02*
X107491952Y-133476762D01*
X107491952Y-133476762D02*
X107491952Y-133333905D01*
X107491952Y-133333905D02*
X107539571Y-133238667D01*
X107539571Y-133238667D02*
X107587190Y-133191048D01*
X107587190Y-133191048D02*
X107682428Y-133143429D01*
X107682428Y-133143429D02*
X107968142Y-133143429D01*
X107968142Y-133143429D02*
X108063380Y-133191048D01*
X108063380Y-133191048D02*
X108111000Y-133238667D01*
X108111000Y-133238667D02*
X108158619Y-133333905D01*
X108158619Y-133333905D02*
X108158619Y-133476762D01*
X107491952Y-132714857D02*
X108491952Y-132714857D01*
X107539571Y-132714857D02*
X107491952Y-132619619D01*
X107491952Y-132619619D02*
X107491952Y-132429143D01*
X107491952Y-132429143D02*
X107539571Y-132333905D01*
X107539571Y-132333905D02*
X107587190Y-132286286D01*
X107587190Y-132286286D02*
X107682428Y-132238667D01*
X107682428Y-132238667D02*
X107968142Y-132238667D01*
X107968142Y-132238667D02*
X108063380Y-132286286D01*
X108063380Y-132286286D02*
X108111000Y-132333905D01*
X108111000Y-132333905D02*
X108158619Y-132429143D01*
X108158619Y-132429143D02*
X108158619Y-132619619D01*
X108158619Y-132619619D02*
X108111000Y-132714857D01*
X107491952Y-131810095D02*
X108491952Y-131810095D01*
X107539571Y-131810095D02*
X107491952Y-131714857D01*
X107491952Y-131714857D02*
X107491952Y-131524381D01*
X107491952Y-131524381D02*
X107539571Y-131429143D01*
X107539571Y-131429143D02*
X107587190Y-131381524D01*
X107587190Y-131381524D02*
X107682428Y-131333905D01*
X107682428Y-131333905D02*
X107968142Y-131333905D01*
X107968142Y-131333905D02*
X108063380Y-131381524D01*
X108063380Y-131381524D02*
X108111000Y-131429143D01*
X108111000Y-131429143D02*
X108158619Y-131524381D01*
X108158619Y-131524381D02*
X108158619Y-131714857D01*
X108158619Y-131714857D02*
X108111000Y-131810095D01*
X107491952Y-131000571D02*
X108158619Y-130762476D01*
X107491952Y-130524381D02*
X108158619Y-130762476D01*
X108158619Y-130762476D02*
X108396714Y-130857714D01*
X108396714Y-130857714D02*
X108444333Y-130905333D01*
X108444333Y-130905333D02*
X108491952Y-131000571D01*
X108063380Y-128810095D02*
X108111000Y-128857714D01*
X108111000Y-128857714D02*
X108158619Y-129000571D01*
X108158619Y-129000571D02*
X108158619Y-129095809D01*
X108158619Y-129095809D02*
X108111000Y-129238666D01*
X108111000Y-129238666D02*
X108015761Y-129333904D01*
X108015761Y-129333904D02*
X107920523Y-129381523D01*
X107920523Y-129381523D02*
X107730047Y-129429142D01*
X107730047Y-129429142D02*
X107587190Y-129429142D01*
X107587190Y-129429142D02*
X107396714Y-129381523D01*
X107396714Y-129381523D02*
X107301476Y-129333904D01*
X107301476Y-129333904D02*
X107206238Y-129238666D01*
X107206238Y-129238666D02*
X107158619Y-129095809D01*
X107158619Y-129095809D02*
X107158619Y-129000571D01*
X107158619Y-129000571D02*
X107206238Y-128857714D01*
X107206238Y-128857714D02*
X107253857Y-128810095D01*
X108158619Y-128238666D02*
X108111000Y-128333904D01*
X108111000Y-128333904D02*
X108063380Y-128381523D01*
X108063380Y-128381523D02*
X107968142Y-128429142D01*
X107968142Y-128429142D02*
X107682428Y-128429142D01*
X107682428Y-128429142D02*
X107587190Y-128381523D01*
X107587190Y-128381523D02*
X107539571Y-128333904D01*
X107539571Y-128333904D02*
X107491952Y-128238666D01*
X107491952Y-128238666D02*
X107491952Y-128095809D01*
X107491952Y-128095809D02*
X107539571Y-128000571D01*
X107539571Y-128000571D02*
X107587190Y-127952952D01*
X107587190Y-127952952D02*
X107682428Y-127905333D01*
X107682428Y-127905333D02*
X107968142Y-127905333D01*
X107968142Y-127905333D02*
X108063380Y-127952952D01*
X108063380Y-127952952D02*
X108111000Y-128000571D01*
X108111000Y-128000571D02*
X108158619Y-128095809D01*
X108158619Y-128095809D02*
X108158619Y-128238666D01*
X107491952Y-127476761D02*
X108158619Y-127476761D01*
X107587190Y-127476761D02*
X107539571Y-127429142D01*
X107539571Y-127429142D02*
X107491952Y-127333904D01*
X107491952Y-127333904D02*
X107491952Y-127191047D01*
X107491952Y-127191047D02*
X107539571Y-127095809D01*
X107539571Y-127095809D02*
X107634809Y-127048190D01*
X107634809Y-127048190D02*
X108158619Y-127048190D01*
X107491952Y-126571999D02*
X108158619Y-126571999D01*
X107587190Y-126571999D02*
X107539571Y-126524380D01*
X107539571Y-126524380D02*
X107491952Y-126429142D01*
X107491952Y-126429142D02*
X107491952Y-126286285D01*
X107491952Y-126286285D02*
X107539571Y-126191047D01*
X107539571Y-126191047D02*
X107634809Y-126143428D01*
X107634809Y-126143428D02*
X108158619Y-126143428D01*
X108111000Y-125286285D02*
X108158619Y-125381523D01*
X108158619Y-125381523D02*
X108158619Y-125571999D01*
X108158619Y-125571999D02*
X108111000Y-125667237D01*
X108111000Y-125667237D02*
X108015761Y-125714856D01*
X108015761Y-125714856D02*
X107634809Y-125714856D01*
X107634809Y-125714856D02*
X107539571Y-125667237D01*
X107539571Y-125667237D02*
X107491952Y-125571999D01*
X107491952Y-125571999D02*
X107491952Y-125381523D01*
X107491952Y-125381523D02*
X107539571Y-125286285D01*
X107539571Y-125286285D02*
X107634809Y-125238666D01*
X107634809Y-125238666D02*
X107730047Y-125238666D01*
X107730047Y-125238666D02*
X107825285Y-125714856D01*
X108111000Y-124381523D02*
X108158619Y-124476761D01*
X108158619Y-124476761D02*
X108158619Y-124667237D01*
X108158619Y-124667237D02*
X108111000Y-124762475D01*
X108111000Y-124762475D02*
X108063380Y-124810094D01*
X108063380Y-124810094D02*
X107968142Y-124857713D01*
X107968142Y-124857713D02*
X107682428Y-124857713D01*
X107682428Y-124857713D02*
X107587190Y-124810094D01*
X107587190Y-124810094D02*
X107539571Y-124762475D01*
X107539571Y-124762475D02*
X107491952Y-124667237D01*
X107491952Y-124667237D02*
X107491952Y-124476761D01*
X107491952Y-124476761D02*
X107539571Y-124381523D01*
X107491952Y-124095808D02*
X107491952Y-123714856D01*
X107158619Y-123952951D02*
X108015761Y-123952951D01*
X108015761Y-123952951D02*
X108111000Y-123905332D01*
X108111000Y-123905332D02*
X108158619Y-123810094D01*
X108158619Y-123810094D02*
X108158619Y-123714856D01*
X108158619Y-123238665D02*
X108111000Y-123333903D01*
X108111000Y-123333903D02*
X108063380Y-123381522D01*
X108063380Y-123381522D02*
X107968142Y-123429141D01*
X107968142Y-123429141D02*
X107682428Y-123429141D01*
X107682428Y-123429141D02*
X107587190Y-123381522D01*
X107587190Y-123381522D02*
X107539571Y-123333903D01*
X107539571Y-123333903D02*
X107491952Y-123238665D01*
X107491952Y-123238665D02*
X107491952Y-123095808D01*
X107491952Y-123095808D02*
X107539571Y-123000570D01*
X107539571Y-123000570D02*
X107587190Y-122952951D01*
X107587190Y-122952951D02*
X107682428Y-122905332D01*
X107682428Y-122905332D02*
X107968142Y-122905332D01*
X107968142Y-122905332D02*
X108063380Y-122952951D01*
X108063380Y-122952951D02*
X108111000Y-123000570D01*
X108111000Y-123000570D02*
X108158619Y-123095808D01*
X108158619Y-123095808D02*
X108158619Y-123238665D01*
X108158619Y-122476760D02*
X107491952Y-122476760D01*
X107682428Y-122476760D02*
X107587190Y-122429141D01*
X107587190Y-122429141D02*
X107539571Y-122381522D01*
X107539571Y-122381522D02*
X107491952Y-122286284D01*
X107491952Y-122286284D02*
X107491952Y-122191046D01*
%TO.C,R7*%
X166609733Y-127886619D02*
X166276400Y-127410428D01*
X166038305Y-127886619D02*
X166038305Y-126886619D01*
X166038305Y-126886619D02*
X166419257Y-126886619D01*
X166419257Y-126886619D02*
X166514495Y-126934238D01*
X166514495Y-126934238D02*
X166562114Y-126981857D01*
X166562114Y-126981857D02*
X166609733Y-127077095D01*
X166609733Y-127077095D02*
X166609733Y-127219952D01*
X166609733Y-127219952D02*
X166562114Y-127315190D01*
X166562114Y-127315190D02*
X166514495Y-127362809D01*
X166514495Y-127362809D02*
X166419257Y-127410428D01*
X166419257Y-127410428D02*
X166038305Y-127410428D01*
X166943067Y-126886619D02*
X167609733Y-126886619D01*
X167609733Y-126886619D02*
X167181162Y-127886619D01*
X165581200Y-129453457D02*
X165628819Y-129405838D01*
X165628819Y-129405838D02*
X165724057Y-129358219D01*
X165724057Y-129358219D02*
X165962152Y-129358219D01*
X165962152Y-129358219D02*
X166057390Y-129405838D01*
X166057390Y-129405838D02*
X166105009Y-129453457D01*
X166105009Y-129453457D02*
X166152628Y-129548695D01*
X166152628Y-129548695D02*
X166152628Y-129643933D01*
X166152628Y-129643933D02*
X166105009Y-129786790D01*
X166105009Y-129786790D02*
X165533581Y-130358219D01*
X165533581Y-130358219D02*
X166152628Y-130358219D01*
X166581200Y-130262980D02*
X166628819Y-130310600D01*
X166628819Y-130310600D02*
X166581200Y-130358219D01*
X166581200Y-130358219D02*
X166533581Y-130310600D01*
X166533581Y-130310600D02*
X166581200Y-130262980D01*
X166581200Y-130262980D02*
X166581200Y-130358219D01*
X167009771Y-129453457D02*
X167057390Y-129405838D01*
X167057390Y-129405838D02*
X167152628Y-129358219D01*
X167152628Y-129358219D02*
X167390723Y-129358219D01*
X167390723Y-129358219D02*
X167485961Y-129405838D01*
X167485961Y-129405838D02*
X167533580Y-129453457D01*
X167533580Y-129453457D02*
X167581199Y-129548695D01*
X167581199Y-129548695D02*
X167581199Y-129643933D01*
X167581199Y-129643933D02*
X167533580Y-129786790D01*
X167533580Y-129786790D02*
X166962152Y-130358219D01*
X166962152Y-130358219D02*
X167581199Y-130358219D01*
X168009771Y-130358219D02*
X168009771Y-129358219D01*
X168581199Y-130358219D02*
X168152628Y-129786790D01*
X168581199Y-129358219D02*
X168009771Y-129929647D01*
D13*
%TO.C,R4*%
X171805600Y-141248000D02*
X171805600Y-142018000D01*
X173175600Y-142018000D02*
X170435600Y-142018000D01*
X170435600Y-142018000D02*
X170435600Y-148558000D01*
X173175600Y-148558000D02*
X173175600Y-142018000D01*
X170435600Y-148558000D02*
X173175600Y-148558000D01*
X171805600Y-149328000D02*
X171805600Y-148558000D01*
%TO.C,J2*%
X195062800Y-106782400D02*
X196392800Y-106782400D01*
X195062800Y-108112400D02*
X195062800Y-106782400D01*
X195062800Y-109382400D02*
X195062800Y-117062400D01*
X195062800Y-109382400D02*
X197722800Y-109382400D01*
X195062800Y-117062400D02*
X197722800Y-117062400D01*
X197722800Y-109382400D02*
X197722800Y-117062400D01*
%TO.C,R6*%
X156284800Y-135636000D02*
X157054800Y-135636000D01*
X157054800Y-134266000D02*
X157054800Y-137006000D01*
X157054800Y-137006000D02*
X163594800Y-137006000D01*
X163594800Y-134266000D02*
X157054800Y-134266000D01*
X163594800Y-137006000D02*
X163594800Y-134266000D01*
X164364800Y-135636000D02*
X163594800Y-135636000D01*
%TO.C,R5*%
X152552400Y-149480400D02*
X152552400Y-148710400D01*
X151182400Y-148710400D02*
X153922400Y-148710400D01*
X153922400Y-148710400D02*
X153922400Y-142170400D01*
X151182400Y-142170400D02*
X151182400Y-148710400D01*
X153922400Y-142170400D02*
X151182400Y-142170400D01*
X152552400Y-141400400D02*
X152552400Y-142170400D01*
%TO.C,R3*%
X165252400Y-141197200D02*
X165252400Y-141967200D01*
X166622400Y-141967200D02*
X163882400Y-141967200D01*
X163882400Y-141967200D02*
X163882400Y-148507200D01*
X166622400Y-148507200D02*
X166622400Y-141967200D01*
X163882400Y-148507200D02*
X166622400Y-148507200D01*
X165252400Y-149277200D02*
X165252400Y-148507200D01*
%TO.C,R2*%
X158597600Y-141298800D02*
X158597600Y-142068800D01*
X159967600Y-142068800D02*
X157227600Y-142068800D01*
X157227600Y-142068800D02*
X157227600Y-148608800D01*
X159967600Y-148608800D02*
X159967600Y-142068800D01*
X157227600Y-148608800D02*
X159967600Y-148608800D01*
X158597600Y-149378800D02*
X158597600Y-148608800D01*
D14*
%TO.C,J1*%
X190084100Y-123961200D02*
X195418100Y-123961200D01*
X190084100Y-128360200D02*
X190084100Y-123961200D01*
X190084100Y-152617200D02*
X190084100Y-152706200D01*
X190084100Y-152706200D02*
X195418100Y-152706200D01*
X212028100Y-124061200D02*
X219067100Y-124061200D01*
X213190100Y-152706200D02*
X219067100Y-152706200D01*
X219067100Y-124061200D02*
X219079100Y-125479200D01*
X219067100Y-152706200D02*
X219067100Y-151728200D01*
D13*
%TO.C,U1*%
X126111000Y-110515400D02*
X126111000Y-113182400D01*
X126111000Y-115722400D02*
X126111000Y-153949400D01*
X126111000Y-153949400D02*
X131191000Y-153949400D01*
X128778000Y-113182400D02*
X126111000Y-113182400D01*
X128778000Y-115722400D02*
X126111000Y-115722400D01*
X128778000Y-115722400D02*
X128778000Y-113182400D01*
X128778000Y-115722400D02*
X128778000Y-151282400D01*
X128778000Y-151282400D02*
X126108000Y-151282400D01*
X131191000Y-156489400D02*
X131191000Y-153949400D01*
X131191000Y-156489400D02*
X139065000Y-156489400D01*
X139065000Y-153949400D02*
X144145000Y-153949400D01*
X139065000Y-156489400D02*
X139065000Y-153949400D01*
X141478000Y-113182400D02*
X141478000Y-151282400D01*
X141478000Y-113182400D02*
X144148000Y-113182400D01*
X141478000Y-151282400D02*
X144148000Y-151282400D01*
X144145000Y-110515400D02*
X126111000Y-110515400D01*
X144145000Y-153949400D02*
X144145000Y-110515400D01*
%TO.C,R1*%
X158215200Y-155448000D02*
X158985200Y-155448000D01*
X158985200Y-154078000D02*
X158985200Y-156818000D01*
X158985200Y-156818000D02*
X165525200Y-156818000D01*
X165525200Y-154078000D02*
X158985200Y-154078000D01*
X165525200Y-156818000D02*
X165525200Y-154078000D01*
X166295200Y-155448000D02*
X165525200Y-155448000D01*
%TO.C,J3*%
X182640200Y-149038000D02*
X182640200Y-150368000D01*
X181310200Y-149038000D02*
X182640200Y-149038000D01*
X180040200Y-149038000D02*
X177440200Y-149038000D01*
X180040200Y-149038000D02*
X180040200Y-151698000D01*
X177440200Y-149038000D02*
X177440200Y-151698000D01*
X180040200Y-151698000D02*
X177440200Y-151698000D01*
%TO.C,JP1*%
X121606000Y-133594800D02*
X122936000Y-133594800D01*
X121606000Y-134924800D02*
X121606000Y-133594800D01*
X121606000Y-136194800D02*
X121606000Y-141334800D01*
X121606000Y-136194800D02*
X124266000Y-136194800D01*
X121606000Y-141334800D02*
X124266000Y-141334800D01*
X124266000Y-136194800D02*
X124266000Y-141334800D01*
%TO.C,D1*%
X120148400Y-152392000D02*
X120148400Y-151392000D01*
X120148400Y-151392000D02*
X119148400Y-151892000D01*
X119148400Y-151892000D02*
X120148400Y-152392000D01*
X118758400Y-157102000D02*
X109638400Y-157102000D01*
X118758400Y-133622000D02*
X117448400Y-133622000D01*
X118758400Y-106042000D02*
X118758400Y-157102000D01*
X117448400Y-155802000D02*
X110948400Y-155802000D01*
X117448400Y-133622000D02*
X117448400Y-155802000D01*
X117448400Y-129522000D02*
X118758400Y-129522000D01*
X117448400Y-129522000D02*
X117448400Y-129522000D01*
X117448400Y-107342000D02*
X117448400Y-129522000D01*
X110948400Y-155802000D02*
X110948400Y-107342000D01*
X110948400Y-107342000D02*
X117448400Y-107342000D01*
X109638400Y-157102000D02*
X109638400Y-106042000D01*
X109638400Y-106042000D02*
X118758400Y-106042000D01*
%TO.C,R7*%
X162736400Y-129794000D02*
X163506400Y-129794000D01*
X163506400Y-128424000D02*
X163506400Y-131164000D01*
X163506400Y-131164000D02*
X170046400Y-131164000D01*
X170046400Y-128424000D02*
X163506400Y-128424000D01*
X170046400Y-131164000D02*
X170046400Y-128424000D01*
X170816400Y-129794000D02*
X170046400Y-129794000D01*
%TD*%
M02*
