%TF.GenerationSoftware,KiCad,Pcbnew,7.0.11*%
%TF.CreationDate,2024-05-28T23:21:32+03:00*%
%TF.ProjectId,delta_flop_arduino,64656c74-615f-4666-9c6f-705f61726475,rev?*%
%TF.SameCoordinates,Original*%
%TF.FileFunction,Legend,Top*%
%TF.FilePolarity,Positive*%
%FSLAX46Y46*%
G04 Gerber Fmt 4.6, Leading zero omitted, Abs format (unit mm)*
G04 Created by KiCad (PCBNEW 7.0.11) date 2024-05-28 23:21:32*
%MOMM*%
%LPD*%
G01*
G04 APERTURE LIST*
%ADD10C,0.300000*%
%ADD11C,0.150000*%
%ADD12C,0.200000*%
%ADD13C,0.254000*%
%ADD14C,0.120000*%
G04 APERTURE END LIST*
D10*
X130949757Y-141785714D02*
X130949757Y-141071429D01*
X131378328Y-141928571D02*
X129878328Y-141428571D01*
X129878328Y-141428571D02*
X131378328Y-140928571D01*
X131378328Y-140428572D02*
X130378328Y-140428572D01*
X130664042Y-140428572D02*
X130521185Y-140357143D01*
X130521185Y-140357143D02*
X130449757Y-140285715D01*
X130449757Y-140285715D02*
X130378328Y-140142857D01*
X130378328Y-140142857D02*
X130378328Y-140000000D01*
X131378328Y-138857144D02*
X129878328Y-138857144D01*
X131306900Y-138857144D02*
X131378328Y-139000001D01*
X131378328Y-139000001D02*
X131378328Y-139285715D01*
X131378328Y-139285715D02*
X131306900Y-139428572D01*
X131306900Y-139428572D02*
X131235471Y-139500001D01*
X131235471Y-139500001D02*
X131092614Y-139571429D01*
X131092614Y-139571429D02*
X130664042Y-139571429D01*
X130664042Y-139571429D02*
X130521185Y-139500001D01*
X130521185Y-139500001D02*
X130449757Y-139428572D01*
X130449757Y-139428572D02*
X130378328Y-139285715D01*
X130378328Y-139285715D02*
X130378328Y-139000001D01*
X130378328Y-139000001D02*
X130449757Y-138857144D01*
X130378328Y-137500001D02*
X131378328Y-137500001D01*
X130378328Y-138142858D02*
X131164042Y-138142858D01*
X131164042Y-138142858D02*
X131306900Y-138071429D01*
X131306900Y-138071429D02*
X131378328Y-137928572D01*
X131378328Y-137928572D02*
X131378328Y-137714286D01*
X131378328Y-137714286D02*
X131306900Y-137571429D01*
X131306900Y-137571429D02*
X131235471Y-137500001D01*
X131378328Y-136785715D02*
X130378328Y-136785715D01*
X129878328Y-136785715D02*
X129949757Y-136857143D01*
X129949757Y-136857143D02*
X130021185Y-136785715D01*
X130021185Y-136785715D02*
X129949757Y-136714286D01*
X129949757Y-136714286D02*
X129878328Y-136785715D01*
X129878328Y-136785715D02*
X130021185Y-136785715D01*
X130378328Y-136071429D02*
X131378328Y-136071429D01*
X130521185Y-136071429D02*
X130449757Y-136000000D01*
X130449757Y-136000000D02*
X130378328Y-135857143D01*
X130378328Y-135857143D02*
X130378328Y-135642857D01*
X130378328Y-135642857D02*
X130449757Y-135500000D01*
X130449757Y-135500000D02*
X130592614Y-135428572D01*
X130592614Y-135428572D02*
X131378328Y-135428572D01*
X131378328Y-134500000D02*
X131306900Y-134642857D01*
X131306900Y-134642857D02*
X131235471Y-134714286D01*
X131235471Y-134714286D02*
X131092614Y-134785714D01*
X131092614Y-134785714D02*
X130664042Y-134785714D01*
X130664042Y-134785714D02*
X130521185Y-134714286D01*
X130521185Y-134714286D02*
X130449757Y-134642857D01*
X130449757Y-134642857D02*
X130378328Y-134500000D01*
X130378328Y-134500000D02*
X130378328Y-134285714D01*
X130378328Y-134285714D02*
X130449757Y-134142857D01*
X130449757Y-134142857D02*
X130521185Y-134071429D01*
X130521185Y-134071429D02*
X130664042Y-134000000D01*
X130664042Y-134000000D02*
X131092614Y-134000000D01*
X131092614Y-134000000D02*
X131235471Y-134071429D01*
X131235471Y-134071429D02*
X131306900Y-134142857D01*
X131306900Y-134142857D02*
X131378328Y-134285714D01*
X131378328Y-134285714D02*
X131378328Y-134500000D01*
X131378328Y-132214286D02*
X129878328Y-132214286D01*
X129878328Y-132214286D02*
X131378328Y-131357143D01*
X131378328Y-131357143D02*
X129878328Y-131357143D01*
X131378328Y-130000000D02*
X130592614Y-130000000D01*
X130592614Y-130000000D02*
X130449757Y-130071428D01*
X130449757Y-130071428D02*
X130378328Y-130214285D01*
X130378328Y-130214285D02*
X130378328Y-130500000D01*
X130378328Y-130500000D02*
X130449757Y-130642857D01*
X131306900Y-130000000D02*
X131378328Y-130142857D01*
X131378328Y-130142857D02*
X131378328Y-130500000D01*
X131378328Y-130500000D02*
X131306900Y-130642857D01*
X131306900Y-130642857D02*
X131164042Y-130714285D01*
X131164042Y-130714285D02*
X131021185Y-130714285D01*
X131021185Y-130714285D02*
X130878328Y-130642857D01*
X130878328Y-130642857D02*
X130806900Y-130500000D01*
X130806900Y-130500000D02*
X130806900Y-130142857D01*
X130806900Y-130142857D02*
X130735471Y-130000000D01*
X130378328Y-129285714D02*
X131378328Y-129285714D01*
X130521185Y-129285714D02*
X130449757Y-129214285D01*
X130449757Y-129214285D02*
X130378328Y-129071428D01*
X130378328Y-129071428D02*
X130378328Y-128857142D01*
X130378328Y-128857142D02*
X130449757Y-128714285D01*
X130449757Y-128714285D02*
X130592614Y-128642857D01*
X130592614Y-128642857D02*
X131378328Y-128642857D01*
X131378328Y-127714285D02*
X131306900Y-127857142D01*
X131306900Y-127857142D02*
X131235471Y-127928571D01*
X131235471Y-127928571D02*
X131092614Y-127999999D01*
X131092614Y-127999999D02*
X130664042Y-127999999D01*
X130664042Y-127999999D02*
X130521185Y-127928571D01*
X130521185Y-127928571D02*
X130449757Y-127857142D01*
X130449757Y-127857142D02*
X130378328Y-127714285D01*
X130378328Y-127714285D02*
X130378328Y-127499999D01*
X130378328Y-127499999D02*
X130449757Y-127357142D01*
X130449757Y-127357142D02*
X130521185Y-127285714D01*
X130521185Y-127285714D02*
X130664042Y-127214285D01*
X130664042Y-127214285D02*
X131092614Y-127214285D01*
X131092614Y-127214285D02*
X131235471Y-127285714D01*
X131235471Y-127285714D02*
X131306900Y-127357142D01*
X131306900Y-127357142D02*
X131378328Y-127499999D01*
X131378328Y-127499999D02*
X131378328Y-127714285D01*
X141571428Y-105685828D02*
X141571428Y-104185828D01*
X141571428Y-104185828D02*
X141928571Y-104185828D01*
X141928571Y-104185828D02*
X142142857Y-104257257D01*
X142142857Y-104257257D02*
X142285714Y-104400114D01*
X142285714Y-104400114D02*
X142357143Y-104542971D01*
X142357143Y-104542971D02*
X142428571Y-104828685D01*
X142428571Y-104828685D02*
X142428571Y-105042971D01*
X142428571Y-105042971D02*
X142357143Y-105328685D01*
X142357143Y-105328685D02*
X142285714Y-105471542D01*
X142285714Y-105471542D02*
X142142857Y-105614400D01*
X142142857Y-105614400D02*
X141928571Y-105685828D01*
X141928571Y-105685828D02*
X141571428Y-105685828D01*
X143071428Y-105685828D02*
X143071428Y-104685828D01*
X143071428Y-104971542D02*
X143142857Y-104828685D01*
X143142857Y-104828685D02*
X143214286Y-104757257D01*
X143214286Y-104757257D02*
X143357143Y-104685828D01*
X143357143Y-104685828D02*
X143500000Y-104685828D01*
X143999999Y-105685828D02*
X143999999Y-104685828D01*
X143999999Y-104185828D02*
X143928571Y-104257257D01*
X143928571Y-104257257D02*
X143999999Y-104328685D01*
X143999999Y-104328685D02*
X144071428Y-104257257D01*
X144071428Y-104257257D02*
X143999999Y-104185828D01*
X143999999Y-104185828D02*
X143999999Y-104328685D01*
X144571428Y-104685828D02*
X144928571Y-105685828D01*
X144928571Y-105685828D02*
X145285714Y-104685828D01*
X146428571Y-105614400D02*
X146285714Y-105685828D01*
X146285714Y-105685828D02*
X146000000Y-105685828D01*
X146000000Y-105685828D02*
X145857142Y-105614400D01*
X145857142Y-105614400D02*
X145785714Y-105471542D01*
X145785714Y-105471542D02*
X145785714Y-104900114D01*
X145785714Y-104900114D02*
X145857142Y-104757257D01*
X145857142Y-104757257D02*
X146000000Y-104685828D01*
X146000000Y-104685828D02*
X146285714Y-104685828D01*
X146285714Y-104685828D02*
X146428571Y-104757257D01*
X146428571Y-104757257D02*
X146500000Y-104900114D01*
X146500000Y-104900114D02*
X146500000Y-105042971D01*
X146500000Y-105042971D02*
X145785714Y-105185828D01*
X144107142Y-107315114D02*
X144321428Y-107386542D01*
X144321428Y-107386542D02*
X144392857Y-107457971D01*
X144392857Y-107457971D02*
X144464285Y-107600828D01*
X144464285Y-107600828D02*
X144464285Y-107815114D01*
X144464285Y-107815114D02*
X144392857Y-107957971D01*
X144392857Y-107957971D02*
X144321428Y-108029400D01*
X144321428Y-108029400D02*
X144178571Y-108100828D01*
X144178571Y-108100828D02*
X143607142Y-108100828D01*
X143607142Y-108100828D02*
X143607142Y-106600828D01*
X143607142Y-106600828D02*
X144107142Y-106600828D01*
X144107142Y-106600828D02*
X144250000Y-106672257D01*
X144250000Y-106672257D02*
X144321428Y-106743685D01*
X144321428Y-106743685D02*
X144392857Y-106886542D01*
X144392857Y-106886542D02*
X144392857Y-107029400D01*
X144392857Y-107029400D02*
X144321428Y-107172257D01*
X144321428Y-107172257D02*
X144250000Y-107243685D01*
X144250000Y-107243685D02*
X144107142Y-107315114D01*
X144107142Y-107315114D02*
X143607142Y-107315114D01*
D11*
X187719819Y-156061905D02*
X187719819Y-155871429D01*
X187719819Y-155871429D02*
X187767438Y-155776191D01*
X187767438Y-155776191D02*
X187862676Y-155680953D01*
X187862676Y-155680953D02*
X188053152Y-155633334D01*
X188053152Y-155633334D02*
X188386485Y-155633334D01*
X188386485Y-155633334D02*
X188576961Y-155680953D01*
X188576961Y-155680953D02*
X188672200Y-155776191D01*
X188672200Y-155776191D02*
X188719819Y-155871429D01*
X188719819Y-155871429D02*
X188719819Y-156061905D01*
X188719819Y-156061905D02*
X188672200Y-156157143D01*
X188672200Y-156157143D02*
X188576961Y-156252381D01*
X188576961Y-156252381D02*
X188386485Y-156300000D01*
X188386485Y-156300000D02*
X188053152Y-156300000D01*
X188053152Y-156300000D02*
X187862676Y-156252381D01*
X187862676Y-156252381D02*
X187767438Y-156157143D01*
X187767438Y-156157143D02*
X187719819Y-156061905D01*
X188719819Y-155204762D02*
X188053152Y-155204762D01*
X188243628Y-155204762D02*
X188148390Y-155157143D01*
X188148390Y-155157143D02*
X188100771Y-155109524D01*
X188100771Y-155109524D02*
X188053152Y-155014286D01*
X188053152Y-155014286D02*
X188053152Y-154919048D01*
X188719819Y-154585714D02*
X188053152Y-154585714D01*
X187719819Y-154585714D02*
X187767438Y-154633333D01*
X187767438Y-154633333D02*
X187815057Y-154585714D01*
X187815057Y-154585714D02*
X187767438Y-154538095D01*
X187767438Y-154538095D02*
X187719819Y-154585714D01*
X187719819Y-154585714D02*
X187815057Y-154585714D01*
X188053152Y-153680953D02*
X188862676Y-153680953D01*
X188862676Y-153680953D02*
X188957914Y-153728572D01*
X188957914Y-153728572D02*
X189005533Y-153776191D01*
X189005533Y-153776191D02*
X189053152Y-153871429D01*
X189053152Y-153871429D02*
X189053152Y-154014286D01*
X189053152Y-154014286D02*
X189005533Y-154109524D01*
X188672200Y-153680953D02*
X188719819Y-153776191D01*
X188719819Y-153776191D02*
X188719819Y-153966667D01*
X188719819Y-153966667D02*
X188672200Y-154061905D01*
X188672200Y-154061905D02*
X188624580Y-154109524D01*
X188624580Y-154109524D02*
X188529342Y-154157143D01*
X188529342Y-154157143D02*
X188243628Y-154157143D01*
X188243628Y-154157143D02*
X188148390Y-154109524D01*
X188148390Y-154109524D02*
X188100771Y-154061905D01*
X188100771Y-154061905D02*
X188053152Y-153966667D01*
X188053152Y-153966667D02*
X188053152Y-153776191D01*
X188053152Y-153776191D02*
X188100771Y-153680953D01*
X188719819Y-153204762D02*
X188053152Y-153204762D01*
X187719819Y-153204762D02*
X187767438Y-153252381D01*
X187767438Y-153252381D02*
X187815057Y-153204762D01*
X187815057Y-153204762D02*
X187767438Y-153157143D01*
X187767438Y-153157143D02*
X187719819Y-153204762D01*
X187719819Y-153204762D02*
X187815057Y-153204762D01*
X188053152Y-152728572D02*
X188719819Y-152728572D01*
X188148390Y-152728572D02*
X188100771Y-152680953D01*
X188100771Y-152680953D02*
X188053152Y-152585715D01*
X188053152Y-152585715D02*
X188053152Y-152442858D01*
X188053152Y-152442858D02*
X188100771Y-152347620D01*
X188100771Y-152347620D02*
X188196009Y-152300001D01*
X188196009Y-152300001D02*
X188719819Y-152300001D01*
X188719819Y-151395239D02*
X188196009Y-151395239D01*
X188196009Y-151395239D02*
X188100771Y-151442858D01*
X188100771Y-151442858D02*
X188053152Y-151538096D01*
X188053152Y-151538096D02*
X188053152Y-151728572D01*
X188053152Y-151728572D02*
X188100771Y-151823810D01*
X188672200Y-151395239D02*
X188719819Y-151490477D01*
X188719819Y-151490477D02*
X188719819Y-151728572D01*
X188719819Y-151728572D02*
X188672200Y-151823810D01*
X188672200Y-151823810D02*
X188576961Y-151871429D01*
X188576961Y-151871429D02*
X188481723Y-151871429D01*
X188481723Y-151871429D02*
X188386485Y-151823810D01*
X188386485Y-151823810D02*
X188338866Y-151728572D01*
X188338866Y-151728572D02*
X188338866Y-151490477D01*
X188338866Y-151490477D02*
X188291247Y-151395239D01*
X188719819Y-150776191D02*
X188672200Y-150871429D01*
X188672200Y-150871429D02*
X188576961Y-150919048D01*
X188576961Y-150919048D02*
X187719819Y-150919048D01*
X188053152Y-149633333D02*
X189053152Y-149633333D01*
X188100771Y-149633333D02*
X188053152Y-149538095D01*
X188053152Y-149538095D02*
X188053152Y-149347619D01*
X188053152Y-149347619D02*
X188100771Y-149252381D01*
X188100771Y-149252381D02*
X188148390Y-149204762D01*
X188148390Y-149204762D02*
X188243628Y-149157143D01*
X188243628Y-149157143D02*
X188529342Y-149157143D01*
X188529342Y-149157143D02*
X188624580Y-149204762D01*
X188624580Y-149204762D02*
X188672200Y-149252381D01*
X188672200Y-149252381D02*
X188719819Y-149347619D01*
X188719819Y-149347619D02*
X188719819Y-149538095D01*
X188719819Y-149538095D02*
X188672200Y-149633333D01*
X188719819Y-148728571D02*
X188053152Y-148728571D01*
X188243628Y-148728571D02*
X188148390Y-148680952D01*
X188148390Y-148680952D02*
X188100771Y-148633333D01*
X188100771Y-148633333D02*
X188053152Y-148538095D01*
X188053152Y-148538095D02*
X188053152Y-148442857D01*
X188719819Y-147966666D02*
X188672200Y-148061904D01*
X188672200Y-148061904D02*
X188624580Y-148109523D01*
X188624580Y-148109523D02*
X188529342Y-148157142D01*
X188529342Y-148157142D02*
X188243628Y-148157142D01*
X188243628Y-148157142D02*
X188148390Y-148109523D01*
X188148390Y-148109523D02*
X188100771Y-148061904D01*
X188100771Y-148061904D02*
X188053152Y-147966666D01*
X188053152Y-147966666D02*
X188053152Y-147823809D01*
X188053152Y-147823809D02*
X188100771Y-147728571D01*
X188100771Y-147728571D02*
X188148390Y-147680952D01*
X188148390Y-147680952D02*
X188243628Y-147633333D01*
X188243628Y-147633333D02*
X188529342Y-147633333D01*
X188529342Y-147633333D02*
X188624580Y-147680952D01*
X188624580Y-147680952D02*
X188672200Y-147728571D01*
X188672200Y-147728571D02*
X188719819Y-147823809D01*
X188719819Y-147823809D02*
X188719819Y-147966666D01*
X188053152Y-147204761D02*
X188910295Y-147204761D01*
X188910295Y-147204761D02*
X189005533Y-147252380D01*
X189005533Y-147252380D02*
X189053152Y-147347618D01*
X189053152Y-147347618D02*
X189053152Y-147395237D01*
X187719819Y-147204761D02*
X187767438Y-147252380D01*
X187767438Y-147252380D02*
X187815057Y-147204761D01*
X187815057Y-147204761D02*
X187767438Y-147157142D01*
X187767438Y-147157142D02*
X187719819Y-147204761D01*
X187719819Y-147204761D02*
X187815057Y-147204761D01*
X188672200Y-146347619D02*
X188719819Y-146442857D01*
X188719819Y-146442857D02*
X188719819Y-146633333D01*
X188719819Y-146633333D02*
X188672200Y-146728571D01*
X188672200Y-146728571D02*
X188576961Y-146776190D01*
X188576961Y-146776190D02*
X188196009Y-146776190D01*
X188196009Y-146776190D02*
X188100771Y-146728571D01*
X188100771Y-146728571D02*
X188053152Y-146633333D01*
X188053152Y-146633333D02*
X188053152Y-146442857D01*
X188053152Y-146442857D02*
X188100771Y-146347619D01*
X188100771Y-146347619D02*
X188196009Y-146300000D01*
X188196009Y-146300000D02*
X188291247Y-146300000D01*
X188291247Y-146300000D02*
X188386485Y-146776190D01*
X188672200Y-145442857D02*
X188719819Y-145538095D01*
X188719819Y-145538095D02*
X188719819Y-145728571D01*
X188719819Y-145728571D02*
X188672200Y-145823809D01*
X188672200Y-145823809D02*
X188624580Y-145871428D01*
X188624580Y-145871428D02*
X188529342Y-145919047D01*
X188529342Y-145919047D02*
X188243628Y-145919047D01*
X188243628Y-145919047D02*
X188148390Y-145871428D01*
X188148390Y-145871428D02*
X188100771Y-145823809D01*
X188100771Y-145823809D02*
X188053152Y-145728571D01*
X188053152Y-145728571D02*
X188053152Y-145538095D01*
X188053152Y-145538095D02*
X188100771Y-145442857D01*
X188053152Y-145157142D02*
X188053152Y-144776190D01*
X187719819Y-145014285D02*
X188576961Y-145014285D01*
X188576961Y-145014285D02*
X188672200Y-144966666D01*
X188672200Y-144966666D02*
X188719819Y-144871428D01*
X188719819Y-144871428D02*
X188719819Y-144776190D01*
X188719819Y-143680951D02*
X187719819Y-143680951D01*
X188100771Y-143680951D02*
X188053152Y-143585713D01*
X188053152Y-143585713D02*
X188053152Y-143395237D01*
X188053152Y-143395237D02*
X188100771Y-143299999D01*
X188100771Y-143299999D02*
X188148390Y-143252380D01*
X188148390Y-143252380D02*
X188243628Y-143204761D01*
X188243628Y-143204761D02*
X188529342Y-143204761D01*
X188529342Y-143204761D02*
X188624580Y-143252380D01*
X188624580Y-143252380D02*
X188672200Y-143299999D01*
X188672200Y-143299999D02*
X188719819Y-143395237D01*
X188719819Y-143395237D02*
X188719819Y-143585713D01*
X188719819Y-143585713D02*
X188672200Y-143680951D01*
X188053152Y-142871427D02*
X188719819Y-142633332D01*
X188053152Y-142395237D02*
X188719819Y-142633332D01*
X188719819Y-142633332D02*
X188957914Y-142728570D01*
X188957914Y-142728570D02*
X189005533Y-142776189D01*
X189005533Y-142776189D02*
X189053152Y-142871427D01*
X188196009Y-141252379D02*
X188196009Y-140919046D01*
X188719819Y-140776189D02*
X188719819Y-141252379D01*
X188719819Y-141252379D02*
X187719819Y-141252379D01*
X187719819Y-141252379D02*
X187719819Y-140776189D01*
X188053152Y-140442855D02*
X188719819Y-140204760D01*
X188719819Y-140204760D02*
X188053152Y-139966665D01*
X188053152Y-139157141D02*
X188862676Y-139157141D01*
X188862676Y-139157141D02*
X188957914Y-139204760D01*
X188957914Y-139204760D02*
X189005533Y-139252379D01*
X189005533Y-139252379D02*
X189053152Y-139347617D01*
X189053152Y-139347617D02*
X189053152Y-139490474D01*
X189053152Y-139490474D02*
X189005533Y-139585712D01*
X188672200Y-139157141D02*
X188719819Y-139252379D01*
X188719819Y-139252379D02*
X188719819Y-139442855D01*
X188719819Y-139442855D02*
X188672200Y-139538093D01*
X188672200Y-139538093D02*
X188624580Y-139585712D01*
X188624580Y-139585712D02*
X188529342Y-139633331D01*
X188529342Y-139633331D02*
X188243628Y-139633331D01*
X188243628Y-139633331D02*
X188148390Y-139585712D01*
X188148390Y-139585712D02*
X188100771Y-139538093D01*
X188100771Y-139538093D02*
X188053152Y-139442855D01*
X188053152Y-139442855D02*
X188053152Y-139252379D01*
X188053152Y-139252379D02*
X188100771Y-139157141D01*
X188672200Y-138299998D02*
X188719819Y-138395236D01*
X188719819Y-138395236D02*
X188719819Y-138585712D01*
X188719819Y-138585712D02*
X188672200Y-138680950D01*
X188672200Y-138680950D02*
X188576961Y-138728569D01*
X188576961Y-138728569D02*
X188196009Y-138728569D01*
X188196009Y-138728569D02*
X188100771Y-138680950D01*
X188100771Y-138680950D02*
X188053152Y-138585712D01*
X188053152Y-138585712D02*
X188053152Y-138395236D01*
X188053152Y-138395236D02*
X188100771Y-138299998D01*
X188100771Y-138299998D02*
X188196009Y-138252379D01*
X188196009Y-138252379D02*
X188291247Y-138252379D01*
X188291247Y-138252379D02*
X188386485Y-138728569D01*
X188053152Y-137823807D02*
X188719819Y-137823807D01*
X188148390Y-137823807D02*
X188100771Y-137776188D01*
X188100771Y-137776188D02*
X188053152Y-137680950D01*
X188053152Y-137680950D02*
X188053152Y-137538093D01*
X188053152Y-137538093D02*
X188100771Y-137442855D01*
X188100771Y-137442855D02*
X188196009Y-137395236D01*
X188196009Y-137395236D02*
X188719819Y-137395236D01*
X188719819Y-136347617D02*
X188243628Y-136680950D01*
X188719819Y-136919045D02*
X187719819Y-136919045D01*
X187719819Y-136919045D02*
X187719819Y-136538093D01*
X187719819Y-136538093D02*
X187767438Y-136442855D01*
X187767438Y-136442855D02*
X187815057Y-136395236D01*
X187815057Y-136395236D02*
X187910295Y-136347617D01*
X187910295Y-136347617D02*
X188053152Y-136347617D01*
X188053152Y-136347617D02*
X188148390Y-136395236D01*
X188148390Y-136395236D02*
X188196009Y-136442855D01*
X188196009Y-136442855D02*
X188243628Y-136538093D01*
X188243628Y-136538093D02*
X188243628Y-136919045D01*
X187719819Y-135919045D02*
X188529342Y-135919045D01*
X188529342Y-135919045D02*
X188624580Y-135871426D01*
X188624580Y-135871426D02*
X188672200Y-135823807D01*
X188672200Y-135823807D02*
X188719819Y-135728569D01*
X188719819Y-135728569D02*
X188719819Y-135538093D01*
X188719819Y-135538093D02*
X188672200Y-135442855D01*
X188672200Y-135442855D02*
X188624580Y-135395236D01*
X188624580Y-135395236D02*
X188529342Y-135347617D01*
X188529342Y-135347617D02*
X187719819Y-135347617D01*
X189806009Y-158157144D02*
X189853628Y-158014287D01*
X189853628Y-158014287D02*
X189901247Y-157966668D01*
X189901247Y-157966668D02*
X189996485Y-157919049D01*
X189996485Y-157919049D02*
X190139342Y-157919049D01*
X190139342Y-157919049D02*
X190234580Y-157966668D01*
X190234580Y-157966668D02*
X190282200Y-158014287D01*
X190282200Y-158014287D02*
X190329819Y-158109525D01*
X190329819Y-158109525D02*
X190329819Y-158490477D01*
X190329819Y-158490477D02*
X189329819Y-158490477D01*
X189329819Y-158490477D02*
X189329819Y-158157144D01*
X189329819Y-158157144D02*
X189377438Y-158061906D01*
X189377438Y-158061906D02*
X189425057Y-158014287D01*
X189425057Y-158014287D02*
X189520295Y-157966668D01*
X189520295Y-157966668D02*
X189615533Y-157966668D01*
X189615533Y-157966668D02*
X189710771Y-158014287D01*
X189710771Y-158014287D02*
X189758390Y-158061906D01*
X189758390Y-158061906D02*
X189806009Y-158157144D01*
X189806009Y-158157144D02*
X189806009Y-158490477D01*
X190329819Y-157490477D02*
X189663152Y-157490477D01*
X189329819Y-157490477D02*
X189377438Y-157538096D01*
X189377438Y-157538096D02*
X189425057Y-157490477D01*
X189425057Y-157490477D02*
X189377438Y-157442858D01*
X189377438Y-157442858D02*
X189329819Y-157490477D01*
X189329819Y-157490477D02*
X189425057Y-157490477D01*
X189663152Y-156585716D02*
X190472676Y-156585716D01*
X190472676Y-156585716D02*
X190567914Y-156633335D01*
X190567914Y-156633335D02*
X190615533Y-156680954D01*
X190615533Y-156680954D02*
X190663152Y-156776192D01*
X190663152Y-156776192D02*
X190663152Y-156919049D01*
X190663152Y-156919049D02*
X190615533Y-157014287D01*
X190282200Y-156585716D02*
X190329819Y-156680954D01*
X190329819Y-156680954D02*
X190329819Y-156871430D01*
X190329819Y-156871430D02*
X190282200Y-156966668D01*
X190282200Y-156966668D02*
X190234580Y-157014287D01*
X190234580Y-157014287D02*
X190139342Y-157061906D01*
X190139342Y-157061906D02*
X189853628Y-157061906D01*
X189853628Y-157061906D02*
X189758390Y-157014287D01*
X189758390Y-157014287D02*
X189710771Y-156966668D01*
X189710771Y-156966668D02*
X189663152Y-156871430D01*
X189663152Y-156871430D02*
X189663152Y-156680954D01*
X189663152Y-156680954D02*
X189710771Y-156585716D01*
X189663152Y-155490477D02*
X189663152Y-155109525D01*
X189329819Y-155347620D02*
X190186961Y-155347620D01*
X190186961Y-155347620D02*
X190282200Y-155300001D01*
X190282200Y-155300001D02*
X190329819Y-155204763D01*
X190329819Y-155204763D02*
X190329819Y-155109525D01*
X190329819Y-154776191D02*
X189329819Y-154776191D01*
X190329819Y-154347620D02*
X189806009Y-154347620D01*
X189806009Y-154347620D02*
X189710771Y-154395239D01*
X189710771Y-154395239D02*
X189663152Y-154490477D01*
X189663152Y-154490477D02*
X189663152Y-154633334D01*
X189663152Y-154633334D02*
X189710771Y-154728572D01*
X189710771Y-154728572D02*
X189758390Y-154776191D01*
X190329819Y-153442858D02*
X189806009Y-153442858D01*
X189806009Y-153442858D02*
X189710771Y-153490477D01*
X189710771Y-153490477D02*
X189663152Y-153585715D01*
X189663152Y-153585715D02*
X189663152Y-153776191D01*
X189663152Y-153776191D02*
X189710771Y-153871429D01*
X190282200Y-153442858D02*
X190329819Y-153538096D01*
X190329819Y-153538096D02*
X190329819Y-153776191D01*
X190329819Y-153776191D02*
X190282200Y-153871429D01*
X190282200Y-153871429D02*
X190186961Y-153919048D01*
X190186961Y-153919048D02*
X190091723Y-153919048D01*
X190091723Y-153919048D02*
X189996485Y-153871429D01*
X189996485Y-153871429D02*
X189948866Y-153776191D01*
X189948866Y-153776191D02*
X189948866Y-153538096D01*
X189948866Y-153538096D02*
X189901247Y-153442858D01*
X189663152Y-152966667D02*
X190329819Y-152966667D01*
X189758390Y-152966667D02*
X189710771Y-152919048D01*
X189710771Y-152919048D02*
X189663152Y-152823810D01*
X189663152Y-152823810D02*
X189663152Y-152680953D01*
X189663152Y-152680953D02*
X189710771Y-152585715D01*
X189710771Y-152585715D02*
X189806009Y-152538096D01*
X189806009Y-152538096D02*
X190329819Y-152538096D01*
X190329819Y-152061905D02*
X189329819Y-152061905D01*
X189948866Y-151966667D02*
X190329819Y-151680953D01*
X189663152Y-151680953D02*
X190044104Y-152061905D01*
X190282200Y-151300000D02*
X190329819Y-151204762D01*
X190329819Y-151204762D02*
X190329819Y-151014286D01*
X190329819Y-151014286D02*
X190282200Y-150919048D01*
X190282200Y-150919048D02*
X190186961Y-150871429D01*
X190186961Y-150871429D02*
X190139342Y-150871429D01*
X190139342Y-150871429D02*
X190044104Y-150919048D01*
X190044104Y-150919048D02*
X189996485Y-151014286D01*
X189996485Y-151014286D02*
X189996485Y-151157143D01*
X189996485Y-151157143D02*
X189948866Y-151252381D01*
X189948866Y-151252381D02*
X189853628Y-151300000D01*
X189853628Y-151300000D02*
X189806009Y-151300000D01*
X189806009Y-151300000D02*
X189710771Y-151252381D01*
X189710771Y-151252381D02*
X189663152Y-151157143D01*
X189663152Y-151157143D02*
X189663152Y-151014286D01*
X189663152Y-151014286D02*
X189710771Y-150919048D01*
X189663152Y-149823809D02*
X189663152Y-149442857D01*
X189329819Y-149680952D02*
X190186961Y-149680952D01*
X190186961Y-149680952D02*
X190282200Y-149633333D01*
X190282200Y-149633333D02*
X190329819Y-149538095D01*
X190329819Y-149538095D02*
X190329819Y-149442857D01*
X190329819Y-148966666D02*
X190282200Y-149061904D01*
X190282200Y-149061904D02*
X190234580Y-149109523D01*
X190234580Y-149109523D02*
X190139342Y-149157142D01*
X190139342Y-149157142D02*
X189853628Y-149157142D01*
X189853628Y-149157142D02*
X189758390Y-149109523D01*
X189758390Y-149109523D02*
X189710771Y-149061904D01*
X189710771Y-149061904D02*
X189663152Y-148966666D01*
X189663152Y-148966666D02*
X189663152Y-148823809D01*
X189663152Y-148823809D02*
X189710771Y-148728571D01*
X189710771Y-148728571D02*
X189758390Y-148680952D01*
X189758390Y-148680952D02*
X189853628Y-148633333D01*
X189853628Y-148633333D02*
X190139342Y-148633333D01*
X190139342Y-148633333D02*
X190234580Y-148680952D01*
X190234580Y-148680952D02*
X190282200Y-148728571D01*
X190282200Y-148728571D02*
X190329819Y-148823809D01*
X190329819Y-148823809D02*
X190329819Y-148966666D01*
X189806009Y-147442856D02*
X189806009Y-147109523D01*
X190329819Y-146966666D02*
X190329819Y-147442856D01*
X190329819Y-147442856D02*
X189329819Y-147442856D01*
X189329819Y-147442856D02*
X189329819Y-146966666D01*
X189663152Y-146633332D02*
X190329819Y-146395237D01*
X190329819Y-146395237D02*
X189663152Y-146157142D01*
X189663152Y-145347618D02*
X190472676Y-145347618D01*
X190472676Y-145347618D02*
X190567914Y-145395237D01*
X190567914Y-145395237D02*
X190615533Y-145442856D01*
X190615533Y-145442856D02*
X190663152Y-145538094D01*
X190663152Y-145538094D02*
X190663152Y-145680951D01*
X190663152Y-145680951D02*
X190615533Y-145776189D01*
X190282200Y-145347618D02*
X190329819Y-145442856D01*
X190329819Y-145442856D02*
X190329819Y-145633332D01*
X190329819Y-145633332D02*
X190282200Y-145728570D01*
X190282200Y-145728570D02*
X190234580Y-145776189D01*
X190234580Y-145776189D02*
X190139342Y-145823808D01*
X190139342Y-145823808D02*
X189853628Y-145823808D01*
X189853628Y-145823808D02*
X189758390Y-145776189D01*
X189758390Y-145776189D02*
X189710771Y-145728570D01*
X189710771Y-145728570D02*
X189663152Y-145633332D01*
X189663152Y-145633332D02*
X189663152Y-145442856D01*
X189663152Y-145442856D02*
X189710771Y-145347618D01*
X190282200Y-144490475D02*
X190329819Y-144585713D01*
X190329819Y-144585713D02*
X190329819Y-144776189D01*
X190329819Y-144776189D02*
X190282200Y-144871427D01*
X190282200Y-144871427D02*
X190186961Y-144919046D01*
X190186961Y-144919046D02*
X189806009Y-144919046D01*
X189806009Y-144919046D02*
X189710771Y-144871427D01*
X189710771Y-144871427D02*
X189663152Y-144776189D01*
X189663152Y-144776189D02*
X189663152Y-144585713D01*
X189663152Y-144585713D02*
X189710771Y-144490475D01*
X189710771Y-144490475D02*
X189806009Y-144442856D01*
X189806009Y-144442856D02*
X189901247Y-144442856D01*
X189901247Y-144442856D02*
X189996485Y-144919046D01*
X189663152Y-144014284D02*
X190329819Y-144014284D01*
X189758390Y-144014284D02*
X189710771Y-143966665D01*
X189710771Y-143966665D02*
X189663152Y-143871427D01*
X189663152Y-143871427D02*
X189663152Y-143728570D01*
X189663152Y-143728570D02*
X189710771Y-143633332D01*
X189710771Y-143633332D02*
X189806009Y-143585713D01*
X189806009Y-143585713D02*
X190329819Y-143585713D01*
X190329819Y-143109522D02*
X189663152Y-143109522D01*
X189329819Y-143109522D02*
X189377438Y-143157141D01*
X189377438Y-143157141D02*
X189425057Y-143109522D01*
X189425057Y-143109522D02*
X189377438Y-143061903D01*
X189377438Y-143061903D02*
X189329819Y-143109522D01*
X189329819Y-143109522D02*
X189425057Y-143109522D01*
X189663152Y-142728570D02*
X190329819Y-142490475D01*
X189663152Y-142252380D02*
X190329819Y-142490475D01*
X190329819Y-142490475D02*
X190567914Y-142585713D01*
X190567914Y-142585713D02*
X190615533Y-142633332D01*
X190615533Y-142633332D02*
X190663152Y-142728570D01*
X189329819Y-141109522D02*
X190139342Y-141109522D01*
X190139342Y-141109522D02*
X190234580Y-141061903D01*
X190234580Y-141061903D02*
X190282200Y-141014284D01*
X190282200Y-141014284D02*
X190329819Y-140919046D01*
X190329819Y-140919046D02*
X190329819Y-140728570D01*
X190329819Y-140728570D02*
X190282200Y-140633332D01*
X190282200Y-140633332D02*
X190234580Y-140585713D01*
X190234580Y-140585713D02*
X190139342Y-140538094D01*
X190139342Y-140538094D02*
X189329819Y-140538094D01*
X189663152Y-139633332D02*
X190472676Y-139633332D01*
X190472676Y-139633332D02*
X190567914Y-139680951D01*
X190567914Y-139680951D02*
X190615533Y-139728570D01*
X190615533Y-139728570D02*
X190663152Y-139823808D01*
X190663152Y-139823808D02*
X190663152Y-139966665D01*
X190663152Y-139966665D02*
X190615533Y-140061903D01*
X190282200Y-139633332D02*
X190329819Y-139728570D01*
X190329819Y-139728570D02*
X190329819Y-139919046D01*
X190329819Y-139919046D02*
X190282200Y-140014284D01*
X190282200Y-140014284D02*
X190234580Y-140061903D01*
X190234580Y-140061903D02*
X190139342Y-140109522D01*
X190139342Y-140109522D02*
X189853628Y-140109522D01*
X189853628Y-140109522D02*
X189758390Y-140061903D01*
X189758390Y-140061903D02*
X189710771Y-140014284D01*
X189710771Y-140014284D02*
X189663152Y-139919046D01*
X189663152Y-139919046D02*
X189663152Y-139728570D01*
X189663152Y-139728570D02*
X189710771Y-139633332D01*
X190329819Y-139157141D02*
X189663152Y-139157141D01*
X189853628Y-139157141D02*
X189758390Y-139109522D01*
X189758390Y-139109522D02*
X189710771Y-139061903D01*
X189710771Y-139061903D02*
X189663152Y-138966665D01*
X189663152Y-138966665D02*
X189663152Y-138871427D01*
X189663152Y-138633331D02*
X190329819Y-138395236D01*
X189663152Y-138157141D02*
X190329819Y-138395236D01*
X190329819Y-138395236D02*
X190567914Y-138490474D01*
X190567914Y-138490474D02*
X190615533Y-138538093D01*
X190615533Y-138538093D02*
X190663152Y-138633331D01*
X189663152Y-137347617D02*
X190329819Y-137347617D01*
X189663152Y-137776188D02*
X190186961Y-137776188D01*
X190186961Y-137776188D02*
X190282200Y-137728569D01*
X190282200Y-137728569D02*
X190329819Y-137633331D01*
X190329819Y-137633331D02*
X190329819Y-137490474D01*
X190329819Y-137490474D02*
X190282200Y-137395236D01*
X190282200Y-137395236D02*
X190234580Y-137347617D01*
X190329819Y-136871426D02*
X189663152Y-136871426D01*
X189758390Y-136871426D02*
X189710771Y-136823807D01*
X189710771Y-136823807D02*
X189663152Y-136728569D01*
X189663152Y-136728569D02*
X189663152Y-136585712D01*
X189663152Y-136585712D02*
X189710771Y-136490474D01*
X189710771Y-136490474D02*
X189806009Y-136442855D01*
X189806009Y-136442855D02*
X190329819Y-136442855D01*
X189806009Y-136442855D02*
X189710771Y-136395236D01*
X189710771Y-136395236D02*
X189663152Y-136299998D01*
X189663152Y-136299998D02*
X189663152Y-136157141D01*
X189663152Y-136157141D02*
X189710771Y-136061902D01*
X189710771Y-136061902D02*
X189806009Y-136014283D01*
X189806009Y-136014283D02*
X190329819Y-136014283D01*
X190329819Y-135395236D02*
X190282200Y-135490474D01*
X190282200Y-135490474D02*
X190234580Y-135538093D01*
X190234580Y-135538093D02*
X190139342Y-135585712D01*
X190139342Y-135585712D02*
X189853628Y-135585712D01*
X189853628Y-135585712D02*
X189758390Y-135538093D01*
X189758390Y-135538093D02*
X189710771Y-135490474D01*
X189710771Y-135490474D02*
X189663152Y-135395236D01*
X189663152Y-135395236D02*
X189663152Y-135252379D01*
X189663152Y-135252379D02*
X189710771Y-135157141D01*
X189710771Y-135157141D02*
X189758390Y-135109522D01*
X189758390Y-135109522D02*
X189853628Y-135061903D01*
X189853628Y-135061903D02*
X190139342Y-135061903D01*
X190139342Y-135061903D02*
X190234580Y-135109522D01*
X190234580Y-135109522D02*
X190282200Y-135157141D01*
X190282200Y-135157141D02*
X190329819Y-135252379D01*
X190329819Y-135252379D02*
X190329819Y-135395236D01*
X189663152Y-134728569D02*
X190329819Y-134490474D01*
X190329819Y-134490474D02*
X189663152Y-134252379D01*
X190282200Y-133823807D02*
X190329819Y-133823807D01*
X190329819Y-133823807D02*
X190425057Y-133871426D01*
X190425057Y-133871426D02*
X190472676Y-133919045D01*
X191939819Y-159133336D02*
X191463628Y-159466669D01*
X191939819Y-159704764D02*
X190939819Y-159704764D01*
X190939819Y-159704764D02*
X190939819Y-159323812D01*
X190939819Y-159323812D02*
X190987438Y-159228574D01*
X190987438Y-159228574D02*
X191035057Y-159180955D01*
X191035057Y-159180955D02*
X191130295Y-159133336D01*
X191130295Y-159133336D02*
X191273152Y-159133336D01*
X191273152Y-159133336D02*
X191368390Y-159180955D01*
X191368390Y-159180955D02*
X191416009Y-159228574D01*
X191416009Y-159228574D02*
X191463628Y-159323812D01*
X191463628Y-159323812D02*
X191463628Y-159704764D01*
X191939819Y-158276193D02*
X191416009Y-158276193D01*
X191416009Y-158276193D02*
X191320771Y-158323812D01*
X191320771Y-158323812D02*
X191273152Y-158419050D01*
X191273152Y-158419050D02*
X191273152Y-158609526D01*
X191273152Y-158609526D02*
X191320771Y-158704764D01*
X191892200Y-158276193D02*
X191939819Y-158371431D01*
X191939819Y-158371431D02*
X191939819Y-158609526D01*
X191939819Y-158609526D02*
X191892200Y-158704764D01*
X191892200Y-158704764D02*
X191796961Y-158752383D01*
X191796961Y-158752383D02*
X191701723Y-158752383D01*
X191701723Y-158752383D02*
X191606485Y-158704764D01*
X191606485Y-158704764D02*
X191558866Y-158609526D01*
X191558866Y-158609526D02*
X191558866Y-158371431D01*
X191558866Y-158371431D02*
X191511247Y-158276193D01*
X191939819Y-157800002D02*
X190939819Y-157800002D01*
X191939819Y-157371431D02*
X191416009Y-157371431D01*
X191416009Y-157371431D02*
X191320771Y-157419050D01*
X191320771Y-157419050D02*
X191273152Y-157514288D01*
X191273152Y-157514288D02*
X191273152Y-157657145D01*
X191273152Y-157657145D02*
X191320771Y-157752383D01*
X191320771Y-157752383D02*
X191368390Y-157800002D01*
X191939819Y-156752383D02*
X191892200Y-156847621D01*
X191892200Y-156847621D02*
X191844580Y-156895240D01*
X191844580Y-156895240D02*
X191749342Y-156942859D01*
X191749342Y-156942859D02*
X191463628Y-156942859D01*
X191463628Y-156942859D02*
X191368390Y-156895240D01*
X191368390Y-156895240D02*
X191320771Y-156847621D01*
X191320771Y-156847621D02*
X191273152Y-156752383D01*
X191273152Y-156752383D02*
X191273152Y-156609526D01*
X191273152Y-156609526D02*
X191320771Y-156514288D01*
X191320771Y-156514288D02*
X191368390Y-156466669D01*
X191368390Y-156466669D02*
X191463628Y-156419050D01*
X191463628Y-156419050D02*
X191749342Y-156419050D01*
X191749342Y-156419050D02*
X191844580Y-156466669D01*
X191844580Y-156466669D02*
X191892200Y-156514288D01*
X191892200Y-156514288D02*
X191939819Y-156609526D01*
X191939819Y-156609526D02*
X191939819Y-156752383D01*
X191892200Y-156038097D02*
X191939819Y-155942859D01*
X191939819Y-155942859D02*
X191939819Y-155752383D01*
X191939819Y-155752383D02*
X191892200Y-155657145D01*
X191892200Y-155657145D02*
X191796961Y-155609526D01*
X191796961Y-155609526D02*
X191749342Y-155609526D01*
X191749342Y-155609526D02*
X191654104Y-155657145D01*
X191654104Y-155657145D02*
X191606485Y-155752383D01*
X191606485Y-155752383D02*
X191606485Y-155895240D01*
X191606485Y-155895240D02*
X191558866Y-155990478D01*
X191558866Y-155990478D02*
X191463628Y-156038097D01*
X191463628Y-156038097D02*
X191416009Y-156038097D01*
X191416009Y-156038097D02*
X191320771Y-155990478D01*
X191320771Y-155990478D02*
X191273152Y-155895240D01*
X191273152Y-155895240D02*
X191273152Y-155752383D01*
X191273152Y-155752383D02*
X191320771Y-155657145D01*
X191273152Y-155323811D02*
X191273152Y-154942859D01*
X190939819Y-155180954D02*
X191796961Y-155180954D01*
X191796961Y-155180954D02*
X191892200Y-155133335D01*
X191892200Y-155133335D02*
X191939819Y-155038097D01*
X191939819Y-155038097D02*
X191939819Y-154942859D01*
X191892200Y-154561906D02*
X191939819Y-154561906D01*
X191939819Y-154561906D02*
X192035057Y-154609525D01*
X192035057Y-154609525D02*
X192082676Y-154657144D01*
X191654104Y-153419049D02*
X191654104Y-152942859D01*
X191939819Y-153514287D02*
X190939819Y-153180954D01*
X190939819Y-153180954D02*
X191939819Y-152847621D01*
X191939819Y-152371430D02*
X191892200Y-152466668D01*
X191892200Y-152466668D02*
X191796961Y-152514287D01*
X191796961Y-152514287D02*
X190939819Y-152514287D01*
X191892200Y-151609525D02*
X191939819Y-151704763D01*
X191939819Y-151704763D02*
X191939819Y-151895239D01*
X191939819Y-151895239D02*
X191892200Y-151990477D01*
X191892200Y-151990477D02*
X191796961Y-152038096D01*
X191796961Y-152038096D02*
X191416009Y-152038096D01*
X191416009Y-152038096D02*
X191320771Y-151990477D01*
X191320771Y-151990477D02*
X191273152Y-151895239D01*
X191273152Y-151895239D02*
X191273152Y-151704763D01*
X191273152Y-151704763D02*
X191320771Y-151609525D01*
X191320771Y-151609525D02*
X191416009Y-151561906D01*
X191416009Y-151561906D02*
X191511247Y-151561906D01*
X191511247Y-151561906D02*
X191606485Y-152038096D01*
X191939819Y-151228572D02*
X191273152Y-150704763D01*
X191273152Y-151228572D02*
X191939819Y-150704763D01*
X192035057Y-150561906D02*
X192035057Y-149800001D01*
X191939819Y-148990477D02*
X191463628Y-149323810D01*
X191939819Y-149561905D02*
X190939819Y-149561905D01*
X190939819Y-149561905D02*
X190939819Y-149180953D01*
X190939819Y-149180953D02*
X190987438Y-149085715D01*
X190987438Y-149085715D02*
X191035057Y-149038096D01*
X191035057Y-149038096D02*
X191130295Y-148990477D01*
X191130295Y-148990477D02*
X191273152Y-148990477D01*
X191273152Y-148990477D02*
X191368390Y-149038096D01*
X191368390Y-149038096D02*
X191416009Y-149085715D01*
X191416009Y-149085715D02*
X191463628Y-149180953D01*
X191463628Y-149180953D02*
X191463628Y-149561905D01*
X191939819Y-148133334D02*
X191416009Y-148133334D01*
X191416009Y-148133334D02*
X191320771Y-148180953D01*
X191320771Y-148180953D02*
X191273152Y-148276191D01*
X191273152Y-148276191D02*
X191273152Y-148466667D01*
X191273152Y-148466667D02*
X191320771Y-148561905D01*
X191892200Y-148133334D02*
X191939819Y-148228572D01*
X191939819Y-148228572D02*
X191939819Y-148466667D01*
X191939819Y-148466667D02*
X191892200Y-148561905D01*
X191892200Y-148561905D02*
X191796961Y-148609524D01*
X191796961Y-148609524D02*
X191701723Y-148609524D01*
X191701723Y-148609524D02*
X191606485Y-148561905D01*
X191606485Y-148561905D02*
X191558866Y-148466667D01*
X191558866Y-148466667D02*
X191558866Y-148228572D01*
X191558866Y-148228572D02*
X191511247Y-148133334D01*
X191273152Y-147228572D02*
X191939819Y-147228572D01*
X191273152Y-147657143D02*
X191796961Y-147657143D01*
X191796961Y-147657143D02*
X191892200Y-147609524D01*
X191892200Y-147609524D02*
X191939819Y-147514286D01*
X191939819Y-147514286D02*
X191939819Y-147371429D01*
X191939819Y-147371429D02*
X191892200Y-147276191D01*
X191892200Y-147276191D02*
X191844580Y-147228572D01*
X191892200Y-146323810D02*
X191939819Y-146419048D01*
X191939819Y-146419048D02*
X191939819Y-146609524D01*
X191939819Y-146609524D02*
X191892200Y-146704762D01*
X191892200Y-146704762D02*
X191844580Y-146752381D01*
X191844580Y-146752381D02*
X191749342Y-146800000D01*
X191749342Y-146800000D02*
X191463628Y-146800000D01*
X191463628Y-146800000D02*
X191368390Y-146752381D01*
X191368390Y-146752381D02*
X191320771Y-146704762D01*
X191320771Y-146704762D02*
X191273152Y-146609524D01*
X191273152Y-146609524D02*
X191273152Y-146419048D01*
X191273152Y-146419048D02*
X191320771Y-146323810D01*
X191939819Y-145895238D02*
X190939819Y-145895238D01*
X191939819Y-145466667D02*
X191416009Y-145466667D01*
X191416009Y-145466667D02*
X191320771Y-145514286D01*
X191320771Y-145514286D02*
X191273152Y-145609524D01*
X191273152Y-145609524D02*
X191273152Y-145752381D01*
X191273152Y-145752381D02*
X191320771Y-145847619D01*
X191320771Y-145847619D02*
X191368390Y-145895238D01*
X191273152Y-144371428D02*
X191273152Y-143990476D01*
X191939819Y-144228571D02*
X191082676Y-144228571D01*
X191082676Y-144228571D02*
X190987438Y-144180952D01*
X190987438Y-144180952D02*
X190939819Y-144085714D01*
X190939819Y-144085714D02*
X190939819Y-143990476D01*
X191939819Y-143514285D02*
X191892200Y-143609523D01*
X191892200Y-143609523D02*
X191844580Y-143657142D01*
X191844580Y-143657142D02*
X191749342Y-143704761D01*
X191749342Y-143704761D02*
X191463628Y-143704761D01*
X191463628Y-143704761D02*
X191368390Y-143657142D01*
X191368390Y-143657142D02*
X191320771Y-143609523D01*
X191320771Y-143609523D02*
X191273152Y-143514285D01*
X191273152Y-143514285D02*
X191273152Y-143371428D01*
X191273152Y-143371428D02*
X191320771Y-143276190D01*
X191320771Y-143276190D02*
X191368390Y-143228571D01*
X191368390Y-143228571D02*
X191463628Y-143180952D01*
X191463628Y-143180952D02*
X191749342Y-143180952D01*
X191749342Y-143180952D02*
X191844580Y-143228571D01*
X191844580Y-143228571D02*
X191892200Y-143276190D01*
X191892200Y-143276190D02*
X191939819Y-143371428D01*
X191939819Y-143371428D02*
X191939819Y-143514285D01*
X191939819Y-142752380D02*
X191273152Y-142752380D01*
X191463628Y-142752380D02*
X191368390Y-142704761D01*
X191368390Y-142704761D02*
X191320771Y-142657142D01*
X191320771Y-142657142D02*
X191273152Y-142561904D01*
X191273152Y-142561904D02*
X191273152Y-142466666D01*
X191892200Y-141419046D02*
X191939819Y-141323808D01*
X191939819Y-141323808D02*
X191939819Y-141133332D01*
X191939819Y-141133332D02*
X191892200Y-141038094D01*
X191892200Y-141038094D02*
X191796961Y-140990475D01*
X191796961Y-140990475D02*
X191749342Y-140990475D01*
X191749342Y-140990475D02*
X191654104Y-141038094D01*
X191654104Y-141038094D02*
X191606485Y-141133332D01*
X191606485Y-141133332D02*
X191606485Y-141276189D01*
X191606485Y-141276189D02*
X191558866Y-141371427D01*
X191558866Y-141371427D02*
X191463628Y-141419046D01*
X191463628Y-141419046D02*
X191416009Y-141419046D01*
X191416009Y-141419046D02*
X191320771Y-141371427D01*
X191320771Y-141371427D02*
X191273152Y-141276189D01*
X191273152Y-141276189D02*
X191273152Y-141133332D01*
X191273152Y-141133332D02*
X191320771Y-141038094D01*
X191892200Y-140133332D02*
X191939819Y-140228570D01*
X191939819Y-140228570D02*
X191939819Y-140419046D01*
X191939819Y-140419046D02*
X191892200Y-140514284D01*
X191892200Y-140514284D02*
X191844580Y-140561903D01*
X191844580Y-140561903D02*
X191749342Y-140609522D01*
X191749342Y-140609522D02*
X191463628Y-140609522D01*
X191463628Y-140609522D02*
X191368390Y-140561903D01*
X191368390Y-140561903D02*
X191320771Y-140514284D01*
X191320771Y-140514284D02*
X191273152Y-140419046D01*
X191273152Y-140419046D02*
X191273152Y-140228570D01*
X191273152Y-140228570D02*
X191320771Y-140133332D01*
X191939819Y-139704760D02*
X191273152Y-139704760D01*
X191463628Y-139704760D02*
X191368390Y-139657141D01*
X191368390Y-139657141D02*
X191320771Y-139609522D01*
X191320771Y-139609522D02*
X191273152Y-139514284D01*
X191273152Y-139514284D02*
X191273152Y-139419046D01*
X191892200Y-138704760D02*
X191939819Y-138799998D01*
X191939819Y-138799998D02*
X191939819Y-138990474D01*
X191939819Y-138990474D02*
X191892200Y-139085712D01*
X191892200Y-139085712D02*
X191796961Y-139133331D01*
X191796961Y-139133331D02*
X191416009Y-139133331D01*
X191416009Y-139133331D02*
X191320771Y-139085712D01*
X191320771Y-139085712D02*
X191273152Y-138990474D01*
X191273152Y-138990474D02*
X191273152Y-138799998D01*
X191273152Y-138799998D02*
X191320771Y-138704760D01*
X191320771Y-138704760D02*
X191416009Y-138657141D01*
X191416009Y-138657141D02*
X191511247Y-138657141D01*
X191511247Y-138657141D02*
X191606485Y-139133331D01*
X191892200Y-137847617D02*
X191939819Y-137942855D01*
X191939819Y-137942855D02*
X191939819Y-138133331D01*
X191939819Y-138133331D02*
X191892200Y-138228569D01*
X191892200Y-138228569D02*
X191796961Y-138276188D01*
X191796961Y-138276188D02*
X191416009Y-138276188D01*
X191416009Y-138276188D02*
X191320771Y-138228569D01*
X191320771Y-138228569D02*
X191273152Y-138133331D01*
X191273152Y-138133331D02*
X191273152Y-137942855D01*
X191273152Y-137942855D02*
X191320771Y-137847617D01*
X191320771Y-137847617D02*
X191416009Y-137799998D01*
X191416009Y-137799998D02*
X191511247Y-137799998D01*
X191511247Y-137799998D02*
X191606485Y-138276188D01*
X191273152Y-137371426D02*
X191939819Y-137371426D01*
X191368390Y-137371426D02*
X191320771Y-137323807D01*
X191320771Y-137323807D02*
X191273152Y-137228569D01*
X191273152Y-137228569D02*
X191273152Y-137085712D01*
X191273152Y-137085712D02*
X191320771Y-136990474D01*
X191320771Y-136990474D02*
X191416009Y-136942855D01*
X191416009Y-136942855D02*
X191939819Y-136942855D01*
X191273152Y-135847616D02*
X191273152Y-135466664D01*
X191939819Y-135704759D02*
X191082676Y-135704759D01*
X191082676Y-135704759D02*
X190987438Y-135657140D01*
X190987438Y-135657140D02*
X190939819Y-135561902D01*
X190939819Y-135561902D02*
X190939819Y-135466664D01*
X191939819Y-135133330D02*
X191273152Y-135133330D01*
X190939819Y-135133330D02*
X190987438Y-135180949D01*
X190987438Y-135180949D02*
X191035057Y-135133330D01*
X191035057Y-135133330D02*
X190987438Y-135085711D01*
X190987438Y-135085711D02*
X190939819Y-135133330D01*
X190939819Y-135133330D02*
X191035057Y-135133330D01*
X191939819Y-134752378D02*
X191273152Y-134228569D01*
X191273152Y-134752378D02*
X191939819Y-134228569D01*
X191892200Y-133466664D02*
X191939819Y-133561902D01*
X191939819Y-133561902D02*
X191939819Y-133752378D01*
X191939819Y-133752378D02*
X191892200Y-133847616D01*
X191892200Y-133847616D02*
X191796961Y-133895235D01*
X191796961Y-133895235D02*
X191416009Y-133895235D01*
X191416009Y-133895235D02*
X191320771Y-133847616D01*
X191320771Y-133847616D02*
X191273152Y-133752378D01*
X191273152Y-133752378D02*
X191273152Y-133561902D01*
X191273152Y-133561902D02*
X191320771Y-133466664D01*
X191320771Y-133466664D02*
X191416009Y-133419045D01*
X191416009Y-133419045D02*
X191511247Y-133419045D01*
X191511247Y-133419045D02*
X191606485Y-133895235D01*
X191892200Y-133038092D02*
X191939819Y-132942854D01*
X191939819Y-132942854D02*
X191939819Y-132752378D01*
X191939819Y-132752378D02*
X191892200Y-132657140D01*
X191892200Y-132657140D02*
X191796961Y-132609521D01*
X191796961Y-132609521D02*
X191749342Y-132609521D01*
X191749342Y-132609521D02*
X191654104Y-132657140D01*
X191654104Y-132657140D02*
X191606485Y-132752378D01*
X191606485Y-132752378D02*
X191606485Y-132895235D01*
X191606485Y-132895235D02*
X191558866Y-132990473D01*
X191558866Y-132990473D02*
X191463628Y-133038092D01*
X191463628Y-133038092D02*
X191416009Y-133038092D01*
X191416009Y-133038092D02*
X191320771Y-132990473D01*
X191320771Y-132990473D02*
X191273152Y-132895235D01*
X191273152Y-132895235D02*
X191273152Y-132752378D01*
X191273152Y-132752378D02*
X191320771Y-132657140D01*
X193549819Y-155395239D02*
X193026009Y-155395239D01*
X193026009Y-155395239D02*
X192930771Y-155442858D01*
X192930771Y-155442858D02*
X192883152Y-155538096D01*
X192883152Y-155538096D02*
X192883152Y-155728572D01*
X192883152Y-155728572D02*
X192930771Y-155823810D01*
X193502200Y-155395239D02*
X193549819Y-155490477D01*
X193549819Y-155490477D02*
X193549819Y-155728572D01*
X193549819Y-155728572D02*
X193502200Y-155823810D01*
X193502200Y-155823810D02*
X193406961Y-155871429D01*
X193406961Y-155871429D02*
X193311723Y-155871429D01*
X193311723Y-155871429D02*
X193216485Y-155823810D01*
X193216485Y-155823810D02*
X193168866Y-155728572D01*
X193168866Y-155728572D02*
X193168866Y-155490477D01*
X193168866Y-155490477D02*
X193121247Y-155395239D01*
X192883152Y-154919048D02*
X193549819Y-154919048D01*
X192978390Y-154919048D02*
X192930771Y-154871429D01*
X192930771Y-154871429D02*
X192883152Y-154776191D01*
X192883152Y-154776191D02*
X192883152Y-154633334D01*
X192883152Y-154633334D02*
X192930771Y-154538096D01*
X192930771Y-154538096D02*
X193026009Y-154490477D01*
X193026009Y-154490477D02*
X193549819Y-154490477D01*
X193549819Y-153585715D02*
X192549819Y-153585715D01*
X193502200Y-153585715D02*
X193549819Y-153680953D01*
X193549819Y-153680953D02*
X193549819Y-153871429D01*
X193549819Y-153871429D02*
X193502200Y-153966667D01*
X193502200Y-153966667D02*
X193454580Y-154014286D01*
X193454580Y-154014286D02*
X193359342Y-154061905D01*
X193359342Y-154061905D02*
X193073628Y-154061905D01*
X193073628Y-154061905D02*
X192978390Y-154014286D01*
X192978390Y-154014286D02*
X192930771Y-153966667D01*
X192930771Y-153966667D02*
X192883152Y-153871429D01*
X192883152Y-153871429D02*
X192883152Y-153680953D01*
X192883152Y-153680953D02*
X192930771Y-153585715D01*
X192883152Y-152490476D02*
X192883152Y-152109524D01*
X193549819Y-152347619D02*
X192692676Y-152347619D01*
X192692676Y-152347619D02*
X192597438Y-152300000D01*
X192597438Y-152300000D02*
X192549819Y-152204762D01*
X192549819Y-152204762D02*
X192549819Y-152109524D01*
X193549819Y-151776190D02*
X192883152Y-151776190D01*
X192549819Y-151776190D02*
X192597438Y-151823809D01*
X192597438Y-151823809D02*
X192645057Y-151776190D01*
X192645057Y-151776190D02*
X192597438Y-151728571D01*
X192597438Y-151728571D02*
X192549819Y-151776190D01*
X192549819Y-151776190D02*
X192645057Y-151776190D01*
X193549819Y-151300000D02*
X192883152Y-151300000D01*
X193073628Y-151300000D02*
X192978390Y-151252381D01*
X192978390Y-151252381D02*
X192930771Y-151204762D01*
X192930771Y-151204762D02*
X192883152Y-151109524D01*
X192883152Y-151109524D02*
X192883152Y-151014286D01*
X193549819Y-150680952D02*
X192883152Y-150680952D01*
X192978390Y-150680952D02*
X192930771Y-150633333D01*
X192930771Y-150633333D02*
X192883152Y-150538095D01*
X192883152Y-150538095D02*
X192883152Y-150395238D01*
X192883152Y-150395238D02*
X192930771Y-150300000D01*
X192930771Y-150300000D02*
X193026009Y-150252381D01*
X193026009Y-150252381D02*
X193549819Y-150252381D01*
X193026009Y-150252381D02*
X192930771Y-150204762D01*
X192930771Y-150204762D02*
X192883152Y-150109524D01*
X192883152Y-150109524D02*
X192883152Y-149966667D01*
X192883152Y-149966667D02*
X192930771Y-149871428D01*
X192930771Y-149871428D02*
X193026009Y-149823809D01*
X193026009Y-149823809D02*
X193549819Y-149823809D01*
X192883152Y-149442857D02*
X193549819Y-149252381D01*
X193549819Y-149252381D02*
X193073628Y-149061905D01*
X193073628Y-149061905D02*
X193549819Y-148871429D01*
X193549819Y-148871429D02*
X192883152Y-148680953D01*
X193549819Y-147871429D02*
X193026009Y-147871429D01*
X193026009Y-147871429D02*
X192930771Y-147919048D01*
X192930771Y-147919048D02*
X192883152Y-148014286D01*
X192883152Y-148014286D02*
X192883152Y-148204762D01*
X192883152Y-148204762D02*
X192930771Y-148300000D01*
X193502200Y-147871429D02*
X193549819Y-147966667D01*
X193549819Y-147966667D02*
X193549819Y-148204762D01*
X193549819Y-148204762D02*
X193502200Y-148300000D01*
X193502200Y-148300000D02*
X193406961Y-148347619D01*
X193406961Y-148347619D02*
X193311723Y-148347619D01*
X193311723Y-148347619D02*
X193216485Y-148300000D01*
X193216485Y-148300000D02*
X193168866Y-148204762D01*
X193168866Y-148204762D02*
X193168866Y-147966667D01*
X193168866Y-147966667D02*
X193121247Y-147871429D01*
X193549819Y-147395238D02*
X192883152Y-147395238D01*
X193073628Y-147395238D02*
X192978390Y-147347619D01*
X192978390Y-147347619D02*
X192930771Y-147300000D01*
X192930771Y-147300000D02*
X192883152Y-147204762D01*
X192883152Y-147204762D02*
X192883152Y-147109524D01*
X193502200Y-146395238D02*
X193549819Y-146490476D01*
X193549819Y-146490476D02*
X193549819Y-146680952D01*
X193549819Y-146680952D02*
X193502200Y-146776190D01*
X193502200Y-146776190D02*
X193406961Y-146823809D01*
X193406961Y-146823809D02*
X193026009Y-146823809D01*
X193026009Y-146823809D02*
X192930771Y-146776190D01*
X192930771Y-146776190D02*
X192883152Y-146680952D01*
X192883152Y-146680952D02*
X192883152Y-146490476D01*
X192883152Y-146490476D02*
X192930771Y-146395238D01*
X192930771Y-146395238D02*
X193026009Y-146347619D01*
X193026009Y-146347619D02*
X193121247Y-146347619D01*
X193121247Y-146347619D02*
X193216485Y-146823809D01*
X193549819Y-144728571D02*
X192549819Y-144728571D01*
X193502200Y-144728571D02*
X193549819Y-144823809D01*
X193549819Y-144823809D02*
X193549819Y-145014285D01*
X193549819Y-145014285D02*
X193502200Y-145109523D01*
X193502200Y-145109523D02*
X193454580Y-145157142D01*
X193454580Y-145157142D02*
X193359342Y-145204761D01*
X193359342Y-145204761D02*
X193073628Y-145204761D01*
X193073628Y-145204761D02*
X192978390Y-145157142D01*
X192978390Y-145157142D02*
X192930771Y-145109523D01*
X192930771Y-145109523D02*
X192883152Y-145014285D01*
X192883152Y-145014285D02*
X192883152Y-144823809D01*
X192883152Y-144823809D02*
X192930771Y-144728571D01*
X193502200Y-143871428D02*
X193549819Y-143966666D01*
X193549819Y-143966666D02*
X193549819Y-144157142D01*
X193549819Y-144157142D02*
X193502200Y-144252380D01*
X193502200Y-144252380D02*
X193406961Y-144299999D01*
X193406961Y-144299999D02*
X193026009Y-144299999D01*
X193026009Y-144299999D02*
X192930771Y-144252380D01*
X192930771Y-144252380D02*
X192883152Y-144157142D01*
X192883152Y-144157142D02*
X192883152Y-143966666D01*
X192883152Y-143966666D02*
X192930771Y-143871428D01*
X192930771Y-143871428D02*
X193026009Y-143823809D01*
X193026009Y-143823809D02*
X193121247Y-143823809D01*
X193121247Y-143823809D02*
X193216485Y-144299999D01*
X192883152Y-143490475D02*
X193549819Y-143252380D01*
X193549819Y-143252380D02*
X192883152Y-143014285D01*
X193502200Y-142252380D02*
X193549819Y-142347618D01*
X193549819Y-142347618D02*
X193549819Y-142538094D01*
X193549819Y-142538094D02*
X193502200Y-142633332D01*
X193502200Y-142633332D02*
X193406961Y-142680951D01*
X193406961Y-142680951D02*
X193026009Y-142680951D01*
X193026009Y-142680951D02*
X192930771Y-142633332D01*
X192930771Y-142633332D02*
X192883152Y-142538094D01*
X192883152Y-142538094D02*
X192883152Y-142347618D01*
X192883152Y-142347618D02*
X192930771Y-142252380D01*
X192930771Y-142252380D02*
X193026009Y-142204761D01*
X193026009Y-142204761D02*
X193121247Y-142204761D01*
X193121247Y-142204761D02*
X193216485Y-142680951D01*
X193549819Y-141633332D02*
X193502200Y-141728570D01*
X193502200Y-141728570D02*
X193406961Y-141776189D01*
X193406961Y-141776189D02*
X192549819Y-141776189D01*
X193549819Y-141109522D02*
X193502200Y-141204760D01*
X193502200Y-141204760D02*
X193454580Y-141252379D01*
X193454580Y-141252379D02*
X193359342Y-141299998D01*
X193359342Y-141299998D02*
X193073628Y-141299998D01*
X193073628Y-141299998D02*
X192978390Y-141252379D01*
X192978390Y-141252379D02*
X192930771Y-141204760D01*
X192930771Y-141204760D02*
X192883152Y-141109522D01*
X192883152Y-141109522D02*
X192883152Y-140966665D01*
X192883152Y-140966665D02*
X192930771Y-140871427D01*
X192930771Y-140871427D02*
X192978390Y-140823808D01*
X192978390Y-140823808D02*
X193073628Y-140776189D01*
X193073628Y-140776189D02*
X193359342Y-140776189D01*
X193359342Y-140776189D02*
X193454580Y-140823808D01*
X193454580Y-140823808D02*
X193502200Y-140871427D01*
X193502200Y-140871427D02*
X193549819Y-140966665D01*
X193549819Y-140966665D02*
X193549819Y-141109522D01*
X192883152Y-140347617D02*
X193883152Y-140347617D01*
X192930771Y-140347617D02*
X192883152Y-140252379D01*
X192883152Y-140252379D02*
X192883152Y-140061903D01*
X192883152Y-140061903D02*
X192930771Y-139966665D01*
X192930771Y-139966665D02*
X192978390Y-139919046D01*
X192978390Y-139919046D02*
X193073628Y-139871427D01*
X193073628Y-139871427D02*
X193359342Y-139871427D01*
X193359342Y-139871427D02*
X193454580Y-139919046D01*
X193454580Y-139919046D02*
X193502200Y-139966665D01*
X193502200Y-139966665D02*
X193549819Y-140061903D01*
X193549819Y-140061903D02*
X193549819Y-140252379D01*
X193549819Y-140252379D02*
X193502200Y-140347617D01*
X193549819Y-139442855D02*
X192883152Y-139442855D01*
X192978390Y-139442855D02*
X192930771Y-139395236D01*
X192930771Y-139395236D02*
X192883152Y-139299998D01*
X192883152Y-139299998D02*
X192883152Y-139157141D01*
X192883152Y-139157141D02*
X192930771Y-139061903D01*
X192930771Y-139061903D02*
X193026009Y-139014284D01*
X193026009Y-139014284D02*
X193549819Y-139014284D01*
X193026009Y-139014284D02*
X192930771Y-138966665D01*
X192930771Y-138966665D02*
X192883152Y-138871427D01*
X192883152Y-138871427D02*
X192883152Y-138728570D01*
X192883152Y-138728570D02*
X192930771Y-138633331D01*
X192930771Y-138633331D02*
X193026009Y-138585712D01*
X193026009Y-138585712D02*
X193549819Y-138585712D01*
X193502200Y-137728570D02*
X193549819Y-137823808D01*
X193549819Y-137823808D02*
X193549819Y-138014284D01*
X193549819Y-138014284D02*
X193502200Y-138109522D01*
X193502200Y-138109522D02*
X193406961Y-138157141D01*
X193406961Y-138157141D02*
X193026009Y-138157141D01*
X193026009Y-138157141D02*
X192930771Y-138109522D01*
X192930771Y-138109522D02*
X192883152Y-138014284D01*
X192883152Y-138014284D02*
X192883152Y-137823808D01*
X192883152Y-137823808D02*
X192930771Y-137728570D01*
X192930771Y-137728570D02*
X193026009Y-137680951D01*
X193026009Y-137680951D02*
X193121247Y-137680951D01*
X193121247Y-137680951D02*
X193216485Y-138157141D01*
X192883152Y-137252379D02*
X193549819Y-137252379D01*
X192978390Y-137252379D02*
X192930771Y-137204760D01*
X192930771Y-137204760D02*
X192883152Y-137109522D01*
X192883152Y-137109522D02*
X192883152Y-136966665D01*
X192883152Y-136966665D02*
X192930771Y-136871427D01*
X192930771Y-136871427D02*
X193026009Y-136823808D01*
X193026009Y-136823808D02*
X193549819Y-136823808D01*
X192883152Y-136490474D02*
X192883152Y-136109522D01*
X192549819Y-136347617D02*
X193406961Y-136347617D01*
X193406961Y-136347617D02*
X193502200Y-136299998D01*
X193502200Y-136299998D02*
X193549819Y-136204760D01*
X193549819Y-136204760D02*
X193549819Y-136109522D01*
X193454580Y-135776188D02*
X193502200Y-135728569D01*
X193502200Y-135728569D02*
X193549819Y-135776188D01*
X193549819Y-135776188D02*
X193502200Y-135823807D01*
X193502200Y-135823807D02*
X193454580Y-135776188D01*
X193454580Y-135776188D02*
X193549819Y-135776188D01*
X195159819Y-159919047D02*
X194159819Y-159919047D01*
X194159819Y-159919047D02*
X194159819Y-159538095D01*
X194159819Y-159538095D02*
X194207438Y-159442857D01*
X194207438Y-159442857D02*
X194255057Y-159395238D01*
X194255057Y-159395238D02*
X194350295Y-159347619D01*
X194350295Y-159347619D02*
X194493152Y-159347619D01*
X194493152Y-159347619D02*
X194588390Y-159395238D01*
X194588390Y-159395238D02*
X194636009Y-159442857D01*
X194636009Y-159442857D02*
X194683628Y-159538095D01*
X194683628Y-159538095D02*
X194683628Y-159919047D01*
X195064580Y-158347619D02*
X195112200Y-158395238D01*
X195112200Y-158395238D02*
X195159819Y-158538095D01*
X195159819Y-158538095D02*
X195159819Y-158633333D01*
X195159819Y-158633333D02*
X195112200Y-158776190D01*
X195112200Y-158776190D02*
X195016961Y-158871428D01*
X195016961Y-158871428D02*
X194921723Y-158919047D01*
X194921723Y-158919047D02*
X194731247Y-158966666D01*
X194731247Y-158966666D02*
X194588390Y-158966666D01*
X194588390Y-158966666D02*
X194397914Y-158919047D01*
X194397914Y-158919047D02*
X194302676Y-158871428D01*
X194302676Y-158871428D02*
X194207438Y-158776190D01*
X194207438Y-158776190D02*
X194159819Y-158633333D01*
X194159819Y-158633333D02*
X194159819Y-158538095D01*
X194159819Y-158538095D02*
X194207438Y-158395238D01*
X194207438Y-158395238D02*
X194255057Y-158347619D01*
X194636009Y-157585714D02*
X194683628Y-157442857D01*
X194683628Y-157442857D02*
X194731247Y-157395238D01*
X194731247Y-157395238D02*
X194826485Y-157347619D01*
X194826485Y-157347619D02*
X194969342Y-157347619D01*
X194969342Y-157347619D02*
X195064580Y-157395238D01*
X195064580Y-157395238D02*
X195112200Y-157442857D01*
X195112200Y-157442857D02*
X195159819Y-157538095D01*
X195159819Y-157538095D02*
X195159819Y-157919047D01*
X195159819Y-157919047D02*
X194159819Y-157919047D01*
X194159819Y-157919047D02*
X194159819Y-157585714D01*
X194159819Y-157585714D02*
X194207438Y-157490476D01*
X194207438Y-157490476D02*
X194255057Y-157442857D01*
X194255057Y-157442857D02*
X194350295Y-157395238D01*
X194350295Y-157395238D02*
X194445533Y-157395238D01*
X194445533Y-157395238D02*
X194540771Y-157442857D01*
X194540771Y-157442857D02*
X194588390Y-157490476D01*
X194588390Y-157490476D02*
X194636009Y-157585714D01*
X194636009Y-157585714D02*
X194636009Y-157919047D01*
X195159819Y-156157142D02*
X194159819Y-156157142D01*
X194159819Y-156157142D02*
X194159819Y-155919047D01*
X194159819Y-155919047D02*
X194207438Y-155776190D01*
X194207438Y-155776190D02*
X194302676Y-155680952D01*
X194302676Y-155680952D02*
X194397914Y-155633333D01*
X194397914Y-155633333D02*
X194588390Y-155585714D01*
X194588390Y-155585714D02*
X194731247Y-155585714D01*
X194731247Y-155585714D02*
X194921723Y-155633333D01*
X194921723Y-155633333D02*
X195016961Y-155680952D01*
X195016961Y-155680952D02*
X195112200Y-155776190D01*
X195112200Y-155776190D02*
X195159819Y-155919047D01*
X195159819Y-155919047D02*
X195159819Y-156157142D01*
X195112200Y-154776190D02*
X195159819Y-154871428D01*
X195159819Y-154871428D02*
X195159819Y-155061904D01*
X195159819Y-155061904D02*
X195112200Y-155157142D01*
X195112200Y-155157142D02*
X195016961Y-155204761D01*
X195016961Y-155204761D02*
X194636009Y-155204761D01*
X194636009Y-155204761D02*
X194540771Y-155157142D01*
X194540771Y-155157142D02*
X194493152Y-155061904D01*
X194493152Y-155061904D02*
X194493152Y-154871428D01*
X194493152Y-154871428D02*
X194540771Y-154776190D01*
X194540771Y-154776190D02*
X194636009Y-154728571D01*
X194636009Y-154728571D02*
X194731247Y-154728571D01*
X194731247Y-154728571D02*
X194826485Y-155204761D01*
X195112200Y-154347618D02*
X195159819Y-154252380D01*
X195159819Y-154252380D02*
X195159819Y-154061904D01*
X195159819Y-154061904D02*
X195112200Y-153966666D01*
X195112200Y-153966666D02*
X195016961Y-153919047D01*
X195016961Y-153919047D02*
X194969342Y-153919047D01*
X194969342Y-153919047D02*
X194874104Y-153966666D01*
X194874104Y-153966666D02*
X194826485Y-154061904D01*
X194826485Y-154061904D02*
X194826485Y-154204761D01*
X194826485Y-154204761D02*
X194778866Y-154299999D01*
X194778866Y-154299999D02*
X194683628Y-154347618D01*
X194683628Y-154347618D02*
X194636009Y-154347618D01*
X194636009Y-154347618D02*
X194540771Y-154299999D01*
X194540771Y-154299999D02*
X194493152Y-154204761D01*
X194493152Y-154204761D02*
X194493152Y-154061904D01*
X194493152Y-154061904D02*
X194540771Y-153966666D01*
X195159819Y-153490475D02*
X194493152Y-153490475D01*
X194159819Y-153490475D02*
X194207438Y-153538094D01*
X194207438Y-153538094D02*
X194255057Y-153490475D01*
X194255057Y-153490475D02*
X194207438Y-153442856D01*
X194207438Y-153442856D02*
X194159819Y-153490475D01*
X194159819Y-153490475D02*
X194255057Y-153490475D01*
X194493152Y-152585714D02*
X195302676Y-152585714D01*
X195302676Y-152585714D02*
X195397914Y-152633333D01*
X195397914Y-152633333D02*
X195445533Y-152680952D01*
X195445533Y-152680952D02*
X195493152Y-152776190D01*
X195493152Y-152776190D02*
X195493152Y-152919047D01*
X195493152Y-152919047D02*
X195445533Y-153014285D01*
X195112200Y-152585714D02*
X195159819Y-152680952D01*
X195159819Y-152680952D02*
X195159819Y-152871428D01*
X195159819Y-152871428D02*
X195112200Y-152966666D01*
X195112200Y-152966666D02*
X195064580Y-153014285D01*
X195064580Y-153014285D02*
X194969342Y-153061904D01*
X194969342Y-153061904D02*
X194683628Y-153061904D01*
X194683628Y-153061904D02*
X194588390Y-153014285D01*
X194588390Y-153014285D02*
X194540771Y-152966666D01*
X194540771Y-152966666D02*
X194493152Y-152871428D01*
X194493152Y-152871428D02*
X194493152Y-152680952D01*
X194493152Y-152680952D02*
X194540771Y-152585714D01*
X194493152Y-152109523D02*
X195159819Y-152109523D01*
X194588390Y-152109523D02*
X194540771Y-152061904D01*
X194540771Y-152061904D02*
X194493152Y-151966666D01*
X194493152Y-151966666D02*
X194493152Y-151823809D01*
X194493152Y-151823809D02*
X194540771Y-151728571D01*
X194540771Y-151728571D02*
X194636009Y-151680952D01*
X194636009Y-151680952D02*
X195159819Y-151680952D01*
X195159819Y-150442856D02*
X194159819Y-150442856D01*
X194540771Y-150442856D02*
X194493152Y-150347618D01*
X194493152Y-150347618D02*
X194493152Y-150157142D01*
X194493152Y-150157142D02*
X194540771Y-150061904D01*
X194540771Y-150061904D02*
X194588390Y-150014285D01*
X194588390Y-150014285D02*
X194683628Y-149966666D01*
X194683628Y-149966666D02*
X194969342Y-149966666D01*
X194969342Y-149966666D02*
X195064580Y-150014285D01*
X195064580Y-150014285D02*
X195112200Y-150061904D01*
X195112200Y-150061904D02*
X195159819Y-150157142D01*
X195159819Y-150157142D02*
X195159819Y-150347618D01*
X195159819Y-150347618D02*
X195112200Y-150442856D01*
X194493152Y-149633332D02*
X195159819Y-149395237D01*
X194493152Y-149157142D02*
X195159819Y-149395237D01*
X195159819Y-149395237D02*
X195397914Y-149490475D01*
X195397914Y-149490475D02*
X195445533Y-149538094D01*
X195445533Y-149538094D02*
X195493152Y-149633332D01*
X195159819Y-148014284D02*
X194159819Y-148014284D01*
X194159819Y-148014284D02*
X194874104Y-147680951D01*
X194874104Y-147680951D02*
X194159819Y-147347618D01*
X194159819Y-147347618D02*
X195159819Y-147347618D01*
X195159819Y-146442856D02*
X194636009Y-146442856D01*
X194636009Y-146442856D02*
X194540771Y-146490475D01*
X194540771Y-146490475D02*
X194493152Y-146585713D01*
X194493152Y-146585713D02*
X194493152Y-146776189D01*
X194493152Y-146776189D02*
X194540771Y-146871427D01*
X195112200Y-146442856D02*
X195159819Y-146538094D01*
X195159819Y-146538094D02*
X195159819Y-146776189D01*
X195159819Y-146776189D02*
X195112200Y-146871427D01*
X195112200Y-146871427D02*
X195016961Y-146919046D01*
X195016961Y-146919046D02*
X194921723Y-146919046D01*
X194921723Y-146919046D02*
X194826485Y-146871427D01*
X194826485Y-146871427D02*
X194778866Y-146776189D01*
X194778866Y-146776189D02*
X194778866Y-146538094D01*
X194778866Y-146538094D02*
X194731247Y-146442856D01*
X195159819Y-145538094D02*
X194159819Y-145538094D01*
X195112200Y-145538094D02*
X195159819Y-145633332D01*
X195159819Y-145633332D02*
X195159819Y-145823808D01*
X195159819Y-145823808D02*
X195112200Y-145919046D01*
X195112200Y-145919046D02*
X195064580Y-145966665D01*
X195064580Y-145966665D02*
X194969342Y-146014284D01*
X194969342Y-146014284D02*
X194683628Y-146014284D01*
X194683628Y-146014284D02*
X194588390Y-145966665D01*
X194588390Y-145966665D02*
X194540771Y-145919046D01*
X194540771Y-145919046D02*
X194493152Y-145823808D01*
X194493152Y-145823808D02*
X194493152Y-145633332D01*
X194493152Y-145633332D02*
X194540771Y-145538094D01*
X195064580Y-144490475D02*
X195112200Y-144538094D01*
X195112200Y-144538094D02*
X195159819Y-144680951D01*
X195159819Y-144680951D02*
X195159819Y-144776189D01*
X195159819Y-144776189D02*
X195112200Y-144919046D01*
X195112200Y-144919046D02*
X195016961Y-145014284D01*
X195016961Y-145014284D02*
X194921723Y-145061903D01*
X194921723Y-145061903D02*
X194731247Y-145109522D01*
X194731247Y-145109522D02*
X194588390Y-145109522D01*
X194588390Y-145109522D02*
X194397914Y-145061903D01*
X194397914Y-145061903D02*
X194302676Y-145014284D01*
X194302676Y-145014284D02*
X194207438Y-144919046D01*
X194207438Y-144919046D02*
X194159819Y-144776189D01*
X194159819Y-144776189D02*
X194159819Y-144680951D01*
X194159819Y-144680951D02*
X194207438Y-144538094D01*
X194207438Y-144538094D02*
X194255057Y-144490475D01*
X195159819Y-143633332D02*
X194636009Y-143633332D01*
X194636009Y-143633332D02*
X194540771Y-143680951D01*
X194540771Y-143680951D02*
X194493152Y-143776189D01*
X194493152Y-143776189D02*
X194493152Y-143966665D01*
X194493152Y-143966665D02*
X194540771Y-144061903D01*
X195112200Y-143633332D02*
X195159819Y-143728570D01*
X195159819Y-143728570D02*
X195159819Y-143966665D01*
X195159819Y-143966665D02*
X195112200Y-144061903D01*
X195112200Y-144061903D02*
X195016961Y-144109522D01*
X195016961Y-144109522D02*
X194921723Y-144109522D01*
X194921723Y-144109522D02*
X194826485Y-144061903D01*
X194826485Y-144061903D02*
X194778866Y-143966665D01*
X194778866Y-143966665D02*
X194778866Y-143728570D01*
X194778866Y-143728570D02*
X194731247Y-143633332D01*
X194493152Y-143299998D02*
X194493152Y-142919046D01*
X194159819Y-143157141D02*
X195016961Y-143157141D01*
X195016961Y-143157141D02*
X195112200Y-143109522D01*
X195112200Y-143109522D02*
X195159819Y-143014284D01*
X195159819Y-143014284D02*
X195159819Y-142919046D01*
X195112200Y-142538093D02*
X195159819Y-142538093D01*
X195159819Y-142538093D02*
X195255057Y-142585712D01*
X195255057Y-142585712D02*
X195302676Y-142633331D01*
X194493152Y-141442855D02*
X195159819Y-141204760D01*
X195159819Y-141204760D02*
X194493152Y-140966665D01*
X195112200Y-140204760D02*
X195159819Y-140299998D01*
X195159819Y-140299998D02*
X195159819Y-140490474D01*
X195159819Y-140490474D02*
X195112200Y-140585712D01*
X195112200Y-140585712D02*
X195016961Y-140633331D01*
X195016961Y-140633331D02*
X194636009Y-140633331D01*
X194636009Y-140633331D02*
X194540771Y-140585712D01*
X194540771Y-140585712D02*
X194493152Y-140490474D01*
X194493152Y-140490474D02*
X194493152Y-140299998D01*
X194493152Y-140299998D02*
X194540771Y-140204760D01*
X194540771Y-140204760D02*
X194636009Y-140157141D01*
X194636009Y-140157141D02*
X194731247Y-140157141D01*
X194731247Y-140157141D02*
X194826485Y-140633331D01*
X195159819Y-139728569D02*
X194493152Y-139728569D01*
X194683628Y-139728569D02*
X194588390Y-139680950D01*
X194588390Y-139680950D02*
X194540771Y-139633331D01*
X194540771Y-139633331D02*
X194493152Y-139538093D01*
X194493152Y-139538093D02*
X194493152Y-139442855D01*
X195064580Y-139109521D02*
X195112200Y-139061902D01*
X195112200Y-139061902D02*
X195159819Y-139109521D01*
X195159819Y-139109521D02*
X195112200Y-139157140D01*
X195112200Y-139157140D02*
X195064580Y-139109521D01*
X195064580Y-139109521D02*
X195159819Y-139109521D01*
X195159819Y-138109522D02*
X195159819Y-138680950D01*
X195159819Y-138395236D02*
X194159819Y-138395236D01*
X194159819Y-138395236D02*
X194302676Y-138490474D01*
X194302676Y-138490474D02*
X194397914Y-138585712D01*
X194397914Y-138585712D02*
X194445533Y-138680950D01*
X195064580Y-137680950D02*
X195112200Y-137633331D01*
X195112200Y-137633331D02*
X195159819Y-137680950D01*
X195159819Y-137680950D02*
X195112200Y-137728569D01*
X195112200Y-137728569D02*
X195064580Y-137680950D01*
X195064580Y-137680950D02*
X195159819Y-137680950D01*
X194255057Y-137252379D02*
X194207438Y-137204760D01*
X194207438Y-137204760D02*
X194159819Y-137109522D01*
X194159819Y-137109522D02*
X194159819Y-136871427D01*
X194159819Y-136871427D02*
X194207438Y-136776189D01*
X194207438Y-136776189D02*
X194255057Y-136728570D01*
X194255057Y-136728570D02*
X194350295Y-136680951D01*
X194350295Y-136680951D02*
X194445533Y-136680951D01*
X194445533Y-136680951D02*
X194588390Y-136728570D01*
X194588390Y-136728570D02*
X195159819Y-137299998D01*
X195159819Y-137299998D02*
X195159819Y-136680951D01*
X195112200Y-136204760D02*
X195159819Y-136204760D01*
X195159819Y-136204760D02*
X195255057Y-136252379D01*
X195255057Y-136252379D02*
X195302676Y-136299998D01*
X194255057Y-135061903D02*
X194207438Y-135014284D01*
X194207438Y-135014284D02*
X194159819Y-134919046D01*
X194159819Y-134919046D02*
X194159819Y-134680951D01*
X194159819Y-134680951D02*
X194207438Y-134585713D01*
X194207438Y-134585713D02*
X194255057Y-134538094D01*
X194255057Y-134538094D02*
X194350295Y-134490475D01*
X194350295Y-134490475D02*
X194445533Y-134490475D01*
X194445533Y-134490475D02*
X194588390Y-134538094D01*
X194588390Y-134538094D02*
X195159819Y-135109522D01*
X195159819Y-135109522D02*
X195159819Y-134490475D01*
X194159819Y-133871427D02*
X194159819Y-133776189D01*
X194159819Y-133776189D02*
X194207438Y-133680951D01*
X194207438Y-133680951D02*
X194255057Y-133633332D01*
X194255057Y-133633332D02*
X194350295Y-133585713D01*
X194350295Y-133585713D02*
X194540771Y-133538094D01*
X194540771Y-133538094D02*
X194778866Y-133538094D01*
X194778866Y-133538094D02*
X194969342Y-133585713D01*
X194969342Y-133585713D02*
X195064580Y-133633332D01*
X195064580Y-133633332D02*
X195112200Y-133680951D01*
X195112200Y-133680951D02*
X195159819Y-133776189D01*
X195159819Y-133776189D02*
X195159819Y-133871427D01*
X195159819Y-133871427D02*
X195112200Y-133966665D01*
X195112200Y-133966665D02*
X195064580Y-134014284D01*
X195064580Y-134014284D02*
X194969342Y-134061903D01*
X194969342Y-134061903D02*
X194778866Y-134109522D01*
X194778866Y-134109522D02*
X194540771Y-134109522D01*
X194540771Y-134109522D02*
X194350295Y-134061903D01*
X194350295Y-134061903D02*
X194255057Y-134014284D01*
X194255057Y-134014284D02*
X194207438Y-133966665D01*
X194207438Y-133966665D02*
X194159819Y-133871427D01*
X194255057Y-133157141D02*
X194207438Y-133109522D01*
X194207438Y-133109522D02*
X194159819Y-133014284D01*
X194159819Y-133014284D02*
X194159819Y-132776189D01*
X194159819Y-132776189D02*
X194207438Y-132680951D01*
X194207438Y-132680951D02*
X194255057Y-132633332D01*
X194255057Y-132633332D02*
X194350295Y-132585713D01*
X194350295Y-132585713D02*
X194445533Y-132585713D01*
X194445533Y-132585713D02*
X194588390Y-132633332D01*
X194588390Y-132633332D02*
X195159819Y-133204760D01*
X195159819Y-133204760D02*
X195159819Y-132585713D01*
X194493152Y-131728570D02*
X195159819Y-131728570D01*
X194112200Y-131966665D02*
X194826485Y-132204760D01*
X194826485Y-132204760D02*
X194826485Y-131585713D01*
X196103152Y-151704762D02*
X196103152Y-151323810D01*
X195769819Y-151561905D02*
X196626961Y-151561905D01*
X196626961Y-151561905D02*
X196722200Y-151514286D01*
X196722200Y-151514286D02*
X196769819Y-151419048D01*
X196769819Y-151419048D02*
X196769819Y-151323810D01*
X196674580Y-150990476D02*
X196722200Y-150942857D01*
X196722200Y-150942857D02*
X196769819Y-150990476D01*
X196769819Y-150990476D02*
X196722200Y-151038095D01*
X196722200Y-151038095D02*
X196674580Y-150990476D01*
X196674580Y-150990476D02*
X196769819Y-150990476D01*
X196769819Y-150514286D02*
X196103152Y-150514286D01*
X196198390Y-150514286D02*
X196150771Y-150466667D01*
X196150771Y-150466667D02*
X196103152Y-150371429D01*
X196103152Y-150371429D02*
X196103152Y-150228572D01*
X196103152Y-150228572D02*
X196150771Y-150133334D01*
X196150771Y-150133334D02*
X196246009Y-150085715D01*
X196246009Y-150085715D02*
X196769819Y-150085715D01*
X196246009Y-150085715D02*
X196150771Y-150038096D01*
X196150771Y-150038096D02*
X196103152Y-149942858D01*
X196103152Y-149942858D02*
X196103152Y-149800001D01*
X196103152Y-149800001D02*
X196150771Y-149704762D01*
X196150771Y-149704762D02*
X196246009Y-149657143D01*
X196246009Y-149657143D02*
X196769819Y-149657143D01*
X196722200Y-148800001D02*
X196769819Y-148895239D01*
X196769819Y-148895239D02*
X196769819Y-149085715D01*
X196769819Y-149085715D02*
X196722200Y-149180953D01*
X196722200Y-149180953D02*
X196626961Y-149228572D01*
X196626961Y-149228572D02*
X196246009Y-149228572D01*
X196246009Y-149228572D02*
X196150771Y-149180953D01*
X196150771Y-149180953D02*
X196103152Y-149085715D01*
X196103152Y-149085715D02*
X196103152Y-148895239D01*
X196103152Y-148895239D02*
X196150771Y-148800001D01*
X196150771Y-148800001D02*
X196246009Y-148752382D01*
X196246009Y-148752382D02*
X196341247Y-148752382D01*
X196341247Y-148752382D02*
X196436485Y-149228572D01*
X195722200Y-147609525D02*
X197007914Y-148466667D01*
X196103152Y-147371429D02*
X196103152Y-146847620D01*
X196103152Y-146847620D02*
X196769819Y-147371429D01*
X196769819Y-147371429D02*
X196769819Y-146847620D01*
X196769819Y-146561905D02*
X196103152Y-146038096D01*
X196103152Y-146561905D02*
X196769819Y-146038096D01*
X196865057Y-145895239D02*
X196865057Y-145133334D01*
X196769819Y-144466667D02*
X195769819Y-144466667D01*
X196722200Y-144466667D02*
X196769819Y-144561905D01*
X196769819Y-144561905D02*
X196769819Y-144752381D01*
X196769819Y-144752381D02*
X196722200Y-144847619D01*
X196722200Y-144847619D02*
X196674580Y-144895238D01*
X196674580Y-144895238D02*
X196579342Y-144942857D01*
X196579342Y-144942857D02*
X196293628Y-144942857D01*
X196293628Y-144942857D02*
X196198390Y-144895238D01*
X196198390Y-144895238D02*
X196150771Y-144847619D01*
X196150771Y-144847619D02*
X196103152Y-144752381D01*
X196103152Y-144752381D02*
X196103152Y-144561905D01*
X196103152Y-144561905D02*
X196150771Y-144466667D01*
X196722200Y-143609524D02*
X196769819Y-143704762D01*
X196769819Y-143704762D02*
X196769819Y-143895238D01*
X196769819Y-143895238D02*
X196722200Y-143990476D01*
X196722200Y-143990476D02*
X196626961Y-144038095D01*
X196626961Y-144038095D02*
X196246009Y-144038095D01*
X196246009Y-144038095D02*
X196150771Y-143990476D01*
X196150771Y-143990476D02*
X196103152Y-143895238D01*
X196103152Y-143895238D02*
X196103152Y-143704762D01*
X196103152Y-143704762D02*
X196150771Y-143609524D01*
X196150771Y-143609524D02*
X196246009Y-143561905D01*
X196246009Y-143561905D02*
X196341247Y-143561905D01*
X196341247Y-143561905D02*
X196436485Y-144038095D01*
X196769819Y-142990476D02*
X196722200Y-143085714D01*
X196722200Y-143085714D02*
X196626961Y-143133333D01*
X196626961Y-143133333D02*
X195769819Y-143133333D01*
X196103152Y-142752380D02*
X196103152Y-142371428D01*
X195769819Y-142609523D02*
X196626961Y-142609523D01*
X196626961Y-142609523D02*
X196722200Y-142561904D01*
X196722200Y-142561904D02*
X196769819Y-142466666D01*
X196769819Y-142466666D02*
X196769819Y-142371428D01*
X196769819Y-141609523D02*
X196246009Y-141609523D01*
X196246009Y-141609523D02*
X196150771Y-141657142D01*
X196150771Y-141657142D02*
X196103152Y-141752380D01*
X196103152Y-141752380D02*
X196103152Y-141942856D01*
X196103152Y-141942856D02*
X196150771Y-142038094D01*
X196722200Y-141609523D02*
X196769819Y-141704761D01*
X196769819Y-141704761D02*
X196769819Y-141942856D01*
X196769819Y-141942856D02*
X196722200Y-142038094D01*
X196722200Y-142038094D02*
X196626961Y-142085713D01*
X196626961Y-142085713D02*
X196531723Y-142085713D01*
X196531723Y-142085713D02*
X196436485Y-142038094D01*
X196436485Y-142038094D02*
X196388866Y-141942856D01*
X196388866Y-141942856D02*
X196388866Y-141704761D01*
X196388866Y-141704761D02*
X196341247Y-141609523D01*
X196865057Y-141371428D02*
X196865057Y-140609523D01*
X196722200Y-140419046D02*
X196769819Y-140323808D01*
X196769819Y-140323808D02*
X196769819Y-140133332D01*
X196769819Y-140133332D02*
X196722200Y-140038094D01*
X196722200Y-140038094D02*
X196626961Y-139990475D01*
X196626961Y-139990475D02*
X196579342Y-139990475D01*
X196579342Y-139990475D02*
X196484104Y-140038094D01*
X196484104Y-140038094D02*
X196436485Y-140133332D01*
X196436485Y-140133332D02*
X196436485Y-140276189D01*
X196436485Y-140276189D02*
X196388866Y-140371427D01*
X196388866Y-140371427D02*
X196293628Y-140419046D01*
X196293628Y-140419046D02*
X196246009Y-140419046D01*
X196246009Y-140419046D02*
X196150771Y-140371427D01*
X196150771Y-140371427D02*
X196103152Y-140276189D01*
X196103152Y-140276189D02*
X196103152Y-140133332D01*
X196103152Y-140133332D02*
X196150771Y-140038094D01*
D10*
X123871428Y-105785828D02*
X123871428Y-104285828D01*
X123871428Y-104285828D02*
X124228571Y-104285828D01*
X124228571Y-104285828D02*
X124442857Y-104357257D01*
X124442857Y-104357257D02*
X124585714Y-104500114D01*
X124585714Y-104500114D02*
X124657143Y-104642971D01*
X124657143Y-104642971D02*
X124728571Y-104928685D01*
X124728571Y-104928685D02*
X124728571Y-105142971D01*
X124728571Y-105142971D02*
X124657143Y-105428685D01*
X124657143Y-105428685D02*
X124585714Y-105571542D01*
X124585714Y-105571542D02*
X124442857Y-105714400D01*
X124442857Y-105714400D02*
X124228571Y-105785828D01*
X124228571Y-105785828D02*
X123871428Y-105785828D01*
X125371428Y-105785828D02*
X125371428Y-104785828D01*
X125371428Y-105071542D02*
X125442857Y-104928685D01*
X125442857Y-104928685D02*
X125514286Y-104857257D01*
X125514286Y-104857257D02*
X125657143Y-104785828D01*
X125657143Y-104785828D02*
X125800000Y-104785828D01*
X126299999Y-105785828D02*
X126299999Y-104785828D01*
X126299999Y-104285828D02*
X126228571Y-104357257D01*
X126228571Y-104357257D02*
X126299999Y-104428685D01*
X126299999Y-104428685D02*
X126371428Y-104357257D01*
X126371428Y-104357257D02*
X126299999Y-104285828D01*
X126299999Y-104285828D02*
X126299999Y-104428685D01*
X126871428Y-104785828D02*
X127228571Y-105785828D01*
X127228571Y-105785828D02*
X127585714Y-104785828D01*
X128728571Y-105714400D02*
X128585714Y-105785828D01*
X128585714Y-105785828D02*
X128300000Y-105785828D01*
X128300000Y-105785828D02*
X128157142Y-105714400D01*
X128157142Y-105714400D02*
X128085714Y-105571542D01*
X128085714Y-105571542D02*
X128085714Y-105000114D01*
X128085714Y-105000114D02*
X128157142Y-104857257D01*
X128157142Y-104857257D02*
X128300000Y-104785828D01*
X128300000Y-104785828D02*
X128585714Y-104785828D01*
X128585714Y-104785828D02*
X128728571Y-104857257D01*
X128728571Y-104857257D02*
X128800000Y-105000114D01*
X128800000Y-105000114D02*
X128800000Y-105142971D01*
X128800000Y-105142971D02*
X128085714Y-105285828D01*
X125942857Y-107772257D02*
X126657143Y-107772257D01*
X125800000Y-108200828D02*
X126300000Y-106700828D01*
X126300000Y-106700828D02*
X126800000Y-108200828D01*
D11*
X212041666Y-153954819D02*
X212041666Y-154669104D01*
X212041666Y-154669104D02*
X211994047Y-154811961D01*
X211994047Y-154811961D02*
X211898809Y-154907200D01*
X211898809Y-154907200D02*
X211755952Y-154954819D01*
X211755952Y-154954819D02*
X211660714Y-154954819D01*
X212422619Y-153954819D02*
X213041666Y-153954819D01*
X213041666Y-153954819D02*
X212708333Y-154335771D01*
X212708333Y-154335771D02*
X212851190Y-154335771D01*
X212851190Y-154335771D02*
X212946428Y-154383390D01*
X212946428Y-154383390D02*
X212994047Y-154431009D01*
X212994047Y-154431009D02*
X213041666Y-154526247D01*
X213041666Y-154526247D02*
X213041666Y-154764342D01*
X213041666Y-154764342D02*
X212994047Y-154859580D01*
X212994047Y-154859580D02*
X212946428Y-154907200D01*
X212946428Y-154907200D02*
X212851190Y-154954819D01*
X212851190Y-154954819D02*
X212565476Y-154954819D01*
X212565476Y-154954819D02*
X212470238Y-154907200D01*
X212470238Y-154907200D02*
X212422619Y-154859580D01*
X207131422Y-151669819D02*
X207464755Y-152669819D01*
X207464755Y-152669819D02*
X207798088Y-151669819D01*
X208702850Y-152574580D02*
X208655231Y-152622200D01*
X208655231Y-152622200D02*
X208512374Y-152669819D01*
X208512374Y-152669819D02*
X208417136Y-152669819D01*
X208417136Y-152669819D02*
X208274279Y-152622200D01*
X208274279Y-152622200D02*
X208179041Y-152526961D01*
X208179041Y-152526961D02*
X208131422Y-152431723D01*
X208131422Y-152431723D02*
X208083803Y-152241247D01*
X208083803Y-152241247D02*
X208083803Y-152098390D01*
X208083803Y-152098390D02*
X208131422Y-151907914D01*
X208131422Y-151907914D02*
X208179041Y-151812676D01*
X208179041Y-151812676D02*
X208274279Y-151717438D01*
X208274279Y-151717438D02*
X208417136Y-151669819D01*
X208417136Y-151669819D02*
X208512374Y-151669819D01*
X208512374Y-151669819D02*
X208655231Y-151717438D01*
X208655231Y-151717438D02*
X208702850Y-151765057D01*
X209702850Y-152574580D02*
X209655231Y-152622200D01*
X209655231Y-152622200D02*
X209512374Y-152669819D01*
X209512374Y-152669819D02*
X209417136Y-152669819D01*
X209417136Y-152669819D02*
X209274279Y-152622200D01*
X209274279Y-152622200D02*
X209179041Y-152526961D01*
X209179041Y-152526961D02*
X209131422Y-152431723D01*
X209131422Y-152431723D02*
X209083803Y-152241247D01*
X209083803Y-152241247D02*
X209083803Y-152098390D01*
X209083803Y-152098390D02*
X209131422Y-151907914D01*
X209131422Y-151907914D02*
X209179041Y-151812676D01*
X209179041Y-151812676D02*
X209274279Y-151717438D01*
X209274279Y-151717438D02*
X209417136Y-151669819D01*
X209417136Y-151669819D02*
X209512374Y-151669819D01*
X209512374Y-151669819D02*
X209655231Y-151717438D01*
X209655231Y-151717438D02*
X209702850Y-151765057D01*
X215226661Y-151717438D02*
X215131423Y-151669819D01*
X215131423Y-151669819D02*
X214988566Y-151669819D01*
X214988566Y-151669819D02*
X214845709Y-151717438D01*
X214845709Y-151717438D02*
X214750471Y-151812676D01*
X214750471Y-151812676D02*
X214702852Y-151907914D01*
X214702852Y-151907914D02*
X214655233Y-152098390D01*
X214655233Y-152098390D02*
X214655233Y-152241247D01*
X214655233Y-152241247D02*
X214702852Y-152431723D01*
X214702852Y-152431723D02*
X214750471Y-152526961D01*
X214750471Y-152526961D02*
X214845709Y-152622200D01*
X214845709Y-152622200D02*
X214988566Y-152669819D01*
X214988566Y-152669819D02*
X215083804Y-152669819D01*
X215083804Y-152669819D02*
X215226661Y-152622200D01*
X215226661Y-152622200D02*
X215274280Y-152574580D01*
X215274280Y-152574580D02*
X215274280Y-152241247D01*
X215274280Y-152241247D02*
X215083804Y-152241247D01*
X215702852Y-152669819D02*
X215702852Y-151669819D01*
X215702852Y-151669819D02*
X216274280Y-152669819D01*
X216274280Y-152669819D02*
X216274280Y-151669819D01*
X216750471Y-152669819D02*
X216750471Y-151669819D01*
X216750471Y-151669819D02*
X216988566Y-151669819D01*
X216988566Y-151669819D02*
X217131423Y-151717438D01*
X217131423Y-151717438D02*
X217226661Y-151812676D01*
X217226661Y-151812676D02*
X217274280Y-151907914D01*
X217274280Y-151907914D02*
X217321899Y-152098390D01*
X217321899Y-152098390D02*
X217321899Y-152241247D01*
X217321899Y-152241247D02*
X217274280Y-152431723D01*
X217274280Y-152431723D02*
X217226661Y-152526961D01*
X217226661Y-152526961D02*
X217131423Y-152622200D01*
X217131423Y-152622200D02*
X216988566Y-152669819D01*
X216988566Y-152669819D02*
X216750471Y-152669819D01*
X105238095Y-109254819D02*
X105238095Y-108254819D01*
X105238095Y-108731009D02*
X105809523Y-108731009D01*
X105809523Y-109254819D02*
X105809523Y-108254819D01*
X106809523Y-109254819D02*
X106238095Y-109254819D01*
X106523809Y-109254819D02*
X106523809Y-108254819D01*
X106523809Y-108254819D02*
X106428571Y-108397676D01*
X106428571Y-108397676D02*
X106333333Y-108492914D01*
X106333333Y-108492914D02*
X106238095Y-108540533D01*
X198414095Y-154897219D02*
X198414095Y-153897219D01*
X198414095Y-154373409D02*
X198985523Y-154373409D01*
X198985523Y-154897219D02*
X198985523Y-153897219D01*
X199890285Y-154230552D02*
X199890285Y-154897219D01*
X199652190Y-153849600D02*
X199414095Y-154563885D01*
X199414095Y-154563885D02*
X200033142Y-154563885D01*
D12*
X184692219Y-130680254D02*
X185406504Y-130680254D01*
X185406504Y-130680254D02*
X185549361Y-130727873D01*
X185549361Y-130727873D02*
X185644600Y-130823111D01*
X185644600Y-130823111D02*
X185692219Y-130965968D01*
X185692219Y-130965968D02*
X185692219Y-131061206D01*
X184787457Y-130251682D02*
X184739838Y-130204063D01*
X184739838Y-130204063D02*
X184692219Y-130108825D01*
X184692219Y-130108825D02*
X184692219Y-129870730D01*
X184692219Y-129870730D02*
X184739838Y-129775492D01*
X184739838Y-129775492D02*
X184787457Y-129727873D01*
X184787457Y-129727873D02*
X184882695Y-129680254D01*
X184882695Y-129680254D02*
X184977933Y-129680254D01*
X184977933Y-129680254D02*
X185120790Y-129727873D01*
X185120790Y-129727873D02*
X185692219Y-130299301D01*
X185692219Y-130299301D02*
X185692219Y-129680254D01*
D11*
X156233333Y-137754853D02*
X155900000Y-137278662D01*
X155661905Y-137754853D02*
X155661905Y-136754853D01*
X155661905Y-136754853D02*
X156042857Y-136754853D01*
X156042857Y-136754853D02*
X156138095Y-136802472D01*
X156138095Y-136802472D02*
X156185714Y-136850091D01*
X156185714Y-136850091D02*
X156233333Y-136945329D01*
X156233333Y-136945329D02*
X156233333Y-137088186D01*
X156233333Y-137088186D02*
X156185714Y-137183424D01*
X156185714Y-137183424D02*
X156138095Y-137231043D01*
X156138095Y-137231043D02*
X156042857Y-137278662D01*
X156042857Y-137278662D02*
X155661905Y-137278662D01*
X156566667Y-136754853D02*
X157185714Y-136754853D01*
X157185714Y-136754853D02*
X156852381Y-137135805D01*
X156852381Y-137135805D02*
X156995238Y-137135805D01*
X156995238Y-137135805D02*
X157090476Y-137183424D01*
X157090476Y-137183424D02*
X157138095Y-137231043D01*
X157138095Y-137231043D02*
X157185714Y-137326281D01*
X157185714Y-137326281D02*
X157185714Y-137564376D01*
X157185714Y-137564376D02*
X157138095Y-137659614D01*
X157138095Y-137659614D02*
X157090476Y-137707234D01*
X157090476Y-137707234D02*
X156995238Y-137754853D01*
X156995238Y-137754853D02*
X156709524Y-137754853D01*
X156709524Y-137754853D02*
X156614286Y-137707234D01*
X156614286Y-137707234D02*
X156566667Y-137659614D01*
X147700000Y-136850091D02*
X147747619Y-136802472D01*
X147747619Y-136802472D02*
X147842857Y-136754853D01*
X147842857Y-136754853D02*
X148080952Y-136754853D01*
X148080952Y-136754853D02*
X148176190Y-136802472D01*
X148176190Y-136802472D02*
X148223809Y-136850091D01*
X148223809Y-136850091D02*
X148271428Y-136945329D01*
X148271428Y-136945329D02*
X148271428Y-137040567D01*
X148271428Y-137040567D02*
X148223809Y-137183424D01*
X148223809Y-137183424D02*
X147652381Y-137754853D01*
X147652381Y-137754853D02*
X148271428Y-137754853D01*
X148700000Y-137659614D02*
X148747619Y-137707234D01*
X148747619Y-137707234D02*
X148700000Y-137754853D01*
X148700000Y-137754853D02*
X148652381Y-137707234D01*
X148652381Y-137707234D02*
X148700000Y-137659614D01*
X148700000Y-137659614D02*
X148700000Y-137754853D01*
X149128571Y-136850091D02*
X149176190Y-136802472D01*
X149176190Y-136802472D02*
X149271428Y-136754853D01*
X149271428Y-136754853D02*
X149509523Y-136754853D01*
X149509523Y-136754853D02*
X149604761Y-136802472D01*
X149604761Y-136802472D02*
X149652380Y-136850091D01*
X149652380Y-136850091D02*
X149699999Y-136945329D01*
X149699999Y-136945329D02*
X149699999Y-137040567D01*
X149699999Y-137040567D02*
X149652380Y-137183424D01*
X149652380Y-137183424D02*
X149080952Y-137754853D01*
X149080952Y-137754853D02*
X149699999Y-137754853D01*
X150128571Y-137754853D02*
X150128571Y-136754853D01*
X150699999Y-137754853D02*
X150271428Y-137183424D01*
X150699999Y-136754853D02*
X150128571Y-137326281D01*
X156233333Y-141654820D02*
X155900000Y-141178629D01*
X155661905Y-141654820D02*
X155661905Y-140654820D01*
X155661905Y-140654820D02*
X156042857Y-140654820D01*
X156042857Y-140654820D02*
X156138095Y-140702439D01*
X156138095Y-140702439D02*
X156185714Y-140750058D01*
X156185714Y-140750058D02*
X156233333Y-140845296D01*
X156233333Y-140845296D02*
X156233333Y-140988153D01*
X156233333Y-140988153D02*
X156185714Y-141083391D01*
X156185714Y-141083391D02*
X156138095Y-141131010D01*
X156138095Y-141131010D02*
X156042857Y-141178629D01*
X156042857Y-141178629D02*
X155661905Y-141178629D01*
X157090476Y-140988153D02*
X157090476Y-141654820D01*
X156852381Y-140607201D02*
X156614286Y-141321486D01*
X156614286Y-141321486D02*
X157233333Y-141321486D01*
X147552381Y-140754820D02*
X148171428Y-140754820D01*
X148171428Y-140754820D02*
X147838095Y-141135772D01*
X147838095Y-141135772D02*
X147980952Y-141135772D01*
X147980952Y-141135772D02*
X148076190Y-141183391D01*
X148076190Y-141183391D02*
X148123809Y-141231010D01*
X148123809Y-141231010D02*
X148171428Y-141326248D01*
X148171428Y-141326248D02*
X148171428Y-141564343D01*
X148171428Y-141564343D02*
X148123809Y-141659581D01*
X148123809Y-141659581D02*
X148076190Y-141707201D01*
X148076190Y-141707201D02*
X147980952Y-141754820D01*
X147980952Y-141754820D02*
X147695238Y-141754820D01*
X147695238Y-141754820D02*
X147600000Y-141707201D01*
X147600000Y-141707201D02*
X147552381Y-141659581D01*
X148600000Y-141659581D02*
X148647619Y-141707201D01*
X148647619Y-141707201D02*
X148600000Y-141754820D01*
X148600000Y-141754820D02*
X148552381Y-141707201D01*
X148552381Y-141707201D02*
X148600000Y-141659581D01*
X148600000Y-141659581D02*
X148600000Y-141754820D01*
X148980952Y-140754820D02*
X149599999Y-140754820D01*
X149599999Y-140754820D02*
X149266666Y-141135772D01*
X149266666Y-141135772D02*
X149409523Y-141135772D01*
X149409523Y-141135772D02*
X149504761Y-141183391D01*
X149504761Y-141183391D02*
X149552380Y-141231010D01*
X149552380Y-141231010D02*
X149599999Y-141326248D01*
X149599999Y-141326248D02*
X149599999Y-141564343D01*
X149599999Y-141564343D02*
X149552380Y-141659581D01*
X149552380Y-141659581D02*
X149504761Y-141707201D01*
X149504761Y-141707201D02*
X149409523Y-141754820D01*
X149409523Y-141754820D02*
X149123809Y-141754820D01*
X149123809Y-141754820D02*
X149028571Y-141707201D01*
X149028571Y-141707201D02*
X148980952Y-141659581D01*
X150028571Y-141754820D02*
X150028571Y-140754820D01*
X150599999Y-141754820D02*
X150171428Y-141183391D01*
X150599999Y-140754820D02*
X150028571Y-141326248D01*
X114231905Y-158370619D02*
X114231905Y-157370619D01*
X114231905Y-157370619D02*
X114470000Y-157370619D01*
X114470000Y-157370619D02*
X114612857Y-157418238D01*
X114612857Y-157418238D02*
X114708095Y-157513476D01*
X114708095Y-157513476D02*
X114755714Y-157608714D01*
X114755714Y-157608714D02*
X114803333Y-157799190D01*
X114803333Y-157799190D02*
X114803333Y-157942047D01*
X114803333Y-157942047D02*
X114755714Y-158132523D01*
X114755714Y-158132523D02*
X114708095Y-158227761D01*
X114708095Y-158227761D02*
X114612857Y-158323000D01*
X114612857Y-158323000D02*
X114470000Y-158370619D01*
X114470000Y-158370619D02*
X114231905Y-158370619D01*
X115755714Y-158370619D02*
X115184286Y-158370619D01*
X115470000Y-158370619D02*
X115470000Y-157370619D01*
X115470000Y-157370619D02*
X115374762Y-157513476D01*
X115374762Y-157513476D02*
X115279524Y-157608714D01*
X115279524Y-157608714D02*
X115184286Y-157656333D01*
X200528095Y-138509819D02*
X200528095Y-139319342D01*
X200528095Y-139319342D02*
X200575714Y-139414580D01*
X200575714Y-139414580D02*
X200623333Y-139462200D01*
X200623333Y-139462200D02*
X200718571Y-139509819D01*
X200718571Y-139509819D02*
X200909047Y-139509819D01*
X200909047Y-139509819D02*
X201004285Y-139462200D01*
X201004285Y-139462200D02*
X201051904Y-139414580D01*
X201051904Y-139414580D02*
X201099523Y-139319342D01*
X201099523Y-139319342D02*
X201099523Y-138509819D01*
X201528095Y-138605057D02*
X201575714Y-138557438D01*
X201575714Y-138557438D02*
X201670952Y-138509819D01*
X201670952Y-138509819D02*
X201909047Y-138509819D01*
X201909047Y-138509819D02*
X202004285Y-138557438D01*
X202004285Y-138557438D02*
X202051904Y-138605057D01*
X202051904Y-138605057D02*
X202099523Y-138700295D01*
X202099523Y-138700295D02*
X202099523Y-138795533D01*
X202099523Y-138795533D02*
X202051904Y-138938390D01*
X202051904Y-138938390D02*
X201480476Y-139509819D01*
X201480476Y-139509819D02*
X202099523Y-139509819D01*
X198647143Y-118609819D02*
X199313809Y-118609819D01*
X199313809Y-118609819D02*
X198885238Y-119609819D01*
X200123333Y-118943152D02*
X200123333Y-119609819D01*
X199885238Y-118562200D02*
X199647143Y-119276485D01*
X199647143Y-119276485D02*
X200266190Y-119276485D01*
X201123333Y-119609819D02*
X200647143Y-119609819D01*
X200647143Y-119609819D02*
X200647143Y-118609819D01*
X201409048Y-119562200D02*
X201551905Y-119609819D01*
X201551905Y-119609819D02*
X201790000Y-119609819D01*
X201790000Y-119609819D02*
X201885238Y-119562200D01*
X201885238Y-119562200D02*
X201932857Y-119514580D01*
X201932857Y-119514580D02*
X201980476Y-119419342D01*
X201980476Y-119419342D02*
X201980476Y-119324104D01*
X201980476Y-119324104D02*
X201932857Y-119228866D01*
X201932857Y-119228866D02*
X201885238Y-119181247D01*
X201885238Y-119181247D02*
X201790000Y-119133628D01*
X201790000Y-119133628D02*
X201599524Y-119086009D01*
X201599524Y-119086009D02*
X201504286Y-119038390D01*
X201504286Y-119038390D02*
X201456667Y-118990771D01*
X201456667Y-118990771D02*
X201409048Y-118895533D01*
X201409048Y-118895533D02*
X201409048Y-118800295D01*
X201409048Y-118800295D02*
X201456667Y-118705057D01*
X201456667Y-118705057D02*
X201504286Y-118657438D01*
X201504286Y-118657438D02*
X201599524Y-118609819D01*
X201599524Y-118609819D02*
X201837619Y-118609819D01*
X201837619Y-118609819D02*
X201980476Y-118657438D01*
X202599524Y-118609819D02*
X202694762Y-118609819D01*
X202694762Y-118609819D02*
X202790000Y-118657438D01*
X202790000Y-118657438D02*
X202837619Y-118705057D01*
X202837619Y-118705057D02*
X202885238Y-118800295D01*
X202885238Y-118800295D02*
X202932857Y-118990771D01*
X202932857Y-118990771D02*
X202932857Y-119228866D01*
X202932857Y-119228866D02*
X202885238Y-119419342D01*
X202885238Y-119419342D02*
X202837619Y-119514580D01*
X202837619Y-119514580D02*
X202790000Y-119562200D01*
X202790000Y-119562200D02*
X202694762Y-119609819D01*
X202694762Y-119609819D02*
X202599524Y-119609819D01*
X202599524Y-119609819D02*
X202504286Y-119562200D01*
X202504286Y-119562200D02*
X202456667Y-119514580D01*
X202456667Y-119514580D02*
X202409048Y-119419342D01*
X202409048Y-119419342D02*
X202361429Y-119228866D01*
X202361429Y-119228866D02*
X202361429Y-118990771D01*
X202361429Y-118990771D02*
X202409048Y-118800295D01*
X202409048Y-118800295D02*
X202456667Y-118705057D01*
X202456667Y-118705057D02*
X202504286Y-118657438D01*
X202504286Y-118657438D02*
X202599524Y-118609819D01*
X203551905Y-118609819D02*
X203647143Y-118609819D01*
X203647143Y-118609819D02*
X203742381Y-118657438D01*
X203742381Y-118657438D02*
X203790000Y-118705057D01*
X203790000Y-118705057D02*
X203837619Y-118800295D01*
X203837619Y-118800295D02*
X203885238Y-118990771D01*
X203885238Y-118990771D02*
X203885238Y-119228866D01*
X203885238Y-119228866D02*
X203837619Y-119419342D01*
X203837619Y-119419342D02*
X203790000Y-119514580D01*
X203790000Y-119514580D02*
X203742381Y-119562200D01*
X203742381Y-119562200D02*
X203647143Y-119609819D01*
X203647143Y-119609819D02*
X203551905Y-119609819D01*
X203551905Y-119609819D02*
X203456667Y-119562200D01*
X203456667Y-119562200D02*
X203409048Y-119514580D01*
X203409048Y-119514580D02*
X203361429Y-119419342D01*
X203361429Y-119419342D02*
X203313810Y-119228866D01*
X203313810Y-119228866D02*
X203313810Y-118990771D01*
X203313810Y-118990771D02*
X203361429Y-118800295D01*
X203361429Y-118800295D02*
X203409048Y-118705057D01*
X203409048Y-118705057D02*
X203456667Y-118657438D01*
X203456667Y-118657438D02*
X203551905Y-118609819D01*
X201738095Y-104754819D02*
X201738095Y-103754819D01*
X201738095Y-104231009D02*
X202309523Y-104231009D01*
X202309523Y-104754819D02*
X202309523Y-103754819D01*
X202738095Y-103850057D02*
X202785714Y-103802438D01*
X202785714Y-103802438D02*
X202880952Y-103754819D01*
X202880952Y-103754819D02*
X203119047Y-103754819D01*
X203119047Y-103754819D02*
X203214285Y-103802438D01*
X203214285Y-103802438D02*
X203261904Y-103850057D01*
X203261904Y-103850057D02*
X203309523Y-103945295D01*
X203309523Y-103945295D02*
X203309523Y-104040533D01*
X203309523Y-104040533D02*
X203261904Y-104183390D01*
X203261904Y-104183390D02*
X202690476Y-104754819D01*
X202690476Y-104754819D02*
X203309523Y-104754819D01*
X130258095Y-109574819D02*
X130258095Y-110384342D01*
X130258095Y-110384342D02*
X130305714Y-110479580D01*
X130305714Y-110479580D02*
X130353333Y-110527200D01*
X130353333Y-110527200D02*
X130448571Y-110574819D01*
X130448571Y-110574819D02*
X130639047Y-110574819D01*
X130639047Y-110574819D02*
X130734285Y-110527200D01*
X130734285Y-110527200D02*
X130781904Y-110479580D01*
X130781904Y-110479580D02*
X130829523Y-110384342D01*
X130829523Y-110384342D02*
X130829523Y-109574819D01*
X131829523Y-110574819D02*
X131258095Y-110574819D01*
X131543809Y-110574819D02*
X131543809Y-109574819D01*
X131543809Y-109574819D02*
X131448571Y-109717676D01*
X131448571Y-109717676D02*
X131353333Y-109812914D01*
X131353333Y-109812914D02*
X131258095Y-109860533D01*
X156233333Y-133754786D02*
X155900000Y-133278595D01*
X155661905Y-133754786D02*
X155661905Y-132754786D01*
X155661905Y-132754786D02*
X156042857Y-132754786D01*
X156042857Y-132754786D02*
X156138095Y-132802405D01*
X156138095Y-132802405D02*
X156185714Y-132850024D01*
X156185714Y-132850024D02*
X156233333Y-132945262D01*
X156233333Y-132945262D02*
X156233333Y-133088119D01*
X156233333Y-133088119D02*
X156185714Y-133183357D01*
X156185714Y-133183357D02*
X156138095Y-133230976D01*
X156138095Y-133230976D02*
X156042857Y-133278595D01*
X156042857Y-133278595D02*
X155661905Y-133278595D01*
X156614286Y-132850024D02*
X156661905Y-132802405D01*
X156661905Y-132802405D02*
X156757143Y-132754786D01*
X156757143Y-132754786D02*
X156995238Y-132754786D01*
X156995238Y-132754786D02*
X157090476Y-132802405D01*
X157090476Y-132802405D02*
X157138095Y-132850024D01*
X157138095Y-132850024D02*
X157185714Y-132945262D01*
X157185714Y-132945262D02*
X157185714Y-133040500D01*
X157185714Y-133040500D02*
X157138095Y-133183357D01*
X157138095Y-133183357D02*
X156566667Y-133754786D01*
X156566667Y-133754786D02*
X157185714Y-133754786D01*
X148409523Y-133854786D02*
X147838095Y-133854786D01*
X148123809Y-133854786D02*
X148123809Y-132854786D01*
X148123809Y-132854786D02*
X148028571Y-132997643D01*
X148028571Y-132997643D02*
X147933333Y-133092881D01*
X147933333Y-133092881D02*
X147838095Y-133140500D01*
X149028571Y-132854786D02*
X149123809Y-132854786D01*
X149123809Y-132854786D02*
X149219047Y-132902405D01*
X149219047Y-132902405D02*
X149266666Y-132950024D01*
X149266666Y-132950024D02*
X149314285Y-133045262D01*
X149314285Y-133045262D02*
X149361904Y-133235738D01*
X149361904Y-133235738D02*
X149361904Y-133473833D01*
X149361904Y-133473833D02*
X149314285Y-133664309D01*
X149314285Y-133664309D02*
X149266666Y-133759547D01*
X149266666Y-133759547D02*
X149219047Y-133807167D01*
X149219047Y-133807167D02*
X149123809Y-133854786D01*
X149123809Y-133854786D02*
X149028571Y-133854786D01*
X149028571Y-133854786D02*
X148933333Y-133807167D01*
X148933333Y-133807167D02*
X148885714Y-133759547D01*
X148885714Y-133759547D02*
X148838095Y-133664309D01*
X148838095Y-133664309D02*
X148790476Y-133473833D01*
X148790476Y-133473833D02*
X148790476Y-133235738D01*
X148790476Y-133235738D02*
X148838095Y-133045262D01*
X148838095Y-133045262D02*
X148885714Y-132950024D01*
X148885714Y-132950024D02*
X148933333Y-132902405D01*
X148933333Y-132902405D02*
X149028571Y-132854786D01*
X149790476Y-133854786D02*
X149790476Y-132854786D01*
X150361904Y-133854786D02*
X149933333Y-133283357D01*
X150361904Y-132854786D02*
X149790476Y-133426214D01*
X156233333Y-145754787D02*
X155900000Y-145278596D01*
X155661905Y-145754787D02*
X155661905Y-144754787D01*
X155661905Y-144754787D02*
X156042857Y-144754787D01*
X156042857Y-144754787D02*
X156138095Y-144802406D01*
X156138095Y-144802406D02*
X156185714Y-144850025D01*
X156185714Y-144850025D02*
X156233333Y-144945263D01*
X156233333Y-144945263D02*
X156233333Y-145088120D01*
X156233333Y-145088120D02*
X156185714Y-145183358D01*
X156185714Y-145183358D02*
X156138095Y-145230977D01*
X156138095Y-145230977D02*
X156042857Y-145278596D01*
X156042857Y-145278596D02*
X155661905Y-145278596D01*
X157138095Y-144754787D02*
X156661905Y-144754787D01*
X156661905Y-144754787D02*
X156614286Y-145230977D01*
X156614286Y-145230977D02*
X156661905Y-145183358D01*
X156661905Y-145183358D02*
X156757143Y-145135739D01*
X156757143Y-145135739D02*
X156995238Y-145135739D01*
X156995238Y-145135739D02*
X157090476Y-145183358D01*
X157090476Y-145183358D02*
X157138095Y-145230977D01*
X157138095Y-145230977D02*
X157185714Y-145326215D01*
X157185714Y-145326215D02*
X157185714Y-145564310D01*
X157185714Y-145564310D02*
X157138095Y-145659548D01*
X157138095Y-145659548D02*
X157090476Y-145707168D01*
X157090476Y-145707168D02*
X156995238Y-145754787D01*
X156995238Y-145754787D02*
X156757143Y-145754787D01*
X156757143Y-145754787D02*
X156661905Y-145707168D01*
X156661905Y-145707168D02*
X156614286Y-145659548D01*
X147552381Y-144754787D02*
X148171428Y-144754787D01*
X148171428Y-144754787D02*
X147838095Y-145135739D01*
X147838095Y-145135739D02*
X147980952Y-145135739D01*
X147980952Y-145135739D02*
X148076190Y-145183358D01*
X148076190Y-145183358D02*
X148123809Y-145230977D01*
X148123809Y-145230977D02*
X148171428Y-145326215D01*
X148171428Y-145326215D02*
X148171428Y-145564310D01*
X148171428Y-145564310D02*
X148123809Y-145659548D01*
X148123809Y-145659548D02*
X148076190Y-145707168D01*
X148076190Y-145707168D02*
X147980952Y-145754787D01*
X147980952Y-145754787D02*
X147695238Y-145754787D01*
X147695238Y-145754787D02*
X147600000Y-145707168D01*
X147600000Y-145707168D02*
X147552381Y-145659548D01*
X148600000Y-145659548D02*
X148647619Y-145707168D01*
X148647619Y-145707168D02*
X148600000Y-145754787D01*
X148600000Y-145754787D02*
X148552381Y-145707168D01*
X148552381Y-145707168D02*
X148600000Y-145659548D01*
X148600000Y-145659548D02*
X148600000Y-145754787D01*
X148980952Y-144754787D02*
X149599999Y-144754787D01*
X149599999Y-144754787D02*
X149266666Y-145135739D01*
X149266666Y-145135739D02*
X149409523Y-145135739D01*
X149409523Y-145135739D02*
X149504761Y-145183358D01*
X149504761Y-145183358D02*
X149552380Y-145230977D01*
X149552380Y-145230977D02*
X149599999Y-145326215D01*
X149599999Y-145326215D02*
X149599999Y-145564310D01*
X149599999Y-145564310D02*
X149552380Y-145659548D01*
X149552380Y-145659548D02*
X149504761Y-145707168D01*
X149504761Y-145707168D02*
X149409523Y-145754787D01*
X149409523Y-145754787D02*
X149123809Y-145754787D01*
X149123809Y-145754787D02*
X149028571Y-145707168D01*
X149028571Y-145707168D02*
X148980952Y-145659548D01*
X150028571Y-145754787D02*
X150028571Y-144754787D01*
X150599999Y-145754787D02*
X150171428Y-145183358D01*
X150599999Y-144754787D02*
X150028571Y-145326215D01*
X105014495Y-154897219D02*
X105014495Y-153897219D01*
X105014495Y-154373409D02*
X105585923Y-154373409D01*
X105585923Y-154897219D02*
X105585923Y-153897219D01*
X105966876Y-153897219D02*
X106585923Y-153897219D01*
X106585923Y-153897219D02*
X106252590Y-154278171D01*
X106252590Y-154278171D02*
X106395447Y-154278171D01*
X106395447Y-154278171D02*
X106490685Y-154325790D01*
X106490685Y-154325790D02*
X106538304Y-154373409D01*
X106538304Y-154373409D02*
X106585923Y-154468647D01*
X106585923Y-154468647D02*
X106585923Y-154706742D01*
X106585923Y-154706742D02*
X106538304Y-154801980D01*
X106538304Y-154801980D02*
X106490685Y-154849600D01*
X106490685Y-154849600D02*
X106395447Y-154897219D01*
X106395447Y-154897219D02*
X106109733Y-154897219D01*
X106109733Y-154897219D02*
X106014495Y-154849600D01*
X106014495Y-154849600D02*
X105966876Y-154801980D01*
X156133333Y-129754819D02*
X155800000Y-129278628D01*
X155561905Y-129754819D02*
X155561905Y-128754819D01*
X155561905Y-128754819D02*
X155942857Y-128754819D01*
X155942857Y-128754819D02*
X156038095Y-128802438D01*
X156038095Y-128802438D02*
X156085714Y-128850057D01*
X156085714Y-128850057D02*
X156133333Y-128945295D01*
X156133333Y-128945295D02*
X156133333Y-129088152D01*
X156133333Y-129088152D02*
X156085714Y-129183390D01*
X156085714Y-129183390D02*
X156038095Y-129231009D01*
X156038095Y-129231009D02*
X155942857Y-129278628D01*
X155942857Y-129278628D02*
X155561905Y-129278628D01*
X157085714Y-129754819D02*
X156514286Y-129754819D01*
X156800000Y-129754819D02*
X156800000Y-128754819D01*
X156800000Y-128754819D02*
X156704762Y-128897676D01*
X156704762Y-128897676D02*
X156609524Y-128992914D01*
X156609524Y-128992914D02*
X156514286Y-129040533D01*
X147652381Y-128954819D02*
X148271428Y-128954819D01*
X148271428Y-128954819D02*
X147938095Y-129335771D01*
X147938095Y-129335771D02*
X148080952Y-129335771D01*
X148080952Y-129335771D02*
X148176190Y-129383390D01*
X148176190Y-129383390D02*
X148223809Y-129431009D01*
X148223809Y-129431009D02*
X148271428Y-129526247D01*
X148271428Y-129526247D02*
X148271428Y-129764342D01*
X148271428Y-129764342D02*
X148223809Y-129859580D01*
X148223809Y-129859580D02*
X148176190Y-129907200D01*
X148176190Y-129907200D02*
X148080952Y-129954819D01*
X148080952Y-129954819D02*
X147795238Y-129954819D01*
X147795238Y-129954819D02*
X147700000Y-129907200D01*
X147700000Y-129907200D02*
X147652381Y-129859580D01*
X148700000Y-129859580D02*
X148747619Y-129907200D01*
X148747619Y-129907200D02*
X148700000Y-129954819D01*
X148700000Y-129954819D02*
X148652381Y-129907200D01*
X148652381Y-129907200D02*
X148700000Y-129859580D01*
X148700000Y-129859580D02*
X148700000Y-129954819D01*
X149080952Y-128954819D02*
X149699999Y-128954819D01*
X149699999Y-128954819D02*
X149366666Y-129335771D01*
X149366666Y-129335771D02*
X149509523Y-129335771D01*
X149509523Y-129335771D02*
X149604761Y-129383390D01*
X149604761Y-129383390D02*
X149652380Y-129431009D01*
X149652380Y-129431009D02*
X149699999Y-129526247D01*
X149699999Y-129526247D02*
X149699999Y-129764342D01*
X149699999Y-129764342D02*
X149652380Y-129859580D01*
X149652380Y-129859580D02*
X149604761Y-129907200D01*
X149604761Y-129907200D02*
X149509523Y-129954819D01*
X149509523Y-129954819D02*
X149223809Y-129954819D01*
X149223809Y-129954819D02*
X149128571Y-129907200D01*
X149128571Y-129907200D02*
X149080952Y-129859580D01*
X150128571Y-129954819D02*
X150128571Y-128954819D01*
X150699999Y-129954819D02*
X150271428Y-129383390D01*
X150699999Y-128954819D02*
X150128571Y-129526247D01*
X196066666Y-105224819D02*
X196066666Y-105939104D01*
X196066666Y-105939104D02*
X196019047Y-106081961D01*
X196019047Y-106081961D02*
X195923809Y-106177200D01*
X195923809Y-106177200D02*
X195780952Y-106224819D01*
X195780952Y-106224819D02*
X195685714Y-106224819D01*
X197066666Y-106224819D02*
X196495238Y-106224819D01*
X196780952Y-106224819D02*
X196780952Y-105224819D01*
X196780952Y-105224819D02*
X196685714Y-105367676D01*
X196685714Y-105367676D02*
X196590476Y-105462914D01*
X196590476Y-105462914D02*
X196495238Y-105510533D01*
X143959580Y-120366666D02*
X144007200Y-120414285D01*
X144007200Y-120414285D02*
X144054819Y-120557142D01*
X144054819Y-120557142D02*
X144054819Y-120652380D01*
X144054819Y-120652380D02*
X144007200Y-120795237D01*
X144007200Y-120795237D02*
X143911961Y-120890475D01*
X143911961Y-120890475D02*
X143816723Y-120938094D01*
X143816723Y-120938094D02*
X143626247Y-120985713D01*
X143626247Y-120985713D02*
X143483390Y-120985713D01*
X143483390Y-120985713D02*
X143292914Y-120938094D01*
X143292914Y-120938094D02*
X143197676Y-120890475D01*
X143197676Y-120890475D02*
X143102438Y-120795237D01*
X143102438Y-120795237D02*
X143054819Y-120652380D01*
X143054819Y-120652380D02*
X143054819Y-120557142D01*
X143054819Y-120557142D02*
X143102438Y-120414285D01*
X143102438Y-120414285D02*
X143150057Y-120366666D01*
X144054819Y-119414285D02*
X144054819Y-119985713D01*
X144054819Y-119699999D02*
X143054819Y-119699999D01*
X143054819Y-119699999D02*
X143197676Y-119795237D01*
X143197676Y-119795237D02*
X143292914Y-119890475D01*
X143292914Y-119890475D02*
X143340533Y-119985713D01*
X148054819Y-121842856D02*
X148054819Y-121747618D01*
X148054819Y-121747618D02*
X148102438Y-121652380D01*
X148102438Y-121652380D02*
X148150057Y-121604761D01*
X148150057Y-121604761D02*
X148245295Y-121557142D01*
X148245295Y-121557142D02*
X148435771Y-121509523D01*
X148435771Y-121509523D02*
X148673866Y-121509523D01*
X148673866Y-121509523D02*
X148864342Y-121557142D01*
X148864342Y-121557142D02*
X148959580Y-121604761D01*
X148959580Y-121604761D02*
X149007200Y-121652380D01*
X149007200Y-121652380D02*
X149054819Y-121747618D01*
X149054819Y-121747618D02*
X149054819Y-121842856D01*
X149054819Y-121842856D02*
X149007200Y-121938094D01*
X149007200Y-121938094D02*
X148959580Y-121985713D01*
X148959580Y-121985713D02*
X148864342Y-122033332D01*
X148864342Y-122033332D02*
X148673866Y-122080951D01*
X148673866Y-122080951D02*
X148435771Y-122080951D01*
X148435771Y-122080951D02*
X148245295Y-122033332D01*
X148245295Y-122033332D02*
X148150057Y-121985713D01*
X148150057Y-121985713D02*
X148102438Y-121938094D01*
X148102438Y-121938094D02*
X148054819Y-121842856D01*
X148959580Y-121080951D02*
X149007200Y-121033332D01*
X149007200Y-121033332D02*
X149054819Y-121080951D01*
X149054819Y-121080951D02*
X149007200Y-121128570D01*
X149007200Y-121128570D02*
X148959580Y-121080951D01*
X148959580Y-121080951D02*
X149054819Y-121080951D01*
X149054819Y-120080952D02*
X149054819Y-120652380D01*
X149054819Y-120366666D02*
X148054819Y-120366666D01*
X148054819Y-120366666D02*
X148197676Y-120461904D01*
X148197676Y-120461904D02*
X148292914Y-120557142D01*
X148292914Y-120557142D02*
X148340533Y-120652380D01*
X148388152Y-119223809D02*
X149054819Y-119223809D01*
X148388152Y-119652380D02*
X148911961Y-119652380D01*
X148911961Y-119652380D02*
X149007200Y-119604761D01*
X149007200Y-119604761D02*
X149054819Y-119509523D01*
X149054819Y-119509523D02*
X149054819Y-119366666D01*
X149054819Y-119366666D02*
X149007200Y-119271428D01*
X149007200Y-119271428D02*
X148959580Y-119223809D01*
X148531009Y-118414285D02*
X148531009Y-118747618D01*
X149054819Y-118747618D02*
X148054819Y-118747618D01*
X148054819Y-118747618D02*
X148054819Y-118271428D01*
X156133333Y-153654819D02*
X155800000Y-153178628D01*
X155561905Y-153654819D02*
X155561905Y-152654819D01*
X155561905Y-152654819D02*
X155942857Y-152654819D01*
X155942857Y-152654819D02*
X156038095Y-152702438D01*
X156038095Y-152702438D02*
X156085714Y-152750057D01*
X156085714Y-152750057D02*
X156133333Y-152845295D01*
X156133333Y-152845295D02*
X156133333Y-152988152D01*
X156133333Y-152988152D02*
X156085714Y-153083390D01*
X156085714Y-153083390D02*
X156038095Y-153131009D01*
X156038095Y-153131009D02*
X155942857Y-153178628D01*
X155942857Y-153178628D02*
X155561905Y-153178628D01*
X156466667Y-152654819D02*
X157133333Y-152654819D01*
X157133333Y-152654819D02*
X156704762Y-153654819D01*
X147480000Y-152750057D02*
X147527619Y-152702438D01*
X147527619Y-152702438D02*
X147622857Y-152654819D01*
X147622857Y-152654819D02*
X147860952Y-152654819D01*
X147860952Y-152654819D02*
X147956190Y-152702438D01*
X147956190Y-152702438D02*
X148003809Y-152750057D01*
X148003809Y-152750057D02*
X148051428Y-152845295D01*
X148051428Y-152845295D02*
X148051428Y-152940533D01*
X148051428Y-152940533D02*
X148003809Y-153083390D01*
X148003809Y-153083390D02*
X147432381Y-153654819D01*
X147432381Y-153654819D02*
X148051428Y-153654819D01*
X148480000Y-153559580D02*
X148527619Y-153607200D01*
X148527619Y-153607200D02*
X148480000Y-153654819D01*
X148480000Y-153654819D02*
X148432381Y-153607200D01*
X148432381Y-153607200D02*
X148480000Y-153559580D01*
X148480000Y-153559580D02*
X148480000Y-153654819D01*
X148908571Y-152750057D02*
X148956190Y-152702438D01*
X148956190Y-152702438D02*
X149051428Y-152654819D01*
X149051428Y-152654819D02*
X149289523Y-152654819D01*
X149289523Y-152654819D02*
X149384761Y-152702438D01*
X149384761Y-152702438D02*
X149432380Y-152750057D01*
X149432380Y-152750057D02*
X149479999Y-152845295D01*
X149479999Y-152845295D02*
X149479999Y-152940533D01*
X149479999Y-152940533D02*
X149432380Y-153083390D01*
X149432380Y-153083390D02*
X148860952Y-153654819D01*
X148860952Y-153654819D02*
X149479999Y-153654819D01*
X149908571Y-153654819D02*
X149908571Y-152654819D01*
X150479999Y-153654819D02*
X150051428Y-153083390D01*
X150479999Y-152654819D02*
X149908571Y-153226247D01*
X134366666Y-102154819D02*
X134366666Y-102869104D01*
X134366666Y-102869104D02*
X134319047Y-103011961D01*
X134319047Y-103011961D02*
X134223809Y-103107200D01*
X134223809Y-103107200D02*
X134080952Y-103154819D01*
X134080952Y-103154819D02*
X133985714Y-103154819D01*
X134842857Y-103154819D02*
X134842857Y-102154819D01*
X134842857Y-102154819D02*
X135223809Y-102154819D01*
X135223809Y-102154819D02*
X135319047Y-102202438D01*
X135319047Y-102202438D02*
X135366666Y-102250057D01*
X135366666Y-102250057D02*
X135414285Y-102345295D01*
X135414285Y-102345295D02*
X135414285Y-102488152D01*
X135414285Y-102488152D02*
X135366666Y-102583390D01*
X135366666Y-102583390D02*
X135319047Y-102631009D01*
X135319047Y-102631009D02*
X135223809Y-102678628D01*
X135223809Y-102678628D02*
X134842857Y-102678628D01*
X136366666Y-103154819D02*
X135795238Y-103154819D01*
X136080952Y-103154819D02*
X136080952Y-102154819D01*
X136080952Y-102154819D02*
X135985714Y-102297676D01*
X135985714Y-102297676D02*
X135890476Y-102392914D01*
X135890476Y-102392914D02*
X135795238Y-102440533D01*
X156033333Y-148554854D02*
X155700000Y-148078663D01*
X155461905Y-148554854D02*
X155461905Y-147554854D01*
X155461905Y-147554854D02*
X155842857Y-147554854D01*
X155842857Y-147554854D02*
X155938095Y-147602473D01*
X155938095Y-147602473D02*
X155985714Y-147650092D01*
X155985714Y-147650092D02*
X156033333Y-147745330D01*
X156033333Y-147745330D02*
X156033333Y-147888187D01*
X156033333Y-147888187D02*
X155985714Y-147983425D01*
X155985714Y-147983425D02*
X155938095Y-148031044D01*
X155938095Y-148031044D02*
X155842857Y-148078663D01*
X155842857Y-148078663D02*
X155461905Y-148078663D01*
X156890476Y-147554854D02*
X156700000Y-147554854D01*
X156700000Y-147554854D02*
X156604762Y-147602473D01*
X156604762Y-147602473D02*
X156557143Y-147650092D01*
X156557143Y-147650092D02*
X156461905Y-147792949D01*
X156461905Y-147792949D02*
X156414286Y-147983425D01*
X156414286Y-147983425D02*
X156414286Y-148364377D01*
X156414286Y-148364377D02*
X156461905Y-148459615D01*
X156461905Y-148459615D02*
X156509524Y-148507235D01*
X156509524Y-148507235D02*
X156604762Y-148554854D01*
X156604762Y-148554854D02*
X156795238Y-148554854D01*
X156795238Y-148554854D02*
X156890476Y-148507235D01*
X156890476Y-148507235D02*
X156938095Y-148459615D01*
X156938095Y-148459615D02*
X156985714Y-148364377D01*
X156985714Y-148364377D02*
X156985714Y-148126282D01*
X156985714Y-148126282D02*
X156938095Y-148031044D01*
X156938095Y-148031044D02*
X156890476Y-147983425D01*
X156890476Y-147983425D02*
X156795238Y-147935806D01*
X156795238Y-147935806D02*
X156604762Y-147935806D01*
X156604762Y-147935806D02*
X156509524Y-147983425D01*
X156509524Y-147983425D02*
X156461905Y-148031044D01*
X156461905Y-148031044D02*
X156414286Y-148126282D01*
X147500000Y-148950092D02*
X147547619Y-148902473D01*
X147547619Y-148902473D02*
X147642857Y-148854854D01*
X147642857Y-148854854D02*
X147880952Y-148854854D01*
X147880952Y-148854854D02*
X147976190Y-148902473D01*
X147976190Y-148902473D02*
X148023809Y-148950092D01*
X148023809Y-148950092D02*
X148071428Y-149045330D01*
X148071428Y-149045330D02*
X148071428Y-149140568D01*
X148071428Y-149140568D02*
X148023809Y-149283425D01*
X148023809Y-149283425D02*
X147452381Y-149854854D01*
X147452381Y-149854854D02*
X148071428Y-149854854D01*
X148500000Y-149759615D02*
X148547619Y-149807235D01*
X148547619Y-149807235D02*
X148500000Y-149854854D01*
X148500000Y-149854854D02*
X148452381Y-149807235D01*
X148452381Y-149807235D02*
X148500000Y-149759615D01*
X148500000Y-149759615D02*
X148500000Y-149854854D01*
X148928571Y-148950092D02*
X148976190Y-148902473D01*
X148976190Y-148902473D02*
X149071428Y-148854854D01*
X149071428Y-148854854D02*
X149309523Y-148854854D01*
X149309523Y-148854854D02*
X149404761Y-148902473D01*
X149404761Y-148902473D02*
X149452380Y-148950092D01*
X149452380Y-148950092D02*
X149499999Y-149045330D01*
X149499999Y-149045330D02*
X149499999Y-149140568D01*
X149499999Y-149140568D02*
X149452380Y-149283425D01*
X149452380Y-149283425D02*
X148880952Y-149854854D01*
X148880952Y-149854854D02*
X149499999Y-149854854D01*
X149928571Y-149854854D02*
X149928571Y-148854854D01*
X150499999Y-149854854D02*
X150071428Y-149283425D01*
X150499999Y-148854854D02*
X149928571Y-149426282D01*
D13*
%TO.C,J2*%
X186718000Y-128723200D02*
X186718000Y-134057200D01*
X182319000Y-128723200D02*
X186718000Y-128723200D01*
X158062000Y-128723200D02*
X157973000Y-128723200D01*
X157973000Y-128723200D02*
X157973000Y-134057200D01*
X186618000Y-150667200D02*
X186618000Y-157706200D01*
X157973000Y-151829200D02*
X157973000Y-157706200D01*
X186618000Y-157706200D02*
X185200000Y-157718200D01*
X157973000Y-157706200D02*
X158951000Y-157706200D01*
D14*
%TO.C,R3*%
X153020000Y-137266700D02*
X152250000Y-137266700D01*
X152250000Y-138636700D02*
X152250000Y-135896700D01*
X152250000Y-135896700D02*
X145710000Y-135896700D01*
X145710000Y-138636700D02*
X152250000Y-138636700D01*
X145710000Y-135896700D02*
X145710000Y-138636700D01*
X144940000Y-137266700D02*
X145710000Y-137266700D01*
%TO.C,R4*%
X153020000Y-141250000D02*
X152250000Y-141250000D01*
X152250000Y-142620000D02*
X152250000Y-139880000D01*
X152250000Y-139880000D02*
X145710000Y-139880000D01*
X145710000Y-142620000D02*
X152250000Y-142620000D01*
X145710000Y-139880000D02*
X145710000Y-142620000D01*
X144940000Y-141250000D02*
X145710000Y-141250000D01*
%TO.C,D1*%
X120920000Y-152315800D02*
X120920000Y-151315800D01*
X120920000Y-151315800D02*
X119920000Y-151815800D01*
X119920000Y-151815800D02*
X120920000Y-152315800D01*
X119530000Y-157025800D02*
X110410000Y-157025800D01*
X119530000Y-133545800D02*
X118220000Y-133545800D01*
X119530000Y-105965800D02*
X119530000Y-157025800D01*
X118220000Y-155725800D02*
X111720000Y-155725800D01*
X118220000Y-133545800D02*
X118220000Y-155725800D01*
X118220000Y-129445800D02*
X119530000Y-129445800D01*
X118220000Y-129445800D02*
X118220000Y-129445800D01*
X118220000Y-107265800D02*
X118220000Y-129445800D01*
X111720000Y-155725800D02*
X111720000Y-107265800D01*
X111720000Y-107265800D02*
X118220000Y-107265800D01*
X110410000Y-157025800D02*
X110410000Y-105965800D01*
X110410000Y-105965800D02*
X119530000Y-105965800D01*
%TO.C,U2*%
X206540000Y-138115000D02*
X206540000Y-120095000D01*
X206540000Y-120095000D02*
X196040000Y-120095000D01*
X203540000Y-138055000D02*
X203540000Y-120155000D01*
X203540000Y-120155000D02*
X199040000Y-120155000D01*
X202290000Y-138055000D02*
X203540000Y-138055000D01*
X199040000Y-138055000D02*
X200290000Y-138055000D01*
X199040000Y-120155000D02*
X199040000Y-138055000D01*
X196040000Y-138115000D02*
X206540000Y-138115000D01*
X196040000Y-120095000D02*
X196040000Y-138115000D01*
X202290000Y-138055000D02*
G75*
G03*
X200290000Y-138055000I-1000000J0D01*
G01*
%TO.C,U1*%
X122003000Y-111263000D02*
X122003000Y-113930000D01*
X122003000Y-116470000D02*
X122003000Y-154697000D01*
X122003000Y-154697000D02*
X127083000Y-154697000D01*
X124670000Y-113930000D02*
X122003000Y-113930000D01*
X124670000Y-116470000D02*
X122003000Y-116470000D01*
X124670000Y-116470000D02*
X124670000Y-113930000D01*
X124670000Y-116470000D02*
X124670000Y-152030000D01*
X124670000Y-152030000D02*
X122000000Y-152030000D01*
X127083000Y-157237000D02*
X127083000Y-154697000D01*
X127083000Y-157237000D02*
X134957000Y-157237000D01*
X134957000Y-154697000D02*
X140037000Y-154697000D01*
X134957000Y-157237000D02*
X134957000Y-154697000D01*
X137370000Y-113930000D02*
X137370000Y-152030000D01*
X137370000Y-113930000D02*
X140040000Y-113930000D01*
X137370000Y-152030000D02*
X140040000Y-152030000D01*
X140037000Y-111263000D02*
X122003000Y-111263000D01*
X140037000Y-154697000D02*
X140037000Y-111263000D01*
%TO.C,R2*%
X144940000Y-133283300D02*
X145710000Y-133283300D01*
X145710000Y-131913300D02*
X145710000Y-134653300D01*
X145710000Y-134653300D02*
X152250000Y-134653300D01*
X152250000Y-131913300D02*
X145710000Y-131913300D01*
X152250000Y-134653300D02*
X152250000Y-131913300D01*
X153020000Y-133283300D02*
X152250000Y-133283300D01*
%TO.C,R5*%
X153020000Y-145233300D02*
X152250000Y-145233300D01*
X152250000Y-146603300D02*
X152250000Y-143863300D01*
X152250000Y-143863300D02*
X145710000Y-143863300D01*
X145710000Y-146603300D02*
X152250000Y-146603300D01*
X145710000Y-143863300D02*
X145710000Y-146603300D01*
X144940000Y-145233300D02*
X145710000Y-145233300D01*
%TO.C,R1*%
X144940000Y-129300000D02*
X145710000Y-129300000D01*
X145710000Y-127930000D02*
X145710000Y-130670000D01*
X145710000Y-130670000D02*
X152250000Y-130670000D01*
X152250000Y-127930000D02*
X145710000Y-127930000D01*
X152250000Y-130670000D02*
X152250000Y-127930000D01*
X153020000Y-129300000D02*
X152250000Y-129300000D01*
%TO.C,J1*%
X195070000Y-106770000D02*
X196400000Y-106770000D01*
X195070000Y-108100000D02*
X195070000Y-106770000D01*
X195070000Y-109370000D02*
X195070000Y-117050000D01*
X195070000Y-109370000D02*
X197730000Y-109370000D01*
X195070000Y-117050000D02*
X197730000Y-117050000D01*
X197730000Y-109370000D02*
X197730000Y-117050000D01*
%TO.C,C1*%
X144730000Y-123820000D02*
X147470000Y-123820000D01*
X144730000Y-123820000D02*
X144730000Y-116580000D01*
X147470000Y-123820000D02*
X147470000Y-116580000D01*
X144730000Y-116580000D02*
X147470000Y-116580000D01*
%TO.C,R7*%
X153020000Y-153200000D02*
X152250000Y-153200000D01*
X152250000Y-154570000D02*
X152250000Y-151830000D01*
X152250000Y-151830000D02*
X145710000Y-151830000D01*
X145710000Y-154570000D02*
X152250000Y-154570000D01*
X145710000Y-151830000D02*
X145710000Y-154570000D01*
X144940000Y-153200000D02*
X145710000Y-153200000D01*
%TO.C,JP1*%
X139005000Y-103770000D02*
X139005000Y-105100000D01*
X137675000Y-103770000D02*
X139005000Y-103770000D01*
X136405000Y-103770000D02*
X131265000Y-103770000D01*
X136405000Y-103770000D02*
X136405000Y-106430000D01*
X131265000Y-103770000D02*
X131265000Y-106430000D01*
X136405000Y-106430000D02*
X131265000Y-106430000D01*
%TO.C,R6*%
X153020000Y-149216700D02*
X152250000Y-149216700D01*
X152250000Y-150586700D02*
X152250000Y-147846700D01*
X152250000Y-147846700D02*
X145710000Y-147846700D01*
X145710000Y-150586700D02*
X152250000Y-150586700D01*
X145710000Y-147846700D02*
X145710000Y-150586700D01*
X144940000Y-149216700D02*
X145710000Y-149216700D01*
%TD*%
M02*
