%TF.GenerationSoftware,KiCad,Pcbnew,7.0.1*%
%TF.CreationDate,2024-04-08T12:28:37+03:00*%
%TF.ProjectId,delta_flop_arduino,64656c74-615f-4666-9c6f-705f61726475,rev?*%
%TF.SameCoordinates,Original*%
%TF.FileFunction,Legend,Bot*%
%TF.FilePolarity,Positive*%
%FSLAX46Y46*%
G04 Gerber Fmt 4.6, Leading zero omitted, Abs format (unit mm)*
G04 Created by KiCad (PCBNEW 7.0.1) date 2024-04-08 12:28:37*
%MOMM*%
%LPD*%
G01*
G04 APERTURE LIST*
%ADD10C,0.150000*%
%ADD11C,0.120000*%
G04 APERTURE END LIST*
D10*
%TO.C,SW1*%
X219315000Y-114516667D02*
X219362619Y-114659524D01*
X219362619Y-114659524D02*
X219362619Y-114897619D01*
X219362619Y-114897619D02*
X219315000Y-114992857D01*
X219315000Y-114992857D02*
X219267380Y-115040476D01*
X219267380Y-115040476D02*
X219172142Y-115088095D01*
X219172142Y-115088095D02*
X219076904Y-115088095D01*
X219076904Y-115088095D02*
X218981666Y-115040476D01*
X218981666Y-115040476D02*
X218934047Y-114992857D01*
X218934047Y-114992857D02*
X218886428Y-114897619D01*
X218886428Y-114897619D02*
X218838809Y-114707143D01*
X218838809Y-114707143D02*
X218791190Y-114611905D01*
X218791190Y-114611905D02*
X218743571Y-114564286D01*
X218743571Y-114564286D02*
X218648333Y-114516667D01*
X218648333Y-114516667D02*
X218553095Y-114516667D01*
X218553095Y-114516667D02*
X218457857Y-114564286D01*
X218457857Y-114564286D02*
X218410238Y-114611905D01*
X218410238Y-114611905D02*
X218362619Y-114707143D01*
X218362619Y-114707143D02*
X218362619Y-114945238D01*
X218362619Y-114945238D02*
X218410238Y-115088095D01*
X218362619Y-115421429D02*
X219362619Y-115659524D01*
X219362619Y-115659524D02*
X218648333Y-115850000D01*
X218648333Y-115850000D02*
X219362619Y-116040476D01*
X219362619Y-116040476D02*
X218362619Y-116278572D01*
X219362619Y-117183333D02*
X219362619Y-116611905D01*
X219362619Y-116897619D02*
X218362619Y-116897619D01*
X218362619Y-116897619D02*
X218505476Y-116802381D01*
X218505476Y-116802381D02*
X218600714Y-116707143D01*
X218600714Y-116707143D02*
X218648333Y-116611905D01*
%TO.C,SW2*%
X213033332Y-121877800D02*
X212890475Y-121925419D01*
X212890475Y-121925419D02*
X212652380Y-121925419D01*
X212652380Y-121925419D02*
X212557142Y-121877800D01*
X212557142Y-121877800D02*
X212509523Y-121830180D01*
X212509523Y-121830180D02*
X212461904Y-121734942D01*
X212461904Y-121734942D02*
X212461904Y-121639704D01*
X212461904Y-121639704D02*
X212509523Y-121544466D01*
X212509523Y-121544466D02*
X212557142Y-121496847D01*
X212557142Y-121496847D02*
X212652380Y-121449228D01*
X212652380Y-121449228D02*
X212842856Y-121401609D01*
X212842856Y-121401609D02*
X212938094Y-121353990D01*
X212938094Y-121353990D02*
X212985713Y-121306371D01*
X212985713Y-121306371D02*
X213033332Y-121211133D01*
X213033332Y-121211133D02*
X213033332Y-121115895D01*
X213033332Y-121115895D02*
X212985713Y-121020657D01*
X212985713Y-121020657D02*
X212938094Y-120973038D01*
X212938094Y-120973038D02*
X212842856Y-120925419D01*
X212842856Y-120925419D02*
X212604761Y-120925419D01*
X212604761Y-120925419D02*
X212461904Y-120973038D01*
X212128570Y-120925419D02*
X211890475Y-121925419D01*
X211890475Y-121925419D02*
X211699999Y-121211133D01*
X211699999Y-121211133D02*
X211509523Y-121925419D01*
X211509523Y-121925419D02*
X211271428Y-120925419D01*
X210938094Y-121020657D02*
X210890475Y-120973038D01*
X210890475Y-120973038D02*
X210795237Y-120925419D01*
X210795237Y-120925419D02*
X210557142Y-120925419D01*
X210557142Y-120925419D02*
X210461904Y-120973038D01*
X210461904Y-120973038D02*
X210414285Y-121020657D01*
X210414285Y-121020657D02*
X210366666Y-121115895D01*
X210366666Y-121115895D02*
X210366666Y-121211133D01*
X210366666Y-121211133D02*
X210414285Y-121353990D01*
X210414285Y-121353990D02*
X210985713Y-121925419D01*
X210985713Y-121925419D02*
X210366666Y-121925419D01*
X212319047Y-130625419D02*
X212652380Y-130149228D01*
X212890475Y-130625419D02*
X212890475Y-129625419D01*
X212890475Y-129625419D02*
X212509523Y-129625419D01*
X212509523Y-129625419D02*
X212414285Y-129673038D01*
X212414285Y-129673038D02*
X212366666Y-129720657D01*
X212366666Y-129720657D02*
X212319047Y-129815895D01*
X212319047Y-129815895D02*
X212319047Y-129958752D01*
X212319047Y-129958752D02*
X212366666Y-130053990D01*
X212366666Y-130053990D02*
X212414285Y-130101609D01*
X212414285Y-130101609D02*
X212509523Y-130149228D01*
X212509523Y-130149228D02*
X212890475Y-130149228D01*
X211890475Y-130625419D02*
X211890475Y-129958752D01*
X211890475Y-129625419D02*
X211938094Y-129673038D01*
X211938094Y-129673038D02*
X211890475Y-129720657D01*
X211890475Y-129720657D02*
X211842856Y-129673038D01*
X211842856Y-129673038D02*
X211890475Y-129625419D01*
X211890475Y-129625419D02*
X211890475Y-129720657D01*
X210985714Y-129958752D02*
X210985714Y-130768276D01*
X210985714Y-130768276D02*
X211033333Y-130863514D01*
X211033333Y-130863514D02*
X211080952Y-130911133D01*
X211080952Y-130911133D02*
X211176190Y-130958752D01*
X211176190Y-130958752D02*
X211319047Y-130958752D01*
X211319047Y-130958752D02*
X211414285Y-130911133D01*
X210985714Y-130577800D02*
X211080952Y-130625419D01*
X211080952Y-130625419D02*
X211271428Y-130625419D01*
X211271428Y-130625419D02*
X211366666Y-130577800D01*
X211366666Y-130577800D02*
X211414285Y-130530180D01*
X211414285Y-130530180D02*
X211461904Y-130434942D01*
X211461904Y-130434942D02*
X211461904Y-130149228D01*
X211461904Y-130149228D02*
X211414285Y-130053990D01*
X211414285Y-130053990D02*
X211366666Y-130006371D01*
X211366666Y-130006371D02*
X211271428Y-129958752D01*
X211271428Y-129958752D02*
X211080952Y-129958752D01*
X211080952Y-129958752D02*
X210985714Y-130006371D01*
X210509523Y-130625419D02*
X210509523Y-129625419D01*
X210080952Y-130625419D02*
X210080952Y-130101609D01*
X210080952Y-130101609D02*
X210128571Y-130006371D01*
X210128571Y-130006371D02*
X210223809Y-129958752D01*
X210223809Y-129958752D02*
X210366666Y-129958752D01*
X210366666Y-129958752D02*
X210461904Y-130006371D01*
X210461904Y-130006371D02*
X210509523Y-130053990D01*
X209747618Y-129958752D02*
X209366666Y-129958752D01*
X209604761Y-129625419D02*
X209604761Y-130482561D01*
X209604761Y-130482561D02*
X209557142Y-130577800D01*
X209557142Y-130577800D02*
X209461904Y-130625419D01*
X209461904Y-130625419D02*
X209366666Y-130625419D01*
%TO.C,SW3*%
X213033332Y-131190600D02*
X212890475Y-131238219D01*
X212890475Y-131238219D02*
X212652380Y-131238219D01*
X212652380Y-131238219D02*
X212557142Y-131190600D01*
X212557142Y-131190600D02*
X212509523Y-131142980D01*
X212509523Y-131142980D02*
X212461904Y-131047742D01*
X212461904Y-131047742D02*
X212461904Y-130952504D01*
X212461904Y-130952504D02*
X212509523Y-130857266D01*
X212509523Y-130857266D02*
X212557142Y-130809647D01*
X212557142Y-130809647D02*
X212652380Y-130762028D01*
X212652380Y-130762028D02*
X212842856Y-130714409D01*
X212842856Y-130714409D02*
X212938094Y-130666790D01*
X212938094Y-130666790D02*
X212985713Y-130619171D01*
X212985713Y-130619171D02*
X213033332Y-130523933D01*
X213033332Y-130523933D02*
X213033332Y-130428695D01*
X213033332Y-130428695D02*
X212985713Y-130333457D01*
X212985713Y-130333457D02*
X212938094Y-130285838D01*
X212938094Y-130285838D02*
X212842856Y-130238219D01*
X212842856Y-130238219D02*
X212604761Y-130238219D01*
X212604761Y-130238219D02*
X212461904Y-130285838D01*
X212128570Y-130238219D02*
X211890475Y-131238219D01*
X211890475Y-131238219D02*
X211699999Y-130523933D01*
X211699999Y-130523933D02*
X211509523Y-131238219D01*
X211509523Y-131238219D02*
X211271428Y-130238219D01*
X210985713Y-130238219D02*
X210366666Y-130238219D01*
X210366666Y-130238219D02*
X210699999Y-130619171D01*
X210699999Y-130619171D02*
X210557142Y-130619171D01*
X210557142Y-130619171D02*
X210461904Y-130666790D01*
X210461904Y-130666790D02*
X210414285Y-130714409D01*
X210414285Y-130714409D02*
X210366666Y-130809647D01*
X210366666Y-130809647D02*
X210366666Y-131047742D01*
X210366666Y-131047742D02*
X210414285Y-131142980D01*
X210414285Y-131142980D02*
X210461904Y-131190600D01*
X210461904Y-131190600D02*
X210557142Y-131238219D01*
X210557142Y-131238219D02*
X210842856Y-131238219D01*
X210842856Y-131238219D02*
X210938094Y-131190600D01*
X210938094Y-131190600D02*
X210985713Y-131142980D01*
X211890476Y-139938219D02*
X212366666Y-139938219D01*
X212366666Y-139938219D02*
X212366666Y-138938219D01*
X211176190Y-139890600D02*
X211271428Y-139938219D01*
X211271428Y-139938219D02*
X211461904Y-139938219D01*
X211461904Y-139938219D02*
X211557142Y-139890600D01*
X211557142Y-139890600D02*
X211604761Y-139795361D01*
X211604761Y-139795361D02*
X211604761Y-139414409D01*
X211604761Y-139414409D02*
X211557142Y-139319171D01*
X211557142Y-139319171D02*
X211461904Y-139271552D01*
X211461904Y-139271552D02*
X211271428Y-139271552D01*
X211271428Y-139271552D02*
X211176190Y-139319171D01*
X211176190Y-139319171D02*
X211128571Y-139414409D01*
X211128571Y-139414409D02*
X211128571Y-139509647D01*
X211128571Y-139509647D02*
X211604761Y-139604885D01*
X210842856Y-139271552D02*
X210461904Y-139271552D01*
X210699999Y-139938219D02*
X210699999Y-139081076D01*
X210699999Y-139081076D02*
X210652380Y-138985838D01*
X210652380Y-138985838D02*
X210557142Y-138938219D01*
X210557142Y-138938219D02*
X210461904Y-138938219D01*
X210271427Y-139271552D02*
X209890475Y-139271552D01*
X210128570Y-138938219D02*
X210128570Y-139795361D01*
X210128570Y-139795361D02*
X210080951Y-139890600D01*
X210080951Y-139890600D02*
X209985713Y-139938219D01*
X209985713Y-139938219D02*
X209890475Y-139938219D01*
%TO.C,SW4*%
X213033332Y-140503400D02*
X212890475Y-140551019D01*
X212890475Y-140551019D02*
X212652380Y-140551019D01*
X212652380Y-140551019D02*
X212557142Y-140503400D01*
X212557142Y-140503400D02*
X212509523Y-140455780D01*
X212509523Y-140455780D02*
X212461904Y-140360542D01*
X212461904Y-140360542D02*
X212461904Y-140265304D01*
X212461904Y-140265304D02*
X212509523Y-140170066D01*
X212509523Y-140170066D02*
X212557142Y-140122447D01*
X212557142Y-140122447D02*
X212652380Y-140074828D01*
X212652380Y-140074828D02*
X212842856Y-140027209D01*
X212842856Y-140027209D02*
X212938094Y-139979590D01*
X212938094Y-139979590D02*
X212985713Y-139931971D01*
X212985713Y-139931971D02*
X213033332Y-139836733D01*
X213033332Y-139836733D02*
X213033332Y-139741495D01*
X213033332Y-139741495D02*
X212985713Y-139646257D01*
X212985713Y-139646257D02*
X212938094Y-139598638D01*
X212938094Y-139598638D02*
X212842856Y-139551019D01*
X212842856Y-139551019D02*
X212604761Y-139551019D01*
X212604761Y-139551019D02*
X212461904Y-139598638D01*
X212128570Y-139551019D02*
X211890475Y-140551019D01*
X211890475Y-140551019D02*
X211699999Y-139836733D01*
X211699999Y-139836733D02*
X211509523Y-140551019D01*
X211509523Y-140551019D02*
X211271428Y-139551019D01*
X210461904Y-139884352D02*
X210461904Y-140551019D01*
X210699999Y-139503400D02*
X210938094Y-140217685D01*
X210938094Y-140217685D02*
X210319047Y-140217685D01*
X212890476Y-148727209D02*
X212557143Y-148727209D01*
X212414286Y-149251019D02*
X212890476Y-149251019D01*
X212890476Y-149251019D02*
X212890476Y-148251019D01*
X212890476Y-148251019D02*
X212414286Y-148251019D01*
X211985714Y-148584352D02*
X211985714Y-149251019D01*
X211985714Y-148679590D02*
X211938095Y-148631971D01*
X211938095Y-148631971D02*
X211842857Y-148584352D01*
X211842857Y-148584352D02*
X211700000Y-148584352D01*
X211700000Y-148584352D02*
X211604762Y-148631971D01*
X211604762Y-148631971D02*
X211557143Y-148727209D01*
X211557143Y-148727209D02*
X211557143Y-149251019D01*
X211223809Y-148584352D02*
X210842857Y-148584352D01*
X211080952Y-148251019D02*
X211080952Y-149108161D01*
X211080952Y-149108161D02*
X211033333Y-149203400D01*
X211033333Y-149203400D02*
X210938095Y-149251019D01*
X210938095Y-149251019D02*
X210842857Y-149251019D01*
X210128571Y-149203400D02*
X210223809Y-149251019D01*
X210223809Y-149251019D02*
X210414285Y-149251019D01*
X210414285Y-149251019D02*
X210509523Y-149203400D01*
X210509523Y-149203400D02*
X210557142Y-149108161D01*
X210557142Y-149108161D02*
X210557142Y-148727209D01*
X210557142Y-148727209D02*
X210509523Y-148631971D01*
X210509523Y-148631971D02*
X210414285Y-148584352D01*
X210414285Y-148584352D02*
X210223809Y-148584352D01*
X210223809Y-148584352D02*
X210128571Y-148631971D01*
X210128571Y-148631971D02*
X210080952Y-148727209D01*
X210080952Y-148727209D02*
X210080952Y-148822447D01*
X210080952Y-148822447D02*
X210557142Y-148917685D01*
X209652380Y-149251019D02*
X209652380Y-148584352D01*
X209652380Y-148774828D02*
X209604761Y-148679590D01*
X209604761Y-148679590D02*
X209557142Y-148631971D01*
X209557142Y-148631971D02*
X209461904Y-148584352D01*
X209461904Y-148584352D02*
X209366666Y-148584352D01*
D11*
%TO.C,SW1*%
X215800000Y-118950000D02*
X215800000Y-118350000D01*
X215500000Y-118650000D02*
X215800000Y-118950000D01*
X215800000Y-118350000D02*
X215500000Y-118650000D01*
X217600000Y-117250000D02*
X205800000Y-117250000D01*
X205800000Y-113150000D02*
X205800000Y-117250000D01*
X217600000Y-113150000D02*
X217600000Y-117250000D01*
X211700000Y-111650000D02*
X211700000Y-110650000D01*
X212200000Y-111150000D02*
X211200000Y-111150000D01*
X217600000Y-109150000D02*
X217600000Y-105050000D01*
X205800000Y-105050000D02*
X205800000Y-109150000D01*
X208200000Y-105050000D02*
X205800000Y-105050000D01*
X213000000Y-105050000D02*
X210400000Y-105050000D01*
X217600000Y-105050000D02*
X215200000Y-105050000D01*
X214700000Y-111150000D02*
G75*
G03*
X214700000Y-111150000I-3000000J0D01*
G01*
%TO.C,SW2*%
X215200000Y-124962800D02*
X215200000Y-126462800D01*
X213950000Y-128962800D02*
X209450000Y-128962800D01*
X209450000Y-122462800D02*
X213950000Y-122462800D01*
X208200000Y-126462800D02*
X208200000Y-124962800D01*
%TO.C,SW3*%
X215200000Y-134275600D02*
X215200000Y-135775600D01*
X213950000Y-138275600D02*
X209450000Y-138275600D01*
X209450000Y-131775600D02*
X213950000Y-131775600D01*
X208200000Y-135775600D02*
X208200000Y-134275600D01*
%TO.C,G\u002A\u002A\u002A*%
G36*
X212225715Y-153154432D02*
G01*
X212225715Y-153680260D01*
X212142371Y-153680260D01*
X212059026Y-153680260D01*
X212066529Y-153163159D01*
X212074033Y-152646058D01*
X212149874Y-152637331D01*
X212225715Y-152628605D01*
X212225715Y-153154432D01*
G37*
G36*
X207592491Y-153156264D02*
G01*
X207592491Y-153680260D01*
X207509755Y-153680260D01*
X207427018Y-153680260D01*
X207427018Y-153156264D01*
X207427018Y-152632268D01*
X207509755Y-152632268D01*
X207592491Y-152632268D01*
X207592491Y-153156264D01*
G37*
G36*
X207482176Y-151294700D02*
G01*
X207482176Y-151418805D01*
X207096074Y-151418805D01*
X206709972Y-151418805D01*
X206709972Y-151294700D01*
X206709972Y-151170596D01*
X207096074Y-151170596D01*
X207482176Y-151170596D01*
X207482176Y-151294700D01*
G37*
G36*
X214703556Y-153667434D02*
G01*
X214734581Y-153680634D01*
X214749938Y-153720668D01*
X214757747Y-153801696D01*
X214758520Y-153815569D01*
X214754300Y-153912759D01*
X214730168Y-153959851D01*
X214712779Y-153969975D01*
X214680221Y-153982781D01*
X214638203Y-153968902D01*
X214607333Y-153909227D01*
X214602696Y-153801696D01*
X214606083Y-153756050D01*
X214616570Y-153696843D01*
X214638576Y-153671703D01*
X214680221Y-153666470D01*
X214703556Y-153667434D01*
G37*
G36*
X210102154Y-151138421D02*
G01*
X210102045Y-151264170D01*
X210101211Y-151503323D01*
X210099632Y-151722302D01*
X210097400Y-151915276D01*
X210094607Y-152076415D01*
X210091342Y-152199888D01*
X210087699Y-152279866D01*
X210083768Y-152310517D01*
X210065688Y-152317503D01*
X210004125Y-152325705D01*
X209918296Y-152328902D01*
X209771210Y-152328902D01*
X209771210Y-151156807D01*
X209771210Y-149984711D01*
X209936682Y-149984711D01*
X210102154Y-149984711D01*
X210102154Y-151138421D01*
G37*
G36*
X218485838Y-150963603D02*
G01*
X218486370Y-150963956D01*
X218501943Y-151000672D01*
X218511092Y-151070316D01*
X218513229Y-151151576D01*
X218507765Y-151223138D01*
X218494114Y-151263689D01*
X218473073Y-151273335D01*
X218418273Y-151275180D01*
X218409598Y-151273629D01*
X218378882Y-151255869D01*
X218362247Y-151210842D01*
X218353724Y-151124624D01*
X218352014Y-151090437D01*
X218353548Y-151019355D01*
X218368590Y-150982419D01*
X218401740Y-150964266D01*
X218439180Y-150957146D01*
X218485838Y-150963603D01*
G37*
G36*
X205855031Y-153294158D02*
G01*
X205855031Y-153680260D01*
X205772295Y-153680260D01*
X205689559Y-153680260D01*
X205689559Y-153379883D01*
X205689426Y-153287618D01*
X205687701Y-153186503D01*
X205682173Y-153123616D01*
X205670626Y-153088746D01*
X205650845Y-153071679D01*
X205620612Y-153062203D01*
X205568880Y-153035280D01*
X205551666Y-152976477D01*
X205556108Y-152924647D01*
X205579200Y-152911494D01*
X205634541Y-152935709D01*
X205666675Y-152948360D01*
X205703302Y-152935709D01*
X205729297Y-152918253D01*
X205787712Y-152908055D01*
X205855031Y-152908055D01*
X205855031Y-153294158D01*
G37*
G36*
X216440092Y-151347898D02*
G01*
X216477660Y-151370217D01*
X216486628Y-151418160D01*
X216484831Y-151443858D01*
X216467856Y-151475387D01*
X216422201Y-151497896D01*
X216334945Y-151520064D01*
X216247527Y-151548349D01*
X216128661Y-151618794D01*
X216038822Y-151712225D01*
X215991074Y-151817349D01*
X215979762Y-151871671D01*
X215962106Y-151956590D01*
X215960481Y-151963404D01*
X215925122Y-152014595D01*
X215869945Y-152024009D01*
X215813864Y-151987680D01*
X215800464Y-151961712D01*
X215797341Y-151902071D01*
X215813637Y-151804385D01*
X215822355Y-151770008D01*
X215887181Y-151628703D01*
X215987745Y-151506233D01*
X216112922Y-151411503D01*
X216251587Y-151353420D01*
X216392617Y-151340889D01*
X216440092Y-151347898D01*
G37*
G36*
X208144065Y-153259231D02*
G01*
X208143378Y-153356533D01*
X208138014Y-153506091D01*
X208127246Y-153602566D01*
X208110971Y-153647165D01*
X208076923Y-153662409D01*
X207997461Y-153675422D01*
X207890341Y-153680260D01*
X207702806Y-153680260D01*
X207702806Y-153292326D01*
X207702806Y-152904392D01*
X207778647Y-152913118D01*
X207854489Y-152921845D01*
X207868278Y-153239000D01*
X207872906Y-153334228D01*
X207880886Y-153443770D01*
X207891005Y-153511739D01*
X207904707Y-153546434D01*
X207923435Y-153556155D01*
X207936019Y-153552417D01*
X207951379Y-153527751D01*
X207962633Y-153472826D01*
X207971223Y-153379342D01*
X207978593Y-153239000D01*
X207992382Y-152921845D01*
X208068224Y-152913118D01*
X208144065Y-152904392D01*
X208144065Y-153259231D01*
G37*
G36*
X212722132Y-153197632D02*
G01*
X212722132Y-153680260D01*
X212639396Y-153680260D01*
X212556660Y-153680260D01*
X212556660Y-153473419D01*
X212556660Y-153266579D01*
X212444427Y-153266579D01*
X212432236Y-153266542D01*
X212367218Y-153262046D01*
X212341453Y-153244161D01*
X212341007Y-153204527D01*
X212348640Y-153175898D01*
X212381536Y-153146725D01*
X212453240Y-153133915D01*
X212556660Y-153125356D01*
X212556660Y-152990638D01*
X212556660Y-152855920D01*
X212425661Y-152847514D01*
X212410098Y-152846449D01*
X212335842Y-152836455D01*
X212299426Y-152815845D01*
X212285849Y-152777057D01*
X212283753Y-152752667D01*
X212292505Y-152731520D01*
X212324246Y-152720270D01*
X212389699Y-152715802D01*
X212499585Y-152715004D01*
X212722132Y-152715004D01*
X212722132Y-153197632D01*
G37*
G36*
X216707207Y-151942800D02*
G01*
X216706377Y-151969424D01*
X216675234Y-152094929D01*
X216601562Y-152187146D01*
X216488147Y-152242244D01*
X216440393Y-152251563D01*
X216315221Y-152241667D01*
X216207672Y-152182240D01*
X216126286Y-152077177D01*
X216094586Y-151992738D01*
X216095582Y-151935796D01*
X216278873Y-151935796D01*
X216286873Y-152002251D01*
X216333132Y-152052145D01*
X216369306Y-152068607D01*
X216415868Y-152080694D01*
X216440255Y-152072412D01*
X216490282Y-152034476D01*
X216535742Y-151984344D01*
X216555574Y-151942800D01*
X216547184Y-151918729D01*
X216508749Y-151869351D01*
X216457957Y-151824482D01*
X216415868Y-151804907D01*
X216355104Y-151820564D01*
X216303495Y-151869620D01*
X216278873Y-151935796D01*
X216095582Y-151935796D01*
X216096453Y-151885967D01*
X216149743Y-151774512D01*
X216193109Y-151721907D01*
X216295093Y-151654699D01*
X216410939Y-151634104D01*
X216528970Y-151661037D01*
X216637505Y-151736408D01*
X216673282Y-151778826D01*
X216700133Y-151845106D01*
X216707257Y-151941205D01*
X216707207Y-151942800D01*
G37*
G36*
X211952308Y-153045949D02*
G01*
X211957241Y-153076589D01*
X211964698Y-153184612D01*
X211966701Y-153306116D01*
X211963359Y-153427417D01*
X211954781Y-153534831D01*
X211941075Y-153614675D01*
X211922350Y-153653264D01*
X211915975Y-153656743D01*
X211853481Y-153672358D01*
X211764553Y-153678882D01*
X211669451Y-153676642D01*
X211588435Y-153665961D01*
X211541763Y-153647165D01*
X211531889Y-153624395D01*
X211520489Y-153554024D01*
X211512860Y-153452226D01*
X211509127Y-153333040D01*
X211509416Y-153210506D01*
X211513852Y-153098664D01*
X211519121Y-153045949D01*
X211644493Y-153045949D01*
X211652422Y-153301052D01*
X211660352Y-153556155D01*
X211736193Y-153564882D01*
X211812035Y-153573608D01*
X211812035Y-153309779D01*
X211812035Y-153045949D01*
X211728264Y-153045949D01*
X211644493Y-153045949D01*
X211519121Y-153045949D01*
X211522559Y-153011553D01*
X211535664Y-152963213D01*
X211550754Y-152950139D01*
X211612711Y-152930743D01*
X211700514Y-152921532D01*
X211795050Y-152922775D01*
X211877205Y-152934740D01*
X211927865Y-152957697D01*
X211944223Y-152995731D01*
X211952308Y-153045949D01*
G37*
G36*
X207316527Y-153289561D02*
G01*
X207316704Y-153305808D01*
X207316544Y-153346333D01*
X207311877Y-153498928D01*
X207300849Y-153599706D01*
X207283609Y-153647165D01*
X207249561Y-153662409D01*
X207170099Y-153675422D01*
X207062979Y-153680260D01*
X206875444Y-153680260D01*
X206875444Y-153295341D01*
X206875444Y-153179805D01*
X207043819Y-153179805D01*
X207046776Y-153298821D01*
X207047733Y-153325884D01*
X207057287Y-153457520D01*
X207073975Y-153537372D01*
X207098677Y-153568043D01*
X207132271Y-153552133D01*
X207136042Y-153543491D01*
X207143819Y-153489854D01*
X207149213Y-153400630D01*
X207151231Y-153289561D01*
X207150729Y-153194667D01*
X207147319Y-153113683D01*
X207138533Y-153068978D01*
X207121922Y-153049937D01*
X207095039Y-153045949D01*
X207069902Y-153048964D01*
X207053389Y-153065316D01*
X207045359Y-153105450D01*
X207043819Y-153179805D01*
X206875444Y-153179805D01*
X206875444Y-152910423D01*
X207051909Y-152917330D01*
X207076992Y-152918365D01*
X207175316Y-152926028D01*
X207242266Y-152944681D01*
X207283861Y-152983156D01*
X207306120Y-153050281D01*
X207315061Y-153154888D01*
X207316527Y-153289561D01*
G37*
G36*
X212722132Y-150395976D02*
G01*
X212722132Y-151225754D01*
X212722132Y-152333648D01*
X212273978Y-152324365D01*
X212133854Y-152320832D01*
X211981798Y-152313780D01*
X211870887Y-152302317D01*
X211792992Y-152284351D01*
X211739983Y-152257789D01*
X211703730Y-152220541D01*
X211676104Y-152170513D01*
X211673511Y-152162407D01*
X211665469Y-152101731D01*
X211662385Y-152053115D01*
X211976686Y-152053115D01*
X212183937Y-152053115D01*
X212391188Y-152053115D01*
X212391188Y-151224545D01*
X212391188Y-150395976D01*
X212191242Y-150404079D01*
X211991296Y-150412181D01*
X211983991Y-151232648D01*
X211976686Y-152053115D01*
X211662385Y-152053115D01*
X211658801Y-151996622D01*
X211653506Y-151855377D01*
X211649584Y-151686295D01*
X211647036Y-151497673D01*
X211645862Y-151297808D01*
X211646061Y-151095000D01*
X211647634Y-150897544D01*
X211650581Y-150713740D01*
X211654901Y-150551886D01*
X211660595Y-150420278D01*
X211667663Y-150327214D01*
X211676104Y-150280994D01*
X211695555Y-150243463D01*
X211728603Y-150202882D01*
X211776153Y-150173568D01*
X211846336Y-150153430D01*
X211947282Y-150140374D01*
X212087119Y-150132309D01*
X212273978Y-150127143D01*
X212722132Y-150117859D01*
X212722132Y-150395976D01*
G37*
G36*
X206721391Y-152809646D02*
G01*
X206737550Y-152852898D01*
X206745229Y-152885063D01*
X206778919Y-152908055D01*
X206805902Y-152921550D01*
X206820287Y-152977002D01*
X206812190Y-153021975D01*
X206778919Y-153045949D01*
X206768900Y-153047817D01*
X206753225Y-153067090D01*
X206743646Y-153114567D01*
X206738857Y-153199216D01*
X206737550Y-153330010D01*
X206737482Y-153354135D01*
X206733038Y-153501006D01*
X206721911Y-153599810D01*
X206704456Y-153647165D01*
X206703694Y-153647904D01*
X206653431Y-153670781D01*
X206580352Y-153680260D01*
X206531582Y-153677663D01*
X206497156Y-153658937D01*
X206489342Y-153611313D01*
X206501247Y-153558525D01*
X206544499Y-153542366D01*
X206566247Y-153539962D01*
X206584363Y-153524489D01*
X206594415Y-153485362D01*
X206598735Y-153412084D01*
X206599657Y-153294158D01*
X206599123Y-153196292D01*
X206595684Y-153114770D01*
X206586989Y-153069537D01*
X206570705Y-153050096D01*
X206544499Y-153045949D01*
X206502269Y-153031068D01*
X206489342Y-152977002D01*
X206501247Y-152924215D01*
X206544499Y-152908055D01*
X206580156Y-152898991D01*
X206599657Y-152852898D01*
X206614538Y-152810668D01*
X206668604Y-152797741D01*
X206721391Y-152809646D01*
G37*
G36*
X208992889Y-153301052D02*
G01*
X209000562Y-153680260D01*
X208917951Y-153680260D01*
X208835340Y-153680260D01*
X208827542Y-153369999D01*
X208825315Y-153286843D01*
X208820947Y-153179549D01*
X208814136Y-153112063D01*
X208802746Y-153074634D01*
X208784643Y-153057506D01*
X208757692Y-153050926D01*
X208735247Y-153048829D01*
X208716137Y-153055567D01*
X208704440Y-153081074D01*
X208698338Y-153134449D01*
X208696011Y-153224787D01*
X208695639Y-153361186D01*
X208695639Y-153680260D01*
X208612903Y-153680260D01*
X208530167Y-153680260D01*
X208530167Y-153363104D01*
X208530043Y-153285566D01*
X208528483Y-153174419D01*
X208523822Y-153104216D01*
X208514439Y-153065625D01*
X208498709Y-153049313D01*
X208475010Y-153045949D01*
X208461525Y-153046666D01*
X208442195Y-153055635D01*
X208429986Y-153082433D01*
X208423274Y-153136389D01*
X208420437Y-153226835D01*
X208419852Y-153363104D01*
X208419852Y-153680260D01*
X208337116Y-153680260D01*
X208254380Y-153680260D01*
X208254380Y-153338902D01*
X208254381Y-153333230D01*
X208256291Y-153175237D01*
X208263929Y-153064137D01*
X208280391Y-152991972D01*
X208308775Y-152950780D01*
X208352180Y-152932600D01*
X208413703Y-152929472D01*
X208459365Y-152930476D01*
X208561480Y-152931528D01*
X208668672Y-152930424D01*
X208805954Y-152927007D01*
X208985216Y-152921845D01*
X208992889Y-153301052D01*
G37*
G36*
X211398354Y-153287643D02*
G01*
X211398354Y-153405354D01*
X211398354Y-153900889D01*
X211315618Y-153900889D01*
X211297852Y-153900715D01*
X211253854Y-153892754D01*
X211236149Y-153861309D01*
X211232882Y-153790574D01*
X211232632Y-153754115D01*
X211224974Y-153702471D01*
X211195165Y-153683159D01*
X211128082Y-153680260D01*
X211113220Y-153679940D01*
X211038043Y-153668949D01*
X210990189Y-153647165D01*
X210984785Y-153639369D01*
X210969420Y-153576566D01*
X210960180Y-153459329D01*
X210957447Y-153307569D01*
X211108777Y-153307569D01*
X211108792Y-153322035D01*
X211110854Y-153438877D01*
X211117559Y-153511501D01*
X211130555Y-153549791D01*
X211151490Y-153563626D01*
X211185066Y-153565222D01*
X211209874Y-153547712D01*
X211224384Y-153501472D01*
X211231189Y-153417712D01*
X211232882Y-153287643D01*
X211232881Y-153283658D01*
X211232183Y-153168420D01*
X211228318Y-153097789D01*
X211218597Y-153061503D01*
X211200331Y-153049302D01*
X211170829Y-153050926D01*
X211142945Y-153057597D01*
X211124012Y-153075812D01*
X211113778Y-153116222D01*
X211109585Y-153189812D01*
X211108777Y-153307569D01*
X210957447Y-153307569D01*
X210957094Y-153287959D01*
X210957120Y-153214547D01*
X210959697Y-153087988D01*
X210971197Y-153003748D01*
X210998287Y-152952987D01*
X211047635Y-152926865D01*
X211125909Y-152916541D01*
X211239776Y-152913175D01*
X211398354Y-152909819D01*
X211398354Y-153287643D01*
G37*
G36*
X210846780Y-153287643D02*
G01*
X210846780Y-153405354D01*
X210846780Y-153900889D01*
X210764043Y-153900889D01*
X210746277Y-153900715D01*
X210702279Y-153892754D01*
X210684574Y-153861309D01*
X210681307Y-153790574D01*
X210681058Y-153754115D01*
X210673399Y-153702471D01*
X210643591Y-153683159D01*
X210576508Y-153680260D01*
X210561646Y-153679940D01*
X210486469Y-153668949D01*
X210438615Y-153647165D01*
X210433211Y-153639369D01*
X210417846Y-153576566D01*
X210408606Y-153459329D01*
X210405873Y-153307569D01*
X210557203Y-153307569D01*
X210557217Y-153322035D01*
X210559280Y-153438877D01*
X210565985Y-153511501D01*
X210578981Y-153549791D01*
X210599916Y-153563626D01*
X210633492Y-153565222D01*
X210658300Y-153547712D01*
X210672810Y-153501472D01*
X210679615Y-153417712D01*
X210681307Y-153287643D01*
X210681307Y-153283658D01*
X210680608Y-153168420D01*
X210676743Y-153097789D01*
X210667023Y-153061503D01*
X210648757Y-153049302D01*
X210619255Y-153050926D01*
X210591371Y-153057597D01*
X210572438Y-153075812D01*
X210562203Y-153116222D01*
X210558010Y-153189812D01*
X210557203Y-153307569D01*
X210405873Y-153307569D01*
X210405520Y-153287959D01*
X210405545Y-153214547D01*
X210408122Y-153087988D01*
X210419622Y-153003748D01*
X210446712Y-152952987D01*
X210496060Y-152926865D01*
X210574334Y-152916541D01*
X210688202Y-152913175D01*
X210846780Y-152909819D01*
X210846780Y-153287643D01*
G37*
G36*
X209295477Y-150321174D02*
G01*
X209454054Y-150329445D01*
X209462390Y-150474234D01*
X209467879Y-150549152D01*
X209479551Y-150597211D01*
X209505193Y-150615879D01*
X209553532Y-150619022D01*
X209592498Y-150620160D01*
X209622140Y-150632685D01*
X209631197Y-150671122D01*
X209627932Y-150750021D01*
X209624937Y-150790294D01*
X209614050Y-150851230D01*
X209590084Y-150879209D01*
X209543685Y-150889746D01*
X209467844Y-150898473D01*
X209467844Y-151476680D01*
X209467695Y-151577282D01*
X209465512Y-151783969D01*
X209459290Y-151944630D01*
X209447220Y-152065710D01*
X209427494Y-152153651D01*
X209398301Y-152214897D01*
X209357833Y-152255892D01*
X209304280Y-152283079D01*
X209235832Y-152302902D01*
X209212298Y-152307737D01*
X209119865Y-152319868D01*
X209019689Y-152326079D01*
X208888691Y-152328902D01*
X208888691Y-152177219D01*
X208888691Y-152025536D01*
X208996055Y-152025536D01*
X209079586Y-152015267D01*
X209120159Y-151981913D01*
X209120195Y-151981817D01*
X209125462Y-151941108D01*
X209130045Y-151854766D01*
X209133666Y-151732252D01*
X209136044Y-151583026D01*
X209136899Y-151416549D01*
X209136899Y-150894809D01*
X209012795Y-150894809D01*
X208888691Y-150894809D01*
X208888691Y-150756915D01*
X208888691Y-150619022D01*
X209012795Y-150619022D01*
X209136899Y-150619022D01*
X209136899Y-150465963D01*
X209136899Y-150312903D01*
X209295477Y-150321174D01*
G37*
G36*
X210291986Y-152911099D02*
G01*
X210328546Y-152923010D01*
X210330711Y-152947408D01*
X210322424Y-153015458D01*
X210304901Y-153114372D01*
X210280879Y-153231991D01*
X210253097Y-153356153D01*
X210224296Y-153474700D01*
X210197212Y-153575472D01*
X210174586Y-153646308D01*
X210159156Y-153675048D01*
X210143907Y-153682364D01*
X210127661Y-153714606D01*
X210148739Y-153747760D01*
X210198680Y-153762996D01*
X210211385Y-153763287D01*
X210256236Y-153779460D01*
X210267626Y-153831943D01*
X210266116Y-153858794D01*
X210245655Y-153892776D01*
X210187946Y-153900889D01*
X210145506Y-153898905D01*
X210090964Y-153884735D01*
X210047428Y-153850911D01*
X210011150Y-153790442D01*
X209978382Y-153696336D01*
X209945378Y-153561601D01*
X209908390Y-153379244D01*
X209891833Y-153292915D01*
X209865890Y-153155347D01*
X209845132Y-153042301D01*
X209831358Y-152963648D01*
X209826367Y-152929258D01*
X209847229Y-152914546D01*
X209901779Y-152913118D01*
X209935266Y-152919391D01*
X209961448Y-152936918D01*
X209981029Y-152976106D01*
X209999228Y-153047872D01*
X210021259Y-153163131D01*
X210030587Y-153212773D01*
X210051403Y-153313960D01*
X210069033Y-153387291D01*
X210080419Y-153419509D01*
X210087026Y-153416233D01*
X210101035Y-153375381D01*
X210114873Y-153302326D01*
X210123259Y-153246109D01*
X210146983Y-153104068D01*
X210169028Y-153006870D01*
X210192038Y-152946888D01*
X210218656Y-152916492D01*
X210251526Y-152908055D01*
X210291986Y-152911099D01*
G37*
G36*
X209547123Y-153142475D02*
G01*
X209547886Y-153149481D01*
X209550580Y-153301242D01*
X209549634Y-153372409D01*
X209543970Y-153487361D01*
X209534330Y-153577201D01*
X209522031Y-153626915D01*
X209517842Y-153634149D01*
X209487029Y-153662587D01*
X209431368Y-153676396D01*
X209335874Y-153679837D01*
X209313949Y-153679694D01*
X209210683Y-153673806D01*
X209147696Y-153654399D01*
X209112473Y-153614689D01*
X209092499Y-153547890D01*
X209084498Y-153487611D01*
X209102946Y-153463800D01*
X209161030Y-153459630D01*
X209188172Y-153460481D01*
X209234842Y-153475051D01*
X209247214Y-153514787D01*
X209262095Y-153557017D01*
X209316161Y-153569945D01*
X209322165Y-153569905D01*
X209363594Y-153562294D01*
X209381344Y-153530704D01*
X209385107Y-153459630D01*
X209385107Y-153349315D01*
X209233425Y-153349315D01*
X209081742Y-153349315D01*
X209081742Y-153173430D01*
X209082394Y-153142475D01*
X209247214Y-153142475D01*
X209250447Y-153199335D01*
X209269535Y-153231788D01*
X209316161Y-153239000D01*
X209356775Y-153234474D01*
X209379956Y-153207751D01*
X209385107Y-153142475D01*
X209381874Y-153085614D01*
X209362787Y-153053161D01*
X209316161Y-153045949D01*
X209275546Y-153050475D01*
X209252365Y-153077198D01*
X209247214Y-153142475D01*
X209082394Y-153142475D01*
X209083095Y-153109176D01*
X209097834Y-153012546D01*
X209136425Y-152955636D01*
X209208233Y-152928662D01*
X209322623Y-152921845D01*
X209399051Y-152924636D01*
X209467070Y-152940330D01*
X209511182Y-152977431D01*
X209536437Y-153044346D01*
X209547123Y-153142475D01*
G37*
G36*
X206434177Y-153307947D02*
G01*
X206434025Y-153346333D01*
X206429358Y-153498928D01*
X206418330Y-153599706D01*
X206401090Y-153647165D01*
X206370922Y-153661416D01*
X206296632Y-153675045D01*
X206199765Y-153680260D01*
X206124194Y-153677128D01*
X206042980Y-153665195D01*
X205998441Y-153647165D01*
X205994107Y-153641350D01*
X205978226Y-153581989D01*
X205968591Y-153469640D01*
X205965388Y-153307947D01*
X206130819Y-153307947D01*
X206130836Y-153352264D01*
X206131905Y-153458180D01*
X206136614Y-153522575D01*
X206147681Y-153555779D01*
X206167825Y-153568125D01*
X206199765Y-153569945D01*
X206211428Y-153569878D01*
X206239301Y-153565817D01*
X206256246Y-153547924D01*
X206264984Y-153505870D01*
X206268233Y-153429321D01*
X206268712Y-153307947D01*
X206268695Y-153263630D01*
X206267626Y-153157713D01*
X206262917Y-153093319D01*
X206251850Y-153060115D01*
X206231706Y-153047768D01*
X206199765Y-153045949D01*
X206188103Y-153046015D01*
X206160230Y-153050077D01*
X206143284Y-153067970D01*
X206134546Y-153110024D01*
X206131297Y-153186573D01*
X206130819Y-153307947D01*
X205965388Y-153307947D01*
X205965346Y-153305808D01*
X205965354Y-153291873D01*
X205967714Y-153143510D01*
X205977861Y-153041120D01*
X206000968Y-152976229D01*
X206042206Y-152940368D01*
X206106748Y-152925064D01*
X206199765Y-152921845D01*
X206208273Y-152921857D01*
X206298852Y-152925722D01*
X206361364Y-152942343D01*
X206400981Y-152980190D01*
X206422876Y-153047736D01*
X206432219Y-153153451D01*
X206434185Y-153305808D01*
X206434177Y-153307947D01*
G37*
G36*
X211336050Y-151308490D02*
G01*
X211337631Y-151440870D01*
X211339239Y-151577889D01*
X211340987Y-151759777D01*
X211341222Y-151897930D01*
X211339429Y-151999408D01*
X211335093Y-152071275D01*
X211327701Y-152120593D01*
X211316738Y-152154425D01*
X211301688Y-152179832D01*
X211282037Y-152203877D01*
X211281767Y-152204191D01*
X211208517Y-152263047D01*
X211122131Y-152300663D01*
X211002190Y-152318214D01*
X210854728Y-152324580D01*
X210707570Y-152319419D01*
X210587513Y-152302631D01*
X210484195Y-152267010D01*
X210414243Y-152208711D01*
X210373863Y-152118123D01*
X210355388Y-151984746D01*
X210343937Y-151804907D01*
X210511036Y-151804907D01*
X210678136Y-151804907D01*
X210686616Y-151922116D01*
X210695097Y-152039326D01*
X210846780Y-152039326D01*
X210998463Y-152039326D01*
X211006431Y-151798012D01*
X211014399Y-151556698D01*
X210682381Y-151556698D01*
X210350363Y-151556698D01*
X210350363Y-151308490D01*
X210678987Y-151308490D01*
X210846780Y-151308490D01*
X211014572Y-151308490D01*
X211006517Y-151094755D01*
X210998463Y-150881020D01*
X210846780Y-150881020D01*
X210695097Y-150881020D01*
X210687042Y-151094755D01*
X210678987Y-151308490D01*
X210350363Y-151308490D01*
X210350363Y-151168475D01*
X210350363Y-150780251D01*
X210430977Y-150699637D01*
X210465544Y-150666605D01*
X210499393Y-150643507D01*
X210542634Y-150629438D01*
X210606708Y-150622159D01*
X210703056Y-150619433D01*
X210843120Y-150619022D01*
X210929485Y-150619209D01*
X211045096Y-150621221D01*
X211123623Y-150626984D01*
X211176599Y-150638373D01*
X211215557Y-150657266D01*
X211252028Y-150685538D01*
X211329407Y-150752054D01*
X211336050Y-151308490D01*
G37*
G36*
X217305211Y-151942800D02*
G01*
X217302452Y-152068617D01*
X217250252Y-152269811D01*
X217155488Y-152453506D01*
X217023180Y-152611485D01*
X216858349Y-152735529D01*
X216666015Y-152817424D01*
X216620306Y-152828192D01*
X216469357Y-152843424D01*
X216303427Y-152837659D01*
X216145103Y-152812553D01*
X216016972Y-152769766D01*
X215979827Y-152750343D01*
X215822900Y-152636954D01*
X215683382Y-152487390D01*
X215576276Y-152317064D01*
X215547909Y-152255811D01*
X215516361Y-152164782D01*
X215501282Y-152068750D01*
X215497422Y-151942800D01*
X215497790Y-151918738D01*
X215670362Y-151918738D01*
X215688249Y-152087937D01*
X215756627Y-152266704D01*
X215767955Y-152288730D01*
X215870014Y-152438964D01*
X216001146Y-152551319D01*
X216173024Y-152636155D01*
X216262376Y-152664437D01*
X216441345Y-152683669D01*
X216613978Y-152649351D01*
X216753562Y-152587057D01*
X216916748Y-152469458D01*
X217036259Y-152320727D01*
X217109713Y-152144097D01*
X217134727Y-151942800D01*
X217110342Y-151745372D01*
X217036807Y-151567605D01*
X216916459Y-151417502D01*
X216751644Y-151299005D01*
X216740405Y-151292999D01*
X216553883Y-151223419D01*
X216366702Y-151205789D01*
X216186456Y-151237738D01*
X216020739Y-151316898D01*
X215877146Y-151440898D01*
X215763272Y-151607371D01*
X215703078Y-151747918D01*
X215670362Y-151918738D01*
X215497790Y-151918738D01*
X215498633Y-151863666D01*
X215508457Y-151758333D01*
X215532589Y-151668262D01*
X215576276Y-151568536D01*
X215585793Y-151549664D01*
X215703089Y-151373366D01*
X215854256Y-151222227D01*
X216024683Y-151111149D01*
X216093131Y-151081427D01*
X216172454Y-151060095D01*
X216269900Y-151049588D01*
X216403891Y-151046781D01*
X216411614Y-151046796D01*
X216605264Y-151060034D01*
X216764638Y-151102183D01*
X216905215Y-151179320D01*
X217042477Y-151297524D01*
X217151514Y-151424613D01*
X217242011Y-151589724D01*
X217296753Y-151785098D01*
X217307068Y-151858141D01*
X217305211Y-151942800D01*
G37*
G36*
X208743306Y-151657389D02*
G01*
X208742441Y-151719604D01*
X208739355Y-151877533D01*
X208735369Y-151994745D01*
X208729807Y-152078400D01*
X208721993Y-152135660D01*
X208711251Y-152173685D01*
X208696906Y-152199638D01*
X208678281Y-152220678D01*
X208610084Y-152268656D01*
X208526598Y-152302694D01*
X208427131Y-152316312D01*
X208311971Y-152312241D01*
X208209057Y-152291140D01*
X208139186Y-152255540D01*
X208113085Y-152233117D01*
X208092612Y-152229171D01*
X208088908Y-152270847D01*
X208085872Y-152301290D01*
X208067175Y-152320443D01*
X208019692Y-152326362D01*
X207930330Y-152323384D01*
X207771752Y-152315113D01*
X207764459Y-151467067D01*
X207764442Y-151465098D01*
X208089330Y-151465098D01*
X208089863Y-151647917D01*
X208092232Y-151784282D01*
X208097046Y-151880922D01*
X208104913Y-151945566D01*
X208116444Y-151985942D01*
X208132246Y-152009777D01*
X208154247Y-152025536D01*
X208229593Y-152048315D01*
X208316351Y-152050565D01*
X208385978Y-152030011D01*
X208393891Y-152020372D01*
X208404187Y-151982987D01*
X208411020Y-151913936D01*
X208414670Y-151807356D01*
X208415422Y-151657389D01*
X208413557Y-151458175D01*
X208406063Y-150908598D01*
X208270838Y-150900020D01*
X208256964Y-150899246D01*
X208159775Y-150903467D01*
X208112682Y-150927599D01*
X208105915Y-150960531D01*
X208099385Y-151040762D01*
X208094169Y-151157941D01*
X208090680Y-151302556D01*
X208089330Y-151465098D01*
X207764442Y-151465098D01*
X207757166Y-150619022D01*
X207923037Y-150619022D01*
X207953236Y-150619205D01*
X208035903Y-150623957D01*
X208077480Y-150637262D01*
X208088908Y-150661954D01*
X208090461Y-150682992D01*
X208105933Y-150689469D01*
X208150202Y-150661954D01*
X208159491Y-150656237D01*
X208237052Y-150631764D01*
X208343589Y-150619718D01*
X208458452Y-150620214D01*
X208560988Y-150633367D01*
X208630545Y-150659292D01*
X208634377Y-150662007D01*
X208670661Y-150692941D01*
X208698723Y-150731853D01*
X208719473Y-150785477D01*
X208733820Y-150860550D01*
X208742672Y-150963807D01*
X208746938Y-151101983D01*
X208747528Y-151281814D01*
X208745350Y-151510036D01*
X208745302Y-151513796D01*
X208743306Y-151657389D01*
G37*
G36*
X205992925Y-150127980D02*
G01*
X206119231Y-150138695D01*
X206253747Y-150167889D01*
X206343387Y-150215321D01*
X206392923Y-150282837D01*
X206401892Y-150318227D01*
X206413477Y-150407083D01*
X206422551Y-150526446D01*
X206428530Y-150661627D01*
X206430830Y-150797937D01*
X206428866Y-150920687D01*
X206422054Y-151015189D01*
X206393622Y-151144589D01*
X206338398Y-151246817D01*
X206310583Y-151276252D01*
X206273234Y-151301515D01*
X206220622Y-151317376D01*
X206139456Y-151327500D01*
X206016445Y-151335548D01*
X205758506Y-151349858D01*
X205750680Y-151663066D01*
X205748675Y-151793756D01*
X205752550Y-151909100D01*
X205766270Y-151984468D01*
X205792936Y-152028099D01*
X205835653Y-152048235D01*
X205897521Y-152053115D01*
X205938527Y-152052597D01*
X206012988Y-152043016D01*
X206054236Y-152012515D01*
X206071912Y-151949737D01*
X206075661Y-151843324D01*
X206075661Y-151667013D01*
X206241134Y-151667013D01*
X206406606Y-151667013D01*
X206406606Y-151899894D01*
X206406545Y-151927796D01*
X206403707Y-152037915D01*
X206394396Y-152110916D01*
X206375553Y-152161764D01*
X206344118Y-152205423D01*
X206343554Y-152206074D01*
X206271290Y-152264165D01*
X206185540Y-152302407D01*
X206089678Y-152316725D01*
X205967142Y-152321277D01*
X205834305Y-152317064D01*
X205707481Y-152305103D01*
X205602985Y-152286411D01*
X205537131Y-152262003D01*
X205520918Y-152250764D01*
X205480858Y-152213148D01*
X205452022Y-152162895D01*
X205432652Y-152091513D01*
X205420992Y-151990507D01*
X205415284Y-151851385D01*
X205413772Y-151665653D01*
X205413772Y-151254203D01*
X205494226Y-151164137D01*
X205496384Y-151161723D01*
X205536699Y-151119839D01*
X205575710Y-151093406D01*
X205627527Y-151078183D01*
X205706261Y-151069928D01*
X205826022Y-151064400D01*
X206077364Y-151054730D01*
X206069618Y-150733456D01*
X206061872Y-150412181D01*
X205942624Y-150403601D01*
X205920655Y-150402277D01*
X205831515Y-150407675D01*
X205777886Y-150440182D01*
X205751657Y-150508768D01*
X205744717Y-150622399D01*
X205744717Y-150784494D01*
X205579244Y-150784494D01*
X205413772Y-150784494D01*
X205413875Y-150570759D01*
X205414768Y-150516970D01*
X205430944Y-150371384D01*
X205471730Y-150263807D01*
X205542724Y-150189958D01*
X205649522Y-150145557D01*
X205797724Y-150126325D01*
X205992925Y-150127980D01*
G37*
G36*
X218817029Y-154176677D02*
G01*
X218817029Y-154206762D01*
X218749336Y-154274456D01*
X218681643Y-154342149D01*
X216555574Y-154342149D01*
X214429506Y-154342149D01*
X214361813Y-154274456D01*
X214294119Y-154206762D01*
X214294119Y-154176677D01*
X214487170Y-154176677D01*
X214690899Y-154176677D01*
X214894627Y-154176677D01*
X215066324Y-154176677D01*
X218044825Y-154176677D01*
X218044825Y-154042502D01*
X218031435Y-153923565D01*
X217987666Y-153835662D01*
X217930507Y-153762996D01*
X216555574Y-153762996D01*
X215180642Y-153762996D01*
X215123483Y-153835662D01*
X215080066Y-153922288D01*
X215066324Y-154042502D01*
X215066324Y-154176677D01*
X214894627Y-154176677D01*
X214905483Y-153984550D01*
X214911342Y-153904710D01*
X214925056Y-153822754D01*
X214950208Y-153764889D01*
X214992702Y-153712717D01*
X214998865Y-153706514D01*
X215082193Y-153644348D01*
X215174314Y-153601478D01*
X215220245Y-153594473D01*
X215317782Y-153587617D01*
X215457330Y-153581807D01*
X215631950Y-153577043D01*
X215834702Y-153573326D01*
X216058645Y-153570654D01*
X216296840Y-153569029D01*
X216542347Y-153568450D01*
X216788225Y-153568917D01*
X217027536Y-153570430D01*
X217253338Y-153572989D01*
X217458693Y-153576595D01*
X217636660Y-153581246D01*
X217780299Y-153586944D01*
X217882670Y-153593688D01*
X217936834Y-153601478D01*
X217945127Y-153604129D01*
X218038214Y-153650019D01*
X218118446Y-153712717D01*
X218149789Y-153748822D01*
X218179732Y-153802928D01*
X218196389Y-153875370D01*
X218205666Y-153984550D01*
X218216522Y-154176677D01*
X218420250Y-154176677D01*
X218623978Y-154176677D01*
X218623978Y-152242785D01*
X218623978Y-150308893D01*
X218323359Y-150008909D01*
X218266656Y-149953095D01*
X218164455Y-149856487D01*
X218077164Y-149779048D01*
X218012612Y-149727590D01*
X217978625Y-149708924D01*
X217966108Y-149711616D01*
X217952382Y-149728983D01*
X217943241Y-149769468D01*
X217937803Y-149841078D01*
X217935187Y-149951820D01*
X217934510Y-150109701D01*
X217933209Y-150250055D01*
X217925758Y-150417092D01*
X217910334Y-150541180D01*
X217885391Y-150629456D01*
X217849383Y-150689056D01*
X217800765Y-150727117D01*
X217799040Y-150727916D01*
X217753369Y-150735706D01*
X217657126Y-150742254D01*
X217509550Y-150747575D01*
X217309878Y-150751686D01*
X217057347Y-150754602D01*
X216751196Y-150756340D01*
X216390662Y-150756915D01*
X215036238Y-150756915D01*
X214968544Y-150689222D01*
X214945717Y-150664996D01*
X214927150Y-150636869D01*
X214914574Y-150598707D01*
X214909853Y-150563864D01*
X215066324Y-150563864D01*
X216100525Y-150563864D01*
X217134727Y-150563864D01*
X217134727Y-150303662D01*
X217134761Y-150286055D01*
X217327778Y-150286055D01*
X217327789Y-150309040D01*
X217328807Y-150427349D01*
X217332916Y-150502021D01*
X217342131Y-150543021D01*
X217358466Y-150560314D01*
X217383935Y-150563864D01*
X217387398Y-150563841D01*
X217411894Y-150559511D01*
X217426799Y-150540631D01*
X217433937Y-150497061D01*
X217435129Y-150418661D01*
X217432197Y-150295291D01*
X217429627Y-150219768D01*
X217423570Y-150120041D01*
X217413980Y-150059813D01*
X217398817Y-150028991D01*
X217376041Y-150017482D01*
X217355511Y-150017773D01*
X217340839Y-150035099D01*
X217332454Y-150079307D01*
X217328665Y-150159819D01*
X217327778Y-150286055D01*
X217134761Y-150286055D01*
X217134768Y-150282160D01*
X217139055Y-150129848D01*
X217152754Y-150021156D01*
X217179212Y-149946033D01*
X217221780Y-149894429D01*
X217283806Y-149856295D01*
X217336494Y-149834028D01*
X217397047Y-149826110D01*
X217464995Y-149846537D01*
X217520590Y-149876460D01*
X217573906Y-149932497D01*
X217607905Y-150015839D01*
X217625884Y-150135501D01*
X217631144Y-150300497D01*
X217632637Y-150417602D01*
X217632709Y-150418661D01*
X217638526Y-150504061D01*
X217649923Y-150550214D01*
X217667916Y-150563864D01*
X217681246Y-150562805D01*
X217723073Y-150545479D01*
X217726094Y-150536902D01*
X217732160Y-150482584D01*
X217737035Y-150387883D01*
X217740280Y-150262968D01*
X217741459Y-150118008D01*
X217741459Y-149708924D01*
X216403891Y-149708924D01*
X215066324Y-149708924D01*
X215066324Y-150136394D01*
X215066324Y-150563864D01*
X214909853Y-150563864D01*
X214906821Y-150541487D01*
X214902727Y-150456183D01*
X214901126Y-150333771D01*
X214900851Y-150165227D01*
X214900851Y-149708924D01*
X214694011Y-149708924D01*
X214487170Y-149708924D01*
X214487170Y-151942800D01*
X214487170Y-154176677D01*
X214294119Y-154176677D01*
X214294119Y-151942800D01*
X214294119Y-149678838D01*
X214361813Y-149611145D01*
X214429506Y-149543452D01*
X216268979Y-149543452D01*
X218108452Y-149543452D01*
X218423725Y-149853712D01*
X218486643Y-149916338D01*
X218591749Y-150024255D01*
X218680581Y-150119596D01*
X218745287Y-150193835D01*
X218778014Y-150238445D01*
X218784618Y-150256369D01*
X218791425Y-150291289D01*
X218797247Y-150344631D01*
X218802155Y-150420070D01*
X218806220Y-150521278D01*
X218809513Y-150651928D01*
X218812105Y-150815695D01*
X218814067Y-151016251D01*
X218815469Y-151257270D01*
X218816383Y-151542425D01*
X218816880Y-151875391D01*
X218817029Y-152259840D01*
X218817029Y-154176677D01*
G37*
%TO.C,SW4*%
X215200000Y-143588400D02*
X215200000Y-145088400D01*
X213950000Y-147588400D02*
X209450000Y-147588400D01*
X209450000Y-141088400D02*
X213950000Y-141088400D01*
X208200000Y-145088400D02*
X208200000Y-143588400D01*
%TD*%
M02*
