M48
; DRILL file {KiCad 7.0.1} date Wed Mar 20 11:01:40 2024
; FORMAT={-:-/ absolute / inch / decimal}
; #@! TF.CreationDate,2024-03-20T11:01:40+03:00
; #@! TF.GenerationSoftware,Kicad,Pcbnew,7.0.1
; #@! TF.FileFunction,Plated,1,2,PTH
FMAT,2
INCH
; #@! TA.AperFunction,Plated,PTH,ViaDrill
T1C0.0157
; #@! TA.AperFunction,Plated,PTH,ComponentDrill
T2C0.0300
; #@! TA.AperFunction,Plated,PTH,ComponentDrill
T3C0.0315
; #@! TA.AperFunction,Plated,PTH,ComponentDrill
T4C0.0394
; #@! TA.AperFunction,Plated,PTH,ComponentDrill
T5C0.0433
; #@! TA.AperFunction,Plated,PTH,ComponentDrill
T6C0.0591
%
G90
G05
T1
X5.9295Y-5.3019
X5.931Y-5.0877
X6.0264Y-5.3918
X6.4259Y-5.3808
X6.581Y-5.125
X6.6673Y-5.118
T2
X8.2094Y-6.122
X8.3094Y-6.122
X8.4094Y-6.122
X8.5094Y-6.122
T3
X4.8409Y-4.6394
X4.8409Y-4.7394
X4.8409Y-4.8394
X4.8409Y-4.9394
X4.8409Y-5.0394
X4.8409Y-5.1394
X4.8409Y-5.2394
X4.8409Y-5.3394
X4.8409Y-5.4394
X4.8409Y-5.5394
X4.8409Y-5.6394
X4.8409Y-5.7394
X4.8409Y-5.8394
X4.8409Y-5.9394
X4.8409Y-6.0394
X5.4409Y-4.6394
X5.4409Y-4.7394
X5.4409Y-4.8394
X5.4409Y-4.9394
X5.4409Y-5.0394
X5.4409Y-5.1394
X5.4409Y-5.2394
X5.4409Y-5.3394
X5.4409Y-5.4394
X5.4409Y-5.5394
X5.4409Y-5.6394
X5.4409Y-5.7394
X5.4409Y-5.8394
X5.4409Y-5.9394
X5.4409Y-6.0394
X5.5646Y-5.3583
X5.5669Y-5.4882
X5.5669Y-5.622
X5.5677Y-6.1811
X5.5709Y-5.7638
X5.5709Y-5.8976
X5.5709Y-6.0394
X5.7795Y-4.6063
X5.7795Y-4.8031
X5.9646Y-5.3583
X5.9669Y-5.4882
X5.9669Y-5.622
X5.9677Y-6.1811
X5.9709Y-5.7638
X5.9709Y-5.8976
X5.9709Y-6.0394
T4
X4.446Y-4.38
X4.446Y-4.48
X4.446Y-4.58
X4.446Y-4.68
X4.446Y-4.78
X4.446Y-4.88
X4.446Y-4.98
X4.446Y-5.08
X4.446Y-5.18
X4.446Y-5.28
X4.446Y-5.38
X4.446Y-5.48
X4.446Y-5.58
X4.446Y-5.68
X4.446Y-5.78
X4.446Y-5.88
X4.446Y-5.98
X4.546Y-4.38
X4.546Y-4.48
X4.546Y-4.58
X4.546Y-4.68
X4.546Y-4.78
X4.546Y-4.88
X4.546Y-4.98
X4.546Y-5.08
X4.546Y-5.18
X4.546Y-5.28
X4.546Y-5.38
X4.546Y-5.48
X4.546Y-5.58
X4.546Y-5.68
X4.546Y-5.78
X4.546Y-5.88
X4.546Y-5.98
X5.2213Y-4.1732
X5.3213Y-4.1732
X5.4213Y-4.1732
X7.732Y-4.2564
X7.732Y-4.3564
X7.732Y-4.4564
X7.732Y-4.5564
X8.2362Y-4.1004
X8.2362Y-4.6713
X8.3346Y-4.6713
X8.4331Y-4.1004
X8.4331Y-4.6713
T5
X8.2067Y-4.8607
X8.2067Y-5.0379
X8.2067Y-5.2274
X8.2067Y-5.4046
X8.2067Y-5.594
X8.2067Y-5.7712
X8.4626Y-4.8607
X8.4626Y-5.0379
X8.4626Y-5.2274
X8.4626Y-5.4046
X8.4626Y-5.594
X8.4626Y-5.7712
T6
G00X8.1142Y-4.4016
M15
G01X8.1142Y-4.3504
M16
G05
G00X8.5551Y-4.4016
M15
G01X8.5551Y-4.3504
M16
G05
T0
M30
