%TF.GenerationSoftware,KiCad,Pcbnew,7.0.11*%
%TF.CreationDate,2024-05-28T23:21:32+03:00*%
%TF.ProjectId,delta_flop_arduino,64656c74-615f-4666-9c6f-705f61726475,rev?*%
%TF.SameCoordinates,Original*%
%TF.FileFunction,Copper,L1,Top*%
%TF.FilePolarity,Positive*%
%FSLAX46Y46*%
G04 Gerber Fmt 4.6, Leading zero omitted, Abs format (unit mm)*
G04 Created by KiCad (PCBNEW 7.0.11) date 2024-05-28 23:21:32*
%MOMM*%
%LPD*%
G01*
G04 APERTURE LIST*
G04 Aperture macros list*
%AMRoundRect*
0 Rectangle with rounded corners*
0 $1 Rounding radius*
0 $2 $3 $4 $5 $6 $7 $8 $9 X,Y pos of 4 corners*
0 Add a 4 corners polygon primitive as box body*
4,1,4,$2,$3,$4,$5,$6,$7,$8,$9,$2,$3,0*
0 Add four circle primitives for the rounded corners*
1,1,$1+$1,$2,$3*
1,1,$1+$1,$4,$5*
1,1,$1+$1,$6,$7*
1,1,$1+$1,$8,$9*
0 Add four rect primitives between the rounded corners*
20,1,$1+$1,$2,$3,$4,$5,0*
20,1,$1+$1,$4,$5,$6,$7,0*
20,1,$1+$1,$6,$7,$8,$9,0*
20,1,$1+$1,$8,$9,$2,$3,0*%
G04 Aperture macros list end*
%TA.AperFunction,ComponentPad*%
%ADD10C,1.524000*%
%TD*%
%TA.AperFunction,SMDPad,CuDef*%
%ADD11R,0.900000X1.800000*%
%TD*%
%TA.AperFunction,SMDPad,CuDef*%
%ADD12R,1.100000X1.800000*%
%TD*%
%TA.AperFunction,SMDPad,CuDef*%
%ADD13R,1.400000X2.000000*%
%TD*%
%TA.AperFunction,ComponentPad*%
%ADD14C,1.600000*%
%TD*%
%TA.AperFunction,ComponentPad*%
%ADD15O,1.600000X1.600000*%
%TD*%
%TA.AperFunction,ComponentPad*%
%ADD16RoundRect,0.250000X0.600000X0.600000X-0.600000X0.600000X-0.600000X-0.600000X0.600000X-0.600000X0*%
%TD*%
%TA.AperFunction,ComponentPad*%
%ADD17C,1.700000*%
%TD*%
%TA.AperFunction,ComponentPad*%
%ADD18R,2.400000X1.600000*%
%TD*%
%TA.AperFunction,ComponentPad*%
%ADD19O,2.400000X1.600000*%
%TD*%
%TA.AperFunction,ComponentPad*%
%ADD20R,1.600000X1.600000*%
%TD*%
%TA.AperFunction,ComponentPad*%
%ADD21R,1.700000X1.700000*%
%TD*%
%TA.AperFunction,ComponentPad*%
%ADD22O,1.700000X1.700000*%
%TD*%
%TA.AperFunction,ComponentPad*%
%ADD23C,2.000000*%
%TD*%
%TA.AperFunction,ViaPad*%
%ADD24C,0.800000*%
%TD*%
%TA.AperFunction,Conductor*%
%ADD25C,0.500000*%
%TD*%
%TA.AperFunction,Conductor*%
%ADD26C,0.250000*%
%TD*%
G04 APERTURE END LIST*
D10*
%TO.P,J3,1,Pin_1*%
%TO.N,+5V*%
X208362500Y-150375000D03*
%TO.P,J3,2,Pin_2*%
%TO.N,unconnected-(J3-Pin_2-Pad2)*%
X210902500Y-150375000D03*
%TO.P,J3,3,Pin_3*%
%TO.N,unconnected-(J3-Pin_3-Pad3)*%
X213442500Y-150375000D03*
%TO.P,J3,4,Pin_4*%
%TO.N,GND*%
X215982500Y-150375000D03*
%TD*%
D11*
%TO.P,J2,1,CD/DAT3*%
%TO.N,Net-(J2-CD{slash}DAT3)*%
X179070000Y-127818200D03*
%TO.P,J2,2,CMD*%
%TO.N,Net-(J2-CMD)*%
X176570000Y-127818200D03*
%TO.P,J2,3,VSS*%
%TO.N,GND*%
X174820000Y-127818200D03*
%TO.P,J2,4,VDD*%
%TO.N,3.3V*%
X171570000Y-127818200D03*
%TO.P,J2,5,CLK*%
%TO.N,Net-(J2-CLK)*%
X169070000Y-127818200D03*
%TO.P,J2,6,VSS*%
%TO.N,GND*%
X166570000Y-127818200D03*
%TO.P,J2,7,DAT0*%
%TO.N,MISO*%
X164150000Y-127818200D03*
%TO.P,J2,8,DAT1*%
%TO.N,unconnected-(J2-DAT1-Pad8)*%
X162450000Y-127818200D03*
%TO.P,J2,9,DAT2*%
%TO.N,unconnected-(J2-DAT2-Pad9)*%
X181570000Y-127818200D03*
%TO.P,J2,10,CARD_DETECT*%
%TO.N,unconnected-(J2-CARD_DETECT-Pad10)*%
X173320000Y-127818200D03*
D12*
%TO.P,J2,11,WRITE_PROTECT*%
%TO.N,unconnected-(J2-WRITE_PROTECT-Pad11)*%
X159300000Y-127818200D03*
D13*
%TO.P,J2,12,SHELL1*%
%TO.N,unconnected-(J2-SHELL1-Pad12)*%
X187050000Y-148818200D03*
%TO.P,J2,13,SHELL2*%
%TO.N,unconnected-(J2-SHELL2-Pad13)*%
X157550000Y-149968200D03*
%TD*%
D14*
%TO.P,R3,1*%
%TO.N,Net-(J2-CMD)*%
X154060000Y-137266700D03*
D15*
%TO.P,R3,2*%
%TO.N,MOSI*%
X143900000Y-137266700D03*
%TD*%
D14*
%TO.P,R4,1*%
%TO.N,Net-(J2-CMD)*%
X154060000Y-141250000D03*
D15*
%TO.P,R4,2*%
%TO.N,GND*%
X143900000Y-141250000D03*
%TD*%
D16*
%TO.P,D1,1,GND*%
%TO.N,GND*%
X116240000Y-151815800D03*
D17*
%TO.P,D1,2,DENSITY_SELECT*%
%TO.N,unconnected-(D1-DENSITY_SELECT-Pad2)*%
X113700000Y-151815800D03*
%TO.P,D1,3,GND*%
%TO.N,GND*%
X116240000Y-149275800D03*
%TO.P,D1,4,N/C*%
%TO.N,unconnected-(D1-N{slash}C-Pad4)*%
X113700000Y-149275800D03*
%TO.P,D1,5,GND*%
%TO.N,GND*%
X116240000Y-146735800D03*
%TO.P,D1,6,N/C*%
%TO.N,unconnected-(D1-N{slash}C-Pad6)*%
X113700000Y-146735800D03*
%TO.P,D1,7,GND*%
%TO.N,GND*%
X116240000Y-144195800D03*
%TO.P,D1,8,INDEX*%
%TO.N,D9*%
X113700000Y-144195800D03*
%TO.P,D1,9,GND*%
%TO.N,GND*%
X116240000Y-141655800D03*
%TO.P,D1,10,MOTOR_0*%
%TO.N,Net-(D1-MOTOR_0)*%
X113700000Y-141655800D03*
%TO.P,D1,11,GND*%
%TO.N,GND*%
X116240000Y-139115800D03*
%TO.P,D1,12,DRIVE_SELECT_1*%
%TO.N,Net-(D1-DRIVE_SELECT_1)*%
X113700000Y-139115800D03*
%TO.P,D1,13,GND*%
%TO.N,GND*%
X116240000Y-136575800D03*
%TO.P,D1,14,DRIVE_SELECT_0*%
%TO.N,unconnected-(D1-DRIVE_SELECT_0-Pad14)*%
X113700000Y-136575800D03*
%TO.P,D1,15,GND*%
%TO.N,GND*%
X116240000Y-134035800D03*
%TO.P,D1,16,MOTOR_1*%
%TO.N,D6*%
X113700000Y-134035800D03*
%TO.P,D1,17,GND*%
%TO.N,GND*%
X116240000Y-131495800D03*
%TO.P,D1,18,DIRECTION*%
%TO.N,D5*%
X113700000Y-131495800D03*
%TO.P,D1,19,GND*%
%TO.N,GND*%
X116240000Y-128955800D03*
%TO.P,D1,20,STEP*%
%TO.N,D4*%
X113700000Y-128955800D03*
%TO.P,D1,21,GND*%
%TO.N,GND*%
X116240000Y-126415800D03*
%TO.P,D1,22,WRITE_DATA*%
%TO.N,D8*%
X113700000Y-126415800D03*
%TO.P,D1,23,GND*%
%TO.N,GND*%
X116240000Y-123875800D03*
%TO.P,D1,24,WRITE_GATE*%
%TO.N,A0*%
X113700000Y-123875800D03*
%TO.P,D1,25,GND*%
%TO.N,GND*%
X116240000Y-121335800D03*
%TO.P,D1,26,TRACK*%
%TO.N,D3*%
X113700000Y-121335800D03*
%TO.P,D1,27,GND*%
%TO.N,GND*%
X116240000Y-118795800D03*
%TO.P,D1,28,WRITE_PROTECT*%
%TO.N,D2*%
X113700000Y-118795800D03*
%TO.P,D1,29,GND*%
%TO.N,GND*%
X116240000Y-116255800D03*
%TO.P,D1,30,READ_DATA*%
%TO.N,TX*%
X113700000Y-116255800D03*
%TO.P,D1,31,GND*%
%TO.N,GND*%
X116240000Y-113715800D03*
%TO.P,D1,32,HEAD_SELECT*%
%TO.N,RX*%
X113700000Y-113715800D03*
%TO.P,D1,33,GND*%
%TO.N,GND*%
X116240000Y-111175800D03*
%TO.P,D1,34,DISK_CHANGE*%
%TO.N,unconnected-(D1-DISK_CHANGE-Pad34)*%
X113700000Y-111175800D03*
%TD*%
D18*
%TO.P,U2,1*%
%TO.N,Net-(U1-D1{slash}TX)*%
X205100000Y-136725000D03*
D19*
%TO.P,U2,2*%
X205100000Y-134185000D03*
%TO.P,U2,3*%
%TO.N,Net-(U2-Pad3)*%
X205100000Y-131645000D03*
%TO.P,U2,4*%
X205100000Y-129105000D03*
%TO.P,U2,5*%
X205100000Y-126565000D03*
%TO.P,U2,6*%
%TO.N,TX*%
X205100000Y-124025000D03*
%TO.P,U2,7,GND*%
%TO.N,GND*%
X205100000Y-121485000D03*
%TO.P,U2,8*%
%TO.N,unconnected-(U2-Pad8)*%
X197480000Y-121485000D03*
%TO.P,U2,9*%
%TO.N,unconnected-(U2-Pad9)*%
X197480000Y-124025000D03*
%TO.P,U2,10*%
%TO.N,unconnected-(U2-Pad10)*%
X197480000Y-126565000D03*
%TO.P,U2,11*%
%TO.N,unconnected-(U2-Pad11)*%
X197480000Y-129105000D03*
%TO.P,U2,12*%
%TO.N,unconnected-(U2-Pad12)*%
X197480000Y-131645000D03*
%TO.P,U2,13*%
%TO.N,unconnected-(U2-Pad13)*%
X197480000Y-134185000D03*
%TO.P,U2,14,VCC*%
%TO.N,+5V*%
X197480000Y-136725000D03*
%TD*%
D20*
%TO.P,U1,1,D1/TX*%
%TO.N,Net-(U1-D1{slash}TX)*%
X123400000Y-115200000D03*
D15*
%TO.P,U1,2,D0/RX*%
%TO.N,RX*%
X123400000Y-117740000D03*
%TO.P,U1,3,~{RESET}*%
%TO.N,unconnected-(U1-~{RESET}-Pad3)*%
X123400000Y-120280000D03*
%TO.P,U1,4,GND*%
%TO.N,GND*%
X123400000Y-122820000D03*
%TO.P,U1,5,D2*%
%TO.N,D2*%
X123400000Y-125360000D03*
%TO.P,U1,6,~D3*%
%TO.N,D3*%
X123400000Y-127900000D03*
%TO.P,U1,7,D4*%
%TO.N,D4*%
X123400000Y-130440000D03*
%TO.P,U1,8,~D5*%
%TO.N,D5*%
X123400000Y-132980000D03*
%TO.P,U1,9,~D6*%
%TO.N,D6*%
X123400000Y-135520000D03*
%TO.P,U1,10,D7*%
%TO.N,Net-(JP1-C)*%
X123400000Y-138060000D03*
%TO.P,U1,11,D8*%
%TO.N,D8*%
X123400000Y-140600000D03*
%TO.P,U1,12,~D9*%
%TO.N,D9*%
X123400000Y-143140000D03*
%TO.P,U1,13,~D10*%
%TO.N,D10*%
X123400000Y-145680000D03*
%TO.P,U1,14,~D11*%
%TO.N,MOSI*%
X123400000Y-148220000D03*
%TO.P,U1,15,D12*%
%TO.N,MISO*%
X123400000Y-150760000D03*
%TO.P,U1,16,D13*%
%TO.N,SCK*%
X138640000Y-150760000D03*
%TO.P,U1,17,3V3*%
%TO.N,3.3V*%
X138640000Y-148220000D03*
%TO.P,U1,18,AREF*%
%TO.N,unconnected-(U1-AREF-Pad18)*%
X138640000Y-145680000D03*
%TO.P,U1,19,A0/D14*%
%TO.N,A0*%
X138640000Y-143140000D03*
%TO.P,U1,20,A1/D15*%
%TO.N,Net-(U1-A1{slash}D15)*%
X138640000Y-140600000D03*
%TO.P,U1,21,A2/D16*%
%TO.N,Net-(U1-A2{slash}D16)*%
X138640000Y-138060000D03*
%TO.P,U1,22,A3/D17*%
%TO.N,Net-(U1-A3{slash}D17)*%
X138640000Y-135520000D03*
%TO.P,U1,23,A4/D18*%
%TO.N,SDA*%
X138640000Y-132980000D03*
%TO.P,U1,24,A5/D19*%
%TO.N,SCL*%
X138640000Y-130440000D03*
%TO.P,U1,25,A6/D20*%
%TO.N,unconnected-(U1-A6{slash}D20-Pad25)*%
X138640000Y-127900000D03*
%TO.P,U1,26,A7/D21*%
%TO.N,unconnected-(U1-A7{slash}D21-Pad26)*%
X138640000Y-125360000D03*
%TO.P,U1,27,+5V*%
%TO.N,+5V*%
X138640000Y-122820000D03*
%TO.P,U1,28,~{RESET}*%
%TO.N,unconnected-(U1-~{RESET}-Pad28)*%
X138640000Y-120280000D03*
%TO.P,U1,29,GND*%
%TO.N,GND*%
X138640000Y-117740000D03*
%TO.P,U1,30,VIN*%
%TO.N,unconnected-(U1-VIN-Pad30)*%
X138640000Y-115200000D03*
%TD*%
D14*
%TO.P,R2,1*%
%TO.N,3.3V*%
X143900000Y-133283300D03*
D15*
%TO.P,R2,2*%
%TO.N,MISO*%
X154060000Y-133283300D03*
%TD*%
D14*
%TO.P,R5,1*%
%TO.N,Net-(J2-CD{slash}DAT3)*%
X154060000Y-145233300D03*
D15*
%TO.P,R5,2*%
%TO.N,GND*%
X143900000Y-145233300D03*
%TD*%
D14*
%TO.P,R1,1*%
%TO.N,Net-(J2-CLK)*%
X143900000Y-129300000D03*
D15*
%TO.P,R1,2*%
%TO.N,GND*%
X154060000Y-129300000D03*
%TD*%
D21*
%TO.P,J1,1,Pin_1*%
%TO.N,GND*%
X196400000Y-108100000D03*
D22*
%TO.P,J1,2,Pin_2*%
%TO.N,+5V*%
X196400000Y-110640000D03*
%TO.P,J1,3,Pin_3*%
%TO.N,SDA*%
X196400000Y-113180000D03*
%TO.P,J1,4,Pin_4*%
%TO.N,SCL*%
X196400000Y-115720000D03*
%TD*%
D14*
%TO.P,C1,1*%
%TO.N,+5V*%
X146100000Y-122700000D03*
%TO.P,C1,2*%
%TO.N,GND*%
X146100000Y-117700000D03*
%TD*%
%TO.P,R7,1*%
%TO.N,Net-(J2-CD{slash}DAT3)*%
X154060000Y-153200000D03*
D15*
%TO.P,R7,2*%
%TO.N,D10*%
X143900000Y-153200000D03*
%TD*%
D21*
%TO.P,JP1,1,A*%
%TO.N,Net-(D1-DRIVE_SELECT_1)*%
X137675000Y-105100000D03*
D22*
%TO.P,JP1,2,C*%
%TO.N,Net-(JP1-C)*%
X135135000Y-105100000D03*
%TO.P,JP1,3,B*%
%TO.N,Net-(D1-MOTOR_0)*%
X132595000Y-105100000D03*
%TD*%
D14*
%TO.P,R6,1*%
%TO.N,Net-(J2-CLK)*%
X154060000Y-149216700D03*
D15*
%TO.P,R6,2*%
%TO.N,SCK*%
X143900000Y-149216700D03*
%TD*%
D23*
%TO.P,SW2,1,1*%
%TO.N,Net-(U1-A1{slash}D15)*%
X215900000Y-127000000D03*
X209400000Y-127000000D03*
%TO.P,SW2,2,2*%
%TO.N,GND*%
X215900000Y-131500000D03*
X209400000Y-131500000D03*
%TD*%
%TO.P,SW3,1,1*%
%TO.N,Net-(U1-A2{slash}D16)*%
X215900000Y-140200000D03*
X209400000Y-140200000D03*
%TO.P,SW3,2,2*%
%TO.N,GND*%
X215900000Y-144700000D03*
X209400000Y-144700000D03*
%TD*%
%TO.P,SW1,1,1*%
%TO.N,Net-(U1-A3{slash}D17)*%
X215900000Y-113800000D03*
X209400000Y-113800000D03*
%TO.P,SW1,2,2*%
%TO.N,GND*%
X215900000Y-118300000D03*
X209400000Y-118300000D03*
%TD*%
D24*
%TO.N,Net-(J2-CD{slash}DAT3)*%
X163587700Y-137751800D03*
%TO.N,Net-(U1-D1{slash}TX)*%
X147412500Y-123482700D03*
X182672200Y-131024400D03*
%TD*%
D25*
%TO.N,GND*%
X123400000Y-122820000D02*
X124651900Y-122820000D01*
X116454200Y-141870000D02*
X142028100Y-141870000D01*
X196551500Y-122755000D02*
X202178100Y-122755000D01*
X116240000Y-121335800D02*
X116240000Y-121764200D01*
X166570000Y-127818200D02*
X166570000Y-126466300D01*
X138640000Y-117740000D02*
X137388100Y-117740000D01*
X192840200Y-126466300D02*
X196551500Y-122755000D01*
X203448100Y-121485000D02*
X203448100Y-115148100D01*
X142028100Y-141870000D02*
X142648100Y-141250000D01*
X205100000Y-121485000D02*
X203448100Y-121485000D01*
X203448100Y-115148100D02*
X196400000Y-108100000D01*
X202178100Y-122755000D02*
X203448100Y-121485000D01*
X116240000Y-113715800D02*
X116240000Y-116255800D01*
X117295800Y-122820000D02*
X116240000Y-123875800D01*
X174820000Y-126466300D02*
X192840200Y-126466300D01*
X215900000Y-118300000D02*
X209400000Y-118300000D01*
X116240000Y-139115800D02*
X116240000Y-141655800D01*
X129731900Y-117740000D02*
X124651900Y-122820000D01*
X174820000Y-127818200D02*
X174820000Y-126466300D01*
X143900000Y-145233300D02*
X143900000Y-143981400D01*
X116240000Y-118795800D02*
X116240000Y-121335800D01*
X142028100Y-141870000D02*
X142028100Y-142109500D01*
X158145600Y-126466300D02*
X166570000Y-126466300D01*
X154060000Y-129300000D02*
X155311900Y-129300000D01*
X116240000Y-123875800D02*
X116240000Y-126415800D01*
X137388100Y-117740000D02*
X129731900Y-117740000D01*
X142028100Y-142109500D02*
X143900000Y-143981400D01*
X116240000Y-121764200D02*
X117295800Y-122820000D01*
X143900000Y-141250000D02*
X142648100Y-141250000D01*
X123400000Y-122820000D02*
X117295800Y-122820000D01*
X155311900Y-129300000D02*
X158145600Y-126466300D01*
X174820000Y-126466300D02*
X166570000Y-126466300D01*
X116240000Y-141655800D02*
X116454200Y-141870000D01*
D26*
%TO.N,+5V*%
X146100000Y-122700000D02*
X139886900Y-122700000D01*
X139886900Y-122700000D02*
X139766900Y-122820000D01*
X138640000Y-122820000D02*
X139766900Y-122820000D01*
%TO.N,Net-(D1-DRIVE_SELECT_1)*%
X112444600Y-137860400D02*
X112444600Y-115839500D01*
X115809100Y-112445800D02*
X129520100Y-112445800D01*
X129520100Y-112445800D02*
X136498100Y-105467800D01*
X136498100Y-105467800D02*
X136498100Y-105100000D01*
X137675000Y-105100000D02*
X136498100Y-105100000D01*
X114970000Y-113284900D02*
X115809100Y-112445800D01*
X113700000Y-139115800D02*
X112444600Y-137860400D01*
X114015900Y-115078900D02*
X114970000Y-114124800D01*
X112444600Y-115839500D02*
X113205200Y-115078900D01*
X114970000Y-114124800D02*
X114970000Y-113284900D01*
X113205200Y-115078900D02*
X114015900Y-115078900D01*
%TO.N,D9*%
X114916500Y-142979300D02*
X122112400Y-142979300D01*
X113700000Y-144195800D02*
X114916500Y-142979300D01*
X122112400Y-142979300D02*
X122273100Y-143140000D01*
X123400000Y-143140000D02*
X122273100Y-143140000D01*
%TO.N,D6*%
X122058900Y-135305800D02*
X122273100Y-135520000D01*
X113700000Y-134035800D02*
X114970000Y-135305800D01*
X123400000Y-135520000D02*
X122273100Y-135520000D01*
X114970000Y-135305800D02*
X122058900Y-135305800D01*
%TO.N,D5*%
X113700000Y-131495800D02*
X114970000Y-132765800D01*
X114970000Y-132765800D02*
X122058900Y-132765800D01*
X123400000Y-132980000D02*
X122273100Y-132980000D01*
X122058900Y-132765800D02*
X122273100Y-132980000D01*
%TO.N,D4*%
X113700000Y-128955800D02*
X114970000Y-130225800D01*
X114970000Y-130225800D02*
X122058900Y-130225800D01*
X122058900Y-130225800D02*
X122273100Y-130440000D01*
X123400000Y-130440000D02*
X122273100Y-130440000D01*
%TO.N,TX*%
X123772900Y-129170000D02*
X119293200Y-129170000D01*
X119293200Y-129170000D02*
X117809000Y-127685800D01*
X131392900Y-136790000D02*
X123772900Y-129170000D01*
X139834400Y-136790000D02*
X131392900Y-136790000D01*
X114970000Y-126819300D02*
X114970000Y-117525800D01*
X115836500Y-127685800D02*
X114970000Y-126819300D01*
X114970000Y-117525800D02*
X113700000Y-116255800D01*
X198827500Y-130297500D02*
X182371200Y-130297500D01*
X173696200Y-138972500D02*
X142016900Y-138972500D01*
X142016900Y-138972500D02*
X139834400Y-136790000D01*
X117809000Y-127685800D02*
X115836500Y-127685800D01*
X205100000Y-124025000D02*
X198827500Y-130297500D01*
X182371200Y-130297500D02*
X173696200Y-138972500D01*
%TO.N,SDA*%
X196400000Y-114356900D02*
X196032100Y-114356900D01*
X196032100Y-114356900D02*
X195223100Y-115165900D01*
X138640000Y-132980000D02*
X138640000Y-131853100D01*
X196400000Y-113180000D02*
X196400000Y-114356900D01*
X195223100Y-115165900D02*
X195223100Y-122785700D01*
X145849400Y-125683100D02*
X139679400Y-131853100D01*
X195223100Y-122785700D02*
X192325700Y-125683100D01*
X192325700Y-125683100D02*
X145849400Y-125683100D01*
X139679400Y-131853100D02*
X138640000Y-131853100D01*
%TO.N,Net-(J2-CD{slash}DAT3)*%
X170363300Y-137751800D02*
X163587700Y-137751800D01*
X179070000Y-129045100D02*
X170363300Y-137751800D01*
X179070000Y-127818200D02*
X179070000Y-129045100D01*
%TO.N,MISO*%
X164150000Y-127818200D02*
X164150000Y-129045100D01*
X154060000Y-133283300D02*
X155186900Y-133283300D01*
X159425100Y-129045100D02*
X155186900Y-133283300D01*
X164150000Y-129045100D02*
X159425100Y-129045100D01*
%TO.N,Net-(J2-CMD)*%
X176570000Y-127818200D02*
X176570000Y-129045100D01*
X176570000Y-129045100D02*
X170262600Y-135352500D01*
X170262600Y-135352500D02*
X155974200Y-135352500D01*
X155974200Y-135352500D02*
X154060000Y-137266700D01*
%TO.N,Net-(J2-CLK)*%
X149011400Y-134411400D02*
X143900000Y-129300000D01*
X169070000Y-129045100D02*
X163703700Y-134411400D01*
X169070000Y-127818200D02*
X169070000Y-129045100D01*
X163703700Y-134411400D02*
X149011400Y-134411400D01*
%TO.N,Net-(U1-A2{slash}D16)*%
X141151200Y-139444300D02*
X208644300Y-139444300D01*
X208644300Y-139444300D02*
X209400000Y-140200000D01*
X139766900Y-138060000D02*
X141151200Y-139444300D01*
X215900000Y-140200000D02*
X209400000Y-140200000D01*
X138640000Y-138060000D02*
X139766900Y-138060000D01*
%TO.N,Net-(U1-A3{slash}D17)*%
X184194400Y-127835200D02*
X173531200Y-138498400D01*
X207665300Y-115534700D02*
X207665300Y-120917300D01*
X204206200Y-122755000D02*
X199126000Y-127835200D01*
X173531200Y-138498400D02*
X147573200Y-138498400D01*
X199126000Y-127835200D02*
X184194400Y-127835200D01*
X144594800Y-135520000D02*
X138640000Y-135520000D01*
X207665300Y-120917300D02*
X205827600Y-122755000D01*
X215900000Y-113800000D02*
X209400000Y-113800000D01*
X205827600Y-122755000D02*
X204206200Y-122755000D01*
X209400000Y-113800000D02*
X207665300Y-115534700D01*
X147573200Y-138498400D02*
X144594800Y-135520000D01*
%TO.N,Net-(U1-A1{slash}D15)*%
X156869200Y-140117100D02*
X140249800Y-140117100D01*
X158308800Y-141556700D02*
X156869200Y-140117100D01*
X215900000Y-127000000D02*
X217256100Y-128356100D01*
X140249800Y-140117100D02*
X139766900Y-140600000D01*
X217256100Y-128356100D02*
X217256100Y-140768500D01*
X215900000Y-127000000D02*
X209400000Y-127000000D01*
X217256100Y-140768500D02*
X216467900Y-141556700D01*
X216467900Y-141556700D02*
X158308800Y-141556700D01*
X138640000Y-140600000D02*
X139766900Y-140600000D01*
%TO.N,3.3V*%
X171570000Y-129045100D02*
X165751800Y-134863300D01*
X145480000Y-134863300D02*
X143900000Y-133283300D01*
X171570000Y-127818200D02*
X171570000Y-129045100D01*
X165751800Y-134863300D02*
X145480000Y-134863300D01*
%TO.N,SCK*%
X143900000Y-149216700D02*
X141310200Y-149216700D01*
X141310200Y-149216700D02*
X139766900Y-150760000D01*
X138640000Y-150760000D02*
X139766900Y-150760000D01*
%TO.N,D10*%
X143900000Y-153200000D02*
X132046900Y-153200000D01*
X132046900Y-153200000D02*
X124526900Y-145680000D01*
X123400000Y-145680000D02*
X124526900Y-145680000D01*
%TO.N,Net-(U1-D1{slash}TX)*%
X182672200Y-131024400D02*
X184562800Y-132915000D01*
X124526900Y-115200000D02*
X125653800Y-116326900D01*
X141320600Y-116326900D02*
X147412500Y-122418800D01*
X202303100Y-132915000D02*
X203573100Y-134185000D01*
X203573100Y-134185000D02*
X203573100Y-136725000D01*
X205100000Y-136725000D02*
X203573100Y-136725000D01*
X205100000Y-134185000D02*
X203573100Y-134185000D01*
X184562800Y-132915000D02*
X202303100Y-132915000D01*
X125653800Y-116326900D02*
X141320600Y-116326900D01*
X147412500Y-122418800D02*
X147412500Y-123482700D01*
X123400000Y-115200000D02*
X124526900Y-115200000D01*
%TO.N,Net-(U2-Pad3)*%
X204336600Y-129105000D02*
X203573100Y-129105000D01*
X205100000Y-129105000D02*
X204336600Y-129105000D01*
X205100000Y-131645000D02*
X203573100Y-131645000D01*
X203573100Y-131178200D02*
X203573100Y-131645000D01*
X203573100Y-126565000D02*
X203573100Y-129105000D01*
X205100000Y-126565000D02*
X203573100Y-126565000D01*
X204336600Y-130414800D02*
X204336500Y-130414800D01*
X204336500Y-130414800D02*
X203573100Y-131178200D01*
X204336600Y-129105000D02*
X204336600Y-130414800D01*
%TD*%
M02*
