%TF.GenerationSoftware,KiCad,Pcbnew,7.0.11*%
%TF.CreationDate,2024-05-28T23:21:32+03:00*%
%TF.ProjectId,delta_flop_arduino,64656c74-615f-4666-9c6f-705f61726475,rev?*%
%TF.SameCoordinates,Original*%
%TF.FileFunction,Legend,Bot*%
%TF.FilePolarity,Positive*%
%FSLAX46Y46*%
G04 Gerber Fmt 4.6, Leading zero omitted, Abs format (unit mm)*
G04 Created by KiCad (PCBNEW 7.0.11) date 2024-05-28 23:21:32*
%MOMM*%
%LPD*%
G01*
G04 APERTURE LIST*
%ADD10C,0.150000*%
%ADD11C,0.120000*%
G04 APERTURE END LIST*
D10*
X213983332Y-125407200D02*
X213840475Y-125454819D01*
X213840475Y-125454819D02*
X213602380Y-125454819D01*
X213602380Y-125454819D02*
X213507142Y-125407200D01*
X213507142Y-125407200D02*
X213459523Y-125359580D01*
X213459523Y-125359580D02*
X213411904Y-125264342D01*
X213411904Y-125264342D02*
X213411904Y-125169104D01*
X213411904Y-125169104D02*
X213459523Y-125073866D01*
X213459523Y-125073866D02*
X213507142Y-125026247D01*
X213507142Y-125026247D02*
X213602380Y-124978628D01*
X213602380Y-124978628D02*
X213792856Y-124931009D01*
X213792856Y-124931009D02*
X213888094Y-124883390D01*
X213888094Y-124883390D02*
X213935713Y-124835771D01*
X213935713Y-124835771D02*
X213983332Y-124740533D01*
X213983332Y-124740533D02*
X213983332Y-124645295D01*
X213983332Y-124645295D02*
X213935713Y-124550057D01*
X213935713Y-124550057D02*
X213888094Y-124502438D01*
X213888094Y-124502438D02*
X213792856Y-124454819D01*
X213792856Y-124454819D02*
X213554761Y-124454819D01*
X213554761Y-124454819D02*
X213411904Y-124502438D01*
X213078570Y-124454819D02*
X212840475Y-125454819D01*
X212840475Y-125454819D02*
X212649999Y-124740533D01*
X212649999Y-124740533D02*
X212459523Y-125454819D01*
X212459523Y-125454819D02*
X212221428Y-124454819D01*
X211888094Y-124550057D02*
X211840475Y-124502438D01*
X211840475Y-124502438D02*
X211745237Y-124454819D01*
X211745237Y-124454819D02*
X211507142Y-124454819D01*
X211507142Y-124454819D02*
X211411904Y-124502438D01*
X211411904Y-124502438D02*
X211364285Y-124550057D01*
X211364285Y-124550057D02*
X211316666Y-124645295D01*
X211316666Y-124645295D02*
X211316666Y-124740533D01*
X211316666Y-124740533D02*
X211364285Y-124883390D01*
X211364285Y-124883390D02*
X211935713Y-125454819D01*
X211935713Y-125454819D02*
X211316666Y-125454819D01*
X214150000Y-133631009D02*
X213816667Y-133631009D01*
X213673810Y-134154819D02*
X214150000Y-134154819D01*
X214150000Y-134154819D02*
X214150000Y-133154819D01*
X214150000Y-133154819D02*
X213673810Y-133154819D01*
X213245238Y-133488152D02*
X213245238Y-134154819D01*
X213245238Y-133583390D02*
X213197619Y-133535771D01*
X213197619Y-133535771D02*
X213102381Y-133488152D01*
X213102381Y-133488152D02*
X212959524Y-133488152D01*
X212959524Y-133488152D02*
X212864286Y-133535771D01*
X212864286Y-133535771D02*
X212816667Y-133631009D01*
X212816667Y-133631009D02*
X212816667Y-134154819D01*
X212483333Y-133488152D02*
X212102381Y-133488152D01*
X212340476Y-133154819D02*
X212340476Y-134011961D01*
X212340476Y-134011961D02*
X212292857Y-134107200D01*
X212292857Y-134107200D02*
X212197619Y-134154819D01*
X212197619Y-134154819D02*
X212102381Y-134154819D01*
X211769047Y-134154819D02*
X211769047Y-133488152D01*
X211769047Y-133678628D02*
X211721428Y-133583390D01*
X211721428Y-133583390D02*
X211673809Y-133535771D01*
X211673809Y-133535771D02*
X211578571Y-133488152D01*
X211578571Y-133488152D02*
X211483333Y-133488152D01*
X210769047Y-134107200D02*
X210864285Y-134154819D01*
X210864285Y-134154819D02*
X211054761Y-134154819D01*
X211054761Y-134154819D02*
X211149999Y-134107200D01*
X211149999Y-134107200D02*
X211197618Y-134011961D01*
X211197618Y-134011961D02*
X211197618Y-133631009D01*
X211197618Y-133631009D02*
X211149999Y-133535771D01*
X211149999Y-133535771D02*
X211054761Y-133488152D01*
X211054761Y-133488152D02*
X210864285Y-133488152D01*
X210864285Y-133488152D02*
X210769047Y-133535771D01*
X210769047Y-133535771D02*
X210721428Y-133631009D01*
X210721428Y-133631009D02*
X210721428Y-133726247D01*
X210721428Y-133726247D02*
X211197618Y-133821485D01*
X210292856Y-134154819D02*
X210292856Y-133488152D01*
X210292856Y-133678628D02*
X210245237Y-133583390D01*
X210245237Y-133583390D02*
X210197618Y-133535771D01*
X210197618Y-133535771D02*
X210102380Y-133488152D01*
X210102380Y-133488152D02*
X210007142Y-133488152D01*
X213983332Y-138607200D02*
X213840475Y-138654819D01*
X213840475Y-138654819D02*
X213602380Y-138654819D01*
X213602380Y-138654819D02*
X213507142Y-138607200D01*
X213507142Y-138607200D02*
X213459523Y-138559580D01*
X213459523Y-138559580D02*
X213411904Y-138464342D01*
X213411904Y-138464342D02*
X213411904Y-138369104D01*
X213411904Y-138369104D02*
X213459523Y-138273866D01*
X213459523Y-138273866D02*
X213507142Y-138226247D01*
X213507142Y-138226247D02*
X213602380Y-138178628D01*
X213602380Y-138178628D02*
X213792856Y-138131009D01*
X213792856Y-138131009D02*
X213888094Y-138083390D01*
X213888094Y-138083390D02*
X213935713Y-138035771D01*
X213935713Y-138035771D02*
X213983332Y-137940533D01*
X213983332Y-137940533D02*
X213983332Y-137845295D01*
X213983332Y-137845295D02*
X213935713Y-137750057D01*
X213935713Y-137750057D02*
X213888094Y-137702438D01*
X213888094Y-137702438D02*
X213792856Y-137654819D01*
X213792856Y-137654819D02*
X213554761Y-137654819D01*
X213554761Y-137654819D02*
X213411904Y-137702438D01*
X213078570Y-137654819D02*
X212840475Y-138654819D01*
X212840475Y-138654819D02*
X212649999Y-137940533D01*
X212649999Y-137940533D02*
X212459523Y-138654819D01*
X212459523Y-138654819D02*
X212221428Y-137654819D01*
X211935713Y-137654819D02*
X211316666Y-137654819D01*
X211316666Y-137654819D02*
X211649999Y-138035771D01*
X211649999Y-138035771D02*
X211507142Y-138035771D01*
X211507142Y-138035771D02*
X211411904Y-138083390D01*
X211411904Y-138083390D02*
X211364285Y-138131009D01*
X211364285Y-138131009D02*
X211316666Y-138226247D01*
X211316666Y-138226247D02*
X211316666Y-138464342D01*
X211316666Y-138464342D02*
X211364285Y-138559580D01*
X211364285Y-138559580D02*
X211411904Y-138607200D01*
X211411904Y-138607200D02*
X211507142Y-138654819D01*
X211507142Y-138654819D02*
X211792856Y-138654819D01*
X211792856Y-138654819D02*
X211888094Y-138607200D01*
X211888094Y-138607200D02*
X211935713Y-138559580D01*
X213840475Y-147354819D02*
X213840475Y-146354819D01*
X213840475Y-146354819D02*
X213602380Y-146354819D01*
X213602380Y-146354819D02*
X213459523Y-146402438D01*
X213459523Y-146402438D02*
X213364285Y-146497676D01*
X213364285Y-146497676D02*
X213316666Y-146592914D01*
X213316666Y-146592914D02*
X213269047Y-146783390D01*
X213269047Y-146783390D02*
X213269047Y-146926247D01*
X213269047Y-146926247D02*
X213316666Y-147116723D01*
X213316666Y-147116723D02*
X213364285Y-147211961D01*
X213364285Y-147211961D02*
X213459523Y-147307200D01*
X213459523Y-147307200D02*
X213602380Y-147354819D01*
X213602380Y-147354819D02*
X213840475Y-147354819D01*
X212697618Y-147354819D02*
X212792856Y-147307200D01*
X212792856Y-147307200D02*
X212840475Y-147259580D01*
X212840475Y-147259580D02*
X212888094Y-147164342D01*
X212888094Y-147164342D02*
X212888094Y-146878628D01*
X212888094Y-146878628D02*
X212840475Y-146783390D01*
X212840475Y-146783390D02*
X212792856Y-146735771D01*
X212792856Y-146735771D02*
X212697618Y-146688152D01*
X212697618Y-146688152D02*
X212554761Y-146688152D01*
X212554761Y-146688152D02*
X212459523Y-146735771D01*
X212459523Y-146735771D02*
X212411904Y-146783390D01*
X212411904Y-146783390D02*
X212364285Y-146878628D01*
X212364285Y-146878628D02*
X212364285Y-147164342D01*
X212364285Y-147164342D02*
X212411904Y-147259580D01*
X212411904Y-147259580D02*
X212459523Y-147307200D01*
X212459523Y-147307200D02*
X212554761Y-147354819D01*
X212554761Y-147354819D02*
X212697618Y-147354819D01*
X212030951Y-146688152D02*
X211840475Y-147354819D01*
X211840475Y-147354819D02*
X211649999Y-146878628D01*
X211649999Y-146878628D02*
X211459523Y-147354819D01*
X211459523Y-147354819D02*
X211269047Y-146688152D01*
X210888094Y-146688152D02*
X210888094Y-147354819D01*
X210888094Y-146783390D02*
X210840475Y-146735771D01*
X210840475Y-146735771D02*
X210745237Y-146688152D01*
X210745237Y-146688152D02*
X210602380Y-146688152D01*
X210602380Y-146688152D02*
X210507142Y-146735771D01*
X210507142Y-146735771D02*
X210459523Y-146831009D01*
X210459523Y-146831009D02*
X210459523Y-147354819D01*
X213983332Y-112207200D02*
X213840475Y-112254819D01*
X213840475Y-112254819D02*
X213602380Y-112254819D01*
X213602380Y-112254819D02*
X213507142Y-112207200D01*
X213507142Y-112207200D02*
X213459523Y-112159580D01*
X213459523Y-112159580D02*
X213411904Y-112064342D01*
X213411904Y-112064342D02*
X213411904Y-111969104D01*
X213411904Y-111969104D02*
X213459523Y-111873866D01*
X213459523Y-111873866D02*
X213507142Y-111826247D01*
X213507142Y-111826247D02*
X213602380Y-111778628D01*
X213602380Y-111778628D02*
X213792856Y-111731009D01*
X213792856Y-111731009D02*
X213888094Y-111683390D01*
X213888094Y-111683390D02*
X213935713Y-111635771D01*
X213935713Y-111635771D02*
X213983332Y-111540533D01*
X213983332Y-111540533D02*
X213983332Y-111445295D01*
X213983332Y-111445295D02*
X213935713Y-111350057D01*
X213935713Y-111350057D02*
X213888094Y-111302438D01*
X213888094Y-111302438D02*
X213792856Y-111254819D01*
X213792856Y-111254819D02*
X213554761Y-111254819D01*
X213554761Y-111254819D02*
X213411904Y-111302438D01*
X213078570Y-111254819D02*
X212840475Y-112254819D01*
X212840475Y-112254819D02*
X212649999Y-111540533D01*
X212649999Y-111540533D02*
X212459523Y-112254819D01*
X212459523Y-112254819D02*
X212221428Y-111254819D01*
X211316666Y-112254819D02*
X211888094Y-112254819D01*
X211602380Y-112254819D02*
X211602380Y-111254819D01*
X211602380Y-111254819D02*
X211697618Y-111397676D01*
X211697618Y-111397676D02*
X211792856Y-111492914D01*
X211792856Y-111492914D02*
X211888094Y-111540533D01*
X212888094Y-119954819D02*
X212888094Y-120764342D01*
X212888094Y-120764342D02*
X212840475Y-120859580D01*
X212840475Y-120859580D02*
X212792856Y-120907200D01*
X212792856Y-120907200D02*
X212697618Y-120954819D01*
X212697618Y-120954819D02*
X212507142Y-120954819D01*
X212507142Y-120954819D02*
X212411904Y-120907200D01*
X212411904Y-120907200D02*
X212364285Y-120859580D01*
X212364285Y-120859580D02*
X212316666Y-120764342D01*
X212316666Y-120764342D02*
X212316666Y-119954819D01*
X211840475Y-120288152D02*
X211840475Y-121288152D01*
X211840475Y-120335771D02*
X211745237Y-120288152D01*
X211745237Y-120288152D02*
X211554761Y-120288152D01*
X211554761Y-120288152D02*
X211459523Y-120335771D01*
X211459523Y-120335771D02*
X211411904Y-120383390D01*
X211411904Y-120383390D02*
X211364285Y-120478628D01*
X211364285Y-120478628D02*
X211364285Y-120764342D01*
X211364285Y-120764342D02*
X211411904Y-120859580D01*
X211411904Y-120859580D02*
X211459523Y-120907200D01*
X211459523Y-120907200D02*
X211554761Y-120954819D01*
X211554761Y-120954819D02*
X211745237Y-120954819D01*
X211745237Y-120954819D02*
X211840475Y-120907200D01*
D11*
%TO.C,SW2*%
X216150000Y-128500000D02*
X216150000Y-130000000D01*
X214900000Y-132500000D02*
X210400000Y-132500000D01*
X210400000Y-126000000D02*
X214900000Y-126000000D01*
X209150000Y-130000000D02*
X209150000Y-128500000D01*
%TO.C,SW3*%
X216150000Y-141700000D02*
X216150000Y-143200000D01*
X214900000Y-145700000D02*
X210400000Y-145700000D01*
X210400000Y-139200000D02*
X214900000Y-139200000D01*
X209150000Y-143200000D02*
X209150000Y-141700000D01*
%TO.C,G\u002A\u002A\u002A*%
G36*
X212041259Y-107611632D02*
G01*
X212041259Y-108137460D01*
X211957915Y-108137460D01*
X211874570Y-108137460D01*
X211882073Y-107620359D01*
X211889577Y-107103258D01*
X211965418Y-107094531D01*
X212041259Y-107085805D01*
X212041259Y-107611632D01*
G37*
G36*
X207408035Y-107613464D02*
G01*
X207408035Y-108137460D01*
X207325299Y-108137460D01*
X207242562Y-108137460D01*
X207242562Y-107613464D01*
X207242562Y-107089468D01*
X207325299Y-107089468D01*
X207408035Y-107089468D01*
X207408035Y-107613464D01*
G37*
G36*
X207297720Y-105751900D02*
G01*
X207297720Y-105876005D01*
X206911618Y-105876005D01*
X206525516Y-105876005D01*
X206525516Y-105751900D01*
X206525516Y-105627796D01*
X206911618Y-105627796D01*
X207297720Y-105627796D01*
X207297720Y-105751900D01*
G37*
G36*
X214519100Y-108124634D02*
G01*
X214550125Y-108137834D01*
X214565482Y-108177868D01*
X214573291Y-108258896D01*
X214574064Y-108272769D01*
X214569844Y-108369959D01*
X214545712Y-108417051D01*
X214528323Y-108427175D01*
X214495765Y-108439981D01*
X214453747Y-108426102D01*
X214422877Y-108366427D01*
X214418240Y-108258896D01*
X214421627Y-108213250D01*
X214432114Y-108154043D01*
X214454120Y-108128903D01*
X214495765Y-108123670D01*
X214519100Y-108124634D01*
G37*
G36*
X209917698Y-105595621D02*
G01*
X209917589Y-105721370D01*
X209916755Y-105960523D01*
X209915176Y-106179502D01*
X209912944Y-106372476D01*
X209910151Y-106533615D01*
X209906886Y-106657088D01*
X209903243Y-106737066D01*
X209899312Y-106767717D01*
X209881232Y-106774703D01*
X209819669Y-106782905D01*
X209733840Y-106786102D01*
X209586754Y-106786102D01*
X209586754Y-105614007D01*
X209586754Y-104441911D01*
X209752226Y-104441911D01*
X209917698Y-104441911D01*
X209917698Y-105595621D01*
G37*
G36*
X218301382Y-105420803D02*
G01*
X218301914Y-105421156D01*
X218317487Y-105457872D01*
X218326636Y-105527516D01*
X218328773Y-105608776D01*
X218323309Y-105680338D01*
X218309658Y-105720889D01*
X218288617Y-105730535D01*
X218233817Y-105732380D01*
X218225142Y-105730829D01*
X218194426Y-105713069D01*
X218177791Y-105668042D01*
X218169268Y-105581824D01*
X218167558Y-105547637D01*
X218169092Y-105476555D01*
X218184134Y-105439619D01*
X218217284Y-105421466D01*
X218254724Y-105414346D01*
X218301382Y-105420803D01*
G37*
G36*
X205670575Y-107751358D02*
G01*
X205670575Y-108137460D01*
X205587839Y-108137460D01*
X205505103Y-108137460D01*
X205505103Y-107837083D01*
X205504970Y-107744818D01*
X205503245Y-107643703D01*
X205497717Y-107580816D01*
X205486170Y-107545946D01*
X205466389Y-107528879D01*
X205436156Y-107519403D01*
X205384424Y-107492480D01*
X205367210Y-107433677D01*
X205371652Y-107381847D01*
X205394744Y-107368694D01*
X205450085Y-107392909D01*
X205482219Y-107405560D01*
X205518846Y-107392909D01*
X205544841Y-107375453D01*
X205603256Y-107365255D01*
X205670575Y-107365255D01*
X205670575Y-107751358D01*
G37*
G36*
X216255636Y-105805098D02*
G01*
X216293204Y-105827417D01*
X216302172Y-105875360D01*
X216300375Y-105901058D01*
X216283400Y-105932587D01*
X216237745Y-105955096D01*
X216150489Y-105977264D01*
X216063071Y-106005549D01*
X215944205Y-106075994D01*
X215854366Y-106169425D01*
X215806618Y-106274549D01*
X215795306Y-106328871D01*
X215777650Y-106413790D01*
X215776025Y-106420604D01*
X215740666Y-106471795D01*
X215685489Y-106481209D01*
X215629408Y-106444880D01*
X215616008Y-106418912D01*
X215612885Y-106359271D01*
X215629181Y-106261585D01*
X215637899Y-106227208D01*
X215702725Y-106085903D01*
X215803289Y-105963433D01*
X215928466Y-105868703D01*
X216067131Y-105810620D01*
X216208161Y-105798089D01*
X216255636Y-105805098D01*
G37*
G36*
X207959609Y-107716431D02*
G01*
X207958922Y-107813733D01*
X207953558Y-107963291D01*
X207942790Y-108059766D01*
X207926515Y-108104365D01*
X207892467Y-108119609D01*
X207813005Y-108132622D01*
X207705885Y-108137460D01*
X207518350Y-108137460D01*
X207518350Y-107749526D01*
X207518350Y-107361592D01*
X207594191Y-107370318D01*
X207670033Y-107379045D01*
X207683822Y-107696200D01*
X207688450Y-107791428D01*
X207696430Y-107900970D01*
X207706549Y-107968939D01*
X207720251Y-108003634D01*
X207738979Y-108013355D01*
X207751563Y-108009617D01*
X207766923Y-107984951D01*
X207778177Y-107930026D01*
X207786767Y-107836542D01*
X207794137Y-107696200D01*
X207807926Y-107379045D01*
X207883768Y-107370318D01*
X207959609Y-107361592D01*
X207959609Y-107716431D01*
G37*
G36*
X212537676Y-107654832D02*
G01*
X212537676Y-108137460D01*
X212454940Y-108137460D01*
X212372204Y-108137460D01*
X212372204Y-107930619D01*
X212372204Y-107723779D01*
X212259971Y-107723779D01*
X212247780Y-107723742D01*
X212182762Y-107719246D01*
X212156997Y-107701361D01*
X212156551Y-107661727D01*
X212164184Y-107633098D01*
X212197080Y-107603925D01*
X212268784Y-107591115D01*
X212372204Y-107582556D01*
X212372204Y-107447838D01*
X212372204Y-107313120D01*
X212241205Y-107304714D01*
X212225642Y-107303649D01*
X212151386Y-107293655D01*
X212114970Y-107273045D01*
X212101393Y-107234257D01*
X212099297Y-107209867D01*
X212108049Y-107188720D01*
X212139790Y-107177470D01*
X212205243Y-107173002D01*
X212315129Y-107172204D01*
X212537676Y-107172204D01*
X212537676Y-107654832D01*
G37*
G36*
X216521921Y-106426624D02*
G01*
X216490778Y-106552129D01*
X216417106Y-106644346D01*
X216303691Y-106699444D01*
X216255937Y-106708763D01*
X216130765Y-106698867D01*
X216023216Y-106639440D01*
X215941830Y-106534377D01*
X215910130Y-106449938D01*
X215911126Y-106392996D01*
X216094417Y-106392996D01*
X216102417Y-106459451D01*
X216148676Y-106509345D01*
X216184850Y-106525807D01*
X216231412Y-106537894D01*
X216255799Y-106529612D01*
X216305826Y-106491676D01*
X216351286Y-106441544D01*
X216371118Y-106400000D01*
X216362728Y-106375929D01*
X216324293Y-106326551D01*
X216273501Y-106281682D01*
X216231412Y-106262107D01*
X216170648Y-106277764D01*
X216119039Y-106326820D01*
X216094417Y-106392996D01*
X215911126Y-106392996D01*
X215911997Y-106343167D01*
X215965287Y-106231712D01*
X216008653Y-106179107D01*
X216110637Y-106111899D01*
X216226483Y-106091304D01*
X216344514Y-106118237D01*
X216453049Y-106193608D01*
X216488826Y-106236026D01*
X216515677Y-106302306D01*
X216522801Y-106398405D01*
X216522751Y-106400000D01*
X216521921Y-106426624D01*
G37*
G36*
X211772785Y-107533789D02*
G01*
X211780242Y-107641812D01*
X211782245Y-107763316D01*
X211778903Y-107884617D01*
X211770325Y-107992031D01*
X211756619Y-108071875D01*
X211737894Y-108110464D01*
X211731519Y-108113943D01*
X211669025Y-108129558D01*
X211580097Y-108136082D01*
X211484995Y-108133842D01*
X211403979Y-108123161D01*
X211357307Y-108104365D01*
X211347433Y-108081595D01*
X211336033Y-108011224D01*
X211328404Y-107909426D01*
X211324671Y-107790240D01*
X211324960Y-107667706D01*
X211329396Y-107555864D01*
X211334665Y-107503149D01*
X211460037Y-107503149D01*
X211467966Y-107758252D01*
X211475896Y-108013355D01*
X211551737Y-108022082D01*
X211627579Y-108030808D01*
X211627579Y-107766979D01*
X211627579Y-107503149D01*
X211543808Y-107503149D01*
X211460037Y-107503149D01*
X211334665Y-107503149D01*
X211338103Y-107468753D01*
X211351208Y-107420413D01*
X211366298Y-107407339D01*
X211428255Y-107387943D01*
X211516058Y-107378732D01*
X211610594Y-107379975D01*
X211692749Y-107391940D01*
X211743409Y-107414897D01*
X211759767Y-107452931D01*
X211767852Y-107503149D01*
X211772785Y-107533789D01*
G37*
G36*
X207132248Y-107763008D02*
G01*
X207132088Y-107803533D01*
X207127421Y-107956128D01*
X207116393Y-108056906D01*
X207099153Y-108104365D01*
X207065105Y-108119609D01*
X206985643Y-108132622D01*
X206878523Y-108137460D01*
X206690988Y-108137460D01*
X206690988Y-107752541D01*
X206690988Y-107637005D01*
X206859363Y-107637005D01*
X206862320Y-107756021D01*
X206863277Y-107783084D01*
X206872831Y-107914720D01*
X206889519Y-107994572D01*
X206914221Y-108025243D01*
X206947815Y-108009333D01*
X206951586Y-108000691D01*
X206959363Y-107947054D01*
X206964757Y-107857830D01*
X206966775Y-107746761D01*
X206966273Y-107651867D01*
X206962863Y-107570883D01*
X206954077Y-107526178D01*
X206937466Y-107507137D01*
X206910583Y-107503149D01*
X206885446Y-107506164D01*
X206868933Y-107522516D01*
X206860903Y-107562650D01*
X206859363Y-107637005D01*
X206690988Y-107637005D01*
X206690988Y-107367623D01*
X206867453Y-107374530D01*
X206892536Y-107375565D01*
X206990860Y-107383228D01*
X207057810Y-107401881D01*
X207099405Y-107440356D01*
X207121664Y-107507481D01*
X207130605Y-107612088D01*
X207132071Y-107746761D01*
X207132248Y-107763008D01*
G37*
G36*
X212537676Y-105682954D02*
G01*
X212537676Y-106790848D01*
X212089522Y-106781565D01*
X211949398Y-106778032D01*
X211797342Y-106770980D01*
X211686431Y-106759517D01*
X211608536Y-106741551D01*
X211555527Y-106714989D01*
X211519274Y-106677741D01*
X211491648Y-106627713D01*
X211489055Y-106619607D01*
X211481013Y-106558931D01*
X211477929Y-106510315D01*
X211792230Y-106510315D01*
X211999481Y-106510315D01*
X212206732Y-106510315D01*
X212206732Y-105681745D01*
X212206732Y-104853176D01*
X212006786Y-104861279D01*
X211806840Y-104869381D01*
X211799535Y-105689848D01*
X211792230Y-106510315D01*
X211477929Y-106510315D01*
X211474345Y-106453822D01*
X211469050Y-106312577D01*
X211465128Y-106143495D01*
X211462580Y-105954873D01*
X211461406Y-105755008D01*
X211461605Y-105552200D01*
X211463178Y-105354744D01*
X211466125Y-105170940D01*
X211470445Y-105009086D01*
X211476139Y-104877478D01*
X211483207Y-104784414D01*
X211491648Y-104738194D01*
X211511099Y-104700663D01*
X211544147Y-104660082D01*
X211591697Y-104630768D01*
X211661880Y-104610630D01*
X211762826Y-104597574D01*
X211902663Y-104589509D01*
X212089522Y-104584343D01*
X212537676Y-104575059D01*
X212537676Y-104853176D01*
X212537676Y-105682954D01*
G37*
G36*
X206536935Y-107266846D02*
G01*
X206553094Y-107310098D01*
X206560773Y-107342263D01*
X206594463Y-107365255D01*
X206621446Y-107378750D01*
X206635831Y-107434202D01*
X206627734Y-107479175D01*
X206594463Y-107503149D01*
X206584444Y-107505017D01*
X206568769Y-107524290D01*
X206559190Y-107571767D01*
X206554401Y-107656416D01*
X206553094Y-107787210D01*
X206553026Y-107811335D01*
X206548582Y-107958206D01*
X206537455Y-108057010D01*
X206520000Y-108104365D01*
X206519238Y-108105104D01*
X206468975Y-108127981D01*
X206395896Y-108137460D01*
X206347126Y-108134863D01*
X206312700Y-108116137D01*
X206304886Y-108068513D01*
X206316791Y-108015725D01*
X206360043Y-107999566D01*
X206381791Y-107997162D01*
X206399907Y-107981689D01*
X206409959Y-107942562D01*
X206414279Y-107869284D01*
X206415201Y-107751358D01*
X206414667Y-107653492D01*
X206411228Y-107571970D01*
X206402533Y-107526737D01*
X206386249Y-107507296D01*
X206360043Y-107503149D01*
X206317813Y-107488268D01*
X206304886Y-107434202D01*
X206316791Y-107381415D01*
X206360043Y-107365255D01*
X206395700Y-107356191D01*
X206415201Y-107310098D01*
X206430082Y-107267868D01*
X206484148Y-107254941D01*
X206536935Y-107266846D01*
G37*
G36*
X208808433Y-107758252D02*
G01*
X208816106Y-108137460D01*
X208733495Y-108137460D01*
X208650884Y-108137460D01*
X208643086Y-107827199D01*
X208640859Y-107744043D01*
X208636491Y-107636749D01*
X208629680Y-107569263D01*
X208618290Y-107531834D01*
X208600187Y-107514706D01*
X208573236Y-107508126D01*
X208550791Y-107506029D01*
X208531681Y-107512767D01*
X208519984Y-107538274D01*
X208513882Y-107591649D01*
X208511555Y-107681987D01*
X208511183Y-107818386D01*
X208511183Y-108137460D01*
X208428447Y-108137460D01*
X208345711Y-108137460D01*
X208345711Y-107820304D01*
X208345587Y-107742766D01*
X208344027Y-107631619D01*
X208339366Y-107561416D01*
X208329983Y-107522825D01*
X208314253Y-107506513D01*
X208290554Y-107503149D01*
X208277069Y-107503866D01*
X208257739Y-107512835D01*
X208245530Y-107539633D01*
X208238818Y-107593589D01*
X208235981Y-107684035D01*
X208235396Y-107820304D01*
X208235396Y-108137460D01*
X208152660Y-108137460D01*
X208069924Y-108137460D01*
X208069924Y-107796102D01*
X208069925Y-107790430D01*
X208071835Y-107632437D01*
X208079473Y-107521337D01*
X208095935Y-107449172D01*
X208124319Y-107407980D01*
X208167724Y-107389800D01*
X208229247Y-107386672D01*
X208274909Y-107387676D01*
X208377024Y-107388728D01*
X208484216Y-107387624D01*
X208621498Y-107384207D01*
X208800760Y-107379045D01*
X208808433Y-107758252D01*
G37*
G36*
X211213898Y-107862554D02*
G01*
X211213898Y-108358089D01*
X211131162Y-108358089D01*
X211113396Y-108357915D01*
X211069398Y-108349954D01*
X211051693Y-108318509D01*
X211048426Y-108247774D01*
X211048176Y-108211315D01*
X211040518Y-108159671D01*
X211010709Y-108140359D01*
X210943626Y-108137460D01*
X210928764Y-108137140D01*
X210853587Y-108126149D01*
X210805733Y-108104365D01*
X210800329Y-108096569D01*
X210784964Y-108033766D01*
X210775724Y-107916529D01*
X210772991Y-107764769D01*
X210924321Y-107764769D01*
X210924336Y-107779235D01*
X210926398Y-107896077D01*
X210933103Y-107968701D01*
X210946099Y-108006991D01*
X210967034Y-108020826D01*
X211000610Y-108022422D01*
X211025418Y-108004912D01*
X211039928Y-107958672D01*
X211046733Y-107874912D01*
X211048426Y-107744843D01*
X211048425Y-107740858D01*
X211047727Y-107625620D01*
X211043862Y-107554989D01*
X211034141Y-107518703D01*
X211015875Y-107506502D01*
X210986373Y-107508126D01*
X210958489Y-107514797D01*
X210939556Y-107533012D01*
X210929322Y-107573422D01*
X210925129Y-107647012D01*
X210924321Y-107764769D01*
X210772991Y-107764769D01*
X210772638Y-107745159D01*
X210772664Y-107671747D01*
X210775241Y-107545188D01*
X210786741Y-107460948D01*
X210813831Y-107410187D01*
X210863179Y-107384065D01*
X210941453Y-107373741D01*
X211055320Y-107370375D01*
X211213898Y-107367019D01*
X211213898Y-107744843D01*
X211213898Y-107862554D01*
G37*
G36*
X210662324Y-107862554D02*
G01*
X210662324Y-108358089D01*
X210579587Y-108358089D01*
X210561821Y-108357915D01*
X210517823Y-108349954D01*
X210500118Y-108318509D01*
X210496851Y-108247774D01*
X210496602Y-108211315D01*
X210488943Y-108159671D01*
X210459135Y-108140359D01*
X210392052Y-108137460D01*
X210377190Y-108137140D01*
X210302013Y-108126149D01*
X210254159Y-108104365D01*
X210248755Y-108096569D01*
X210233390Y-108033766D01*
X210224150Y-107916529D01*
X210221417Y-107764769D01*
X210372747Y-107764769D01*
X210372761Y-107779235D01*
X210374824Y-107896077D01*
X210381529Y-107968701D01*
X210394525Y-108006991D01*
X210415460Y-108020826D01*
X210449036Y-108022422D01*
X210473844Y-108004912D01*
X210488354Y-107958672D01*
X210495159Y-107874912D01*
X210496851Y-107744843D01*
X210496851Y-107740858D01*
X210496152Y-107625620D01*
X210492287Y-107554989D01*
X210482567Y-107518703D01*
X210464301Y-107506502D01*
X210434799Y-107508126D01*
X210406915Y-107514797D01*
X210387982Y-107533012D01*
X210377747Y-107573422D01*
X210373554Y-107647012D01*
X210372747Y-107764769D01*
X210221417Y-107764769D01*
X210221064Y-107745159D01*
X210221089Y-107671747D01*
X210223666Y-107545188D01*
X210235166Y-107460948D01*
X210262256Y-107410187D01*
X210311604Y-107384065D01*
X210389878Y-107373741D01*
X210503746Y-107370375D01*
X210662324Y-107367019D01*
X210662324Y-107744843D01*
X210662324Y-107862554D01*
G37*
G36*
X209111021Y-104778374D02*
G01*
X209269598Y-104786645D01*
X209277934Y-104931434D01*
X209283423Y-105006352D01*
X209295095Y-105054411D01*
X209320737Y-105073079D01*
X209369076Y-105076222D01*
X209408042Y-105077360D01*
X209437684Y-105089885D01*
X209446741Y-105128322D01*
X209443476Y-105207221D01*
X209440481Y-105247494D01*
X209429594Y-105308430D01*
X209405628Y-105336409D01*
X209359229Y-105346946D01*
X209283388Y-105355673D01*
X209283388Y-105933880D01*
X209283239Y-106034482D01*
X209281056Y-106241169D01*
X209274834Y-106401830D01*
X209262764Y-106522910D01*
X209243038Y-106610851D01*
X209213845Y-106672097D01*
X209173377Y-106713092D01*
X209119824Y-106740279D01*
X209051376Y-106760102D01*
X209027842Y-106764937D01*
X208935409Y-106777068D01*
X208835233Y-106783279D01*
X208704235Y-106786102D01*
X208704235Y-106634419D01*
X208704235Y-106482736D01*
X208811599Y-106482736D01*
X208895130Y-106472467D01*
X208935703Y-106439113D01*
X208935739Y-106439017D01*
X208941006Y-106398308D01*
X208945589Y-106311966D01*
X208949210Y-106189452D01*
X208951588Y-106040226D01*
X208952443Y-105873749D01*
X208952443Y-105352009D01*
X208828339Y-105352009D01*
X208704235Y-105352009D01*
X208704235Y-105214115D01*
X208704235Y-105076222D01*
X208828339Y-105076222D01*
X208952443Y-105076222D01*
X208952443Y-104923163D01*
X208952443Y-104770103D01*
X209111021Y-104778374D01*
G37*
G36*
X210107530Y-107368299D02*
G01*
X210144090Y-107380210D01*
X210146255Y-107404608D01*
X210137968Y-107472658D01*
X210120445Y-107571572D01*
X210096423Y-107689191D01*
X210068641Y-107813353D01*
X210039840Y-107931900D01*
X210012756Y-108032672D01*
X209990130Y-108103508D01*
X209974700Y-108132248D01*
X209959451Y-108139564D01*
X209943205Y-108171806D01*
X209964283Y-108204960D01*
X210014224Y-108220196D01*
X210026929Y-108220487D01*
X210071780Y-108236660D01*
X210083170Y-108289143D01*
X210081660Y-108315994D01*
X210061199Y-108349976D01*
X210003490Y-108358089D01*
X209961050Y-108356105D01*
X209906508Y-108341935D01*
X209862972Y-108308111D01*
X209826694Y-108247642D01*
X209793926Y-108153536D01*
X209760922Y-108018801D01*
X209723934Y-107836444D01*
X209707377Y-107750115D01*
X209681434Y-107612547D01*
X209660676Y-107499501D01*
X209646902Y-107420848D01*
X209641911Y-107386458D01*
X209662773Y-107371746D01*
X209717323Y-107370318D01*
X209750810Y-107376591D01*
X209776992Y-107394118D01*
X209796573Y-107433306D01*
X209814772Y-107505072D01*
X209836803Y-107620331D01*
X209846131Y-107669973D01*
X209866947Y-107771160D01*
X209884577Y-107844491D01*
X209895963Y-107876709D01*
X209902570Y-107873433D01*
X209916579Y-107832581D01*
X209930417Y-107759526D01*
X209938803Y-107703309D01*
X209962527Y-107561268D01*
X209984572Y-107464070D01*
X210007582Y-107404088D01*
X210034200Y-107373692D01*
X210067070Y-107365255D01*
X210107530Y-107368299D01*
G37*
G36*
X209363430Y-107606681D02*
G01*
X209366124Y-107758442D01*
X209365178Y-107829609D01*
X209359514Y-107944561D01*
X209349874Y-108034401D01*
X209337575Y-108084115D01*
X209333386Y-108091349D01*
X209302573Y-108119787D01*
X209246912Y-108133596D01*
X209151418Y-108137037D01*
X209129493Y-108136894D01*
X209026227Y-108131006D01*
X208963240Y-108111599D01*
X208928017Y-108071889D01*
X208908043Y-108005090D01*
X208900042Y-107944811D01*
X208918490Y-107921000D01*
X208976574Y-107916830D01*
X209003716Y-107917681D01*
X209050386Y-107932251D01*
X209062758Y-107971987D01*
X209077639Y-108014217D01*
X209131705Y-108027145D01*
X209137709Y-108027105D01*
X209179138Y-108019494D01*
X209196888Y-107987904D01*
X209200651Y-107916830D01*
X209200651Y-107806515D01*
X209048969Y-107806515D01*
X208897286Y-107806515D01*
X208897286Y-107630630D01*
X208897938Y-107599675D01*
X209062758Y-107599675D01*
X209065991Y-107656535D01*
X209085079Y-107688988D01*
X209131705Y-107696200D01*
X209172319Y-107691674D01*
X209195500Y-107664951D01*
X209200651Y-107599675D01*
X209197418Y-107542814D01*
X209178331Y-107510361D01*
X209131705Y-107503149D01*
X209091090Y-107507675D01*
X209067909Y-107534398D01*
X209062758Y-107599675D01*
X208897938Y-107599675D01*
X208898639Y-107566376D01*
X208913378Y-107469746D01*
X208951969Y-107412836D01*
X209023777Y-107385862D01*
X209138167Y-107379045D01*
X209214595Y-107381836D01*
X209282614Y-107397530D01*
X209326726Y-107434631D01*
X209351981Y-107501546D01*
X209362667Y-107599675D01*
X209363430Y-107606681D01*
G37*
G36*
X206249569Y-107803533D02*
G01*
X206244902Y-107956128D01*
X206233874Y-108056906D01*
X206216634Y-108104365D01*
X206186466Y-108118616D01*
X206112176Y-108132245D01*
X206015309Y-108137460D01*
X205939738Y-108134328D01*
X205858524Y-108122395D01*
X205813985Y-108104365D01*
X205809651Y-108098550D01*
X205793770Y-108039189D01*
X205784135Y-107926840D01*
X205780932Y-107765147D01*
X205946363Y-107765147D01*
X205946380Y-107809464D01*
X205947449Y-107915380D01*
X205952158Y-107979775D01*
X205963225Y-108012979D01*
X205983369Y-108025325D01*
X206015309Y-108027145D01*
X206026972Y-108027078D01*
X206054845Y-108023017D01*
X206071790Y-108005124D01*
X206080528Y-107963070D01*
X206083777Y-107886521D01*
X206084256Y-107765147D01*
X206084239Y-107720830D01*
X206083170Y-107614913D01*
X206078461Y-107550519D01*
X206067394Y-107517315D01*
X206047250Y-107504968D01*
X206015309Y-107503149D01*
X206003647Y-107503215D01*
X205975774Y-107507277D01*
X205958828Y-107525170D01*
X205950090Y-107567224D01*
X205946841Y-107643773D01*
X205946363Y-107765147D01*
X205780932Y-107765147D01*
X205780890Y-107763008D01*
X205780898Y-107749073D01*
X205783258Y-107600710D01*
X205793405Y-107498320D01*
X205816512Y-107433429D01*
X205857750Y-107397568D01*
X205922292Y-107382264D01*
X206015309Y-107379045D01*
X206023817Y-107379057D01*
X206114396Y-107382922D01*
X206176908Y-107399543D01*
X206216525Y-107437390D01*
X206238420Y-107504936D01*
X206247763Y-107610651D01*
X206249729Y-107763008D01*
X206249721Y-107765147D01*
X206249569Y-107803533D01*
G37*
G36*
X211153175Y-105898070D02*
G01*
X211154783Y-106035089D01*
X211156531Y-106216977D01*
X211156766Y-106355130D01*
X211154973Y-106456608D01*
X211150637Y-106528475D01*
X211143245Y-106577793D01*
X211132282Y-106611625D01*
X211117232Y-106637032D01*
X211097581Y-106661077D01*
X211097311Y-106661391D01*
X211024061Y-106720247D01*
X210937675Y-106757863D01*
X210817734Y-106775414D01*
X210670272Y-106781780D01*
X210523114Y-106776619D01*
X210403057Y-106759831D01*
X210299739Y-106724210D01*
X210229787Y-106665911D01*
X210189407Y-106575323D01*
X210170932Y-106441946D01*
X210159481Y-106262107D01*
X210326580Y-106262107D01*
X210493680Y-106262107D01*
X210502160Y-106379316D01*
X210510641Y-106496526D01*
X210662324Y-106496526D01*
X210814007Y-106496526D01*
X210821975Y-106255212D01*
X210829943Y-106013898D01*
X210497925Y-106013898D01*
X210165907Y-106013898D01*
X210165907Y-105765690D01*
X210494531Y-105765690D01*
X210662324Y-105765690D01*
X210830116Y-105765690D01*
X210822061Y-105551955D01*
X210814007Y-105338220D01*
X210662324Y-105338220D01*
X210510641Y-105338220D01*
X210502586Y-105551955D01*
X210494531Y-105765690D01*
X210165907Y-105765690D01*
X210165907Y-105625675D01*
X210165907Y-105237451D01*
X210246521Y-105156837D01*
X210281088Y-105123805D01*
X210314937Y-105100707D01*
X210358178Y-105086638D01*
X210422252Y-105079359D01*
X210518600Y-105076633D01*
X210658664Y-105076222D01*
X210745029Y-105076409D01*
X210860640Y-105078421D01*
X210939167Y-105084184D01*
X210992143Y-105095573D01*
X211031101Y-105114466D01*
X211067572Y-105142738D01*
X211144951Y-105209254D01*
X211151594Y-105765690D01*
X211153175Y-105898070D01*
G37*
G36*
X217117996Y-106525817D02*
G01*
X217065796Y-106727011D01*
X216971032Y-106910706D01*
X216838724Y-107068685D01*
X216673893Y-107192729D01*
X216481559Y-107274624D01*
X216435850Y-107285392D01*
X216284901Y-107300624D01*
X216118971Y-107294859D01*
X215960647Y-107269753D01*
X215832516Y-107226966D01*
X215795371Y-107207543D01*
X215638444Y-107094154D01*
X215498926Y-106944590D01*
X215391820Y-106774264D01*
X215363453Y-106713011D01*
X215331905Y-106621982D01*
X215316826Y-106525950D01*
X215312966Y-106400000D01*
X215313334Y-106375938D01*
X215485906Y-106375938D01*
X215503793Y-106545137D01*
X215572171Y-106723904D01*
X215583499Y-106745930D01*
X215685558Y-106896164D01*
X215816690Y-107008519D01*
X215988568Y-107093355D01*
X216077920Y-107121637D01*
X216256889Y-107140869D01*
X216429522Y-107106551D01*
X216569106Y-107044257D01*
X216732292Y-106926658D01*
X216851803Y-106777927D01*
X216925257Y-106601297D01*
X216950271Y-106400000D01*
X216925886Y-106202572D01*
X216852351Y-106024805D01*
X216732003Y-105874702D01*
X216567188Y-105756205D01*
X216555949Y-105750199D01*
X216369427Y-105680619D01*
X216182246Y-105662989D01*
X216002000Y-105694938D01*
X215836283Y-105774098D01*
X215692690Y-105898098D01*
X215578816Y-106064571D01*
X215518622Y-106205118D01*
X215485906Y-106375938D01*
X215313334Y-106375938D01*
X215314177Y-106320866D01*
X215324001Y-106215533D01*
X215348133Y-106125462D01*
X215391820Y-106025736D01*
X215401337Y-106006864D01*
X215518633Y-105830566D01*
X215669800Y-105679427D01*
X215840227Y-105568349D01*
X215908675Y-105538627D01*
X215987998Y-105517295D01*
X216085444Y-105506788D01*
X216219435Y-105503981D01*
X216227158Y-105503996D01*
X216420808Y-105517234D01*
X216580182Y-105559383D01*
X216720759Y-105636520D01*
X216858021Y-105754724D01*
X216967058Y-105881813D01*
X217057555Y-106046924D01*
X217112297Y-106242298D01*
X217122612Y-106315341D01*
X217120755Y-106400000D01*
X217117996Y-106525817D01*
G37*
G36*
X208557985Y-106176804D02*
G01*
X208554899Y-106334733D01*
X208550913Y-106451945D01*
X208545351Y-106535600D01*
X208537537Y-106592860D01*
X208526795Y-106630885D01*
X208512450Y-106656838D01*
X208493825Y-106677878D01*
X208425628Y-106725856D01*
X208342142Y-106759894D01*
X208242675Y-106773512D01*
X208127515Y-106769441D01*
X208024601Y-106748340D01*
X207954730Y-106712740D01*
X207928629Y-106690317D01*
X207908156Y-106686371D01*
X207904452Y-106728047D01*
X207901416Y-106758490D01*
X207882719Y-106777643D01*
X207835236Y-106783562D01*
X207745874Y-106780584D01*
X207587296Y-106772313D01*
X207580003Y-105924267D01*
X207579986Y-105922298D01*
X207904874Y-105922298D01*
X207905407Y-106105117D01*
X207907776Y-106241482D01*
X207912590Y-106338122D01*
X207920457Y-106402766D01*
X207931988Y-106443142D01*
X207947790Y-106466977D01*
X207969791Y-106482736D01*
X208045137Y-106505515D01*
X208131895Y-106507765D01*
X208201522Y-106487211D01*
X208209435Y-106477572D01*
X208219731Y-106440187D01*
X208226564Y-106371136D01*
X208230214Y-106264556D01*
X208230966Y-106114589D01*
X208229101Y-105915375D01*
X208221607Y-105365798D01*
X208086382Y-105357220D01*
X208072508Y-105356446D01*
X207975319Y-105360667D01*
X207928226Y-105384799D01*
X207921459Y-105417731D01*
X207914929Y-105497962D01*
X207909713Y-105615141D01*
X207906224Y-105759756D01*
X207904874Y-105922298D01*
X207579986Y-105922298D01*
X207572710Y-105076222D01*
X207738581Y-105076222D01*
X207768780Y-105076405D01*
X207851447Y-105081157D01*
X207893024Y-105094462D01*
X207904452Y-105119154D01*
X207906005Y-105140192D01*
X207921477Y-105146669D01*
X207965746Y-105119154D01*
X207975035Y-105113437D01*
X208052596Y-105088964D01*
X208159133Y-105076918D01*
X208273996Y-105077414D01*
X208376532Y-105090567D01*
X208446089Y-105116492D01*
X208449921Y-105119207D01*
X208486205Y-105150141D01*
X208514267Y-105189053D01*
X208535017Y-105242677D01*
X208549364Y-105317750D01*
X208558216Y-105421007D01*
X208562482Y-105559183D01*
X208563072Y-105739014D01*
X208560894Y-105967236D01*
X208560846Y-105970996D01*
X208558850Y-106114589D01*
X208557985Y-106176804D01*
G37*
G36*
X205808469Y-104585180D02*
G01*
X205934775Y-104595895D01*
X206069291Y-104625089D01*
X206158931Y-104672521D01*
X206208467Y-104740037D01*
X206217436Y-104775427D01*
X206229021Y-104864283D01*
X206238095Y-104983646D01*
X206244074Y-105118827D01*
X206246374Y-105255137D01*
X206244410Y-105377887D01*
X206237598Y-105472389D01*
X206209166Y-105601789D01*
X206153942Y-105704017D01*
X206126127Y-105733452D01*
X206088778Y-105758715D01*
X206036166Y-105774576D01*
X205955000Y-105784700D01*
X205831989Y-105792748D01*
X205574050Y-105807058D01*
X205566224Y-106120266D01*
X205564219Y-106250956D01*
X205568094Y-106366300D01*
X205581814Y-106441668D01*
X205608480Y-106485299D01*
X205651197Y-106505435D01*
X205713065Y-106510315D01*
X205754071Y-106509797D01*
X205828532Y-106500216D01*
X205869780Y-106469715D01*
X205887456Y-106406937D01*
X205891205Y-106300524D01*
X205891205Y-106124213D01*
X206056678Y-106124213D01*
X206222150Y-106124213D01*
X206222150Y-106357094D01*
X206222089Y-106384996D01*
X206219251Y-106495115D01*
X206209940Y-106568116D01*
X206191097Y-106618964D01*
X206159662Y-106662623D01*
X206159098Y-106663274D01*
X206086834Y-106721365D01*
X206001084Y-106759607D01*
X205905222Y-106773925D01*
X205782686Y-106778477D01*
X205649849Y-106774264D01*
X205523025Y-106762303D01*
X205418529Y-106743611D01*
X205352675Y-106719203D01*
X205336462Y-106707964D01*
X205296402Y-106670348D01*
X205267566Y-106620095D01*
X205248196Y-106548713D01*
X205236536Y-106447707D01*
X205230828Y-106308585D01*
X205229316Y-106122853D01*
X205229316Y-105711403D01*
X205309770Y-105621337D01*
X205311928Y-105618923D01*
X205352243Y-105577039D01*
X205391254Y-105550606D01*
X205443071Y-105535383D01*
X205521805Y-105527128D01*
X205641566Y-105521600D01*
X205892908Y-105511930D01*
X205885162Y-105190656D01*
X205877416Y-104869381D01*
X205758168Y-104860801D01*
X205736199Y-104859477D01*
X205647059Y-104864875D01*
X205593430Y-104897382D01*
X205567201Y-104965968D01*
X205560261Y-105079599D01*
X205560261Y-105241694D01*
X205394788Y-105241694D01*
X205229316Y-105241694D01*
X205229419Y-105027959D01*
X205230312Y-104974170D01*
X205246488Y-104828584D01*
X205287274Y-104721007D01*
X205358268Y-104647158D01*
X205465066Y-104602757D01*
X205613268Y-104583525D01*
X205808469Y-104585180D01*
G37*
G36*
X218632573Y-108663962D02*
G01*
X218564880Y-108731656D01*
X218497187Y-108799349D01*
X216371118Y-108799349D01*
X214245050Y-108799349D01*
X214177357Y-108731656D01*
X214109663Y-108663962D01*
X214109663Y-108633877D01*
X214302714Y-108633877D01*
X214506443Y-108633877D01*
X214710171Y-108633877D01*
X214881868Y-108633877D01*
X216371118Y-108633877D01*
X217860369Y-108633877D01*
X217860369Y-108499702D01*
X217846979Y-108380765D01*
X217803210Y-108292862D01*
X217746051Y-108220196D01*
X216371118Y-108220196D01*
X214996186Y-108220196D01*
X214939027Y-108292862D01*
X214895610Y-108379488D01*
X214881868Y-108499702D01*
X214881868Y-108633877D01*
X214710171Y-108633877D01*
X214721027Y-108441750D01*
X214726886Y-108361910D01*
X214740600Y-108279954D01*
X214765752Y-108222089D01*
X214808246Y-108169917D01*
X214814409Y-108163714D01*
X214897737Y-108101548D01*
X214989858Y-108058678D01*
X215035789Y-108051673D01*
X215133326Y-108044817D01*
X215272874Y-108039007D01*
X215447494Y-108034243D01*
X215650246Y-108030526D01*
X215874189Y-108027854D01*
X216112384Y-108026229D01*
X216357891Y-108025650D01*
X216603769Y-108026117D01*
X216843080Y-108027630D01*
X217068882Y-108030189D01*
X217274237Y-108033795D01*
X217452204Y-108038446D01*
X217595843Y-108044144D01*
X217698214Y-108050888D01*
X217752378Y-108058678D01*
X217760671Y-108061329D01*
X217853758Y-108107219D01*
X217933990Y-108169917D01*
X217965333Y-108206022D01*
X217995276Y-108260128D01*
X218011933Y-108332570D01*
X218021210Y-108441750D01*
X218032066Y-108633877D01*
X218235794Y-108633877D01*
X218439522Y-108633877D01*
X218439522Y-106699985D01*
X218439522Y-104766093D01*
X218138903Y-104466109D01*
X218082200Y-104410295D01*
X217979999Y-104313687D01*
X217892708Y-104236248D01*
X217828156Y-104184790D01*
X217794169Y-104166124D01*
X217781652Y-104168816D01*
X217767926Y-104186183D01*
X217758785Y-104226668D01*
X217753347Y-104298278D01*
X217750731Y-104409020D01*
X217750054Y-104566901D01*
X217748753Y-104707255D01*
X217741302Y-104874292D01*
X217725878Y-104998380D01*
X217700935Y-105086656D01*
X217664927Y-105146256D01*
X217616309Y-105184317D01*
X217614584Y-105185116D01*
X217568913Y-105192906D01*
X217472670Y-105199454D01*
X217325094Y-105204775D01*
X217125422Y-105208886D01*
X216872891Y-105211802D01*
X216566740Y-105213540D01*
X216206206Y-105214115D01*
X214851782Y-105214115D01*
X214784088Y-105146422D01*
X214761261Y-105122196D01*
X214742694Y-105094069D01*
X214730118Y-105055907D01*
X214725397Y-105021064D01*
X214881868Y-105021064D01*
X215916069Y-105021064D01*
X216950271Y-105021064D01*
X216950271Y-104760862D01*
X216950305Y-104743255D01*
X217143322Y-104743255D01*
X217143333Y-104766240D01*
X217144351Y-104884549D01*
X217148460Y-104959221D01*
X217157675Y-105000221D01*
X217174010Y-105017514D01*
X217199479Y-105021064D01*
X217202942Y-105021041D01*
X217227438Y-105016711D01*
X217242343Y-104997831D01*
X217249481Y-104954261D01*
X217250673Y-104875861D01*
X217247741Y-104752491D01*
X217245171Y-104676968D01*
X217239114Y-104577241D01*
X217229524Y-104517013D01*
X217214361Y-104486191D01*
X217191585Y-104474682D01*
X217171055Y-104474973D01*
X217156383Y-104492299D01*
X217147998Y-104536507D01*
X217144209Y-104617019D01*
X217143322Y-104743255D01*
X216950305Y-104743255D01*
X216950312Y-104739360D01*
X216954599Y-104587048D01*
X216968298Y-104478356D01*
X216994756Y-104403233D01*
X217037324Y-104351629D01*
X217099350Y-104313495D01*
X217152038Y-104291228D01*
X217212591Y-104283310D01*
X217280539Y-104303737D01*
X217336134Y-104333660D01*
X217389450Y-104389697D01*
X217423449Y-104473039D01*
X217441428Y-104592701D01*
X217446688Y-104757697D01*
X217448181Y-104874802D01*
X217448253Y-104875861D01*
X217454070Y-104961261D01*
X217465467Y-105007414D01*
X217483460Y-105021064D01*
X217496790Y-105020005D01*
X217538617Y-105002679D01*
X217541638Y-104994102D01*
X217547704Y-104939784D01*
X217552579Y-104845083D01*
X217555824Y-104720168D01*
X217557003Y-104575208D01*
X217557003Y-104166124D01*
X216219435Y-104166124D01*
X214881868Y-104166124D01*
X214881868Y-104593594D01*
X214881868Y-105021064D01*
X214725397Y-105021064D01*
X214722365Y-104998687D01*
X214718271Y-104913383D01*
X214716670Y-104790971D01*
X214716395Y-104622427D01*
X214716395Y-104166124D01*
X214509555Y-104166124D01*
X214302714Y-104166124D01*
X214302714Y-106400000D01*
X214302714Y-108633877D01*
X214109663Y-108633877D01*
X214109663Y-106400000D01*
X214109663Y-104136038D01*
X214177357Y-104068345D01*
X214245050Y-104000652D01*
X216084523Y-104000652D01*
X217923996Y-104000652D01*
X218239269Y-104310912D01*
X218302187Y-104373538D01*
X218407293Y-104481455D01*
X218496125Y-104576796D01*
X218560831Y-104651035D01*
X218593558Y-104695645D01*
X218600162Y-104713569D01*
X218606969Y-104748489D01*
X218612791Y-104801831D01*
X218617699Y-104877270D01*
X218621764Y-104978478D01*
X218625057Y-105109128D01*
X218627649Y-105272895D01*
X218629611Y-105473451D01*
X218631013Y-105714470D01*
X218631927Y-105999625D01*
X218632424Y-106332591D01*
X218632573Y-106717040D01*
X218632573Y-108633877D01*
X218632573Y-108663962D01*
G37*
%TO.C,SW1*%
X216150000Y-115300000D02*
X216150000Y-116800000D01*
X214900000Y-119300000D02*
X210400000Y-119300000D01*
X210400000Y-112800000D02*
X214900000Y-112800000D01*
X209150000Y-116800000D02*
X209150000Y-115300000D01*
%TD*%
M02*
