%TF.GenerationSoftware,KiCad,Pcbnew,7.0.1*%
%TF.CreationDate,2024-02-04T21:46:43+03:00*%
%TF.ProjectId,delta_flop_arduino,64656c74-615f-4666-9c6f-705f61726475,rev?*%
%TF.SameCoordinates,Original*%
%TF.FileFunction,Legend,Bot*%
%TF.FilePolarity,Positive*%
%FSLAX46Y46*%
G04 Gerber Fmt 4.6, Leading zero omitted, Abs format (unit mm)*
G04 Created by KiCad (PCBNEW 7.0.1) date 2024-02-04 21:46:43*
%MOMM*%
%LPD*%
G01*
G04 APERTURE LIST*
%ADD10C,0.150000*%
%ADD11C,0.120000*%
G04 APERTURE END LIST*
D10*
%TO.C,J4*%
X211666933Y-152816619D02*
X211666933Y-153530904D01*
X211666933Y-153530904D02*
X211714552Y-153673761D01*
X211714552Y-153673761D02*
X211809790Y-153769000D01*
X211809790Y-153769000D02*
X211952647Y-153816619D01*
X211952647Y-153816619D02*
X212047885Y-153816619D01*
X210762171Y-153149952D02*
X210762171Y-153816619D01*
X211000266Y-152769000D02*
X211238361Y-153483285D01*
X211238361Y-153483285D02*
X210619314Y-153483285D01*
%TO.C,SW1*%
X219461800Y-115878267D02*
X219509419Y-116021124D01*
X219509419Y-116021124D02*
X219509419Y-116259219D01*
X219509419Y-116259219D02*
X219461800Y-116354457D01*
X219461800Y-116354457D02*
X219414180Y-116402076D01*
X219414180Y-116402076D02*
X219318942Y-116449695D01*
X219318942Y-116449695D02*
X219223704Y-116449695D01*
X219223704Y-116449695D02*
X219128466Y-116402076D01*
X219128466Y-116402076D02*
X219080847Y-116354457D01*
X219080847Y-116354457D02*
X219033228Y-116259219D01*
X219033228Y-116259219D02*
X218985609Y-116068743D01*
X218985609Y-116068743D02*
X218937990Y-115973505D01*
X218937990Y-115973505D02*
X218890371Y-115925886D01*
X218890371Y-115925886D02*
X218795133Y-115878267D01*
X218795133Y-115878267D02*
X218699895Y-115878267D01*
X218699895Y-115878267D02*
X218604657Y-115925886D01*
X218604657Y-115925886D02*
X218557038Y-115973505D01*
X218557038Y-115973505D02*
X218509419Y-116068743D01*
X218509419Y-116068743D02*
X218509419Y-116306838D01*
X218509419Y-116306838D02*
X218557038Y-116449695D01*
X218509419Y-116783029D02*
X219509419Y-117021124D01*
X219509419Y-117021124D02*
X218795133Y-117211600D01*
X218795133Y-117211600D02*
X219509419Y-117402076D01*
X219509419Y-117402076D02*
X218509419Y-117640172D01*
X219509419Y-118544933D02*
X219509419Y-117973505D01*
X219509419Y-118259219D02*
X218509419Y-118259219D01*
X218509419Y-118259219D02*
X218652276Y-118163981D01*
X218652276Y-118163981D02*
X218747514Y-118068743D01*
X218747514Y-118068743D02*
X218795133Y-117973505D01*
D11*
%TO.C,J4*%
X215913600Y-157219000D02*
X215913600Y-159139000D01*
X206753600Y-159139000D02*
X206753600Y-157219000D01*
%TO.C,SW1*%
X215946800Y-120311600D02*
X215946800Y-119711600D01*
X215646800Y-120011600D02*
X215946800Y-120311600D01*
X215946800Y-119711600D02*
X215646800Y-120011600D01*
X217746800Y-118611600D02*
X205946800Y-118611600D01*
X205946800Y-114511600D02*
X205946800Y-118611600D01*
X217746800Y-114511600D02*
X217746800Y-118611600D01*
X211846800Y-113011600D02*
X211846800Y-112011600D01*
X212346800Y-112511600D02*
X211346800Y-112511600D01*
X217746800Y-110511600D02*
X217746800Y-106411600D01*
X205946800Y-106411600D02*
X205946800Y-110511600D01*
X208346800Y-106411600D02*
X205946800Y-106411600D01*
X213146800Y-106411600D02*
X210546800Y-106411600D01*
X217746800Y-106411600D02*
X215346800Y-106411600D01*
X214846800Y-112511600D02*
G75*
G03*
X214846800Y-112511600I-3000000J0D01*
G01*
%TD*%
M02*
