%TF.GenerationSoftware,KiCad,Pcbnew,7.0.1*%
%TF.CreationDate,2024-04-08T12:28:37+03:00*%
%TF.ProjectId,delta_flop_arduino,64656c74-615f-4666-9c6f-705f61726475,rev?*%
%TF.SameCoordinates,Original*%
%TF.FileFunction,Copper,L1,Top*%
%TF.FilePolarity,Positive*%
%FSLAX46Y46*%
G04 Gerber Fmt 4.6, Leading zero omitted, Abs format (unit mm)*
G04 Created by KiCad (PCBNEW 7.0.1) date 2024-04-08 12:28:37*
%MOMM*%
%LPD*%
G01*
G04 APERTURE LIST*
G04 Aperture macros list*
%AMRoundRect*
0 Rectangle with rounded corners*
0 $1 Rounding radius*
0 $2 $3 $4 $5 $6 $7 $8 $9 X,Y pos of 4 corners*
0 Add a 4 corners polygon primitive as box body*
4,1,4,$2,$3,$4,$5,$6,$7,$8,$9,$2,$3,0*
0 Add four circle primitives for the rounded corners*
1,1,$1+$1,$2,$3*
1,1,$1+$1,$4,$5*
1,1,$1+$1,$6,$7*
1,1,$1+$1,$8,$9*
0 Add four rect primitives between the rounded corners*
20,1,$1+$1,$2,$3,$4,$5,0*
20,1,$1+$1,$4,$5,$6,$7,0*
20,1,$1+$1,$6,$7,$8,$9,0*
20,1,$1+$1,$8,$9,$2,$3,0*%
G04 Aperture macros list end*
%TA.AperFunction,ComponentPad*%
%ADD10C,1.524000*%
%TD*%
%TA.AperFunction,ComponentPad*%
%ADD11C,1.600000*%
%TD*%
%TA.AperFunction,ComponentPad*%
%ADD12O,1.600000X1.600000*%
%TD*%
%TA.AperFunction,ComponentPad*%
%ADD13R,1.700000X1.700000*%
%TD*%
%TA.AperFunction,ComponentPad*%
%ADD14O,1.700000X1.700000*%
%TD*%
%TA.AperFunction,SMDPad,CuDef*%
%ADD15R,0.900000X1.800000*%
%TD*%
%TA.AperFunction,SMDPad,CuDef*%
%ADD16R,1.100000X1.800000*%
%TD*%
%TA.AperFunction,SMDPad,CuDef*%
%ADD17R,1.400000X2.000000*%
%TD*%
%TA.AperFunction,ComponentPad*%
%ADD18R,1.600000X1.600000*%
%TD*%
%TA.AperFunction,ComponentPad*%
%ADD19RoundRect,0.250000X0.600000X0.600000X-0.600000X0.600000X-0.600000X-0.600000X0.600000X-0.600000X0*%
%TD*%
%TA.AperFunction,ComponentPad*%
%ADD20C,1.700000*%
%TD*%
%TA.AperFunction,ComponentPad*%
%ADD21R,2.000000X2.000000*%
%TD*%
%TA.AperFunction,ComponentPad*%
%ADD22C,2.000000*%
%TD*%
%TA.AperFunction,ComponentPad*%
%ADD23R,2.000000X3.200000*%
%TD*%
%TA.AperFunction,ViaPad*%
%ADD24C,0.800000*%
%TD*%
%TA.AperFunction,Conductor*%
%ADD25C,0.500000*%
%TD*%
%TA.AperFunction,Conductor*%
%ADD26C,0.250000*%
%TD*%
G04 APERTURE END LIST*
D10*
%TO.P,J3,1,Pin_1*%
%TO.N,/5V*%
X208520000Y-155500000D03*
%TO.P,J3,2,Pin_2*%
%TO.N,unconnected-(J3-Pin_2-Pad2)*%
X211060000Y-155500000D03*
%TO.P,J3,3,Pin_3*%
%TO.N,unconnected-(J3-Pin_3-Pad3)*%
X213600000Y-155500000D03*
%TO.P,J3,4,Pin_4*%
%TO.N,GND*%
X216140000Y-155500000D03*
%TD*%
D11*
%TO.P,R6,1*%
%TO.N,Net-(J2-CD{slash}DAT3)*%
X151660000Y-146400000D03*
D12*
%TO.P,R6,2*%
%TO.N,GND*%
X141500000Y-146400000D03*
%TD*%
D13*
%TO.P,J1,1,Pin_1*%
%TO.N,GND*%
X196392800Y-108112400D03*
D14*
%TO.P,J1,2,Pin_2*%
%TO.N,/5V*%
X196392800Y-110652400D03*
%TO.P,J1,3,Pin_3*%
%TO.N,Net-(J1-Pin_3)*%
X196392800Y-113192400D03*
%TO.P,J1,4,Pin_4*%
%TO.N,Net-(J1-Pin_4)*%
X196392800Y-115732400D03*
%TD*%
D11*
%TO.P,R1,1*%
%TO.N,MOSI*%
X141420000Y-157000000D03*
D12*
%TO.P,R1,2*%
%TO.N,Net-(J2-CMD)*%
X151580000Y-157000000D03*
%TD*%
D11*
%TO.P,R3,1*%
%TO.N,SCK*%
X141500000Y-153400000D03*
D12*
%TO.P,R3,2*%
%TO.N,Net-(J2-CLK)*%
X151660000Y-153400000D03*
%TD*%
D11*
%TO.P,R7,1*%
%TO.N,Net-(J2-CMD)*%
X141340000Y-136100000D03*
D12*
%TO.P,R7,2*%
%TO.N,GND*%
X151500000Y-136100000D03*
%TD*%
D11*
%TO.P,R4,1*%
%TO.N,Net-(J2-CLK)*%
X151660000Y-149800000D03*
D12*
%TO.P,R4,2*%
%TO.N,GND*%
X141500000Y-149800000D03*
%TD*%
D15*
%TO.P,J2,1,CD/DAT3*%
%TO.N,Net-(J2-CD{slash}DAT3)*%
X178170000Y-128000000D03*
%TO.P,J2,2,CMD*%
%TO.N,Net-(J2-CMD)*%
X175670000Y-128000000D03*
%TO.P,J2,3,VSS*%
%TO.N,GND*%
X173920000Y-128000000D03*
%TO.P,J2,4,VDD*%
%TO.N,/3.3V*%
X170670000Y-128000000D03*
%TO.P,J2,5,CLK*%
%TO.N,Net-(J2-CLK)*%
X168170000Y-128000000D03*
%TO.P,J2,6,VSS*%
%TO.N,GND*%
X165670000Y-128000000D03*
%TO.P,J2,7,DAT0*%
%TO.N,MISO*%
X163250000Y-128000000D03*
%TO.P,J2,8,DAT1*%
%TO.N,unconnected-(J2-DAT1-Pad8)*%
X161550000Y-128000000D03*
%TO.P,J2,9,DAT2*%
%TO.N,unconnected-(J2-DAT2-Pad9)*%
X180670000Y-128000000D03*
%TO.P,J2,10,CARD_DETECT*%
%TO.N,unconnected-(J2-CARD_DETECT-Pad10)*%
X172420000Y-128000000D03*
D16*
%TO.P,J2,11,WRITE_PROTECT*%
%TO.N,unconnected-(J2-WRITE_PROTECT-Pad11)*%
X158400000Y-128000000D03*
D17*
%TO.P,J2,12,SHELL1*%
%TO.N,GND*%
X186150000Y-149000000D03*
%TO.P,J2,13,SHELL2*%
X156650000Y-150150000D03*
%TD*%
D18*
%TO.P,U1,1,D1/TX*%
%TO.N,Net-(D1-READ_DATA)*%
X122960000Y-117840000D03*
D12*
%TO.P,U1,2,D0/RX*%
%TO.N,Net-(D1-HEAD_SELECT)*%
X122960000Y-120380000D03*
%TO.P,U1,3,~{RESET}*%
%TO.N,unconnected-(U1-~{RESET}-Pad3)*%
X122960000Y-122920000D03*
%TO.P,U1,4,GND*%
%TO.N,GND*%
X122960000Y-125460000D03*
%TO.P,U1,5,D2*%
%TO.N,Net-(D1-WRITE_PROTECT)*%
X122960000Y-128000000D03*
%TO.P,U1,6,~D3*%
%TO.N,Net-(D1-TRACK)*%
X122960000Y-130540000D03*
%TO.P,U1,7,D4*%
%TO.N,Net-(D1-STEP)*%
X122960000Y-133080000D03*
%TO.P,U1,8,~D5*%
%TO.N,Net-(D1-DIRECTION)*%
X122960000Y-135620000D03*
%TO.P,U1,9,~D6*%
%TO.N,Net-(D1-MOTOR_1)*%
X122960000Y-138160000D03*
%TO.P,U1,10,D7*%
%TO.N,Net-(JP1-C)*%
X122960000Y-140700000D03*
%TO.P,U1,11,D8*%
%TO.N,Net-(D1-INDEX)*%
X122960000Y-143240000D03*
%TO.P,U1,12,~D9*%
%TO.N,unconnected-(U1-~D9-Pad12)*%
X122960000Y-145780000D03*
%TO.P,U1,13,~D10*%
%TO.N,SS*%
X122960000Y-148320000D03*
%TO.P,U1,14,~D11*%
%TO.N,MOSI*%
X122960000Y-150860000D03*
%TO.P,U1,15,D12*%
%TO.N,MISO*%
X122960000Y-153400000D03*
%TO.P,U1,16,D13*%
%TO.N,SCK*%
X138200000Y-153400000D03*
%TO.P,U1,17,3V3*%
%TO.N,/3.3V*%
X138200000Y-150860000D03*
%TO.P,U1,18,AREF*%
%TO.N,unconnected-(U1-AREF-Pad18)*%
X138200000Y-148320000D03*
%TO.P,U1,19,A0/D14*%
%TO.N,unconnected-(U1-A0{slash}D14-Pad19)*%
X138200000Y-145780000D03*
%TO.P,U1,20,A1/D15*%
%TO.N,Net-(U1-A1{slash}D15)*%
X138200000Y-143240000D03*
%TO.P,U1,21,A2/D16*%
%TO.N,Net-(U1-A2{slash}D16)*%
X138200000Y-140700000D03*
%TO.P,U1,22,A3/D17*%
%TO.N,Net-(U1-A3{slash}D17)*%
X138200000Y-138160000D03*
%TO.P,U1,23,A4/D18*%
%TO.N,Net-(J1-Pin_3)*%
X138200000Y-135620000D03*
%TO.P,U1,24,A5/D19*%
%TO.N,Net-(J1-Pin_4)*%
X138200000Y-133080000D03*
%TO.P,U1,25,A6/D20*%
%TO.N,unconnected-(U1-A6{slash}D20-Pad25)*%
X138200000Y-130540000D03*
%TO.P,U1,26,A7/D21*%
%TO.N,unconnected-(U1-A7{slash}D21-Pad26)*%
X138200000Y-128000000D03*
%TO.P,U1,27,+5V*%
%TO.N,/5V*%
X138200000Y-125460000D03*
%TO.P,U1,28,~{RESET}*%
%TO.N,unconnected-(U1-~{RESET}-Pad28)*%
X138200000Y-122920000D03*
%TO.P,U1,29,GND*%
%TO.N,GND*%
X138200000Y-120380000D03*
%TO.P,U1,30,VIN*%
%TO.N,unconnected-(U1-VIN-Pad30)*%
X138200000Y-117840000D03*
%TD*%
D11*
%TO.P,R5,1*%
%TO.N,/3.3V*%
X151560000Y-139400000D03*
D12*
%TO.P,R5,2*%
%TO.N,MISO*%
X141400000Y-139400000D03*
%TD*%
D11*
%TO.P,C1,1*%
%TO.N,GND*%
X146800000Y-122000000D03*
%TO.P,C1,2*%
X146800000Y-117000000D03*
%TD*%
D13*
%TO.P,JP1,1,A*%
%TO.N,Net-(D1-DRIVE_SELECT_1)*%
X137700000Y-106000000D03*
D14*
%TO.P,JP1,2,C*%
%TO.N,Net-(JP1-C)*%
X135160000Y-106000000D03*
%TO.P,JP1,3,B*%
%TO.N,Net-(D1-MOTOR_0)*%
X132620000Y-106000000D03*
%TD*%
D19*
%TO.P,D1,1,GND*%
%TO.N,GND*%
X115468400Y-151892000D03*
D20*
%TO.P,D1,2,DENSITY_SELECT*%
%TO.N,unconnected-(D1-DENSITY_SELECT-Pad2)*%
X112928400Y-151892000D03*
%TO.P,D1,3,GND*%
%TO.N,GND*%
X115468400Y-149352000D03*
%TO.P,D1,4,N/C*%
%TO.N,unconnected-(D1-N{slash}C-Pad4)*%
X112928400Y-149352000D03*
%TO.P,D1,5,GND*%
%TO.N,GND*%
X115468400Y-146812000D03*
%TO.P,D1,6,N/C*%
%TO.N,unconnected-(D1-N{slash}C-Pad6)*%
X112928400Y-146812000D03*
%TO.P,D1,7,GND*%
%TO.N,GND*%
X115468400Y-144272000D03*
%TO.P,D1,8,INDEX*%
%TO.N,Net-(D1-INDEX)*%
X112928400Y-144272000D03*
%TO.P,D1,9,GND*%
%TO.N,GND*%
X115468400Y-141732000D03*
%TO.P,D1,10,MOTOR_0*%
%TO.N,Net-(D1-MOTOR_0)*%
X112928400Y-141732000D03*
%TO.P,D1,11,GND*%
%TO.N,GND*%
X115468400Y-139192000D03*
%TO.P,D1,12,DRIVE_SELECT_1*%
%TO.N,Net-(D1-DRIVE_SELECT_1)*%
X112928400Y-139192000D03*
%TO.P,D1,13,GND*%
%TO.N,GND*%
X115468400Y-136652000D03*
%TO.P,D1,14,DRIVE_SELECT_0*%
%TO.N,unconnected-(D1-DRIVE_SELECT_0-Pad14)*%
X112928400Y-136652000D03*
%TO.P,D1,15,GND*%
%TO.N,GND*%
X115468400Y-134112000D03*
%TO.P,D1,16,MOTOR_1*%
%TO.N,Net-(D1-MOTOR_1)*%
X112928400Y-134112000D03*
%TO.P,D1,17,GND*%
%TO.N,GND*%
X115468400Y-131572000D03*
%TO.P,D1,18,DIRECTION*%
%TO.N,Net-(D1-DIRECTION)*%
X112928400Y-131572000D03*
%TO.P,D1,19,GND*%
%TO.N,GND*%
X115468400Y-129032000D03*
%TO.P,D1,20,STEP*%
%TO.N,Net-(D1-STEP)*%
X112928400Y-129032000D03*
%TO.P,D1,21,GND*%
%TO.N,GND*%
X115468400Y-126492000D03*
%TO.P,D1,22,WRITE_DATA*%
%TO.N,unconnected-(D1-WRITE_DATA-Pad22)*%
X112928400Y-126492000D03*
%TO.P,D1,23,GND*%
%TO.N,GND*%
X115468400Y-123952000D03*
%TO.P,D1,24,WRITE_GATE*%
%TO.N,unconnected-(D1-WRITE_GATE-Pad24)*%
X112928400Y-123952000D03*
%TO.P,D1,25,GND*%
%TO.N,GND*%
X115468400Y-121412000D03*
%TO.P,D1,26,TRACK*%
%TO.N,Net-(D1-TRACK)*%
X112928400Y-121412000D03*
%TO.P,D1,27,GND*%
%TO.N,GND*%
X115468400Y-118872000D03*
%TO.P,D1,28,WRITE_PROTECT*%
%TO.N,Net-(D1-WRITE_PROTECT)*%
X112928400Y-118872000D03*
%TO.P,D1,29,GND*%
%TO.N,GND*%
X115468400Y-116332000D03*
%TO.P,D1,30,READ_DATA*%
%TO.N,Net-(D1-READ_DATA)*%
X112928400Y-116332000D03*
%TO.P,D1,31,GND*%
%TO.N,GND*%
X115468400Y-113792000D03*
%TO.P,D1,32,HEAD_SELECT*%
%TO.N,Net-(D1-HEAD_SELECT)*%
X112928400Y-113792000D03*
%TO.P,D1,33,GND*%
%TO.N,GND*%
X115468400Y-111252000D03*
%TO.P,D1,34,DISK_CHANGE*%
%TO.N,unconnected-(D1-DISK_CHANGE-Pad34)*%
X112928400Y-111252000D03*
%TD*%
D11*
%TO.P,R2,1*%
%TO.N,SS*%
X141400000Y-142800000D03*
D12*
%TO.P,R2,2*%
%TO.N,Net-(J2-CD{slash}DAT3)*%
X151560000Y-142800000D03*
%TD*%
D21*
%TO.P,SW1,A,A*%
%TO.N,Net-(U1-A2{slash}D16)*%
X214200000Y-118650000D03*
D22*
%TO.P,SW1,B,B*%
%TO.N,Net-(U1-A3{slash}D17)*%
X209200000Y-118650000D03*
%TO.P,SW1,C,C*%
%TO.N,GND*%
X211700000Y-118650000D03*
D23*
%TO.P,SW1,MP*%
%TO.N,N/C*%
X206100000Y-111150000D03*
X217300000Y-111150000D03*
D22*
%TO.P,SW1,S1,S1*%
%TO.N,Net-(U1-A1{slash}D15)*%
X209200000Y-104150000D03*
%TO.P,SW1,S2,S2*%
%TO.N,GND*%
X214200000Y-104150000D03*
%TD*%
%TO.P,SW2,1,1*%
%TO.N,Net-(U1-A2{slash}D16)*%
X214950000Y-123462800D03*
X208450000Y-123462800D03*
%TO.P,SW2,2,2*%
%TO.N,GND*%
X214950000Y-127962800D03*
X208450000Y-127962800D03*
%TD*%
%TO.P,SW3,1,1*%
%TO.N,Net-(U1-A3{slash}D17)*%
X214950000Y-132775600D03*
X208450000Y-132775600D03*
%TO.P,SW3,2,2*%
%TO.N,GND*%
X214950000Y-137275600D03*
X208450000Y-137275600D03*
%TD*%
%TO.P,SW4,1,1*%
%TO.N,Net-(U1-A1{slash}D15)*%
X214950000Y-142088400D03*
X208450000Y-142088400D03*
%TO.P,SW4,2,2*%
%TO.N,GND*%
X214950000Y-146588400D03*
X208450000Y-146588400D03*
%TD*%
D24*
%TO.N,Net-(J1-Pin_3)*%
X169350200Y-129998200D03*
%TO.N,Net-(J2-CD{slash}DAT3)*%
X163218200Y-136673000D03*
%TO.N,MISO*%
X150647200Y-129226900D03*
%TO.N,Net-(J2-CMD)*%
X153071800Y-136951900D03*
%TO.N,Net-(J2-CLK)*%
X167158100Y-130175000D03*
%TO.N,/3.3V*%
X150609600Y-134667300D03*
%TD*%
D25*
%TO.N,GND*%
X141500000Y-149800000D02*
X142751900Y-149800000D01*
X115468400Y-134112000D02*
X115468400Y-136652000D01*
X156074100Y-150150000D02*
X156650000Y-150150000D01*
X115468400Y-118872000D02*
X115468400Y-121412000D01*
X144008100Y-151056200D02*
X154591900Y-151056200D01*
X146800000Y-122000000D02*
X145180000Y-120380000D01*
X146800000Y-117000000D02*
X145180000Y-118620000D01*
X153482700Y-135369200D02*
X152751900Y-136100000D01*
X145180000Y-120380000D02*
X138200000Y-120380000D01*
X115468400Y-131572000D02*
X115468400Y-134112000D01*
X189713500Y-146588400D02*
X187301900Y-149000000D01*
X142751900Y-149800000D02*
X144008100Y-151056200D01*
X124211900Y-125460000D02*
X129291900Y-120380000D01*
X165670000Y-126161800D02*
X173920000Y-126161800D01*
X186150000Y-149000000D02*
X184998100Y-149000000D01*
X211700000Y-106650000D02*
X211700000Y-108112400D01*
X167902700Y-135369200D02*
X153482700Y-135369200D01*
X173920000Y-128000000D02*
X173920000Y-129351900D01*
X173920000Y-126161800D02*
X173920000Y-128000000D01*
X173920000Y-129351900D02*
X167902700Y-135369200D01*
X121708100Y-125460000D02*
X116838900Y-125460000D01*
X183848100Y-150150000D02*
X184998100Y-149000000D01*
X208450000Y-146588400D02*
X189713500Y-146588400D01*
X186150000Y-149000000D02*
X187301900Y-149000000D01*
X115806900Y-126492000D02*
X116838900Y-125460000D01*
X115468400Y-126492000D02*
X115806900Y-126492000D01*
X156074100Y-150150000D02*
X155498100Y-150150000D01*
X211700000Y-108112400D02*
X211700000Y-118650000D01*
X116838900Y-125322500D02*
X115468400Y-123952000D01*
X122960000Y-125460000D02*
X121708100Y-125460000D01*
X115468400Y-113792000D02*
X115468400Y-116332000D01*
X154591900Y-151056200D02*
X155498100Y-150150000D01*
X129291900Y-120380000D02*
X138200000Y-120380000D01*
X141500000Y-149800000D02*
X141500000Y-146400000D01*
X145180000Y-118620000D02*
X145180000Y-120380000D01*
X115468400Y-121412000D02*
X115468400Y-123952000D01*
X151500000Y-136100000D02*
X152751900Y-136100000D01*
X115468400Y-129032000D02*
X115468400Y-131572000D01*
X214200000Y-104150000D02*
X211700000Y-106650000D01*
X211700000Y-108112400D02*
X196392800Y-108112400D01*
X122960000Y-125460000D02*
X124211900Y-125460000D01*
X156650000Y-150150000D02*
X183848100Y-150150000D01*
X116838900Y-125460000D02*
X116838900Y-125322500D01*
X165670000Y-128000000D02*
X165670000Y-126161800D01*
D26*
%TO.N,Net-(D1-INDEX)*%
X122960000Y-143240000D02*
X121833100Y-143240000D01*
X114138900Y-143061500D02*
X121654600Y-143061500D01*
X121654600Y-143061500D02*
X121833100Y-143240000D01*
X112928400Y-144272000D02*
X114138900Y-143061500D01*
%TO.N,Net-(D1-DRIVE_SELECT_1)*%
X114985000Y-112574500D02*
X130316400Y-112574500D01*
X137700000Y-106000000D02*
X136523100Y-106000000D01*
X136523100Y-106367800D02*
X136523100Y-106000000D01*
X112928400Y-139192000D02*
X111716300Y-137979900D01*
X112369800Y-115155100D02*
X113244300Y-115155100D01*
X114198400Y-113361100D02*
X114985000Y-112574500D01*
X113244300Y-115155100D02*
X114198400Y-114201000D01*
X111716300Y-137979900D02*
X111716300Y-115808600D01*
X114198400Y-114201000D02*
X114198400Y-113361100D01*
X111716300Y-115808600D02*
X112369800Y-115155100D01*
X130316400Y-112574500D02*
X136523100Y-106367800D01*
%TO.N,Net-(D1-READ_DATA)*%
X121595100Y-117602000D02*
X121833100Y-117840000D01*
X112928400Y-116332000D02*
X114198400Y-117602000D01*
X122960000Y-117840000D02*
X121833100Y-117840000D01*
X114198400Y-117602000D02*
X121595100Y-117602000D01*
%TO.N,Net-(J1-Pin_3)*%
X168386000Y-130962400D02*
X143984500Y-130962400D01*
X143984500Y-130962400D02*
X139326900Y-135620000D01*
X139326900Y-135620000D02*
X138200000Y-135620000D01*
X169350200Y-129998200D02*
X168386000Y-130962400D01*
%TO.N,Net-(J1-Pin_4)*%
X137914700Y-124104500D02*
X194995700Y-124104500D01*
X137023500Y-124995700D02*
X137914700Y-124104500D01*
X137918300Y-131953100D02*
X137023500Y-131058300D01*
X138200000Y-133080000D02*
X138200000Y-131953100D01*
X194995700Y-124104500D02*
X196392800Y-122707400D01*
X138200000Y-131953100D02*
X137918300Y-131953100D01*
X137023500Y-131058300D02*
X137023500Y-124995700D01*
X196392800Y-122707400D02*
X196392800Y-115732400D01*
%TO.N,Net-(J2-CD{slash}DAT3)*%
X163218200Y-136673000D02*
X170723900Y-136673000D01*
X170723900Y-136673000D02*
X178170000Y-129226900D01*
X178170000Y-128000000D02*
X178170000Y-129226900D01*
%TO.N,MISO*%
X151519100Y-130098800D02*
X150647200Y-129226900D01*
X163250000Y-130098800D02*
X151519100Y-130098800D01*
X163250000Y-128000000D02*
X163250000Y-130098800D01*
D25*
%TO.N,/5V*%
X195453000Y-125069600D02*
X197695300Y-122827300D01*
X138200000Y-125460000D02*
X138590400Y-125069600D01*
X197695300Y-111954900D02*
X196392800Y-110652400D01*
X197695300Y-122827300D02*
X197695300Y-111954900D01*
X138590400Y-125069600D02*
X195453000Y-125069600D01*
D26*
%TO.N,Net-(J2-CMD)*%
X153071800Y-136951900D02*
X152796800Y-137226900D01*
X154077600Y-135946100D02*
X153071800Y-136951900D01*
X142466900Y-137226900D02*
X141340000Y-136100000D01*
X152796800Y-137226900D02*
X142466900Y-137226900D01*
X168950800Y-135946100D02*
X154077600Y-135946100D01*
X175670000Y-128000000D02*
X175670000Y-129226900D01*
X175670000Y-129226900D02*
X168950800Y-135946100D01*
%TO.N,Net-(J2-CLK)*%
X168170000Y-129163100D02*
X168170000Y-128000000D01*
X167158100Y-130175000D02*
X168170000Y-129163100D01*
%TO.N,Net-(U1-A2{slash}D16)*%
X194175700Y-137737100D02*
X141383500Y-137737100D01*
X214950000Y-123462800D02*
X208450000Y-123462800D01*
X208450000Y-123462800D02*
X194175700Y-137737100D01*
X137788400Y-136973800D02*
X137060000Y-137702200D01*
X141383500Y-137737100D02*
X140620200Y-136973800D01*
X140620200Y-136973800D02*
X137788400Y-136973800D01*
X137060000Y-137702200D02*
X137060000Y-138714800D01*
X138200000Y-140700000D02*
X138200000Y-139573100D01*
X137060000Y-138714800D02*
X137918300Y-139573100D01*
X137918300Y-139573100D02*
X138200000Y-139573100D01*
%TO.N,Net-(U1-A3{slash}D17)*%
X208450000Y-132775600D02*
X202997400Y-138228200D01*
X138200000Y-138160000D02*
X139326900Y-138160000D01*
X214950000Y-132775600D02*
X208450000Y-132775600D01*
X139395100Y-138228200D02*
X139326900Y-138160000D01*
X202997400Y-138228200D02*
X139395100Y-138228200D01*
%TO.N,Net-(U1-A1{slash}D15)*%
X206603000Y-143935400D02*
X208450000Y-142088400D01*
X208450000Y-142088400D02*
X214950000Y-142088400D01*
X140022300Y-143935400D02*
X206603000Y-143935400D01*
X138200000Y-143240000D02*
X139326900Y-143240000D01*
X139326900Y-143240000D02*
X140022300Y-143935400D01*
%TO.N,SS*%
X122960000Y-148320000D02*
X124086900Y-148320000D01*
X130363000Y-142043900D02*
X140643900Y-142043900D01*
X124086900Y-148320000D02*
X130363000Y-142043900D01*
X140643900Y-142043900D02*
X141400000Y-142800000D01*
%TO.N,MOSI*%
X130226900Y-157000000D02*
X141420000Y-157000000D01*
X122960000Y-150860000D02*
X124086900Y-150860000D01*
X124086900Y-150860000D02*
X130226900Y-157000000D01*
%TO.N,SCK*%
X138200000Y-153400000D02*
X141500000Y-153400000D01*
D25*
%TO.N,/3.3V*%
X165888500Y-134667300D02*
X150609600Y-134667300D01*
X170670000Y-129885800D02*
X165888500Y-134667300D01*
X170670000Y-128000000D02*
X170670000Y-129885800D01*
%TD*%
M02*
