%TF.GenerationSoftware,KiCad,Pcbnew,9.0.0*%
%TF.CreationDate,2025-03-11T00:37:20+03:00*%
%TF.ProjectId,delta_flop_arduino2,64656c74-615f-4666-9c6f-705f61726475,1*%
%TF.SameCoordinates,Original*%
%TF.FileFunction,Soldermask,Top*%
%TF.FilePolarity,Negative*%
%FSLAX46Y46*%
G04 Gerber Fmt 4.6, Leading zero omitted, Abs format (unit mm)*
G04 Created by KiCad (PCBNEW 9.0.0) date 2025-03-11 00:37:20*
%MOMM*%
%LPD*%
G01*
G04 APERTURE LIST*
G04 Aperture macros list*
%AMRoundRect*
0 Rectangle with rounded corners*
0 $1 Rounding radius*
0 $2 $3 $4 $5 $6 $7 $8 $9 X,Y pos of 4 corners*
0 Add a 4 corners polygon primitive as box body*
4,1,4,$2,$3,$4,$5,$6,$7,$8,$9,$2,$3,0*
0 Add four circle primitives for the rounded corners*
1,1,$1+$1,$2,$3*
1,1,$1+$1,$4,$5*
1,1,$1+$1,$6,$7*
1,1,$1+$1,$8,$9*
0 Add four rect primitives between the rounded corners*
20,1,$1+$1,$2,$3,$4,$5,0*
20,1,$1+$1,$4,$5,$6,$7,0*
20,1,$1+$1,$6,$7,$8,$9,0*
20,1,$1+$1,$8,$9,$2,$3,0*%
G04 Aperture macros list end*
%ADD10C,1.524000*%
%ADD11C,3.500000*%
%ADD12C,1.550000*%
%ADD13RoundRect,0.101600X-0.450000X0.900000X-0.450000X-0.900000X0.450000X-0.900000X0.450000X0.900000X0*%
%ADD14RoundRect,0.101600X-0.550000X0.900000X-0.550000X-0.900000X0.550000X-0.900000X0.550000X0.900000X0*%
%ADD15RoundRect,0.101600X-0.700000X1.000000X-0.700000X-1.000000X0.700000X-1.000000X0.700000X1.000000X0*%
%ADD16C,1.600000*%
%ADD17O,1.600000X1.600000*%
%ADD18RoundRect,0.250000X0.600000X0.600000X-0.600000X0.600000X-0.600000X-0.600000X0.600000X-0.600000X0*%
%ADD19C,1.700000*%
%ADD20R,1.600000X1.600000*%
%ADD21R,1.700000X1.700000*%
%ADD22O,1.700000X1.700000*%
%ADD23C,2.000000*%
G04 APERTURE END LIST*
D10*
%TO.C,J3*%
X197462500Y-101825000D03*
X200002500Y-101825000D03*
X202542500Y-101825000D03*
X205082500Y-101825000D03*
%TD*%
D11*
%TO.C,H1*%
X94876400Y-55499200D03*
%TD*%
%TO.C,H4*%
X188276000Y-110392400D03*
%TD*%
D12*
%TO.C,J2*%
X173611000Y-106367200D03*
X149351000Y-106367200D03*
D13*
X168441000Y-82067200D03*
X165941000Y-82067200D03*
X164191000Y-82067200D03*
X160941000Y-82067200D03*
X158441000Y-82067200D03*
X155941000Y-82067200D03*
X153521000Y-82067200D03*
X151821000Y-82067200D03*
X170941000Y-82067200D03*
X162691000Y-82067200D03*
D14*
X148671000Y-82067200D03*
D15*
X176421000Y-103067200D03*
X146921000Y-104217200D03*
%TD*%
D16*
%TO.C,R3*%
X143160000Y-88716700D03*
D17*
X133000000Y-88716700D03*
%TD*%
D16*
%TO.C,R4*%
X143160000Y-92700000D03*
D17*
X133000000Y-92700000D03*
%TD*%
D18*
%TO.C,D1*%
X105340000Y-103265800D03*
D19*
X102800000Y-103265800D03*
X105340000Y-100725800D03*
X102800000Y-100725800D03*
X105340000Y-98185800D03*
X102800000Y-98185800D03*
X105340000Y-95645800D03*
X102800000Y-95645800D03*
X105340000Y-93105800D03*
X102800000Y-93105800D03*
X105340000Y-90565800D03*
X102800000Y-90565800D03*
X105340000Y-88025800D03*
X102800000Y-88025800D03*
X105340000Y-85485800D03*
X102800000Y-85485800D03*
X105340000Y-82945800D03*
X102800000Y-82945800D03*
X105340000Y-80405800D03*
X102800000Y-80405800D03*
X105340000Y-77865800D03*
X102800000Y-77865800D03*
X105340000Y-75325800D03*
X102800000Y-75325800D03*
X105340000Y-72785800D03*
X102800000Y-72785800D03*
X105340000Y-70245800D03*
X102800000Y-70245800D03*
X105340000Y-67705800D03*
X102800000Y-67705800D03*
X105340000Y-65165800D03*
X102800000Y-65165800D03*
X105340000Y-62625800D03*
X102800000Y-62625800D03*
%TD*%
D11*
%TO.C,H2*%
X188276000Y-55499200D03*
%TD*%
D20*
%TO.C,U1*%
X112500000Y-66650000D03*
D17*
X112500000Y-69190000D03*
X112500000Y-71730000D03*
X112500000Y-74270000D03*
X112500000Y-76810000D03*
X112500000Y-79350000D03*
X112500000Y-81890000D03*
X112500000Y-84430000D03*
X112500000Y-86970000D03*
X112500000Y-89510000D03*
X112500000Y-92050000D03*
X112500000Y-94590000D03*
X112500000Y-97130000D03*
X112500000Y-99670000D03*
X112500000Y-102210000D03*
X127740000Y-102210000D03*
X127740000Y-99670000D03*
X127740000Y-97130000D03*
X127740000Y-94590000D03*
X127740000Y-92050000D03*
X127740000Y-89510000D03*
X127740000Y-86970000D03*
X127740000Y-84430000D03*
X127740000Y-81890000D03*
X127740000Y-79350000D03*
X127740000Y-76810000D03*
X127740000Y-74270000D03*
X127740000Y-71730000D03*
X127740000Y-69190000D03*
X127740000Y-66650000D03*
%TD*%
D16*
%TO.C,R2*%
X133000000Y-84733300D03*
D17*
X143160000Y-84733300D03*
%TD*%
D16*
%TO.C,R5*%
X143160000Y-96683300D03*
D17*
X133000000Y-96683300D03*
%TD*%
D11*
%TO.C,H3*%
X94876400Y-110392400D03*
%TD*%
D16*
%TO.C,R1*%
X133000000Y-80750000D03*
D17*
X143160000Y-80750000D03*
%TD*%
D21*
%TO.C,J1*%
X185500000Y-59550000D03*
D22*
X185500000Y-62090000D03*
X185500000Y-64630000D03*
X185500000Y-67170000D03*
%TD*%
D16*
%TO.C,R7*%
X143160000Y-104650000D03*
D17*
X133000000Y-104650000D03*
%TD*%
D21*
%TO.C,JP2*%
X190114000Y-98425000D03*
D22*
X192654000Y-98425000D03*
%TD*%
D21*
%TO.C,JP1*%
X126775000Y-56550000D03*
D22*
X124235000Y-56550000D03*
X121695000Y-56550000D03*
%TD*%
D16*
%TO.C,R6*%
X143160000Y-100666700D03*
D17*
X133000000Y-100666700D03*
%TD*%
D16*
%TO.C,C1*%
X133985000Y-72477000D03*
X133985000Y-67477000D03*
%TD*%
D20*
%TO.C,D2*%
X187579000Y-75184000D03*
D17*
X187579000Y-77724000D03*
X187579000Y-80264000D03*
X187579000Y-82804000D03*
X187579000Y-85344000D03*
X187579000Y-87884000D03*
X187579000Y-90424000D03*
X187579000Y-92964000D03*
X195199000Y-92964000D03*
X195199000Y-90424000D03*
X195199000Y-87884000D03*
X195199000Y-85344000D03*
X195199000Y-82804000D03*
X195199000Y-80264000D03*
X195199000Y-77724000D03*
X195199000Y-75184000D03*
%TD*%
D23*
%TO.C,SW2*%
X205000000Y-78450000D03*
X198500000Y-78450000D03*
X205000000Y-82950000D03*
X198500000Y-82950000D03*
%TD*%
%TO.C,SW3*%
X205000000Y-91650000D03*
X198500000Y-91650000D03*
X205000000Y-96150000D03*
X198500000Y-96150000D03*
%TD*%
%TO.C,SW1*%
X205000000Y-65250000D03*
X198500000Y-65250000D03*
X205000000Y-69750000D03*
X198500000Y-69750000D03*
%TD*%
M02*
