%TF.GenerationSoftware,KiCad,Pcbnew,9.0.0*%
%TF.CreationDate,2025-03-11T00:37:20+03:00*%
%TF.ProjectId,delta_flop_arduino2,64656c74-615f-4666-9c6f-705f61726475,1*%
%TF.SameCoordinates,Original*%
%TF.FileFunction,Copper,L2,Bot*%
%TF.FilePolarity,Positive*%
%FSLAX46Y46*%
G04 Gerber Fmt 4.6, Leading zero omitted, Abs format (unit mm)*
G04 Created by KiCad (PCBNEW 9.0.0) date 2025-03-11 00:37:20*
%MOMM*%
%LPD*%
G01*
G04 APERTURE LIST*
G04 Aperture macros list*
%AMRoundRect*
0 Rectangle with rounded corners*
0 $1 Rounding radius*
0 $2 $3 $4 $5 $6 $7 $8 $9 X,Y pos of 4 corners*
0 Add a 4 corners polygon primitive as box body*
4,1,4,$2,$3,$4,$5,$6,$7,$8,$9,$2,$3,0*
0 Add four circle primitives for the rounded corners*
1,1,$1+$1,$2,$3*
1,1,$1+$1,$4,$5*
1,1,$1+$1,$6,$7*
1,1,$1+$1,$8,$9*
0 Add four rect primitives between the rounded corners*
20,1,$1+$1,$2,$3,$4,$5,0*
20,1,$1+$1,$4,$5,$6,$7,0*
20,1,$1+$1,$6,$7,$8,$9,0*
20,1,$1+$1,$8,$9,$2,$3,0*%
G04 Aperture macros list end*
%TA.AperFunction,ComponentPad*%
%ADD10C,1.524000*%
%TD*%
%TA.AperFunction,ComponentPad*%
%ADD11C,1.600000*%
%TD*%
%TA.AperFunction,ComponentPad*%
%ADD12O,1.600000X1.600000*%
%TD*%
%TA.AperFunction,ComponentPad*%
%ADD13RoundRect,0.250000X0.600000X0.600000X-0.600000X0.600000X-0.600000X-0.600000X0.600000X-0.600000X0*%
%TD*%
%TA.AperFunction,ComponentPad*%
%ADD14C,1.700000*%
%TD*%
%TA.AperFunction,ComponentPad*%
%ADD15R,1.600000X1.600000*%
%TD*%
%TA.AperFunction,ComponentPad*%
%ADD16R,1.700000X1.700000*%
%TD*%
%TA.AperFunction,ComponentPad*%
%ADD17O,1.700000X1.700000*%
%TD*%
%TA.AperFunction,ComponentPad*%
%ADD18C,2.000000*%
%TD*%
%TA.AperFunction,ViaPad*%
%ADD19C,0.800000*%
%TD*%
%TA.AperFunction,Conductor*%
%ADD20C,0.500000*%
%TD*%
%TA.AperFunction,Conductor*%
%ADD21C,0.250000*%
%TD*%
G04 APERTURE END LIST*
D10*
%TO.P,J3,1,Pin_1*%
%TO.N,+5V*%
X197462500Y-101825000D03*
%TO.P,J3,2,Pin_2*%
%TO.N,unconnected-(J3-Pin_2-Pad2)*%
X200002500Y-101825000D03*
%TO.P,J3,3,Pin_3*%
%TO.N,unconnected-(J3-Pin_3-Pad3)*%
X202542500Y-101825000D03*
%TO.P,J3,4,Pin_4*%
%TO.N,GND*%
X205082500Y-101825000D03*
%TD*%
D11*
%TO.P,R3,1*%
%TO.N,Net-(J2-CMD)*%
X143160000Y-88716700D03*
D12*
%TO.P,R3,2*%
%TO.N,MOSI*%
X133000000Y-88716700D03*
%TD*%
D11*
%TO.P,R4,1*%
%TO.N,Net-(J2-CMD)*%
X143160000Y-92700000D03*
D12*
%TO.P,R4,2*%
%TO.N,GND*%
X133000000Y-92700000D03*
%TD*%
D13*
%TO.P,D1,1,GND*%
%TO.N,GND*%
X105340000Y-103265800D03*
D14*
%TO.P,D1,2,DENSITY_SELECT*%
%TO.N,unconnected-(D1-DENSITY_SELECT-Pad2)*%
X102800000Y-103265800D03*
%TO.P,D1,3,GND*%
%TO.N,GND*%
X105340000Y-100725800D03*
%TO.P,D1,4,N/C*%
%TO.N,unconnected-(D1-N{slash}C-Pad4)*%
X102800000Y-100725800D03*
%TO.P,D1,5,GND*%
%TO.N,GND*%
X105340000Y-98185800D03*
%TO.P,D1,6,N/C*%
%TO.N,unconnected-(D1-N{slash}C-Pad6)*%
X102800000Y-98185800D03*
%TO.P,D1,7,GND*%
%TO.N,GND*%
X105340000Y-95645800D03*
%TO.P,D1,8,INDEX*%
%TO.N,D9*%
X102800000Y-95645800D03*
%TO.P,D1,9,GND*%
%TO.N,GND*%
X105340000Y-93105800D03*
%TO.P,D1,10,DRIVE_SELECT_0*%
%TO.N,Net-(D1-DRIVE_SELECT_0)*%
X102800000Y-93105800D03*
%TO.P,D1,11,GND*%
%TO.N,GND*%
X105340000Y-90565800D03*
%TO.P,D1,12,DRIVE_SELECT_1*%
%TO.N,Net-(D1-DRIVE_SELECT_1)*%
X102800000Y-90565800D03*
%TO.P,D1,13,GND*%
%TO.N,GND*%
X105340000Y-88025800D03*
%TO.P,D1,14,DRIVE_SELECT_2*%
%TO.N,unconnected-(D1-DRIVE_SELECT_2-Pad14)*%
X102800000Y-88025800D03*
%TO.P,D1,15,GND*%
%TO.N,GND*%
X105340000Y-85485800D03*
%TO.P,D1,16,MOTOR*%
%TO.N,D6*%
X102800000Y-85485800D03*
%TO.P,D1,17,GND*%
%TO.N,GND*%
X105340000Y-82945800D03*
%TO.P,D1,18,DIRECTION*%
%TO.N,D5*%
X102800000Y-82945800D03*
%TO.P,D1,19,GND*%
%TO.N,GND*%
X105340000Y-80405800D03*
%TO.P,D1,20,STEP*%
%TO.N,D4*%
X102800000Y-80405800D03*
%TO.P,D1,21,GND*%
%TO.N,GND*%
X105340000Y-77865800D03*
%TO.P,D1,22,WRITE_DATA*%
%TO.N,D8*%
X102800000Y-77865800D03*
%TO.P,D1,23,GND*%
%TO.N,GND*%
X105340000Y-75325800D03*
%TO.P,D1,24,WRITE_GATE*%
%TO.N,A0*%
X102800000Y-75325800D03*
%TO.P,D1,25,GND*%
%TO.N,GND*%
X105340000Y-72785800D03*
%TO.P,D1,26,TRACK*%
%TO.N,D3*%
X102800000Y-72785800D03*
%TO.P,D1,27,GND*%
%TO.N,GND*%
X105340000Y-70245800D03*
%TO.P,D1,28,WRITE_PROTECT*%
%TO.N,D2*%
X102800000Y-70245800D03*
%TO.P,D1,29,GND*%
%TO.N,GND*%
X105340000Y-67705800D03*
%TO.P,D1,30,READ_DATA*%
%TO.N,TX*%
X102800000Y-67705800D03*
%TO.P,D1,31,GND*%
%TO.N,GND*%
X105340000Y-65165800D03*
%TO.P,D1,32,HEAD_SELECT*%
%TO.N,RX*%
X102800000Y-65165800D03*
%TO.P,D1,33,GND*%
%TO.N,GND*%
X105340000Y-62625800D03*
%TO.P,D1,34,DISK_CHANGE*%
%TO.N,unconnected-(D1-DISK_CHANGE-Pad34)*%
X102800000Y-62625800D03*
%TD*%
D15*
%TO.P,U1,1,D1/TX*%
%TO.N,D2.1*%
X112500000Y-66650000D03*
D12*
%TO.P,U1,2,D0/RX*%
%TO.N,RX*%
X112500000Y-69190000D03*
%TO.P,U1,3,~{RESET}*%
%TO.N,unconnected-(U1-~{RESET}-Pad3)*%
X112500000Y-71730000D03*
%TO.P,U1,4,GND*%
%TO.N,GND*%
X112500000Y-74270000D03*
%TO.P,U1,5,D2*%
%TO.N,D2*%
X112500000Y-76810000D03*
%TO.P,U1,6,~D3*%
%TO.N,D3*%
X112500000Y-79350000D03*
%TO.P,U1,7,D4*%
%TO.N,D4*%
X112500000Y-81890000D03*
%TO.P,U1,8,~D5*%
%TO.N,D5*%
X112500000Y-84430000D03*
%TO.P,U1,9,~D6*%
%TO.N,D6*%
X112500000Y-86970000D03*
%TO.P,U1,10,D7*%
%TO.N,D2.4*%
X112500000Y-89510000D03*
%TO.P,U1,11,D8*%
%TO.N,D8*%
X112500000Y-92050000D03*
%TO.P,U1,12,~D9*%
%TO.N,D9*%
X112500000Y-94590000D03*
%TO.P,U1,13,~D10*%
%TO.N,D10*%
X112500000Y-97130000D03*
%TO.P,U1,14,~D11*%
%TO.N,MOSI*%
X112500000Y-99670000D03*
%TO.P,U1,15,D12*%
%TO.N,MISO*%
X112500000Y-102210000D03*
%TO.P,U1,16,D13*%
%TO.N,SCK*%
X127740000Y-102210000D03*
%TO.P,U1,17,3V3*%
%TO.N,3.3V*%
X127740000Y-99670000D03*
%TO.P,U1,18,AREF*%
%TO.N,unconnected-(U1-AREF-Pad18)*%
X127740000Y-97130000D03*
%TO.P,U1,19,A0/D14*%
%TO.N,A0*%
X127740000Y-94590000D03*
%TO.P,U1,20,A1/D15*%
%TO.N,Net-(U1-A1{slash}D15)*%
X127740000Y-92050000D03*
%TO.P,U1,21,A2/D16*%
%TO.N,Net-(U1-A2{slash}D16)*%
X127740000Y-89510000D03*
%TO.P,U1,22,A3/D17*%
%TO.N,Net-(U1-A3{slash}D17)*%
X127740000Y-86970000D03*
%TO.P,U1,23,A4/D18*%
%TO.N,SDA*%
X127740000Y-84430000D03*
%TO.P,U1,24,A5/D19*%
%TO.N,SCL*%
X127740000Y-81890000D03*
%TO.P,U1,25,A6/D20*%
%TO.N,unconnected-(U1-A6{slash}D20-Pad25)*%
X127740000Y-79350000D03*
%TO.P,U1,26,A7/D21*%
%TO.N,unconnected-(U1-A7{slash}D21-Pad26)*%
X127740000Y-76810000D03*
%TO.P,U1,27,+5V*%
%TO.N,+5V*%
X127740000Y-74270000D03*
%TO.P,U1,28,~{RESET}*%
%TO.N,unconnected-(U1-~{RESET}-Pad28)*%
X127740000Y-71730000D03*
%TO.P,U1,29,GND*%
%TO.N,GND*%
X127740000Y-69190000D03*
%TO.P,U1,30,VIN*%
%TO.N,unconnected-(U1-VIN-Pad30)*%
X127740000Y-66650000D03*
%TD*%
D11*
%TO.P,R2,1*%
%TO.N,3.3V*%
X133000000Y-84733300D03*
D12*
%TO.P,R2,2*%
%TO.N,MISO*%
X143160000Y-84733300D03*
%TD*%
D11*
%TO.P,R5,1*%
%TO.N,Net-(J2-CD{slash}DAT3)*%
X143160000Y-96683300D03*
D12*
%TO.P,R5,2*%
%TO.N,GND*%
X133000000Y-96683300D03*
%TD*%
D11*
%TO.P,R1,1*%
%TO.N,Net-(J2-CLK)*%
X133000000Y-80750000D03*
D12*
%TO.P,R1,2*%
%TO.N,GND*%
X143160000Y-80750000D03*
%TD*%
D16*
%TO.P,J1,1,Pin_1*%
%TO.N,GND*%
X185500000Y-59550000D03*
D17*
%TO.P,J1,2,Pin_2*%
%TO.N,+5V*%
X185500000Y-62090000D03*
%TO.P,J1,3,Pin_3*%
%TO.N,SDA*%
X185500000Y-64630000D03*
%TO.P,J1,4,Pin_4*%
%TO.N,SCL*%
X185500000Y-67170000D03*
%TD*%
D11*
%TO.P,R7,1*%
%TO.N,Net-(J2-CD{slash}DAT3)*%
X143160000Y-104650000D03*
D12*
%TO.P,R7,2*%
%TO.N,D10*%
X133000000Y-104650000D03*
%TD*%
D16*
%TO.P,JP2,1,A*%
%TO.N,D2.1*%
X190114000Y-98425000D03*
D17*
%TO.P,JP2,2,B*%
%TO.N,TX*%
X192654000Y-98425000D03*
%TD*%
D16*
%TO.P,JP1,1,A*%
%TO.N,Net-(D1-DRIVE_SELECT_1)*%
X126775000Y-56550000D03*
D17*
%TO.P,JP1,2,C*%
%TO.N,D2.4*%
X124235000Y-56550000D03*
%TO.P,JP1,3,B*%
%TO.N,Net-(D1-DRIVE_SELECT_0)*%
X121695000Y-56550000D03*
%TD*%
D11*
%TO.P,R6,1*%
%TO.N,Net-(J2-CLK)*%
X143160000Y-100666700D03*
D12*
%TO.P,R6,2*%
%TO.N,SCK*%
X133000000Y-100666700D03*
%TD*%
D11*
%TO.P,C1,1*%
%TO.N,+5V*%
X133985000Y-72477000D03*
%TO.P,C1,2*%
%TO.N,GND*%
X133985000Y-67477000D03*
%TD*%
D15*
%TO.P,D2,1,D1*%
%TO.N,D2.1*%
X187579000Y-75184000D03*
D12*
%TO.P,D2,2*%
%TO.N,Net-(D2-D2)*%
X187579000Y-77724000D03*
%TO.P,D2,3,D2*%
X187579000Y-80264000D03*
%TO.P,D2,4,E*%
%TO.N,D2.4*%
X187579000Y-82804000D03*
%TO.P,D2,5*%
%TO.N,TX*%
X187579000Y-85344000D03*
%TO.P,D2,6,D3*%
%TO.N,unconnected-(D2-D3-Pad6)*%
X187579000Y-87884000D03*
%TO.P,D2,7*%
%TO.N,unconnected-(D2-Pad7)*%
X187579000Y-90424000D03*
%TO.P,D2,8,GND*%
%TO.N,GND*%
X187579000Y-92964000D03*
%TO.P,D2,9*%
%TO.N,unconnected-(D2-Pad9)*%
X195199000Y-92964000D03*
%TO.P,D2,10,D4*%
%TO.N,unconnected-(D2-D4-Pad10)*%
X195199000Y-90424000D03*
%TO.P,D2,11*%
%TO.N,unconnected-(D2-Pad11)*%
X195199000Y-87884000D03*
%TO.P,D2,12,C*%
%TO.N,GND*%
X195199000Y-85344000D03*
%TO.P,D2,13,D5*%
%TO.N,unconnected-(D2-D5-Pad13)*%
X195199000Y-82804000D03*
%TO.P,D2,14*%
%TO.N,unconnected-(D2-Pad14)*%
X195199000Y-80264000D03*
%TO.P,D2,15,D6*%
%TO.N,unconnected-(D2-D6-Pad15)*%
X195199000Y-77724000D03*
%TO.P,D2,16,VDD*%
%TO.N,+5V*%
X195199000Y-75184000D03*
%TD*%
D18*
%TO.P,SW2,1,1*%
%TO.N,Net-(U1-A1{slash}D15)*%
X205000000Y-78450000D03*
X198500000Y-78450000D03*
%TO.P,SW2,2,2*%
%TO.N,GND*%
X205000000Y-82950000D03*
X198500000Y-82950000D03*
%TD*%
%TO.P,SW3,1,1*%
%TO.N,Net-(U1-A2{slash}D16)*%
X205000000Y-91650000D03*
X198500000Y-91650000D03*
%TO.P,SW3,2,2*%
%TO.N,GND*%
X205000000Y-96150000D03*
X198500000Y-96150000D03*
%TD*%
%TO.P,SW1,1,1*%
%TO.N,Net-(U1-A3{slash}D17)*%
X205000000Y-65250000D03*
X198500000Y-65250000D03*
%TO.P,SW1,2,2*%
%TO.N,GND*%
X205000000Y-69750000D03*
X198500000Y-69750000D03*
%TD*%
D19*
%TO.N,A0*%
X116459000Y-87376000D03*
%TO.N,SDA*%
X138811000Y-82169000D03*
%TO.N,Net-(J2-CD{slash}DAT3)*%
X168529000Y-80010000D03*
%TO.N,SCL*%
X174625000Y-78410200D03*
%TO.N,Net-(J2-CMD)*%
X165989000Y-80010000D03*
%TO.N,Net-(J2-CLK)*%
X158496000Y-80518000D03*
%TO.N,Net-(U1-A3{slash}D17)*%
X181566850Y-79077850D03*
%TO.N,Net-(U1-A1{slash}D15)*%
X148209000Y-100330000D03*
%TD*%
D20*
%TO.N,GND*%
X132207000Y-82931000D02*
X130556000Y-81280000D01*
X130556000Y-69571000D02*
X130175000Y-69190000D01*
X134747000Y-84201000D02*
X133477000Y-82931000D01*
X130556000Y-81280000D02*
X130556000Y-69571000D01*
X206756000Y-81194000D02*
X205000000Y-82950000D01*
X105340000Y-74270000D02*
X111248100Y-74270000D01*
X105340000Y-70245800D02*
X105340000Y-72785800D01*
X187579000Y-92964000D02*
X188830900Y-92964000D01*
X105340000Y-67705800D02*
X105340000Y-70245800D01*
X195199000Y-85344000D02*
X196450900Y-85344000D01*
X188830900Y-92964000D02*
X191243900Y-95377000D01*
X105340000Y-85485800D02*
X105340000Y-88025800D01*
X206756000Y-71506000D02*
X206756000Y-81194000D01*
X205000000Y-69750000D02*
X206756000Y-71506000D01*
X105340000Y-93105800D02*
X105340000Y-95645800D01*
X198500000Y-96150000D02*
X198500000Y-93979000D01*
X186801900Y-59550000D02*
X197001900Y-69750000D01*
X105340000Y-80405800D02*
X105340000Y-82945800D01*
X105340000Y-77865800D02*
X105340000Y-80405800D01*
X134747000Y-89701100D02*
X134747000Y-84201000D01*
X198500000Y-93979000D02*
X196596000Y-92075000D01*
X105340000Y-100725800D02*
X105340000Y-103265800D01*
X127740000Y-69190000D02*
X128991900Y-69190000D01*
X133985000Y-69190000D02*
X130175000Y-69190000D01*
X105340000Y-95645800D02*
X105340000Y-98185800D01*
X105340000Y-74270000D02*
X105340000Y-75325800D01*
X105340000Y-75325800D02*
X105340000Y-77865800D01*
X143160000Y-80750000D02*
X143160000Y-79498100D01*
X196596000Y-84854000D02*
X198500000Y-82950000D01*
X185500000Y-59550000D02*
X186801900Y-59550000D01*
X105340000Y-72785800D02*
X105340000Y-74270000D01*
X133985000Y-70452800D02*
X133985000Y-69190000D01*
X105340000Y-62625800D02*
X105340000Y-65165800D01*
X191243900Y-95377000D02*
X198246000Y-95377000D01*
X105340000Y-88025800D02*
X105340000Y-90565800D01*
X105340000Y-98185800D02*
X105340000Y-100725800D01*
X143160000Y-79498100D02*
X143030300Y-79498100D01*
X197001900Y-69750000D02*
X198500000Y-69750000D01*
X105340000Y-82945800D02*
X105340000Y-85485800D01*
X133985000Y-69190000D02*
X133985000Y-67477000D01*
X133000000Y-92700000D02*
X133000000Y-91448100D01*
X198500000Y-95123000D02*
X198500000Y-96150000D01*
X112500000Y-74270000D02*
X111248100Y-74270000D01*
X130175000Y-69190000D02*
X128991900Y-69190000D01*
X196596000Y-92075000D02*
X196596000Y-84854000D01*
X198246000Y-95377000D02*
X198500000Y-95123000D01*
X137742700Y-74210500D02*
X133985000Y-70452800D01*
X133000000Y-91448100D02*
X134747000Y-89701100D01*
X143030300Y-79498100D02*
X137742700Y-74210500D01*
X133477000Y-82931000D02*
X132207000Y-82931000D01*
%TO.N,+5V*%
X195199000Y-75184000D02*
X198247000Y-75184000D01*
X202692000Y-96595500D02*
X197462500Y-101825000D01*
X202692000Y-79629000D02*
X202692000Y-96595500D01*
X198247000Y-75184000D02*
X202692000Y-79629000D01*
D21*
%TO.N,Net-(D1-DRIVE_SELECT_0)*%
X104070000Y-91835800D02*
X102800000Y-93105800D01*
X112175400Y-83160000D02*
X108592300Y-86743100D01*
X108592300Y-86743100D02*
X108592300Y-89050100D01*
X105806600Y-91835800D02*
X104070000Y-91835800D01*
X121695000Y-74340400D02*
X112875400Y-83160000D01*
X121695000Y-56550000D02*
X121695000Y-74340400D01*
X112875400Y-83160000D02*
X112175400Y-83160000D01*
X108592300Y-89050100D02*
X105806600Y-91835800D01*
%TO.N,Net-(D1-DRIVE_SELECT_1)*%
X105582600Y-60706000D02*
X102235000Y-60706000D01*
X101346000Y-89111800D02*
X102800000Y-90565800D01*
X126775000Y-56550000D02*
X126775000Y-56036000D01*
X102235000Y-60706000D02*
X101346000Y-61595000D01*
X101346000Y-61595000D02*
X101346000Y-89111800D01*
X126775000Y-56036000D02*
X125730000Y-54991000D01*
X125730000Y-54991000D02*
X111297600Y-54991000D01*
X111297600Y-54991000D02*
X105582600Y-60706000D01*
%TO.N,A0*%
X121514000Y-94590000D02*
X127740000Y-94590000D01*
X116459000Y-87376000D02*
X116459000Y-89535000D01*
X116459000Y-89535000D02*
X121514000Y-94590000D01*
%TO.N,TX*%
X192309400Y-98425000D02*
X192654000Y-98425000D01*
X190625200Y-96740800D02*
X192309400Y-98425000D01*
X186055000Y-93049300D02*
X189746500Y-96740800D01*
X187579000Y-85344000D02*
X186055000Y-86868000D01*
X186055000Y-86868000D02*
X186055000Y-93049300D01*
X189746500Y-96740800D02*
X190625200Y-96740800D01*
%TO.N,RX*%
X108618900Y-66435800D02*
X104070000Y-66435800D01*
X104070000Y-66435800D02*
X102800000Y-65165800D01*
X111373100Y-69190000D02*
X108618900Y-66435800D01*
X112500000Y-69190000D02*
X111373100Y-69190000D01*
%TO.N,SDA*%
X138811000Y-82169000D02*
X143933800Y-82169000D01*
X184077200Y-66620800D02*
X185500000Y-65198000D01*
X150260900Y-75841900D02*
X182725000Y-75841900D01*
X182725000Y-75841900D02*
X184077200Y-74489700D01*
X184077200Y-74489700D02*
X184077200Y-66620800D01*
X185500000Y-65198000D02*
X185500000Y-64630000D01*
X143933800Y-82169000D02*
X150260900Y-75841900D01*
%TO.N,Net-(J2-CD{slash}DAT3)*%
X143196300Y-96647000D02*
X143160000Y-96683300D01*
X164792800Y-85798800D02*
X153944600Y-96647000D01*
X145034000Y-102776000D02*
X145034000Y-96683300D01*
X145034000Y-96683300D02*
X143160000Y-96683300D01*
X164792800Y-85798800D02*
X168529000Y-82062600D01*
X143160000Y-104650000D02*
X145034000Y-102776000D01*
X153944600Y-96647000D02*
X143196300Y-96647000D01*
X168529000Y-82062600D02*
X168529000Y-80010000D01*
%TO.N,MISO*%
X143160000Y-84733300D02*
X143160000Y-85860200D01*
X141732000Y-97006900D02*
X144399000Y-99673900D01*
X142367000Y-103505000D02*
X114921900Y-103505000D01*
X114921900Y-103505000D02*
X113626900Y-102210000D01*
X144399000Y-99673900D02*
X144399000Y-101473000D01*
X141732000Y-87288200D02*
X141732000Y-97006900D01*
X113626900Y-102210000D02*
X112500000Y-102210000D01*
X144399000Y-101473000D02*
X142367000Y-103505000D01*
X143160000Y-85860200D02*
X141732000Y-87288200D01*
%TO.N,SCL*%
X185500000Y-73961000D02*
X185500000Y-67170000D01*
X174625000Y-78410200D02*
X181050800Y-78410200D01*
X181050800Y-78410200D02*
X185500000Y-73961000D01*
%TO.N,Net-(J2-CMD)*%
X143160000Y-88716700D02*
X160584300Y-88716700D01*
X143160000Y-92700000D02*
X143160000Y-88716700D01*
X165989000Y-80010000D02*
X165989000Y-79883000D01*
X160584300Y-88716700D02*
X165989000Y-83312000D01*
X165989000Y-83312000D02*
X165989000Y-80010000D01*
%TO.N,Net-(J2-CLK)*%
X135689000Y-83439000D02*
X133000000Y-80750000D01*
X154747900Y-83439000D02*
X135689000Y-83439000D01*
X158496000Y-80518000D02*
X157668900Y-80518000D01*
X157668900Y-80518000D02*
X154747900Y-83439000D01*
X140970000Y-83439000D02*
X140970000Y-98476700D01*
X140970000Y-98476700D02*
X143160000Y-100666700D01*
%TO.N,Net-(U1-A3{slash}D17)*%
X199191100Y-65941100D02*
X199882200Y-65941100D01*
X198500000Y-65250000D02*
X199191100Y-65941100D01*
X181566850Y-79077850D02*
X186934500Y-73710200D01*
X200152000Y-70612000D02*
X200152000Y-65941100D01*
X204308900Y-65941100D02*
X205000000Y-65250000D01*
X199882200Y-65941100D02*
X204308900Y-65941100D01*
X186934500Y-73710200D02*
X197053800Y-73710200D01*
X197053800Y-73710200D02*
X200152000Y-70612000D01*
%TO.N,Net-(U1-A1{slash}D15)*%
X198500000Y-78450000D02*
X200533000Y-80483000D01*
X200533000Y-97282000D02*
X200468249Y-97282000D01*
X200533000Y-80483000D02*
X200533000Y-97282000D01*
X197420249Y-100330000D02*
X148209000Y-100330000D01*
X200468249Y-97282000D02*
X197420249Y-100330000D01*
%TO.N,D2.1*%
X185420000Y-93472000D02*
X190114000Y-98166000D01*
X185420000Y-77343000D02*
X185420000Y-93472000D01*
X190114000Y-98166000D02*
X190114000Y-98425000D01*
X187579000Y-75184000D02*
X185420000Y-77343000D01*
%TO.N,3.3V*%
X131293100Y-86440200D02*
X133000000Y-84733300D01*
X127740000Y-99082000D02*
X130279100Y-96542900D01*
X130279100Y-91716900D02*
X131293100Y-90702900D01*
X131293100Y-90702900D02*
X131293100Y-86440200D01*
X130279100Y-96542900D02*
X130279100Y-91716900D01*
X127740000Y-99670000D02*
X127740000Y-99082000D01*
%TO.N,MOSI*%
X113626900Y-99670000D02*
X114921900Y-100965000D01*
X114921900Y-100965000D02*
X128524000Y-100965000D01*
X131191000Y-98298000D02*
X131191000Y-91652600D01*
X112500000Y-99670000D02*
X113626900Y-99670000D01*
X128524000Y-100965000D02*
X131191000Y-98298000D01*
X133000000Y-89843600D02*
X133000000Y-88716700D01*
X131191000Y-91652600D02*
X133000000Y-89843600D01*
%TO.N,Net-(D2-D2)*%
X187579000Y-80264000D02*
X187579000Y-77724000D01*
%TO.N,D2.4*%
X124235000Y-56550000D02*
X124235000Y-77441000D01*
X124235000Y-77441000D02*
X112500000Y-89176000D01*
X112500000Y-89176000D02*
X112500000Y-89510000D01*
%TD*%
M02*
