%TF.GenerationSoftware,KiCad,Pcbnew,9.0.0*%
%TF.CreationDate,2025-03-11T00:37:20+03:00*%
%TF.ProjectId,delta_flop_arduino2,64656c74-615f-4666-9c6f-705f61726475,1*%
%TF.SameCoordinates,Original*%
%TF.FileFunction,Copper,L1,Top*%
%TF.FilePolarity,Positive*%
%FSLAX46Y46*%
G04 Gerber Fmt 4.6, Leading zero omitted, Abs format (unit mm)*
G04 Created by KiCad (PCBNEW 9.0.0) date 2025-03-11 00:37:20*
%MOMM*%
%LPD*%
G01*
G04 APERTURE LIST*
G04 Aperture macros list*
%AMRoundRect*
0 Rectangle with rounded corners*
0 $1 Rounding radius*
0 $2 $3 $4 $5 $6 $7 $8 $9 X,Y pos of 4 corners*
0 Add a 4 corners polygon primitive as box body*
4,1,4,$2,$3,$4,$5,$6,$7,$8,$9,$2,$3,0*
0 Add four circle primitives for the rounded corners*
1,1,$1+$1,$2,$3*
1,1,$1+$1,$4,$5*
1,1,$1+$1,$6,$7*
1,1,$1+$1,$8,$9*
0 Add four rect primitives between the rounded corners*
20,1,$1+$1,$2,$3,$4,$5,0*
20,1,$1+$1,$4,$5,$6,$7,0*
20,1,$1+$1,$6,$7,$8,$9,0*
20,1,$1+$1,$8,$9,$2,$3,0*%
G04 Aperture macros list end*
%TA.AperFunction,ComponentPad*%
%ADD10C,1.524000*%
%TD*%
%TA.AperFunction,SMDPad,CuDef*%
%ADD11R,0.900000X1.800000*%
%TD*%
%TA.AperFunction,SMDPad,CuDef*%
%ADD12R,1.100000X1.800000*%
%TD*%
%TA.AperFunction,SMDPad,CuDef*%
%ADD13R,1.400000X2.000000*%
%TD*%
%TA.AperFunction,ComponentPad*%
%ADD14C,1.600000*%
%TD*%
%TA.AperFunction,ComponentPad*%
%ADD15O,1.600000X1.600000*%
%TD*%
%TA.AperFunction,ComponentPad*%
%ADD16RoundRect,0.250000X0.600000X0.600000X-0.600000X0.600000X-0.600000X-0.600000X0.600000X-0.600000X0*%
%TD*%
%TA.AperFunction,ComponentPad*%
%ADD17C,1.700000*%
%TD*%
%TA.AperFunction,ComponentPad*%
%ADD18R,1.600000X1.600000*%
%TD*%
%TA.AperFunction,ComponentPad*%
%ADD19R,1.700000X1.700000*%
%TD*%
%TA.AperFunction,ComponentPad*%
%ADD20O,1.700000X1.700000*%
%TD*%
%TA.AperFunction,ComponentPad*%
%ADD21C,2.000000*%
%TD*%
%TA.AperFunction,ViaPad*%
%ADD22C,0.800000*%
%TD*%
%TA.AperFunction,Conductor*%
%ADD23C,0.500000*%
%TD*%
%TA.AperFunction,Conductor*%
%ADD24C,0.250000*%
%TD*%
G04 APERTURE END LIST*
D10*
%TO.P,J3,1,Pin_1*%
%TO.N,+5V*%
X197462500Y-101825000D03*
%TO.P,J3,2,Pin_2*%
%TO.N,unconnected-(J3-Pin_2-Pad2)*%
X200002500Y-101825000D03*
%TO.P,J3,3,Pin_3*%
%TO.N,unconnected-(J3-Pin_3-Pad3)*%
X202542500Y-101825000D03*
%TO.P,J3,4,Pin_4*%
%TO.N,GND*%
X205082500Y-101825000D03*
%TD*%
D11*
%TO.P,J2,1,CD/DAT3*%
%TO.N,Net-(J2-CD{slash}DAT3)*%
X168441000Y-82067200D03*
%TO.P,J2,2,CMD*%
%TO.N,Net-(J2-CMD)*%
X165941000Y-82067200D03*
%TO.P,J2,3,VSS*%
%TO.N,GND*%
X164191000Y-82067200D03*
%TO.P,J2,4,VDD*%
%TO.N,3.3V*%
X160941000Y-82067200D03*
%TO.P,J2,5,CLK*%
%TO.N,Net-(J2-CLK)*%
X158441000Y-82067200D03*
%TO.P,J2,6,VSS*%
%TO.N,GND*%
X155941000Y-82067200D03*
%TO.P,J2,7,DAT0*%
%TO.N,MISO*%
X153521000Y-82067200D03*
%TO.P,J2,8,DAT1*%
%TO.N,unconnected-(J2-DAT1-Pad8)*%
X151821000Y-82067200D03*
%TO.P,J2,9,DAT2*%
%TO.N,unconnected-(J2-DAT2-Pad9)*%
X170941000Y-82067200D03*
%TO.P,J2,10,CARD_DETECT*%
%TO.N,unconnected-(J2-CARD_DETECT-Pad10)*%
X162691000Y-82067200D03*
D12*
%TO.P,J2,11,WRITE_PROTECT*%
%TO.N,unconnected-(J2-WRITE_PROTECT-Pad11)*%
X148671000Y-82067200D03*
D13*
%TO.P,J2,12,SHELL1*%
%TO.N,unconnected-(J2-SHELL1-Pad12)*%
X176421000Y-103067200D03*
%TO.P,J2,13,SHELL2*%
%TO.N,unconnected-(J2-SHELL2-Pad13)*%
X146921000Y-104217200D03*
%TD*%
D14*
%TO.P,R3,1*%
%TO.N,Net-(J2-CMD)*%
X143160000Y-88716700D03*
D15*
%TO.P,R3,2*%
%TO.N,MOSI*%
X133000000Y-88716700D03*
%TD*%
D14*
%TO.P,R4,1*%
%TO.N,Net-(J2-CMD)*%
X143160000Y-92700000D03*
D15*
%TO.P,R4,2*%
%TO.N,GND*%
X133000000Y-92700000D03*
%TD*%
D16*
%TO.P,D1,1,GND*%
%TO.N,GND*%
X105340000Y-103265800D03*
D17*
%TO.P,D1,2,DENSITY_SELECT*%
%TO.N,unconnected-(D1-DENSITY_SELECT-Pad2)*%
X102800000Y-103265800D03*
%TO.P,D1,3,GND*%
%TO.N,GND*%
X105340000Y-100725800D03*
%TO.P,D1,4,N/C*%
%TO.N,unconnected-(D1-N{slash}C-Pad4)*%
X102800000Y-100725800D03*
%TO.P,D1,5,GND*%
%TO.N,GND*%
X105340000Y-98185800D03*
%TO.P,D1,6,N/C*%
%TO.N,unconnected-(D1-N{slash}C-Pad6)*%
X102800000Y-98185800D03*
%TO.P,D1,7,GND*%
%TO.N,GND*%
X105340000Y-95645800D03*
%TO.P,D1,8,INDEX*%
%TO.N,D9*%
X102800000Y-95645800D03*
%TO.P,D1,9,GND*%
%TO.N,GND*%
X105340000Y-93105800D03*
%TO.P,D1,10,DRIVE_SELECT_0*%
%TO.N,Net-(D1-DRIVE_SELECT_0)*%
X102800000Y-93105800D03*
%TO.P,D1,11,GND*%
%TO.N,GND*%
X105340000Y-90565800D03*
%TO.P,D1,12,DRIVE_SELECT_1*%
%TO.N,Net-(D1-DRIVE_SELECT_1)*%
X102800000Y-90565800D03*
%TO.P,D1,13,GND*%
%TO.N,GND*%
X105340000Y-88025800D03*
%TO.P,D1,14,DRIVE_SELECT_2*%
%TO.N,unconnected-(D1-DRIVE_SELECT_2-Pad14)*%
X102800000Y-88025800D03*
%TO.P,D1,15,GND*%
%TO.N,GND*%
X105340000Y-85485800D03*
%TO.P,D1,16,MOTOR*%
%TO.N,D6*%
X102800000Y-85485800D03*
%TO.P,D1,17,GND*%
%TO.N,GND*%
X105340000Y-82945800D03*
%TO.P,D1,18,DIRECTION*%
%TO.N,D5*%
X102800000Y-82945800D03*
%TO.P,D1,19,GND*%
%TO.N,GND*%
X105340000Y-80405800D03*
%TO.P,D1,20,STEP*%
%TO.N,D4*%
X102800000Y-80405800D03*
%TO.P,D1,21,GND*%
%TO.N,GND*%
X105340000Y-77865800D03*
%TO.P,D1,22,WRITE_DATA*%
%TO.N,D8*%
X102800000Y-77865800D03*
%TO.P,D1,23,GND*%
%TO.N,GND*%
X105340000Y-75325800D03*
%TO.P,D1,24,WRITE_GATE*%
%TO.N,A0*%
X102800000Y-75325800D03*
%TO.P,D1,25,GND*%
%TO.N,GND*%
X105340000Y-72785800D03*
%TO.P,D1,26,TRACK*%
%TO.N,D3*%
X102800000Y-72785800D03*
%TO.P,D1,27,GND*%
%TO.N,GND*%
X105340000Y-70245800D03*
%TO.P,D1,28,WRITE_PROTECT*%
%TO.N,D2*%
X102800000Y-70245800D03*
%TO.P,D1,29,GND*%
%TO.N,GND*%
X105340000Y-67705800D03*
%TO.P,D1,30,READ_DATA*%
%TO.N,TX*%
X102800000Y-67705800D03*
%TO.P,D1,31,GND*%
%TO.N,GND*%
X105340000Y-65165800D03*
%TO.P,D1,32,HEAD_SELECT*%
%TO.N,RX*%
X102800000Y-65165800D03*
%TO.P,D1,33,GND*%
%TO.N,GND*%
X105340000Y-62625800D03*
%TO.P,D1,34,DISK_CHANGE*%
%TO.N,unconnected-(D1-DISK_CHANGE-Pad34)*%
X102800000Y-62625800D03*
%TD*%
D18*
%TO.P,U1,1,D1/TX*%
%TO.N,D2.1*%
X112500000Y-66650000D03*
D15*
%TO.P,U1,2,D0/RX*%
%TO.N,RX*%
X112500000Y-69190000D03*
%TO.P,U1,3,~{RESET}*%
%TO.N,unconnected-(U1-~{RESET}-Pad3)*%
X112500000Y-71730000D03*
%TO.P,U1,4,GND*%
%TO.N,GND*%
X112500000Y-74270000D03*
%TO.P,U1,5,D2*%
%TO.N,D2*%
X112500000Y-76810000D03*
%TO.P,U1,6,~D3*%
%TO.N,D3*%
X112500000Y-79350000D03*
%TO.P,U1,7,D4*%
%TO.N,D4*%
X112500000Y-81890000D03*
%TO.P,U1,8,~D5*%
%TO.N,D5*%
X112500000Y-84430000D03*
%TO.P,U1,9,~D6*%
%TO.N,D6*%
X112500000Y-86970000D03*
%TO.P,U1,10,D7*%
%TO.N,D2.4*%
X112500000Y-89510000D03*
%TO.P,U1,11,D8*%
%TO.N,D8*%
X112500000Y-92050000D03*
%TO.P,U1,12,~D9*%
%TO.N,D9*%
X112500000Y-94590000D03*
%TO.P,U1,13,~D10*%
%TO.N,D10*%
X112500000Y-97130000D03*
%TO.P,U1,14,~D11*%
%TO.N,MOSI*%
X112500000Y-99670000D03*
%TO.P,U1,15,D12*%
%TO.N,MISO*%
X112500000Y-102210000D03*
%TO.P,U1,16,D13*%
%TO.N,SCK*%
X127740000Y-102210000D03*
%TO.P,U1,17,3V3*%
%TO.N,3.3V*%
X127740000Y-99670000D03*
%TO.P,U1,18,AREF*%
%TO.N,unconnected-(U1-AREF-Pad18)*%
X127740000Y-97130000D03*
%TO.P,U1,19,A0/D14*%
%TO.N,A0*%
X127740000Y-94590000D03*
%TO.P,U1,20,A1/D15*%
%TO.N,Net-(U1-A1{slash}D15)*%
X127740000Y-92050000D03*
%TO.P,U1,21,A2/D16*%
%TO.N,Net-(U1-A2{slash}D16)*%
X127740000Y-89510000D03*
%TO.P,U1,22,A3/D17*%
%TO.N,Net-(U1-A3{slash}D17)*%
X127740000Y-86970000D03*
%TO.P,U1,23,A4/D18*%
%TO.N,SDA*%
X127740000Y-84430000D03*
%TO.P,U1,24,A5/D19*%
%TO.N,SCL*%
X127740000Y-81890000D03*
%TO.P,U1,25,A6/D20*%
%TO.N,unconnected-(U1-A6{slash}D20-Pad25)*%
X127740000Y-79350000D03*
%TO.P,U1,26,A7/D21*%
%TO.N,unconnected-(U1-A7{slash}D21-Pad26)*%
X127740000Y-76810000D03*
%TO.P,U1,27,+5V*%
%TO.N,+5V*%
X127740000Y-74270000D03*
%TO.P,U1,28,~{RESET}*%
%TO.N,unconnected-(U1-~{RESET}-Pad28)*%
X127740000Y-71730000D03*
%TO.P,U1,29,GND*%
%TO.N,GND*%
X127740000Y-69190000D03*
%TO.P,U1,30,VIN*%
%TO.N,unconnected-(U1-VIN-Pad30)*%
X127740000Y-66650000D03*
%TD*%
D14*
%TO.P,R2,1*%
%TO.N,3.3V*%
X133000000Y-84733300D03*
D15*
%TO.P,R2,2*%
%TO.N,MISO*%
X143160000Y-84733300D03*
%TD*%
D14*
%TO.P,R5,1*%
%TO.N,Net-(J2-CD{slash}DAT3)*%
X143160000Y-96683300D03*
D15*
%TO.P,R5,2*%
%TO.N,GND*%
X133000000Y-96683300D03*
%TD*%
D14*
%TO.P,R1,1*%
%TO.N,Net-(J2-CLK)*%
X133000000Y-80750000D03*
D15*
%TO.P,R1,2*%
%TO.N,GND*%
X143160000Y-80750000D03*
%TD*%
D19*
%TO.P,J1,1,Pin_1*%
%TO.N,GND*%
X185500000Y-59550000D03*
D20*
%TO.P,J1,2,Pin_2*%
%TO.N,+5V*%
X185500000Y-62090000D03*
%TO.P,J1,3,Pin_3*%
%TO.N,SDA*%
X185500000Y-64630000D03*
%TO.P,J1,4,Pin_4*%
%TO.N,SCL*%
X185500000Y-67170000D03*
%TD*%
D14*
%TO.P,R7,1*%
%TO.N,Net-(J2-CD{slash}DAT3)*%
X143160000Y-104650000D03*
D15*
%TO.P,R7,2*%
%TO.N,D10*%
X133000000Y-104650000D03*
%TD*%
D19*
%TO.P,JP2,1,A*%
%TO.N,D2.1*%
X190114000Y-98425000D03*
D20*
%TO.P,JP2,2,B*%
%TO.N,TX*%
X192654000Y-98425000D03*
%TD*%
D19*
%TO.P,JP1,1,A*%
%TO.N,Net-(D1-DRIVE_SELECT_1)*%
X126775000Y-56550000D03*
D20*
%TO.P,JP1,2,C*%
%TO.N,D2.4*%
X124235000Y-56550000D03*
%TO.P,JP1,3,B*%
%TO.N,Net-(D1-DRIVE_SELECT_0)*%
X121695000Y-56550000D03*
%TD*%
D14*
%TO.P,R6,1*%
%TO.N,Net-(J2-CLK)*%
X143160000Y-100666700D03*
D15*
%TO.P,R6,2*%
%TO.N,SCK*%
X133000000Y-100666700D03*
%TD*%
D14*
%TO.P,C1,1*%
%TO.N,+5V*%
X133985000Y-72477000D03*
%TO.P,C1,2*%
%TO.N,GND*%
X133985000Y-67477000D03*
%TD*%
D18*
%TO.P,D2,1,D1*%
%TO.N,D2.1*%
X187579000Y-75184000D03*
D15*
%TO.P,D2,2*%
%TO.N,Net-(D2-D2)*%
X187579000Y-77724000D03*
%TO.P,D2,3,D2*%
X187579000Y-80264000D03*
%TO.P,D2,4,E*%
%TO.N,D2.4*%
X187579000Y-82804000D03*
%TO.P,D2,5*%
%TO.N,TX*%
X187579000Y-85344000D03*
%TO.P,D2,6,D3*%
%TO.N,unconnected-(D2-D3-Pad6)*%
X187579000Y-87884000D03*
%TO.P,D2,7*%
%TO.N,unconnected-(D2-Pad7)*%
X187579000Y-90424000D03*
%TO.P,D2,8,GND*%
%TO.N,GND*%
X187579000Y-92964000D03*
%TO.P,D2,9*%
%TO.N,unconnected-(D2-Pad9)*%
X195199000Y-92964000D03*
%TO.P,D2,10,D4*%
%TO.N,unconnected-(D2-D4-Pad10)*%
X195199000Y-90424000D03*
%TO.P,D2,11*%
%TO.N,unconnected-(D2-Pad11)*%
X195199000Y-87884000D03*
%TO.P,D2,12,C*%
%TO.N,GND*%
X195199000Y-85344000D03*
%TO.P,D2,13,D5*%
%TO.N,unconnected-(D2-D5-Pad13)*%
X195199000Y-82804000D03*
%TO.P,D2,14*%
%TO.N,unconnected-(D2-Pad14)*%
X195199000Y-80264000D03*
%TO.P,D2,15,D6*%
%TO.N,unconnected-(D2-D6-Pad15)*%
X195199000Y-77724000D03*
%TO.P,D2,16,VDD*%
%TO.N,+5V*%
X195199000Y-75184000D03*
%TD*%
D21*
%TO.P,SW2,1,1*%
%TO.N,Net-(U1-A1{slash}D15)*%
X205000000Y-78450000D03*
X198500000Y-78450000D03*
%TO.P,SW2,2,2*%
%TO.N,GND*%
X205000000Y-82950000D03*
X198500000Y-82950000D03*
%TD*%
%TO.P,SW3,1,1*%
%TO.N,Net-(U1-A2{slash}D16)*%
X205000000Y-91650000D03*
X198500000Y-91650000D03*
%TO.P,SW3,2,2*%
%TO.N,GND*%
X205000000Y-96150000D03*
X198500000Y-96150000D03*
%TD*%
%TO.P,SW1,1,1*%
%TO.N,Net-(U1-A3{slash}D17)*%
X205000000Y-65250000D03*
X198500000Y-65250000D03*
%TO.P,SW1,2,2*%
%TO.N,GND*%
X205000000Y-69750000D03*
X198500000Y-69750000D03*
%TD*%
D22*
%TO.N,A0*%
X116459000Y-87376000D03*
%TO.N,SDA*%
X138811000Y-82169000D03*
%TO.N,Net-(J2-CD{slash}DAT3)*%
X168529000Y-80010000D03*
%TO.N,SCL*%
X174625000Y-78410200D03*
%TO.N,Net-(J2-CMD)*%
X165989000Y-80010000D03*
%TO.N,Net-(J2-CLK)*%
X158496000Y-80518000D03*
%TO.N,Net-(U1-A3{slash}D17)*%
X181566850Y-79077850D03*
%TO.N,Net-(U1-A1{slash}D15)*%
X148209000Y-100330000D03*
%TD*%
D23*
%TO.N,GND*%
X155941000Y-80645000D02*
X155941000Y-82067200D01*
X205000000Y-101742500D02*
X205082500Y-101825000D01*
X105340000Y-65398100D02*
X105340000Y-65165800D01*
X144411900Y-80750000D02*
X144643900Y-80518000D01*
X133000000Y-92700000D02*
X133000000Y-96683300D01*
X105340000Y-65398100D02*
X105714100Y-65024000D01*
X205000000Y-96150000D02*
X205000000Y-101742500D01*
X122322100Y-65024000D02*
X126488100Y-69190000D01*
X205000000Y-82950000D02*
X198500000Y-82950000D01*
X133000000Y-94615000D02*
X184676100Y-94615000D01*
X143160000Y-80750000D02*
X144411900Y-80750000D01*
X105340000Y-67705800D02*
X105340000Y-65398100D01*
X105340000Y-90565800D02*
X105340000Y-93105800D01*
X126488100Y-69190000D02*
X127740000Y-69190000D01*
X164191000Y-83947000D02*
X164191000Y-82067200D01*
X105714100Y-65024000D02*
X122322100Y-65024000D01*
X186327100Y-92964000D02*
X187579000Y-92964000D01*
X144643900Y-80518000D02*
X155814000Y-80518000D01*
X155941000Y-82067200D02*
X155941000Y-83551000D01*
X155814000Y-80518000D02*
X155941000Y-80645000D01*
X155941000Y-83551000D02*
X156337000Y-83947000D01*
X156337000Y-83947000D02*
X164191000Y-83947000D01*
X198500000Y-96150000D02*
X205000000Y-96150000D01*
X198500000Y-69750000D02*
X205000000Y-69750000D01*
X184676100Y-94615000D02*
X186327100Y-92964000D01*
%TO.N,+5V*%
X190340500Y-76454000D02*
X136466500Y-76454000D01*
X191610500Y-75184000D02*
X190340500Y-76454000D01*
X136466500Y-76454000D02*
X136387100Y-76374600D01*
X133985000Y-73972500D02*
X133985000Y-72477000D01*
X191610500Y-67806400D02*
X191610500Y-75184000D01*
X133985000Y-73972500D02*
X133687500Y-74270000D01*
X195199000Y-75184000D02*
X194072100Y-75184000D01*
X133687500Y-74270000D02*
X127740000Y-74270000D01*
X194072100Y-75184000D02*
X191610500Y-75184000D01*
X185500000Y-62090000D02*
X185894100Y-62090000D01*
X136387100Y-76374600D02*
X133985000Y-73972500D01*
X185894100Y-62090000D02*
X191610500Y-67806400D01*
D24*
%TO.N,D9*%
X112339300Y-94429300D02*
X104016500Y-94429300D01*
X112500000Y-94590000D02*
X112339300Y-94429300D01*
X104016500Y-94429300D02*
X102800000Y-95645800D01*
%TO.N,D6*%
X112285800Y-86755800D02*
X104070000Y-86755800D01*
X112500000Y-86970000D02*
X112285800Y-86755800D01*
X104070000Y-86755800D02*
X102800000Y-85485800D01*
%TO.N,D5*%
X112285800Y-84215800D02*
X104070000Y-84215800D01*
X104070000Y-84215800D02*
X102800000Y-82945800D01*
X112500000Y-84430000D02*
X112285800Y-84215800D01*
%TO.N,D4*%
X112285800Y-81675800D02*
X104070000Y-81675800D01*
X112500000Y-81890000D02*
X112285800Y-81675800D01*
X104070000Y-81675800D02*
X102800000Y-80405800D01*
%TO.N,D8*%
X101346000Y-88519000D02*
X101346000Y-79319800D01*
X108618900Y-89295800D02*
X102122800Y-89295800D01*
X102122800Y-89295800D02*
X101346000Y-88519000D01*
X101346000Y-79319800D02*
X102800000Y-77865800D01*
X111373100Y-92050000D02*
X108618900Y-89295800D01*
X112500000Y-92050000D02*
X111373100Y-92050000D01*
%TO.N,A0*%
X110338000Y-80620000D02*
X113386000Y-80620000D01*
X113919000Y-81153000D02*
X113919000Y-84709000D01*
X106263600Y-76545600D02*
X110338000Y-80620000D01*
X113919000Y-84709000D02*
X116459000Y-87376000D01*
X104019800Y-76545600D02*
X106263600Y-76545600D01*
X116459000Y-87376000D02*
X116459000Y-87249000D01*
X113386000Y-80620000D02*
X113919000Y-81153000D01*
X102800000Y-75325800D02*
X104019800Y-76545600D01*
%TO.N,D3*%
X104070000Y-74055800D02*
X102800000Y-72785800D01*
X112500000Y-79350000D02*
X111373100Y-79350000D01*
X106078900Y-74055800D02*
X104070000Y-74055800D01*
X111373100Y-79350000D02*
X106078900Y-74055800D01*
%TO.N,D2*%
X102800000Y-70245800D02*
X104071500Y-71517300D01*
X104071500Y-71517300D02*
X106080400Y-71517300D01*
X106080400Y-71517300D02*
X111373100Y-76810000D01*
X112500000Y-76810000D02*
X111373100Y-76810000D01*
%TO.N,TX*%
X104070000Y-68975800D02*
X102800000Y-67705800D01*
X187579000Y-85344000D02*
X188849000Y-84074000D01*
X111693700Y-73000000D02*
X107669500Y-68975800D01*
X132022700Y-77683300D02*
X129879400Y-75540000D01*
X114710200Y-73000000D02*
X111693700Y-73000000D01*
X117250200Y-75540000D02*
X114710200Y-73000000D01*
X185547000Y-81534000D02*
X181696300Y-77683300D01*
X188849000Y-84074000D02*
X188849000Y-82296000D01*
X107669500Y-68975800D02*
X104070000Y-68975800D01*
X188087000Y-81534000D02*
X185547000Y-81534000D01*
X181696300Y-77683300D02*
X132022700Y-77683300D01*
X188849000Y-82296000D02*
X188087000Y-81534000D01*
X129879400Y-75540000D02*
X117250200Y-75540000D01*
%TO.N,SDA*%
X134747000Y-86233000D02*
X138811000Y-82169000D01*
X131953000Y-86233000D02*
X134747000Y-86233000D01*
X130150000Y-84430000D02*
X131953000Y-86233000D01*
X127740000Y-84430000D02*
X130150000Y-84430000D01*
%TO.N,Net-(J2-CD{slash}DAT3)*%
X168529000Y-81979200D02*
X168441000Y-82067200D01*
X168529000Y-80010000D02*
X168529000Y-81979200D01*
%TO.N,MISO*%
X153521000Y-82067200D02*
X153521000Y-83693000D01*
X144286900Y-84733300D02*
X143160000Y-84733300D01*
X153521000Y-83693000D02*
X145327200Y-83693000D01*
X145327200Y-83693000D02*
X144286900Y-84733300D01*
%TO.N,SCL*%
X132346700Y-78410200D02*
X128866900Y-81890000D01*
X128866900Y-81890000D02*
X127740000Y-81890000D01*
X174625000Y-78410200D02*
X132346700Y-78410200D01*
%TO.N,Net-(J2-CMD)*%
X165989000Y-82019200D02*
X165941000Y-82067200D01*
X165989000Y-80010000D02*
X165989000Y-82019200D01*
%TO.N,Net-(J2-CLK)*%
X158496000Y-82012200D02*
X158441000Y-82067200D01*
X158441000Y-82067200D02*
X158441000Y-80840300D01*
X158496000Y-80518000D02*
X158496000Y-82012200D01*
%TO.N,Net-(U1-A2{slash}D16)*%
X205000000Y-91650000D02*
X198500000Y-91650000D01*
X130265200Y-91334600D02*
X143912600Y-91334600D01*
X128440600Y-89510000D02*
X130265200Y-91334600D01*
X144228000Y-91650000D02*
X198500000Y-91650000D01*
X143912600Y-91334600D02*
X144228000Y-91650000D01*
X127740000Y-89510000D02*
X128440600Y-89510000D01*
%TO.N,Net-(U1-A3{slash}D17)*%
X173761000Y-86970000D02*
X127740000Y-86970000D01*
X181566850Y-79077850D02*
X181566850Y-79164150D01*
X181566850Y-79164150D02*
X173761000Y-86970000D01*
%TO.N,Net-(U1-A1{slash}D15)*%
X131699000Y-98679000D02*
X130429000Y-97409000D01*
X198500000Y-78450000D02*
X198500000Y-78868000D01*
X130429000Y-94739000D02*
X127740000Y-92050000D01*
X205000000Y-78450000D02*
X198500000Y-78450000D01*
X146558000Y-98679000D02*
X131699000Y-98679000D01*
X148209000Y-100330000D02*
X146558000Y-98679000D01*
X130429000Y-97409000D02*
X130429000Y-94739000D01*
%TO.N,D2.1*%
X133577600Y-70460000D02*
X117436900Y-70460000D01*
X187276600Y-75486400D02*
X138604000Y-75486400D01*
X117436900Y-70460000D02*
X113626900Y-66650000D01*
X113626900Y-66650000D02*
X112500000Y-66650000D01*
X187579000Y-75184000D02*
X187276600Y-75486400D01*
X138604000Y-75486400D02*
X133577600Y-70460000D01*
%TO.N,3.3V*%
X138125900Y-79607400D02*
X159708100Y-79607400D01*
X133000000Y-84733300D02*
X138125900Y-79607400D01*
X159708100Y-79607400D02*
X160941000Y-80840300D01*
X160941000Y-82067200D02*
X160941000Y-80840300D01*
%TO.N,SCK*%
X130329800Y-102210000D02*
X131873100Y-100666700D01*
X127740000Y-102210000D02*
X130329800Y-102210000D01*
X133000000Y-100666700D02*
X131873100Y-100666700D01*
%TO.N,D10*%
X113626900Y-97130000D02*
X121146900Y-104650000D01*
X121146900Y-104650000D02*
X133000000Y-104650000D01*
X112500000Y-97130000D02*
X113626900Y-97130000D01*
%TO.N,D2.4*%
X187579000Y-82804000D02*
X186452100Y-82804000D01*
X130556000Y-88265000D02*
X114871900Y-88265000D01*
X114871900Y-88265000D02*
X113626900Y-89510000D01*
X186452100Y-82804000D02*
X179213100Y-90043000D01*
X132334000Y-90043000D02*
X130556000Y-88265000D01*
X179213100Y-90043000D02*
X132334000Y-90043000D01*
X113626900Y-89510000D02*
X112500000Y-89510000D01*
%TD*%
M02*
