M48
; DRILL file {KiCad 9.0.0} date 2025-03-11T00:37:23+0300
; FORMAT={-:-/ absolute / metric / decimal}
; #@! TF.CreationDate,2025-03-11T00:37:23+03:00
; #@! TF.GenerationSoftware,Kicad,Pcbnew,9.0.0
; #@! TF.FileFunction,Plated,1,2,PTH
FMAT,2
METRIC
; #@! TA.AperFunction,Plated,PTH,ViaDrill
T1C0.400
; #@! TA.AperFunction,Plated,PTH,ComponentDrill
T2C0.762
; #@! TA.AperFunction,Plated,PTH,ComponentDrill
T3C0.800
; #@! TA.AperFunction,Plated,PTH,ComponentDrill
T4C1.000
; #@! TA.AperFunction,Plated,PTH,ComponentDrill
T5C1.100
%
G90
G05
T1
X116.459Y-87.376
X138.811Y-82.169
X148.209Y-100.33
X158.496Y-80.518
X165.989Y-80.01
X168.529Y-80.01
X174.625Y-78.41
X181.567Y-79.078
T2
X197.462Y-101.825
X200.002Y-101.825
X202.542Y-101.825
X205.082Y-101.825
T3
X112.5Y-66.65
X112.5Y-69.19
X112.5Y-71.73
X112.5Y-74.27
X112.5Y-76.81
X112.5Y-79.35
X112.5Y-81.89
X112.5Y-84.43
X112.5Y-86.97
X112.5Y-89.51
X112.5Y-92.05
X112.5Y-94.59
X112.5Y-97.13
X112.5Y-99.67
X112.5Y-102.21
X127.74Y-66.65
X127.74Y-69.19
X127.74Y-71.73
X127.74Y-74.27
X127.74Y-76.81
X127.74Y-79.35
X127.74Y-81.89
X127.74Y-84.43
X127.74Y-86.97
X127.74Y-89.51
X127.74Y-92.05
X127.74Y-94.59
X127.74Y-97.13
X127.74Y-99.67
X127.74Y-102.21
X133.0Y-80.75
X133.0Y-84.733
X133.0Y-88.717
X133.0Y-92.7
X133.0Y-96.683
X133.0Y-100.667
X133.0Y-104.65
X133.985Y-67.477
X133.985Y-72.477
X143.16Y-80.75
X143.16Y-84.733
X143.16Y-88.717
X143.16Y-92.7
X143.16Y-96.683
X143.16Y-100.667
X143.16Y-104.65
X187.579Y-75.184
X187.579Y-77.724
X187.579Y-80.264
X187.579Y-82.804
X187.579Y-85.344
X187.579Y-87.884
X187.579Y-90.424
X187.579Y-92.964
X195.199Y-75.184
X195.199Y-77.724
X195.199Y-80.264
X195.199Y-82.804
X195.199Y-85.344
X195.199Y-87.884
X195.199Y-90.424
X195.199Y-92.964
T4
X102.8Y-62.626
X102.8Y-65.166
X102.8Y-67.706
X102.8Y-70.246
X102.8Y-72.786
X102.8Y-75.326
X102.8Y-77.866
X102.8Y-80.406
X102.8Y-82.946
X102.8Y-85.486
X102.8Y-88.026
X102.8Y-90.566
X102.8Y-93.106
X102.8Y-95.646
X102.8Y-98.186
X102.8Y-100.726
X102.8Y-103.266
X105.34Y-62.626
X105.34Y-65.166
X105.34Y-67.706
X105.34Y-70.246
X105.34Y-72.786
X105.34Y-75.326
X105.34Y-77.866
X105.34Y-80.406
X105.34Y-82.946
X105.34Y-85.486
X105.34Y-88.026
X105.34Y-90.566
X105.34Y-93.106
X105.34Y-95.646
X105.34Y-98.186
X105.34Y-100.726
X105.34Y-103.266
X121.695Y-56.55
X124.235Y-56.55
X126.775Y-56.55
X185.5Y-59.55
X185.5Y-62.09
X185.5Y-64.63
X185.5Y-67.17
X190.114Y-98.425
X192.654Y-98.425
T5
X198.5Y-65.25
X198.5Y-69.75
X198.5Y-78.45
X198.5Y-82.95
X198.5Y-91.65
X198.5Y-96.15
X205.0Y-65.25
X205.0Y-69.75
X205.0Y-78.45
X205.0Y-82.95
X205.0Y-91.65
X205.0Y-96.15
M30
