%TF.GenerationSoftware,KiCad,Pcbnew,7.0.1*%
%TF.CreationDate,2024-04-08T12:26:25+03:00*%
%TF.ProjectId,double_flop,646f7562-6c65-45f6-966c-6f702e6b6963,rev?*%
%TF.SameCoordinates,Original*%
%TF.FileFunction,Copper,L2,Bot*%
%TF.FilePolarity,Positive*%
%FSLAX46Y46*%
G04 Gerber Fmt 4.6, Leading zero omitted, Abs format (unit mm)*
G04 Created by KiCad (PCBNEW 7.0.1) date 2024-04-08 12:26:25*
%MOMM*%
%LPD*%
G01*
G04 APERTURE LIST*
G04 Aperture macros list*
%AMRoundRect*
0 Rectangle with rounded corners*
0 $1 Rounding radius*
0 $2 $3 $4 $5 $6 $7 $8 $9 X,Y pos of 4 corners*
0 Add a 4 corners polygon primitive as box body*
4,1,4,$2,$3,$4,$5,$6,$7,$8,$9,$2,$3,0*
0 Add four circle primitives for the rounded corners*
1,1,$1+$1,$2,$3*
1,1,$1+$1,$4,$5*
1,1,$1+$1,$6,$7*
1,1,$1+$1,$8,$9*
0 Add four rect primitives between the rounded corners*
20,1,$1+$1,$2,$3,$4,$5,0*
20,1,$1+$1,$4,$5,$6,$7,0*
20,1,$1+$1,$6,$7,$8,$9,0*
20,1,$1+$1,$8,$9,$2,$3,0*%
G04 Aperture macros list end*
%TA.AperFunction,ComponentPad*%
%ADD10C,1.800000*%
%TD*%
%TA.AperFunction,ComponentPad*%
%ADD11R,2.000000X2.000000*%
%TD*%
%TA.AperFunction,ComponentPad*%
%ADD12C,2.000000*%
%TD*%
%TA.AperFunction,ComponentPad*%
%ADD13R,3.200000X2.000000*%
%TD*%
%TA.AperFunction,ComponentPad*%
%ADD14R,1.700000X1.700000*%
%TD*%
%TA.AperFunction,ComponentPad*%
%ADD15O,1.700000X1.700000*%
%TD*%
%TA.AperFunction,ComponentPad*%
%ADD16R,1.600000X2.400000*%
%TD*%
%TA.AperFunction,ComponentPad*%
%ADD17O,1.600000X2.400000*%
%TD*%
%TA.AperFunction,ComponentPad*%
%ADD18RoundRect,0.250000X-0.600000X0.600000X-0.600000X-0.600000X0.600000X-0.600000X0.600000X0.600000X0*%
%TD*%
%TA.AperFunction,ComponentPad*%
%ADD19C,1.700000*%
%TD*%
%TA.AperFunction,ComponentPad*%
%ADD20C,4.000000*%
%TD*%
%TA.AperFunction,ComponentPad*%
%ADD21R,1.500000X1.500000*%
%TD*%
%TA.AperFunction,ComponentPad*%
%ADD22C,1.500000*%
%TD*%
%TA.AperFunction,Conductor*%
%ADD23C,0.250000*%
%TD*%
G04 APERTURE END LIST*
D10*
%TO.P,con5,1*%
%TO.N,N/C*%
X140760000Y-66120000D03*
%TO.P,con5,2*%
X143300000Y-66120000D03*
%TO.P,con5,3*%
X145840000Y-66120000D03*
%TO.P,con5,4*%
X148380000Y-66120000D03*
%TO.P,con5,5*%
X150920000Y-66120000D03*
%TO.P,con5,6*%
X153460000Y-66120000D03*
%TO.P,con5,7*%
X156000000Y-66120000D03*
%TO.P,con5,8*%
X158540000Y-66120000D03*
%TO.P,con5,9*%
X161080000Y-66120000D03*
%TO.P,con5,10*%
X163620000Y-66120000D03*
%TO.P,con5,11*%
X166160000Y-66120000D03*
%TO.P,con5,12*%
X168700000Y-66120000D03*
%TO.P,con5,13*%
X171240000Y-66120000D03*
%TO.P,con5,14*%
X173780000Y-66120000D03*
%TO.P,con5,15*%
X176320000Y-66120000D03*
%TO.P,con5,19*%
X140760000Y-68660000D03*
%TO.P,con5,20*%
X143300000Y-68660000D03*
%TO.P,con5,21*%
X145840000Y-68660000D03*
%TO.P,con5,22*%
X148380000Y-68660000D03*
%TO.P,con5,23*%
X150920000Y-68660000D03*
%TO.P,con5,24*%
X153460000Y-68660000D03*
%TO.P,con5,25*%
X156000000Y-68660000D03*
%TO.P,con5,26*%
X158540000Y-68660000D03*
%TO.P,con5,27*%
X161080000Y-68660000D03*
%TO.P,con5,28*%
X163620000Y-68660000D03*
%TO.P,con5,29*%
X166160000Y-68660000D03*
%TO.P,con5,30*%
X168700000Y-68660000D03*
%TO.P,con5,31*%
X171240000Y-68660000D03*
%TO.P,con5,32*%
X173780000Y-68660000D03*
%TO.P,con5,33*%
X176320000Y-68660000D03*
%TO.P,con5,37*%
X140760000Y-71200000D03*
%TO.P,con5,38*%
X143300000Y-71200000D03*
%TO.P,con5,39*%
X145840000Y-71200000D03*
%TO.P,con5,40*%
X148380000Y-71200000D03*
%TO.P,con5,41*%
X150920000Y-71200000D03*
%TO.P,con5,42*%
X153460000Y-71200000D03*
%TO.P,con5,43*%
X156000000Y-71200000D03*
%TO.P,con5,44*%
X158540000Y-71200000D03*
%TO.P,con5,45*%
X161080000Y-71200000D03*
%TO.P,con5,46*%
X163620000Y-71200000D03*
%TO.P,con5,47*%
X166160000Y-71200000D03*
%TO.P,con5,48*%
X168700000Y-71200000D03*
%TO.P,con5,49*%
X171240000Y-71200000D03*
%TO.P,con5,50*%
X173780000Y-71200000D03*
%TO.P,con5,51*%
X176320000Y-71200000D03*
%TO.P,con5,55*%
X140760000Y-73740000D03*
%TO.P,con5,56*%
X143300000Y-73740000D03*
%TO.P,con5,57*%
X145840000Y-73740000D03*
%TO.P,con5,58*%
X148380000Y-73740000D03*
%TO.P,con5,59*%
X150920000Y-73740000D03*
%TO.P,con5,60*%
X153460000Y-73740000D03*
%TO.P,con5,61*%
X156000000Y-73740000D03*
%TO.P,con5,62*%
X158540000Y-73740000D03*
%TO.P,con5,63*%
X161080000Y-73740000D03*
%TO.P,con5,64*%
X163620000Y-73740000D03*
%TO.P,con5,65*%
X166160000Y-73740000D03*
%TO.P,con5,66*%
X168700000Y-73740000D03*
%TO.P,con5,67*%
X171240000Y-73740000D03*
%TO.P,con5,68*%
X173780000Y-73740000D03*
%TO.P,con5,69*%
X176320000Y-73740000D03*
%TO.P,con5,73*%
X140760000Y-76280000D03*
%TO.P,con5,74*%
X143300000Y-76280000D03*
%TO.P,con5,75*%
X145840000Y-76280000D03*
%TO.P,con5,76*%
X148380000Y-76280000D03*
%TO.P,con5,77*%
X150920000Y-76280000D03*
%TO.P,con5,78*%
X153460000Y-76280000D03*
%TO.P,con5,79*%
X156000000Y-76280000D03*
%TO.P,con5,80*%
X158540000Y-76280000D03*
%TO.P,con5,81*%
X161080000Y-76280000D03*
%TO.P,con5,82*%
X163620000Y-76280000D03*
%TO.P,con5,83*%
X166160000Y-76280000D03*
%TO.P,con5,84*%
X168700000Y-76280000D03*
%TO.P,con5,85*%
X171240000Y-76280000D03*
%TO.P,con5,86*%
X173780000Y-76280000D03*
%TO.P,con5,87*%
X176320000Y-76280000D03*
%TO.P,con5,91*%
X140760000Y-78820000D03*
%TO.P,con5,92*%
X143300000Y-78820000D03*
%TO.P,con5,93*%
X145840000Y-78820000D03*
%TO.P,con5,94*%
X148380000Y-78820000D03*
%TO.P,con5,95*%
X150920000Y-78820000D03*
%TO.P,con5,96*%
X153460000Y-78820000D03*
%TO.P,con5,97*%
X156000000Y-78820000D03*
%TO.P,con5,98*%
X158540000Y-78820000D03*
%TO.P,con5,99*%
X161080000Y-78820000D03*
%TO.P,con5,100*%
X163620000Y-78820000D03*
%TO.P,con5,101*%
X166160000Y-78820000D03*
%TO.P,con5,102*%
X168700000Y-78820000D03*
%TO.P,con5,103*%
X171240000Y-78820000D03*
%TO.P,con5,104*%
X173780000Y-78820000D03*
%TO.P,con5,105*%
X176320000Y-78820000D03*
%TO.P,con5,109*%
X140760000Y-81360000D03*
%TO.P,con5,110*%
X143300000Y-81360000D03*
%TO.P,con5,111*%
X145840000Y-81360000D03*
%TO.P,con5,112*%
X148380000Y-81360000D03*
%TO.P,con5,113*%
X150920000Y-81360000D03*
%TO.P,con5,114*%
X153460000Y-81360000D03*
%TO.P,con5,115*%
X156000000Y-81360000D03*
%TO.P,con5,116*%
X158540000Y-81360000D03*
%TO.P,con5,117*%
X161080000Y-81360000D03*
%TO.P,con5,118*%
X163620000Y-81360000D03*
%TO.P,con5,119*%
X166160000Y-81360000D03*
%TO.P,con5,120*%
X168700000Y-81360000D03*
%TO.P,con5,121*%
X171240000Y-81360000D03*
%TO.P,con5,122*%
X173780000Y-81360000D03*
%TO.P,con5,123*%
X176320000Y-81360000D03*
%TD*%
D11*
%TO.P,con6,A*%
%TO.N,N/C*%
X201800000Y-76400000D03*
D12*
%TO.P,con6,B*%
X201800000Y-81400000D03*
%TO.P,con6,C*%
X201800000Y-78900000D03*
D13*
%TO.P,con6,MP*%
X194300000Y-73300000D03*
X194300000Y-84500000D03*
D12*
%TO.P,con6,S1*%
X187300000Y-81400000D03*
%TO.P,con6,S2*%
X187300000Y-76400000D03*
%TD*%
D14*
%TO.P,J2,1,Pin_1*%
%TO.N,Net-(J2-Pin_1)*%
X193900000Y-67500000D03*
D15*
%TO.P,J2,2,Pin_2*%
%TO.N,Net-(J2-Pin_2)*%
X196440000Y-67500000D03*
%TO.P,J2,3,Pin_3*%
%TO.N,Net-(J2-Pin_3)*%
X198980000Y-67500000D03*
%TO.P,J2,4,Pin_4*%
%TO.N,Net-(J2-Pin_4)*%
X201520000Y-67500000D03*
%TD*%
D14*
%TO.P,J1,1,Pin_1*%
%TO.N,GND*%
X180500000Y-81540000D03*
D15*
%TO.P,J1,2,Pin_2*%
X183040000Y-81540000D03*
%TO.P,J1,3,Pin_3*%
%TO.N,unconnected-(J1-Pin_3-Pad3)*%
X180500000Y-79000000D03*
%TO.P,J1,4,Pin_4*%
%TO.N,unconnected-(J1-Pin_4-Pad4)*%
X183040000Y-79000000D03*
%TO.P,J1,5,Pin_5*%
%TO.N,+5V*%
X180500000Y-76460000D03*
%TO.P,J1,6,Pin_6*%
X183040000Y-76460000D03*
%TO.P,J1,7,Pin_7*%
%TO.N,SS*%
X180500000Y-73920000D03*
%TO.P,J1,8,Pin_8*%
X183040000Y-73920000D03*
%TO.P,J1,9,Pin_9*%
%TO.N,MOSI*%
X180500000Y-71380000D03*
%TO.P,J1,10,Pin_10*%
X183040000Y-71380000D03*
%TO.P,J1,11,Pin_11*%
%TO.N,SCK*%
X180500000Y-68840000D03*
%TO.P,J1,12,Pin_12*%
X183040000Y-68840000D03*
%TO.P,J1,13,Pin_13*%
%TO.N,MISO*%
X180500000Y-66300000D03*
%TO.P,J1,14,Pin_14*%
X183040000Y-66300000D03*
%TO.P,J1,15,Pin_15*%
%TO.N,GND*%
X180500000Y-63760000D03*
%TO.P,J1,16,Pin_16*%
X183040000Y-63760000D03*
%TD*%
D16*
%TO.P,U1,1,Vbat*%
%TO.N,unconnected-(U1-Vbat-Pad1)*%
X193142500Y-39472500D03*
D17*
%TO.P,U1,2,C13*%
%TO.N,Net-(D1-INDEX)*%
X190602500Y-39472500D03*
%TO.P,U1,3,C14*%
%TO.N,Net-(D1-MOTOR_0)*%
X188062500Y-39472500D03*
%TO.P,U1,4,C15*%
%TO.N,Net-(D1-DRIVE_SELECT_1)*%
X185522500Y-39472500D03*
%TO.P,U1,5,~{RESET}*%
%TO.N,unconnected-(U1-~{RESET}-Pad5)*%
X182982500Y-39472500D03*
%TO.P,U1,6,A0*%
%TO.N,Net-(D1-WRITE_DATA)*%
X180442500Y-39472500D03*
%TO.P,U1,7,A1*%
%TO.N,Net-(D1-DRIVE_SELECT_0)*%
X177902500Y-39472500D03*
%TO.P,U1,8,A2*%
%TO.N,Net-(D1-MOTOR_1)*%
X175362500Y-39472500D03*
%TO.P,U1,9,A3*%
%TO.N,Net-(D1-DIRECTION)*%
X172822500Y-39472500D03*
%TO.P,U1,10,A4*%
%TO.N,Net-(D1-STEP)*%
X170282500Y-39472500D03*
%TO.P,U1,11,A5*%
%TO.N,unconnected-(U1-A5-Pad11)*%
X167742500Y-39472500D03*
%TO.P,U1,12,A6*%
%TO.N,Net-(D1-WRITE_GATE)*%
X165202500Y-39472500D03*
%TO.P,U1,13,A7*%
%TO.N,Net-(D1-READ_DATA)*%
X162662500Y-39472500D03*
%TO.P,U1,14,B0*%
%TO.N,Net-(D1-TRACK)*%
X160122500Y-39472500D03*
%TO.P,U1,15,B1*%
%TO.N,Net-(D1-WRITE_PROTECT)*%
X157582500Y-39472500D03*
%TO.P,U1,16,B2*%
%TO.N,unconnected-(U1-B2-Pad16)*%
X155042500Y-39472500D03*
%TO.P,U1,17,B10*%
%TO.N,Net-(D1-HEAD_SELECT)*%
X152502500Y-39472500D03*
%TO.P,U1,18,3V3*%
%TO.N,LED*%
X149962500Y-39472500D03*
%TO.P,U1,19,GND*%
%TO.N,GND*%
X147422500Y-39472500D03*
%TO.P,U1,20,5V*%
%TO.N,Net-(U2-VCC)*%
X144882500Y-39472500D03*
%TO.P,U1,21,B12*%
%TO.N,SS*%
X144882500Y-54712500D03*
%TO.P,U1,22,B13*%
%TO.N,SCK*%
X147422500Y-54712500D03*
%TO.P,U1,23,B14*%
%TO.N,MISO*%
X149962500Y-54712500D03*
%TO.P,U1,24,B15*%
%TO.N,MOSI*%
X152502500Y-54712500D03*
%TO.P,U1,25,A8*%
%TO.N,unconnected-(U1-A8-Pad25)*%
X155042500Y-54712500D03*
%TO.P,U1,26,A9*%
%TO.N,unconnected-(U1-A9-Pad26)*%
X157582500Y-54712500D03*
%TO.P,U1,27,A10*%
%TO.N,unconnected-(U1-A10-Pad27)*%
X160122500Y-54712500D03*
%TO.P,U1,28,A11*%
%TO.N,tft_CS*%
X162662500Y-54712500D03*
%TO.P,U1,29,A12*%
%TO.N,tft_reset*%
X165202500Y-54712500D03*
%TO.P,U1,30,A15*%
%TO.N,unconnected-(U1-A15-Pad30)*%
X167742500Y-54712500D03*
%TO.P,U1,31,B3*%
%TO.N,tft_sck*%
X170282500Y-54712500D03*
%TO.P,U1,32,B4*%
%TO.N,tft_dc*%
X172822500Y-54712500D03*
%TO.P,U1,33,B5*%
%TO.N,tft_mosi*%
X175362500Y-54712500D03*
%TO.P,U1,34,B6*%
%TO.N,Net-(J2-Pin_1)*%
X177902500Y-54712500D03*
%TO.P,U1,35,B7*%
%TO.N,Net-(J2-Pin_2)*%
X180442500Y-54712500D03*
%TO.P,U1,36,B8*%
%TO.N,Net-(J2-Pin_3)*%
X182982500Y-54712500D03*
%TO.P,U1,37,B9*%
%TO.N,Net-(J2-Pin_4)*%
X185522500Y-54712500D03*
%TO.P,U1,38,5V*%
%TO.N,+5V*%
X188062500Y-54712500D03*
%TO.P,U1,39,GND*%
%TO.N,GND*%
X190602500Y-54712500D03*
%TO.P,U1,40,3V3*%
%TO.N,unconnected-(U1-3V3-Pad40)*%
X193142500Y-54712500D03*
%TD*%
D18*
%TO.P,D1,1,GND*%
%TO.N,GND*%
X188917500Y-29797500D03*
D19*
%TO.P,D1,2,DENSITY_SELECT*%
%TO.N,unconnected-(D1-DENSITY_SELECT-Pad2)*%
X188917500Y-32337500D03*
%TO.P,D1,3,GND*%
%TO.N,GND*%
X186377500Y-29797500D03*
%TO.P,D1,4,N/C*%
%TO.N,unconnected-(D1-N{slash}C-Pad4)*%
X186377500Y-32337500D03*
%TO.P,D1,5,GND*%
%TO.N,GND*%
X183837500Y-29797500D03*
%TO.P,D1,6,N/C*%
%TO.N,unconnected-(D1-N{slash}C-Pad6)*%
X183837500Y-32337500D03*
%TO.P,D1,7,GND*%
%TO.N,GND*%
X181297500Y-29797500D03*
%TO.P,D1,8,INDEX*%
%TO.N,Net-(D1-INDEX)*%
X181297500Y-32337500D03*
%TO.P,D1,9,GND*%
%TO.N,GND*%
X178757500Y-29797500D03*
%TO.P,D1,10,MOTOR_0*%
%TO.N,Net-(D1-MOTOR_0)*%
X178757500Y-32337500D03*
%TO.P,D1,11,GND*%
%TO.N,GND*%
X176217500Y-29797500D03*
%TO.P,D1,12,DRIVE_SELECT_1*%
%TO.N,Net-(D1-DRIVE_SELECT_1)*%
X176217500Y-32337500D03*
%TO.P,D1,13,GND*%
%TO.N,GND*%
X173677500Y-29797500D03*
%TO.P,D1,14,DRIVE_SELECT_0*%
%TO.N,Net-(D1-DRIVE_SELECT_0)*%
X173677500Y-32337500D03*
%TO.P,D1,15,GND*%
%TO.N,GND*%
X171137500Y-29797500D03*
%TO.P,D1,16,MOTOR_1*%
%TO.N,Net-(D1-MOTOR_1)*%
X171137500Y-32337500D03*
%TO.P,D1,17,GND*%
%TO.N,GND*%
X168597500Y-29797500D03*
%TO.P,D1,18,DIRECTION*%
%TO.N,Net-(D1-DIRECTION)*%
X168597500Y-32337500D03*
%TO.P,D1,19,GND*%
%TO.N,GND*%
X166057500Y-29797500D03*
%TO.P,D1,20,STEP*%
%TO.N,Net-(D1-STEP)*%
X166057500Y-32337500D03*
%TO.P,D1,21,GND*%
%TO.N,GND*%
X163517500Y-29797500D03*
%TO.P,D1,22,WRITE_DATA*%
%TO.N,Net-(D1-WRITE_DATA)*%
X163517500Y-32337500D03*
%TO.P,D1,23,GND*%
%TO.N,GND*%
X160977500Y-29797500D03*
%TO.P,D1,24,WRITE_GATE*%
%TO.N,Net-(D1-WRITE_GATE)*%
X160977500Y-32337500D03*
%TO.P,D1,25,GND*%
%TO.N,GND*%
X158437500Y-29797500D03*
%TO.P,D1,26,TRACK*%
%TO.N,Net-(D1-TRACK)*%
X158437500Y-32337500D03*
%TO.P,D1,27,GND*%
%TO.N,GND*%
X155897500Y-29797500D03*
%TO.P,D1,28,WRITE_PROTECT*%
%TO.N,Net-(D1-WRITE_PROTECT)*%
X155897500Y-32337500D03*
%TO.P,D1,29,GND*%
%TO.N,GND*%
X153357500Y-29797500D03*
%TO.P,D1,30,READ_DATA*%
%TO.N,Net-(D1-READ_DATA)*%
X153357500Y-32337500D03*
%TO.P,D1,31,GND*%
%TO.N,GND*%
X150817500Y-29797500D03*
%TO.P,D1,32,HEAD_SELECT*%
%TO.N,Net-(D1-HEAD_SELECT)*%
X150817500Y-32337500D03*
%TO.P,D1,33,GND*%
%TO.N,GND*%
X148277500Y-29797500D03*
%TO.P,D1,34,DISK_CHANGE*%
%TO.N,unconnected-(D1-DISK_CHANGE-Pad34)*%
X148277500Y-32337500D03*
%TD*%
D20*
%TO.P,U2,*%
%TO.N,*%
X138760000Y-27547500D03*
X138760000Y-61647500D03*
X199960000Y-27547500D03*
X199960000Y-61647500D03*
D21*
%TO.P,U2,1,VCC*%
%TO.N,Net-(U2-VCC)*%
X137260000Y-54757500D03*
D22*
%TO.P,U2,2,GND*%
%TO.N,GND*%
X137260000Y-52217500D03*
%TO.P,U2,3,~{CS}*%
%TO.N,tft_CS*%
X137260000Y-49677500D03*
%TO.P,U2,4,RESET*%
%TO.N,tft_reset*%
X137260000Y-47137500D03*
%TO.P,U2,5,D/~{C}*%
%TO.N,tft_dc*%
X137260000Y-44597500D03*
%TO.P,U2,6,MOSI*%
%TO.N,tft_mosi*%
X137260000Y-42057500D03*
%TO.P,U2,7,SCK*%
%TO.N,tft_sck*%
X137260000Y-39517500D03*
%TO.P,U2,8,LED*%
%TO.N,LED*%
X137260000Y-36977500D03*
%TO.P,U2,9,MISO*%
%TO.N,unconnected-(U2-MISO-Pad9)*%
X137260000Y-34437500D03*
%TO.P,U2,10,SD_CS*%
%TO.N,unconnected-(U2-SD_CS-Pad10)*%
X200780000Y-49677500D03*
%TO.P,U2,11,SD_MOSI*%
%TO.N,unconnected-(U2-SD_MOSI-Pad11)*%
X200780000Y-47137500D03*
%TO.P,U2,12,SD_MISO*%
%TO.N,unconnected-(U2-SD_MISO-Pad12)*%
X200780000Y-44597500D03*
%TO.P,U2,13,SD_SCK*%
%TO.N,unconnected-(U2-SD_SCK-Pad13)*%
X200780000Y-42057500D03*
%TO.P,U2,14,FLASH_CD*%
%TO.N,unconnected-(U2-FLASH_CD-Pad14)*%
X200780000Y-39517500D03*
%TD*%
D23*
%TO.N,Net-(U2-VCC)*%
X144882500Y-43588500D02*
X144882500Y-39472500D01*
X137600000Y-50871000D02*
X144882500Y-43588500D01*
X137035500Y-50900000D02*
X137600000Y-50900000D01*
X137600000Y-50900000D02*
X137600000Y-50871000D01*
X136000000Y-51935500D02*
X137035500Y-50900000D01*
X137260000Y-54757500D02*
X137260000Y-53680600D01*
X137260000Y-53680600D02*
X137125400Y-53680600D01*
X137125400Y-53680600D02*
X136000000Y-52555200D01*
X136000000Y-52555200D02*
X136000000Y-51935500D01*
%TO.N,MISO*%
X169262500Y-56239400D02*
X179323100Y-66300000D01*
X149962500Y-56239400D02*
X169262500Y-56239400D01*
X180500000Y-66300000D02*
X179323100Y-66300000D01*
X149962500Y-54712500D02*
X149962500Y-56239400D01*
%TO.N,SCK*%
X147422500Y-54712500D02*
X147422500Y-56239400D01*
X180500000Y-68840000D02*
X180500000Y-67663100D01*
X179656000Y-67663100D02*
X180500000Y-67663100D01*
X169354200Y-57361300D02*
X179656000Y-67663100D01*
X148544400Y-57361300D02*
X169354200Y-57361300D01*
X147422500Y-56239400D02*
X148544400Y-57361300D01*
%TO.N,+5V*%
X183405800Y-75283100D02*
X183040000Y-75283100D01*
X184239100Y-74449800D02*
X183405800Y-75283100D01*
X184239100Y-65746900D02*
X184239100Y-74449800D01*
X183522200Y-65030000D02*
X184239100Y-65746900D01*
X182631000Y-65030000D02*
X183522200Y-65030000D01*
X181845700Y-64244700D02*
X182631000Y-65030000D01*
X181845700Y-62456200D02*
X181845700Y-64244700D01*
X188062500Y-56239400D02*
X181845700Y-62456200D01*
X188062500Y-54712500D02*
X188062500Y-56239400D01*
X183040000Y-76460000D02*
X183040000Y-75283100D01*
%TO.N,Net-(D1-HEAD_SELECT)*%
X150817500Y-36260600D02*
X152502500Y-37945600D01*
X150817500Y-32337500D02*
X150817500Y-36260600D01*
X152502500Y-39472500D02*
X152502500Y-37945600D01*
%TO.N,Net-(D1-WRITE_PROTECT)*%
X155897500Y-36260600D02*
X157582500Y-37945600D01*
X155897500Y-32337500D02*
X155897500Y-36260600D01*
X157582500Y-39472500D02*
X157582500Y-37945600D01*
%TO.N,Net-(D1-TRACK)*%
X158437500Y-36260600D02*
X160122500Y-37945600D01*
X158437500Y-32337500D02*
X158437500Y-36260600D01*
X160122500Y-39472500D02*
X160122500Y-37945600D01*
%TO.N,Net-(D1-WRITE_GATE)*%
X165202500Y-36562500D02*
X165202500Y-39472500D01*
X160977500Y-32337500D02*
X165202500Y-36562500D01*
%TO.N,Net-(D1-STEP)*%
X170282500Y-36562500D02*
X170282500Y-39472500D01*
X166057500Y-32337500D02*
X170282500Y-36562500D01*
%TO.N,Net-(D1-DIRECTION)*%
X172822500Y-36562500D02*
X172822500Y-39472500D01*
X168597500Y-32337500D02*
X172822500Y-36562500D01*
%TO.N,Net-(D1-MOTOR_1)*%
X175362500Y-36562500D02*
X175362500Y-39472500D01*
X171137500Y-32337500D02*
X175362500Y-36562500D01*
%TO.N,Net-(D1-DRIVE_SELECT_0)*%
X177902500Y-36562500D02*
X177902500Y-39472500D01*
X173677500Y-32337500D02*
X177902500Y-36562500D01*
%TO.N,GND*%
X184216900Y-62625000D02*
X184216900Y-63760000D01*
X190602500Y-56239400D02*
X184216900Y-62625000D01*
X190602500Y-54712500D02*
X190602500Y-56239400D01*
X183040000Y-63760000D02*
X184216900Y-63760000D01*
X190602500Y-54712500D02*
X190602500Y-53185600D01*
X180500000Y-63760000D02*
X180500000Y-64936900D01*
X183040000Y-81540000D02*
X183040000Y-80363100D01*
X147422500Y-42055000D02*
X147422500Y-39472500D01*
X137260000Y-52217500D02*
X147422500Y-42055000D01*
X147422500Y-39472500D02*
X147422500Y-37945600D01*
X149467500Y-35900600D02*
X149467500Y-30747600D01*
X147422500Y-37945600D02*
X149467500Y-35900600D01*
X149227600Y-30747600D02*
X149467500Y-30747600D01*
X148277500Y-29797500D02*
X149227600Y-30747600D01*
X149867400Y-30747600D02*
X150817500Y-29797500D01*
X149467500Y-30747600D02*
X149867400Y-30747600D01*
X181676900Y-79365800D02*
X182467700Y-80156600D01*
X181676900Y-65745900D02*
X181676900Y-79365800D01*
X180867900Y-64936900D02*
X181676900Y-65745900D01*
X180500000Y-64936900D02*
X180867900Y-64936900D01*
X182674200Y-80363100D02*
X183040000Y-80363100D01*
X182467700Y-80156600D02*
X182674200Y-80363100D01*
X181676900Y-80947400D02*
X181676900Y-81540000D01*
X182467700Y-80156600D02*
X181676900Y-80947400D01*
X180500000Y-81540000D02*
X181676900Y-81540000D01*
X186536300Y-29797500D02*
X187726900Y-30988100D01*
X186377500Y-29797500D02*
X186536300Y-29797500D01*
X188917500Y-29797500D02*
X187726900Y-30988100D01*
X189332500Y-51915600D02*
X190602500Y-53185600D01*
X189332500Y-36965100D02*
X189332500Y-51915600D01*
X187726900Y-35359500D02*
X189332500Y-36965100D01*
X187726900Y-30988100D02*
X187726900Y-35359500D01*
%TD*%
M02*
