M48
; DRILL file {KiCad 7.0.1} date Mon Apr  8 12:26:27 2024
; FORMAT={-:-/ absolute / inch / decimal}
; #@! TF.CreationDate,2024-04-08T12:26:27+03:00
; #@! TF.GenerationSoftware,Kicad,Pcbnew,7.0.1
; #@! TF.FileFunction,Plated,1,2,PTH
FMAT,2
INCH
; #@! TA.AperFunction,Plated,PTH,ComponentDrill
T1C0.0315
; #@! TA.AperFunction,Plated,PTH,ComponentDrill
T2C0.0394
; #@! TA.AperFunction,Plated,PTH,ComponentDrill
T3C0.0591
; #@! TA.AperFunction,Plated,PTH,ComponentDrill
T4C0.1063
%
G90
G05
T1
X5.704Y-1.554
X5.704Y-2.154
X5.804Y-1.554
X5.804Y-2.154
X5.904Y-1.554
X5.904Y-2.154
X6.004Y-1.554
X6.004Y-2.154
X6.104Y-1.554
X6.104Y-2.154
X6.204Y-1.554
X6.204Y-2.154
X6.304Y-1.554
X6.304Y-2.154
X6.404Y-1.554
X6.404Y-2.154
X6.504Y-1.554
X6.504Y-2.154
X6.604Y-1.554
X6.604Y-2.154
X6.704Y-1.554
X6.704Y-2.154
X6.804Y-1.554
X6.804Y-2.154
X6.904Y-1.554
X6.904Y-2.154
X7.004Y-1.554
X7.004Y-2.154
X7.104Y-1.554
X7.104Y-2.154
X7.204Y-1.554
X7.204Y-2.154
X7.304Y-1.554
X7.304Y-2.154
X7.404Y-1.554
X7.404Y-2.154
X7.504Y-1.554
X7.504Y-2.154
X7.604Y-1.554
X7.604Y-2.154
T2
X5.4039Y-1.3558
X5.4039Y-1.4558
X5.4039Y-1.5558
X5.4039Y-1.6558
X5.4039Y-1.7558
X5.4039Y-1.8558
X5.4039Y-1.9558
X5.4039Y-2.0558
X5.4039Y-2.1558
X5.5417Y-2.6031
X5.5417Y-2.7031
X5.5417Y-2.8031
X5.5417Y-2.9031
X5.5417Y-3.0031
X5.5417Y-3.1031
X5.5417Y-3.2031
X5.6417Y-2.6031
X5.6417Y-2.7031
X5.6417Y-2.8031
X5.6417Y-2.9031
X5.6417Y-3.0031
X5.6417Y-3.1031
X5.6417Y-3.2031
X5.7417Y-2.6031
X5.7417Y-2.7031
X5.7417Y-2.8031
X5.7417Y-2.9031
X5.7417Y-3.0031
X5.7417Y-3.1031
X5.7417Y-3.2031
X5.8377Y-1.1731
X5.8377Y-1.2731
X5.8417Y-2.6031
X5.8417Y-2.7031
X5.8417Y-2.8031
X5.8417Y-2.9031
X5.8417Y-3.0031
X5.8417Y-3.1031
X5.8417Y-3.2031
X5.9377Y-1.1731
X5.9377Y-1.2731
X5.9417Y-2.6031
X5.9417Y-2.7031
X5.9417Y-2.8031
X5.9417Y-2.9031
X5.9417Y-3.0031
X5.9417Y-3.1031
X5.9417Y-3.2031
X6.0377Y-1.1731
X6.0377Y-1.2731
X6.0417Y-2.6031
X6.0417Y-2.7031
X6.0417Y-2.8031
X6.0417Y-2.9031
X6.0417Y-3.0031
X6.0417Y-3.1031
X6.0417Y-3.2031
X6.1377Y-1.1731
X6.1377Y-1.2731
X6.1417Y-2.6031
X6.1417Y-2.7031
X6.1417Y-2.8031
X6.1417Y-2.9031
X6.1417Y-3.0031
X6.1417Y-3.1031
X6.1417Y-3.2031
X6.2377Y-1.1731
X6.2377Y-1.2731
X6.2417Y-2.6031
X6.2417Y-2.7031
X6.2417Y-2.8031
X6.2417Y-2.9031
X6.2417Y-3.0031
X6.2417Y-3.1031
X6.2417Y-3.2031
X6.3377Y-1.1731
X6.3377Y-1.2731
X6.3417Y-2.6031
X6.3417Y-2.7031
X6.3417Y-2.8031
X6.3417Y-2.9031
X6.3417Y-3.0031
X6.3417Y-3.1031
X6.3417Y-3.2031
X6.4377Y-1.1731
X6.4377Y-1.2731
X6.4417Y-2.6031
X6.4417Y-2.7031
X6.4417Y-2.8031
X6.4417Y-2.9031
X6.4417Y-3.0031
X6.4417Y-3.1031
X6.4417Y-3.2031
X6.5377Y-1.1731
X6.5377Y-1.2731
X6.5417Y-2.6031
X6.5417Y-2.7031
X6.5417Y-2.8031
X6.5417Y-2.9031
X6.5417Y-3.0031
X6.5417Y-3.1031
X6.5417Y-3.2031
X6.6377Y-1.1731
X6.6377Y-1.2731
X6.6417Y-2.6031
X6.6417Y-2.7031
X6.6417Y-2.8031
X6.6417Y-2.9031
X6.6417Y-3.0031
X6.6417Y-3.1031
X6.6417Y-3.2031
X6.7377Y-1.1731
X6.7377Y-1.2731
X6.7417Y-2.6031
X6.7417Y-2.7031
X6.7417Y-2.8031
X6.7417Y-2.9031
X6.7417Y-3.0031
X6.7417Y-3.1031
X6.7417Y-3.2031
X6.8377Y-1.1731
X6.8377Y-1.2731
X6.8417Y-2.6031
X6.8417Y-2.7031
X6.8417Y-2.8031
X6.8417Y-2.9031
X6.8417Y-3.0031
X6.8417Y-3.1031
X6.8417Y-3.2031
X6.9377Y-1.1731
X6.9377Y-1.2731
X6.9417Y-2.6031
X6.9417Y-2.7031
X6.9417Y-2.8031
X6.9417Y-2.9031
X6.9417Y-3.0031
X6.9417Y-3.1031
X6.9417Y-3.2031
X7.0377Y-1.1731
X7.0377Y-1.2731
X7.1063Y-2.5102
X7.1063Y-2.6102
X7.1063Y-2.7102
X7.1063Y-2.8102
X7.1063Y-2.9102
X7.1063Y-3.0102
X7.1063Y-3.1102
X7.1063Y-3.2102
X7.1377Y-1.1731
X7.1377Y-1.2731
X7.2063Y-2.5102
X7.2063Y-2.6102
X7.2063Y-2.7102
X7.2063Y-2.8102
X7.2063Y-2.9102
X7.2063Y-3.0102
X7.2063Y-3.1102
X7.2063Y-3.2102
X7.2377Y-1.1731
X7.2377Y-1.2731
X7.3377Y-1.1731
X7.3377Y-1.2731
X7.374Y-3.0079
X7.374Y-3.2047
X7.4377Y-1.1731
X7.4377Y-1.2731
X7.6339Y-2.6575
X7.7339Y-2.6575
X7.8339Y-2.6575
X7.9047Y-1.5558
X7.9047Y-1.6558
X7.9047Y-1.7558
X7.9047Y-1.8558
X7.9047Y-1.9558
X7.9339Y-2.6575
X7.9449Y-3.0079
X7.9449Y-3.1063
X7.9449Y-3.2047
T4
X5.463Y-1.0845
X5.463Y-2.4271
X7.8724Y-1.0845
X7.8724Y-2.4271
T3
G00X7.6752Y-2.8858
M15
G01X7.624Y-2.8858
M16
G05
G00X7.6752Y-3.3268
M15
G01X7.624Y-3.3268
M16
G05
T0
M30
