%TF.GenerationSoftware,KiCad,Pcbnew,7.0.1*%
%TF.CreationDate,2024-04-08T12:26:25+03:00*%
%TF.ProjectId,double_flop,646f7562-6c65-45f6-966c-6f702e6b6963,rev?*%
%TF.SameCoordinates,Original*%
%TF.FileFunction,Soldermask,Bot*%
%TF.FilePolarity,Negative*%
%FSLAX46Y46*%
G04 Gerber Fmt 4.6, Leading zero omitted, Abs format (unit mm)*
G04 Created by KiCad (PCBNEW 7.0.1) date 2024-04-08 12:26:25*
%MOMM*%
%LPD*%
G01*
G04 APERTURE LIST*
G04 Aperture macros list*
%AMRoundRect*
0 Rectangle with rounded corners*
0 $1 Rounding radius*
0 $2 $3 $4 $5 $6 $7 $8 $9 X,Y pos of 4 corners*
0 Add a 4 corners polygon primitive as box body*
4,1,4,$2,$3,$4,$5,$6,$7,$8,$9,$2,$3,0*
0 Add four circle primitives for the rounded corners*
1,1,$1+$1,$2,$3*
1,1,$1+$1,$4,$5*
1,1,$1+$1,$6,$7*
1,1,$1+$1,$8,$9*
0 Add four rect primitives between the rounded corners*
20,1,$1+$1,$2,$3,$4,$5,0*
20,1,$1+$1,$4,$5,$6,$7,0*
20,1,$1+$1,$6,$7,$8,$9,0*
20,1,$1+$1,$8,$9,$2,$3,0*%
G04 Aperture macros list end*
%ADD10C,1.800000*%
%ADD11R,2.000000X2.000000*%
%ADD12C,2.000000*%
%ADD13R,3.200000X2.000000*%
%ADD14R,1.700000X1.700000*%
%ADD15O,1.700000X1.700000*%
%ADD16R,1.600000X2.400000*%
%ADD17O,1.600000X2.400000*%
%ADD18RoundRect,0.250000X-0.600000X0.600000X-0.600000X-0.600000X0.600000X-0.600000X0.600000X0.600000X0*%
%ADD19C,1.700000*%
%ADD20C,4.000000*%
%ADD21R,1.500000X1.500000*%
%ADD22C,1.500000*%
G04 APERTURE END LIST*
D10*
%TO.C,con5*%
X140760000Y-66120000D03*
X143300000Y-66120000D03*
X145840000Y-66120000D03*
X148380000Y-66120000D03*
X150920000Y-66120000D03*
X153460000Y-66120000D03*
X156000000Y-66120000D03*
X158540000Y-66120000D03*
X161080000Y-66120000D03*
X163620000Y-66120000D03*
X166160000Y-66120000D03*
X168700000Y-66120000D03*
X171240000Y-66120000D03*
X173780000Y-66120000D03*
X176320000Y-66120000D03*
X140760000Y-68660000D03*
X143300000Y-68660000D03*
X145840000Y-68660000D03*
X148380000Y-68660000D03*
X150920000Y-68660000D03*
X153460000Y-68660000D03*
X156000000Y-68660000D03*
X158540000Y-68660000D03*
X161080000Y-68660000D03*
X163620000Y-68660000D03*
X166160000Y-68660000D03*
X168700000Y-68660000D03*
X171240000Y-68660000D03*
X173780000Y-68660000D03*
X176320000Y-68660000D03*
X140760000Y-71200000D03*
X143300000Y-71200000D03*
X145840000Y-71200000D03*
X148380000Y-71200000D03*
X150920000Y-71200000D03*
X153460000Y-71200000D03*
X156000000Y-71200000D03*
X158540000Y-71200000D03*
X161080000Y-71200000D03*
X163620000Y-71200000D03*
X166160000Y-71200000D03*
X168700000Y-71200000D03*
X171240000Y-71200000D03*
X173780000Y-71200000D03*
X176320000Y-71200000D03*
X140760000Y-73740000D03*
X143300000Y-73740000D03*
X145840000Y-73740000D03*
X148380000Y-73740000D03*
X150920000Y-73740000D03*
X153460000Y-73740000D03*
X156000000Y-73740000D03*
X158540000Y-73740000D03*
X161080000Y-73740000D03*
X163620000Y-73740000D03*
X166160000Y-73740000D03*
X168700000Y-73740000D03*
X171240000Y-73740000D03*
X173780000Y-73740000D03*
X176320000Y-73740000D03*
X140760000Y-76280000D03*
X143300000Y-76280000D03*
X145840000Y-76280000D03*
X148380000Y-76280000D03*
X150920000Y-76280000D03*
X153460000Y-76280000D03*
X156000000Y-76280000D03*
X158540000Y-76280000D03*
X161080000Y-76280000D03*
X163620000Y-76280000D03*
X166160000Y-76280000D03*
X168700000Y-76280000D03*
X171240000Y-76280000D03*
X173780000Y-76280000D03*
X176320000Y-76280000D03*
X140760000Y-78820000D03*
X143300000Y-78820000D03*
X145840000Y-78820000D03*
X148380000Y-78820000D03*
X150920000Y-78820000D03*
X153460000Y-78820000D03*
X156000000Y-78820000D03*
X158540000Y-78820000D03*
X161080000Y-78820000D03*
X163620000Y-78820000D03*
X166160000Y-78820000D03*
X168700000Y-78820000D03*
X171240000Y-78820000D03*
X173780000Y-78820000D03*
X176320000Y-78820000D03*
X140760000Y-81360000D03*
X143300000Y-81360000D03*
X145840000Y-81360000D03*
X148380000Y-81360000D03*
X150920000Y-81360000D03*
X153460000Y-81360000D03*
X156000000Y-81360000D03*
X158540000Y-81360000D03*
X161080000Y-81360000D03*
X163620000Y-81360000D03*
X166160000Y-81360000D03*
X168700000Y-81360000D03*
X171240000Y-81360000D03*
X173780000Y-81360000D03*
X176320000Y-81360000D03*
%TD*%
D11*
%TO.C,con6*%
X201800000Y-76400000D03*
D12*
X201800000Y-81400000D03*
X201800000Y-78900000D03*
D13*
X194300000Y-73300000D03*
X194300000Y-84500000D03*
D12*
X187300000Y-81400000D03*
X187300000Y-76400000D03*
%TD*%
D14*
%TO.C,J2*%
X193900000Y-67500000D03*
D15*
X196440000Y-67500000D03*
X198980000Y-67500000D03*
X201520000Y-67500000D03*
%TD*%
D14*
%TO.C,J1*%
X180500000Y-81540000D03*
D15*
X183040000Y-81540000D03*
X180500000Y-79000000D03*
X183040000Y-79000000D03*
X180500000Y-76460000D03*
X183040000Y-76460000D03*
X180500000Y-73920000D03*
X183040000Y-73920000D03*
X180500000Y-71380000D03*
X183040000Y-71380000D03*
X180500000Y-68840000D03*
X183040000Y-68840000D03*
X180500000Y-66300000D03*
X183040000Y-66300000D03*
X180500000Y-63760000D03*
X183040000Y-63760000D03*
%TD*%
D16*
%TO.C,U1*%
X193142500Y-39472500D03*
D17*
X190602500Y-39472500D03*
X188062500Y-39472500D03*
X185522500Y-39472500D03*
X182982500Y-39472500D03*
X180442500Y-39472500D03*
X177902500Y-39472500D03*
X175362500Y-39472500D03*
X172822500Y-39472500D03*
X170282500Y-39472500D03*
X167742500Y-39472500D03*
X165202500Y-39472500D03*
X162662500Y-39472500D03*
X160122500Y-39472500D03*
X157582500Y-39472500D03*
X155042500Y-39472500D03*
X152502500Y-39472500D03*
X149962500Y-39472500D03*
X147422500Y-39472500D03*
X144882500Y-39472500D03*
X144882500Y-54712500D03*
X147422500Y-54712500D03*
X149962500Y-54712500D03*
X152502500Y-54712500D03*
X155042500Y-54712500D03*
X157582500Y-54712500D03*
X160122500Y-54712500D03*
X162662500Y-54712500D03*
X165202500Y-54712500D03*
X167742500Y-54712500D03*
X170282500Y-54712500D03*
X172822500Y-54712500D03*
X175362500Y-54712500D03*
X177902500Y-54712500D03*
X180442500Y-54712500D03*
X182982500Y-54712500D03*
X185522500Y-54712500D03*
X188062500Y-54712500D03*
X190602500Y-54712500D03*
X193142500Y-54712500D03*
%TD*%
D18*
%TO.C,D1*%
X188917500Y-29797500D03*
D19*
X188917500Y-32337500D03*
X186377500Y-29797500D03*
X186377500Y-32337500D03*
X183837500Y-29797500D03*
X183837500Y-32337500D03*
X181297500Y-29797500D03*
X181297500Y-32337500D03*
X178757500Y-29797500D03*
X178757500Y-32337500D03*
X176217500Y-29797500D03*
X176217500Y-32337500D03*
X173677500Y-29797500D03*
X173677500Y-32337500D03*
X171137500Y-29797500D03*
X171137500Y-32337500D03*
X168597500Y-29797500D03*
X168597500Y-32337500D03*
X166057500Y-29797500D03*
X166057500Y-32337500D03*
X163517500Y-29797500D03*
X163517500Y-32337500D03*
X160977500Y-29797500D03*
X160977500Y-32337500D03*
X158437500Y-29797500D03*
X158437500Y-32337500D03*
X155897500Y-29797500D03*
X155897500Y-32337500D03*
X153357500Y-29797500D03*
X153357500Y-32337500D03*
X150817500Y-29797500D03*
X150817500Y-32337500D03*
X148277500Y-29797500D03*
X148277500Y-32337500D03*
%TD*%
D20*
%TO.C,U2*%
X138760000Y-27547500D03*
X138760000Y-61647500D03*
X199960000Y-27547500D03*
X199960000Y-61647500D03*
D21*
X137260000Y-54757500D03*
D22*
X137260000Y-52217500D03*
X137260000Y-49677500D03*
X137260000Y-47137500D03*
X137260000Y-44597500D03*
X137260000Y-42057500D03*
X137260000Y-39517500D03*
X137260000Y-36977500D03*
X137260000Y-34437500D03*
X200780000Y-49677500D03*
X200780000Y-47137500D03*
X200780000Y-44597500D03*
X200780000Y-42057500D03*
X200780000Y-39517500D03*
%TD*%
M02*
