%TF.GenerationSoftware,KiCad,Pcbnew,7.0.1*%
%TF.CreationDate,2024-04-08T12:26:27+03:00*%
%TF.ProjectId,double_flop,646f7562-6c65-45f6-966c-6f702e6b6963,rev?*%
%TF.SameCoordinates,Original*%
%TF.FileFunction,Drillmap*%
%TF.FilePolarity,Positive*%
%FSLAX45Y45*%
G04 Gerber Fmt 4.5, Leading zero omitted, Abs format (unit mm)*
G04 Created by KiCad (PCBNEW 7.0.1) date 2024-04-08 12:26:27*
%MOMM*%
%LPD*%
G01*
G04 APERTURE LIST*
%ADD10C,0.100000*%
%ADD11C,0.200000*%
G04 APERTURE END LIST*
D10*
X20439250Y-2259750D02*
X13444250Y-2259750D01*
X13444250Y-8729750D01*
X20439250Y-8729750D01*
X20439250Y-2259750D01*
D11*
X13686869Y-9047274D02*
X13686869Y-8847274D01*
X13686869Y-8847274D02*
X13734488Y-8847274D01*
X13734488Y-8847274D02*
X13763059Y-8856798D01*
X13763059Y-8856798D02*
X13782107Y-8875845D01*
X13782107Y-8875845D02*
X13791631Y-8894893D01*
X13791631Y-8894893D02*
X13801155Y-8932988D01*
X13801155Y-8932988D02*
X13801155Y-8961560D01*
X13801155Y-8961560D02*
X13791631Y-8999655D01*
X13791631Y-8999655D02*
X13782107Y-9018702D01*
X13782107Y-9018702D02*
X13763059Y-9037750D01*
X13763059Y-9037750D02*
X13734488Y-9047274D01*
X13734488Y-9047274D02*
X13686869Y-9047274D01*
X13886869Y-9047274D02*
X13886869Y-8913940D01*
X13886869Y-8952036D02*
X13896393Y-8932988D01*
X13896393Y-8932988D02*
X13905917Y-8923464D01*
X13905917Y-8923464D02*
X13924964Y-8913940D01*
X13924964Y-8913940D02*
X13944012Y-8913940D01*
X14010678Y-9047274D02*
X14010678Y-8913940D01*
X14010678Y-8847274D02*
X14001155Y-8856798D01*
X14001155Y-8856798D02*
X14010678Y-8866321D01*
X14010678Y-8866321D02*
X14020202Y-8856798D01*
X14020202Y-8856798D02*
X14010678Y-8847274D01*
X14010678Y-8847274D02*
X14010678Y-8866321D01*
X14134488Y-9047274D02*
X14115440Y-9037750D01*
X14115440Y-9037750D02*
X14105917Y-9018702D01*
X14105917Y-9018702D02*
X14105917Y-8847274D01*
X14239250Y-9047274D02*
X14220202Y-9037750D01*
X14220202Y-9037750D02*
X14210678Y-9018702D01*
X14210678Y-9018702D02*
X14210678Y-8847274D01*
X14467821Y-9047274D02*
X14467821Y-8847274D01*
X14467821Y-8847274D02*
X14534488Y-8990131D01*
X14534488Y-8990131D02*
X14601155Y-8847274D01*
X14601155Y-8847274D02*
X14601155Y-9047274D01*
X14782107Y-9047274D02*
X14782107Y-8942512D01*
X14782107Y-8942512D02*
X14772583Y-8923464D01*
X14772583Y-8923464D02*
X14753536Y-8913940D01*
X14753536Y-8913940D02*
X14715440Y-8913940D01*
X14715440Y-8913940D02*
X14696393Y-8923464D01*
X14782107Y-9037750D02*
X14763059Y-9047274D01*
X14763059Y-9047274D02*
X14715440Y-9047274D01*
X14715440Y-9047274D02*
X14696393Y-9037750D01*
X14696393Y-9037750D02*
X14686869Y-9018702D01*
X14686869Y-9018702D02*
X14686869Y-8999655D01*
X14686869Y-8999655D02*
X14696393Y-8980607D01*
X14696393Y-8980607D02*
X14715440Y-8971083D01*
X14715440Y-8971083D02*
X14763059Y-8971083D01*
X14763059Y-8971083D02*
X14782107Y-8961560D01*
X14877345Y-8913940D02*
X14877345Y-9113940D01*
X14877345Y-8923464D02*
X14896393Y-8913940D01*
X14896393Y-8913940D02*
X14934488Y-8913940D01*
X14934488Y-8913940D02*
X14953536Y-8923464D01*
X14953536Y-8923464D02*
X14963059Y-8932988D01*
X14963059Y-8932988D02*
X14972583Y-8952036D01*
X14972583Y-8952036D02*
X14972583Y-9009179D01*
X14972583Y-9009179D02*
X14963059Y-9028226D01*
X14963059Y-9028226D02*
X14953536Y-9037750D01*
X14953536Y-9037750D02*
X14934488Y-9047274D01*
X14934488Y-9047274D02*
X14896393Y-9047274D01*
X14896393Y-9047274D02*
X14877345Y-9037750D01*
X15058298Y-9028226D02*
X15067821Y-9037750D01*
X15067821Y-9037750D02*
X15058298Y-9047274D01*
X15058298Y-9047274D02*
X15048774Y-9037750D01*
X15048774Y-9037750D02*
X15058298Y-9028226D01*
X15058298Y-9028226D02*
X15058298Y-9047274D01*
X15058298Y-8923464D02*
X15067821Y-8932988D01*
X15067821Y-8932988D02*
X15058298Y-8942512D01*
X15058298Y-8942512D02*
X15048774Y-8932988D01*
X15048774Y-8932988D02*
X15058298Y-8923464D01*
X15058298Y-8923464D02*
X15058298Y-8942512D01*
M02*
